<svg width="354" height="355" viewBox="0 0 354 355" fill="none" xmlns="http://www.w3.org/2000/svg">
<rect y="177.437" width="250" height="250" rx="54" transform="rotate(-45 0 177.437)" fill="#38B6FF" stroke="#009BF4" stroke-width="8"/>
<circle cx="177" cy="177.66" r="89" stroke="#F8F8F8" stroke-width="8"/>
<path opacity="0.3" d="M192.876 140.91H140.376V214.41H213.876V161.91H192.876V140.91ZM150.876 151.41H177.126V161.91H150.876V151.41ZM203.376 203.91H150.876V193.41H203.376V203.91ZM203.376 172.41V182.91H150.876V172.41H203.376Z" fill="#F8F8F8"/>
<path d="M150.876 182.91H203.376V172.41H150.876V182.91ZM150.876 203.91H203.376V193.41H150.876V203.91ZM198.126 130.41H140.376C134.601 130.41 129.876 135.135 129.876 140.91V214.41C129.876 220.185 134.601 224.91 140.376 224.91H213.876C219.651 224.91 224.376 220.185 224.376 214.41V156.66L198.126 130.41ZM213.876 214.41H140.376V140.91H192.876V161.91H213.876V214.41ZM177.126 151.41H150.876V161.91H177.126V151.41Z" fill="#F8F8F8"/>
</svg>