<svg width="1078" height="256" viewBox="0 0 1078 256" fill="none" xmlns="http://www.w3.org/2000/svg">
<g filter="url(#filter0_d)">
<path d="M69.8 59.2001L27.1999 101.8C18.2529 110.747 18.2529 125.253 27.1999 134.2L69.8 176.8C78.747 185.747 93.253 185.747 102.2 176.8L144.8 134.2C153.747 125.253 153.747 110.747 144.8 101.8L102.2 59.2001C93.253 50.2531 78.747 50.2531 69.8 59.2001Z" fill="#9D35E7"/>
</g>
<path fill-rule="evenodd" clip-rule="evenodd" d="M86.0968 82.0323C66.18 82.0323 50.0343 98.178 50.0343 118.095C50.0343 138.012 66.18 154.157 86.0968 154.157C106.014 154.157 122.159 138.012 122.159 118.095C122.159 98.178 106.014 82.0323 86.0968 82.0323ZM46.6402 118.095C46.6402 96.3035 64.3055 78.6382 86.0968 78.6382C107.888 78.6382 125.553 96.3035 125.553 118.095C125.553 139.886 107.888 157.551 86.0968 157.551C64.3055 157.551 46.6402 139.886 46.6402 118.095Z" fill="#F8F8F8"/>
<path opacity="0.3" d="M70.1656 110.978L86.3021 123.474L102.439 110.978L86.3021 98.4829L70.1656 110.978Z" fill="#F8F8F8"/>
<path d="M106.97 121.641L86.2744 137.731L65.6063 121.669L61.0633 125.201L86.3024 144.823L111.541 125.201L106.97 121.641ZM86.3024 91.3661L61.0633 110.989L65.6343 114.549L86.3024 130.611L106.942 114.549L111.541 110.989L86.3024 91.3661ZM86.3024 123.519L70.2053 110.989L86.3024 98.4581L102.399 110.989L86.3024 123.519Z" fill="#F8F8F8"/>
<g filter="url(#filter1_d)">
<path d="M283.8 59.2001L241.2 101.8C232.253 110.747 232.253 125.253 241.2 134.2L283.8 176.8C292.747 185.747 307.253 185.747 316.2 176.8L358.8 134.2C367.747 125.253 367.747 110.747 358.8 101.8L316.2 59.2001C307.253 50.2531 292.747 50.2531 283.8 59.2001Z" fill="#FF4365"/>
</g>
<path fill-rule="evenodd" clip-rule="evenodd" d="M300.094 82.0322C280.177 82.0322 264.031 98.1779 264.031 118.095C264.031 138.011 280.177 154.157 300.094 154.157C320.011 154.157 336.156 138.011 336.156 118.095C336.156 98.1779 320.011 82.0322 300.094 82.0322ZM260.637 118.095C260.637 96.3034 278.303 78.6381 300.094 78.6381C321.885 78.6381 339.55 96.3034 339.55 118.095C339.55 139.886 321.885 157.551 300.094 157.551C278.303 157.551 260.637 139.886 260.637 118.095Z" fill="#F8F8F8"/>
<path d="M283.123 138.23L283.868 144.823L288.696 140.25L296.949 117.679C294.923 117.174 293.135 116.164 291.675 114.768L283.123 138.23Z" fill="#F8F8F8"/>
<path d="M308.186 114.768C306.726 116.164 304.908 117.174 302.912 117.679L311.166 140.25L315.993 144.823L316.768 138.23L308.186 114.768Z" fill="#F8F8F8"/>
<path d="M308.868 106.215C308.868 102.354 306.366 99.0876 302.909 97.8402V91.366H296.949V97.8402C293.493 99.0876 290.99 102.354 290.99 106.215C290.99 111.145 294.983 115.125 299.929 115.125C304.876 115.125 308.868 111.145 308.868 106.215ZM299.929 109.185C298.291 109.185 296.949 107.849 296.949 106.215C296.949 104.582 298.291 103.245 299.929 103.245C301.568 103.245 302.909 104.582 302.909 106.215C302.909 107.849 301.568 109.185 299.929 109.185Z" fill="#F8F8F8"/>
<path opacity="0.3" d="M299.883 109.185C301.64 109.185 303.065 107.76 303.065 106.003C303.065 104.246 301.64 102.821 299.883 102.821C298.126 102.821 296.701 104.246 296.701 106.003C296.701 107.76 298.126 109.185 299.883 109.185Z" fill="#F8F8F8"/>
<g filter="url(#filter2_d)">
<path d="M517.4 39.6L460.6 96.4C448.671 108.329 448.671 127.671 460.6 139.6L517.4 196.4C529.329 208.329 548.671 208.329 560.6 196.4L617.4 139.6C629.329 127.671 629.329 108.329 617.4 96.4L560.6 39.6C548.671 27.6706 529.329 27.6706 517.4 39.6Z" fill="#2C91C6"/>
</g>
<path fill-rule="evenodd" clip-rule="evenodd" d="M539.128 70.0428C512.573 70.0428 491.045 91.5704 491.045 118.126C491.045 144.682 512.573 166.209 539.128 166.209C565.684 166.209 587.212 144.682 587.212 118.126C587.212 91.5704 565.684 70.0428 539.128 70.0428ZM486.52 118.126C486.52 89.071 510.073 65.5173 539.128 65.5173C568.183 65.5173 591.737 89.071 591.737 118.126C591.737 147.181 568.183 170.735 539.128 170.735C510.073 170.735 486.52 147.181 486.52 118.126Z" fill="#F8F8F8"/>
<path d="M500.658 118.229C500.658 116.313 501.035 114.613 501.787 113.129C502.563 111.647 503.601 110.506 504.902 109.708C506.225 108.909 507.697 108.509 509.317 108.509C510.731 108.509 511.963 108.795 513.013 109.365C514.085 109.936 514.941 110.654 515.579 111.521V108.817H520.405V127.778H515.579V125.005C514.963 125.895 514.108 126.637 513.013 127.23C511.94 127.8 510.697 128.086 509.282 128.086C507.685 128.086 506.225 127.675 504.902 126.854C503.601 126.032 502.563 124.88 501.787 123.397C501.035 121.891 500.658 120.168 500.658 118.229ZM515.579 118.298C515.579 117.134 515.351 116.141 514.895 115.32C514.438 114.476 513.822 113.837 513.047 113.404C512.271 112.947 511.439 112.719 510.549 112.719C509.659 112.719 508.838 112.936 508.084 113.369C507.332 113.803 506.716 114.442 506.237 115.286C505.78 116.107 505.552 117.088 505.552 118.229C505.552 119.37 505.78 120.374 506.237 121.241C506.716 122.085 507.332 122.735 508.084 123.192C508.86 123.648 509.682 123.876 510.549 123.876C511.439 123.876 512.271 123.659 513.047 123.226C513.822 122.769 514.438 122.131 514.895 121.309C515.351 120.465 515.579 119.461 515.579 118.298Z" fill="#F8F8F8"/>
<path d="M523.852 118.298C523.852 116.335 524.254 114.624 525.051 113.164C525.849 111.681 526.958 110.54 528.372 109.742C529.786 108.92 531.404 108.509 533.231 108.509C535.579 108.509 537.519 109.103 539.046 110.289C540.602 111.453 541.637 113.095 542.163 115.217H536.993C536.721 114.396 536.252 113.757 535.59 113.301C534.956 112.822 534.153 112.582 533.197 112.582C531.828 112.582 530.742 113.084 529.944 114.088C529.147 115.069 528.745 116.472 528.745 118.298C528.745 120.1 529.147 121.503 529.944 122.507C530.742 123.488 531.828 123.979 533.197 123.979C535.137 123.979 536.404 123.112 536.993 121.378H542.163C541.637 123.431 540.602 125.063 539.046 126.271C537.496 127.481 535.556 128.086 533.231 128.086C531.404 128.086 529.786 127.686 528.372 126.888C526.958 126.067 525.849 124.926 525.051 123.465C524.254 121.982 523.852 120.26 523.852 118.298Z" fill="#F8F8F8"/>
<path d="M569.22 108.543C571.545 108.543 573.417 109.262 574.831 110.7C576.268 112.114 576.987 114.099 576.987 116.655V127.778H572.195V117.305C572.195 115.822 571.822 114.692 571.07 113.917C570.317 113.118 569.288 112.719 567.987 112.719C566.686 112.719 565.65 113.118 564.875 113.917C564.117 114.692 563.744 115.822 563.744 117.305V127.778H558.953V117.305C558.953 115.822 558.574 114.692 557.821 113.917C557.069 113.118 556.045 112.719 554.744 112.719C553.42 112.719 552.368 113.118 551.593 113.917C550.841 114.692 550.467 115.822 550.467 117.305V127.778H545.676V108.817H550.467V111.11C551.078 110.312 551.87 109.684 552.826 109.228C553.805 108.772 554.88 108.543 556.045 108.543C557.527 108.543 558.851 108.863 560.011 109.502C561.176 110.118 562.081 111.007 562.714 112.171C563.331 111.076 564.225 110.198 565.385 109.536C566.573 108.874 567.851 108.543 569.22 108.543Z" fill="#F8F8F8"/>
<g filter="url(#filter3_d)">
<path d="M761.8 59.2L719.2 101.8C710.253 110.747 710.253 125.253 719.2 134.2L761.8 176.8C770.747 185.747 785.253 185.747 794.2 176.8L836.8 134.2C845.747 125.253 845.747 110.747 836.8 101.8L794.2 59.2C785.253 50.253 770.747 50.253 761.8 59.2Z" fill="#1E6CFF"/>
</g>
<path fill-rule="evenodd" clip-rule="evenodd" d="M778.096 82.0321C758.179 82.0321 742.034 98.1778 742.034 118.095C742.034 138.011 758.179 154.157 778.096 154.157C798.013 154.157 814.159 138.011 814.159 118.095C814.159 98.1778 798.013 82.0321 778.096 82.0321ZM738.64 118.095C738.64 96.3033 756.305 78.6379 778.096 78.6379C799.887 78.6379 817.553 96.3033 817.553 118.095C817.553 139.886 799.887 157.551 778.096 157.551C756.305 157.551 738.64 139.886 738.64 118.095Z" fill="#F8F8F8"/>
<path opacity="0.3" d="M797.678 109.007L795.807 105.773L792.413 107.136L789.579 108.285L787.148 106.414C786.104 105.612 785.01 104.971 783.86 104.516L781.026 103.367L780.597 100.347L780.088 96.7115H776.346L775.841 100.32L775.413 103.34L772.579 104.516C771.484 104.971 770.389 105.612 769.24 106.467L766.834 108.285L764.025 107.162L760.631 105.773L758.76 109.007L761.645 111.252L764.025 113.123L763.652 116.143C763.571 116.945 763.516 117.56 763.516 118.094C763.516 118.629 763.571 119.244 763.652 120.046L764.025 123.066L761.645 124.937L758.76 127.182L760.631 130.416L764.025 129.053L766.86 127.904L769.291 129.775C770.334 130.577 771.429 131.218 772.579 131.673L775.413 132.822L775.841 135.842L776.346 139.477H780.063L780.572 135.869L781 132.849L783.83 131.699C784.929 131.245 786.024 130.603 787.173 129.748L789.579 127.931L792.358 129.053L795.752 130.416L797.623 127.182L794.738 124.937L792.358 123.066L792.731 120.046C792.841 119.217 792.867 118.656 792.867 118.094C792.867 117.533 792.812 116.945 792.731 116.143L792.358 113.123L794.738 111.252L797.678 109.007ZM778.217 128.786C772.311 128.786 767.526 124.001 767.526 118.094C767.526 112.187 772.311 107.403 778.217 107.403C784.127 107.403 788.909 112.187 788.909 118.094C788.909 124.001 784.127 128.786 778.217 128.786Z" fill="#F8F8F8"/>
<path d="M798.076 120.714C798.186 119.859 798.262 119.003 798.262 118.095C798.262 117.186 798.186 116.33 798.076 115.475L803.718 111.065C804.223 110.664 804.359 109.942 804.037 109.354L798.691 100.106C798.453 99.6785 797.995 99.438 797.516 99.438C797.354 99.438 797.193 99.4647 797.062 99.5181L790.405 102.191C789.018 101.122 787.52 100.24 785.891 99.5716L784.873 92.4885C784.792 91.847 784.232 91.3659 783.562 91.3659H772.87C772.204 91.3659 771.644 91.847 771.563 92.4885L770.545 99.5716C768.916 100.24 767.418 101.149 766.031 102.191L759.374 99.5181C759.213 99.4647 759.052 99.438 758.895 99.438C758.437 99.438 757.983 99.6785 757.745 100.106L752.399 109.354C752.051 109.942 752.213 110.664 752.718 111.065L758.36 115.475C758.25 116.33 758.169 117.212 758.169 118.095C758.169 118.977 758.25 119.859 758.36 120.714L752.718 125.124C752.213 125.525 752.077 126.247 752.399 126.835L757.745 136.083C757.983 136.511 758.437 136.751 758.92 136.751C759.082 136.751 759.239 136.724 759.374 136.671L766.031 133.998C767.418 135.067 768.916 135.949 770.545 136.617L771.563 143.701C771.644 144.342 772.204 144.823 772.87 144.823H783.562C784.232 144.823 784.792 144.342 784.873 143.701L785.891 136.617C787.52 135.949 789.018 135.04 790.405 133.998L797.062 136.671C797.223 136.724 797.384 136.751 797.541 136.751C797.995 136.751 798.453 136.511 798.691 136.083L804.037 126.835C804.359 126.247 804.223 125.525 803.718 125.124L798.076 120.714ZM792.785 116.143C792.891 116.972 792.917 117.533 792.917 118.095C792.917 118.656 792.866 119.244 792.785 120.046L792.412 123.066L794.788 124.937L797.677 127.182L795.806 130.416L792.412 129.053L789.633 127.931L787.227 129.748C786.077 130.604 784.979 131.245 783.884 131.699L781.05 132.849L780.621 135.869L780.087 139.477H776.345L775.84 135.869L775.411 132.849L772.577 131.699C771.428 131.218 770.358 130.604 769.289 129.802L766.858 127.931L764.024 129.08L760.63 130.443L758.759 127.209L761.644 124.964L764.024 123.093L763.651 120.072C763.57 119.244 763.515 118.629 763.515 118.095C763.515 117.56 763.57 116.945 763.651 116.143L764.024 113.123L761.644 111.252L758.759 109.007L760.63 105.773L764.024 107.136L766.803 108.258L769.209 106.441C770.359 105.586 771.457 104.944 772.552 104.49L775.386 103.34L775.81 100.32L776.345 96.7116H780.061L780.571 100.32L780.999 103.34L783.829 104.49C784.979 104.971 786.048 105.586 787.117 106.387L789.552 108.258L792.382 107.109L795.78 105.746L797.651 108.98L794.788 111.252L792.412 113.123L792.785 116.143ZM778.216 107.403C772.31 107.403 767.524 112.188 767.524 118.095C767.524 124.002 772.31 128.786 778.216 128.786C784.126 128.786 788.907 124.002 788.907 118.095C788.907 112.188 784.126 107.403 778.216 107.403ZM778.216 123.44C775.276 123.44 772.87 121.035 772.87 118.095C772.87 115.154 775.276 112.749 778.216 112.749C781.156 112.749 783.562 115.154 783.562 118.095C783.562 121.035 781.156 123.44 778.216 123.44Z" fill="#F8F8F8"/>
<g filter="url(#filter4_d)">
<path d="M975.8 59.2L933.2 101.8C924.253 110.747 924.253 125.253 933.2 134.2L975.8 176.8C984.747 185.747 999.253 185.747 1008.2 176.8L1050.8 134.2C1059.75 125.253 1059.75 110.747 1050.8 101.8L1008.2 59.2C999.253 50.253 984.747 50.253 975.8 59.2Z" fill="#D51153"/>
</g>
<path fill-rule="evenodd" clip-rule="evenodd" d="M992.099 82.0322C972.182 82.0322 956.036 98.1779 956.036 118.095C956.036 138.011 972.182 154.157 992.099 154.157C1012.02 154.157 1028.16 138.011 1028.16 118.095C1028.16 98.1779 1012.02 82.0322 992.099 82.0322ZM952.642 118.095C952.642 96.3034 970.307 78.6381 992.099 78.6381C1013.89 78.6381 1031.56 96.3034 1031.56 118.095C1031.56 139.886 1013.89 157.551 992.099 157.551C970.307 157.551 952.642 139.886 952.642 118.095Z" fill="#F8F8F8"/>
<path opacity="0.3" d="M1012.16 114.693C1013.22 115.741 1014.91 115.741 1015.96 114.693C1017.01 113.644 1017.01 111.945 1015.96 110.897C1014.91 109.849 1013.22 109.849 1012.16 110.897C1011.11 111.945 1011.11 113.644 1012.16 114.693Z" fill="#F8F8F8"/>
<path opacity="0.3" d="M976.106 105.204C977.153 106.253 978.855 106.253 979.903 105.204C980.951 104.156 980.951 102.457 979.903 101.409C978.855 100.361 977.153 100.361 976.106 101.409C975.058 102.457 975.058 104.156 976.106 105.204Z" fill="#F8F8F8"/>
<path opacity="0.3" d="M985.556 141.297C986.604 142.345 988.301 142.345 989.349 141.297C990.397 140.249 990.397 138.55 989.349 137.502C988.301 136.454 986.604 136.454 985.556 137.502C984.508 138.55 984.508 140.249 985.556 141.297Z" fill="#F8F8F8"/>
<path d="M993.033 133.82C991.59 132.378 989.732 131.657 987.852 131.562L982.197 110.157C982.727 109.816 983.241 109.455 983.699 109C984.153 108.544 984.513 108.032 984.853 107.5L1006.03 113.079C1006.11 115.053 1006.87 116.989 1008.37 118.488C1011.51 121.638 1016.6 121.638 1019.75 118.488C1022.9 115.337 1022.9 110.252 1019.75 107.102C1016.6 103.952 1011.51 103.952 1008.37 107.102C1007.91 107.557 1007.55 108.07 1007.21 108.601L986.032 103.022C985.956 101.049 985.196 99.1131 983.699 97.6142C980.546 94.464 975.46 94.464 972.311 97.6142C969.159 100.764 969.159 105.85 972.311 109C973.809 110.499 975.744 111.258 977.721 111.334L983.338 132.739C982.842 133.042 982.367 133.403 981.951 133.82C978.896 136.875 978.896 141.847 981.951 144.902C985.005 147.957 989.978 147.957 993.033 144.902C996.087 141.847 996.087 136.875 993.033 133.82ZM1015.96 110.897C1017 111.941 1017 113.649 1015.96 114.693C1014.91 115.736 1013.2 115.736 1012.16 114.693C1011.12 113.649 1011.12 111.941 1012.16 110.897C1013.2 109.853 1014.91 109.853 1015.96 110.897ZM976.104 105.204C975.061 104.161 975.061 102.453 976.104 101.409C977.148 100.366 978.858 100.366 979.902 101.409C980.945 102.453 980.945 104.161 979.902 105.204C978.858 106.248 977.148 106.248 976.104 105.204ZM985.557 141.296C984.513 140.253 984.513 138.545 985.557 137.501C986.601 136.458 988.306 136.458 989.35 137.501C990.394 138.545 990.394 140.253 989.35 141.296C988.306 142.34 986.601 142.34 985.557 141.296Z" fill="#F8F8F8"/>
<defs>
<filter id="filter0_d" x="0.489685" y="37.4898" width="171.021" height="171.021" filterUnits="userSpaceOnUse" color-interpolation-filters="sRGB">
<feFlood flood-opacity="0" result="BackgroundImageFix"/>
<feColorMatrix in="SourceAlpha" type="matrix" values="0 0 0 0 0 0 0 0 0 0 0 0 0 0 0 0 0 0 127 0"/>
<feOffset dy="5"/>
<feGaussianBlur stdDeviation="10"/>
<feColorMatrix type="matrix" values="0 0 0 0 0.615686 0 0 0 0 0.207843 0 0 0 0 0.905882 0 0 0 0.5 0"/>
<feBlend mode="normal" in2="BackgroundImageFix" result="effect1_dropShadow"/>
<feBlend mode="normal" in="SourceGraphic" in2="effect1_dropShadow" result="shape"/>
</filter>
<filter id="filter1_d" x="214.49" y="37.4898" width="171.021" height="171.021" filterUnits="userSpaceOnUse" color-interpolation-filters="sRGB">
<feFlood flood-opacity="0" result="BackgroundImageFix"/>
<feColorMatrix in="SourceAlpha" type="matrix" values="0 0 0 0 0 0 0 0 0 0 0 0 0 0 0 0 0 0 127 0"/>
<feOffset dy="5"/>
<feGaussianBlur stdDeviation="10"/>
<feColorMatrix type="matrix" values="0 0 0 0 1 0 0 0 0 0.262745 0 0 0 0 0.396078 0 0 0 0.5 0"/>
<feBlend mode="normal" in2="BackgroundImageFix" result="effect1_dropShadow"/>
<feBlend mode="normal" in="SourceGraphic" in2="effect1_dropShadow" result="shape"/>
</filter>
<filter id="filter2_d" x="411.653" y="0.652954" width="254.694" height="254.694" filterUnits="userSpaceOnUse" color-interpolation-filters="sRGB">
<feFlood flood-opacity="0" result="BackgroundImageFix"/>
<feColorMatrix in="SourceAlpha" type="matrix" values="0 0 0 0 0 0 0 0 0 0 0 0 0 0 0 0 0 0 127 0"/>
<feOffset dy="10"/>
<feGaussianBlur stdDeviation="20"/>
<feColorMatrix type="matrix" values="0 0 0 0 0.172549 0 0 0 0 0.568627 0 0 0 0 0.776471 0 0 0 0.5 0"/>
<feBlend mode="normal" in2="BackgroundImageFix" result="effect1_dropShadow"/>
<feBlend mode="normal" in="SourceGraphic" in2="effect1_dropShadow" result="shape"/>
</filter>
<filter id="filter3_d" x="692.49" y="37.4897" width="171.021" height="171.021" filterUnits="userSpaceOnUse" color-interpolation-filters="sRGB">
<feFlood flood-opacity="0" result="BackgroundImageFix"/>
<feColorMatrix in="SourceAlpha" type="matrix" values="0 0 0 0 0 0 0 0 0 0 0 0 0 0 0 0 0 0 127 0"/>
<feOffset dy="5"/>
<feGaussianBlur stdDeviation="10"/>
<feColorMatrix type="matrix" values="0 0 0 0 0.117647 0 0 0 0 0.423529 0 0 0 0 1 0 0 0 0.5 0"/>
<feBlend mode="normal" in2="BackgroundImageFix" result="effect1_dropShadow"/>
<feBlend mode="normal" in="SourceGraphic" in2="effect1_dropShadow" result="shape"/>
</filter>
<filter id="filter4_d" x="906.49" y="37.4897" width="171.021" height="171.021" filterUnits="userSpaceOnUse" color-interpolation-filters="sRGB">
<feFlood flood-opacity="0" result="BackgroundImageFix"/>
<feColorMatrix in="SourceAlpha" type="matrix" values="0 0 0 0 0 0 0 0 0 0 0 0 0 0 0 0 0 0 127 0"/>
<feOffset dy="5"/>
<feGaussianBlur stdDeviation="10"/>
<feColorMatrix type="matrix" values="0 0 0 0 0.831373 0 0 0 0 0.0666667 0 0 0 0 0.32549 0 0 0 0.5 0"/>
<feBlend mode="normal" in2="BackgroundImageFix" result="effect1_dropShadow"/>
<feBlend mode="normal" in="SourceGraphic" in2="effect1_dropShadow" result="shape"/>
</filter>
</defs>
</svg>
