<svg width="1078" height="256" viewBox="0 0 1078 256" fill="none" xmlns="http://www.w3.org/2000/svg">
<rect width="1078" height="256" fill="black"/>
<rect x="10" y="10" width="19" height="19" rx="3" fill="#333333"/>
<rect x="10" y="37" width="19" height="19" rx="3" fill="#333333"/>
<rect x="10" y="64" width="19" height="19" rx="3" fill="#035A4F"/>
<rect x="10" y="91" width="19" height="19" rx="3" fill="#035A4F"/>
<rect x="10" y="118" width="19" height="19" rx="3" fill="#333333"/>
<rect x="10" y="145" width="19" height="19" rx="3" fill="#333333"/>
<rect x="10" y="172" width="19" height="19" rx="3" fill="#035A4F"/>
<path d="M10 202C10 200.343 11.3431 199 13 199H26C27.6569 199 29 200.343 29 202V215C29 216.657 27.6569 218 26 218H13C11.3431 218 10 216.657 10 215V202Z" fill="#333333"/>
<rect x="10" y="226" width="19" height="19" rx="3" fill="#047C70"/>
<rect x="37" y="10" width="19" height="19" rx="3" fill="#333333"/>
<rect x="37" y="37" width="19" height="19" rx="3" fill="#333333"/>
<rect x="37" y="64" width="19" height="19" rx="3" fill="#333333"/>
<rect x="37" y="91" width="19" height="19" rx="3" fill="#035A4F"/>
<rect x="37" y="118" width="19" height="19" rx="3" fill="#035A4F"/>
<rect x="37" y="145" width="19" height="19" rx="3" fill="#035A4F"/>
<rect x="37" y="172" width="19" height="19" rx="3" fill="#035A4F"/>
<rect x="37" y="199" width="19" height="19" rx="3" fill="#333333"/>
<rect x="37" y="226" width="19" height="19" rx="3" fill="#333333"/>
<rect x="64" y="10" width="19" height="19" rx="3" fill="#06A393"/>
<rect x="64" y="37" width="19" height="19" rx="3" fill="#06A393"/>
<rect x="64" y="64" width="19" height="19" rx="3" fill="#333333"/>
<rect x="64" y="91" width="19" height="19" rx="3" fill="#333333"/>
<rect x="64" y="118" width="19" height="19" rx="3" fill="#047C70"/>
<rect x="64" y="145" width="19" height="19" rx="3" fill="#333333"/>
<rect x="64" y="172" width="19" height="19" rx="3" fill="#047C70"/>
<rect x="64" y="199" width="19" height="19" rx="3" fill="#06A393"/>
<rect x="64" y="226" width="19" height="19" rx="3" fill="#06A393"/>
<rect x="91" y="10" width="19" height="19" rx="3" fill="#035A4F"/>
<rect x="91" y="37" width="19" height="19" rx="3" fill="#06A393"/>
<rect x="91" y="64" width="19" height="19" rx="3" fill="#11D4B1"/>
<rect x="91" y="91" width="19" height="19" rx="3" fill="#035A4F"/>
<rect x="91" y="118" width="19" height="19" rx="3" fill="#035A4F"/>
<rect x="91" y="145" width="19" height="19" rx="3" fill="#035A4F"/>
<rect x="91" y="172" width="19" height="19" rx="3" fill="#035A4F"/>
<rect x="91" y="199" width="19" height="19" rx="3" fill="#035A4F"/>
<rect x="91" y="226" width="19" height="19" rx="3" fill="#035A4F"/>
<rect x="118" y="10" width="19" height="19" rx="3" fill="#11D4B1"/>
<rect x="118" y="37" width="19" height="19" rx="3" fill="#035A4F"/>
<rect x="118" y="64" width="19" height="19" rx="3" fill="#047C70"/>
<rect x="118" y="91" width="19" height="19" rx="3" fill="#333333"/>
<rect x="118" y="118" width="19" height="19" rx="3" fill="#035A4F"/>
<rect x="118" y="145" width="19" height="19" rx="3" fill="#035A4F"/>
<rect x="118" y="172" width="19" height="19" rx="3" fill="#035A4F"/>
<rect x="118" y="199" width="19" height="19" rx="3" fill="#035A4F"/>
<rect x="118" y="226" width="19" height="19" rx="3" fill="#035A4F"/>
<rect x="145" y="10" width="19" height="19" rx="3" fill="#333333"/>
<rect x="145" y="37" width="19" height="19" rx="3" fill="#333333"/>
<rect x="145" y="64" width="19" height="19" rx="3" fill="#06A393"/>
<rect x="145" y="91" width="19" height="19" rx="3" fill="#06A393"/>
<rect x="145" y="118" width="19" height="19" rx="3" fill="#11D4B1"/>
<rect x="145" y="145" width="19" height="19" rx="3" fill="#11D4B1"/>
<rect x="145" y="172" width="19" height="19" rx="3" fill="#333333"/>
<rect x="145" y="199" width="19" height="19" rx="3" fill="#333333"/>
<rect x="145" y="226" width="19" height="19" rx="3" fill="#047C70"/>
<rect x="172" y="10" width="19" height="19" rx="3" fill="#06A393"/>
<rect x="172" y="37" width="19" height="19" rx="3" fill="#047C70"/>
<rect x="172" y="64" width="19" height="19" rx="3" fill="#047C70"/>
<rect x="172" y="91" width="19" height="19" rx="3" fill="#047C70"/>
<rect x="172" y="118" width="19" height="19" rx="3" fill="#06A393"/>
<rect x="172" y="145" width="19" height="19" rx="3" fill="#333333"/>
<rect x="172" y="172" width="19" height="19" rx="3" fill="#035A4F"/>
<rect x="172" y="199" width="19" height="19" rx="3" fill="#035A4F"/>
<rect x="172" y="226" width="19" height="19" rx="3" fill="#035A4F"/>
<rect x="199" y="10" width="19" height="19" rx="3" fill="#035A4F"/>
<rect x="199" y="37" width="19" height="19" rx="3" fill="#06A393"/>
<rect x="199" y="64" width="19" height="19" rx="3" fill="#035A4F"/>
<rect x="199" y="91" width="19" height="19" rx="3" fill="#035A4F"/>
<rect x="199" y="118" width="19" height="19" rx="3" fill="#035A4F"/>
<rect x="199" y="145" width="19" height="19" rx="3" fill="#035A4F"/>
<rect x="199" y="172" width="19" height="19" rx="3" fill="#035A4F"/>
<rect x="199" y="199" width="19" height="19" rx="3" fill="#035A4F"/>
<rect x="199" y="226" width="19" height="19" rx="3" fill="#035A4F"/>
<rect x="226" y="10" width="19" height="19" rx="3" fill="#035A4F"/>
<rect x="226" y="37" width="19" height="19" rx="3" fill="#035A4F"/>
<rect x="226" y="64" width="19" height="19" rx="3" fill="#035A4F"/>
<rect x="226" y="91" width="19" height="19" rx="3" fill="#035A4F"/>
<rect x="226" y="118" width="19" height="19" rx="3" fill="#035A4F"/>
<rect x="226" y="145" width="19" height="19" rx="3" fill="#035A4F"/>
<rect x="226" y="172" width="19" height="19" rx="3" fill="#035A4F"/>
<rect x="226" y="199" width="19" height="19" rx="3" fill="#035A4F"/>
<rect x="226" y="226" width="19" height="19" rx="3" fill="#035A4F"/>
<rect x="253" y="10" width="19" height="19" rx="3" fill="#035A4F"/>
<rect x="253" y="37" width="19" height="19" rx="3" fill="#035A4F"/>
<rect x="253" y="64" width="19" height="19" rx="3" fill="#035A4F"/>
<rect x="253" y="91" width="19" height="19" rx="3" fill="#035A4F"/>
<rect x="253" y="118" width="19" height="19" rx="3" fill="#047C70"/>
<rect x="253" y="145" width="19" height="19" rx="3" fill="#035A4F"/>
<rect x="253" y="172" width="19" height="19" rx="3" fill="#333333"/>
<rect x="253" y="199" width="19" height="19" rx="3" fill="#035A4F"/>
<rect x="253" y="226" width="19" height="19" rx="3" fill="#11D4B1"/>
<rect x="280" y="10" width="19" height="19" rx="3" fill="#035A4F"/>
<rect x="280" y="37" width="19" height="19" rx="3" fill="#06A393"/>
<rect x="280" y="64" width="19" height="19" rx="3" fill="#11D4B1"/>
<rect x="280" y="91" width="19" height="19" rx="3" fill="#333333"/>
<rect x="280" y="118" width="19" height="19" rx="3" fill="#047C70"/>
<rect x="280" y="145" width="19" height="19" rx="3" fill="#11D4B1"/>
<rect x="280" y="172" width="19" height="19" rx="3" fill="#11D4B1"/>
<path d="M280 202C280 200.343 281.343 199 283 199H296C297.657 199 299 200.343 299 202V215C299 216.657 297.657 218 296 218H283C281.343 218 280 216.657 280 215V202Z" fill="#047C70"/>
<rect x="280" y="226" width="19" height="19" rx="3" fill="#047C70"/>
<rect x="307" y="10" width="19" height="19" rx="3" fill="#035A4F"/>
<rect x="307" y="37" width="19" height="19" rx="3" fill="#035A4F"/>
<rect x="307" y="64" width="19" height="19" rx="3" fill="#035A4F"/>
<rect x="307" y="91" width="19" height="19" rx="3" fill="#06A393"/>
<rect x="307" y="118" width="19" height="19" rx="3" fill="#11D4B1"/>
<rect x="307" y="145" width="19" height="19" rx="3" fill="#035A4F"/>
<rect x="307" y="172" width="19" height="19" rx="3" fill="#035A4F"/>
<rect x="307" y="199" width="19" height="19" rx="3" fill="#035A4F"/>
<rect x="307" y="226" width="19" height="19" rx="3" fill="#035A4F"/>
<rect x="334" y="10" width="19" height="19" rx="3" fill="#11D4B1"/>
<rect x="334" y="37" width="19" height="19" rx="3" fill="#11D4B1"/>
<rect x="334" y="64" width="19" height="19" rx="3" fill="#11D4B1"/>
<rect x="334" y="91" width="19" height="19" rx="3" fill="#11D4B1"/>
<rect x="334" y="118" width="19" height="19" rx="3" fill="#06A393"/>
<rect x="334" y="145" width="19" height="19" rx="3" fill="#047C70"/>
<rect x="334" y="172" width="19" height="19" rx="3" fill="#035A4F"/>
<rect x="334" y="199" width="19" height="19" rx="3" fill="#11D4B1"/>
<rect x="334" y="226" width="19" height="19" rx="3" fill="#11D4B1"/>
<rect x="361" y="10" width="19" height="19" rx="3" fill="#11D4B1"/>
<rect x="361" y="37" width="19" height="19" rx="3" fill="#11D4B1"/>
<rect x="361" y="64" width="19" height="19" rx="3" fill="#11D4B1"/>
<rect x="361" y="91" width="19" height="19" rx="3" fill="#11D4B1"/>
<rect x="361" y="118" width="19" height="19" rx="3" fill="#11D4B1"/>
<rect x="361" y="145" width="19" height="19" rx="3" fill="#11D4B1"/>
<rect x="361" y="172" width="19" height="19" rx="3" fill="#11D4B1"/>
<rect x="361" y="199" width="19" height="19" rx="3" fill="#11D4B1"/>
<rect x="361" y="226" width="19" height="19" rx="3" fill="#11D4B1"/>
<rect x="388" y="10" width="19" height="19" rx="3" fill="#11D4B1"/>
<rect x="388" y="37" width="19" height="19" rx="3" fill="#11D4B1"/>
<rect x="388" y="64" width="19" height="19" rx="3" fill="#11D4B1"/>
<rect x="388" y="91" width="19" height="19" rx="3" fill="#11D4B1"/>
<rect x="388" y="118" width="19" height="19" rx="3" fill="#06A393"/>
<rect x="388" y="145" width="19" height="19" rx="3" fill="#035A4F"/>
<rect x="388" y="172" width="19" height="19" rx="3" fill="#11D4B1"/>
<rect x="388" y="199" width="19" height="19" rx="3" fill="#06A393"/>
<rect x="388" y="226" width="19" height="19" rx="3" fill="#11D4B1" fill-opacity="0.51"/>
<rect x="415" y="10" width="19" height="19" rx="3" fill="#11D4B1"/>
<rect x="415" y="37" width="19" height="19" rx="3" fill="#11D4B1"/>
<rect x="415" y="64" width="19" height="19" rx="3" fill="#11D4B1"/>
<rect x="415" y="91" width="19" height="19" rx="3" fill="#11D4B1"/>
<rect x="415" y="118" width="19" height="19" rx="3" fill="#11D4B1"/>
<path d="M635.899 137.208C633.941 137.208 632.141 136.753 630.499 135.843C628.877 134.933 627.581 133.667 626.611 132.044C625.662 130.403 625.187 128.563 625.187 126.525C625.187 124.488 625.662 122.658 626.611 121.035C627.581 119.413 628.877 118.147 630.499 117.237C632.141 116.327 633.941 115.872 635.899 115.872C637.858 115.872 639.648 116.327 641.27 117.237C642.912 118.147 644.198 119.413 645.128 121.035C646.077 122.658 646.552 124.488 646.552 126.525C646.552 128.563 646.077 130.403 645.128 132.044C644.178 133.667 642.893 134.933 641.27 135.843C639.648 136.753 637.858 137.208 635.899 137.208ZM635.899 132.579C637.561 132.579 638.887 132.025 639.876 130.917C640.885 129.809 641.389 128.345 641.389 126.525C641.389 124.685 640.885 123.221 639.876 122.133C638.887 121.026 637.561 120.472 635.899 120.472C634.218 120.472 632.873 121.016 631.864 122.104C630.875 123.192 630.38 124.666 630.38 126.525C630.38 128.365 630.875 129.839 631.864 130.947C632.873 132.035 634.218 132.579 635.899 132.579ZM654.449 122.786C654.944 122.015 655.627 121.392 656.497 120.917C657.367 120.442 658.386 120.205 659.553 120.205C660.918 120.205 662.155 120.551 663.263 121.243C664.37 121.936 665.241 122.925 665.874 124.211C666.527 125.496 666.853 126.99 666.853 128.691C666.853 130.393 666.527 131.896 665.874 133.202C665.241 134.488 664.37 135.487 663.263 136.199C662.155 136.891 660.918 137.237 659.553 137.237C658.406 137.237 657.387 137 656.497 136.525C655.627 136.05 654.944 135.437 654.449 134.685V144.893H649.375V120.442H654.449V122.786ZM661.69 128.691C661.69 127.425 661.334 126.436 660.622 125.724C659.929 124.992 659.069 124.626 658.04 124.626C657.031 124.626 656.171 124.992 655.458 125.724C654.766 126.456 654.42 127.455 654.42 128.721C654.42 129.987 654.766 130.986 655.458 131.718C656.171 132.45 657.031 132.816 658.04 132.816C659.049 132.816 659.909 132.45 660.622 131.718C661.334 130.966 661.69 129.957 661.69 128.691ZM685.124 128.454C685.124 128.929 685.094 129.423 685.035 129.938H673.551C673.63 130.966 673.956 131.758 674.53 132.312C675.124 132.846 675.846 133.113 676.696 133.113C677.962 133.113 678.843 132.579 679.337 131.51H684.738C684.461 132.598 683.956 133.578 683.224 134.448C682.512 135.318 681.612 136.001 680.524 136.496C679.436 136.99 678.22 137.237 676.874 137.237C675.252 137.237 673.808 136.891 672.542 136.199C671.276 135.506 670.287 134.517 669.575 133.231C668.862 131.946 668.506 130.442 668.506 128.721C668.506 127 668.852 125.496 669.545 124.211C670.257 122.925 671.246 121.936 672.512 121.243C673.778 120.551 675.232 120.205 676.874 120.205C678.477 120.205 679.901 120.541 681.147 121.214C682.394 121.886 683.363 122.846 684.055 124.092C684.768 125.338 685.124 126.792 685.124 128.454ZM679.931 127.119C679.931 126.248 679.634 125.556 679.04 125.041C678.447 124.527 677.705 124.27 676.815 124.27C675.964 124.27 675.242 124.517 674.649 125.012C674.075 125.506 673.719 126.209 673.58 127.119H679.931ZM697.89 120.264C699.828 120.264 701.371 120.897 702.519 122.163C703.686 123.409 704.27 125.13 704.27 127.326V137H699.225V128.009C699.225 126.901 698.938 126.04 698.364 125.427C697.791 124.814 697.019 124.507 696.05 124.507C695.081 124.507 694.309 124.814 693.735 125.427C693.162 126.04 692.875 126.901 692.875 128.009V137H687.801V120.442H692.875V122.638C693.389 121.906 694.081 121.332 694.952 120.917C695.822 120.482 696.802 120.264 697.89 120.264ZM721.621 137.208C720.098 137.208 718.733 136.96 717.526 136.466C716.319 135.971 715.35 135.239 714.618 134.27C713.906 133.301 713.53 132.133 713.49 130.768H718.891C718.97 131.54 719.237 132.133 719.692 132.549C720.147 132.945 720.741 133.142 721.473 133.142C722.224 133.142 722.818 132.974 723.253 132.638C723.688 132.282 723.906 131.797 723.906 131.184C723.906 130.67 723.728 130.244 723.372 129.908C723.035 129.572 722.61 129.295 722.096 129.077C721.601 128.859 720.889 128.612 719.959 128.335C718.614 127.92 717.516 127.504 716.666 127.089C715.815 126.674 715.083 126.06 714.47 125.249C713.856 124.438 713.55 123.38 713.55 122.074C713.55 120.135 714.252 118.622 715.657 117.534C717.061 116.426 718.891 115.872 721.146 115.872C723.441 115.872 725.291 116.426 726.695 117.534C728.1 118.622 728.852 120.145 728.95 122.104H723.461C723.421 121.431 723.174 120.907 722.719 120.531C722.264 120.135 721.68 119.938 720.968 119.938C720.355 119.938 719.86 120.106 719.485 120.442C719.109 120.759 718.921 121.223 718.921 121.837C718.921 122.509 719.237 123.034 719.87 123.409C720.503 123.785 721.492 124.191 722.838 124.626C724.183 125.081 725.271 125.516 726.102 125.932C726.952 126.347 727.684 126.95 728.298 127.742C728.911 128.533 729.218 129.552 729.218 130.798C729.218 131.985 728.911 133.063 728.298 134.033C727.704 135.002 726.834 135.773 725.686 136.347C724.539 136.921 723.184 137.208 721.621 137.208ZM739.877 137.237C738.255 137.237 736.791 136.891 735.486 136.199C734.2 135.506 733.181 134.517 732.429 133.231C731.697 131.946 731.331 130.442 731.331 128.721C731.331 127.02 731.707 125.526 732.459 124.24C733.211 122.935 734.239 121.936 735.545 121.243C736.851 120.551 738.315 120.205 739.937 120.205C741.559 120.205 743.023 120.551 744.328 121.243C745.634 121.936 746.663 122.935 747.415 124.24C748.166 125.526 748.542 127.02 748.542 128.721C748.542 130.422 748.156 131.926 747.385 133.231C746.633 134.517 745.595 135.506 744.269 136.199C742.963 136.891 741.5 137.237 739.877 137.237ZM739.877 132.846C740.847 132.846 741.668 132.49 742.34 131.777C743.033 131.065 743.379 130.046 743.379 128.721C743.379 127.396 743.043 126.377 742.37 125.665C741.717 124.952 740.906 124.596 739.937 124.596C738.948 124.596 738.127 124.952 737.474 125.665C736.821 126.357 736.495 127.376 736.495 128.721C736.495 130.046 736.811 131.065 737.444 131.777C738.097 132.49 738.908 132.846 739.877 132.846ZM767.584 120.442V137H762.51V134.745C761.996 135.477 761.294 136.07 760.403 136.525C759.533 136.96 758.564 137.178 757.495 137.178C756.229 137.178 755.112 136.901 754.142 136.347C753.173 135.773 752.421 134.953 751.887 133.884C751.353 132.816 751.086 131.56 751.086 130.116V120.442H756.13V129.433C756.13 130.541 756.417 131.402 756.991 132.015C757.565 132.628 758.336 132.935 759.305 132.935C760.295 132.935 761.076 132.628 761.65 132.015C762.223 131.402 762.51 130.541 762.51 129.433V120.442H767.584ZM776.303 123.202C776.897 122.292 777.639 121.579 778.529 121.065C779.419 120.531 780.408 120.264 781.496 120.264V125.635H780.102C778.836 125.635 777.886 125.912 777.253 126.466C776.62 127 776.303 127.949 776.303 129.314V137H771.229V120.442H776.303V123.202ZM782.913 128.721C782.913 127 783.259 125.496 783.951 124.211C784.664 122.925 785.643 121.936 786.889 121.243C788.155 120.551 789.599 120.205 791.221 120.205C793.299 120.205 795.03 120.749 796.414 121.837C797.819 122.925 798.739 124.458 799.174 126.436H793.773C793.318 125.17 792.438 124.537 791.132 124.537C790.203 124.537 789.461 124.903 788.907 125.635C788.353 126.347 788.076 127.376 788.076 128.721C788.076 130.066 788.353 131.105 788.907 131.837C789.461 132.549 790.203 132.905 791.132 132.905C792.438 132.905 793.318 132.272 793.773 131.006H799.174C798.739 132.945 797.819 134.468 796.414 135.576C795.01 136.683 793.279 137.237 791.221 137.237C789.599 137.237 788.155 136.891 786.889 136.199C785.643 135.506 784.664 134.517 783.951 133.231C783.259 131.946 782.913 130.442 782.913 128.721ZM817.497 128.454C817.497 128.929 817.467 129.423 817.408 129.938H805.924C806.003 130.966 806.329 131.758 806.903 132.312C807.497 132.846 808.219 133.113 809.069 133.113C810.335 133.113 811.216 132.579 811.71 131.51H817.111C816.834 132.598 816.33 133.578 815.598 134.448C814.885 135.318 813.985 136.001 812.897 136.496C811.809 136.99 810.593 137.237 809.247 137.237C807.625 137.237 806.181 136.891 804.915 136.199C803.649 135.506 802.66 134.517 801.948 133.231C801.235 131.946 800.879 130.442 800.879 128.721C800.879 127 801.226 125.496 801.918 124.211C802.63 122.925 803.619 121.936 804.885 121.243C806.151 120.551 807.605 120.205 809.247 120.205C810.85 120.205 812.274 120.541 813.52 121.214C814.767 121.886 815.736 122.846 816.428 124.092C817.141 125.338 817.497 126.792 817.497 128.454ZM812.304 127.119C812.304 126.248 812.007 125.556 811.414 125.041C810.82 124.527 810.078 124.27 809.188 124.27C808.337 124.27 807.615 124.517 807.022 125.012C806.448 125.506 806.092 126.209 805.954 127.119H812.304ZM833.999 137.208C832.476 137.208 831.111 136.96 829.904 136.466C828.697 135.971 827.728 135.239 826.996 134.27C826.284 133.301 825.908 132.133 825.868 130.768H831.269C831.348 131.54 831.615 132.133 832.07 132.549C832.525 132.945 833.119 133.142 833.851 133.142C834.602 133.142 835.196 132.974 835.631 132.638C836.066 132.282 836.284 131.797 836.284 131.184C836.284 130.67 836.106 130.244 835.75 129.908C835.414 129.572 834.988 129.295 834.474 129.077C833.979 128.859 833.267 128.612 832.337 128.335C830.992 127.92 829.894 127.504 829.044 127.089C828.193 126.674 827.461 126.06 826.848 125.249C826.234 124.438 825.928 123.38 825.928 122.074C825.928 120.135 826.63 118.622 828.035 117.534C829.439 116.426 831.269 115.872 833.524 115.872C835.819 115.872 837.669 116.426 839.073 117.534C840.478 118.622 841.23 120.145 841.328 122.104H835.839C835.799 121.431 835.552 120.907 835.097 120.531C834.642 120.135 834.058 119.938 833.346 119.938C832.733 119.938 832.238 120.106 831.863 120.442C831.487 120.759 831.299 121.223 831.299 121.837C831.299 122.509 831.615 123.034 832.248 123.409C832.881 123.785 833.87 124.191 835.216 124.626C836.561 125.081 837.649 125.516 838.48 125.932C839.33 126.347 840.062 126.95 840.676 127.742C841.289 128.533 841.596 129.552 841.596 130.798C841.596 131.985 841.289 133.063 840.676 134.033C840.082 135.002 839.212 135.773 838.064 136.347C836.917 136.921 835.562 137.208 833.999 137.208ZM852.255 137.237C850.633 137.237 849.169 136.891 847.864 136.199C846.578 135.506 845.559 134.517 844.807 133.231C844.075 131.946 843.709 130.442 843.709 128.721C843.709 127.02 844.085 125.526 844.837 124.24C845.589 122.935 846.617 121.936 847.923 121.243C849.229 120.551 850.693 120.205 852.315 120.205C853.937 120.205 855.401 120.551 856.706 121.243C858.012 121.936 859.041 122.935 859.793 124.24C860.544 125.526 860.92 127.02 860.92 128.721C860.92 130.422 860.534 131.926 859.763 133.231C859.011 134.517 857.973 135.506 856.647 136.199C855.341 136.891 853.878 137.237 852.255 137.237ZM852.255 132.846C853.225 132.846 854.046 132.49 854.718 131.777C855.411 131.065 855.757 130.046 855.757 128.721C855.757 127.396 855.421 126.377 854.748 125.665C854.095 124.952 853.284 124.596 852.315 124.596C851.326 124.596 850.505 124.952 849.852 125.665C849.199 126.357 848.873 127.376 848.873 128.721C848.873 130.046 849.189 131.065 849.822 131.777C850.475 132.49 851.286 132.846 852.255 132.846ZM871.921 124.656H869.191V137H864.117V124.656H862.277V120.442H864.117V119.967C864.117 117.93 864.7 116.387 865.867 115.338C867.035 114.27 868.746 113.736 871.001 113.736C871.377 113.736 871.654 113.746 871.832 113.765V118.068C870.862 118.009 870.18 118.147 869.784 118.484C869.389 118.82 869.191 119.423 869.191 120.294V120.442H871.921V124.656ZM883.534 132.697V137H880.952C879.112 137 877.678 136.555 876.649 135.665C875.621 134.755 875.106 133.281 875.106 131.243V124.656H873.089V120.442H875.106V116.406H880.181V120.442H883.504V124.656H880.181V131.303C880.181 131.797 880.299 132.153 880.537 132.371C880.774 132.588 881.17 132.697 881.724 132.697H883.534ZM910.129 120.442L905.648 137H900.04L897.429 126.258L894.728 137H889.15L884.639 120.442H889.713L892.058 132.282L894.847 120.442H900.218L903.037 132.223L905.351 120.442H910.129ZM911.055 128.691C911.055 126.99 911.372 125.496 912.005 124.211C912.657 122.925 913.538 121.936 914.646 121.243C915.753 120.551 916.99 120.205 918.355 120.205C919.522 120.205 920.541 120.442 921.411 120.917C922.301 121.392 922.984 122.015 923.459 122.786V120.442H928.533V137H923.459V134.656C922.964 135.427 922.272 136.05 921.382 136.525C920.511 137 919.492 137.237 918.325 137.237C916.98 137.237 915.753 136.891 914.646 136.199C913.538 135.487 912.657 134.488 912.005 133.202C911.372 131.896 911.055 130.393 911.055 128.691ZM923.459 128.721C923.459 127.455 923.103 126.456 922.39 125.724C921.698 124.992 920.847 124.626 919.839 124.626C918.83 124.626 917.969 124.992 917.257 125.724C916.564 126.436 916.218 127.425 916.218 128.691C916.218 129.957 916.564 130.966 917.257 131.718C917.969 132.45 918.83 132.816 919.839 132.816C920.847 132.816 921.698 132.45 922.39 131.718C923.103 130.986 923.459 129.987 923.459 128.721ZM937.278 123.202C937.872 122.292 938.613 121.579 939.504 121.065C940.394 120.531 941.383 120.264 942.471 120.264V125.635H941.076C939.81 125.635 938.861 125.912 938.228 126.466C937.595 127 937.278 127.949 937.278 129.314V137H932.204V120.442H937.278V123.202ZM960.505 128.454C960.505 128.929 960.475 129.423 960.416 129.938H948.932C949.011 130.966 949.338 131.758 949.911 132.312C950.505 132.846 951.227 133.113 952.077 133.113C953.344 133.113 954.224 132.579 954.718 131.51H960.119C959.842 132.598 959.338 133.578 958.606 134.448C957.894 135.318 956.993 136.001 955.905 136.496C954.817 136.99 953.601 137.237 952.256 137.237C950.633 137.237 949.189 136.891 947.923 136.199C946.657 135.506 945.668 134.517 944.956 133.231C944.244 131.946 943.888 130.442 943.888 128.721C943.888 127 944.234 125.496 944.926 124.211C945.638 122.925 946.627 121.936 947.893 121.243C949.16 120.551 950.614 120.205 952.256 120.205C953.858 120.205 955.282 120.541 956.529 121.214C957.775 121.886 958.744 122.846 959.437 124.092C960.149 125.338 960.505 126.792 960.505 128.454ZM955.312 127.119C955.312 126.248 955.015 125.556 954.422 125.041C953.828 124.527 953.086 124.27 952.196 124.27C951.346 124.27 950.623 124.517 950.03 125.012C949.456 125.506 949.1 126.209 948.962 127.119H955.312ZM984.455 116.169V120.234H978.936V137H973.862V120.234H968.342V116.169H984.455ZM1002.61 128.454C1002.61 128.929 1002.58 129.423 1002.52 129.938H991.038C991.117 130.966 991.443 131.758 992.017 132.312C992.61 132.846 993.332 133.113 994.183 133.113C995.449 133.113 996.329 132.579 996.824 131.51H1002.22C1001.95 132.598 1001.44 133.578 1000.71 134.448C999.999 135.318 999.099 136.001 998.011 136.496C996.923 136.99 995.706 137.237 994.361 137.237C992.739 137.237 991.295 136.891 990.029 136.199C988.763 135.506 987.773 134.517 987.061 133.231C986.349 131.946 985.993 130.442 985.993 128.721C985.993 127 986.339 125.496 987.032 124.211C987.744 122.925 988.733 121.936 989.999 121.243C991.265 120.551 992.719 120.205 994.361 120.205C995.963 120.205 997.388 120.541 998.634 121.214C999.88 121.886 1000.85 122.846 1001.54 124.092C1002.25 125.338 1002.61 126.792 1002.61 128.454ZM997.417 127.119C997.417 126.248 997.121 125.556 996.527 125.041C995.934 124.527 995.192 124.27 994.302 124.27C993.451 124.27 992.729 124.517 992.136 125.012C991.562 125.506 991.206 126.209 991.067 127.119H997.417ZM1004.28 128.691C1004.28 126.99 1004.59 125.496 1005.23 124.211C1005.88 122.925 1006.76 121.936 1007.87 121.243C1008.98 120.551 1010.21 120.205 1011.58 120.205C1012.75 120.205 1013.76 120.442 1014.63 120.917C1015.52 121.392 1016.21 122.015 1016.68 122.786V120.442H1021.76V137H1016.68V134.656C1016.19 135.427 1015.5 136.05 1014.6 136.525C1013.73 137 1012.72 137.237 1011.55 137.237C1010.2 137.237 1008.98 136.891 1007.87 136.199C1006.76 135.487 1005.88 134.488 1005.23 133.202C1004.59 131.896 1004.28 130.393 1004.28 128.691ZM1016.68 128.721C1016.68 127.455 1016.33 126.456 1015.61 125.724C1014.92 124.992 1014.07 124.626 1013.06 124.626C1012.05 124.626 1011.19 124.992 1010.48 125.724C1009.79 126.436 1009.44 127.425 1009.44 128.691C1009.44 129.957 1009.79 130.966 1010.48 131.718C1011.19 132.45 1012.05 132.816 1013.06 132.816C1014.07 132.816 1014.92 132.45 1015.61 131.718C1016.33 130.986 1016.68 129.987 1016.68 128.721ZM1046.56 120.264C1048.61 120.264 1050.24 120.887 1051.45 122.133C1052.68 123.38 1053.29 125.111 1053.29 127.326V137H1048.25V128.009C1048.25 126.941 1047.96 126.12 1047.39 125.546C1046.83 124.952 1046.06 124.656 1045.07 124.656C1044.08 124.656 1043.3 124.952 1042.73 125.546C1042.17 126.12 1041.9 126.941 1041.9 128.009V137H1036.85V128.009C1036.85 126.941 1036.56 126.12 1035.99 125.546C1035.44 124.952 1034.67 124.656 1033.68 124.656C1032.69 124.656 1031.91 124.952 1031.33 125.546C1030.78 126.12 1030.5 126.941 1030.5 128.009V137H1025.43V120.442H1030.5V122.519C1031.02 121.827 1031.69 121.283 1032.52 120.887C1033.35 120.472 1034.29 120.264 1035.34 120.264C1036.58 120.264 1037.69 120.531 1038.66 121.065C1039.65 121.599 1040.42 122.361 1040.98 123.35C1041.55 122.44 1042.33 121.698 1043.32 121.125C1044.31 120.551 1045.39 120.264 1046.56 120.264Z" fill="#11D4B1"/>
<path d="M934.354 168.34H928.794L927.874 171H924.934L929.954 157.02H933.214L938.234 171H935.274L934.354 168.34ZM933.594 166.1L931.574 160.26L929.554 166.1H933.594ZM939.43 164C939.43 162.627 939.737 161.4 940.35 160.32C940.977 159.227 941.824 158.38 942.89 157.78C943.97 157.167 945.177 156.86 946.51 156.86C948.07 156.86 949.437 157.26 950.61 158.06C951.784 158.86 952.604 159.967 953.07 161.38H949.85C949.53 160.713 949.077 160.213 948.49 159.88C947.917 159.547 947.25 159.38 946.49 159.38C945.677 159.38 944.95 159.573 944.31 159.96C943.684 160.333 943.19 160.867 942.83 161.56C942.484 162.253 942.31 163.067 942.31 164C942.31 164.92 942.484 165.733 942.83 166.44C943.19 167.133 943.684 167.673 944.31 168.06C944.95 168.433 945.677 168.62 946.49 168.62C947.25 168.62 947.917 168.453 948.49 168.12C949.077 167.773 949.53 167.267 949.85 166.6H953.07C952.604 168.027 951.784 169.14 950.61 169.94C949.45 170.727 948.084 171.12 946.51 171.12C945.177 171.12 943.97 170.82 942.89 170.22C941.824 169.607 940.977 168.76 940.35 167.68C939.737 166.6 939.43 165.373 939.43 164ZM970.682 157.04V171H967.882V161.92L964.142 171H962.022L958.262 161.92V171H955.462V157.04H958.642L963.082 167.42L967.522 157.04H970.682ZM977.496 165.42C977.496 164.3 977.716 163.307 978.156 162.44C978.609 161.573 979.216 160.907 979.976 160.44C980.749 159.973 981.609 159.74 982.556 159.74C983.383 159.74 984.103 159.907 984.716 160.24C985.343 160.573 985.843 160.993 986.216 161.5V159.92H989.036V171H986.216V169.38C985.856 169.9 985.356 170.333 984.716 170.68C984.089 171.013 983.363 171.18 982.536 171.18C981.603 171.18 980.749 170.94 979.976 170.46C979.216 169.98 978.609 169.307 978.156 168.44C977.716 167.56 977.496 166.553 977.496 165.42ZM986.216 165.46C986.216 164.78 986.083 164.2 985.816 163.72C985.549 163.227 985.189 162.853 984.736 162.6C984.283 162.333 983.796 162.2 983.276 162.2C982.756 162.2 982.276 162.327 981.836 162.58C981.396 162.833 981.036 163.207 980.756 163.7C980.489 164.18 980.356 164.753 980.356 165.42C980.356 166.087 980.489 166.673 980.756 167.18C981.036 167.673 981.396 168.053 981.836 168.32C982.289 168.587 982.769 168.72 983.276 168.72C983.796 168.72 984.283 168.593 984.736 168.34C985.189 168.073 985.549 167.7 985.816 167.22C986.083 166.727 986.216 166.14 986.216 165.46ZM995.031 162.22V167.58C995.031 167.953 995.117 168.227 995.291 168.4C995.477 168.56 995.784 168.64 996.211 168.64H997.511V171H995.751C993.391 171 992.211 169.853 992.211 167.56V162.22H990.891V159.92H992.211V157.18H995.031V159.92H997.511V162.22H995.031ZM1003.61 164C1003.61 162.627 1003.92 161.4 1004.53 160.32C1005.16 159.227 1006 158.38 1007.07 157.78C1008.15 157.167 1009.36 156.86 1010.69 156.86C1012.25 156.86 1013.62 157.26 1014.79 158.06C1015.96 158.86 1016.78 159.967 1017.25 161.38H1014.03C1013.71 160.713 1013.26 160.213 1012.67 159.88C1012.1 159.547 1011.43 159.38 1010.67 159.38C1009.86 159.38 1009.13 159.573 1008.49 159.96C1007.86 160.333 1007.37 160.867 1007.01 161.56C1006.66 162.253 1006.49 163.067 1006.49 164C1006.49 164.92 1006.66 165.733 1007.01 166.44C1007.37 167.133 1007.86 167.673 1008.49 168.06C1009.13 168.433 1009.86 168.62 1010.67 168.62C1011.43 168.62 1012.1 168.453 1012.67 168.12C1013.26 167.773 1013.71 167.267 1014.03 166.6H1017.25C1016.78 168.027 1015.96 169.14 1014.79 169.94C1013.63 170.727 1012.26 171.12 1010.69 171.12C1009.36 171.12 1008.15 170.82 1007.07 170.22C1006 169.607 1005.16 168.76 1004.53 167.68C1003.92 166.6 1003.61 165.373 1003.61 164ZM1024.46 171.14C1023.49 171.14 1022.61 170.973 1021.82 170.64C1021.05 170.307 1020.44 169.827 1019.98 169.2C1019.53 168.573 1019.3 167.833 1019.28 166.98H1022.28C1022.32 167.553 1022.52 168.007 1022.88 168.34C1023.26 168.673 1023.76 168.84 1024.4 168.84C1025.06 168.84 1025.57 168.687 1025.94 168.38C1026.32 168.06 1026.5 167.647 1026.5 167.14C1026.5 166.727 1026.38 166.387 1026.12 166.12C1025.87 165.853 1025.55 165.647 1025.16 165.5C1024.79 165.34 1024.27 165.167 1023.6 164.98C1022.7 164.713 1021.96 164.453 1021.38 164.2C1020.82 163.933 1020.34 163.54 1019.92 163.02C1019.52 162.487 1019.32 161.78 1019.32 160.9C1019.32 160.073 1019.53 159.353 1019.94 158.74C1020.36 158.127 1020.94 157.66 1021.68 157.34C1022.43 157.007 1023.28 156.84 1024.24 156.84C1025.68 156.84 1026.85 157.193 1027.74 157.9C1028.65 158.593 1029.15 159.567 1029.24 160.82H1026.16C1026.14 160.34 1025.93 159.947 1025.54 159.64C1025.17 159.32 1024.67 159.16 1024.04 159.16C1023.5 159.16 1023.06 159.3 1022.72 159.58C1022.4 159.86 1022.24 160.267 1022.24 160.8C1022.24 161.173 1022.36 161.487 1022.6 161.74C1022.86 161.98 1023.16 162.18 1023.52 162.34C1023.9 162.487 1024.42 162.66 1025.08 162.86C1025.99 163.127 1026.73 163.393 1027.3 163.66C1027.88 163.927 1028.37 164.327 1028.78 164.86C1029.2 165.393 1029.4 166.093 1029.4 166.96C1029.4 167.707 1029.21 168.4 1028.82 169.04C1028.44 169.68 1027.87 170.193 1027.12 170.58C1026.38 170.953 1025.49 171.14 1024.46 171.14ZM1034.59 157.04V165.68C1034.59 166.627 1034.84 167.353 1035.33 167.86C1035.82 168.353 1036.52 168.6 1037.41 168.6C1038.32 168.6 1039.02 168.353 1039.51 167.86C1040 167.353 1040.25 166.627 1040.25 165.68V157.04H1043.07V165.66C1043.07 166.847 1042.81 167.853 1042.29 168.68C1041.78 169.493 1041.1 170.107 1040.23 170.52C1039.38 170.933 1038.42 171.14 1037.37 171.14C1036.33 171.14 1035.38 170.933 1034.53 170.52C1033.69 170.107 1033.02 169.493 1032.53 168.68C1032.04 167.853 1031.79 166.847 1031.79 165.66V157.04H1034.59ZM1054.39 157.04V159.3H1048.57V162.88H1053.03V165.1H1048.57V171H1045.77V157.04H1054.39Z" fill="white"/>
<rect x="508" y="127" width="77.7817" height="77.7817" rx="12.9636" transform="rotate(-45 508 127)" fill="#11D4B1"/>
<mask id="mask0_504_5" style="mask-type:alpha" maskUnits="userSpaceOnUse" x="533" y="97" width="59" height="59">
<path d="M533.616 97.6162H591.953V155.953H533.616V97.6162Z" fill="#D9D9D9"/>
</mask>
<g mask="url(#mask0_504_5)">
<path d="M548.366 122.635L553.106 124.641C553.673 123.506 554.26 122.413 554.868 121.359C555.476 120.306 556.144 119.253 556.873 118.199L553.47 117.531L548.366 122.635ZM556.995 127.679L563.922 134.546C565.624 133.897 567.447 132.905 569.391 131.568C571.336 130.231 573.159 128.712 574.86 127.011C577.696 124.175 579.914 121.025 581.515 117.563C583.115 114.098 583.813 110.907 583.611 107.99C580.694 107.788 577.493 108.486 574.009 110.086C570.525 111.687 567.366 113.905 564.53 116.741C562.828 118.442 561.309 120.265 559.972 122.21C558.635 124.155 557.643 125.978 556.995 127.679ZM568.966 143.235L574.07 138.131L573.402 134.728C572.349 135.457 571.295 136.115 570.242 136.702C569.189 137.29 568.095 137.868 566.961 138.435L568.966 143.235ZM586.112 103.321C587.233 103.424 588.116 104.308 588.22 105.429C588.614 109.674 588.06 113.819 586.559 117.864C584.837 122.503 581.869 126.93 577.655 131.143L578.871 137.159C579.033 137.969 578.992 138.759 578.749 139.529C578.506 140.298 578.101 140.967 577.534 141.534L569.224 149.843C568.315 150.752 566.776 150.454 566.272 149.272L562.221 139.772L552.078 129.629C551.914 129.465 551.72 129.334 551.506 129.243L542.321 125.326C541.141 124.823 540.841 123.287 541.746 122.377L550.007 114.067C550.574 113.5 551.253 113.095 552.043 112.852C552.833 112.609 553.632 112.568 554.443 112.73L560.458 113.946C564.672 109.732 569.087 106.755 573.706 105.013C577.733 103.494 581.868 102.93 586.112 103.321ZM544.173 137.098C545.591 135.68 547.322 134.961 549.367 134.939C551.414 134.92 553.146 135.619 554.564 137.037C555.982 138.455 556.68 140.186 556.659 142.231C556.64 144.278 555.921 146.01 554.503 147.428C553.49 148.441 551.8 149.312 549.43 150.041C547.389 150.669 544.68 151.237 541.303 151.745C540.456 151.872 539.729 151.145 539.857 150.298C540.364 146.921 540.932 144.212 541.56 142.171C542.289 139.802 543.16 138.111 544.173 137.098ZM547.637 140.501C547.231 140.906 546.826 141.646 546.421 142.72C546.016 143.793 545.733 144.876 545.571 145.97C546.664 145.808 547.748 145.535 548.823 145.151C549.896 144.765 550.634 144.37 551.04 143.965C551.526 143.478 551.789 142.891 551.83 142.202C551.87 141.514 551.647 140.926 551.161 140.44C550.675 139.954 550.088 139.721 549.399 139.74C548.71 139.761 548.123 140.015 547.637 140.501Z" fill="#F8F8F8"/>
</g>
<rect x="561.799" y="120.665" width="9.56715" height="9.56715" rx="4.78358" fill="#F8F8F8"/>
<rect x="571.366" y="112.965" width="7.70039" height="7.70039" rx="3.8502" fill="#F8F8F8"/>
</svg>
