<svg width="250" height="250" viewBox="0 0 250 250" fill="none" xmlns="http://www.w3.org/2000/svg">
<mask id="mask0_1_201" style="mask-type:alpha" maskUnits="userSpaceOnUse" x="0" y="0" width="250" height="250">
<path d="M0 0H250V250H0V0Z" fill="#D9D9D9"/>
</mask>
<g mask="url(#mask0_1_201)">
<path d="M131.139 214.496C127.528 217.304 122.472 217.304 118.861 214.496L41.533 154.352C36.344 150.316 36.394 142.457 41.6338 138.488L42.3278 137.962C45.9324 135.231 50.921 135.259 54.4946 138.031L118.872 187.956C122.479 190.753 127.521 190.753 131.128 187.956L195.505 138.031C199.079 135.259 204.068 135.231 207.672 137.962L208.366 138.488C213.606 142.457 213.656 150.316 208.467 154.352L131.139 214.496ZM131.139 161.892C127.528 164.7 122.472 164.7 118.861 161.892L41.3988 101.644C36.2514 97.6399 36.2514 89.86 41.3988 85.8565L118.861 25.6084C122.472 22.7998 127.528 22.7998 131.139 25.6084L208.601 85.8565C213.749 89.86 213.749 97.6399 208.601 101.644L131.139 161.892ZM118.88 135.368C122.483 138.156 127.517 138.156 131.12 135.368L174.677 101.658C179.85 97.6549 179.85 89.845 174.677 85.8417L131.12 52.1324C127.517 49.3435 122.483 49.3435 118.88 52.1324L75.3228 85.8417C70.1499 89.845 70.1499 97.6549 75.3228 101.658L118.88 135.368Z" fill="#AF3FFF"/>
</g>
</svg>
