<svg width="250" height="250" viewBox="0 0 250 250" fill="none" xmlns="http://www.w3.org/2000/svg">
<g clip-path="url(#clip0_616_46)">
<path d="M14.175 154.982C-2.65982 138.147 -2.65982 110.853 14.175 94.0179L94.3317 13.8612C111.166 -2.97361 138.461 -2.97361 155.296 13.8612L235.453 94.0179C252.287 110.853 252.287 138.147 235.453 154.982L155.296 235.139C138.461 251.974 111.166 251.974 94.3317 235.139L14.175 154.982Z" fill="#9D35E7"/>
<path fill-rule="evenodd" clip-rule="evenodd" d="M124.992 192.534C162.468 192.534 192.847 162.154 192.847 124.678C192.847 87.2024 162.468 56.8224 124.992 56.8224C87.5164 56.8224 57.1364 87.2024 57.1364 124.678C57.1364 162.154 87.5164 192.534 124.992 192.534ZM124.992 198.92C165.995 198.92 199.234 165.681 199.234 124.678C199.234 83.6753 165.995 50.436 124.992 50.436C83.9893 50.436 50.75 83.6753 50.75 124.678C50.75 165.681 83.9893 198.92 124.992 198.92Z" fill="#F8F8F8"/>
<path opacity="0.3" d="M94.2891 111.307L124.565 134.885L154.841 111.307L124.565 87.73L94.2891 111.307Z" fill="#F8F8F8"/>
<path d="M163.439 131.351L124.513 161.626L85.639 131.403L77.0942 138.049L124.565 174.971L172.036 138.049L163.439 131.351ZM124.565 74.3853L77.0942 111.307L85.6918 118.006L124.565 148.229L163.386 118.006L172.036 111.307L124.565 74.3853ZM124.565 134.884L94.2893 111.307L124.565 87.7299L154.841 111.307L124.565 134.884Z" fill="#F8F8F8"/>
</g>
<defs>
<clipPath id="clip0_616_46">
<rect width="250" height="249.372" fill="white"/>
</clipPath>
</defs>
</svg>
