<svg width="459" height="460" viewBox="0 0 459 460" fill="none" xmlns="http://www.w3.org/2000/svg">
<g filter="url(#filter0_d_2_73)">
<path d="M90.9069 253.514C69.8186 232.425 69.8186 198.235 90.9069 177.146L191.316 76.7371C212.404 55.6488 246.595 55.6488 267.684 76.7371L368.093 177.146C389.181 198.235 389.181 232.425 368.093 253.514L267.684 353.923C246.595 375.011 212.404 375.011 191.316 353.923L90.9069 253.514Z" fill="#9D35E7"/>
</g>
<path fill-rule="evenodd" clip-rule="evenodd" d="M229.723 300.553C276.667 300.553 314.723 262.498 314.723 215.553C314.723 168.609 276.667 130.553 229.723 130.553C182.779 130.553 144.723 168.609 144.723 215.553C144.723 262.498 182.779 300.553 229.723 300.553ZM229.723 308.553C281.086 308.553 322.723 266.916 322.723 215.553C322.723 164.191 281.086 122.553 229.723 122.553C178.361 122.553 136.723 164.191 136.723 215.553C136.723 266.916 178.361 308.553 229.723 308.553Z" fill="#F8F8F8"/>
<path opacity="0.3" d="M191.263 198.804L229.188 228.339L267.114 198.804L229.188 169.27L191.263 198.804Z" fill="#F8F8F8"/>
<path d="M277.884 223.911L229.122 261.837L180.427 223.978L169.723 232.303L229.188 278.553L288.653 232.303L277.884 223.911ZM229.188 152.553L169.723 198.804L180.493 207.195L229.188 245.055L277.818 207.195L288.653 198.804L229.188 152.553ZM229.188 228.338L191.263 198.804L229.188 169.27L267.114 198.804L229.188 228.338Z" fill="#F8F8F8"/>
<defs>
<filter id="filter0_d_2_73" x="0.0908203" y="0.920868" width="458.818" height="458.818" filterUnits="userSpaceOnUse" color-interpolation-filters="sRGB">
<feFlood flood-opacity="0" result="BackgroundImageFix"/>
<feColorMatrix in="SourceAlpha" type="matrix" values="0 0 0 0 0 0 0 0 0 0 0 0 0 0 0 0 0 0 127 0" result="hardAlpha"/>
<feOffset dy="15"/>
<feGaussianBlur stdDeviation="37.5"/>
<feComposite in2="hardAlpha" operator="out"/>
<feColorMatrix type="matrix" values="0 0 0 0 0.615686 0 0 0 0 0.207843 0 0 0 0 0.905882 0 0 0 0.5 0"/>
<feBlend mode="normal" in2="BackgroundImageFix" result="effect1_dropShadow_2_73"/>
<feBlend mode="normal" in="SourceGraphic" in2="effect1_dropShadow_2_73" result="shape"/>
</filter>
</defs>
</svg>
