<svg fill="#000000" xmlns="http://www.w3.org/2000/svg"  viewBox="0 0 50 50" width="50px" height="50px">
<path d="M 9.6601562 5.9589844 C 8.2180589 5.9589844 7.0175781 7.1415381 7.0175781 8.5859375 L 7.0175781 13.263672 C 6.2450497 13.528472 5.5501554 14.004327 5.0214844 14.650391 C 4.1795173 15.678012 3.8441628 17.033667 4.1113281 18.335938 C 5.041439 22.835238 6.3660682 29.257349 6.4140625 29.490234 C 6.3656925 29.724816 5.0472016 36.115366 4.1191406 40.615234 C 3.8492797 41.924512 4.1870816 43.286166 5.0332031 44.320312 C 5.8811224 45.353795 7.1513288 45.955078 8.4921875 45.955078 L 41.402344 45.955078 C 42.759109 45.955078 44.044582 45.347837 44.904297 44.300781 L 44.90625 44.300781 C 45.765468 43.252767 46.104537 41.872127 45.832031 40.546875 C 44.90391 36.048677 43.598552 29.71982 43.550781 29.488281 C 43.599171 29.253188 44.921561 22.825977 45.849609 18.326172 C 46.117233 17.02684 45.784999 15.672861 44.941406 14.644531 C 44.424618 14.013606 43.748644 13.549841 42.998047 13.283203 L 42.998047 8.5859375 C 42.998047 7.1415381 41.797566 5.9589844 40.355469 5.9589844 L 9.6601562 5.9589844 z M 9.6601562 7.9589844 L 40.355469 7.9589844 C 40.727371 7.9589844 40.998047 8.2343369 40.998047 8.5859375 L 40.998047 13.023438 L 9.0175781 13.023438 L 9.0175781 8.5859375 C 9.0175781 8.2343369 9.2882536 7.9589844 9.6601562 7.9589844 z M 8.4628906 15.023438 L 41.507812 15.023438 C 42.241368 15.023438 42.933485 15.349237 43.394531 15.912109 L 43.394531 15.914062 C 43.856939 16.477733 44.037001 17.21316 43.890625 17.923828 L 43.892578 17.923828 C 42.947501 22.506202 41.550781 29.287109 41.550781 29.287109 L 41.509766 29.488281 L 41.550781 29.691406 C 41.550781 29.691406 42.928044 36.369206 43.873047 40.949219 C 44.024541 41.685967 43.838157 42.447264 43.359375 43.03125 C 42.87909 43.616194 42.163579 43.955078 41.402344 43.955078 L 8.4921875 43.955078 C 7.7470462 43.955078 7.0481588 43.623252 6.5800781 43.052734 C 6.113136 42.481041 5.9301199 41.737604 6.078125 41.019531 C 7.0231337 36.437489 8.4140625 29.691406 8.4140625 29.691406 L 8.4550781 29.488281 L 8.4140625 29.287109 C 8.4140625 29.287109 7.0174352 22.513234 6.0703125 17.931641 C 5.9243921 17.2174 6.1059999 16.48158 6.5683594 15.917969 L 6.5703125 15.916016 C 7.0325676 15.351116 7.7280513 15.023437 8.4628906 15.023438 z M 19.988281 21.902344 C 15.559281 21.902344 15.163625 25.924344 15.140625 26.902344 L 17.013672 26.902344 C 17.041672 26.228344 17.352281 23.605469 19.988281 23.605469 C 22.456281 23.605469 22.798828 25.307203 22.798828 26.158203 C 22.798828 26.584203 22.542359 28.710938 19.818359 28.710938 L 19.052734 28.710938 L 19.052734 30.328125 C 19.392734 30.243125 19.733203 30.242187 20.158203 30.242188 C 20.583203 30.242188 23.478516 30.328656 23.478516 33.222656 C 23.478516 36.030656 20.499219 36.285156 20.074219 36.285156 C 18.565219 36.285156 16.816672 35.369344 16.763672 32.902344 L 14.884766 32.902344 C 14.901766 34.129344 15.274219 37.902344 20.074219 37.902344 C 21.010219 37.902344 25.435547 37.647719 25.435547 33.136719 C 25.435547 30.328719 23.562953 29.476641 22.626953 29.306641 L 22.626953 29.222656 C 23.222953 28.882656 24.755859 27.859266 24.755859 26.072266 C 24.755859 25.391266 24.584281 21.902344 19.988281 21.902344 z M 32.544922 22.015625 C 32.294922 23.115625 31.798594 23.87125 31.058594 24.28125 C 30.318594 24.69125 29.318641 24.896484 28.056641 24.896484 L 28.056641 26.304688 L 31.972656 26.304688 L 31.972656 37.591797 L 34.017578 37.591797 L 34.017578 22.015625 L 32.544922 22.015625 z"/>
</svg>
