<svg width="217" height="243" viewBox="0 0 217 243" fill="none" xmlns="http://www.w3.org/2000/svg">
<path d="M65.1751 196.5L73.7002 173.157L41.5163 187.993C40.379 188.517 39.2013 188.949 37.9945 189.283L7.33682 197.776C6.89599 197.898 6.812 198.487 7.20108 198.728C7.5026 198.914 7.84756 199.018 8.20185 199.031L39.0419 200.094C42.2879 200.206 45.5366 199.977 48.7348 199.41L65.1751 196.5Z" fill="#B89061" stroke="#281214" stroke-width="5"/>
<mask id="path-2-inside-1_161_21" fill="white">
<path fill-rule="evenodd" clip-rule="evenodd" d="M45.1569 110.69C47.5969 107.725 51.5182 106.418 55.2488 107.327C60.1603 108.522 64.0565 112.254 65.4621 117.11L67.4879 124.108H70.7881C74.3178 124.108 77.7401 122.894 80.4809 120.67L87.434 115.028L124.075 128.595L193.408 117.378L189.437 125.575C192.32 124.172 195.651 123.861 198.792 124.763C204.274 126.338 208.478 130.752 209.783 136.305L210.245 138.274C210.502 139.366 210.632 140.485 210.632 141.607V145.769C210.632 153.17 208.036 160.337 203.295 166.021L201.831 167.777C198.966 171.212 194.857 173.372 190.403 173.783C185.17 174.267 179.926 172.987 175.505 170.148L169.659 166.394L148.526 210.008C147.52 212.084 146.073 213.84 144.336 215.196C144.043 219.75 141.867 223.997 138.303 226.897L129.934 233.707C124.115 238.443 117.008 241.322 109.533 241.974L106.13 242.27C102.383 242.597 98.7088 241.095 96.2634 238.237C94.5696 236.258 93.8893 233.605 94.4216 231.055L94.4583 230.88C95.6494 225.173 99.0813 220.184 103.984 217.031L109.772 213.308L106.491 210.77C103.331 213.739 99.9395 216.456 96.3467 218.894L90.1052 223.129C86.2825 225.723 81.1461 225.179 77.9507 221.843C74.8434 218.599 73.9314 213.833 75.6218 209.671L77.0952 206.043H72.2428C71.1157 206.043 69.9971 205.849 68.9357 205.469L68.7995 205.421C62.9504 203.331 59.5524 197.233 60.8519 191.159L61.5821 187.746C62.8537 181.803 65.5629 176.262 69.4727 171.609L82.0131 156.684C82.4108 156.211 81.9738 155.504 81.3726 155.649L73.5719 157.523C68.8283 158.663 63.8932 158.754 59.1107 157.791L55.7662 157.117H53.4418C47.7196 157.117 42.559 153.675 40.3604 148.392C38.2673 143.362 37.1897 137.968 37.1897 132.52V130.406C37.1897 123.917 39.4444 117.63 43.5681 112.62L45.1569 110.69Z"/>
</mask>
<path fill-rule="evenodd" clip-rule="evenodd" d="M45.1569 110.69C47.5969 107.725 51.5182 106.418 55.2488 107.327C60.1603 108.522 64.0565 112.254 65.4621 117.11L67.4879 124.108H70.7881C74.3178 124.108 77.7401 122.894 80.4809 120.67L87.434 115.028L124.075 128.595L193.408 117.378L189.437 125.575C192.32 124.172 195.651 123.861 198.792 124.763C204.274 126.338 208.478 130.752 209.783 136.305L210.245 138.274C210.502 139.366 210.632 140.485 210.632 141.607V145.769C210.632 153.17 208.036 160.337 203.295 166.021L201.831 167.777C198.966 171.212 194.857 173.372 190.403 173.783C185.17 174.267 179.926 172.987 175.505 170.148L169.659 166.394L148.526 210.008C147.52 212.084 146.073 213.84 144.336 215.196C144.043 219.75 141.867 223.997 138.303 226.897L129.934 233.707C124.115 238.443 117.008 241.322 109.533 241.974L106.13 242.27C102.383 242.597 98.7088 241.095 96.2634 238.237C94.5696 236.258 93.8893 233.605 94.4216 231.055L94.4583 230.88C95.6494 225.173 99.0813 220.184 103.984 217.031L109.772 213.308L106.491 210.77C103.331 213.739 99.9395 216.456 96.3467 218.894L90.1052 223.129C86.2825 225.723 81.1461 225.179 77.9507 221.843C74.8434 218.599 73.9314 213.833 75.6218 209.671L77.0952 206.043H72.2428C71.1157 206.043 69.9971 205.849 68.9357 205.469L68.7995 205.421C62.9504 203.331 59.5524 197.233 60.8519 191.159L61.5821 187.746C62.8537 181.803 65.5629 176.262 69.4727 171.609L82.0131 156.684C82.4108 156.211 81.9738 155.504 81.3726 155.649L73.5719 157.523C68.8283 158.663 63.8932 158.754 59.1107 157.791L55.7662 157.117H53.4418C47.7196 157.117 42.559 153.675 40.3604 148.392C38.2673 143.362 37.1897 137.968 37.1897 132.52V130.406C37.1897 123.917 39.4444 117.63 43.5681 112.62L45.1569 110.69Z" fill="#B89061"/>
<path d="M55.2488 107.327L56.4314 102.468L56.4314 102.468L55.2488 107.327ZM45.1569 110.69L49.0174 113.867L49.0174 113.867L45.1569 110.69ZM65.4621 117.11L60.6593 118.5L60.6593 118.5L65.4621 117.11ZM67.4879 124.108V129.108H63.7301L62.6851 125.499L67.4879 124.108ZM80.4809 120.67L83.6314 124.553L83.6314 124.553L80.4809 120.67ZM87.434 115.028L84.2835 111.146L86.497 109.349L89.1701 110.339L87.434 115.028ZM124.075 128.595L124.874 133.531L123.574 133.741L122.339 133.284L124.075 128.595ZM193.408 117.378L192.61 112.442L202.1 110.907L197.908 119.558L193.408 117.378ZM189.437 125.575L191.624 130.071L178.641 136.389L184.937 123.395L189.437 125.575ZM198.792 124.763L200.172 119.957L200.172 119.957L198.792 124.763ZM209.783 136.305L214.65 135.161L214.65 135.161L209.783 136.305ZM210.245 138.274L205.378 139.417L205.378 139.417L210.245 138.274ZM203.295 166.021L207.135 169.223L207.135 169.223L203.295 166.021ZM201.831 167.777L197.991 164.574L197.991 164.574L201.831 167.777ZM190.403 173.783L189.943 168.804L189.943 168.804L190.403 173.783ZM175.505 170.148L178.206 165.94L178.206 165.94L175.505 170.148ZM169.659 166.394L165.159 164.213L167.617 159.14L172.36 162.186L169.659 166.394ZM148.526 210.008L144.026 207.828L144.026 207.828L148.526 210.008ZM144.336 215.196L139.347 214.875L139.491 212.636L141.259 211.255L144.336 215.196ZM138.303 226.897L135.147 223.019L135.147 223.019L138.303 226.897ZM129.934 233.707L133.09 237.585L133.09 237.585L129.934 233.707ZM109.533 241.974L109.099 236.993L109.099 236.993L109.533 241.974ZM106.13 242.27L106.564 247.251L106.564 247.251L106.13 242.27ZM96.2634 238.237L100.062 234.986L100.062 234.986L96.2634 238.237ZM94.4216 231.055L99.3161 232.077L99.3161 232.077L94.4216 231.055ZM94.4583 230.88L89.5637 229.858L89.5637 229.858L94.4583 230.88ZM103.984 217.031L101.28 212.825L101.28 212.825L103.984 217.031ZM109.772 213.308L112.831 209.353L118.43 213.685L112.477 217.514L109.772 213.308ZM106.491 210.77L103.067 207.127L106.176 204.205L109.55 206.815L106.491 210.77ZM96.3467 218.894L93.5393 214.756L93.5393 214.756L96.3467 218.894ZM90.1052 223.129L92.9125 227.266L92.9125 227.266L90.1052 223.129ZM77.9507 221.843L81.5615 218.385L81.5615 218.385L77.9507 221.843ZM75.6218 209.671L80.2543 211.552L80.2543 211.552L75.6218 209.671ZM77.0952 206.043V201.043H84.5226L81.7277 207.924L77.0952 206.043ZM68.9357 205.469L67.2532 210.178L67.2531 210.178L68.9357 205.469ZM68.7995 205.421L70.482 200.712L70.4821 200.712L68.7995 205.421ZM60.8519 191.159L55.9626 190.113L55.9626 190.113L60.8519 191.159ZM61.5821 187.746L66.4715 188.792L66.4715 188.792L61.5821 187.746ZM69.4727 171.609L73.3007 174.826L73.3007 174.826L69.4727 171.609ZM82.0131 156.684L85.8412 159.901L85.8412 159.901L82.0131 156.684ZM81.3726 155.649L80.2045 150.787L80.2045 150.787L81.3726 155.649ZM73.5719 157.523L72.4037 152.662L72.4037 152.662L73.5719 157.523ZM59.1107 157.791L60.0982 152.889L60.0982 152.889L59.1107 157.791ZM55.7662 157.117V152.117H56.2649L56.7537 152.215L55.7662 157.117ZM40.3604 148.392L44.9767 146.471L44.9767 146.471L40.3604 148.392ZM43.5681 112.62L39.7076 109.442L39.7076 109.442L43.5681 112.62ZM54.0661 112.185C52.1998 111.73 50.2381 112.384 49.0174 113.867L41.2964 107.512C44.9557 103.066 50.8366 101.106 56.4314 102.468L54.0661 112.185ZM60.6593 118.5C59.7519 115.366 57.2367 112.956 54.0661 112.185L56.4314 102.468C63.0838 104.088 68.3612 109.143 70.2649 115.72L60.6593 118.5ZM62.6851 125.499L60.6593 118.5L70.2649 115.72L72.2908 122.718L62.6851 125.499ZM70.7881 129.108H67.4879V119.108H70.7881V129.108ZM83.6314 124.553C79.9997 127.5 75.4651 129.108 70.7881 129.108V119.108C73.1705 119.108 75.4804 118.289 77.3304 116.788L83.6314 124.553ZM90.5846 118.911L83.6314 124.553L77.3304 116.788L84.2835 111.146L90.5846 118.911ZM122.339 133.284L85.6979 119.717L89.1701 110.339L125.811 123.906L122.339 133.284ZM194.207 122.314L124.874 133.531L123.277 123.659L192.61 112.442L194.207 122.314ZM184.937 123.395L188.909 115.198L197.908 119.558L193.936 127.755L184.937 123.395ZM197.412 129.569C195.469 129.011 193.408 129.203 191.624 130.071L187.249 121.079C191.231 119.141 195.833 118.711 200.172 119.957L197.412 129.569ZM204.915 137.448C204.024 133.657 201.155 130.644 197.412 129.569L200.172 119.957C207.394 122.031 212.931 127.846 214.65 135.161L204.915 137.448ZM205.378 139.417L204.915 137.448L214.65 135.161L215.113 137.13L205.378 139.417ZM205.632 141.607C205.632 140.87 205.547 140.135 205.378 139.417L215.113 137.13C215.458 138.597 215.632 140.1 215.632 141.607H205.632ZM205.632 145.769V141.607H215.632V145.769H205.632ZM199.455 162.818C203.446 158.033 205.632 152 205.632 145.769H215.632C215.632 154.34 212.625 162.64 207.135 169.223L199.455 162.818ZM197.991 164.574L199.455 162.818L207.135 169.223L205.671 170.979L197.991 164.574ZM189.943 168.804C193.08 168.515 195.974 166.993 197.991 164.574L205.671 170.979C201.959 175.43 196.634 178.229 190.863 178.762L189.943 168.804ZM178.206 165.94C181.69 168.177 185.821 169.185 189.943 168.804L190.863 178.762C184.52 179.348 178.163 177.797 172.803 174.355L178.206 165.94ZM172.36 162.186L178.206 165.94L172.803 174.355L166.957 170.601L172.36 162.186ZM144.026 207.828L165.159 164.213L174.158 168.574L153.026 212.188L144.026 207.828ZM141.259 211.255C142.405 210.36 143.36 209.202 144.026 207.828L153.026 212.188C151.679 214.966 149.74 217.321 147.414 219.137L141.259 211.255ZM135.147 223.019C137.628 221 139.143 218.044 139.347 214.875L149.326 215.518C148.943 221.456 146.106 226.993 141.459 230.775L135.147 223.019ZM126.778 229.829L135.147 223.019L141.459 230.775L133.09 237.585L126.778 229.829ZM109.099 236.993C115.576 236.428 121.735 233.933 126.778 229.829L133.09 237.585C126.494 242.953 118.439 246.217 109.967 246.955L109.099 236.993ZM105.696 237.289L109.099 236.993L109.967 246.955L106.564 247.251L105.696 237.289ZM100.062 234.986C101.459 236.618 103.556 237.475 105.696 237.289L106.564 247.251C101.209 247.718 95.9592 245.572 92.4646 241.488L100.062 234.986ZM99.3161 232.077C99.1005 233.11 99.3761 234.185 100.062 234.986L92.4646 241.488C89.7631 238.332 88.6781 234.101 89.5271 230.034L99.3161 232.077ZM99.3528 231.901L99.3161 232.077L89.5271 230.034L89.5637 229.858L99.3528 231.901ZM106.689 221.236C102.913 223.664 100.27 227.507 99.3528 231.901L89.5637 229.858C91.0287 222.84 95.2496 216.703 101.28 212.825L106.689 221.236ZM112.477 217.514L106.689 221.236L101.28 212.825L107.067 209.103L112.477 217.514ZM109.55 206.815L112.831 209.353L106.713 217.263L103.432 214.725L109.55 206.815ZM93.5393 214.756C96.9137 212.467 100.099 209.915 103.067 207.127L109.915 214.414C106.563 217.564 102.965 220.445 99.154 223.031L93.5393 214.756ZM87.2978 218.991L93.5393 214.756L99.154 223.031L92.9125 227.266L87.2978 218.991ZM81.5615 218.385C83.0696 219.959 85.4937 220.216 87.2978 218.991L92.9125 227.266C87.0713 231.23 79.2226 230.4 74.3398 225.302L81.5615 218.385ZM80.2543 211.552C79.3055 213.888 79.8174 216.564 81.5615 218.385L74.3398 225.302C69.8694 220.635 68.5574 213.777 70.9893 207.789L80.2543 211.552ZM81.7277 207.924L80.2543 211.552L70.9893 207.789L72.4627 204.161L81.7277 207.924ZM72.2428 201.043H77.0952V211.043H72.2428V201.043ZM70.6182 200.761C71.1396 200.947 71.6891 201.043 72.2428 201.043V211.043C70.5423 211.043 68.8545 210.75 67.2532 210.178L70.6182 200.761ZM70.4821 200.712L70.6183 200.761L67.2531 210.178L67.1169 210.129L70.4821 200.712ZM65.7413 192.205C64.9661 195.828 66.993 199.466 70.482 200.712L67.117 210.129C58.9078 207.196 54.1387 198.638 55.9626 190.113L65.7413 192.205ZM66.4715 188.792L65.7413 192.205L55.9626 190.113L56.6928 186.7L66.4715 188.792ZM73.3007 174.826C69.9168 178.853 67.572 183.649 66.4715 188.792L56.6928 186.7C58.1353 179.958 61.209 173.672 65.6446 168.393L73.3007 174.826ZM85.8412 159.901L73.3007 174.826L65.6446 168.393L78.185 153.468L85.8412 159.901ZM80.2045 150.787C85.4958 149.516 89.3419 155.734 85.8412 159.901L78.185 153.468C75.4798 156.688 78.4519 161.493 82.5407 160.511L80.2045 150.787ZM72.4037 152.662L80.2045 150.787L82.5407 160.511L74.74 162.385L72.4037 152.662ZM60.0982 152.889C64.1678 153.709 68.3673 153.631 72.4037 152.662L74.74 162.385C69.2894 163.695 63.6186 163.799 58.1232 162.692L60.0982 152.889ZM56.7537 152.215L60.0982 152.889L58.1232 162.692L54.7787 162.019L56.7537 152.215ZM53.4418 152.117H55.7662V162.117H53.4418V152.117ZM44.9767 146.471C46.3994 149.89 49.7389 152.117 53.4418 152.117V162.117C45.7003 162.117 38.7186 157.46 35.7442 150.313L44.9767 146.471ZM42.1897 132.52C42.1897 137.309 43.1369 142.05 44.9767 146.471L35.7442 150.313C33.3977 144.674 32.1897 138.628 32.1897 132.52H42.1897ZM42.1897 130.406V132.52H32.1897V130.406H42.1897ZM47.4286 115.797C44.0416 119.912 42.1897 125.077 42.1897 130.406H32.1897C32.1897 122.758 34.8472 115.348 39.7076 109.442L47.4286 115.797ZM49.0174 113.867L47.4286 115.797L39.7076 109.442L41.2964 107.512L49.0174 113.867Z" fill="#281214" mask="url(#path-2-inside-1_161_21)"/>
<path d="M54.8107 108.433C51.348 107.59 47.7084 108.803 45.4436 111.555L44.204 113.061C39.7133 118.517 37.5763 125.535 38.2642 132.568L38.5897 135.896C38.8262 138.314 39.2616 140.709 39.8915 143.055L40.9717 147.08C42.6676 153.398 48.9934 157.3 55.4007 155.98V155.98L65.7129 125.429L64.6244 118.977C63.7538 113.817 59.8948 109.671 54.8107 108.433V108.433Z" fill="#5D3A2C"/>
<path d="M208.482 137.24C207.034 131.451 202.35 127.034 196.486 125.927V125.927C193.33 125.331 190.065 125.952 187.347 127.664L180.465 132L166.088 162L174.486 167.827C177.978 170.25 182.034 171.735 186.266 172.14V172.14C191.922 172.68 197.496 170.488 201.268 166.239L201.675 165.78C206.536 160.305 209.22 153.238 209.22 145.916V141.825C209.22 140.74 209.087 139.659 208.824 138.606L208.482 137.24Z" fill="#5D3A2C"/>
<path d="M141.737 213.238L134.863 214.195C129.745 214.907 124.552 214.884 119.44 214.127L113.434 213.238L105.036 218.563C101.299 220.933 98.4052 224.481 96.8108 228.608V228.608C95.5957 231.754 96.414 235.357 98.8942 237.641V237.641C101.428 239.976 104.883 241.037 108.291 240.528L111.831 239.999C118.627 238.984 125.03 236.175 130.379 231.861L135.119 228.038C138.318 225.458 140.435 221.775 141.055 217.713L141.737 213.238Z" fill="#5D3A2C"/>
<path d="M106.139 196.378C104.715 193.729 102.18 191.855 99.2294 191.271V191.271C98.0418 191.036 96.8135 191.115 95.6659 191.5L94.4414 191.912C89.2228 193.665 84.8614 197.329 82.234 202.166L77.1855 211.462C75.2749 214.979 75.9847 219.344 78.9115 222.075V222.075C81.3003 224.304 84.8798 224.674 87.6735 222.979L93.8861 219.212C98.1894 216.602 101.9 213.121 104.779 208.993V208.993C106.414 206.648 107.291 203.858 107.291 201V200.457C107.291 199.185 106.975 197.934 106.373 196.814L106.139 196.378Z" fill="#5D3A2C"/>
<mask id="path-8-inside-2_161_21" fill="white">
<path fill-rule="evenodd" clip-rule="evenodd" d="M45.1569 110.69C47.5969 107.725 51.5182 106.418 55.2488 107.327C60.1603 108.522 64.0565 112.254 65.4621 117.11L67.4879 124.108H70.7881C74.3178 124.108 77.7401 122.894 80.4809 120.67L87.434 115.028L124.075 128.595L193.408 117.378L189.437 125.575C192.32 124.172 195.651 123.861 198.792 124.763C204.274 126.338 208.478 130.752 209.783 136.305L210.245 138.274C210.502 139.366 210.632 140.485 210.632 141.607V145.769C210.632 153.17 208.036 160.337 203.295 166.021L201.831 167.777C198.966 171.212 194.857 173.372 190.403 173.783C185.17 174.267 179.926 172.987 175.505 170.148L169.659 166.394L148.526 210.008C147.52 212.084 146.073 213.84 144.336 215.196C144.043 219.75 141.867 223.997 138.303 226.897L129.934 233.707C124.115 238.443 117.008 241.322 109.533 241.974L106.13 242.27C102.383 242.597 98.7088 241.095 96.2634 238.237C94.5696 236.258 93.8893 233.605 94.4216 231.055L94.4583 230.88C95.6494 225.173 99.0813 220.184 103.984 217.031L109.772 213.308L106.491 210.77C103.331 213.739 99.9395 216.456 96.3467 218.894L90.1052 223.129C86.2825 225.723 81.1461 225.179 77.9507 221.843C74.8434 218.599 73.9314 213.833 75.6218 209.671L77.0952 206.043H72.2428C71.1157 206.043 69.9971 205.849 68.9357 205.469L68.7995 205.421C62.9504 203.331 59.5524 197.233 60.8519 191.159L61.5821 187.746C62.8537 181.803 65.5629 176.262 69.4727 171.609L82.0131 156.684C82.4108 156.211 81.9738 155.504 81.3726 155.649L73.5719 157.523C68.8283 158.663 63.8932 158.754 59.1107 157.791L55.7662 157.117H53.4418C47.7196 157.117 42.559 153.675 40.3604 148.392C38.2673 143.362 37.1897 137.968 37.1897 132.52V130.406C37.1897 123.917 39.4444 117.63 43.5681 112.62L45.1569 110.69Z"/>
</mask>
<path d="M55.2488 107.327L56.4314 102.468L56.4314 102.468L55.2488 107.327ZM45.1569 110.69L49.0174 113.867L49.0174 113.867L45.1569 110.69ZM65.4621 117.11L60.6593 118.5L60.6593 118.5L65.4621 117.11ZM67.4879 124.108V129.108H63.7301L62.6851 125.499L67.4879 124.108ZM80.4809 120.67L83.6314 124.553L83.6314 124.553L80.4809 120.67ZM87.434 115.028L84.2835 111.146L86.497 109.349L89.1701 110.339L87.434 115.028ZM124.075 128.595L124.874 133.531L123.574 133.741L122.339 133.284L124.075 128.595ZM193.408 117.378L192.61 112.442L202.1 110.907L197.908 119.558L193.408 117.378ZM189.437 125.575L191.624 130.071L178.641 136.389L184.937 123.395L189.437 125.575ZM198.792 124.763L200.172 119.957L200.172 119.957L198.792 124.763ZM209.783 136.305L214.65 135.161L214.65 135.161L209.783 136.305ZM210.245 138.274L205.378 139.417L205.378 139.417L210.245 138.274ZM203.295 166.021L207.135 169.223L207.135 169.223L203.295 166.021ZM201.831 167.777L197.991 164.574L197.991 164.574L201.831 167.777ZM190.403 173.783L189.943 168.804L189.943 168.804L190.403 173.783ZM175.505 170.148L178.206 165.94L178.206 165.94L175.505 170.148ZM169.659 166.394L165.159 164.213L167.617 159.14L172.36 162.186L169.659 166.394ZM148.526 210.008L144.026 207.828L144.026 207.828L148.526 210.008ZM144.336 215.196L139.347 214.875L139.491 212.636L141.259 211.255L144.336 215.196ZM138.303 226.897L135.147 223.019L135.147 223.019L138.303 226.897ZM129.934 233.707L133.09 237.585L133.09 237.585L129.934 233.707ZM109.533 241.974L109.099 236.993L109.099 236.993L109.533 241.974ZM106.13 242.27L106.564 247.251L106.564 247.251L106.13 242.27ZM96.2634 238.237L100.062 234.986L100.062 234.986L96.2634 238.237ZM94.4216 231.055L99.3161 232.077L99.3161 232.077L94.4216 231.055ZM94.4583 230.88L89.5637 229.858L89.5637 229.858L94.4583 230.88ZM103.984 217.031L101.28 212.825L101.28 212.825L103.984 217.031ZM109.772 213.308L112.831 209.353L118.43 213.685L112.477 217.514L109.772 213.308ZM106.491 210.77L103.067 207.127L106.176 204.205L109.55 206.815L106.491 210.77ZM96.3467 218.894L93.5393 214.756L93.5393 214.756L96.3467 218.894ZM90.1052 223.129L92.9125 227.266L92.9125 227.266L90.1052 223.129ZM77.9507 221.843L81.5615 218.385L81.5615 218.385L77.9507 221.843ZM75.6218 209.671L80.2543 211.552L80.2543 211.552L75.6218 209.671ZM77.0952 206.043V201.043H84.5226L81.7277 207.924L77.0952 206.043ZM68.9357 205.469L67.2532 210.178L67.2531 210.178L68.9357 205.469ZM68.7995 205.421L70.482 200.712L70.4821 200.712L68.7995 205.421ZM60.8519 191.159L55.9626 190.113L55.9626 190.113L60.8519 191.159ZM61.5821 187.746L66.4715 188.792L66.4715 188.792L61.5821 187.746ZM69.4727 171.609L73.3007 174.826L73.3007 174.826L69.4727 171.609ZM82.0131 156.684L85.8412 159.901L85.8412 159.901L82.0131 156.684ZM81.3726 155.649L80.2045 150.787L80.2045 150.787L81.3726 155.649ZM73.5719 157.523L72.4037 152.662L72.4037 152.662L73.5719 157.523ZM59.1107 157.791L60.0982 152.889L60.0982 152.889L59.1107 157.791ZM55.7662 157.117V152.117H56.2649L56.7537 152.215L55.7662 157.117ZM40.3604 148.392L44.9767 146.471L44.9767 146.471L40.3604 148.392ZM43.5681 112.62L39.7076 109.442L39.7076 109.442L43.5681 112.62ZM54.0661 112.185C52.1998 111.73 50.2381 112.384 49.0174 113.867L41.2964 107.512C44.9557 103.066 50.8366 101.106 56.4314 102.468L54.0661 112.185ZM60.6593 118.5C59.7519 115.366 57.2367 112.956 54.0661 112.185L56.4314 102.468C63.0838 104.088 68.3612 109.143 70.2649 115.72L60.6593 118.5ZM62.6851 125.499L60.6593 118.5L70.2649 115.72L72.2908 122.718L62.6851 125.499ZM70.7881 129.108H67.4879V119.108H70.7881V129.108ZM83.6314 124.553C79.9997 127.5 75.4651 129.108 70.7881 129.108V119.108C73.1705 119.108 75.4804 118.289 77.3304 116.788L83.6314 124.553ZM90.5846 118.911L83.6314 124.553L77.3304 116.788L84.2835 111.146L90.5846 118.911ZM122.339 133.284L85.6979 119.717L89.1701 110.339L125.811 123.906L122.339 133.284ZM194.207 122.314L124.874 133.531L123.277 123.659L192.61 112.442L194.207 122.314ZM184.937 123.395L188.909 115.198L197.908 119.558L193.936 127.755L184.937 123.395ZM197.412 129.569C195.469 129.011 193.408 129.203 191.624 130.071L187.249 121.079C191.231 119.141 195.833 118.711 200.172 119.957L197.412 129.569ZM204.915 137.448C204.024 133.657 201.155 130.644 197.412 129.569L200.172 119.957C207.394 122.031 212.931 127.846 214.65 135.161L204.915 137.448ZM205.378 139.417L204.915 137.448L214.65 135.161L215.113 137.13L205.378 139.417ZM205.632 141.607C205.632 140.87 205.547 140.135 205.378 139.417L215.113 137.13C215.458 138.597 215.632 140.1 215.632 141.607H205.632ZM205.632 145.769V141.607H215.632V145.769H205.632ZM199.455 162.818C203.446 158.033 205.632 152 205.632 145.769H215.632C215.632 154.34 212.625 162.64 207.135 169.223L199.455 162.818ZM197.991 164.574L199.455 162.818L207.135 169.223L205.671 170.979L197.991 164.574ZM189.943 168.804C193.08 168.515 195.974 166.993 197.991 164.574L205.671 170.979C201.959 175.43 196.634 178.229 190.863 178.762L189.943 168.804ZM178.206 165.94C181.69 168.177 185.821 169.185 189.943 168.804L190.863 178.762C184.52 179.348 178.163 177.797 172.803 174.355L178.206 165.94ZM172.36 162.186L178.206 165.94L172.803 174.355L166.957 170.601L172.36 162.186ZM144.026 207.828L165.159 164.213L174.158 168.574L153.026 212.188L144.026 207.828ZM141.259 211.255C142.405 210.36 143.36 209.202 144.026 207.828L153.026 212.188C151.679 214.966 149.74 217.321 147.414 219.137L141.259 211.255ZM135.147 223.019C137.628 221 139.143 218.044 139.347 214.875L149.326 215.518C148.943 221.456 146.106 226.993 141.459 230.775L135.147 223.019ZM126.778 229.829L135.147 223.019L141.459 230.775L133.09 237.585L126.778 229.829ZM109.099 236.993C115.576 236.428 121.735 233.933 126.778 229.829L133.09 237.585C126.494 242.953 118.439 246.217 109.967 246.955L109.099 236.993ZM105.696 237.289L109.099 236.993L109.967 246.955L106.564 247.251L105.696 237.289ZM100.062 234.986C101.459 236.618 103.556 237.475 105.696 237.289L106.564 247.251C101.209 247.718 95.9592 245.572 92.4646 241.488L100.062 234.986ZM99.3161 232.077C99.1005 233.11 99.3761 234.185 100.062 234.986L92.4646 241.488C89.7631 238.332 88.6781 234.101 89.5271 230.034L99.3161 232.077ZM99.3528 231.901L99.3161 232.077L89.5271 230.034L89.5637 229.858L99.3528 231.901ZM106.689 221.236C102.913 223.664 100.27 227.507 99.3528 231.901L89.5637 229.858C91.0287 222.84 95.2496 216.703 101.28 212.825L106.689 221.236ZM112.477 217.514L106.689 221.236L101.28 212.825L107.067 209.103L112.477 217.514ZM109.55 206.815L112.831 209.353L106.713 217.263L103.432 214.725L109.55 206.815ZM93.5393 214.756C96.9137 212.467 100.099 209.915 103.067 207.127L109.915 214.414C106.563 217.564 102.965 220.445 99.154 223.031L93.5393 214.756ZM87.2978 218.991L93.5393 214.756L99.154 223.031L92.9125 227.266L87.2978 218.991ZM81.5615 218.385C83.0696 219.959 85.4937 220.216 87.2978 218.991L92.9125 227.266C87.0713 231.23 79.2226 230.4 74.3398 225.302L81.5615 218.385ZM80.2543 211.552C79.3055 213.888 79.8174 216.564 81.5615 218.385L74.3398 225.302C69.8694 220.635 68.5574 213.777 70.9893 207.789L80.2543 211.552ZM81.7277 207.924L80.2543 211.552L70.9893 207.789L72.4627 204.161L81.7277 207.924ZM72.2428 201.043H77.0952V211.043H72.2428V201.043ZM70.6182 200.761C71.1396 200.947 71.6891 201.043 72.2428 201.043V211.043C70.5423 211.043 68.8545 210.75 67.2532 210.178L70.6182 200.761ZM70.4821 200.712L70.6183 200.761L67.2531 210.178L67.1169 210.129L70.4821 200.712ZM65.7413 192.205C64.9661 195.828 66.993 199.466 70.482 200.712L67.117 210.129C58.9078 207.196 54.1387 198.638 55.9626 190.113L65.7413 192.205ZM66.4715 188.792L65.7413 192.205L55.9626 190.113L56.6928 186.7L66.4715 188.792ZM73.3007 174.826C69.9168 178.853 67.572 183.649 66.4715 188.792L56.6928 186.7C58.1353 179.958 61.209 173.672 65.6446 168.393L73.3007 174.826ZM85.8412 159.901L73.3007 174.826L65.6446 168.393L78.185 153.468L85.8412 159.901ZM80.2045 150.787C85.4958 149.516 89.3419 155.734 85.8412 159.901L78.185 153.468C75.4798 156.688 78.4519 161.493 82.5407 160.511L80.2045 150.787ZM72.4037 152.662L80.2045 150.787L82.5407 160.511L74.74 162.385L72.4037 152.662ZM60.0982 152.889C64.1678 153.709 68.3673 153.631 72.4037 152.662L74.74 162.385C69.2894 163.695 63.6186 163.799 58.1232 162.692L60.0982 152.889ZM56.7537 152.215L60.0982 152.889L58.1232 162.692L54.7787 162.019L56.7537 152.215ZM53.4418 152.117H55.7662V162.117H53.4418V152.117ZM44.9767 146.471C46.3994 149.89 49.7389 152.117 53.4418 152.117V162.117C45.7003 162.117 38.7186 157.46 35.7442 150.313L44.9767 146.471ZM42.1897 132.52C42.1897 137.309 43.1369 142.05 44.9767 146.471L35.7442 150.313C33.3977 144.674 32.1897 138.628 32.1897 132.52H42.1897ZM42.1897 130.406V132.52H32.1897V130.406H42.1897ZM47.4286 115.797C44.0416 119.912 42.1897 125.077 42.1897 130.406H32.1897C32.1897 122.758 34.8472 115.348 39.7076 109.442L47.4286 115.797ZM49.0174 113.867L47.4286 115.797L39.7076 109.442L41.2964 107.512L49.0174 113.867Z" fill="#281214" mask="url(#path-8-inside-2_161_21)"/>
<path d="M117.26 188.669L117.847 186.466C119.16 181.546 117.371 176.364 113.312 173.323L112.097 172.413C110.743 171.399 109.141 170.754 107.45 170.541V170.541C100.875 169.715 94.4557 173.178 91.5407 179.122L90.6132 181.014" stroke="#281214" stroke-width="5" stroke-linecap="round"/>
<path d="M106.194 208.965L107.694 207.287C110.12 204.573 112.157 201.551 113.748 198.304L114.221 197.341M77.9082 205.626L79.414 203.941C81.8364 201.231 83.8701 198.214 85.4596 194.971L85.9351 194.001" stroke="#281214" stroke-width="5" stroke-linecap="round"/>
<path d="M156.378 152.361L191.221 114.664L93.9134 129.519C98.0542 145.275 108.107 158.867 122.027 167.436C124.11 168.718 126.617 169.118 128.996 168.549L130.977 168.075C134.538 167.222 137.932 165.778 141.016 163.803L148.239 159.178C151.231 157.261 153.966 154.971 156.378 152.361Z" fill="#05A3FF" stroke="#281214" stroke-width="5"/>
<mask id="path-13-inside-3_161_21" fill="white">
<path fill-rule="evenodd" clip-rule="evenodd" d="M166.894 7.22001C165.745 4.98525 163.443 3.58032 160.931 3.58032H160.34C156.063 3.58032 151.967 5.30546 148.979 8.36526L148.469 8.88758C145.363 12.0682 143.068 15.9496 141.778 20.204L141.046 22.6168C139.438 27.9199 140.092 33.6519 142.854 38.456L143.052 38.8005C138.558 40.36 134.162 42.2091 129.893 44.3386L120.373 49.0877L107.845 56.0062C97.0682 61.9575 88.7262 71.5077 84.2777 82.9868L83.8089 84.1965C81.7748 89.4454 80.7314 95.0258 80.7314 100.655C80.7314 106.044 81.6877 111.39 83.5559 116.445L83.7811 117.054C90.6013 135.508 107.763 148.121 127.411 149.121L130.402 149.274C141.523 149.84 152.545 146.936 161.944 140.964L167.292 137.565C169.67 136.054 171.929 134.363 174.049 132.506L189.055 119.362C193.725 115.272 197.671 110.422 200.725 105.017L201.556 103.546C205.782 96.0679 208.003 87.624 208.003 79.0343V78.5066C208.003 74.5708 207.623 70.6442 206.869 66.7814L206.659 65.7059L211.89 56.2796C215.598 49.5981 217.053 41.8992 216.039 34.3253C215.211 28.1361 213.137 22.1791 209.942 16.8139L209.568 16.1856L207.017 11.9504C204.108 7.12317 196.884 7.90227 195.072 13.2385L186.815 37.554C181.069 34.5566 174.636 33.1001 168.153 33.3342V12.4232C168.153 10.6134 167.721 8.82966 166.894 7.22001Z"/>
</mask>
<path fill-rule="evenodd" clip-rule="evenodd" d="M166.894 7.22001C165.745 4.98525 163.443 3.58032 160.931 3.58032H160.34C156.063 3.58032 151.967 5.30546 148.979 8.36526L148.469 8.88758C145.363 12.0682 143.068 15.9496 141.778 20.204L141.046 22.6168C139.438 27.9199 140.092 33.6519 142.854 38.456L143.052 38.8005C138.558 40.36 134.162 42.2091 129.893 44.3386L120.373 49.0877L107.845 56.0062C97.0682 61.9575 88.7262 71.5077 84.2777 82.9868L83.8089 84.1965C81.7748 89.4454 80.7314 95.0258 80.7314 100.655C80.7314 106.044 81.6877 111.39 83.5559 116.445L83.7811 117.054C90.6013 135.508 107.763 148.121 127.411 149.121L130.402 149.274C141.523 149.84 152.545 146.936 161.944 140.964L167.292 137.565C169.67 136.054 171.929 134.363 174.049 132.506L189.055 119.362C193.725 115.272 197.671 110.422 200.725 105.017L201.556 103.546C205.782 96.0679 208.003 87.624 208.003 79.0343V78.5066C208.003 74.5708 207.623 70.6442 206.869 66.7814L206.659 65.7059L211.89 56.2796C215.598 49.5981 217.053 41.8992 216.039 34.3253C215.211 28.1361 213.137 22.1791 209.942 16.8139L209.568 16.1856L207.017 11.9504C204.108 7.12317 196.884 7.90227 195.072 13.2385L186.815 37.554C181.069 34.5566 174.636 33.1001 168.153 33.3342V12.4232C168.153 10.6134 167.721 8.82966 166.894 7.22001Z" fill="#B89061"/>
<path d="M166.894 7.22001L162.447 9.50569L162.447 9.50568L166.894 7.22001ZM148.979 8.36526L145.402 4.87189L145.402 4.87189L148.979 8.36526ZM148.469 8.88758L152.046 12.3809L152.046 12.381L148.469 8.88758ZM141.778 20.204L146.562 21.6551L146.562 21.6551L141.778 20.204ZM141.046 22.6168L145.831 24.0679L145.831 24.0679L141.046 22.6168ZM142.854 38.456L138.52 40.9484L138.52 40.9483L142.854 38.456ZM143.052 38.8005L147.387 36.3081L150.398 41.5443L144.691 43.5242L143.052 38.8005ZM129.893 44.3386L132.125 48.8128L132.125 48.8128L129.893 44.3386ZM120.373 49.0877L117.956 44.7108L118.048 44.6602L118.141 44.6136L120.373 49.0877ZM107.845 56.0062L105.428 51.6293L105.428 51.6293L107.845 56.0062ZM84.2777 82.9868L79.6155 81.1801L79.6155 81.1801L84.2777 82.9868ZM83.8089 84.1965L88.4711 86.0032L88.4711 86.0032L83.8089 84.1965ZM83.5559 116.445L88.2458 114.712L88.2459 114.712L83.5559 116.445ZM83.7811 117.054L79.0911 118.788L79.0911 118.788L83.7811 117.054ZM127.411 149.121L127.157 154.115L127.157 154.115L127.411 149.121ZM130.402 149.274L130.656 144.28L130.656 144.28L130.402 149.274ZM161.944 140.964L159.262 136.744L159.262 136.744L161.944 140.964ZM167.292 137.565L169.974 141.785L169.974 141.785L167.292 137.565ZM174.049 132.506L170.754 128.745L170.754 128.745L174.049 132.506ZM189.055 119.362L192.35 123.123L192.35 123.123L189.055 119.362ZM200.725 105.017L196.372 102.557L196.372 102.557L200.725 105.017ZM201.556 103.546L205.909 106.006L205.909 106.006L201.556 103.546ZM206.869 66.7814L201.962 67.7399L201.962 67.7399L206.869 66.7814ZM206.659 65.7059L201.752 66.6644L201.402 64.8744L202.287 63.2797L206.659 65.7059ZM211.89 56.2796L216.262 58.7058L216.262 58.7058L211.89 56.2796ZM216.039 34.3253L211.084 34.9886L211.084 34.9886L216.039 34.3253ZM209.942 16.8139L214.238 14.2557L214.238 14.2557L209.942 16.8139ZM209.568 16.1856L213.851 13.6055L213.857 13.6164L213.864 13.6274L209.568 16.1856ZM207.017 11.9504L211.299 9.37029L211.299 9.37029L207.017 11.9504ZM195.072 13.2385L190.337 11.6309L190.337 11.6309L195.072 13.2385ZM186.815 37.554L191.55 39.1617L189.674 44.6849L184.503 41.9871L186.815 37.554ZM168.153 33.3342L168.333 38.3309L163.153 38.5179V33.3342H168.153ZM160.931 -1.41968C165.317 -1.41968 169.335 1.03299 171.341 4.93435L162.447 9.50568C162.155 8.93752 161.569 8.58032 160.931 8.58032V-1.41968ZM160.34 -1.41968H160.931V8.58032H160.34V-1.41968ZM145.402 4.87189C149.331 0.848649 154.717 -1.41968 160.34 -1.41968V8.58032C157.41 8.58032 154.604 9.76227 152.556 11.8586L145.402 4.87189ZM144.892 5.39421L145.402 4.87189L152.556 11.8586L152.046 12.3809L144.892 5.39421ZM136.993 18.7528C138.516 13.7307 141.225 9.14884 144.892 5.39421L152.046 12.381C149.501 14.9876 147.62 18.1685 146.562 21.6551L136.993 18.7528ZM136.261 21.1656L136.993 18.7528L146.562 21.6551L145.831 24.0679L136.261 21.1656ZM138.52 40.9483C135.07 34.9482 134.252 27.7891 136.261 21.1656L145.831 24.0679C144.623 28.0507 145.114 32.3557 147.189 35.9637L138.52 40.9483ZM138.718 41.2928L138.52 40.9484L147.189 35.9637L147.387 36.3081L138.718 41.2928ZM144.691 43.5242C140.399 45.0134 136.202 46.7792 132.125 48.8128L127.661 39.8645C132.122 37.6389 136.716 35.7065 141.413 34.0767L144.691 43.5242ZM132.125 48.8128L122.605 53.5619L118.141 44.6136L127.661 39.8645L132.125 48.8128ZM122.79 53.4647L110.262 60.3832L105.428 51.6293L117.956 44.7108L122.79 53.4647ZM110.262 60.3832C100.512 65.7675 92.9646 74.4079 88.9399 84.7935L79.6155 81.1801C84.4878 68.6074 93.6244 58.1475 105.428 51.6293L110.262 60.3832ZM88.9399 84.7935L88.4711 86.0032L79.1467 82.3898L79.6155 81.1801L88.9399 84.7935ZM88.4711 86.0032C86.6603 90.6759 85.7314 95.6437 85.7314 100.655H75.7314C75.7314 94.4078 76.8894 88.2148 79.1467 82.3898L88.4711 86.0032ZM85.7314 100.655C85.7314 105.452 86.5827 110.212 88.2458 114.712L78.8659 118.178C76.7927 112.569 75.7314 106.636 75.7314 100.655H85.7314ZM88.2459 114.712L88.471 115.321L79.0911 118.788L78.8659 118.178L88.2459 114.712ZM88.471 115.321C94.5978 131.899 110.015 143.23 127.665 144.128L127.157 154.115C105.511 153.013 86.6047 139.118 79.0911 118.788L88.471 115.321ZM127.665 144.128L130.656 144.28L130.148 154.267L127.157 154.115L127.665 144.128ZM130.656 144.28C140.742 144.793 150.739 142.16 159.262 136.744L164.625 145.184C154.352 151.712 142.304 154.886 130.148 154.267L130.656 144.28ZM159.262 136.744L164.611 133.345L169.974 141.785L164.625 145.184L159.262 136.744ZM164.611 133.345C166.773 131.971 168.827 130.433 170.754 128.745L177.343 136.267C175.031 138.292 172.568 140.137 169.974 141.785L164.611 133.345ZM170.754 128.745L185.761 115.601L192.35 123.123L177.343 136.267L170.754 128.745ZM185.761 115.601C190.007 111.882 193.595 107.472 196.372 102.557L205.078 107.477C201.747 113.372 197.443 118.662 192.35 123.123L185.761 115.601ZM196.372 102.557L197.203 101.086L205.909 106.006L205.078 107.477L196.372 102.557ZM197.203 101.086C201.005 94.3584 203.003 86.762 203.003 79.0343H213.003C213.003 88.4861 210.559 97.7773 205.909 106.006L197.203 101.086ZM203.003 79.0343V78.5066H213.003V79.0343H203.003ZM203.003 78.5066C203.003 74.8925 202.654 71.2869 201.962 67.7399L211.776 65.823C212.592 70.0015 213.003 74.2491 213.003 78.5066H203.003ZM201.962 67.7399L201.752 66.6644L211.566 64.7475L211.776 65.823L201.962 67.7399ZM216.262 58.7058L211.031 68.1322L202.287 63.2797L207.518 53.8533L216.262 58.7058ZM220.995 33.662C222.152 42.3017 220.492 51.0841 216.262 58.7058L207.518 53.8533C210.704 48.1121 211.955 41.4967 211.084 34.9886L220.995 33.662ZM214.238 14.2557C217.779 20.2015 220.077 26.8031 220.995 33.662L211.084 34.9886C210.345 29.4692 208.495 24.1567 205.646 19.372L214.238 14.2557ZM213.864 13.6274L214.238 14.2557L205.646 19.372L205.272 18.7437L213.864 13.6274ZM211.299 9.37029L213.851 13.6055L205.285 18.7657L202.734 14.5305L211.299 9.37029ZM190.337 11.6309C193.517 2.26609 206.196 0.898809 211.299 9.37029L202.734 14.5305C202.021 13.3475 200.25 13.5385 199.806 14.8462L190.337 11.6309ZM182.081 35.9463L190.337 11.6309L199.806 14.8462L191.55 39.1617L182.081 35.9463ZM184.503 41.9871C179.524 39.3901 173.95 38.1281 168.333 38.3309L167.972 28.3374C175.322 28.0721 182.614 29.7231 189.128 33.1209L184.503 41.9871ZM173.153 12.4232V33.3342H163.153V12.4232H173.153ZM171.341 4.93434C172.531 7.25108 173.153 9.81837 173.153 12.4232H163.153C163.153 11.4084 162.911 10.4082 162.447 9.50569L171.341 4.93434Z" fill="#281214" mask="url(#path-13-inside-3_161_21)"/>
<path d="M138.631 108.141C138.631 103.461 134.687 99.7488 130.015 100.033L124.874 100.345L117.642 99.9434C113.397 99.7075 109.825 103.086 109.825 107.338V130.729C109.825 131.974 109.919 133.216 110.105 134.447V134.447C111.002 140.36 115.317 145.179 121.096 146.72L127.771 148.5L134.808 146.436C139.188 145.151 141.912 140.791 141.147 136.291L139.7 127.785C138.989 123.602 138.631 119.367 138.631 115.125V108.141Z" fill="#8C6748"/>
<path d="M124.291 108.11V108.11C123.363 117.967 124.088 127.911 126.436 137.529L126.795 139" stroke="#281214" stroke-width="4" stroke-linecap="round"/>
<path d="M110.524 102.775L113.044 105.119C115.034 106.971 117.652 108 120.371 108H127.173C129.835 108 132.402 107.013 134.379 105.23L137.136 102.744C137.144 102.736 137.149 102.73 137.152 102.727C137.152 102.722 137.152 102.713 137.147 102.7C137.143 102.687 137.138 102.679 137.135 102.676C137.131 102.675 137.123 102.673 137.112 102.672L129.879 102H118.609L110.549 102.704C110.537 102.705 110.53 102.706 110.526 102.707C110.523 102.711 110.518 102.719 110.513 102.732C110.509 102.744 110.508 102.754 110.508 102.758C110.511 102.762 110.516 102.767 110.524 102.775ZM137.155 102.723C137.155 102.723 137.155 102.723 137.155 102.723L137.155 102.723Z" fill="#5D3A2C" stroke="#281214" stroke-width="4"/>
<path d="M208.014 16.832L206.655 14.5541C203.567 9.37535 195.728 10.6823 194.486 16.5831L193.537 21.0946L187.342 43V43C194.197 47.8328 199.068 54.9869 201.052 63.1364L202.479 69L209.453 57.9438C213.781 51.0832 215.567 42.9228 214.502 34.8816V34.8816C213.707 28.8848 211.715 23.109 208.642 17.898L208.014 16.832Z" fill="#5D3A2C"/>
<path d="M166.649 8.66292C165.616 5.90473 162.877 4.16884 159.942 4.41333L159.358 4.46196C156.128 4.731 153.069 6.02399 150.625 8.15265L150.239 8.48908C145.837 12.3235 142.83 17.509 141.689 23.2342L141.366 24.8561C140.468 29.3593 141.141 34.0341 143.272 38.1015L145.838 43L156.58 40L167.811 38L167.356 12.3809C167.334 11.1103 167.095 9.85297 166.649 8.66292V8.66292Z" fill="#5D3A2C"/>
<mask id="path-20-inside-4_161_21" fill="white">
<path fill-rule="evenodd" clip-rule="evenodd" d="M166.89 7.22001C165.741 4.98525 163.44 3.58032 160.927 3.58032H160.336C156.06 3.58032 151.964 5.30546 148.976 8.36526L148.465 8.88758C145.359 12.0682 143.064 15.9496 141.774 20.204L141.042 22.6168C139.434 27.9199 140.088 33.6519 142.851 38.456L143.049 38.8005C138.554 40.36 134.158 42.2091 129.89 44.3386L120.37 49.0877L107.842 56.0062C97.0647 61.9575 88.7227 71.5077 84.2743 82.9868L83.8055 84.1965C81.7714 89.4454 80.728 95.0258 80.728 100.655C80.728 106.044 81.6843 111.39 83.5525 116.445L83.7776 117.054C90.5978 135.508 107.76 148.121 127.408 149.121L130.399 149.274C141.52 149.84 152.542 146.936 161.941 140.964L167.289 137.565C169.667 136.054 171.926 134.363 174.045 132.506L189.052 119.362C193.722 115.272 197.667 110.422 200.722 105.017L201.553 103.546C205.779 96.0679 208 87.624 208 79.0343V78.5066C208 74.5708 207.62 70.6442 206.865 66.7814L206.655 65.7059L211.887 56.2796C215.595 49.5981 217.05 41.8992 216.036 34.3253C215.208 28.1361 213.133 22.1791 209.939 16.8139L209.564 16.1856L207.013 11.9504C204.105 7.12317 196.881 7.90227 195.068 13.2385L186.812 37.554C181.066 34.5566 174.633 33.1001 168.149 33.3342V12.4232C168.149 10.6134 167.717 8.82966 166.89 7.22001Z"/>
</mask>
<path d="M166.89 7.22001L162.443 9.50569L162.443 9.50568L166.89 7.22001ZM148.976 8.36526L145.398 4.87189L145.398 4.87189L148.976 8.36526ZM148.465 8.88758L152.043 12.3809L152.043 12.381L148.465 8.88758ZM141.774 20.204L136.989 18.7528L141.774 20.204ZM141.042 22.6168L136.257 21.1656L136.257 21.1656L141.042 22.6168ZM142.851 38.456L147.185 35.9637L147.185 35.9637L142.851 38.456ZM143.049 38.8005L147.383 36.3082L150.394 41.5444L144.688 43.5243L143.049 38.8005ZM129.89 44.3386L127.658 39.8645L127.658 39.8645L129.89 44.3386ZM120.37 49.0877L117.953 44.7108L118.044 44.6602L118.138 44.6136L120.37 49.0877ZM107.842 56.0062L105.425 51.6293L105.425 51.6293L107.842 56.0062ZM84.2743 82.9868L79.6121 81.1801L79.6121 81.1801L84.2743 82.9868ZM83.8055 84.1965L88.4677 86.0032L88.4677 86.0032L83.8055 84.1965ZM83.5525 116.445L78.8625 118.178L78.8625 118.178L83.5525 116.445ZM83.7776 117.054L88.4676 115.321L88.4676 115.321L83.7776 117.054ZM127.408 149.121L127.154 154.115L127.154 154.115L127.408 149.121ZM130.399 149.274L130.653 144.28L130.653 144.28L130.399 149.274ZM161.941 140.964L159.259 136.744L159.259 136.744L161.941 140.964ZM167.289 137.565L169.971 141.785L169.97 141.785L167.289 137.565ZM174.045 132.506L170.751 128.745L170.751 128.745L174.045 132.506ZM189.052 119.362L192.346 123.123L192.346 123.123L189.052 119.362ZM200.722 105.017L196.369 102.557L196.369 102.557L200.722 105.017ZM201.553 103.546L205.906 106.006L205.906 106.006L201.553 103.546ZM206.865 66.7814L201.958 67.7399L201.958 67.7399L206.865 66.7814ZM206.655 65.7059L201.748 66.6644L201.398 64.8744L202.283 63.2797L206.655 65.7059ZM211.887 56.2796L216.259 58.7058L216.259 58.7058L211.887 56.2796ZM216.036 34.3253L211.08 34.9886L211.08 34.9886L216.036 34.3253ZM209.939 16.8139L214.235 14.2557L214.235 14.2557L209.939 16.8139ZM209.564 16.1856L213.847 13.6055L213.854 13.6164L213.861 13.6274L209.564 16.1856ZM207.013 11.9504L211.296 9.37029L211.296 9.37029L207.013 11.9504ZM195.068 13.2385L190.334 11.6309L190.334 11.6309L195.068 13.2385ZM186.812 37.554L191.546 39.1617L189.671 44.6849L184.499 41.9871L186.812 37.554ZM168.149 33.3342L168.329 38.3309L163.149 38.5179V33.3342H168.149ZM160.927 -1.41968C165.314 -1.41968 169.332 1.03299 171.337 4.93435L162.443 9.50568C162.151 8.93752 161.566 8.58032 160.927 8.58032V-1.41968ZM160.336 -1.41968H160.927V8.58032H160.336V-1.41968ZM145.398 4.87189C149.327 0.84865 154.713 -1.41968 160.336 -1.41968V8.58032C157.406 8.58032 154.6 9.76227 152.553 11.8586L145.398 4.87189ZM144.888 5.39421L145.398 4.87189L152.553 11.8586L152.043 12.3809L144.888 5.39421ZM136.989 18.7528C138.512 13.7307 141.222 9.14884 144.888 5.39421L152.043 12.381C149.497 14.9876 147.616 18.1685 146.559 21.6551L136.989 18.7528ZM136.257 21.1656L136.989 18.7528L146.559 21.6551L145.827 24.0679L136.257 21.1656ZM138.516 40.9483C135.066 34.9482 134.249 27.7891 136.257 21.1656L145.827 24.0679C144.619 28.0507 145.111 32.3557 147.185 35.9637L138.516 40.9483ZM138.714 41.2928L138.516 40.9483L147.185 35.9637L147.383 36.3082L138.714 41.2928ZM144.688 43.5243C140.396 45.0135 136.198 46.7792 132.122 48.8128L127.658 39.8645C132.119 37.639 136.713 35.7065 141.41 34.0768L144.688 43.5243ZM132.122 48.8128L122.602 53.5619L118.138 44.6136L127.658 39.8645L132.122 48.8128ZM122.787 53.4647L110.259 60.3832L105.425 51.6293L117.953 44.7108L122.787 53.4647ZM110.259 60.3832C100.508 65.7675 92.9611 74.4079 88.9364 84.7935L79.6121 81.1801C84.4843 68.6074 93.621 58.1475 105.425 51.6293L110.259 60.3832ZM88.9365 84.7935L88.4677 86.0032L79.1433 82.3898L79.6121 81.1801L88.9365 84.7935ZM88.4677 86.0032C86.6569 90.6759 85.728 95.6437 85.728 100.655H75.728C75.728 94.4079 76.886 88.2148 79.1433 82.3898L88.4677 86.0032ZM85.728 100.655C85.728 105.452 86.5793 110.212 88.2424 114.712L78.8625 118.178C76.7893 112.569 75.728 106.636 75.728 100.655H85.728ZM88.2424 114.712L88.4676 115.321L79.0877 118.788L78.8625 118.178L88.2424 114.712ZM88.4676 115.321C94.5944 131.899 110.011 143.23 127.662 144.128L127.154 154.115C105.508 153.013 86.6013 139.118 79.0877 118.788L88.4676 115.321ZM127.662 144.128L130.653 144.28L130.145 154.267L127.154 154.115L127.662 144.128ZM130.653 144.28C140.739 144.793 150.735 142.16 159.259 136.744L164.622 145.184C154.349 151.712 142.301 154.886 130.145 154.267L130.653 144.28ZM159.259 136.744L164.607 133.345L169.97 141.785L164.622 145.184L159.259 136.744ZM164.607 133.345C166.77 131.971 168.824 130.433 170.751 128.745L177.34 136.267C175.028 138.292 172.564 140.137 169.971 141.785L164.607 133.345ZM170.751 128.745L185.757 115.601L192.346 123.123L177.34 136.267L170.751 128.745ZM185.757 115.601C190.004 111.882 193.591 107.472 196.369 102.557L205.075 107.477C201.743 113.372 197.44 118.662 192.346 123.123L185.757 115.601ZM196.369 102.557L197.2 101.086L205.906 106.006L205.075 107.477L196.369 102.557ZM197.2 101.086C201.002 94.3584 203 86.762 203 79.0343H213C213 88.4861 210.556 97.7773 205.906 106.006L197.2 101.086ZM203 79.0343V78.5066H213V79.0343H203ZM203 78.5066C203 74.8925 202.651 71.2869 201.958 67.7399L211.773 65.823C212.589 70.0015 213 74.2491 213 78.5066H203ZM201.958 67.7399L201.748 66.6644L211.563 64.7475L211.773 65.823L201.958 67.7399ZM216.259 58.7058L211.027 68.1322L202.283 63.2797L207.515 53.8533L216.259 58.7058ZM220.992 33.662C222.148 42.3017 220.488 51.0841 216.259 58.7058L207.515 53.8533C210.701 48.1121 211.951 41.4967 211.08 34.9886L220.992 33.662ZM214.235 14.2557C217.775 20.2015 220.074 26.8031 220.992 33.662L211.08 34.9886C210.341 29.4692 208.492 24.1567 205.643 19.372L214.235 14.2557ZM213.861 13.6274L214.235 14.2557L205.643 19.372L205.268 18.7437L213.861 13.6274ZM211.296 9.37029L213.847 13.6055L205.282 18.7657L202.73 14.5305L211.296 9.37029ZM190.334 11.6309C193.514 2.26609 206.193 0.898809 211.296 9.37029L202.73 14.5305C202.018 13.3475 200.247 13.5385 199.803 14.8462L190.334 11.6309ZM182.077 35.9463L190.334 11.6309L199.803 14.8462L191.546 39.1617L182.077 35.9463ZM184.499 41.9871C179.521 39.3901 173.947 38.1281 168.329 38.3309L167.969 28.3374C175.319 28.072 182.611 29.723 189.124 33.121L184.499 41.9871ZM173.149 12.4232V33.3342H163.149V12.4232H173.149ZM171.337 4.93434C172.528 7.25108 173.149 9.81837 173.149 12.4232H163.149C163.149 11.4084 162.907 10.4082 162.443 9.50569L171.337 4.93434Z" fill="#281214" mask="url(#path-20-inside-4_161_21)"/>
<path d="M194.047 55.627L164.106 80.9444L159.993 84.0074C157.475 85.8831 153.917 84.7532 152.919 81.7609V81.7609C152.452 80.3605 152.533 78.8258 153.144 77.475L154.174 75.1995" stroke="#281214" stroke-width="4" stroke-linecap="round"/>
<path d="M105.504 49.1072L115.623 72.8222L117.511 76.869C118.778 79.5844 122.344 80.1882 124.473 78.0476V78.0476C125.393 77.1221 125.784 75.7913 125.508 74.5214L124.907 71.7539" stroke="#281214" stroke-width="4" stroke-linecap="round"/>
<path d="M107.845 83.3088C107.283 90.6244 108.951 93.0064 111.252 93.1915C113.553 93.3767 115.616 91.2949 116.177 83.9793C116.739 76.6637 115.029 74.3727 112.728 74.1875C110.427 74.0024 108.406 75.9932 107.845 83.3088Z" fill="#281214"/>
<ellipse cx="2.78893" cy="2.85011" rx="2.78893" ry="2.85011" transform="matrix(-0.977553 0.210688 0.201334 0.979523 115.786 74.6301)" fill="white"/>
<path d="M160.86 90.9836C160.353 98.3034 162.039 100.672 164.341 100.839C166.643 101.006 168.69 98.9085 169.197 91.5887C169.704 84.2689 167.977 81.9914 165.675 81.8243C163.373 81.6572 161.367 83.6638 160.86 90.9836Z" fill="#281214"/>
<ellipse cx="2.79328" cy="2.84585" rx="2.79328" ry="2.84585" transform="matrix(-0.942655 -0.333769 -0.319925 0.947443 167.891 83.8479)" fill="white"/>
</svg>
