<svg width="401" height="408" viewBox="0 0 401 408" fill="none" xmlns="http://www.w3.org/2000/svg">
<rect x="154" y="368.671" width="54.6883" height="54.6883" rx="9.11472" transform="rotate(-45 154 368.671)" fill="#AF3FFF"/>
<mask id="mask0_163_218" style="mask-type:alpha" maskUnits="userSpaceOnUse" x="167" y="343" width="51" height="51">
<path d="M167.581 343.581H217.712V393.712H167.581V343.581Z" fill="#D9D9D9"/>
</mask>
<g mask="url(#mask0_163_218)">
<path d="M193.877 386.592C193.153 387.156 192.139 387.156 191.415 386.592L175.909 374.532C174.868 373.723 174.878 372.147 175.929 371.351L176.068 371.246C176.791 370.698 177.791 370.704 178.508 371.259L191.417 381.271C192.14 381.831 193.152 381.831 193.875 381.271L206.784 371.259C207.501 370.704 208.501 370.698 209.224 371.246L209.363 371.351C210.414 372.147 210.424 373.723 209.383 374.532L193.877 386.592ZM193.877 376.044C193.153 376.607 192.139 376.607 191.415 376.044L175.882 363.963C174.85 363.16 174.85 361.6 175.882 360.797L191.415 348.716C192.139 348.153 193.153 348.153 193.877 348.716L209.41 360.797C210.442 361.6 210.442 363.16 209.41 363.963L193.877 376.044ZM191.419 370.725C192.141 371.285 193.151 371.285 193.873 370.725L202.608 363.966C203.645 363.163 203.645 361.597 202.608 360.794L193.873 354.035C193.151 353.476 192.141 353.476 191.419 354.035L182.685 360.794C181.647 361.597 181.647 363.163 182.685 363.966L191.419 370.725Z" fill="#F8F8F8"/>
</g>
<rect x="323" y="200.67" width="54.6883" height="54.6883" rx="9.11472" transform="rotate(-45 323 200.67)" fill="#FF406E"/>
<mask id="mask1_163_218" style="mask-type:alpha" maskUnits="userSpaceOnUse" x="338" y="177" width="47" height="47">
<path d="M338.859 177.86H384.433V223.433H338.859V177.86Z" fill="#D9D9D9"/>
</mask>
<g mask="url(#mask1_163_218)">
<path d="M365.444 217.736C364.906 217.736 364.455 217.554 364.092 217.19C363.727 216.826 363.545 216.376 363.545 215.838C363.545 215.3 363.727 214.849 364.092 214.486C364.455 214.121 364.906 213.939 365.444 213.939C366.932 213.939 368.253 213.646 369.407 213.061C370.563 212.475 371.141 211.818 371.141 211.09C371.141 210.647 370.935 210.236 370.524 209.856C370.369 209.714 370.193 209.575 369.994 209.442C369.46 209.084 369.307 208.32 369.761 207.865L371.115 206.512C371.409 206.217 371.869 206.156 372.211 206.394C372.95 206.908 373.558 207.493 374.037 208.147C374.638 208.97 374.939 209.951 374.939 211.09C374.939 213.179 373.942 214.809 371.948 215.98C369.954 217.151 367.786 217.736 365.444 217.736ZM348.045 202.712C347.752 203.005 347.294 203.068 346.953 202.831C346.31 202.384 345.78 201.885 345.363 201.334C344.825 200.622 344.556 199.76 344.556 198.747C344.556 197.418 345.047 196.302 346.028 195.4C347.009 194.498 348.765 193.494 351.297 192.386C353.291 191.468 354.565 190.827 355.118 190.463C355.672 190.099 355.95 189.696 355.95 189.253C355.95 188.747 355.641 188.304 355.023 187.924C354.406 187.544 353.449 187.354 352.152 187.354C351.361 187.354 350.696 187.449 350.158 187.639C349.62 187.829 349.129 188.145 348.686 188.588C348.338 188.936 347.911 189.142 347.405 189.206C346.898 189.269 346.439 189.126 346.028 188.778C345.616 188.462 345.379 188.05 345.316 187.544C345.252 187.038 345.395 186.579 345.743 186.167C346.344 185.439 347.207 184.822 348.331 184.316C349.454 183.809 350.728 183.556 352.152 183.556C354.43 183.556 356.266 184.07 357.659 185.098C359.051 186.127 359.747 187.512 359.747 189.253C359.747 190.487 359.288 191.595 358.371 192.576C357.453 193.557 355.601 194.649 352.816 195.852C350.981 196.643 349.778 197.228 349.208 197.608C348.639 197.988 348.354 198.368 348.354 198.747C348.354 199.032 348.536 199.31 348.899 199.579C348.978 199.638 349.064 199.696 349.156 199.753C349.71 200.101 349.881 200.876 349.418 201.339L348.045 202.712ZM350.253 213.027C350.253 213.531 350.661 213.939 351.164 213.939H352.532C352.775 213.939 353.008 213.842 353.179 213.67L373.186 193.528C373.54 193.172 373.539 192.596 373.183 192.241L371.814 190.872C371.457 190.515 370.878 190.516 370.523 190.874L350.518 211.014C350.348 211.184 350.253 211.415 350.253 211.656V213.027ZM347.367 217.736C346.863 217.736 346.455 217.328 346.455 216.825V210.042C346.455 209.801 346.55 209.57 346.72 209.399L369.878 186.11C370.59 185.394 371.747 185.393 372.46 186.106L377.952 191.598C378.663 192.309 378.664 193.46 377.956 194.173L354.793 217.468C354.622 217.64 354.389 217.736 354.146 217.736H347.367Z" fill="#F8F8F8"/>
</g>
<rect y="198.67" width="54.6883" height="54.6883" rx="9.11472" transform="rotate(-45 0 198.67)" fill="#11D4B1"/>
<mask id="mask2_163_218" style="mask-type:alpha" maskUnits="userSpaceOnUse" x="18" y="178" width="42" height="42">
<path d="M18.1384 178.138H59.1547V219.155H18.1384V178.138Z" fill="#D9D9D9"/>
</mask>
<g mask="url(#mask2_163_218)">
<path d="M28.5086 195.729L31.8412 197.139C32.24 196.342 32.653 195.573 33.0802 194.832C33.5075 194.091 33.9775 193.351 34.4902 192.61L32.0976 192.14L28.5086 195.729ZM34.5756 199.275L39.4463 204.103C40.6426 203.648 41.9244 202.95 43.2916 202.01C44.6588 201.07 45.9405 200.002 47.1368 198.805C49.1307 196.812 50.6904 194.597 51.8161 192.162C52.9406 189.727 53.4317 187.483 53.2893 185.432C51.2385 185.29 48.9883 185.781 46.5387 186.906C44.0891 188.031 41.8674 189.591 39.8735 191.585C38.6772 192.781 37.6091 194.063 36.6692 195.43C35.7292 196.797 35.0314 198.079 34.5756 199.275ZM42.9925 210.213L46.5814 206.624L46.1114 204.232C45.3709 204.744 44.6303 205.207 43.8897 205.619C43.1491 206.033 42.3801 206.439 41.5826 206.838L42.9925 210.213ZM55.0477 182.149C55.8359 182.222 56.4571 182.843 56.5302 183.631C56.8068 186.616 56.4175 189.531 55.3623 192.374C54.1512 195.636 52.0645 198.748 49.1022 201.711L49.9567 205.941C50.0706 206.51 50.0422 207.066 49.8713 207.607C49.7004 208.148 49.4155 208.618 49.0167 209.017L43.1743 214.859C42.5352 215.498 41.4527 215.289 41.0982 214.457L38.25 207.778L31.1186 200.646C31.0033 200.531 30.8669 200.439 30.7168 200.375L24.2587 197.621C23.4289 197.267 23.2182 196.188 23.8542 195.548L29.6622 189.705C30.061 189.306 30.5384 189.021 31.0944 188.85C31.6492 188.68 32.2115 188.651 32.7812 188.765L37.011 189.619C39.9732 186.657 43.0779 184.564 46.3251 183.339C49.1568 182.271 52.0644 181.874 55.0477 182.149ZM25.5606 205.898C26.5575 204.901 27.7749 204.395 29.2127 204.38C30.6517 204.367 31.8697 204.858 32.8666 205.855C33.8635 206.852 34.3546 208.069 34.3398 209.507C34.3261 210.946 33.8208 212.164 32.8239 213.161C32.1118 213.873 30.9229 214.486 29.2572 214.998C27.822 215.44 25.9172 215.839 23.5428 216.196C22.947 216.285 22.4362 215.775 22.5258 215.179C22.8828 212.804 23.282 210.9 23.7234 209.464C24.2361 207.799 24.8485 206.61 25.5606 205.898ZM27.9959 208.29C27.7111 208.575 27.4263 209.095 27.1414 209.851C26.8566 210.605 26.6572 211.367 26.5433 212.136C27.3123 212.022 28.0745 211.83 28.8299 211.56C29.5842 211.289 30.1037 211.011 30.3885 210.726C30.7303 210.384 30.9155 209.971 30.944 209.487C30.9725 209.002 30.8158 208.589 30.474 208.248C30.1322 207.906 29.7192 207.742 29.235 207.755C28.7507 207.77 28.3377 207.949 27.9959 208.29Z" fill="#F8F8F8"/>
</g>
<rect x="37.8262" y="194.217" width="6.72666" height="6.72666" rx="3.36333" fill="#F8F8F8"/>
<rect x="44.5527" y="188.803" width="5.41414" height="5.41414" rx="2.70707" fill="#F8F8F8"/>
<rect x="41" y="90.5" width="54.4472" height="54.4472" rx="9.07454" transform="rotate(-45 41 90.5)" fill="#D41153"/>
<path d="M101.63 84.3823C101.63 85.3367 100.924 86.1439 99.9784 86.2709L98.0139 86.5348C97.9599 86.6788 97.888 86.8227 97.798 86.9666C97.7081 87.1106 97.6181 87.2455 97.5281 87.3714L98.2993 89.1902C98.6755 90.0775 98.33 91.1061 97.4943 91.5863L94.4563 93.3322C93.6215 93.8119 92.56 93.5935 91.9823 92.8233L90.8081 91.2577C90.7182 91.2757 90.6372 91.2847 90.5652 91.2847H90.0795C90.0075 91.2847 89.9265 91.2757 89.8366 91.2577L88.6644 92.8206C88.0858 93.592 87.0222 93.8097 86.1871 93.3276L83.1686 91.5851C82.337 91.105 81.9925 90.0811 82.3648 89.1959L83.1436 87.3445C83.0356 87.2185 82.941 87.0879 82.8596 86.9526C82.779 86.818 82.7118 86.6788 82.6578 86.5348L80.6682 86.2695C79.7215 86.1433 79.0144 85.3357 79.0144 84.3806V80.9165C79.0144 79.9614 79.7215 79.1538 80.6682 79.0276L82.6578 78.7623C82.7118 78.6184 82.779 78.4744 82.8596 78.3305C82.941 78.1865 83.0356 78.0516 83.1436 77.9257L82.3711 76.1039C81.9954 75.2178 82.3394 74.1907 83.1728 73.7096L86.1871 71.9695C87.0222 71.4874 88.0858 71.7051 88.6644 72.4765L89.8366 74.0394H90.5652C90.6372 74.0394 90.7182 74.0484 90.8081 74.0664L91.9789 72.5054C92.558 71.7332 93.6232 71.516 94.4585 71.9998L97.4979 73.7602C98.3316 74.2431 98.6738 75.2723 98.2951 76.1582L97.5281 77.9527C97.6181 78.0786 97.7081 78.2089 97.798 78.3434C97.888 78.4787 97.9599 78.6184 98.0139 78.7623L99.9784 79.0262C100.924 79.1532 101.63 79.9605 101.63 80.9149V84.3823ZM98.7696 83.5661V81.7849L95.9358 81.3801C95.7919 80.8224 95.5807 80.2916 95.3022 79.7878C95.0229 79.2841 94.6674 78.8343 94.2356 78.4384L95.3421 75.7666L93.7768 74.903L92.0496 77.17C91.7797 77.08 91.5008 77.0128 91.213 76.9681C90.9251 76.9228 90.6282 76.9001 90.3224 76.9001C90.0165 76.9001 89.7196 76.9228 89.4318 76.9681C89.1439 77.0128 88.865 77.08 88.5951 77.17L86.8679 74.876L85.3026 75.7666L86.4361 78.4114C86.0043 78.8073 85.6398 79.2571 85.3425 79.7608C85.046 80.2646 84.8348 80.8044 84.7089 81.3801L81.8751 81.731V83.5392L84.6819 83.89C84.8258 84.4837 85.0417 85.0325 85.3296 85.5363C85.6175 86.04 85.9773 86.4988 86.4091 86.9127L85.3026 89.5305L86.8679 90.4211L88.5681 88.1541C88.856 88.2441 89.1392 88.3113 89.4177 88.356C89.697 88.4013 89.9985 88.424 90.3224 88.424C90.6282 88.424 90.9251 88.4013 91.213 88.356C91.5008 88.3113 91.7887 88.2441 92.0766 88.1541L93.7768 90.4211L95.3421 89.5305L94.2086 86.9127C94.6404 86.4988 95.0046 86.0354 95.3011 85.5222C95.5983 85.0098 95.8189 84.4657 95.9628 83.89L98.7696 83.5661Z" fill="#F8F8F8"/>
<path d="M73.388 79.33L70.0154 79.33C67.0632 79.33 64.4887 81.3365 63.7676 84.1993L60.1405 98.5993C59.8208 99.8687 60.0317 101.214 60.7246 102.324V102.324C62.0005 104.369 64.6007 105.152 66.798 104.161V104.161C67.8835 103.672 68.754 102.797 69.2354 101.708L70.252 99.4082C70.8621 98.028 72.2289 97.1378 73.7379 97.1378L82.5551 97.1378C83.8501 97.1378 85.0228 97.9027 85.5448 99.0878L86.6876 101.683C87.3594 103.208 88.7828 104.29 90.4289 104.55V104.55C91.8121 104.768 93.2401 104.375 94.3077 103.469V103.469C95.6725 102.311 96.2807 100.49 95.8859 98.7434L95.3484 96.3664" stroke="#F8F8F8" stroke-width="3.62982" stroke-linecap="round"/>
<rect width="54.6883" height="54.6883" rx="9.11472" transform="matrix(-0.707107 -0.707107 -0.707107 0.707107 361.341 90.6707)" fill="#35E792"/>
<mask id="mask3_163_218" style="mask-type:alpha" maskUnits="userSpaceOnUse" x="298" y="66" width="49" height="49">
<path d="M346.666 66.6748H298.814V114.527H346.666V66.6748Z" fill="#D9D9D9"/>
</mask>
<g mask="url(#mask3_163_218)">
<path d="M321.7 97.9347C322.298 98.5327 323.268 98.5327 323.866 97.9347L330.159 91.6411C330.757 91.0431 330.757 90.0736 330.159 89.4756L323.866 83.182C323.268 82.584 322.298 82.584 321.7 83.182L315.407 89.4756C314.809 90.0736 314.809 91.0431 315.407 91.6411L321.7 97.9347ZM323.324 92.8367C323.025 93.1357 322.541 93.1357 322.242 92.8367L320.505 91.0997C320.206 90.8007 320.206 90.316 320.505 90.017L322.242 88.28C322.541 87.981 323.025 87.981 323.324 88.28L325.061 90.017C325.36 90.316 325.36 90.8007 325.061 91.0997L323.324 92.8367ZM313.03 107.028C313.628 107.626 314.597 107.626 315.195 107.028L317.073 105.15L319.575 107.653C320.468 108.546 321.537 108.992 322.782 108.992C324.028 108.992 325.097 108.546 325.99 107.653L328.493 105.15L330.371 107.028C330.969 107.626 331.938 107.626 332.536 107.028L333.332 106.233C333.93 105.635 333.93 104.666 333.332 104.068L331.454 102.19L334.414 99.229L336.292 101.107C336.89 101.705 337.86 101.705 338.458 101.107L339.253 100.312C339.851 99.7138 339.851 98.7442 339.253 98.1462L337.375 96.2683L339.877 93.7658C340.77 92.8729 341.217 91.8033 341.217 90.5569C341.217 89.3125 340.77 88.2438 339.877 87.3509L337.375 84.8484L339.253 82.9705C339.851 82.3725 339.851 81.4029 339.253 80.8049L338.458 80.0098C337.86 79.4118 336.89 79.4118 336.292 80.0098L334.414 81.8877L331.454 78.927L333.332 77.0491C333.93 76.4511 333.93 75.4815 333.332 74.8835L332.536 74.0884C331.938 73.4904 330.969 73.4904 330.371 74.0884L328.493 75.9663L325.99 73.4638C325.097 72.5709 324.028 72.1239 322.783 72.123C321.538 72.1239 320.468 72.5709 319.575 73.4638L317.073 75.9663L315.195 74.0884C314.597 73.4904 313.628 73.4904 313.03 74.0884L312.234 74.8835C311.636 75.4815 311.636 76.4511 312.234 77.0491L314.112 78.927L311.152 81.8877L309.274 80.0098C308.676 79.4118 307.706 79.4118 307.108 80.0098L306.313 80.8049C305.715 81.4029 305.715 82.3725 306.313 82.9705L308.191 84.8484L305.688 87.3509C304.795 88.2438 304.349 89.313 304.348 90.5583C304.349 91.8037 304.795 92.8729 305.688 93.7658L308.191 96.2683L306.313 98.1462C305.715 98.7442 305.715 99.7138 306.313 100.312L307.108 101.107C307.706 101.705 308.676 101.705 309.274 101.107L311.152 99.229L314.112 102.19L312.234 104.068C311.636 104.666 311.636 105.635 312.234 106.233L313.03 107.028ZM309.979 91.6411C309.381 91.0431 309.381 90.0736 309.979 89.4756L321.7 77.754C322.298 77.156 323.268 77.156 323.866 77.754L335.587 89.4756C336.185 90.0736 336.185 91.0431 335.587 91.6411L323.866 103.363C323.268 103.961 322.298 103.961 321.7 103.363L309.979 91.6411Z" fill="#F8F8F8"/>
</g>
<rect x="284" y="320.671" width="54.6883" height="54.6883" rx="9.11472" transform="rotate(-45 284 320.671)" fill="#1E6CFF"/>
<mask id="mask4_163_218" style="mask-type:alpha" maskUnits="userSpaceOnUse" x="298" y="296" width="49" height="49">
<rect x="298.675" y="296.675" width="47.8523" height="47.8523" fill="#D9D9D9"/>
</mask>
<g mask="url(#mask4_163_218)">
<path d="M312.632 338.546C309.874 338.546 307.523 337.574 305.58 335.631C303.635 333.686 302.663 331.334 302.663 328.576C302.663 326.15 303.419 324.032 304.932 322.22C306.075 320.851 307.441 319.866 309.032 319.266C309.84 318.961 310.638 319.615 310.638 320.479V321.967C310.638 322.551 310.258 323.056 309.744 323.334C308.976 323.75 308.318 324.334 307.771 325.087C307.024 326.117 306.65 327.28 306.65 328.576C306.65 330.238 307.232 331.65 308.395 332.813C309.558 333.976 310.97 334.558 312.632 334.558C314.293 334.558 315.706 333.976 316.869 332.813C318.032 331.65 318.613 330.238 318.613 328.576V328.405C318.613 327.399 319.43 326.582 320.436 326.582H330.327C330.593 326.283 330.917 326.042 331.3 325.859C331.682 325.677 332.105 325.586 332.57 325.586C333.401 325.586 334.107 325.877 334.688 326.459C335.27 327.04 335.561 327.746 335.561 328.576C335.561 329.407 335.27 330.113 334.688 330.694C334.107 331.276 333.401 331.567 332.57 331.567C332.105 331.567 331.682 331.476 331.3 331.294C330.917 331.11 330.593 330.869 330.327 330.57H322.402C321.936 332.863 320.799 334.766 318.988 336.279C317.176 337.79 315.058 338.546 312.632 338.546ZM332.57 338.546C330.709 338.546 329.023 338.088 327.512 337.174C326.701 336.685 325.984 336.112 325.36 335.455C324.634 334.693 325.263 333.561 326.316 333.561H328.842C329.127 333.561 329.402 333.655 329.648 333.8C330.013 334.015 330.405 334.185 330.826 334.309C331.391 334.475 331.972 334.558 332.57 334.558C334.232 334.558 335.644 333.976 336.807 332.813C337.97 331.65 338.552 330.238 338.552 328.576C338.552 326.915 337.97 325.502 336.807 324.339C335.644 323.176 334.232 322.595 332.57 322.595C331.906 322.595 331.291 322.686 330.726 322.868C329.805 323.167 328.701 322.976 328.202 322.146L323.05 313.573C322.352 313.44 321.77 313.107 321.305 312.576C320.84 312.044 320.607 311.396 320.607 310.632C320.607 309.801 320.898 309.095 321.48 308.514C322.061 307.932 322.767 307.641 323.598 307.641C324.429 307.641 325.135 307.932 325.715 308.514C326.298 309.095 326.589 309.801 326.589 310.632V311.056C326.589 311.172 326.555 311.313 326.489 311.479L330.826 318.757C331.091 318.69 331.374 318.648 331.673 318.631C331.972 318.615 332.271 318.607 332.57 318.607C335.328 318.607 337.68 319.579 339.624 321.522C341.568 323.467 342.539 325.818 342.539 328.576C342.539 331.334 341.568 333.686 339.624 335.631C337.68 337.574 335.328 338.546 332.57 338.546ZM312.632 331.567C311.801 331.567 311.095 331.276 310.514 330.694C309.932 330.113 309.641 329.407 309.641 328.576C309.641 327.845 309.874 327.214 310.339 326.682C310.804 326.15 311.369 325.802 312.034 325.635L316.719 317.859C315.756 316.962 315 315.89 314.452 314.643C313.903 313.398 313.629 312.061 313.629 310.632C313.629 307.874 314.601 305.523 316.546 303.579C318.489 301.635 320.84 300.662 323.598 300.662C326.356 300.662 328.708 301.635 330.652 303.579C332.267 305.194 333.211 307.09 333.484 309.268C333.578 310.017 332.955 310.632 332.2 310.632H330.947C330.192 310.632 329.599 310.012 329.438 309.274C329.202 308.187 328.667 307.227 327.835 306.395C326.672 305.232 325.26 304.65 323.598 304.65C321.936 304.65 320.524 305.232 319.361 306.395C318.198 307.558 317.616 308.97 317.616 310.632C317.616 312.061 318.048 313.315 318.912 314.394C319.223 314.783 319.564 315.12 319.934 315.408C320.916 316.169 321.544 317.561 320.905 318.626L315.473 327.679C315.54 327.845 315.581 327.995 315.599 328.128C315.615 328.261 315.623 328.41 315.623 328.576C315.623 329.407 315.331 330.113 314.749 330.694C314.168 331.276 313.463 331.567 312.632 331.567Z" fill="#F8F8F8"/>
</g>
<rect x="154" y="38.6704" width="54.6883" height="54.6883" rx="9.1147" transform="rotate(-45 154 38.6704)" fill="#05A3FF"/>
<mask id="path-22-outside-1_163_218" maskUnits="userSpaceOnUse" x="167.219" y="30.719" width="51" height="16" fill="black">
<rect fill="white" x="167.219" y="30.719" width="51" height="16"/>
<path d="M179.733 31.719C180.165 31.719 180.521 31.8599 180.803 32.1418C181.085 32.4236 181.226 32.7884 181.226 33.236V43.7557C181.226 44.1868 181.085 44.5516 180.803 44.85C180.521 45.1318 180.165 45.2728 179.733 45.2728C179.302 45.2728 178.946 45.1318 178.664 44.85C178.382 44.5516 178.241 44.1868 178.241 43.7557V42.5371L178.788 42.761C178.788 42.9765 178.672 43.2418 178.44 43.5568C178.208 43.8552 177.893 44.1536 177.495 44.4521C177.097 44.7505 176.625 45.0075 176.078 45.223C175.547 45.422 174.967 45.5215 174.337 45.5215C173.193 45.5215 172.157 45.2313 171.228 44.651C170.3 44.0542 169.562 43.2418 169.015 42.2138C168.484 41.1693 168.219 39.9756 168.219 38.6327C168.219 37.2731 168.484 36.0794 169.015 35.0515C169.562 34.007 170.291 33.1946 171.203 32.6143C172.115 32.0174 173.127 31.719 174.237 31.719C174.95 31.719 175.605 31.8268 176.202 32.0423C176.799 32.2578 177.313 32.5314 177.744 32.863C178.192 33.1946 178.531 33.5345 178.764 33.8826C179.012 34.2142 179.137 34.4961 179.137 34.7282L178.241 35.0515V33.236C178.241 32.805 178.382 32.4485 178.664 32.1666C178.946 31.8682 179.302 31.719 179.733 31.719ZM174.71 42.7858C175.439 42.7858 176.078 42.6035 176.625 42.2387C177.172 41.874 177.595 41.3766 177.893 40.7466C178.208 40.1165 178.366 39.4119 178.366 38.6327C178.366 37.8368 178.208 37.1239 177.893 36.4939C177.595 35.8639 177.172 35.3665 176.625 35.0017C176.078 34.637 175.439 34.4546 174.71 34.4546C173.997 34.4546 173.367 34.637 172.82 35.0017C172.273 35.3665 171.842 35.8639 171.527 36.4939C171.228 37.1239 171.079 37.8368 171.079 38.6327C171.079 39.4119 171.228 40.1165 171.527 40.7466C171.842 41.3766 172.273 41.874 172.82 42.2387C173.367 42.6035 173.997 42.7858 174.71 42.7858Z"/>
<path d="M190.376 31.719C191.321 31.719 192.142 31.8185 192.838 32.0174C193.551 32.2164 194.098 32.4982 194.479 32.863C194.877 33.2112 195.076 33.6339 195.076 34.1313C195.076 34.4629 194.977 34.7779 194.778 35.0764C194.579 35.3582 194.289 35.4991 193.907 35.4991C193.642 35.4991 193.418 35.466 193.236 35.3997C193.07 35.3168 192.921 35.2173 192.788 35.1012C192.655 34.9852 192.498 34.8774 192.316 34.7779C192.15 34.6784 191.893 34.6038 191.545 34.5541C191.213 34.4878 190.964 34.4546 190.799 34.4546C189.953 34.4546 189.232 34.637 188.635 35.0017C188.055 35.3665 187.607 35.8639 187.292 36.4939C186.977 37.1073 186.819 37.8203 186.819 38.6327C186.819 39.4285 186.977 40.1414 187.292 40.7714C187.624 41.3849 188.071 41.874 188.635 42.2387C189.215 42.6035 189.878 42.7858 190.624 42.7858C191.039 42.7858 191.395 42.761 191.694 42.7112C191.992 42.6615 192.241 42.5869 192.44 42.4874C192.672 42.3548 192.879 42.2138 193.062 42.0646C193.244 41.9154 193.518 41.8408 193.882 41.8408C194.313 41.8408 194.645 41.9817 194.877 42.2636C195.109 42.5289 195.225 42.8604 195.225 43.2584C195.225 43.6728 194.993 44.0542 194.529 44.4023C194.065 44.7339 193.451 45.0075 192.689 45.223C191.943 45.422 191.13 45.5215 190.251 45.5215C188.942 45.5215 187.806 45.223 186.844 44.6262C185.883 44.0127 185.137 43.1837 184.606 42.1392C184.092 41.0947 183.835 39.9259 183.835 38.6327C183.835 37.2731 184.109 36.0794 184.656 35.0515C185.22 34.007 185.991 33.1946 186.969 32.6143C187.963 32.0174 189.099 31.719 190.376 31.719Z"/>
<path d="M204.366 31.719C205.692 31.719 206.67 32.0423 207.3 32.6889C207.93 33.3189 208.345 34.1396 208.544 35.151L208.121 34.9271L208.32 34.5292C208.519 34.1479 208.825 33.7417 209.24 33.3106C209.654 32.863 210.152 32.4899 210.732 32.1915C211.329 31.8765 211.992 31.719 212.722 31.719C213.915 31.719 214.819 31.976 215.432 32.4899C216.062 33.0039 216.493 33.692 216.726 34.5541C216.958 35.3997 217.074 36.3447 217.074 37.3892V43.7557C217.074 44.1868 216.933 44.5516 216.651 44.85C216.369 45.1318 216.013 45.2728 215.582 45.2728C215.151 45.2728 214.794 45.1318 214.512 44.85C214.23 44.5516 214.089 44.1868 214.089 43.7557V37.3892C214.089 36.8421 214.023 36.353 213.89 35.9219C213.758 35.4743 213.517 35.1178 213.169 34.8525C212.821 34.5873 212.324 34.4546 211.677 34.4546C211.047 34.4546 210.508 34.5873 210.061 34.8525C209.613 35.1178 209.273 35.4743 209.041 35.9219C208.825 36.353 208.718 36.8421 208.718 37.3892V43.7557C208.718 44.1868 208.577 44.5516 208.295 44.85C208.013 45.1318 207.657 45.2728 207.226 45.2728C206.794 45.2728 206.438 45.1318 206.156 44.85C205.874 44.5516 205.733 44.1868 205.733 43.7557V37.3892C205.733 36.8421 205.667 36.353 205.534 35.9219C205.402 35.4743 205.161 35.1178 204.813 34.8525C204.465 34.5873 203.968 34.4546 203.321 34.4546C202.691 34.4546 202.152 34.5873 201.705 34.8525C201.257 35.1178 200.917 35.4743 200.685 35.9219C200.469 36.353 200.362 36.8421 200.362 37.3892V43.7557C200.362 44.1868 200.221 44.5516 199.939 44.85C199.657 45.1318 199.301 45.2728 198.869 45.2728C198.438 45.2728 198.082 45.1318 197.8 44.85C197.518 44.5516 197.377 44.1868 197.377 43.7557V33.4847C197.377 33.0536 197.518 32.6972 197.8 32.4153C198.082 32.1169 198.438 31.9677 198.869 31.9677C199.301 31.9677 199.657 32.1169 199.939 32.4153C200.221 32.6972 200.362 33.0536 200.362 33.4847V34.5541L199.989 34.4795C200.138 34.1976 200.345 33.8992 200.61 33.5842C200.876 33.2526 201.199 32.9459 201.58 32.664C201.962 32.3822 202.384 32.1584 202.849 31.9926C203.313 31.8102 203.818 31.719 204.366 31.719Z"/>
</mask>
<path d="M179.733 31.719C180.165 31.719 180.521 31.8599 180.803 32.1418C181.085 32.4236 181.226 32.7884 181.226 33.236V43.7557C181.226 44.1868 181.085 44.5516 180.803 44.85C180.521 45.1318 180.165 45.2728 179.733 45.2728C179.302 45.2728 178.946 45.1318 178.664 44.85C178.382 44.5516 178.241 44.1868 178.241 43.7557V42.5371L178.788 42.761C178.788 42.9765 178.672 43.2418 178.44 43.5568C178.208 43.8552 177.893 44.1536 177.495 44.4521C177.097 44.7505 176.625 45.0075 176.078 45.223C175.547 45.422 174.967 45.5215 174.337 45.5215C173.193 45.5215 172.157 45.2313 171.228 44.651C170.3 44.0542 169.562 43.2418 169.015 42.2138C168.484 41.1693 168.219 39.9756 168.219 38.6327C168.219 37.2731 168.484 36.0794 169.015 35.0515C169.562 34.007 170.291 33.1946 171.203 32.6143C172.115 32.0174 173.127 31.719 174.237 31.719C174.95 31.719 175.605 31.8268 176.202 32.0423C176.799 32.2578 177.313 32.5314 177.744 32.863C178.192 33.1946 178.531 33.5345 178.764 33.8826C179.012 34.2142 179.137 34.4961 179.137 34.7282L178.241 35.0515V33.236C178.241 32.805 178.382 32.4485 178.664 32.1666C178.946 31.8682 179.302 31.719 179.733 31.719ZM174.71 42.7858C175.439 42.7858 176.078 42.6035 176.625 42.2387C177.172 41.874 177.595 41.3766 177.893 40.7466C178.208 40.1165 178.366 39.4119 178.366 38.6327C178.366 37.8368 178.208 37.1239 177.893 36.4939C177.595 35.8639 177.172 35.3665 176.625 35.0017C176.078 34.637 175.439 34.4546 174.71 34.4546C173.997 34.4546 173.367 34.637 172.82 35.0017C172.273 35.3665 171.842 35.8639 171.527 36.4939C171.228 37.1239 171.079 37.8368 171.079 38.6327C171.079 39.4119 171.228 40.1165 171.527 40.7466C171.842 41.3766 172.273 41.874 172.82 42.2387C173.367 42.6035 173.997 42.7858 174.71 42.7858Z" fill="white"/>
<path d="M190.376 31.719C191.321 31.719 192.142 31.8185 192.838 32.0174C193.551 32.2164 194.098 32.4982 194.479 32.863C194.877 33.2112 195.076 33.6339 195.076 34.1313C195.076 34.4629 194.977 34.7779 194.778 35.0764C194.579 35.3582 194.289 35.4991 193.907 35.4991C193.642 35.4991 193.418 35.466 193.236 35.3997C193.07 35.3168 192.921 35.2173 192.788 35.1012C192.655 34.9852 192.498 34.8774 192.316 34.7779C192.15 34.6784 191.893 34.6038 191.545 34.5541C191.213 34.4878 190.964 34.4546 190.799 34.4546C189.953 34.4546 189.232 34.637 188.635 35.0017C188.055 35.3665 187.607 35.8639 187.292 36.4939C186.977 37.1073 186.819 37.8203 186.819 38.6327C186.819 39.4285 186.977 40.1414 187.292 40.7714C187.624 41.3849 188.071 41.874 188.635 42.2387C189.215 42.6035 189.878 42.7858 190.624 42.7858C191.039 42.7858 191.395 42.761 191.694 42.7112C191.992 42.6615 192.241 42.5869 192.44 42.4874C192.672 42.3548 192.879 42.2138 193.062 42.0646C193.244 41.9154 193.518 41.8408 193.882 41.8408C194.313 41.8408 194.645 41.9817 194.877 42.2636C195.109 42.5289 195.225 42.8604 195.225 43.2584C195.225 43.6728 194.993 44.0542 194.529 44.4023C194.065 44.7339 193.451 45.0075 192.689 45.223C191.943 45.422 191.13 45.5215 190.251 45.5215C188.942 45.5215 187.806 45.223 186.844 44.6262C185.883 44.0127 185.137 43.1837 184.606 42.1392C184.092 41.0947 183.835 39.9259 183.835 38.6327C183.835 37.2731 184.109 36.0794 184.656 35.0515C185.22 34.007 185.991 33.1946 186.969 32.6143C187.963 32.0174 189.099 31.719 190.376 31.719Z" fill="white"/>
<path d="M204.366 31.719C205.692 31.719 206.67 32.0423 207.3 32.6889C207.93 33.3189 208.345 34.1396 208.544 35.151L208.121 34.9271L208.32 34.5292C208.519 34.1479 208.825 33.7417 209.24 33.3106C209.654 32.863 210.152 32.4899 210.732 32.1915C211.329 31.8765 211.992 31.719 212.722 31.719C213.915 31.719 214.819 31.976 215.432 32.4899C216.062 33.0039 216.493 33.692 216.726 34.5541C216.958 35.3997 217.074 36.3447 217.074 37.3892V43.7557C217.074 44.1868 216.933 44.5516 216.651 44.85C216.369 45.1318 216.013 45.2728 215.582 45.2728C215.151 45.2728 214.794 45.1318 214.512 44.85C214.23 44.5516 214.089 44.1868 214.089 43.7557V37.3892C214.089 36.8421 214.023 36.353 213.89 35.9219C213.758 35.4743 213.517 35.1178 213.169 34.8525C212.821 34.5873 212.324 34.4546 211.677 34.4546C211.047 34.4546 210.508 34.5873 210.061 34.8525C209.613 35.1178 209.273 35.4743 209.041 35.9219C208.825 36.353 208.718 36.8421 208.718 37.3892V43.7557C208.718 44.1868 208.577 44.5516 208.295 44.85C208.013 45.1318 207.657 45.2728 207.226 45.2728C206.794 45.2728 206.438 45.1318 206.156 44.85C205.874 44.5516 205.733 44.1868 205.733 43.7557V37.3892C205.733 36.8421 205.667 36.353 205.534 35.9219C205.402 35.4743 205.161 35.1178 204.813 34.8525C204.465 34.5873 203.968 34.4546 203.321 34.4546C202.691 34.4546 202.152 34.5873 201.705 34.8525C201.257 35.1178 200.917 35.4743 200.685 35.9219C200.469 36.353 200.362 36.8421 200.362 37.3892V43.7557C200.362 44.1868 200.221 44.5516 199.939 44.85C199.657 45.1318 199.301 45.2728 198.869 45.2728C198.438 45.2728 198.082 45.1318 197.8 44.85C197.518 44.5516 197.377 44.1868 197.377 43.7557V33.4847C197.377 33.0536 197.518 32.6972 197.8 32.4153C198.082 32.1169 198.438 31.9677 198.869 31.9677C199.301 31.9677 199.657 32.1169 199.939 32.4153C200.221 32.6972 200.362 33.0536 200.362 33.4847V34.5541L199.989 34.4795C200.138 34.1976 200.345 33.8992 200.61 33.5842C200.876 33.2526 201.199 32.9459 201.58 32.664C201.962 32.3822 202.384 32.1584 202.849 31.9926C203.313 31.8102 203.818 31.719 204.366 31.719Z" fill="white"/>
<path d="M179.733 31.719C180.165 31.719 180.521 31.8599 180.803 32.1418C181.085 32.4236 181.226 32.7884 181.226 33.236V43.7557C181.226 44.1868 181.085 44.5516 180.803 44.85C180.521 45.1318 180.165 45.2728 179.733 45.2728C179.302 45.2728 178.946 45.1318 178.664 44.85C178.382 44.5516 178.241 44.1868 178.241 43.7557V42.5371L178.788 42.761C178.788 42.9765 178.672 43.2418 178.44 43.5568C178.208 43.8552 177.893 44.1536 177.495 44.4521C177.097 44.7505 176.625 45.0075 176.078 45.223C175.547 45.422 174.967 45.5215 174.337 45.5215C173.193 45.5215 172.157 45.2313 171.228 44.651C170.3 44.0542 169.562 43.2418 169.015 42.2138C168.484 41.1693 168.219 39.9756 168.219 38.6327C168.219 37.2731 168.484 36.0794 169.015 35.0515C169.562 34.007 170.291 33.1946 171.203 32.6143C172.115 32.0174 173.127 31.719 174.237 31.719C174.95 31.719 175.605 31.8268 176.202 32.0423C176.799 32.2578 177.313 32.5314 177.744 32.863C178.192 33.1946 178.531 33.5345 178.764 33.8826C179.012 34.2142 179.137 34.4961 179.137 34.7282L178.241 35.0515V33.236C178.241 32.805 178.382 32.4485 178.664 32.1666C178.946 31.8682 179.302 31.719 179.733 31.719ZM174.71 42.7858C175.439 42.7858 176.078 42.6035 176.625 42.2387C177.172 41.874 177.595 41.3766 177.893 40.7466C178.208 40.1165 178.366 39.4119 178.366 38.6327C178.366 37.8368 178.208 37.1239 177.893 36.4939C177.595 35.8639 177.172 35.3665 176.625 35.0017C176.078 34.637 175.439 34.4546 174.71 34.4546C173.997 34.4546 173.367 34.637 172.82 35.0017C172.273 35.3665 171.842 35.8639 171.527 36.4939C171.228 37.1239 171.079 37.8368 171.079 38.6327C171.079 39.4119 171.228 40.1165 171.527 40.7466C171.842 41.3766 172.273 41.874 172.82 42.2387C173.367 42.6035 173.997 42.7858 174.71 42.7858Z" stroke="white" stroke-width="0.729176" mask="url(#path-22-outside-1_163_218)"/>
<path d="M190.376 31.719C191.321 31.719 192.142 31.8185 192.838 32.0174C193.551 32.2164 194.098 32.4982 194.479 32.863C194.877 33.2112 195.076 33.6339 195.076 34.1313C195.076 34.4629 194.977 34.7779 194.778 35.0764C194.579 35.3582 194.289 35.4991 193.907 35.4991C193.642 35.4991 193.418 35.466 193.236 35.3997C193.07 35.3168 192.921 35.2173 192.788 35.1012C192.655 34.9852 192.498 34.8774 192.316 34.7779C192.15 34.6784 191.893 34.6038 191.545 34.5541C191.213 34.4878 190.964 34.4546 190.799 34.4546C189.953 34.4546 189.232 34.637 188.635 35.0017C188.055 35.3665 187.607 35.8639 187.292 36.4939C186.977 37.1073 186.819 37.8203 186.819 38.6327C186.819 39.4285 186.977 40.1414 187.292 40.7714C187.624 41.3849 188.071 41.874 188.635 42.2387C189.215 42.6035 189.878 42.7858 190.624 42.7858C191.039 42.7858 191.395 42.761 191.694 42.7112C191.992 42.6615 192.241 42.5869 192.44 42.4874C192.672 42.3548 192.879 42.2138 193.062 42.0646C193.244 41.9154 193.518 41.8408 193.882 41.8408C194.313 41.8408 194.645 41.9817 194.877 42.2636C195.109 42.5289 195.225 42.8604 195.225 43.2584C195.225 43.6728 194.993 44.0542 194.529 44.4023C194.065 44.7339 193.451 45.0075 192.689 45.223C191.943 45.422 191.13 45.5215 190.251 45.5215C188.942 45.5215 187.806 45.223 186.844 44.6262C185.883 44.0127 185.137 43.1837 184.606 42.1392C184.092 41.0947 183.835 39.9259 183.835 38.6327C183.835 37.2731 184.109 36.0794 184.656 35.0515C185.22 34.007 185.991 33.1946 186.969 32.6143C187.963 32.0174 189.099 31.719 190.376 31.719Z" stroke="white" stroke-width="0.729176" mask="url(#path-22-outside-1_163_218)"/>
<path d="M204.366 31.719C205.692 31.719 206.67 32.0423 207.3 32.6889C207.93 33.3189 208.345 34.1396 208.544 35.151L208.121 34.9271L208.32 34.5292C208.519 34.1479 208.825 33.7417 209.24 33.3106C209.654 32.863 210.152 32.4899 210.732 32.1915C211.329 31.8765 211.992 31.719 212.722 31.719C213.915 31.719 214.819 31.976 215.432 32.4899C216.062 33.0039 216.493 33.692 216.726 34.5541C216.958 35.3997 217.074 36.3447 217.074 37.3892V43.7557C217.074 44.1868 216.933 44.5516 216.651 44.85C216.369 45.1318 216.013 45.2728 215.582 45.2728C215.151 45.2728 214.794 45.1318 214.512 44.85C214.23 44.5516 214.089 44.1868 214.089 43.7557V37.3892C214.089 36.8421 214.023 36.353 213.89 35.9219C213.758 35.4743 213.517 35.1178 213.169 34.8525C212.821 34.5873 212.324 34.4546 211.677 34.4546C211.047 34.4546 210.508 34.5873 210.061 34.8525C209.613 35.1178 209.273 35.4743 209.041 35.9219C208.825 36.353 208.718 36.8421 208.718 37.3892V43.7557C208.718 44.1868 208.577 44.5516 208.295 44.85C208.013 45.1318 207.657 45.2728 207.226 45.2728C206.794 45.2728 206.438 45.1318 206.156 44.85C205.874 44.5516 205.733 44.1868 205.733 43.7557V37.3892C205.733 36.8421 205.667 36.353 205.534 35.9219C205.402 35.4743 205.161 35.1178 204.813 34.8525C204.465 34.5873 203.968 34.4546 203.321 34.4546C202.691 34.4546 202.152 34.5873 201.705 34.8525C201.257 35.1178 200.917 35.4743 200.685 35.9219C200.469 36.353 200.362 36.8421 200.362 37.3892V43.7557C200.362 44.1868 200.221 44.5516 199.939 44.85C199.657 45.1318 199.301 45.2728 198.869 45.2728C198.438 45.2728 198.082 45.1318 197.8 44.85C197.518 44.5516 197.377 44.1868 197.377 43.7557V33.4847C197.377 33.0536 197.518 32.6972 197.8 32.4153C198.082 32.1169 198.438 31.9677 198.869 31.9677C199.301 31.9677 199.657 32.1169 199.939 32.4153C200.221 32.6972 200.362 33.0536 200.362 33.4847V34.5541L199.989 34.4795C200.138 34.1976 200.345 33.8992 200.61 33.5842C200.876 33.2526 201.199 32.9459 201.58 32.664C201.962 32.3822 202.384 32.1584 202.849 31.9926C203.313 31.8102 203.818 31.719 204.366 31.719Z" stroke="white" stroke-width="0.729176" mask="url(#path-22-outside-1_163_218)"/>
<path d="M44.3527 332.023C39.7396 327.41 39.7396 319.93 44.3527 315.317L66.3173 293.353C70.9304 288.74 78.4096 288.74 83.0227 293.353L104.987 315.317C109.6 319.93 109.6 327.41 104.987 332.023L83.0227 353.987C78.4096 358.6 70.9304 358.6 66.3173 353.987L44.3527 332.023Z" fill="#D41153"/>
<path fill-rule="evenodd" clip-rule="evenodd" d="M74.7188 342.313C84.9879 342.313 93.3126 333.988 93.3126 323.719C93.3126 313.45 84.9879 305.125 74.7188 305.125C64.4497 305.125 56.125 313.45 56.125 323.719C56.125 333.988 64.4497 342.313 74.7188 342.313ZM74.7188 344.063C85.9544 344.063 95.0626 334.955 95.0626 323.719C95.0626 312.483 85.9544 303.375 74.7188 303.375C63.4832 303.375 54.375 312.483 54.375 323.719C54.375 334.955 63.4832 344.063 74.7188 344.063Z" fill="#F8F8F8"/>
<path opacity="0.3" d="M84.5734 321.842C85.1137 322.382 85.9898 322.382 86.5302 321.842C87.0705 321.301 87.0705 320.425 86.5302 319.885C85.9898 319.345 85.1137 319.345 84.5734 319.885C84.033 320.425 84.033 321.301 84.5734 321.842Z" fill="#F8F8F8"/>
<path opacity="0.3" d="M65.984 316.95C66.5244 317.49 67.4004 317.49 67.9408 316.95C68.4812 316.409 68.4812 315.533 67.9408 314.993C67.4004 314.453 66.5244 314.453 65.984 314.993C65.4437 315.533 65.4437 316.409 65.984 316.95Z" fill="#F8F8F8"/>
<path opacity="0.3" d="M70.8563 335.559C71.3967 336.099 72.2728 336.099 72.8131 335.559C73.3535 335.019 73.3535 334.143 72.8131 333.602C72.2728 333.062 71.3967 333.062 70.8563 333.602C70.316 334.143 70.316 335.019 70.8563 335.559Z" fill="#F8F8F8"/>
<path d="M74.7112 331.704C73.9676 330.96 73.0087 330.589 72.0401 330.54L69.1245 319.503C69.3985 319.327 69.6626 319.141 69.8974 318.907C70.1323 318.672 70.3182 318.408 70.4943 318.134L81.4132 321.01C81.4523 322.028 81.8437 323.026 82.6166 323.799C84.2408 325.423 86.8629 325.423 88.487 323.799C90.1111 322.174 90.1111 319.552 88.487 317.928C86.8629 316.304 84.2408 316.304 82.6166 317.928C82.3818 318.163 82.1959 318.427 82.0198 318.701L71.1009 315.825C71.0617 314.807 70.6704 313.809 69.8974 313.036C68.2733 311.412 65.6512 311.412 64.0271 313.036C62.4029 314.66 62.4029 317.282 64.0271 318.907C64.8 319.679 65.798 320.071 66.8155 320.11L69.7115 331.146C69.4572 331.303 69.2126 331.489 68.9973 331.704C67.4221 333.279 67.4221 335.843 68.9973 337.418C70.5725 338.993 73.1359 338.993 74.7112 337.418C76.2864 335.843 76.2864 333.279 74.7112 331.704ZM86.5302 319.885C87.0683 320.423 87.0683 321.304 86.5302 321.842C85.9921 322.38 85.1115 322.38 84.5734 321.842C84.0353 321.304 84.0353 320.423 84.5734 319.885C85.1115 319.347 85.9921 319.347 86.5302 319.885ZM65.9839 316.95C65.4457 316.412 65.4457 315.531 65.9839 314.993C66.522 314.455 67.4025 314.455 67.9406 314.993C68.4788 315.531 68.4788 316.412 67.9406 316.95C67.4025 317.488 66.522 317.488 65.9839 316.95ZM70.8563 335.559C70.3182 335.021 70.3182 334.14 70.8563 333.602C71.3944 333.064 72.275 333.064 72.8131 333.602C73.3512 334.14 73.3512 335.021 72.8131 335.559C72.275 336.097 71.3944 336.097 70.8563 335.559Z" fill="#F8F8F8"/>
<path d="M125.175 275.5L133.7 252.158L101.516 266.993C100.379 267.517 99.2013 267.949 97.9945 268.283L67.3368 276.776C66.896 276.899 66.812 277.487 67.2011 277.728C67.5026 277.914 67.8476 278.019 68.2019 278.031L99.0419 279.094C102.288 279.206 105.537 278.977 108.735 278.41L125.175 275.5Z" fill="#B89061" stroke="#281214" stroke-width="5"/>
<mask id="path-30-inside-2_163_218" fill="white">
<path fill-rule="evenodd" clip-rule="evenodd" d="M105.157 189.69C107.597 186.725 111.518 185.418 115.249 186.327C120.16 187.522 124.056 191.255 125.462 196.11L127.488 203.108H130.788C134.318 203.108 137.74 201.894 140.481 199.67L147.434 194.028L184.075 207.595L253.408 196.378L249.436 204.575C252.32 203.172 255.651 202.861 258.792 203.763C264.274 205.338 268.478 209.752 269.782 215.305L270.245 217.274C270.502 218.366 270.632 219.485 270.632 220.607V224.769C270.632 232.17 268.035 239.337 263.295 245.021L261.831 246.777C258.966 250.212 254.857 252.372 250.403 252.783C245.17 253.267 239.926 251.987 235.504 249.148L229.658 245.394L208.526 289.008C207.52 291.084 206.072 292.841 204.336 294.196C204.043 298.75 201.867 302.997 198.303 305.897L189.934 312.707C184.114 317.443 177.007 320.323 169.533 320.974L166.129 321.27C162.383 321.597 158.709 320.095 156.263 317.238C154.569 315.258 153.889 312.605 154.421 310.055L154.458 309.88C155.649 304.173 159.081 299.184 163.984 296.031L169.772 292.308L166.491 289.77C163.331 292.74 159.939 295.456 156.346 297.894L150.105 302.129C146.282 304.723 141.146 304.179 137.95 300.843C134.843 297.599 133.931 292.833 135.622 288.671L137.095 285.043H132.243C131.115 285.043 129.997 284.849 128.935 284.47L128.799 284.421C122.95 282.331 119.552 276.233 120.852 270.159L121.582 266.746C122.853 260.803 125.563 255.263 129.472 250.609L142.013 235.685C142.411 235.211 141.974 234.505 141.372 234.649L133.572 236.523C128.828 237.663 123.893 237.754 119.11 236.791L115.766 236.117H113.442C107.719 236.117 102.559 232.675 100.36 227.392C98.2671 222.362 97.1895 216.968 97.1895 211.52V209.406C97.1895 202.917 99.4442 196.63 103.568 191.62L105.157 189.69Z"/>
</mask>
<path fill-rule="evenodd" clip-rule="evenodd" d="M105.157 189.69C107.597 186.725 111.518 185.418 115.249 186.327C120.16 187.522 124.056 191.255 125.462 196.11L127.488 203.108H130.788C134.318 203.108 137.74 201.894 140.481 199.67L147.434 194.028L184.075 207.595L253.408 196.378L249.436 204.575C252.32 203.172 255.651 202.861 258.792 203.763C264.274 205.338 268.478 209.752 269.782 215.305L270.245 217.274C270.502 218.366 270.632 219.485 270.632 220.607V224.769C270.632 232.17 268.035 239.337 263.295 245.021L261.831 246.777C258.966 250.212 254.857 252.372 250.403 252.783C245.17 253.267 239.926 251.987 235.504 249.148L229.658 245.394L208.526 289.008C207.52 291.084 206.072 292.841 204.336 294.196C204.043 298.75 201.867 302.997 198.303 305.897L189.934 312.707C184.114 317.443 177.007 320.323 169.533 320.974L166.129 321.27C162.383 321.597 158.709 320.095 156.263 317.238C154.569 315.258 153.889 312.605 154.421 310.055L154.458 309.88C155.649 304.173 159.081 299.184 163.984 296.031L169.772 292.308L166.491 289.77C163.331 292.74 159.939 295.456 156.346 297.894L150.105 302.129C146.282 304.723 141.146 304.179 137.95 300.843C134.843 297.599 133.931 292.833 135.622 288.671L137.095 285.043H132.243C131.115 285.043 129.997 284.849 128.935 284.47L128.799 284.421C122.95 282.331 119.552 276.233 120.852 270.159L121.582 266.746C122.853 260.803 125.563 255.263 129.472 250.609L142.013 235.685C142.411 235.211 141.974 234.505 141.372 234.649L133.572 236.523C128.828 237.663 123.893 237.754 119.11 236.791L115.766 236.117H113.442C107.719 236.117 102.559 232.675 100.36 227.392C98.2671 222.362 97.1895 216.968 97.1895 211.52V209.406C97.1895 202.917 99.4442 196.63 103.568 191.62L105.157 189.69Z" fill="#B89061"/>
<path d="M115.249 186.327L116.431 181.469V181.469L115.249 186.327ZM105.157 189.69L109.017 192.867L109.017 192.867L105.157 189.69ZM125.462 196.11L120.659 197.5V197.5L125.462 196.11ZM127.488 203.108V208.108H123.73L122.685 204.499L127.488 203.108ZM140.481 199.67L143.631 203.553L143.631 203.553L140.481 199.67ZM147.434 194.028L144.283 190.146L146.497 188.35L149.17 189.339L147.434 194.028ZM184.075 207.595L184.873 212.531L183.574 212.741L182.339 212.284L184.075 207.595ZM253.408 196.378L252.609 191.443L262.099 189.907L257.908 198.559L253.408 196.378ZM249.436 204.575L251.624 209.071L238.641 215.389L244.937 202.395L249.436 204.575ZM258.792 203.763L260.172 198.957L260.172 198.957L258.792 203.763ZM269.782 215.305L274.65 214.161L269.782 215.305ZM270.245 217.274L265.378 218.418L270.245 217.274ZM263.295 245.021L267.135 248.223L267.135 248.223L263.295 245.021ZM261.831 246.777L257.991 243.574L261.831 246.777ZM250.403 252.783L249.943 247.804H249.943L250.403 252.783ZM235.504 249.148L238.206 244.94L235.504 249.148ZM229.658 245.394L225.159 243.213L227.617 238.14L232.36 241.186L229.658 245.394ZM208.526 289.008L204.026 286.828L208.526 289.008ZM204.336 294.196L199.347 293.875L199.491 291.636L201.259 290.256L204.336 294.196ZM198.303 305.897L195.147 302.019L198.303 305.897ZM189.934 312.707L193.09 316.585L189.934 312.707ZM169.533 320.974L169.099 315.993H169.099L169.533 320.974ZM166.129 321.27L166.563 326.251H166.563L166.129 321.27ZM156.263 317.238L160.062 313.986L160.062 313.986L156.263 317.238ZM154.421 310.055L159.316 311.077L159.316 311.077L154.421 310.055ZM154.458 309.88L149.563 308.858L149.563 308.858L154.458 309.88ZM163.984 296.031L161.279 291.825L163.984 296.031ZM169.772 292.308L172.831 288.354L178.43 292.685L172.476 296.514L169.772 292.308ZM166.491 289.77L163.067 286.127L166.175 283.205L169.55 285.815L166.491 289.77ZM156.346 297.894L153.539 293.757L156.346 297.894ZM150.105 302.129L152.912 306.267L150.105 302.129ZM137.95 300.843L141.561 297.385L137.95 300.843ZM135.622 288.671L140.254 290.552V290.552L135.622 288.671ZM137.095 285.043V280.043H144.522L141.727 286.924L137.095 285.043ZM128.935 284.47L127.253 289.178L127.253 289.178L128.935 284.47ZM128.799 284.421L130.482 279.712L130.482 279.713L128.799 284.421ZM120.852 270.159L115.962 269.113V269.113L120.852 270.159ZM121.582 266.746L126.471 267.793V267.793L121.582 266.746ZM129.472 250.609L133.3 253.826L129.472 250.609ZM142.013 235.685L145.841 238.901L145.841 238.901L142.013 235.685ZM141.372 234.649L140.204 229.787H140.204L141.372 234.649ZM133.572 236.523L132.404 231.662V231.662L133.572 236.523ZM119.11 236.791L120.098 231.889L119.11 236.791ZM115.766 236.117V231.117H116.265L116.753 231.216L115.766 236.117ZM100.36 227.392L104.976 225.471V225.471L100.36 227.392ZM103.568 191.62L99.7074 188.443V188.443L103.568 191.62ZM114.066 191.185C112.2 190.73 110.238 191.384 109.017 192.867L101.296 186.512C104.955 182.066 110.836 180.107 116.431 181.469L114.066 191.185ZM120.659 197.5C119.752 194.366 117.236 191.957 114.066 191.185L116.431 181.469C123.084 183.088 128.361 188.143 130.265 194.72L120.659 197.5ZM122.685 204.499L120.659 197.5L130.265 194.72L132.291 201.718L122.685 204.499ZM130.788 208.108H127.488V198.108H130.788V208.108ZM143.631 203.553C139.999 206.5 135.465 208.108 130.788 208.108V198.108C133.17 198.108 135.48 197.289 137.33 195.788L143.631 203.553ZM150.584 197.911L143.631 203.553L137.33 195.788L144.283 190.146L150.584 197.911ZM182.339 212.284L145.698 198.717L149.17 189.339L185.811 202.906L182.339 212.284ZM254.206 201.314L184.873 212.531L183.276 202.659L252.609 191.443L254.206 201.314ZM244.937 202.395L248.908 194.198L257.908 198.559L253.936 206.755L244.937 202.395ZM257.412 208.569C255.469 208.011 253.408 208.203 251.624 209.071L247.249 200.079C251.231 198.141 255.832 197.711 260.172 198.957L257.412 208.569ZM264.915 216.448C264.024 212.657 261.154 209.644 257.412 208.569L260.172 198.957C267.394 201.032 272.931 206.846 274.65 214.161L264.915 216.448ZM265.378 218.418L264.915 216.448L274.65 214.161L275.113 216.13L265.378 218.418ZM265.632 220.607C265.632 219.87 265.546 219.135 265.378 218.418L275.113 216.13C275.457 217.598 275.632 219.1 275.632 220.607H265.632ZM265.632 224.769V220.607H275.632V224.769H265.632ZM259.455 241.818C263.446 237.033 265.632 231 265.632 224.769H275.632C275.632 233.341 272.625 241.64 267.135 248.223L259.455 241.818ZM257.991 243.574L259.455 241.818L267.135 248.223L265.671 249.979L257.991 243.574ZM249.943 247.804C253.079 247.515 255.973 245.994 257.991 243.574L265.671 249.979C261.959 254.43 256.634 257.229 250.863 257.762L249.943 247.804ZM238.206 244.94C241.689 247.177 245.821 248.185 249.943 247.804L250.863 257.762C244.52 258.348 238.163 256.797 232.803 253.355L238.206 244.94ZM232.36 241.186L238.206 244.94L232.803 253.355L226.957 249.601L232.36 241.186ZM204.026 286.828L225.159 243.213L234.158 247.574L213.025 291.188L204.026 286.828ZM201.259 290.256C202.405 289.361 203.36 288.202 204.026 286.828L213.025 291.188C211.679 293.966 209.74 296.321 207.414 298.137L201.259 290.256ZM195.147 302.019C197.628 300 199.142 297.044 199.347 293.875L209.326 294.518C208.943 300.456 206.106 305.994 201.459 309.775L195.147 302.019ZM186.778 308.829L195.147 302.019L201.459 309.775L193.09 316.585L186.778 308.829ZM169.099 315.993C175.576 315.428 181.735 312.933 186.778 308.829L193.09 316.585C186.494 321.953 178.439 325.217 169.967 325.955L169.099 315.993ZM165.695 316.289L169.099 315.993L169.967 325.955L166.563 326.251L165.695 316.289ZM160.062 313.986C161.458 315.618 163.556 316.476 165.696 316.289L166.563 326.251C161.209 326.718 155.959 324.572 152.464 320.489L160.062 313.986ZM159.316 311.077C159.1 312.11 159.376 313.185 160.062 313.986L152.464 320.489C149.763 317.332 148.678 313.101 149.527 309.034L159.316 311.077ZM159.353 310.901L159.316 311.077L149.527 309.034L149.563 308.858L159.353 310.901ZM166.689 300.236C162.913 302.664 160.27 306.507 159.353 310.901L149.563 308.858C151.028 301.84 155.249 295.703 161.279 291.825L166.689 300.236ZM172.476 296.514L166.689 300.236L161.279 291.825L167.067 288.103L172.476 296.514ZM169.55 285.815L172.831 288.354L166.712 296.263L163.431 293.725L169.55 285.815ZM153.539 293.757C156.913 291.467 160.099 288.915 163.067 286.127L169.915 293.414C166.563 296.564 162.965 299.446 159.154 302.032L153.539 293.757ZM147.298 297.992L153.539 293.757L159.154 302.032L152.912 306.267L147.298 297.992ZM141.561 297.385C143.069 298.959 145.493 299.216 147.298 297.992L152.912 306.267C147.071 310.23 139.222 309.4 134.34 304.302L141.561 297.385ZM140.254 290.552C139.305 292.888 139.817 295.564 141.561 297.385L134.34 304.302C129.869 299.635 128.557 292.777 130.989 286.789L140.254 290.552ZM141.727 286.924L140.254 290.552L130.989 286.789L132.462 283.161L141.727 286.924ZM132.243 280.043H137.095V290.043H132.243V280.043ZM130.618 279.761C131.139 279.947 131.689 280.043 132.243 280.043V290.043C130.542 290.043 128.854 289.75 127.253 289.178L130.618 279.761ZM130.482 279.713L130.618 279.761L127.253 289.178L127.117 289.129L130.482 279.713ZM125.741 271.205C124.966 274.829 126.993 278.466 130.482 279.712L127.117 289.129C118.908 286.196 114.138 277.638 115.962 269.113L125.741 271.205ZM126.471 267.793L125.741 271.205L115.962 269.113L116.693 265.7L126.471 267.793ZM133.3 253.826C129.917 257.853 127.572 262.649 126.471 267.793L116.693 265.7C118.135 258.958 121.209 252.672 125.644 247.393L133.3 253.826ZM145.841 238.901L133.3 253.826L125.644 247.393L138.185 232.468L145.841 238.901ZM140.204 229.787C145.496 228.516 149.342 234.735 145.841 238.901L138.185 232.468C135.48 235.688 138.452 240.493 142.54 239.511L140.204 229.787ZM132.404 231.662L140.204 229.787L142.54 239.511L134.74 241.385L132.404 231.662ZM120.098 231.889C124.168 232.709 128.367 232.632 132.404 231.662L134.74 241.385C129.289 242.695 123.618 242.8 118.123 241.692L120.098 231.889ZM116.753 231.216L120.098 231.889L118.123 241.692L114.778 241.019L116.753 231.216ZM113.442 231.117H115.766V241.117H113.442V231.117ZM104.976 225.471C106.399 228.89 109.739 231.117 113.442 231.117V241.117C105.7 241.117 98.7184 236.46 95.744 229.313L104.976 225.471ZM102.189 211.52C102.189 216.309 103.137 221.05 104.976 225.471L95.744 229.313C93.3975 223.675 92.1895 217.628 92.1895 211.52H102.189ZM102.189 209.406V211.52H92.1895V209.406H102.189ZM107.428 194.797C104.041 198.913 102.189 204.077 102.189 209.406H92.1895C92.1895 201.758 94.847 194.348 99.7074 188.443L107.428 194.797ZM109.017 192.867L107.428 194.798L99.7074 188.443L101.296 186.512L109.017 192.867Z" fill="#281214" mask="url(#path-30-inside-2_163_218)"/>
<path d="M114.81 187.433C111.348 186.59 107.708 187.803 105.443 190.555L104.204 192.061C99.7128 197.517 97.5759 204.535 98.2637 211.568L98.5892 214.896C98.8257 217.314 99.2612 219.709 99.891 222.056L100.971 226.08C102.667 232.398 108.993 236.3 115.4 234.98L125.712 204.429L124.624 197.977C123.753 192.817 119.894 188.671 114.81 187.433Z" fill="#5D3A2C"/>
<path d="M268.482 216.24C267.034 210.451 262.35 206.034 256.486 204.927C253.329 204.331 250.064 204.952 247.346 206.664L240.465 211L226.088 241L234.485 246.827C237.977 249.25 242.034 250.735 246.265 251.14C251.921 251.68 257.495 249.488 261.267 245.239L261.674 244.78C266.535 239.305 269.22 232.238 269.22 224.916V220.825C269.22 219.74 269.087 218.659 268.823 217.606L268.482 216.24Z" fill="#5D3A2C"/>
<path d="M201.737 292.238L194.863 293.195C189.745 293.907 184.552 293.884 179.44 293.127L173.434 292.238L165.036 297.563C161.299 299.933 158.405 303.481 156.811 307.609C155.596 310.754 156.414 314.357 158.894 316.642C161.428 318.976 164.883 320.037 168.291 319.528L171.831 318.999C178.627 317.984 185.03 315.175 190.379 310.861L195.119 307.038C198.318 304.458 200.435 300.775 201.055 296.713L201.737 292.238Z" fill="#5D3A2C"/>
<path d="M166.139 275.379C164.715 272.729 162.18 270.856 159.229 270.271C158.042 270.036 156.813 270.115 155.666 270.501L154.441 270.912C149.223 272.665 144.861 276.329 142.234 281.166L137.186 290.462C135.275 293.979 135.985 298.344 138.912 301.075C141.3 303.304 144.88 303.674 147.673 301.979L153.886 298.212C158.189 295.602 161.9 292.121 164.779 287.993C166.414 285.648 167.291 282.859 167.291 280V279.457C167.291 278.185 166.975 276.934 166.373 275.814L166.139 275.379Z" fill="#5D3A2C"/>
<mask id="path-36-inside-3_163_218" fill="white">
<path fill-rule="evenodd" clip-rule="evenodd" d="M105.157 189.69C107.597 186.725 111.518 185.418 115.249 186.327C120.16 187.522 124.056 191.255 125.462 196.11L127.488 203.108H130.788C134.318 203.108 137.74 201.894 140.481 199.67L147.434 194.028L184.075 207.595L253.408 196.378L249.436 204.575C252.32 203.172 255.651 202.861 258.792 203.763C264.274 205.338 268.478 209.752 269.782 215.305L270.245 217.274C270.502 218.366 270.632 219.485 270.632 220.607V224.769C270.632 232.17 268.035 239.337 263.295 245.021L261.831 246.777C258.966 250.212 254.857 252.372 250.403 252.783C245.17 253.267 239.926 251.987 235.504 249.148L229.658 245.394L208.526 289.008C207.52 291.084 206.072 292.841 204.336 294.196C204.043 298.75 201.867 302.997 198.303 305.897L189.934 312.707C184.114 317.443 177.007 320.323 169.533 320.974L166.129 321.27C162.383 321.597 158.709 320.095 156.263 317.238C154.569 315.258 153.889 312.605 154.421 310.055L154.458 309.88C155.649 304.173 159.081 299.184 163.984 296.031L169.772 292.308L166.491 289.77C163.331 292.74 159.939 295.456 156.346 297.894L150.105 302.129C146.282 304.723 141.146 304.179 137.95 300.843C134.843 297.599 133.931 292.833 135.622 288.671L137.095 285.043H132.243C131.115 285.043 129.997 284.849 128.935 284.47L128.799 284.421C122.95 282.331 119.552 276.233 120.852 270.159L121.582 266.746C122.853 260.803 125.563 255.263 129.472 250.609L142.013 235.685C142.411 235.211 141.974 234.505 141.372 234.649L133.572 236.523C128.828 237.663 123.893 237.754 119.11 236.791L115.766 236.117H113.442C107.719 236.117 102.559 232.675 100.36 227.392C98.2671 222.362 97.1895 216.968 97.1895 211.52V209.406C97.1895 202.917 99.4442 196.63 103.568 191.62L105.157 189.69Z"/>
</mask>
<path d="M115.249 186.327L116.431 181.469V181.469L115.249 186.327ZM105.157 189.69L109.017 192.867L109.017 192.867L105.157 189.69ZM125.462 196.11L120.659 197.5V197.5L125.462 196.11ZM127.488 203.108V208.108H123.73L122.685 204.499L127.488 203.108ZM140.481 199.67L143.631 203.553L143.631 203.553L140.481 199.67ZM147.434 194.028L144.283 190.146L146.497 188.35L149.17 189.339L147.434 194.028ZM184.075 207.595L184.873 212.531L183.574 212.741L182.339 212.284L184.075 207.595ZM253.408 196.378L252.609 191.443L262.099 189.907L257.908 198.559L253.408 196.378ZM249.436 204.575L251.624 209.071L238.641 215.389L244.937 202.395L249.436 204.575ZM258.792 203.763L260.172 198.957L260.172 198.957L258.792 203.763ZM269.782 215.305L274.65 214.161L269.782 215.305ZM270.245 217.274L265.378 218.418L270.245 217.274ZM263.295 245.021L267.135 248.223L267.135 248.223L263.295 245.021ZM261.831 246.777L257.991 243.574L261.831 246.777ZM250.403 252.783L249.943 247.804H249.943L250.403 252.783ZM235.504 249.148L238.206 244.94L235.504 249.148ZM229.658 245.394L225.159 243.213L227.617 238.14L232.36 241.186L229.658 245.394ZM208.526 289.008L204.026 286.828L208.526 289.008ZM204.336 294.196L199.347 293.875L199.491 291.636L201.259 290.256L204.336 294.196ZM198.303 305.897L195.147 302.019L198.303 305.897ZM189.934 312.707L193.09 316.585L189.934 312.707ZM169.533 320.974L169.099 315.993H169.099L169.533 320.974ZM166.129 321.27L166.563 326.251H166.563L166.129 321.27ZM156.263 317.238L160.062 313.986L160.062 313.986L156.263 317.238ZM154.421 310.055L159.316 311.077L159.316 311.077L154.421 310.055ZM154.458 309.88L149.563 308.858L149.563 308.858L154.458 309.88ZM163.984 296.031L161.279 291.825L163.984 296.031ZM169.772 292.308L172.831 288.354L178.43 292.685L172.476 296.514L169.772 292.308ZM166.491 289.77L163.067 286.127L166.175 283.205L169.55 285.815L166.491 289.77ZM156.346 297.894L153.539 293.757L156.346 297.894ZM150.105 302.129L152.912 306.267L150.105 302.129ZM137.95 300.843L141.561 297.385L137.95 300.843ZM135.622 288.671L140.254 290.552V290.552L135.622 288.671ZM137.095 285.043V280.043H144.522L141.727 286.924L137.095 285.043ZM128.935 284.47L127.253 289.178L127.253 289.178L128.935 284.47ZM128.799 284.421L130.482 279.712L130.482 279.713L128.799 284.421ZM120.852 270.159L115.962 269.113V269.113L120.852 270.159ZM121.582 266.746L126.471 267.793V267.793L121.582 266.746ZM129.472 250.609L133.3 253.826L129.472 250.609ZM142.013 235.685L145.841 238.901L145.841 238.901L142.013 235.685ZM141.372 234.649L140.204 229.787H140.204L141.372 234.649ZM133.572 236.523L132.404 231.662V231.662L133.572 236.523ZM119.11 236.791L120.098 231.889L119.11 236.791ZM115.766 236.117V231.117H116.265L116.753 231.216L115.766 236.117ZM100.36 227.392L104.976 225.471V225.471L100.36 227.392ZM103.568 191.62L99.7074 188.443V188.443L103.568 191.62ZM114.066 191.185C112.2 190.73 110.238 191.384 109.017 192.867L101.296 186.512C104.955 182.066 110.836 180.107 116.431 181.469L114.066 191.185ZM120.659 197.5C119.752 194.366 117.236 191.957 114.066 191.185L116.431 181.469C123.084 183.088 128.361 188.143 130.265 194.72L120.659 197.5ZM122.685 204.499L120.659 197.5L130.265 194.72L132.291 201.718L122.685 204.499ZM130.788 208.108H127.488V198.108H130.788V208.108ZM143.631 203.553C139.999 206.5 135.465 208.108 130.788 208.108V198.108C133.17 198.108 135.48 197.289 137.33 195.788L143.631 203.553ZM150.584 197.911L143.631 203.553L137.33 195.788L144.283 190.146L150.584 197.911ZM182.339 212.284L145.698 198.717L149.17 189.339L185.811 202.906L182.339 212.284ZM254.206 201.314L184.873 212.531L183.276 202.659L252.609 191.443L254.206 201.314ZM244.937 202.395L248.908 194.198L257.908 198.559L253.936 206.755L244.937 202.395ZM257.412 208.569C255.469 208.011 253.408 208.203 251.624 209.071L247.249 200.079C251.231 198.141 255.832 197.711 260.172 198.957L257.412 208.569ZM264.915 216.448C264.024 212.657 261.154 209.644 257.412 208.569L260.172 198.957C267.394 201.032 272.931 206.846 274.65 214.161L264.915 216.448ZM265.378 218.418L264.915 216.448L274.65 214.161L275.113 216.13L265.378 218.418ZM265.632 220.607C265.632 219.87 265.546 219.135 265.378 218.418L275.113 216.13C275.457 217.598 275.632 219.1 275.632 220.607H265.632ZM265.632 224.769V220.607H275.632V224.769H265.632ZM259.455 241.818C263.446 237.033 265.632 231 265.632 224.769H275.632C275.632 233.341 272.625 241.64 267.135 248.223L259.455 241.818ZM257.991 243.574L259.455 241.818L267.135 248.223L265.671 249.979L257.991 243.574ZM249.943 247.804C253.079 247.515 255.973 245.994 257.991 243.574L265.671 249.979C261.959 254.43 256.634 257.229 250.863 257.762L249.943 247.804ZM238.206 244.94C241.689 247.177 245.821 248.185 249.943 247.804L250.863 257.762C244.52 258.348 238.163 256.797 232.803 253.355L238.206 244.94ZM232.36 241.186L238.206 244.94L232.803 253.355L226.957 249.601L232.36 241.186ZM204.026 286.828L225.159 243.213L234.158 247.574L213.025 291.188L204.026 286.828ZM201.259 290.256C202.405 289.361 203.36 288.202 204.026 286.828L213.025 291.188C211.679 293.966 209.74 296.321 207.414 298.137L201.259 290.256ZM195.147 302.019C197.628 300 199.142 297.044 199.347 293.875L209.326 294.518C208.943 300.456 206.106 305.994 201.459 309.775L195.147 302.019ZM186.778 308.829L195.147 302.019L201.459 309.775L193.09 316.585L186.778 308.829ZM169.099 315.993C175.576 315.428 181.735 312.933 186.778 308.829L193.09 316.585C186.494 321.953 178.439 325.217 169.967 325.955L169.099 315.993ZM165.695 316.289L169.099 315.993L169.967 325.955L166.563 326.251L165.695 316.289ZM160.062 313.986C161.458 315.618 163.556 316.476 165.696 316.289L166.563 326.251C161.209 326.718 155.959 324.572 152.464 320.489L160.062 313.986ZM159.316 311.077C159.1 312.11 159.376 313.185 160.062 313.986L152.464 320.489C149.763 317.332 148.678 313.101 149.527 309.034L159.316 311.077ZM159.353 310.901L159.316 311.077L149.527 309.034L149.563 308.858L159.353 310.901ZM166.689 300.236C162.913 302.664 160.27 306.507 159.353 310.901L149.563 308.858C151.028 301.84 155.249 295.703 161.279 291.825L166.689 300.236ZM172.476 296.514L166.689 300.236L161.279 291.825L167.067 288.103L172.476 296.514ZM169.55 285.815L172.831 288.354L166.712 296.263L163.431 293.725L169.55 285.815ZM153.539 293.757C156.913 291.467 160.099 288.915 163.067 286.127L169.915 293.414C166.563 296.564 162.965 299.446 159.154 302.032L153.539 293.757ZM147.298 297.992L153.539 293.757L159.154 302.032L152.912 306.267L147.298 297.992ZM141.561 297.385C143.069 298.959 145.493 299.216 147.298 297.992L152.912 306.267C147.071 310.23 139.222 309.4 134.34 304.302L141.561 297.385ZM140.254 290.552C139.305 292.888 139.817 295.564 141.561 297.385L134.34 304.302C129.869 299.635 128.557 292.777 130.989 286.789L140.254 290.552ZM141.727 286.924L140.254 290.552L130.989 286.789L132.462 283.161L141.727 286.924ZM132.243 280.043H137.095V290.043H132.243V280.043ZM130.618 279.761C131.139 279.947 131.689 280.043 132.243 280.043V290.043C130.542 290.043 128.854 289.75 127.253 289.178L130.618 279.761ZM130.482 279.713L130.618 279.761L127.253 289.178L127.117 289.129L130.482 279.713ZM125.741 271.205C124.966 274.829 126.993 278.466 130.482 279.712L127.117 289.129C118.908 286.196 114.138 277.638 115.962 269.113L125.741 271.205ZM126.471 267.793L125.741 271.205L115.962 269.113L116.693 265.7L126.471 267.793ZM133.3 253.826C129.917 257.853 127.572 262.649 126.471 267.793L116.693 265.7C118.135 258.958 121.209 252.672 125.644 247.393L133.3 253.826ZM145.841 238.901L133.3 253.826L125.644 247.393L138.185 232.468L145.841 238.901ZM140.204 229.787C145.496 228.516 149.342 234.735 145.841 238.901L138.185 232.468C135.48 235.688 138.452 240.493 142.54 239.511L140.204 229.787ZM132.404 231.662L140.204 229.787L142.54 239.511L134.74 241.385L132.404 231.662ZM120.098 231.889C124.168 232.709 128.367 232.632 132.404 231.662L134.74 241.385C129.289 242.695 123.618 242.8 118.123 241.692L120.098 231.889ZM116.753 231.216L120.098 231.889L118.123 241.692L114.778 241.019L116.753 231.216ZM113.442 231.117H115.766V241.117H113.442V231.117ZM104.976 225.471C106.399 228.89 109.739 231.117 113.442 231.117V241.117C105.7 241.117 98.7184 236.46 95.744 229.313L104.976 225.471ZM102.189 211.52C102.189 216.309 103.137 221.05 104.976 225.471L95.744 229.313C93.3975 223.675 92.1895 217.628 92.1895 211.52H102.189ZM102.189 209.406V211.52H92.1895V209.406H102.189ZM107.428 194.797C104.041 198.913 102.189 204.077 102.189 209.406H92.1895C92.1895 201.758 94.847 194.348 99.7074 188.443L107.428 194.797ZM109.017 192.867L107.428 194.798L99.7074 188.443L101.296 186.512L109.017 192.867Z" fill="#281214" mask="url(#path-36-inside-3_163_218)"/>
<path d="M177.26 267.669L177.847 265.466C179.16 260.546 177.371 255.364 173.312 252.323L172.097 251.413C170.743 250.399 169.141 249.754 167.45 249.541V249.541C160.875 248.715 154.456 252.178 151.541 258.122L150.613 260.014" stroke="#281214" stroke-width="5" stroke-linecap="round"/>
<path d="M166.193 287.965L167.694 286.287C170.12 283.573 172.157 280.551 173.748 277.304L174.22 276.341M137.908 284.626L139.414 282.941C141.836 280.231 143.87 277.214 145.459 273.971L145.935 273.001" stroke="#281214" stroke-width="5" stroke-linecap="round"/>
<path d="M216.378 231.361L251.221 193.664L153.913 208.519C158.054 224.275 168.107 237.867 182.027 246.436C184.11 247.718 186.617 248.118 188.996 247.549L190.977 247.075C194.538 246.222 197.932 244.778 201.016 242.803L208.239 238.178C211.231 236.261 213.966 233.971 216.378 231.361Z" fill="#05A3FF" stroke="#281214" stroke-width="5"/>
<mask id="path-41-inside-4_163_218" fill="white">
<path fill-rule="evenodd" clip-rule="evenodd" d="M226.894 86.22C225.745 83.9853 223.443 82.5803 220.931 82.5803H220.34C216.063 82.5803 211.967 84.3055 208.979 87.3653L208.469 87.8876C205.363 91.0682 203.068 94.9496 201.778 99.204L201.046 101.617C199.438 106.92 200.092 112.652 202.854 117.456L203.052 117.8C198.558 119.36 194.162 121.209 189.893 123.339L180.373 128.088L167.845 135.006C157.068 140.958 148.726 150.508 144.278 161.987L143.809 163.196C141.775 168.445 140.731 174.026 140.731 179.655C140.731 185.044 141.688 190.39 143.556 195.445L143.781 196.054C150.601 214.508 167.763 227.121 187.411 228.121L190.402 228.274C201.523 228.84 212.545 225.936 221.944 219.964L227.292 216.565C229.67 215.054 231.929 213.363 234.049 211.506L249.055 198.362C253.725 194.272 257.671 189.422 260.725 184.017L261.556 182.546C265.782 175.068 268.003 166.624 268.003 158.034V157.507C268.003 153.571 267.623 149.644 266.869 145.781L266.659 144.706L271.89 135.28C275.598 128.598 277.053 120.899 276.039 113.325C275.211 107.136 273.137 101.179 269.942 95.8139L269.568 95.1856L267.017 90.9504C264.108 86.1232 256.884 86.9023 255.072 92.2385L246.815 116.554C241.069 113.557 234.636 112.1 228.153 112.334V91.4232C228.153 89.6134 227.721 87.8297 226.894 86.22Z"/>
</mask>
<path fill-rule="evenodd" clip-rule="evenodd" d="M226.894 86.22C225.745 83.9853 223.443 82.5803 220.931 82.5803H220.34C216.063 82.5803 211.967 84.3055 208.979 87.3653L208.469 87.8876C205.363 91.0682 203.068 94.9496 201.778 99.204L201.046 101.617C199.438 106.92 200.092 112.652 202.854 117.456L203.052 117.8C198.558 119.36 194.162 121.209 189.893 123.339L180.373 128.088L167.845 135.006C157.068 140.958 148.726 150.508 144.278 161.987L143.809 163.196C141.775 168.445 140.731 174.026 140.731 179.655C140.731 185.044 141.688 190.39 143.556 195.445L143.781 196.054C150.601 214.508 167.763 227.121 187.411 228.121L190.402 228.274C201.523 228.84 212.545 225.936 221.944 219.964L227.292 216.565C229.67 215.054 231.929 213.363 234.049 211.506L249.055 198.362C253.725 194.272 257.671 189.422 260.725 184.017L261.556 182.546C265.782 175.068 268.003 166.624 268.003 158.034V157.507C268.003 153.571 267.623 149.644 266.869 145.781L266.659 144.706L271.89 135.28C275.598 128.598 277.053 120.899 276.039 113.325C275.211 107.136 273.137 101.179 269.942 95.8139L269.568 95.1856L267.017 90.9504C264.108 86.1232 256.884 86.9023 255.072 92.2385L246.815 116.554C241.069 113.557 234.636 112.1 228.153 112.334V91.4232C228.153 89.6134 227.721 87.8297 226.894 86.22Z" fill="#B89061"/>
<path d="M226.894 86.22L222.447 88.5057L222.447 88.5057L226.894 86.22ZM208.979 87.3653L205.402 83.8719V83.8719L208.979 87.3653ZM208.469 87.8876L212.046 91.3809V91.381L208.469 87.8876ZM201.778 99.204L206.562 100.655V100.655L201.778 99.204ZM201.046 101.617L205.831 103.068V103.068L201.046 101.617ZM202.854 117.456L198.52 119.948L198.52 119.948L202.854 117.456ZM203.052 117.8L207.387 115.308L210.398 120.544L204.691 122.524L203.052 117.8ZM189.893 123.339L192.125 127.813L189.893 123.339ZM180.373 128.088L177.956 123.711L178.048 123.66L178.141 123.614L180.373 128.088ZM167.845 135.006L165.428 130.629L167.845 135.006ZM144.278 161.987L139.616 160.18V160.18L144.278 161.987ZM143.809 163.196L148.471 165.003L148.471 165.003L143.809 163.196ZM143.556 195.445L148.246 193.712L148.246 193.712L143.556 195.445ZM143.781 196.054L139.091 197.788L139.091 197.788L143.781 196.054ZM187.411 228.121L187.157 233.115H187.157L187.411 228.121ZM190.402 228.274L190.656 223.28H190.656L190.402 228.274ZM221.944 219.964L219.262 215.744L219.262 215.744L221.944 219.964ZM227.292 216.565L229.974 220.785L229.974 220.785L227.292 216.565ZM234.049 211.506L230.754 207.745L230.754 207.745L234.049 211.506ZM249.055 198.362L252.35 202.123L249.055 198.362ZM260.725 184.017L256.372 181.557L260.725 184.017ZM261.556 182.546L265.909 185.006H265.909L261.556 182.546ZM266.869 145.781L261.962 146.74L266.869 145.781ZM266.659 144.706L261.752 145.664L261.402 143.874L262.287 142.28L266.659 144.706ZM271.89 135.28L276.262 137.706L276.262 137.706L271.89 135.28ZM276.039 113.325L271.084 113.989L276.039 113.325ZM269.942 95.8139L274.238 93.2557L274.238 93.2557L269.942 95.8139ZM269.568 95.1856L273.851 92.6055L273.857 92.6164L273.864 92.6274L269.568 95.1856ZM267.017 90.9504L271.299 88.3703V88.3703L267.017 90.9504ZM255.072 92.2385L250.337 90.6309V90.6309L255.072 92.2385ZM246.815 116.554L251.55 118.162L249.674 123.685L244.503 120.987L246.815 116.554ZM228.153 112.334L228.333 117.331L223.153 117.518V112.334H228.153ZM220.931 77.5803C225.317 77.5803 229.335 80.033 231.341 83.9343L222.447 88.5057C222.155 87.9375 221.569 87.5803 220.931 87.5803V77.5803ZM220.34 77.5803H220.931V87.5803H220.34V77.5803ZM205.402 83.8719C209.331 79.8486 214.717 77.5803 220.34 77.5803V87.5803C217.41 87.5803 214.604 88.7623 212.556 90.8586L205.402 83.8719ZM204.892 84.3942L205.402 83.8719L212.556 90.8586L212.046 91.3809L204.892 84.3942ZM196.993 97.7528C198.516 92.7307 201.225 88.1488 204.892 84.3942L212.046 91.381C209.501 93.9876 207.62 97.1685 206.562 100.655L196.993 97.7528ZM196.261 100.166L196.993 97.7528L206.562 100.655L205.831 103.068L196.261 100.166ZM198.52 119.948C195.07 113.948 194.252 106.789 196.261 100.166L205.831 103.068C204.623 107.051 205.114 111.356 207.189 114.964L198.52 119.948ZM198.718 120.293L198.52 119.948L207.189 114.964L207.387 115.308L198.718 120.293ZM204.691 122.524C200.399 124.013 196.202 125.779 192.125 127.813L187.661 118.864C192.122 116.639 196.716 114.707 201.413 113.077L204.691 122.524ZM192.125 127.813L182.605 132.562L178.141 123.614L187.661 118.864L192.125 127.813ZM182.79 132.465L170.262 139.383L165.428 130.629L177.956 123.711L182.79 132.465ZM170.262 139.383C160.512 144.768 152.965 153.408 148.94 163.794L139.616 160.18C144.488 147.607 153.624 137.147 165.428 130.629L170.262 139.383ZM148.94 163.794L148.471 165.003L139.147 161.39L139.616 160.18L148.94 163.794ZM148.471 165.003C146.66 169.676 145.731 174.644 145.731 179.655H135.731C135.731 173.408 136.889 167.215 139.147 161.39L148.471 165.003ZM145.731 179.655C145.731 184.452 146.583 189.212 148.246 193.712L138.866 197.178C136.793 191.569 135.731 185.636 135.731 179.655H145.731ZM148.246 193.712L148.471 194.321L139.091 197.788L138.866 197.178L148.246 193.712ZM148.471 194.321C154.598 210.899 170.015 222.23 187.665 223.128L187.157 233.115C165.511 232.013 146.605 218.118 139.091 197.788L148.471 194.321ZM187.665 223.128L190.656 223.28L190.148 233.267L187.157 233.115L187.665 223.128ZM190.656 223.28C200.742 223.793 210.739 221.16 219.262 215.744L224.625 224.184C214.352 230.712 202.304 233.886 190.148 233.267L190.656 223.28ZM219.262 215.744L224.611 212.345L229.974 220.785L224.625 224.184L219.262 215.744ZM224.611 212.345C226.773 210.971 228.827 209.433 230.754 207.745L237.343 215.267C235.031 217.292 232.568 219.137 229.974 220.785L224.611 212.345ZM230.754 207.745L245.761 194.601L252.35 202.123L237.343 215.267L230.754 207.745ZM245.761 194.601C250.007 190.882 253.595 186.472 256.372 181.557L265.078 186.477C261.747 192.372 257.443 197.662 252.35 202.123L245.761 194.601ZM256.372 181.557L257.203 180.086L265.909 185.006L265.078 186.477L256.372 181.557ZM257.203 180.086C261.005 173.358 263.003 165.762 263.003 158.034H273.003C273.003 167.486 270.559 176.777 265.909 185.006L257.203 180.086ZM263.003 158.034V157.507H273.003V158.034H263.003ZM263.003 157.507C263.003 153.893 262.654 150.287 261.962 146.74L271.776 144.823C272.592 149.002 273.003 153.249 273.003 157.507H263.003ZM261.962 146.74L261.752 145.664L271.566 143.747L271.776 144.823L261.962 146.74ZM276.262 137.706L271.031 147.132L262.287 142.28L267.518 132.853L276.262 137.706ZM280.995 112.662C282.152 121.302 280.492 130.084 276.262 137.706L267.518 132.853C270.704 127.112 271.955 120.497 271.084 113.989L280.995 112.662ZM274.238 93.2557C277.779 99.2015 280.077 105.803 280.995 112.662L271.084 113.989C270.345 108.469 268.495 103.157 265.646 98.372L274.238 93.2557ZM273.864 92.6274L274.238 93.2557L265.646 98.372L265.272 97.7437L273.864 92.6274ZM271.299 88.3703L273.851 92.6055L265.285 97.7657L262.734 93.5305L271.299 88.3703ZM250.337 90.6309C253.517 81.2661 266.196 79.8988 271.299 88.3703L262.734 93.5305C262.021 92.3475 260.25 92.5385 259.806 93.8462L250.337 90.6309ZM242.081 114.946L250.337 90.6309L259.806 93.8462L251.55 118.162L242.081 114.946ZM244.503 120.987C239.524 118.39 233.95 117.128 228.333 117.331L227.972 107.337C235.322 107.072 242.614 108.723 249.128 112.121L244.503 120.987ZM233.153 91.4232V112.334H223.153V91.4232H233.153ZM231.341 83.9343C232.531 86.2511 233.153 88.8184 233.153 91.4232H223.153C223.153 90.4084 222.911 89.4082 222.447 88.5057L231.341 83.9343Z" fill="#281214" mask="url(#path-41-inside-4_163_218)"/>
<path d="M198.631 187.141C198.631 182.461 194.687 178.749 190.015 179.033L184.874 179.345L177.642 178.943C173.397 178.708 169.825 182.086 169.825 186.338V209.729C169.825 210.974 169.919 212.216 170.105 213.447C171.002 219.36 175.317 224.179 181.096 225.72L187.771 227.5L194.808 225.436C199.188 224.151 201.912 219.791 201.147 215.291L199.7 206.785C198.989 202.602 198.631 198.367 198.631 194.125V187.141Z" fill="#8C6748"/>
<path d="M184.291 187.11V187.11C183.363 196.967 184.088 206.911 186.436 216.529L186.795 218" stroke="#281214" stroke-width="4" stroke-linecap="round"/>
<path d="M197.136 181.744C197.144 181.736 197.149 181.73 197.152 181.727C197.152 181.722 197.152 181.713 197.147 181.7C197.143 181.687 197.138 181.679 197.135 181.676C197.131 181.675 197.123 181.673 197.112 181.672L189.879 181H178.609L170.549 181.704C170.537 181.705 170.53 181.706 170.526 181.707C170.523 181.711 170.518 181.719 170.513 181.732C170.509 181.744 170.508 181.754 170.508 181.758C170.511 181.762 170.516 181.767 170.524 181.775L173.044 184.119C175.034 185.971 177.652 187 180.371 187H187.173C189.835 187 192.402 186.013 194.379 184.23L197.136 181.744ZM197.155 181.723C197.155 181.723 197.155 181.723 197.155 181.723L197.155 181.723ZM197.139 181.677C197.14 181.677 197.14 181.677 197.14 181.677C197.14 181.677 197.14 181.677 197.139 181.677C197.139 181.677 197.139 181.677 197.139 181.677Z" fill="#5D3A2C" stroke="#281214" stroke-width="4"/>
<path d="M268.014 95.832L266.655 93.5541C263.567 88.3753 255.727 89.6823 254.486 95.5831L253.537 100.095L247.342 122C254.197 126.833 259.068 133.987 261.052 142.136L262.479 148L269.453 136.944C273.781 130.083 275.567 121.923 274.502 113.882C273.707 107.885 271.714 102.109 268.642 96.898L268.014 95.832Z" fill="#5D3A2C"/>
<path d="M226.649 87.6629C225.617 84.9047 222.877 83.1688 219.942 83.4133L219.358 83.462C216.128 83.731 213.069 85.024 210.625 87.1527L210.239 87.4891C205.837 91.3235 202.83 96.509 201.689 102.234L201.366 103.856C200.468 108.359 201.141 113.034 203.272 117.102L205.838 122L216.58 119L227.811 117L227.357 91.3809C227.334 90.1103 227.095 88.853 226.649 87.6629Z" fill="#5D3A2C"/>
<mask id="path-48-inside-5_163_218" fill="white">
<path fill-rule="evenodd" clip-rule="evenodd" d="M226.89 86.22C225.741 83.9853 223.44 82.5803 220.927 82.5803H220.336C216.06 82.5803 211.964 84.3055 208.976 87.3653L208.465 87.8876C205.359 91.0682 203.064 94.9496 201.774 99.204L201.042 101.617C199.434 106.92 200.088 112.652 202.851 117.456L203.049 117.801C198.554 119.36 194.158 121.209 189.89 123.339L180.37 128.088L167.842 135.006C157.065 140.958 148.723 150.508 144.274 161.987L143.805 163.197C141.771 168.445 140.728 174.026 140.728 179.655C140.728 185.044 141.684 190.39 143.552 195.445L143.778 196.054C150.598 214.508 167.76 227.121 187.408 228.121L190.399 228.274C201.52 228.84 212.542 225.936 221.941 219.964L227.289 216.565C229.667 215.054 231.926 213.363 234.045 211.506L249.052 198.362C253.722 194.272 257.667 189.422 260.722 184.017L261.553 182.546C265.779 175.068 268 166.624 268 158.034V157.507C268 153.571 267.62 149.644 266.865 145.781L266.655 144.706L271.887 135.28C275.595 128.598 277.05 120.899 276.036 113.325C275.208 107.136 273.133 101.179 269.939 95.8139L269.564 95.1856L267.013 90.9504C264.105 86.1232 256.881 86.9023 255.068 92.2385L246.812 116.554C241.066 113.557 234.633 112.1 228.149 112.334V91.4232C228.149 89.6134 227.717 87.8297 226.89 86.22Z"/>
</mask>
<path d="M226.89 86.22L222.443 88.5057L222.443 88.5057L226.89 86.22ZM208.976 87.3653L205.398 83.8719V83.8719L208.976 87.3653ZM208.465 87.8876L212.043 91.3809V91.381L208.465 87.8876ZM201.774 99.204L196.989 97.7528L201.774 99.204ZM201.042 101.617L196.257 100.166V100.166L201.042 101.617ZM202.851 117.456L207.185 114.964L207.185 114.964L202.851 117.456ZM203.049 117.801L207.383 115.308L210.394 120.544L204.688 122.524L203.049 117.801ZM189.89 123.339L187.658 118.864H187.658L189.89 123.339ZM180.37 128.088L177.953 123.711L178.044 123.66L178.138 123.614L180.37 128.088ZM167.842 135.006L165.425 130.629L167.842 135.006ZM144.274 161.987L139.612 160.18V160.18L144.274 161.987ZM143.805 163.197L148.468 165.003L148.468 165.003L143.805 163.197ZM143.552 195.445L138.863 197.178V197.178L143.552 195.445ZM143.778 196.054L148.468 194.321V194.321L143.778 196.054ZM187.408 228.121L187.154 233.115H187.154L187.408 228.121ZM190.399 228.274L190.653 223.28H190.653L190.399 228.274ZM221.941 219.964L219.259 215.744L219.259 215.744L221.941 219.964ZM227.289 216.565L229.971 220.785L229.97 220.785L227.289 216.565ZM234.045 211.506L230.751 207.745L230.751 207.745L234.045 211.506ZM249.052 198.362L252.346 202.123H252.346L249.052 198.362ZM260.722 184.017L256.369 181.557H256.369L260.722 184.017ZM261.553 182.546L265.906 185.006H265.906L261.553 182.546ZM266.865 145.781L261.958 146.74H261.958L266.865 145.781ZM266.655 144.706L261.748 145.664L261.398 143.874L262.283 142.28L266.655 144.706ZM271.887 135.28L276.259 137.706L276.259 137.706L271.887 135.28ZM276.036 113.325L271.08 113.989L276.036 113.325ZM269.939 95.8139L274.235 93.2557L274.235 93.2557L269.939 95.8139ZM269.564 95.1856L273.847 92.6055L273.854 92.6164L273.861 92.6274L269.564 95.1856ZM267.013 90.9504L271.296 88.3703V88.3703L267.013 90.9504ZM255.068 92.2385L250.334 90.6309V90.6309L255.068 92.2385ZM246.812 116.554L251.546 118.162L249.671 123.685L244.499 120.987L246.812 116.554ZM228.149 112.334L228.329 117.331L223.149 117.518V112.334H228.149ZM220.927 77.5803C225.314 77.5803 229.332 80.033 231.337 83.9343L222.443 88.5057C222.151 87.9375 221.566 87.5803 220.927 87.5803V77.5803ZM220.336 77.5803H220.927V87.5803H220.336V77.5803ZM205.398 83.8719C209.327 79.8487 214.713 77.5803 220.336 77.5803V87.5803C217.406 87.5803 214.6 88.7623 212.553 90.8586L205.398 83.8719ZM204.888 84.3942L205.398 83.8719L212.553 90.8586L212.043 91.3809L204.888 84.3942ZM196.989 97.7528C198.512 92.7307 201.222 88.1488 204.888 84.3942L212.043 91.381C209.497 93.9876 207.616 97.1685 206.559 100.655L196.989 97.7528ZM196.257 100.166L196.989 97.7528L206.559 100.655L205.827 103.068L196.257 100.166ZM198.516 119.948C195.066 113.948 194.249 106.789 196.257 100.166L205.827 103.068C204.619 107.051 205.111 111.356 207.185 114.964L198.516 119.948ZM198.714 120.293L198.516 119.948L207.185 114.964L207.383 115.308L198.714 120.293ZM204.688 122.524C200.396 124.013 196.198 125.779 192.122 127.813L187.658 118.864C192.119 116.639 196.713 114.707 201.41 113.077L204.688 122.524ZM192.122 127.813L182.602 132.562L178.138 123.614L187.658 118.864L192.122 127.813ZM182.787 132.465L170.259 139.383L165.425 130.629L177.953 123.711L182.787 132.465ZM170.259 139.383C160.508 144.768 152.961 153.408 148.936 163.794L139.612 160.18C144.484 147.607 153.621 137.147 165.425 130.629L170.259 139.383ZM148.936 163.793L148.468 165.003L139.143 161.39L139.612 160.18L148.936 163.793ZM148.468 165.003C146.657 169.676 145.728 174.644 145.728 179.655H135.728C135.728 173.408 136.886 167.215 139.143 161.39L148.468 165.003ZM145.728 179.655C145.728 184.452 146.579 189.212 148.242 193.712L138.863 197.178C136.789 191.569 135.728 185.636 135.728 179.655H145.728ZM148.242 193.712L148.468 194.321L139.088 197.788L138.863 197.178L148.242 193.712ZM148.468 194.321C154.594 210.899 170.011 222.23 187.662 223.128L187.154 233.115C165.508 232.013 146.601 218.118 139.088 197.788L148.468 194.321ZM187.662 223.128L190.653 223.28L190.145 233.267L187.154 233.115L187.662 223.128ZM190.653 223.28C200.739 223.793 210.735 221.16 219.259 215.744L224.622 224.184C214.349 230.712 202.301 233.886 190.145 233.267L190.653 223.28ZM219.259 215.744L224.607 212.345L229.97 220.785L224.622 224.184L219.259 215.744ZM224.607 212.345C226.77 210.971 228.824 209.433 230.751 207.745L237.34 215.267C235.028 217.292 232.564 219.137 229.971 220.785L224.607 212.345ZM230.751 207.745L245.757 194.601L252.346 202.123L237.34 215.267L230.751 207.745ZM245.757 194.601C250.004 190.882 253.591 186.472 256.369 181.557L265.075 186.477C261.743 192.372 257.44 197.662 252.346 202.123L245.757 194.601ZM256.369 181.557L257.2 180.086L265.906 185.006L265.075 186.477L256.369 181.557ZM257.2 180.086C261.002 173.358 263 165.762 263 158.034H273C273 167.486 270.556 176.777 265.906 185.006L257.2 180.086ZM263 158.034V157.507H273V158.034H263ZM263 157.507C263 153.893 262.651 150.287 261.958 146.74L271.773 144.823C272.589 149.002 273 153.249 273 157.507H263ZM261.958 146.74L261.748 145.664L271.563 143.747L271.773 144.823L261.958 146.74ZM276.259 137.706L271.027 147.132L262.283 142.28L267.515 132.853L276.259 137.706ZM280.992 112.662C282.148 121.302 280.488 130.084 276.259 137.706L267.515 132.853C270.701 127.112 271.951 120.497 271.08 113.989L280.992 112.662ZM274.235 93.2557C277.775 99.2015 280.074 105.803 280.992 112.662L271.08 113.989C270.341 108.469 268.492 103.157 265.643 98.372L274.235 93.2557ZM273.861 92.6274L274.235 93.2557L265.643 98.372L265.268 97.7437L273.861 92.6274ZM271.296 88.3703L273.847 92.6055L265.282 97.7657L262.73 93.5305L271.296 88.3703ZM250.334 90.6309C253.514 81.2661 266.193 79.8988 271.296 88.3703L262.73 93.5305C262.018 92.3475 260.247 92.5385 259.803 93.8462L250.334 90.6309ZM242.077 114.946L250.334 90.6309L259.803 93.8462L251.546 118.162L242.077 114.946ZM244.499 120.987C239.521 118.39 233.947 117.128 228.329 117.331L227.969 107.337C235.319 107.072 242.611 108.723 249.124 112.121L244.499 120.987ZM233.149 91.4232V112.334H223.149V91.4232H233.149ZM231.337 83.9343C232.528 86.2511 233.149 88.8184 233.149 91.4232H223.149C223.149 90.4084 222.907 89.4082 222.443 88.5057L231.337 83.9343Z" fill="#281214" mask="url(#path-48-inside-5_163_218)"/>
<path d="M254.046 134.627L224.106 159.944L219.993 163.007C217.475 164.883 213.916 163.753 212.919 160.761V160.761C212.452 159.36 212.533 157.826 213.144 156.475L214.174 154.199" stroke="#281214" stroke-width="4" stroke-linecap="round"/>
<path d="M165.504 128.107L175.623 151.822L177.511 155.869C178.778 158.584 182.344 159.188 184.473 157.048V157.048C185.393 156.122 185.784 154.791 185.508 153.521L184.907 150.754" stroke="#281214" stroke-width="4" stroke-linecap="round"/>
<path d="M167.845 162.309C167.284 169.624 168.951 172.006 171.252 172.192C173.553 172.377 175.616 170.295 176.177 162.979C176.739 155.664 175.03 153.373 172.729 153.188C170.428 153.002 168.406 154.993 167.845 162.309Z" fill="#281214"/>
<ellipse cx="2.78893" cy="2.85011" rx="2.78893" ry="2.85011" transform="matrix(-0.977553 0.210688 0.201334 0.979523 175.786 153.63)" fill="white"/>
<path d="M220.86 169.984C220.353 177.303 222.039 179.672 224.341 179.839C226.643 180.006 228.69 177.909 229.197 170.589C229.704 163.269 227.977 160.991 225.675 160.824C223.373 160.657 221.367 162.664 220.86 169.984Z" fill="#281214"/>
<ellipse cx="2.79328" cy="2.84585" rx="2.79328" ry="2.84585" transform="matrix(-0.942655 -0.333769 -0.319925 0.947443 227.891 162.848)" fill="white"/>
</svg>
