<svg width="415" height="363" viewBox="0 0 415 363" fill="none" xmlns="http://www.w3.org/2000/svg">
<rect width="415" height="362.711" fill="black"/>
<g clip-path="url(#clip0_183_415)">
<rect x="14.3633" y="78.8021" width="386.278" height="264.76" rx="16.5705" fill="url(#paint0_linear_183_415)"/>
<rect x="78.0664" y="69.5963" width="131.828" height="69.228" fill="#281214"/>
<path d="M280.252 145.432L293.805 230.823L251.396 234.017L250.087 234.116L250.034 235.427L247.06 309.288C246.951 312.004 246.614 314.705 246.053 317.364L242.811 332.738C241.661 338.189 236.851 342.09 231.281 342.09H15.8362V75.488H80.5712L83.2987 87.4154C85.8038 98.3702 91.8201 108.253 100.378 115.532C117.64 130.213 141.567 134.506 162.825 126.639L165.159 125.775C174.752 122.224 183.102 115.953 189.186 107.73C194.639 100.359 198.534 91.9546 200.634 83.0295L202.205 76.3543L237.16 98.2134C243.92 102.44 249.924 107.769 254.924 113.978L280.252 145.432Z" fill="#88D3FF" stroke="#292949" stroke-width="2.94587"/>
<path d="M58.8725 181.919L56.9015 208.481C56.0413 220.073 54.0444 231.553 50.9395 242.755L46.2181 259.789" stroke="#292949" stroke-width="2.94587" stroke-linecap="round"/>
<path d="M295.344 259.838L295.345 259.844L295.597 261.38C296.738 268.328 296.535 275.43 295 282.301L291.836 296.464C290.532 302.299 286.869 307.332 281.718 310.367C278.756 312.112 275.419 313.124 271.987 313.32L260.178 313.995C250.623 314.541 241.065 312.988 232.174 309.445L231.073 309.006C224.86 306.531 219.062 303.118 213.881 298.888L183.411 274.009L238.678 243.002C247.511 238.046 257.374 235.205 267.49 234.701L291.134 233.524L295.344 259.838Z" fill="#281214" stroke="black" stroke-width="2.94587"/>
<path d="M249.356 247.815L261.644 249.095C265.7 249.517 269.667 250.564 273.403 252.199V252.199C277.471 253.978 281.21 256.43 284.464 259.452L289.859 264.461" stroke="black" stroke-width="2.94587" stroke-linecap="round"/>
<path d="M60.2686 329.805L15.8362 341.646V259.297H31.8531C35.5709 259.297 39.2757 258.858 42.8901 257.987L90.4407 246.534L90.8952 246.425L91.2033 246.073L115.042 218.885L135.245 301.527L60.2686 329.805Z" fill="#281214" stroke="black" stroke-width="2.94587"/>
<path d="M278.507 105.915C280.344 106.226 281.965 107.296 282.973 108.862L298.679 133.245L281.921 141.019L277.597 137.666C271.9 133.247 268.42 126.556 268.074 119.354L267.81 113.853C267.662 110.771 269.452 107.923 272.293 106.719L272.648 106.569C274.459 105.801 276.452 105.568 278.392 105.896L278.507 105.915Z" fill="#5D3A2C" stroke="#260F12" stroke-width="2.94587"/>
<path d="M229.962 236.119L227.041 235.976L225.281 246.36C222.966 260.017 214.761 271.965 202.845 279.029L191.471 285.772L192.577 288.468L220.971 281.409C223.254 280.841 225.637 281.853 226.814 283.89C228.005 285.952 228.185 288.447 227.3 290.658L226.902 291.654C225.36 295.509 222.095 298.413 218.088 299.496L201.675 303.93C187.411 307.783 172.376 307.752 158.128 303.84L150.962 301.872C140.987 299.133 131.912 293.809 124.654 286.437L122.724 284.476C116.294 277.945 111.705 269.829 109.424 260.951C106.278 248.711 106.261 235.877 109.374 223.628L111.129 216.725C112.345 211.937 114.156 207.32 116.517 202.982L120.35 195.941C126.433 184.767 135.281 175.339 146.048 168.56L153.678 163.756C160.453 159.49 167.856 156.313 175.615 154.34L222.005 142.546C226.728 141.345 231.124 139.106 234.872 135.992L244.681 127.843C250.152 123.298 256.852 120.337 263.897 119.311C275.044 117.688 286.532 119.854 296.281 125.484L300.281 127.794C309.843 133.316 317.794 141.242 323.348 150.786L334.387 169.757C337.4 174.936 337.836 181.22 335.565 186.765C333.019 192.982 328.858 198.408 323.514 202.48L322.747 203.064C319.177 205.784 314.56 206.723 310.211 205.614L276.158 196.931C272.806 196.077 269.295 197.552 267.559 200.543L263.796 207.025C257.667 217.585 254.028 229.403 253.155 241.581L251.881 259.35C251.507 264.57 246.053 267.825 241.281 265.678C235.406 263.034 231.459 257.377 231.007 250.951L229.962 236.119Z" fill="#B89061" stroke="#260F12" stroke-width="2.94587"/>
<path d="M284.963 117.609C286.748 118.111 288.24 119.337 289.079 120.989L293.593 129.881L281.835 145.149L280.59 144.053C274.684 138.855 271.804 131.025 272.933 123.239C273.353 120.34 275.56 118.023 278.435 117.462L279.575 117.24C281.157 116.931 282.789 116.997 284.34 117.434L284.963 117.609Z" fill="#5D3A2C" stroke="#260F12" stroke-width="2.94587"/>
<path d="M328.1 181.325C329.299 179.661 331.532 179.1 333.384 179.981C335.647 181.057 336.533 183.845 335.28 186.016L330.014 195.143L322.861 203.081L322.731 202.788C321.845 200.796 321.388 198.641 321.388 196.461L321.388 195.771C321.388 194.798 321.511 193.829 321.754 192.887C322.486 190.053 323.739 187.38 325.45 185.005L328.1 181.325Z" fill="#8C6748"/>
<path d="M329.745 180.642C329.677 180.397 329.877 180.161 330.13 180.189C331.442 180.337 332.739 180.593 334.009 180.955L335.792 181.463C336.431 181.697 336.787 182.382 336.607 183.042L335.83 185.894L331.756 184.609C331.144 184.416 330.67 183.927 330.496 183.309L329.745 180.642Z" fill="#5D3A2C" stroke="#281214" stroke-width="2.13711"/>
<path d="M229.962 236.119L227.041 235.976L225.281 246.36C222.966 260.017 214.761 271.965 202.845 279.029L191.471 285.772L192.577 288.468L220.971 281.409C223.254 280.841 225.637 281.853 226.814 283.89C228.005 285.952 228.185 288.447 227.3 290.658L226.902 291.654C225.36 295.508 222.095 298.413 218.088 299.496L201.675 303.93C187.411 307.783 172.376 307.752 158.128 303.84L150.962 301.872C140.987 299.133 131.912 293.809 124.654 286.437L122.724 284.476C116.294 277.945 111.705 269.829 109.424 260.951C106.278 248.711 106.261 235.877 109.374 223.628L111.129 216.724C112.345 211.937 114.156 207.32 116.517 202.981L120.35 195.941C126.433 184.767 135.281 175.339 146.048 168.56L153.678 163.756C160.453 159.49 167.856 156.313 175.615 154.34L222.005 142.546C226.728 141.345 231.124 139.106 234.872 135.992L244.681 127.843C250.152 123.298 256.852 120.337 263.897 119.311C275.044 117.688 286.532 119.854 296.281 125.484L300.281 127.794C309.843 133.316 317.794 141.242 323.348 150.786L334.387 169.757C337.4 174.936 337.836 181.22 335.565 186.764C333.019 192.982 328.858 198.407 323.514 202.479L322.747 203.064C319.177 205.784 314.56 206.723 310.211 205.614L276.158 196.931C272.806 196.077 269.295 197.551 267.559 200.543L263.796 207.025C257.667 217.585 254.028 229.403 253.155 241.581L251.881 259.349C251.507 264.569 246.053 267.825 241.281 265.677C235.406 263.034 231.459 257.377 231.007 250.951L229.962 236.119Z" stroke="#260F12" stroke-width="2.94587"/>
<path d="M284.963 117.609C286.748 118.11 288.24 119.336 289.079 120.989L293.593 129.881L281.835 145.149L280.59 144.053C274.684 138.855 271.804 131.025 272.933 123.239C273.353 120.34 275.56 118.023 278.435 117.462L279.575 117.239C281.157 116.931 282.789 116.997 284.34 117.434L284.963 117.609Z" fill="#5D3A2C" stroke="#260F12" stroke-width="2.94587"/>
<path d="M313.289 166.324C311.218 172.903 308.6 174.457 306.114 173.889C303.629 173.32 302.218 170.844 304.289 164.266C306.359 157.688 308.988 156.226 311.474 156.795C313.959 157.363 315.359 159.746 313.289 166.324Z" fill="#281214"/>
<ellipse cx="311.528" cy="160.529" rx="3.10619" ry="2.6479" fill="#D9D9D9"/>
<path d="M101.266 251.473C101.266 249.223 102.058 247.044 103.504 245.32L114.042 232.756C114.753 231.908 115.607 231.19 116.564 230.633L130.441 222.561C131.852 221.741 133.454 221.309 135.086 221.309C141.596 221.309 146.064 227.861 143.688 233.921L143.102 235.414C142.508 236.928 141.539 238.266 140.285 239.302L124.877 252.023C122.984 253.587 121.887 255.914 121.887 258.37C121.887 262.916 125.572 266.602 130.118 266.602H154.256C155.534 266.602 156.799 266.865 157.972 267.376L158.638 267.666C162.795 269.476 164.813 274.22 163.233 278.471C162.159 281.357 159.615 283.442 156.575 283.927L131.862 287.872C128.313 288.439 128.077 293.457 131.557 294.354L140.934 296.77C149.068 298.866 157.435 299.927 165.834 299.927H184.636C186.929 299.927 188.939 301.46 189.545 303.671C190.31 306.459 188.602 309.323 185.785 309.976L172.933 312.954C166.127 314.531 159.048 314.499 152.257 312.861L124.486 306.162C122.492 305.681 120.705 304.572 119.389 303L103.498 284.015C102.056 282.292 101.266 280.117 101.266 277.87V251.473Z" fill="#281214" stroke="black" stroke-width="2.94587"/>
<path d="M187.667 280.256C188.503 278.137 190.447 276.657 192.712 276.414L197.337 275.919C198.197 275.826 199.043 275.629 199.856 275.33L204.278 273.706C205.549 273.239 206.964 273.835 207.518 275.071C207.857 275.826 207.812 276.699 207.397 277.416L208.672 278.154L207.397 277.416L205.159 281.282C204.709 282.058 204.16 282.772 203.526 283.407L201.145 285.788C199.519 287.414 197.314 288.327 195.014 288.327H193.042C190.614 288.327 188.44 286.821 187.588 284.548C187.081 283.197 187.094 281.706 187.624 280.364L187.667 280.256Z" fill="#281214" stroke="black" stroke-width="2.94587"/>
<path d="M217.522 258.028C219.07 256.867 221.125 256.634 222.894 257.42C225.048 258.378 226.319 260.635 226.022 262.973L225.853 264.303L227.314 264.489L225.853 264.303C225.599 266.294 224.52 268.086 222.878 269.241L222.132 269.766C221.493 270.216 220.799 270.583 220.067 270.857L217.285 271.901C215.675 272.504 213.871 272.271 212.468 271.279C210.377 269.799 209.678 267.015 210.824 264.724L211.444 263.484C211.916 262.54 212.602 261.718 213.446 261.084L217.522 258.028Z" fill="#281214" stroke="black" stroke-width="2.94587"/>
<path d="M260.33 220.928L261.709 221.446L260.33 220.928C260.018 221.761 259.494 222.498 258.811 223.068L258.536 223.297L259.48 224.428L258.536 223.297C258.082 223.676 257.549 223.948 256.976 224.093L256.591 224.191C255.902 224.366 255.173 224.283 254.542 223.957C253.285 223.309 252.677 221.851 253.101 220.501L253.236 220.07C253.396 219.562 253.671 219.098 254.04 218.714L255.924 216.756C256.622 216.031 257.664 215.749 258.633 216.024C259.661 216.316 260.423 217.182 260.583 218.239L260.663 218.762C260.753 219.361 260.689 219.974 260.476 220.541L260.33 220.928Z" fill="#281214" stroke="black" stroke-width="2.94587"/>
<path d="M157.211 162.175C158.091 161.667 159.217 161.969 159.725 162.85L161.869 166.566C162.377 167.446 162.075 168.572 161.194 169.08L154.738 172.804C152.831 173.904 150.394 173.249 149.294 171.343C148.194 169.436 148.848 166.998 150.755 165.898L157.211 162.175Z" stroke="black" stroke-width="3.68234"/>
<mask id="path-22-inside-1_183_415" fill="white">
<path fill-rule="evenodd" clip-rule="evenodd" d="M154.443 165.353C153.453 163.22 154.404 160.69 156.554 159.738L162.645 157.041C172.13 152.84 181.95 149.438 192.001 146.869L215.733 140.804C218.712 140.042 221.866 141.034 223.875 143.363L227.742 147.85L227.762 147.846L227.879 148.008L227.944 148.084L227.935 148.086L246.591 173.931L269.556 198.398L260.743 215.049L233.315 182.051L213.19 151.82L196.756 155.982C193.179 156.888 189.672 158.052 186.263 159.466L174.101 164.511L226.037 231.047C230.117 236.274 229.838 243.68 225.376 248.586C222.701 251.528 218.005 251.295 215.635 248.102L158.405 171.021L158.348 171.045L155.876 167.749C155.316 167.002 154.836 166.199 154.443 165.353Z"/>
</mask>
<path fill-rule="evenodd" clip-rule="evenodd" d="M154.443 165.353C153.453 163.22 154.404 160.69 156.554 159.738L162.645 157.041C172.13 152.84 181.95 149.438 192.001 146.869L215.733 140.804C218.712 140.042 221.866 141.034 223.875 143.363L227.742 147.85L227.762 147.846L227.879 148.008L227.944 148.084L227.935 148.086L246.591 173.931L269.556 198.398L260.743 215.049L233.315 182.051L213.19 151.82L196.756 155.982C193.179 156.888 189.672 158.052 186.263 159.466L174.101 164.511L226.037 231.047C230.117 236.274 229.838 243.68 225.376 248.586C222.701 251.528 218.005 251.295 215.635 248.102L158.405 171.021L158.348 171.045L155.876 167.749C155.316 167.002 154.836 166.199 154.443 165.353Z" fill="#AF3FFF"/>
<path d="M156.554 159.738L157.747 162.431H157.747L156.554 159.738ZM154.443 165.353L157.115 164.113L157.115 164.113L154.443 165.353ZM162.645 157.041L161.452 154.347H161.452L162.645 157.041ZM192.001 146.869L192.73 149.723L192.001 146.869ZM215.733 140.804L216.462 143.658L215.733 140.804ZM223.875 143.363L221.643 145.287V145.287L223.875 143.363ZM227.742 147.85L225.511 149.773L226.622 151.062L228.293 150.744L227.742 147.85ZM227.762 147.846L230.15 146.122L229.053 144.602L227.211 144.952L227.762 147.846ZM227.879 148.008L225.49 149.733L225.565 149.836L225.648 149.932L227.879 148.008ZM227.944 148.084L228.667 150.94L233.287 149.77L230.175 146.161L227.944 148.084ZM227.935 148.086L227.212 145.231L223.009 146.295L225.547 149.811L227.935 148.086ZM246.591 173.931L244.202 175.655L244.313 175.809L244.443 175.947L246.591 173.931ZM269.556 198.398L272.16 199.776L273.144 197.916L271.704 196.382L269.556 198.398ZM260.743 215.049L258.478 216.932L261.289 220.314L263.347 216.427L260.743 215.049ZM233.315 182.051L230.863 183.684L230.95 183.814L231.05 183.935L233.315 182.051ZM213.19 151.82L215.642 150.188L214.487 148.453L212.467 148.965L213.19 151.82ZM196.756 155.982L196.033 153.126L196.756 155.982ZM186.263 159.466L187.392 162.187L186.263 159.466ZM174.101 164.511L172.972 161.79L169.397 163.272L171.779 166.323L174.101 164.511ZM226.037 231.047L223.714 232.859L226.037 231.047ZM225.376 248.586L227.556 250.568L225.376 248.586ZM215.635 248.102L218 246.346L215.635 248.102ZM158.405 171.021L160.77 169.265L159.4 167.419L157.276 168.3L158.405 171.021ZM158.348 171.045L155.991 172.812L157.364 174.642L159.477 173.766L158.348 171.045ZM155.876 167.749L158.232 165.981L158.232 165.981L155.876 167.749ZM155.362 157.044C151.705 158.663 150.087 162.967 151.771 166.594L157.115 164.113C156.818 163.474 157.103 162.716 157.747 162.431L155.362 157.044ZM161.452 154.347L155.362 157.044L157.747 162.431L163.837 159.734L161.452 154.347ZM191.271 144.015C181.062 146.625 171.087 150.081 161.452 154.347L163.837 159.734C173.173 155.6 182.838 152.252 192.73 149.723L191.271 144.015ZM215.003 137.95L191.271 144.015L192.73 149.723L216.462 143.658L215.003 137.95ZM226.106 141.44C223.367 138.263 219.066 136.911 215.003 137.95L216.462 143.658C218.358 143.173 220.365 143.804 221.643 145.287L226.106 141.44ZM229.973 145.926L226.106 141.44L221.643 145.287L225.511 149.773L229.973 145.926ZM227.211 144.952L227.191 144.956L228.293 150.744L228.312 150.74L227.211 144.952ZM230.267 146.284L230.15 146.122L225.373 149.57L225.49 149.733L230.267 146.284ZM230.175 146.161L230.11 146.085L225.648 149.932L225.713 150.008L230.175 146.161ZM228.658 150.942L228.667 150.94L227.221 145.228L227.212 145.231L228.658 150.942ZM248.979 172.207L230.324 146.362L225.547 149.811L244.202 175.655L248.979 172.207ZM271.704 196.382L248.739 171.915L244.443 175.947L267.408 200.414L271.704 196.382ZM263.347 216.427L272.16 199.776L266.953 197.02L258.139 213.671L263.347 216.427ZM231.05 183.935L258.478 216.932L263.008 213.166L235.581 180.168L231.05 183.935ZM210.738 153.453L230.863 183.684L235.767 180.419L215.642 150.188L210.738 153.453ZM197.479 158.838L213.913 154.676L212.467 148.965L196.033 153.126L197.479 158.838ZM187.392 162.187C190.669 160.828 194.04 159.708 197.479 158.838L196.033 153.126C192.317 154.067 188.675 155.276 185.135 156.745L187.392 162.187ZM175.23 167.232L187.392 162.187L185.135 156.745L172.972 161.79L175.23 167.232ZM171.779 166.323L223.714 232.859L228.359 229.234L176.423 162.698L171.779 166.323ZM223.714 232.859C226.912 236.956 226.694 242.76 223.197 246.604L227.556 250.568C232.983 244.601 233.322 235.592 228.359 229.234L223.714 232.859ZM223.197 246.604C221.77 248.174 219.265 248.049 218 246.346L213.269 249.858C216.746 254.54 223.632 254.882 227.556 250.568L223.197 246.604ZM218 246.346L160.77 169.265L156.04 172.777L213.269 249.858L218 246.346ZM159.477 173.766L159.534 173.742L157.276 168.3L157.219 168.324L159.477 173.766ZM153.519 169.516L155.991 172.812L160.705 169.277L158.232 165.981L153.519 169.516ZM151.771 166.594C152.25 167.626 152.836 168.606 153.519 169.516L158.232 165.981C157.796 165.399 157.421 164.773 157.115 164.113L151.771 166.594Z" fill="#7E2AB9" mask="url(#path-22-inside-1_183_415)"/>
<rect x="247.15" y="174.231" width="15.6612" height="15.8129" rx="1.84117" transform="rotate(48.6584 247.15 174.231)" fill="#AF3FFF" stroke="black" stroke-width="3.68234"/>
<rect x="223.631" y="231.272" width="15.6612" height="15.8129" rx="1.84117" transform="rotate(48.6584 223.631 231.272)" fill="#AF3FFF" stroke="black" stroke-width="3.68234"/>
<path d="M223.419 238.388C224.737 236.723 226.852 235.902 228.948 236.241C231.233 236.611 233.085 238.292 233.675 240.53L233.86 241.232C234.17 242.406 234.168 243.64 233.854 244.812L233.629 245.655C233.217 247.195 232.412 248.602 231.292 249.738L230.725 250.313C229.884 251.167 228.865 251.825 227.74 252.241L226.998 252.516C225.639 253.018 224.144 253.016 222.786 252.508C219.992 251.463 218.378 248.534 218.988 245.614L219.122 244.975C219.337 243.941 219.791 242.972 220.446 242.144L223.419 238.388Z" fill="#281214" stroke="black" stroke-width="2.94587"/>
</g>
<path d="M20.2615 43.63H17.2096L19.4366 38.4334H21.4369L20.2615 43.63ZM24.427 43.63H21.375L23.6021 38.4334H25.6024L24.427 43.63ZM27.0781 47.0737C27.0781 45.9189 27.3049 44.8947 27.7586 44.0011C28.226 43.1076 28.8583 42.4202 29.6557 41.939C30.453 41.4579 31.3398 41.2173 32.3158 41.2173C33.0582 41.2173 33.7662 41.3823 34.4398 41.7122C35.1134 42.0284 35.6496 42.4546 36.0482 42.9907V37.5674H38.9764V52.827H36.0482V51.136C35.6908 51.6997 35.189 52.1534 34.5429 52.497C33.8968 52.8407 33.1475 53.0126 32.2952 53.0126C31.3329 53.0126 30.453 52.7651 29.6557 52.2702C28.8583 51.7753 28.226 51.0811 27.7586 50.1875C27.3049 49.2801 27.0781 48.2422 27.0781 47.0737ZM36.0689 47.1149C36.0689 46.4138 35.9314 45.8158 35.6564 45.3209C35.3815 44.8122 35.0103 44.4273 34.5429 44.1661C34.0755 43.8912 33.5737 43.7537 33.0376 43.7537C32.5014 43.7537 32.0065 43.8843 31.5528 44.1455C31.0992 44.4067 30.728 44.7916 30.4393 45.3003C30.1644 45.7952 30.0269 46.3863 30.0269 47.0737C30.0269 47.7611 30.1644 48.3659 30.4393 48.8883C30.728 49.397 31.0992 49.7888 31.5528 50.0638C32.0203 50.3387 32.5152 50.4762 33.0376 50.4762C33.5737 50.4762 34.0755 50.3456 34.5429 50.0844C35.0103 49.8094 35.3815 49.4245 35.6564 48.9296C35.9314 48.4209 36.0689 47.816 36.0689 47.1149ZM46.8689 53.0126C45.7691 53.0126 44.7792 52.772 43.8994 52.2908C43.0196 51.7959 42.3253 51.1017 41.8167 50.2081C41.3218 49.3145 41.0743 48.2835 41.0743 47.1149C41.0743 45.9464 41.3286 44.9153 41.8373 44.0218C42.3597 43.1282 43.0677 42.4408 43.9613 41.9597C44.8549 41.4647 45.8515 41.2173 46.9513 41.2173C48.0511 41.2173 49.0478 41.4647 49.9414 41.9597C50.835 42.4408 51.5361 43.1282 52.0448 44.0218C52.5672 44.9153 52.8284 45.9464 52.8284 47.1149C52.8284 48.2835 52.5603 49.3145 52.0241 50.2081C51.5017 51.1017 50.7869 51.7959 49.8795 52.2908C48.986 52.772 47.9824 53.0126 46.8689 53.0126ZM46.8689 50.4968C47.3913 50.4968 47.8793 50.3731 48.333 50.1256C48.8004 49.8644 49.1715 49.4795 49.4465 48.9708C49.7214 48.4622 49.8589 47.8435 49.8589 47.1149C49.8589 46.0289 49.5702 45.1972 48.9928 44.6198C48.4292 44.0286 47.7349 43.7331 46.9101 43.7331C46.0853 43.7331 45.391 44.0286 44.8274 44.6198C44.2775 45.1972 44.0025 46.0289 44.0025 47.1149C44.0025 48.201 44.2706 49.0396 44.8067 49.6307C45.3566 50.2081 46.044 50.4968 46.8689 50.4968ZM61.2767 41.2379C62.6377 41.2379 63.7375 41.671 64.5761 42.537C65.4147 43.3894 65.834 44.5854 65.834 46.1251V52.827H62.947V46.5169C62.947 45.6096 62.7202 44.9153 62.2665 44.4342C61.8129 43.9393 61.1942 43.6918 60.4106 43.6918C59.6133 43.6918 58.9809 43.9393 58.5135 44.4342C58.0598 44.9153 57.833 45.6096 57.833 46.5169V52.827H54.9461V41.4029H57.833V42.8257C58.2179 42.3308 58.706 41.9459 59.2971 41.671C59.902 41.3823 60.5619 41.2379 61.2767 41.2379ZM69.1567 38.4334H72.188L69.961 43.63H67.9813L69.1567 38.4334ZM77.6194 43.7743V49.3008C77.6194 49.6857 77.7088 49.9675 77.8875 50.1462C78.08 50.3112 78.3962 50.3937 78.8361 50.3937H80.1765V52.827H78.3618C75.9285 52.827 74.7119 51.6447 74.7119 49.2801V43.7743H73.3509V41.4029H74.7119V38.5778H77.6194V41.4029H80.1765V43.7743H77.6194ZM91.6413 41.2173C92.4937 41.2173 93.2429 41.3891 93.889 41.7328C94.5352 42.0628 95.0438 42.4958 95.415 43.0319V41.4029H98.3226V52.9095C98.3226 53.968 98.1095 54.9097 97.6833 55.7346C97.2571 56.5732 96.6179 57.233 95.7655 57.7142C94.9132 58.2091 93.8822 58.4565 92.6724 58.4565C91.0502 58.4565 89.7167 58.0785 88.6719 57.3224C87.6408 56.5663 87.0566 55.5352 86.9191 54.2292H89.7854C89.9366 54.7516 90.2597 55.164 90.7546 55.4665C91.2633 55.7827 91.875 55.9408 92.5899 55.9408C93.4285 55.9408 94.109 55.6864 94.6314 55.1778C95.1538 54.6829 95.415 53.9268 95.415 52.9095V51.136C95.0438 51.6722 94.5283 52.119 93.8684 52.4764C93.2223 52.8339 92.4799 53.0126 91.6413 53.0126C90.679 53.0126 89.7992 52.7651 89.0018 52.2702C88.2045 51.7753 87.5721 51.0811 87.1047 50.1875C86.651 49.2801 86.4242 48.2422 86.4242 47.0737C86.4242 45.9189 86.651 44.8947 87.1047 44.0011C87.5721 43.1076 88.1976 42.4202 88.9812 41.939C89.7785 41.4579 90.6653 41.2173 91.6413 41.2173ZM95.415 47.1149C95.415 46.4138 95.2775 45.8158 95.0026 45.3209C94.7276 44.8122 94.3564 44.4273 93.889 44.1661C93.4216 43.8912 92.9198 43.7537 92.3837 43.7537C91.8475 43.7537 91.3526 43.8843 90.899 44.1455C90.4453 44.4067 90.0741 44.7916 89.7854 45.3003C89.5105 45.7952 89.373 46.3863 89.373 47.0737C89.373 47.7611 89.5105 48.3659 89.7854 48.8883C90.0741 49.397 90.4453 49.7888 90.899 50.0638C91.3664 50.3387 91.8613 50.4762 92.3837 50.4762C92.9198 50.4762 93.4216 50.3456 93.889 50.0844C94.3564 49.8094 94.7276 49.4245 95.0026 48.9296C95.2775 48.4209 95.415 47.816 95.415 47.1149ZM106.215 53.0126C105.115 53.0126 104.125 52.772 103.246 52.2908C102.366 51.7959 101.671 51.1017 101.163 50.2081C100.668 49.3145 100.42 48.2835 100.42 47.1149C100.42 45.9464 100.675 44.9153 101.183 44.0218C101.706 43.1282 102.414 42.4408 103.307 41.9597C104.201 41.4647 105.198 41.2173 106.297 41.2173C107.397 41.2173 108.394 41.4647 109.288 41.9597C110.181 42.4408 110.882 43.1282 111.391 44.0218C111.913 44.9153 112.174 45.9464 112.174 47.1149C112.174 48.2835 111.906 49.3145 111.37 50.2081C110.848 51.1017 110.133 51.7959 109.226 52.2908C108.332 52.772 107.329 53.0126 106.215 53.0126ZM106.215 50.4968C106.737 50.4968 107.225 50.3731 107.679 50.1256C108.146 49.8644 108.518 49.4795 108.793 48.9708C109.068 48.4622 109.205 47.8435 109.205 47.1149C109.205 46.0289 108.916 45.1972 108.339 44.6198C107.775 44.0286 107.081 43.7331 106.256 43.7331C105.431 43.7331 104.737 44.0286 104.173 44.6198C103.624 45.1972 103.349 46.0289 103.349 47.1149C103.349 48.201 103.617 49.0396 104.153 49.6307C104.703 50.2081 105.39 50.4968 106.215 50.4968ZM118.463 47.0737C118.463 45.9189 118.69 44.8947 119.144 44.0011C119.611 43.1076 120.237 42.4202 121.02 41.939C121.818 41.4579 122.705 41.2173 123.681 41.2173C124.533 41.2173 125.275 41.3891 125.908 41.7328C126.554 42.0765 127.069 42.5095 127.454 43.0319V41.4029H130.362V52.827H127.454V51.1567C127.083 51.6928 126.568 52.1396 125.908 52.497C125.262 52.8407 124.512 53.0126 123.66 53.0126C122.698 53.0126 121.818 52.7651 121.02 52.2702C120.237 51.7753 119.611 51.0811 119.144 50.1875C118.69 49.2801 118.463 48.2422 118.463 47.0737ZM127.454 47.1149C127.454 46.4138 127.317 45.8158 127.042 45.3209C126.767 44.8122 126.396 44.4273 125.928 44.1661C125.461 43.8912 124.959 43.7537 124.423 43.7537C123.887 43.7537 123.392 43.8843 122.938 44.1455C122.485 44.4067 122.113 44.7916 121.825 45.3003C121.55 45.7952 121.412 46.3863 121.412 47.0737C121.412 47.7611 121.55 48.3659 121.825 48.8883C122.113 49.397 122.485 49.7888 122.938 50.0638C123.406 50.3387 123.901 50.4762 124.423 50.4762C124.959 50.4762 125.461 50.3456 125.928 50.0844C126.396 49.8094 126.767 49.4245 127.042 48.9296C127.317 48.4209 127.454 47.816 127.454 47.1149ZM136.068 37.5674V52.827H133.181V37.5674H136.068ZM143.994 53.0126C142.894 53.0126 141.904 52.772 141.024 52.2908C140.144 51.7959 139.45 51.1017 138.941 50.2081C138.446 49.3145 138.199 48.2835 138.199 47.1149C138.199 45.9464 138.453 44.9153 138.962 44.0218C139.484 43.1282 140.192 42.4408 141.086 41.9597C141.98 41.4647 142.976 41.2173 144.076 41.2173C145.176 41.2173 146.172 41.4647 147.066 41.9597C147.96 42.4408 148.661 43.1282 149.169 44.0218C149.692 44.9153 149.953 45.9464 149.953 47.1149C149.953 48.2835 149.685 49.3145 149.149 50.2081C148.626 51.1017 147.912 51.7959 147.004 52.2908C146.111 52.772 145.107 53.0126 143.994 53.0126ZM143.994 50.4968C144.516 50.4968 145.004 50.3731 145.458 50.1256C145.925 49.8644 146.296 49.4795 146.571 48.9708C146.846 48.4622 146.984 47.8435 146.984 47.1149C146.984 46.0289 146.695 45.1972 146.117 44.6198C145.554 44.0286 144.86 43.7331 144.035 43.7331C143.21 43.7331 142.516 44.0286 141.952 44.6198C141.402 45.1972 141.127 46.0289 141.127 47.1149C141.127 48.201 141.395 49.0396 141.931 49.6307C142.481 50.2081 143.169 50.4968 143.994 50.4968ZM158.401 41.2379C159.762 41.2379 160.862 41.671 161.701 42.537C162.539 43.3894 162.959 44.5854 162.959 46.1251V52.827H160.072V46.5169C160.072 45.6096 159.845 44.9153 159.391 44.4342C158.938 43.9393 158.319 43.6918 157.535 43.6918C156.738 43.6918 156.106 43.9393 155.638 44.4342C155.184 44.9153 154.958 45.6096 154.958 46.5169V52.827H152.071V41.4029H154.958V42.8257C155.343 42.3308 155.831 41.9459 156.422 41.671C157.027 41.3823 157.687 41.2379 158.401 41.2379ZM176.324 46.8675C176.324 47.2799 176.296 47.6511 176.241 47.981H167.89C167.959 48.8059 168.247 49.452 168.756 49.9194C169.265 50.3868 169.89 50.6205 170.632 50.6205C171.705 50.6205 172.468 50.16 172.921 49.2389H176.035C175.705 50.3387 175.073 51.246 174.138 51.9609C173.203 52.662 172.055 53.0126 170.694 53.0126C169.595 53.0126 168.605 52.772 167.725 52.2908C166.859 51.7959 166.178 51.1017 165.683 50.2081C165.202 49.3145 164.962 48.2835 164.962 47.1149C164.962 45.9327 165.202 44.8947 165.683 44.0011C166.165 43.1076 166.838 42.4202 167.704 41.939C168.57 41.4579 169.567 41.2173 170.694 41.2173C171.78 41.2173 172.75 41.451 173.602 41.9184C174.468 42.3858 175.135 43.0526 175.602 43.9187C176.083 44.771 176.324 45.7539 176.324 46.8675ZM173.334 46.0426C173.32 45.3003 173.052 44.7091 172.53 44.2692C172.007 43.8156 171.368 43.5887 170.612 43.5887C169.897 43.5887 169.292 43.8087 168.797 44.2486C168.316 44.6748 168.02 45.2728 167.91 46.0426H173.334ZM181.586 49.7957L179.173 55.5902H177.318L178.658 49.7957H181.586ZM191.942 43.7743V49.3008C191.942 49.6857 192.031 49.9675 192.21 50.1462C192.402 50.3112 192.719 50.3937 193.158 50.3937H194.499V52.827H192.684C190.251 52.827 189.034 51.6447 189.034 49.2801V43.7743H187.673V41.4029H189.034V38.5778H191.942V41.4029H194.499V43.7743H191.942ZM195.833 47.0737C195.833 45.9189 196.06 44.8947 196.513 44.0011C196.981 43.1076 197.606 42.4202 198.39 41.939C199.187 41.4579 200.074 41.2173 201.05 41.2173C201.902 41.2173 202.645 41.3891 203.277 41.7328C203.923 42.0765 204.439 42.5095 204.824 43.0319V41.4029H207.731V52.827H204.824V51.1567C204.453 51.6928 203.937 52.1396 203.277 52.497C202.631 52.8407 201.882 53.0126 201.029 53.0126C200.067 53.0126 199.187 52.7651 198.39 52.2702C197.606 51.7753 196.981 51.0811 196.513 50.1875C196.06 49.2801 195.833 48.2422 195.833 47.0737ZM204.824 47.1149C204.824 46.4138 204.686 45.8158 204.411 45.3209C204.136 44.8122 203.765 44.4273 203.298 44.1661C202.83 43.8912 202.329 43.7537 201.792 43.7537C201.256 43.7537 200.761 43.8843 200.308 44.1455C199.854 44.4067 199.483 44.7916 199.194 45.3003C198.919 45.7952 198.782 46.3863 198.782 47.0737C198.782 47.7611 198.919 48.3659 199.194 48.8883C199.483 49.397 199.854 49.7888 200.308 50.0638C200.775 50.3387 201.27 50.4762 201.792 50.4762C202.329 50.4762 202.83 50.3456 203.298 50.0844C203.765 49.8094 204.136 49.4245 204.411 48.9296C204.686 48.4209 204.824 47.816 204.824 47.1149ZM217.315 52.827L213.438 47.9604V52.827H210.551V37.5674H213.438V46.2488L217.273 41.4029H221.026L215.995 47.1356L221.068 52.827H217.315ZM233.213 46.8675C233.213 47.2799 233.186 47.6511 233.131 47.981H224.779C224.848 48.8059 225.137 49.452 225.645 49.9194C226.154 50.3868 226.779 50.6205 227.522 50.6205C228.594 50.6205 229.357 50.16 229.811 49.2389H232.924C232.595 50.3387 231.962 51.246 231.027 51.9609C230.093 52.662 228.945 53.0126 227.584 53.0126C226.484 53.0126 225.494 52.772 224.614 52.2908C223.748 51.7959 223.068 51.1017 222.573 50.2081C222.092 49.3145 221.851 48.2835 221.851 47.1149C221.851 45.9327 222.092 44.8947 222.573 44.0011C223.054 43.1076 223.727 42.4202 224.594 41.939C225.46 41.4579 226.456 41.2173 227.584 41.2173C228.67 41.2173 229.639 41.451 230.491 41.9184C231.357 42.3858 232.024 43.0526 232.491 43.9187C232.973 44.771 233.213 45.7539 233.213 46.8675ZM230.223 46.0426C230.209 45.3003 229.941 44.7091 229.419 44.2692C228.897 43.8156 228.257 43.5887 227.501 43.5887C226.786 43.5887 226.181 43.8087 225.686 44.2486C225.205 44.6748 224.91 45.2728 224.8 46.0426H230.223ZM243.595 43.7743V49.3008C243.595 49.6857 243.685 49.9675 243.863 50.1462C244.056 50.3112 244.372 50.3937 244.812 50.3937H246.152V52.827H244.338C241.904 52.827 240.688 51.6447 240.688 49.2801V43.7743H239.327V41.4029H240.688V38.5778H243.595V41.4029H246.152V43.7743H243.595ZM254.663 41.2379C255.529 41.2379 256.298 41.4304 256.972 41.8153C257.646 42.1865 258.168 42.7433 258.539 43.4856C258.924 44.2142 259.117 45.0941 259.117 46.1251V52.827H256.23V46.5169C256.23 45.6096 256.003 44.9153 255.549 44.4342C255.096 43.9393 254.477 43.6918 253.693 43.6918C252.896 43.6918 252.264 43.9393 251.796 44.4342C251.343 44.9153 251.116 45.6096 251.116 46.5169V52.827H248.229V37.5674H251.116V42.8257C251.487 42.3308 251.982 41.9459 252.6 41.671C253.219 41.3823 253.906 41.2379 254.663 41.2379ZM263.326 40.0419C262.817 40.0419 262.391 39.8838 262.048 39.5676C261.718 39.2377 261.553 38.8321 261.553 38.351C261.553 37.8698 261.718 37.4711 262.048 37.1549C262.391 36.825 262.817 36.66 263.326 36.66C263.835 36.66 264.254 36.825 264.584 37.1549C264.928 37.4711 265.1 37.8698 265.1 38.351C265.1 38.8321 264.928 39.2377 264.584 39.5676C264.254 39.8838 263.835 40.0419 263.326 40.0419ZM264.749 41.4029V52.827H261.862V41.4029H264.749ZM271.973 53.0126C271.038 53.0126 270.2 52.8476 269.457 52.5177C268.715 52.174 268.124 51.7134 267.684 51.136C267.258 50.5587 267.024 49.9194 266.983 49.2183H269.89C269.945 49.6582 270.158 50.0225 270.53 50.3112C270.914 50.5999 271.389 50.7442 271.952 50.7442C272.502 50.7442 272.928 50.6343 273.231 50.4143C273.547 50.1944 273.705 49.9125 273.705 49.5688C273.705 49.1977 273.513 48.9227 273.128 48.744C272.757 48.5515 272.159 48.3453 271.334 48.1254C270.481 47.9192 269.78 47.7061 269.23 47.4861C268.694 47.2662 268.227 46.9293 267.828 46.4757C267.443 46.022 267.251 45.4103 267.251 44.6404C267.251 44.008 267.429 43.4306 267.787 42.9082C268.158 42.3858 268.68 41.9734 269.354 41.671C270.041 41.3685 270.846 41.2173 271.767 41.2173C273.128 41.2173 274.214 41.561 275.025 42.2483C275.836 42.922 276.283 43.8362 276.365 44.991H273.602C273.561 44.5373 273.368 44.1799 273.025 43.9187C272.695 43.6437 272.248 43.5062 271.684 43.5062C271.162 43.5062 270.756 43.6025 270.468 43.7949C270.193 43.9874 270.055 44.2555 270.055 44.5992C270.055 44.9841 270.248 45.2797 270.633 45.4859C271.018 45.6783 271.616 45.8777 272.427 46.0839C273.251 46.2901 273.932 46.5032 274.468 46.7231C275.004 46.9431 275.465 47.2868 275.85 47.7542C276.248 48.2079 276.455 48.8127 276.468 49.5688C276.468 50.2287 276.283 50.8199 275.912 51.3423C275.554 51.8647 275.032 52.2771 274.344 52.5795C273.671 52.8682 272.88 53.0126 271.973 53.0126ZM280.117 52.9713C279.594 52.9713 279.161 52.8132 278.818 52.497C278.488 52.1671 278.323 51.7616 278.323 51.2804C278.323 50.7992 278.488 50.4006 278.818 50.0844C279.161 49.7544 279.594 49.5895 280.117 49.5895C280.625 49.5895 281.045 49.7544 281.375 50.0844C281.705 50.4006 281.87 50.7992 281.87 51.2804C281.87 51.7616 281.705 52.1671 281.375 52.497C281.045 52.8132 280.625 52.9713 280.117 52.9713ZM284.772 38.4334H287.804L285.576 43.63H283.597L284.772 38.4334ZM288.938 38.4334H291.969L289.742 43.63H287.762L288.938 38.4334Z" fill="white"/>
<defs>
<linearGradient id="paint0_linear_183_415" x1="201.795" y1="78.8021" x2="388.673" y2="343.563" gradientUnits="userSpaceOnUse">
<stop stop-color="#CB83FF"/>
<stop offset="0.522902" stop-color="#FFA361"/>
<stop offset="1" stop-color="#FF5F85"/>
</linearGradient>
<clipPath id="clip0_183_415">
<rect x="14.3633" y="78.8021" width="386.278" height="264.76" rx="16.5705" fill="white"/>
</clipPath>
</defs>
</svg>
