<svg width="652" height="608" viewBox="0 0 652 608" fill="none" xmlns="http://www.w3.org/2000/svg">
<path d="M297.175 350.5L305.7 327.157L273.516 341.993C272.379 342.517 271.201 342.949 269.994 343.283L239.337 351.776C238.896 351.898 238.812 352.487 239.201 352.728C239.502 352.914 239.847 353.018 240.202 353.031L271.042 354.094C274.288 354.206 277.536 353.977 280.735 353.41L297.175 350.5Z" fill="#B89061" stroke="#281214" stroke-width="5"/>
<mask id="path-2-inside-1_227_166" fill="white">
<path fill-rule="evenodd" clip-rule="evenodd" d="M277.157 264.689C279.597 261.725 283.518 260.418 287.249 261.326C292.16 262.522 296.056 266.254 297.462 271.11L299.488 278.108H302.788C306.318 278.108 309.74 276.894 312.481 274.67L319.434 269.028L356.075 282.595L425.408 271.378L421.436 279.575C424.32 278.172 427.651 277.86 430.792 278.763C436.274 280.337 440.478 284.752 441.782 290.304L442.245 292.273C442.502 293.366 442.632 294.485 442.632 295.607V299.769C442.632 307.17 440.035 314.337 435.295 320.02L433.831 321.776C430.966 325.212 426.857 327.371 422.403 327.783C417.17 328.266 411.926 326.987 407.504 324.147L401.658 320.393L380.526 364.008C379.52 366.084 378.072 367.84 376.336 369.196C376.043 373.75 373.867 377.997 370.303 380.897L361.934 387.707C356.114 392.442 349.007 395.322 341.533 395.973L338.129 396.27C334.383 396.596 330.709 395.095 328.263 392.237C326.569 390.258 325.889 387.605 326.421 385.055L326.458 384.879C327.649 379.173 331.081 374.184 335.984 371.03L341.772 367.308L338.491 364.77C335.331 367.739 331.939 370.456 328.346 372.894L322.105 377.129C318.282 379.722 313.146 379.179 309.95 375.843C306.843 372.599 305.931 367.832 307.622 363.67L309.095 360.042H304.243C303.115 360.042 301.997 359.848 300.935 359.469L300.799 359.421C294.95 357.33 291.552 351.233 292.852 345.159L293.582 341.746C294.853 335.803 297.563 330.262 301.472 325.609L314.013 310.684C314.411 310.211 313.974 309.504 313.372 309.649L305.572 311.523C300.828 312.663 295.893 312.754 291.11 311.791L287.766 311.117H285.442C279.719 311.117 274.559 307.675 272.36 302.392C270.267 297.362 269.189 291.968 269.189 286.52V284.406C269.189 277.917 271.444 271.63 275.568 266.62L277.157 264.689Z"/>
</mask>
<path fill-rule="evenodd" clip-rule="evenodd" d="M277.157 264.689C279.597 261.725 283.518 260.418 287.249 261.326C292.16 262.522 296.056 266.254 297.462 271.11L299.488 278.108H302.788C306.318 278.108 309.74 276.894 312.481 274.67L319.434 269.028L356.075 282.595L425.408 271.378L421.436 279.575C424.32 278.172 427.651 277.86 430.792 278.763C436.274 280.337 440.478 284.752 441.782 290.304L442.245 292.273C442.502 293.366 442.632 294.485 442.632 295.607V299.769C442.632 307.17 440.035 314.337 435.295 320.02L433.831 321.776C430.966 325.212 426.857 327.371 422.403 327.783C417.17 328.266 411.926 326.987 407.504 324.147L401.658 320.393L380.526 364.008C379.52 366.084 378.072 367.84 376.336 369.196C376.043 373.75 373.867 377.997 370.303 380.897L361.934 387.707C356.114 392.442 349.007 395.322 341.533 395.973L338.129 396.27C334.383 396.596 330.709 395.095 328.263 392.237C326.569 390.258 325.889 387.605 326.421 385.055L326.458 384.879C327.649 379.173 331.081 374.184 335.984 371.03L341.772 367.308L338.491 364.77C335.331 367.739 331.939 370.456 328.346 372.894L322.105 377.129C318.282 379.722 313.146 379.179 309.95 375.843C306.843 372.599 305.931 367.832 307.622 363.67L309.095 360.042H304.243C303.115 360.042 301.997 359.848 300.935 359.469L300.799 359.421C294.95 357.33 291.552 351.233 292.852 345.159L293.582 341.746C294.853 335.803 297.563 330.262 301.472 325.609L314.013 310.684C314.411 310.211 313.974 309.504 313.372 309.649L305.572 311.523C300.828 312.663 295.893 312.754 291.11 311.791L287.766 311.117H285.442C279.719 311.117 274.559 307.675 272.36 302.392C270.267 297.362 269.189 291.968 269.189 286.52V284.406C269.189 277.917 271.444 271.63 275.568 266.62L277.157 264.689Z" fill="#B89061"/>
<path d="M287.249 261.326L288.431 256.468L288.431 256.468L287.249 261.326ZM277.157 264.689L281.017 267.867L281.017 267.867L277.157 264.689ZM297.462 271.11L292.659 272.5L292.659 272.5L297.462 271.11ZM299.488 278.108V283.108H295.73L294.685 279.498L299.488 278.108ZM312.481 274.67L315.631 278.553L315.631 278.553L312.481 274.67ZM319.434 269.028L316.283 265.145L318.497 263.349L321.17 264.339L319.434 269.028ZM356.075 282.595L356.873 287.53L355.574 287.741L354.339 287.283L356.075 282.595ZM425.408 271.378L424.609 266.442L434.099 264.907L429.908 273.558L425.408 271.378ZM421.436 279.575L423.624 284.071L410.641 290.389L416.937 277.395L421.436 279.575ZM430.792 278.763L432.172 273.957L432.172 273.957L430.792 278.763ZM441.782 290.304L446.65 289.161L446.65 289.161L441.782 290.304ZM442.245 292.273L437.378 293.417L437.378 293.417L442.245 292.273ZM435.295 320.02L439.135 323.223L439.135 323.223L435.295 320.02ZM433.831 321.776L429.991 318.574L429.991 318.574L433.831 321.776ZM422.403 327.783L421.943 322.804L421.943 322.804L422.403 327.783ZM407.504 324.147L410.206 319.94L410.206 319.94L407.504 324.147ZM401.658 320.393L397.159 318.213L399.617 313.14L404.36 316.186L401.658 320.393ZM380.526 364.008L376.026 361.827L376.026 361.827L380.526 364.008ZM376.336 369.196L371.347 368.874L371.491 366.636L373.259 365.255L376.336 369.196ZM370.303 380.897L367.147 377.019L367.147 377.018L370.303 380.897ZM361.934 387.707L365.09 391.585L365.09 391.585L361.934 387.707ZM341.533 395.973L341.099 390.992L341.099 390.992L341.533 395.973ZM338.129 396.27L338.563 401.251L338.563 401.251L338.129 396.27ZM328.263 392.237L332.062 388.986L332.062 388.986L328.263 392.237ZM326.421 385.055L331.316 386.077L331.316 386.077L326.421 385.055ZM326.458 384.879L321.563 383.858L321.564 383.858L326.458 384.879ZM335.984 371.03L333.279 366.825L333.279 366.825L335.984 371.03ZM341.772 367.308L344.831 363.353L350.43 367.684L344.476 371.513L341.772 367.308ZM338.491 364.77L335.067 361.126L338.175 358.205L341.55 360.815L338.491 364.77ZM328.346 372.894L325.539 368.756L325.539 368.756L328.346 372.894ZM322.105 377.129L324.912 381.266L324.912 381.266L322.105 377.129ZM309.95 375.843L313.561 372.384L313.561 372.384L309.95 375.843ZM307.622 363.67L312.254 365.552L312.254 365.552L307.622 363.67ZM309.095 360.042V355.042H316.522L313.727 361.924L309.095 360.042ZM300.935 359.469L299.253 364.178L299.253 364.178L300.935 359.469ZM300.799 359.421L302.482 354.712L302.482 354.712L300.799 359.421ZM292.852 345.159L287.962 344.113L287.962 344.113L292.852 345.159ZM293.582 341.746L298.471 342.792L298.471 342.792L293.582 341.746ZM301.472 325.609L305.3 328.826L305.3 328.826L301.472 325.609ZM314.013 310.684L317.841 313.901L317.841 313.901L314.013 310.684ZM313.372 309.649L312.204 304.787L312.204 304.787L313.372 309.649ZM305.572 311.523L304.404 306.661L304.404 306.661L305.572 311.523ZM291.11 311.791L292.098 306.889L292.098 306.889L291.11 311.791ZM287.766 311.117V306.117H288.265L288.753 306.215L287.766 311.117ZM272.36 302.392L276.976 300.471L276.976 300.471L272.36 302.392ZM275.568 266.62L271.707 263.442L271.707 263.442L275.568 266.62ZM286.066 266.184C284.2 265.73 282.238 266.384 281.017 267.867L273.296 261.512C276.955 257.066 282.836 255.106 288.431 256.468L286.066 266.184ZM292.659 272.5C291.752 269.366 289.236 266.956 286.066 266.184L288.431 256.468C295.084 258.088 300.361 263.143 302.265 269.719L292.659 272.5ZM294.685 279.498L292.659 272.5L302.265 269.719L304.291 276.718L294.685 279.498ZM302.788 283.108H299.488V273.108H302.788V283.108ZM315.631 278.553C311.999 281.5 307.465 283.108 302.788 283.108V273.108C305.17 273.108 307.48 272.289 309.33 270.788L315.631 278.553ZM322.584 272.91L315.631 278.553L309.33 270.788L316.283 265.145L322.584 272.91ZM354.339 287.283L317.698 273.717L321.17 264.339L357.811 277.906L354.339 287.283ZM426.206 276.314L356.873 287.53L355.276 277.659L424.609 266.442L426.206 276.314ZM416.937 277.395L420.908 269.198L429.908 273.558L425.936 281.755L416.937 277.395ZM429.412 283.568C427.469 283.01 425.408 283.203 423.624 284.071L419.249 275.079C423.231 273.141 427.832 272.711 432.172 273.957L429.412 283.568ZM436.915 291.448C436.024 287.657 433.154 284.643 429.412 283.568L432.172 273.957C439.394 276.031 444.931 281.846 446.65 289.161L436.915 291.448ZM437.378 293.417L436.915 291.448L446.65 289.161L447.113 291.13L437.378 293.417ZM437.632 295.607C437.632 294.87 437.546 294.135 437.378 293.417L447.113 291.13C447.457 292.597 447.632 294.1 447.632 295.607H437.632ZM437.632 299.769V295.607H447.632V299.769H437.632ZM431.455 316.818C435.446 312.033 437.632 306 437.632 299.769H447.632C447.632 308.34 444.625 316.64 439.135 323.223L431.455 316.818ZM429.991 318.574L431.455 316.818L439.135 323.223L437.671 324.979L429.991 318.574ZM421.943 322.804C425.079 322.514 427.973 320.993 429.991 318.574L437.671 324.979C433.959 329.43 428.634 332.228 422.863 332.762L421.943 322.804ZM410.206 319.94C413.689 322.177 417.821 323.185 421.943 322.804L422.863 332.762C416.52 333.348 410.163 331.797 404.803 328.355L410.206 319.94ZM404.36 316.186L410.206 319.94L404.803 328.355L398.957 324.601L404.36 316.186ZM376.026 361.827L397.159 318.213L406.158 322.573L385.025 366.188L376.026 361.827ZM373.259 365.255C374.405 364.36 375.36 363.202 376.026 361.827L385.025 366.188C383.679 368.966 381.74 371.32 379.414 373.137L373.259 365.255ZM367.147 377.018C369.628 375 371.142 372.044 371.347 368.874L381.326 369.518C380.943 375.456 378.106 380.993 373.459 384.775L367.147 377.018ZM358.778 383.828L367.147 377.019L373.459 384.775L365.09 391.585L358.778 383.828ZM341.099 390.992C347.576 390.428 353.735 387.932 358.778 383.828L365.09 391.585C358.494 396.952 350.439 400.216 341.967 400.955L341.099 390.992ZM337.695 391.289L341.099 390.992L341.967 400.955L338.563 401.251L337.695 391.289ZM332.062 388.986C333.458 390.618 335.556 391.475 337.696 391.289L338.563 401.251C333.209 401.718 327.959 399.572 324.464 395.488L332.062 388.986ZM331.316 386.077C331.1 387.11 331.376 388.184 332.062 388.986L324.464 395.488C321.763 392.331 320.678 388.101 321.527 384.033L331.316 386.077ZM331.353 385.901L331.316 386.077L321.527 384.033L321.563 383.858L331.353 385.901ZM338.689 375.236C334.913 377.664 332.27 381.506 331.353 385.901L321.564 383.858C323.028 376.839 327.249 370.703 333.279 366.825L338.689 375.236ZM344.476 371.513L338.689 375.236L333.279 366.825L339.067 363.103L344.476 371.513ZM341.55 360.815L344.831 363.353L338.712 371.263L335.431 368.725L341.55 360.815ZM325.539 368.756C328.913 366.467 332.099 363.915 335.067 361.126L341.915 368.414C338.563 371.563 334.965 374.445 331.154 377.031L325.539 368.756ZM319.298 372.991L325.539 368.756L331.154 377.031L324.912 381.266L319.298 372.991ZM313.561 372.384C315.069 373.959 317.493 374.215 319.298 372.991L324.912 381.266C319.071 385.23 311.222 384.399 306.34 379.302L313.561 372.384ZM312.254 365.552C311.305 367.888 311.817 370.563 313.561 372.384L306.34 379.302C301.869 374.634 300.557 367.777 302.989 361.789L312.254 365.552ZM313.727 361.924L312.254 365.552L302.989 361.789L304.462 358.161L313.727 361.924ZM304.243 355.042H309.095V365.042H304.243V355.042ZM302.618 354.761C303.139 354.947 303.689 355.042 304.243 355.042V365.042C302.542 365.042 300.854 364.75 299.253 364.178L302.618 354.761ZM302.482 354.712L302.618 354.761L299.253 364.178L299.117 364.129L302.482 354.712ZM297.741 346.205C296.966 349.828 298.993 353.465 302.482 354.712L299.117 364.129C290.908 361.195 286.138 352.638 287.962 344.113L297.741 346.205ZM298.471 342.792L297.741 346.205L287.962 344.113L288.693 340.7L298.471 342.792ZM305.3 328.826C301.917 332.853 299.572 337.648 298.471 342.792L288.693 340.7C290.135 333.958 293.209 327.672 297.644 322.393L305.3 328.826ZM317.841 313.901L305.3 328.826L297.644 322.393L310.185 307.468L317.841 313.901ZM312.204 304.787C317.496 303.516 321.342 309.734 317.841 313.901L310.185 307.468C307.48 310.687 310.452 315.493 314.54 314.51L312.204 304.787ZM304.404 306.661L312.204 304.787L314.54 314.51L306.74 316.385L304.404 306.661ZM292.098 306.889C296.168 307.709 300.367 307.631 304.404 306.661L306.74 316.385C301.289 317.694 295.618 317.799 290.123 316.692L292.098 306.889ZM288.753 306.215L292.098 306.889L290.123 316.692L286.778 316.018L288.753 306.215ZM285.442 306.117H287.766V316.117H285.442V306.117ZM276.976 300.471C278.399 303.889 281.739 306.117 285.442 306.117V316.117C277.7 316.117 270.718 311.46 267.744 304.313L276.976 300.471ZM274.189 286.52C274.189 291.309 275.137 296.05 276.976 300.471L267.744 304.313C265.397 298.674 264.189 292.627 264.189 286.52H274.189ZM274.189 284.406V286.52H264.189V284.406H274.189ZM279.428 269.797C276.041 273.912 274.189 279.076 274.189 284.406H264.189C264.189 276.758 266.847 269.347 271.707 263.442L279.428 269.797ZM281.017 267.867L279.428 269.797L271.707 263.442L273.296 261.512L281.017 267.867Z" fill="#281214" mask="url(#path-2-inside-1_227_166)"/>
<path d="M286.81 262.433C283.348 261.59 279.708 262.803 277.443 265.555L276.204 267.061C271.713 272.517 269.576 279.535 270.264 286.568L270.589 289.896C270.826 292.314 271.261 294.709 271.891 297.055L272.971 301.08C274.667 307.398 280.993 311.3 287.4 309.98V309.98L297.713 279.429L296.624 272.977C295.753 267.817 291.894 263.671 286.81 262.433V262.433Z" fill="#5D3A2C"/>
<path d="M440.482 291.24C439.034 285.451 434.35 281.034 428.486 279.927V279.927C425.329 279.331 422.064 279.952 419.346 281.664L412.465 286L398.088 316L406.485 321.827C409.977 324.25 414.034 325.735 418.265 326.14V326.14C423.921 326.68 429.495 324.488 433.267 320.239L433.674 319.78C438.535 314.305 441.22 307.238 441.22 299.916V295.825C441.22 294.74 441.087 293.659 440.823 292.606L440.482 291.24Z" fill="#5D3A2C"/>
<path d="M373.737 367.238L366.863 368.195C361.745 368.907 356.552 368.884 351.44 368.127L345.434 367.238L337.036 372.563C333.299 374.933 330.405 378.481 328.811 382.608V382.608C327.596 385.754 328.414 389.357 330.894 391.641V391.641C333.428 393.976 336.883 395.037 340.291 394.528L343.831 393.999C350.627 392.984 357.03 390.175 362.379 385.861L367.119 382.038C370.318 379.458 372.435 375.775 373.055 371.713L373.737 367.238Z" fill="#5D3A2C"/>
<path d="M338.139 350.378C336.715 347.729 334.18 345.855 331.229 345.271V345.271C330.042 345.036 328.813 345.115 327.666 345.5L326.441 345.912C321.223 347.665 316.861 351.329 314.234 356.166L309.186 365.462C307.275 368.979 307.985 373.344 310.912 376.075V376.075C313.3 378.304 316.88 378.674 319.673 376.979L325.886 373.212C330.189 370.602 333.9 367.121 336.779 362.993V362.993C338.414 360.648 339.291 357.858 339.291 355V354.457C339.291 353.185 338.975 351.934 338.373 350.814L338.139 350.378Z" fill="#5D3A2C"/>
<mask id="path-8-inside-2_227_166" fill="white">
<path fill-rule="evenodd" clip-rule="evenodd" d="M277.157 264.689C279.597 261.725 283.518 260.418 287.249 261.326C292.16 262.522 296.056 266.254 297.462 271.11L299.488 278.108H302.788C306.318 278.108 309.74 276.894 312.481 274.67L319.434 269.028L356.075 282.595L425.408 271.378L421.436 279.575C424.32 278.172 427.651 277.86 430.792 278.763C436.274 280.337 440.478 284.752 441.782 290.304L442.245 292.273C442.502 293.366 442.632 294.485 442.632 295.607V299.769C442.632 307.17 440.035 314.337 435.295 320.02L433.831 321.776C430.966 325.212 426.857 327.371 422.403 327.783C417.17 328.266 411.926 326.987 407.504 324.147L401.658 320.393L380.526 364.008C379.52 366.084 378.072 367.84 376.336 369.196C376.043 373.75 373.867 377.997 370.303 380.897L361.934 387.707C356.114 392.442 349.007 395.322 341.533 395.973L338.129 396.27C334.383 396.596 330.709 395.095 328.263 392.237C326.569 390.258 325.889 387.605 326.421 385.055L326.458 384.879C327.649 379.173 331.081 374.184 335.984 371.03L341.772 367.308L338.491 364.77C335.331 367.739 331.939 370.456 328.346 372.894L322.105 377.129C318.282 379.722 313.146 379.179 309.95 375.843C306.843 372.599 305.931 367.832 307.622 363.67L309.095 360.042H304.243C303.115 360.042 301.997 359.848 300.935 359.469L300.799 359.421C294.95 357.33 291.552 351.233 292.852 345.159L293.582 341.746C294.853 335.803 297.563 330.262 301.472 325.609L314.013 310.684C314.411 310.211 313.974 309.504 313.372 309.649L305.572 311.523C300.828 312.663 295.893 312.754 291.11 311.791L287.766 311.117H285.442C279.719 311.117 274.559 307.675 272.36 302.392C270.267 297.362 269.189 291.968 269.189 286.52V284.406C269.189 277.917 271.444 271.63 275.568 266.62L277.157 264.689Z"/>
</mask>
<path d="M287.249 261.326L288.431 256.468L288.431 256.468L287.249 261.326ZM277.157 264.689L281.017 267.867L281.017 267.867L277.157 264.689ZM297.462 271.11L292.659 272.5L292.659 272.5L297.462 271.11ZM299.488 278.108V283.108H295.73L294.685 279.498L299.488 278.108ZM312.481 274.67L315.631 278.553L315.631 278.553L312.481 274.67ZM319.434 269.028L316.283 265.145L318.497 263.349L321.17 264.339L319.434 269.028ZM356.075 282.595L356.873 287.53L355.574 287.741L354.339 287.283L356.075 282.595ZM425.408 271.378L424.609 266.442L434.099 264.907L429.908 273.558L425.408 271.378ZM421.436 279.575L423.624 284.071L410.641 290.389L416.937 277.395L421.436 279.575ZM430.792 278.763L432.172 273.957L432.172 273.957L430.792 278.763ZM441.782 290.304L446.65 289.161L446.65 289.161L441.782 290.304ZM442.245 292.273L437.378 293.417L437.378 293.417L442.245 292.273ZM435.295 320.02L439.135 323.223L439.135 323.223L435.295 320.02ZM433.831 321.776L429.991 318.574L429.991 318.574L433.831 321.776ZM422.403 327.783L421.943 322.804L421.943 322.804L422.403 327.783ZM407.504 324.147L410.206 319.94L410.206 319.94L407.504 324.147ZM401.658 320.393L397.159 318.213L399.617 313.14L404.36 316.186L401.658 320.393ZM380.526 364.008L376.026 361.827L376.026 361.827L380.526 364.008ZM376.336 369.196L371.347 368.874L371.491 366.636L373.259 365.255L376.336 369.196ZM370.303 380.897L367.147 377.019L367.147 377.018L370.303 380.897ZM361.934 387.707L365.09 391.585L365.09 391.585L361.934 387.707ZM341.533 395.973L341.099 390.992L341.099 390.992L341.533 395.973ZM338.129 396.27L338.563 401.251L338.563 401.251L338.129 396.27ZM328.263 392.237L332.062 388.986L332.062 388.986L328.263 392.237ZM326.421 385.055L331.316 386.077L331.316 386.077L326.421 385.055ZM326.458 384.879L321.563 383.858L321.564 383.858L326.458 384.879ZM335.984 371.03L333.279 366.825L333.279 366.825L335.984 371.03ZM341.772 367.308L344.831 363.353L350.43 367.684L344.476 371.513L341.772 367.308ZM338.491 364.77L335.067 361.126L338.175 358.205L341.55 360.815L338.491 364.77ZM328.346 372.894L325.539 368.756L325.539 368.756L328.346 372.894ZM322.105 377.129L324.912 381.266L324.912 381.266L322.105 377.129ZM309.95 375.843L313.561 372.384L313.561 372.384L309.95 375.843ZM307.622 363.67L312.254 365.552L312.254 365.552L307.622 363.67ZM309.095 360.042V355.042H316.522L313.727 361.924L309.095 360.042ZM300.935 359.469L299.253 364.178L299.253 364.178L300.935 359.469ZM300.799 359.421L302.482 354.712L302.482 354.712L300.799 359.421ZM292.852 345.159L287.962 344.113L287.962 344.113L292.852 345.159ZM293.582 341.746L298.471 342.792L298.471 342.792L293.582 341.746ZM301.472 325.609L305.3 328.826L305.3 328.826L301.472 325.609ZM314.013 310.684L317.841 313.901L317.841 313.901L314.013 310.684ZM313.372 309.649L312.204 304.787L312.204 304.787L313.372 309.649ZM305.572 311.523L304.404 306.661L304.404 306.661L305.572 311.523ZM291.11 311.791L292.098 306.889L292.098 306.889L291.11 311.791ZM287.766 311.117V306.117H288.265L288.753 306.215L287.766 311.117ZM272.36 302.392L276.976 300.471L276.976 300.471L272.36 302.392ZM275.568 266.62L271.707 263.442L271.707 263.442L275.568 266.62ZM286.066 266.184C284.2 265.73 282.238 266.384 281.017 267.867L273.296 261.512C276.955 257.066 282.836 255.106 288.431 256.468L286.066 266.184ZM292.659 272.5C291.752 269.366 289.236 266.956 286.066 266.184L288.431 256.468C295.084 258.088 300.361 263.143 302.265 269.719L292.659 272.5ZM294.685 279.498L292.659 272.5L302.265 269.719L304.291 276.718L294.685 279.498ZM302.788 283.108H299.488V273.108H302.788V283.108ZM315.631 278.553C311.999 281.5 307.465 283.108 302.788 283.108V273.108C305.17 273.108 307.48 272.289 309.33 270.788L315.631 278.553ZM322.584 272.91L315.631 278.553L309.33 270.788L316.283 265.145L322.584 272.91ZM354.339 287.283L317.698 273.717L321.17 264.339L357.811 277.906L354.339 287.283ZM426.206 276.314L356.873 287.53L355.276 277.659L424.609 266.442L426.206 276.314ZM416.937 277.395L420.908 269.198L429.908 273.558L425.936 281.755L416.937 277.395ZM429.412 283.568C427.469 283.01 425.408 283.203 423.624 284.071L419.249 275.079C423.231 273.141 427.832 272.711 432.172 273.957L429.412 283.568ZM436.915 291.448C436.024 287.657 433.154 284.643 429.412 283.568L432.172 273.957C439.394 276.031 444.931 281.846 446.65 289.161L436.915 291.448ZM437.378 293.417L436.915 291.448L446.65 289.161L447.113 291.13L437.378 293.417ZM437.632 295.607C437.632 294.87 437.546 294.135 437.378 293.417L447.113 291.13C447.457 292.597 447.632 294.1 447.632 295.607H437.632ZM437.632 299.769V295.607H447.632V299.769H437.632ZM431.455 316.818C435.446 312.033 437.632 306 437.632 299.769H447.632C447.632 308.34 444.625 316.64 439.135 323.223L431.455 316.818ZM429.991 318.574L431.455 316.818L439.135 323.223L437.671 324.979L429.991 318.574ZM421.943 322.804C425.079 322.514 427.973 320.993 429.991 318.574L437.671 324.979C433.959 329.43 428.634 332.228 422.863 332.762L421.943 322.804ZM410.206 319.94C413.689 322.177 417.821 323.185 421.943 322.804L422.863 332.762C416.52 333.348 410.163 331.797 404.803 328.355L410.206 319.94ZM404.36 316.186L410.206 319.94L404.803 328.355L398.957 324.601L404.36 316.186ZM376.026 361.827L397.159 318.213L406.158 322.573L385.025 366.188L376.026 361.827ZM373.259 365.255C374.405 364.36 375.36 363.202 376.026 361.827L385.025 366.188C383.679 368.966 381.74 371.32 379.414 373.137L373.259 365.255ZM367.147 377.018C369.628 375 371.142 372.044 371.347 368.874L381.326 369.518C380.943 375.456 378.106 380.993 373.459 384.775L367.147 377.018ZM358.778 383.828L367.147 377.019L373.459 384.775L365.09 391.585L358.778 383.828ZM341.099 390.992C347.576 390.428 353.735 387.932 358.778 383.828L365.09 391.585C358.494 396.952 350.439 400.216 341.967 400.955L341.099 390.992ZM337.695 391.289L341.099 390.992L341.967 400.955L338.563 401.251L337.695 391.289ZM332.062 388.986C333.458 390.618 335.556 391.475 337.696 391.289L338.563 401.251C333.209 401.718 327.959 399.572 324.464 395.488L332.062 388.986ZM331.316 386.077C331.1 387.11 331.376 388.184 332.062 388.986L324.464 395.488C321.763 392.331 320.678 388.101 321.527 384.033L331.316 386.077ZM331.353 385.901L331.316 386.077L321.527 384.033L321.563 383.858L331.353 385.901ZM338.689 375.236C334.913 377.664 332.27 381.506 331.353 385.901L321.564 383.858C323.028 376.839 327.249 370.703 333.279 366.825L338.689 375.236ZM344.476 371.513L338.689 375.236L333.279 366.825L339.067 363.103L344.476 371.513ZM341.55 360.815L344.831 363.353L338.712 371.263L335.431 368.725L341.55 360.815ZM325.539 368.756C328.913 366.467 332.099 363.915 335.067 361.126L341.915 368.414C338.563 371.563 334.965 374.445 331.154 377.031L325.539 368.756ZM319.298 372.991L325.539 368.756L331.154 377.031L324.912 381.266L319.298 372.991ZM313.561 372.384C315.069 373.959 317.493 374.215 319.298 372.991L324.912 381.266C319.071 385.23 311.222 384.399 306.34 379.302L313.561 372.384ZM312.254 365.552C311.305 367.888 311.817 370.563 313.561 372.384L306.34 379.302C301.869 374.634 300.557 367.777 302.989 361.789L312.254 365.552ZM313.727 361.924L312.254 365.552L302.989 361.789L304.462 358.161L313.727 361.924ZM304.243 355.042H309.095V365.042H304.243V355.042ZM302.618 354.761C303.139 354.947 303.689 355.042 304.243 355.042V365.042C302.542 365.042 300.854 364.75 299.253 364.178L302.618 354.761ZM302.482 354.712L302.618 354.761L299.253 364.178L299.117 364.129L302.482 354.712ZM297.741 346.205C296.966 349.828 298.993 353.465 302.482 354.712L299.117 364.129C290.908 361.195 286.138 352.638 287.962 344.113L297.741 346.205ZM298.471 342.792L297.741 346.205L287.962 344.113L288.693 340.7L298.471 342.792ZM305.3 328.826C301.917 332.853 299.572 337.648 298.471 342.792L288.693 340.7C290.135 333.958 293.209 327.672 297.644 322.393L305.3 328.826ZM317.841 313.901L305.3 328.826L297.644 322.393L310.185 307.468L317.841 313.901ZM312.204 304.787C317.496 303.516 321.342 309.734 317.841 313.901L310.185 307.468C307.48 310.687 310.452 315.493 314.54 314.51L312.204 304.787ZM304.404 306.661L312.204 304.787L314.54 314.51L306.74 316.385L304.404 306.661ZM292.098 306.889C296.168 307.709 300.367 307.631 304.404 306.661L306.74 316.385C301.289 317.694 295.618 317.799 290.123 316.692L292.098 306.889ZM288.753 306.215L292.098 306.889L290.123 316.692L286.778 316.018L288.753 306.215ZM285.442 306.117H287.766V316.117H285.442V306.117ZM276.976 300.471C278.399 303.889 281.739 306.117 285.442 306.117V316.117C277.7 316.117 270.718 311.46 267.744 304.313L276.976 300.471ZM274.189 286.52C274.189 291.309 275.137 296.05 276.976 300.471L267.744 304.313C265.397 298.674 264.189 292.627 264.189 286.52H274.189ZM274.189 284.406V286.52H264.189V284.406H274.189ZM279.428 269.797C276.041 273.912 274.189 279.076 274.189 284.406H264.189C264.189 276.758 266.847 269.347 271.707 263.442L279.428 269.797ZM281.017 267.867L279.428 269.797L271.707 263.442L273.296 261.512L281.017 267.867Z" fill="#281214" mask="url(#path-8-inside-2_227_166)"/>
<path d="M349.26 342.669L349.847 340.466C351.16 335.546 349.371 330.364 345.312 327.323L344.097 326.413C342.743 325.399 341.141 324.754 339.45 324.542V324.542C332.875 323.715 326.456 327.178 323.541 333.123L322.613 335.014" stroke="#281214" stroke-width="5" stroke-linecap="round"/>
<path d="M338.193 362.965L339.694 361.286C342.119 358.572 344.156 355.55 345.748 352.303L346.22 351.34M309.908 359.625L311.414 357.94C313.836 355.23 315.87 352.213 317.459 348.971L317.935 348.001" stroke="#281214" stroke-width="5" stroke-linecap="round"/>
<path d="M388.378 306.361L423.221 268.664L325.913 283.519C330.054 299.275 340.107 312.867 354.027 321.436C356.11 322.718 358.617 323.118 360.996 322.549L362.977 322.075C366.538 321.222 369.932 319.778 373.016 317.803L380.239 313.178C383.231 311.261 385.966 308.971 388.378 306.361Z" fill="#05A3FF" stroke="#281214" stroke-width="5"/>
<mask id="path-13-inside-3_227_166" fill="white">
<path fill-rule="evenodd" clip-rule="evenodd" d="M398.894 161.22C397.745 158.985 395.443 157.58 392.931 157.58H392.34C388.063 157.58 383.967 159.305 380.979 162.365L380.469 162.887C377.363 166.068 375.068 169.949 373.778 174.204L373.046 176.617C371.438 181.92 372.092 187.652 374.854 192.456L375.052 192.8C370.558 194.36 366.162 196.209 361.893 198.338L352.373 203.087L339.845 210.006C329.068 215.957 320.726 225.507 316.278 236.987L315.809 238.196C313.775 243.445 312.731 249.026 312.731 254.655C312.731 260.044 313.688 265.39 315.556 270.445L315.781 271.054C322.601 289.508 339.763 302.121 359.411 303.121L362.402 303.273C373.523 303.839 384.545 300.936 393.944 294.963L399.292 291.565C401.67 290.054 403.929 288.363 406.049 286.506L421.055 273.362C425.725 269.272 429.671 264.422 432.725 259.017L433.556 257.546C437.782 250.068 440.003 241.624 440.003 233.034V232.506C440.003 228.571 439.623 224.644 438.869 220.781L438.659 219.706L443.89 210.279C447.598 203.598 449.053 195.899 448.039 188.325C447.211 182.136 445.137 176.179 441.942 170.814L441.568 170.185L439.017 165.95C436.108 161.123 428.884 161.902 427.072 167.238L418.815 191.554C413.069 188.556 406.636 187.1 400.153 187.334V166.423C400.153 164.613 399.721 162.829 398.894 161.22Z"/>
</mask>
<path fill-rule="evenodd" clip-rule="evenodd" d="M398.894 161.22C397.745 158.985 395.443 157.58 392.931 157.58H392.34C388.063 157.58 383.967 159.305 380.979 162.365L380.469 162.887C377.363 166.068 375.068 169.949 373.778 174.204L373.046 176.617C371.438 181.92 372.092 187.652 374.854 192.456L375.052 192.8C370.558 194.36 366.162 196.209 361.893 198.338L352.373 203.087L339.845 210.006C329.068 215.957 320.726 225.507 316.278 236.987L315.809 238.196C313.775 243.445 312.731 249.026 312.731 254.655C312.731 260.044 313.688 265.39 315.556 270.445L315.781 271.054C322.601 289.508 339.763 302.121 359.411 303.121L362.402 303.273C373.523 303.839 384.545 300.936 393.944 294.963L399.292 291.565C401.67 290.054 403.929 288.363 406.049 286.506L421.055 273.362C425.725 269.272 429.671 264.422 432.725 259.017L433.556 257.546C437.782 250.068 440.003 241.624 440.003 233.034V232.506C440.003 228.571 439.623 224.644 438.869 220.781L438.659 219.706L443.89 210.279C447.598 203.598 449.053 195.899 448.039 188.325C447.211 182.136 445.137 176.179 441.942 170.814L441.568 170.185L439.017 165.95C436.108 161.123 428.884 161.902 427.072 167.238L418.815 191.554C413.069 188.556 406.636 187.1 400.153 187.334V166.423C400.153 164.613 399.721 162.829 398.894 161.22Z" fill="#B89061"/>
<path d="M398.894 161.22L394.447 163.505L394.447 163.505L398.894 161.22ZM380.979 162.365L377.402 158.872L377.402 158.872L380.979 162.365ZM380.469 162.887L384.046 166.381L384.046 166.381L380.469 162.887ZM373.778 174.204L378.562 175.655L378.562 175.655L373.778 174.204ZM373.046 176.617L377.831 178.068L377.831 178.068L373.046 176.617ZM374.854 192.456L370.52 194.948L370.52 194.948L374.854 192.456ZM375.052 192.8L379.387 190.308L382.398 195.544L376.691 197.524L375.052 192.8ZM361.893 198.338L364.125 202.813L364.125 202.813L361.893 198.338ZM352.373 203.087L349.956 198.711L350.048 198.66L350.141 198.613L352.373 203.087ZM339.845 210.006L337.428 205.629L337.428 205.629L339.845 210.006ZM316.278 236.987L311.616 235.18L311.616 235.18L316.278 236.987ZM315.809 238.196L320.471 240.003L320.471 240.003L315.809 238.196ZM315.556 270.445L320.246 268.711L320.246 268.712L315.556 270.445ZM315.781 271.054L311.091 272.787L311.091 272.787L315.781 271.054ZM359.411 303.121L359.157 308.115L359.157 308.115L359.411 303.121ZM362.402 303.273L362.656 298.28L362.656 298.28L362.402 303.273ZM393.944 294.963L391.262 290.743L391.262 290.743L393.944 294.963ZM399.292 291.565L401.974 295.785L401.974 295.785L399.292 291.565ZM406.049 286.506L402.754 282.745L402.754 282.745L406.049 286.506ZM421.055 273.362L424.35 277.123L424.35 277.123L421.055 273.362ZM432.725 259.017L428.372 256.557L428.372 256.557L432.725 259.017ZM433.556 257.546L437.909 260.006L437.909 260.006L433.556 257.546ZM438.869 220.781L433.962 221.74L433.962 221.74L438.869 220.781ZM438.659 219.706L433.752 220.664L433.402 218.874L434.287 217.279L438.659 219.706ZM443.89 210.279L448.262 212.706L448.262 212.706L443.89 210.279ZM448.039 188.325L443.084 188.988L443.084 188.988L448.039 188.325ZM441.942 170.814L446.238 168.255L446.238 168.255L441.942 170.814ZM441.568 170.185L445.851 167.605L445.857 167.616L445.864 167.627L441.568 170.185ZM439.017 165.95L443.299 163.37L443.299 163.37L439.017 165.95ZM427.072 167.238L422.337 165.631L422.337 165.631L427.072 167.238ZM418.815 191.554L423.55 193.161L421.674 198.685L416.503 195.987L418.815 191.554ZM400.153 187.334L400.333 192.331L395.153 192.518V187.334H400.153ZM392.931 152.58C397.317 152.58 401.335 155.033 403.341 158.934L394.447 163.505C394.155 162.937 393.569 162.58 392.931 162.58V152.58ZM392.34 152.58H392.931V162.58H392.34V152.58ZM377.402 158.872C381.331 154.848 386.717 152.58 392.34 152.58V162.58C389.41 162.58 386.604 163.762 384.556 165.858L377.402 158.872ZM376.892 159.394L377.402 158.872L384.556 165.858L384.046 166.381L376.892 159.394ZM368.993 172.753C370.516 167.73 373.225 163.149 376.892 159.394L384.046 166.381C381.501 168.987 379.62 172.168 378.562 175.655L368.993 172.753ZM368.261 175.165L368.993 172.753L378.562 175.655L377.831 178.068L368.261 175.165ZM370.52 194.948C367.07 188.948 366.252 181.789 368.261 175.165L377.831 178.068C376.623 182.05 377.114 186.355 379.189 189.963L370.52 194.948ZM370.718 195.293L370.52 194.948L379.189 189.963L379.387 190.308L370.718 195.293ZM376.691 197.524C372.399 199.013 368.202 200.779 364.125 202.813L359.661 193.864C364.122 191.639 368.716 189.706 373.413 188.077L376.691 197.524ZM364.125 202.813L354.605 207.562L350.141 198.613L359.661 193.864L364.125 202.813ZM354.79 207.464L342.262 214.383L337.428 205.629L349.956 198.711L354.79 207.464ZM342.262 214.383C332.512 219.767 324.965 228.408 320.94 238.793L311.616 235.18C316.488 222.607 325.624 212.147 337.428 205.629L342.262 214.383ZM320.94 238.793L320.471 240.003L311.147 236.39L311.616 235.18L320.94 238.793ZM320.471 240.003C318.66 244.676 317.731 249.643 317.731 254.655H307.731C307.731 248.408 308.889 242.215 311.147 236.39L320.471 240.003ZM317.731 254.655C317.731 259.452 318.583 264.212 320.246 268.711L310.866 272.178C308.793 266.568 307.731 260.635 307.731 254.655H317.731ZM320.246 268.712L320.471 269.321L311.091 272.787L310.866 272.178L320.246 268.712ZM320.471 269.321C326.598 285.898 342.015 297.229 359.665 298.128L359.157 308.115C337.511 307.013 318.605 293.117 311.091 272.787L320.471 269.321ZM359.665 298.128L362.656 298.28L362.148 308.267L359.157 308.115L359.665 298.128ZM362.656 298.28C372.742 298.793 382.739 296.16 391.262 290.743L396.625 299.184C386.352 305.711 374.304 308.886 362.148 308.267L362.656 298.28ZM391.262 290.743L396.611 287.345L401.974 295.785L396.625 299.184L391.262 290.743ZM396.611 287.345C398.773 285.971 400.827 284.433 402.754 282.745L409.343 290.267C407.031 292.292 404.568 294.137 401.974 295.785L396.611 287.345ZM402.754 282.745L417.761 269.601L424.35 277.123L409.343 290.267L402.754 282.745ZM417.761 269.601C422.007 265.881 425.595 261.471 428.372 256.557L437.078 261.477C433.747 267.372 429.443 272.662 424.35 277.123L417.761 269.601ZM428.372 256.557L429.203 255.086L437.909 260.006L437.078 261.477L428.372 256.557ZM429.203 255.086C433.005 248.358 435.003 240.762 435.003 233.034H445.003C445.003 242.486 442.559 251.777 437.909 260.006L429.203 255.086ZM435.003 233.034V232.506H445.003V233.034H435.003ZM435.003 232.506C435.003 228.892 434.654 225.287 433.962 221.74L443.776 219.823C444.592 224.001 445.003 228.249 445.003 232.506H435.003ZM433.962 221.74L433.752 220.664L443.566 218.747L443.776 219.823L433.962 221.74ZM448.262 212.706L443.031 222.132L434.287 217.279L439.518 207.853L448.262 212.706ZM452.995 187.662C454.152 196.301 452.492 205.084 448.262 212.706L439.518 207.853C442.704 202.112 443.955 195.496 443.084 188.988L452.995 187.662ZM446.238 168.255C449.779 174.201 452.077 180.803 452.995 187.662L443.084 188.988C442.345 183.469 440.495 178.156 437.646 173.372L446.238 168.255ZM445.864 167.627L446.238 168.255L437.646 173.372L437.272 172.743L445.864 167.627ZM443.299 163.37L445.851 167.605L437.285 172.765L434.734 168.53L443.299 163.37ZM422.337 165.631C425.517 156.266 438.196 154.899 443.299 163.37L434.734 168.53C434.021 167.347 432.25 167.538 431.806 168.846L422.337 165.631ZM414.081 189.946L422.337 165.631L431.806 168.846L423.55 193.161L414.081 189.946ZM416.503 195.987C411.524 193.39 405.95 192.128 400.333 192.331L399.972 182.337C407.322 182.072 414.614 183.723 421.128 187.121L416.503 195.987ZM405.153 166.423V187.334H395.153V166.423H405.153ZM403.341 158.934C404.531 161.251 405.153 163.818 405.153 166.423H395.153C395.153 165.408 394.911 164.408 394.447 163.505L403.341 158.934Z" fill="#281214" mask="url(#path-13-inside-3_227_166)"/>
<path d="M370.631 262.141C370.631 257.461 366.687 253.749 362.015 254.032L356.874 254.345L349.642 253.943C345.397 253.707 341.825 257.086 341.825 261.338V284.729C341.825 285.974 341.919 287.216 342.105 288.447V288.447C343.002 294.359 347.318 299.178 353.096 300.719L359.772 302.5L366.808 300.436C371.188 299.151 373.912 294.79 373.147 290.29L371.7 281.784C370.989 277.602 370.631 273.367 370.631 269.125V262.141Z" fill="#8C6748"/>
<path d="M356.291 262.109V262.109C355.363 271.967 356.088 281.91 358.436 291.529L358.795 292.999" stroke="#281214" stroke-width="4" stroke-linecap="round"/>
<path d="M342.524 256.775L345.044 259.119C347.034 260.971 349.652 262 352.371 262H359.174C361.835 262 364.403 261.013 366.379 259.23L369.136 256.744C369.144 256.736 369.15 256.73 369.152 256.727C369.152 256.722 369.152 256.713 369.147 256.7C369.143 256.687 369.138 256.679 369.135 256.676C369.131 256.675 369.124 256.673 369.112 256.672L361.88 256H350.609L342.549 256.704C342.537 256.705 342.53 256.706 342.526 256.707C342.523 256.711 342.518 256.719 342.513 256.732C342.509 256.744 342.508 256.754 342.508 256.758C342.511 256.762 342.516 256.767 342.524 256.775ZM369.155 256.723C369.155 256.723 369.155 256.723 369.155 256.723L369.155 256.723Z" fill="#5D3A2C" stroke="#281214" stroke-width="4"/>
<path d="M440.014 170.832L438.655 168.554C435.567 163.375 427.727 164.682 426.486 170.583L425.537 175.095L419.342 197V197C426.197 201.833 431.068 208.987 433.052 217.136L434.479 223L441.453 211.944C445.781 205.083 447.567 196.923 446.502 188.882V188.882C445.707 182.885 443.714 177.109 440.642 171.898L440.014 170.832Z" fill="#5D3A2C"/>
<path d="M398.649 162.663C397.617 159.905 394.877 158.169 391.942 158.413L391.358 158.462C388.128 158.731 385.069 160.024 382.625 162.153L382.239 162.489C377.837 166.324 374.83 171.509 373.689 177.234L373.366 178.856C372.468 183.359 373.141 188.034 375.272 192.102L377.838 197L388.58 194L399.811 192L399.356 166.381C399.334 165.11 399.095 163.853 398.649 162.663V162.663Z" fill="#5D3A2C"/>
<mask id="path-20-inside-4_227_166" fill="white">
<path fill-rule="evenodd" clip-rule="evenodd" d="M398.89 161.22C397.742 158.985 395.44 157.58 392.927 157.58H392.337C388.06 157.58 383.964 159.305 380.976 162.365L380.466 162.887C377.36 166.068 375.064 169.949 373.774 174.204L373.042 176.617C371.434 181.92 372.088 187.652 374.851 192.456L375.049 192.8C370.554 194.36 366.159 196.209 361.89 198.338L352.37 203.087L339.842 210.006C329.065 215.957 320.723 225.507 316.274 236.987L315.806 238.196C313.772 243.445 312.728 249.026 312.728 254.655C312.728 260.044 313.684 265.39 315.553 270.445L315.778 271.054C322.598 289.508 339.76 302.121 359.408 303.121L362.399 303.273C373.52 303.839 384.542 300.936 393.941 294.963L399.289 291.565C401.667 290.054 403.926 288.363 406.046 286.506L421.052 273.362C425.722 269.272 429.667 264.422 432.722 259.017L433.553 257.546C437.779 250.068 440 241.624 440 233.034V232.506C440 228.571 439.62 224.644 438.866 220.781L438.655 219.706L443.887 210.279C447.595 203.598 449.05 195.899 448.036 188.325C447.208 182.136 445.134 176.179 441.939 170.814L441.565 170.185L439.013 165.95C436.105 161.123 428.881 161.902 427.069 167.238L418.812 191.554C413.066 188.556 406.633 187.1 400.149 187.334V166.423C400.149 164.613 399.718 162.829 398.89 161.22Z"/>
</mask>
<path d="M398.89 161.22L394.443 163.505L394.443 163.505L398.89 161.22ZM380.976 162.365L377.398 158.872L377.399 158.872L380.976 162.365ZM380.466 162.887L384.043 166.381L384.043 166.381L380.466 162.887ZM373.774 174.204L368.989 172.753L373.774 174.204ZM373.042 176.617L368.258 175.165L368.258 175.165L373.042 176.617ZM374.851 192.456L379.185 189.963L379.185 189.963L374.851 192.456ZM375.049 192.8L379.383 190.308L382.394 195.544L376.688 197.524L375.049 192.8ZM361.89 198.338L359.658 193.864L359.658 193.864L361.89 198.338ZM352.37 203.087L349.953 198.711L350.045 198.66L350.138 198.613L352.37 203.087ZM339.842 210.006L337.425 205.629L337.425 205.629L339.842 210.006ZM316.274 236.987L311.612 235.18L311.612 235.18L316.274 236.987ZM315.806 238.196L320.468 240.003L320.468 240.003L315.806 238.196ZM315.553 270.445L310.863 272.178L310.863 272.178L315.553 270.445ZM315.778 271.054L320.468 269.321L320.468 269.321L315.778 271.054ZM359.408 303.121L359.154 308.115L359.154 308.115L359.408 303.121ZM362.399 303.273L362.653 298.28L362.653 298.28L362.399 303.273ZM393.941 294.963L391.259 290.743L391.259 290.743L393.941 294.963ZM399.289 291.565L401.971 295.785L401.971 295.785L399.289 291.565ZM406.046 286.506L402.751 282.745L402.751 282.745L406.046 286.506ZM421.052 273.362L424.346 277.123L424.346 277.123L421.052 273.362ZM432.722 259.017L428.369 256.557L428.369 256.557L432.722 259.017ZM433.553 257.546L437.906 260.006L437.906 260.006L433.553 257.546ZM438.866 220.781L433.958 221.74L433.958 221.74L438.866 220.781ZM438.655 219.706L433.748 220.664L433.399 218.874L434.284 217.279L438.655 219.706ZM443.887 210.279L448.259 212.706L448.259 212.706L443.887 210.279ZM448.036 188.325L443.08 188.988L443.08 188.988L448.036 188.325ZM441.939 170.814L446.235 168.255L446.235 168.255L441.939 170.814ZM441.565 170.185L445.847 167.605L445.854 167.616L445.861 167.627L441.565 170.185ZM439.013 165.95L443.296 163.37L443.296 163.37L439.013 165.95ZM427.069 167.238L422.334 165.631L422.334 165.631L427.069 167.238ZM418.812 191.554L423.546 193.161L421.671 198.685L416.499 195.987L418.812 191.554ZM400.149 187.334L400.33 192.331L395.149 192.518V187.334H400.149ZM392.927 152.58C397.314 152.58 401.332 155.033 403.337 158.934L394.443 163.505C394.151 162.937 393.566 162.58 392.927 162.58V152.58ZM392.337 152.58H392.927V162.58H392.337V152.58ZM377.399 158.872C381.327 154.848 386.713 152.58 392.337 152.58V162.58C389.406 162.58 386.6 163.762 384.553 165.858L377.399 158.872ZM376.888 159.394L377.398 158.872L384.553 165.858L384.043 166.381L376.888 159.394ZM368.989 172.753C370.512 167.73 373.222 163.149 376.888 159.394L384.043 166.381C381.497 168.987 379.616 172.168 378.559 175.655L368.989 172.753ZM368.258 175.165L368.989 172.753L378.559 175.655L377.827 178.068L368.258 175.165ZM370.516 194.948C367.066 188.948 366.249 181.789 368.258 175.165L377.827 178.068C376.619 182.05 377.111 186.355 379.185 189.963L370.516 194.948ZM370.714 195.293L370.516 194.948L379.185 189.963L379.383 190.308L370.714 195.293ZM376.688 197.524C372.396 199.013 368.198 200.779 364.122 202.813L359.658 193.864C364.119 191.639 368.713 189.706 373.41 188.077L376.688 197.524ZM364.122 202.813L354.602 207.562L350.138 198.613L359.658 193.864L364.122 202.813ZM354.787 207.464L342.259 214.383L337.425 205.629L349.953 198.711L354.787 207.464ZM342.259 214.383C332.509 219.767 324.961 228.408 320.937 238.793L311.612 235.18C316.484 222.607 325.621 212.147 337.425 205.629L342.259 214.383ZM320.937 238.793L320.468 240.003L311.143 236.39L311.612 235.18L320.937 238.793ZM320.468 240.003C318.657 244.676 317.728 249.643 317.728 254.655H307.728C307.728 248.408 308.886 242.215 311.143 236.39L320.468 240.003ZM317.728 254.655C317.728 259.452 318.579 264.212 320.243 268.711L310.863 272.178C308.789 266.568 307.728 260.635 307.728 254.655H317.728ZM320.243 268.711L320.468 269.321L311.088 272.787L310.863 272.178L320.243 268.711ZM320.468 269.321C326.595 285.898 342.011 297.229 359.662 298.128L359.154 308.115C337.508 307.013 318.601 293.117 311.088 272.787L320.468 269.321ZM359.662 298.128L362.653 298.28L362.145 308.267L359.154 308.115L359.662 298.128ZM362.653 298.28C372.739 298.793 382.735 296.16 391.259 290.743L396.622 299.184C386.349 305.711 374.301 308.886 362.145 308.267L362.653 298.28ZM391.259 290.743L396.607 287.345L401.971 295.785L396.622 299.184L391.259 290.743ZM396.607 287.345C398.77 285.971 400.824 284.433 402.751 282.745L409.34 290.267C407.028 292.292 404.564 294.137 401.971 295.785L396.607 287.345ZM402.751 282.745L417.757 269.601L424.346 277.123L409.34 290.267L402.751 282.745ZM417.757 269.601C422.004 265.881 425.591 261.471 428.369 256.557L437.075 261.477C433.743 267.372 429.44 272.662 424.346 277.123L417.757 269.601ZM428.369 256.557L429.2 255.086L437.906 260.006L437.075 261.477L428.369 256.557ZM429.2 255.086C433.002 248.358 435 240.762 435 233.034H445C445 242.486 442.556 251.777 437.906 260.006L429.2 255.086ZM435 233.034V232.506H445V233.034H435ZM435 232.506C435 228.892 434.651 225.287 433.958 221.74L443.773 219.823C444.589 224.001 445 228.249 445 232.506H435ZM433.958 221.74L433.748 220.664L443.563 218.747L443.773 219.823L433.958 221.74ZM448.259 212.706L443.027 222.132L434.284 217.279L439.515 207.853L448.259 212.706ZM452.992 187.662C454.148 196.301 452.488 205.084 448.259 212.706L439.515 207.853C442.701 202.112 443.951 195.496 443.08 188.988L452.992 187.662ZM446.235 168.255C449.775 174.201 452.074 180.803 452.992 187.662L443.08 188.988C442.342 183.469 440.492 178.156 437.643 173.372L446.235 168.255ZM445.861 167.627L446.235 168.255L437.643 173.372L437.269 172.743L445.861 167.627ZM443.296 163.37L445.847 167.605L437.282 172.765L434.73 168.53L443.296 163.37ZM422.334 165.631C425.514 156.266 438.193 154.899 443.296 163.37L434.73 168.53C434.018 167.347 432.247 167.538 431.803 168.846L422.334 165.631ZM414.077 189.946L422.334 165.631L431.803 168.846L423.546 193.161L414.077 189.946ZM416.499 195.987C411.521 193.39 405.947 192.128 400.33 192.331L399.969 182.337C407.319 182.072 414.611 183.723 421.124 187.121L416.499 195.987ZM405.149 166.423V187.334H395.149V166.423H405.149ZM403.337 158.934C404.528 161.251 405.149 163.818 405.149 166.423H395.149C395.149 165.408 394.907 164.408 394.443 163.505L403.337 158.934Z" fill="#281214" mask="url(#path-20-inside-4_227_166)"/>
<path d="M426.046 209.627L396.106 234.945L391.993 238.008C389.474 239.884 385.916 238.754 384.919 235.761V235.761C384.452 234.361 384.532 232.826 385.144 231.475L386.173 229.2" stroke="#281214" stroke-width="4" stroke-linecap="round"/>
<path d="M337.504 203.108L347.623 226.823L349.511 230.869C350.778 233.585 354.344 234.189 356.472 232.048V232.048C357.393 231.123 357.783 229.792 357.508 228.522L356.907 225.754" stroke="#281214" stroke-width="4" stroke-linecap="round"/>
<path d="M339.845 237.309C339.284 244.624 340.951 247.006 343.252 247.192C345.553 247.377 347.616 245.295 348.177 237.979C348.739 230.664 347.03 228.373 344.729 228.188C342.428 228.002 340.406 229.993 339.845 237.309Z" fill="#281214"/>
<ellipse cx="2.78893" cy="2.85011" rx="2.78893" ry="2.85011" transform="matrix(-0.977553 0.210688 0.201334 0.979523 347.786 228.631)" fill="white"/>
<path d="M392.86 244.984C392.353 252.304 394.039 254.673 396.341 254.84C398.643 255.007 400.69 252.909 401.197 245.589C401.704 238.269 399.977 235.992 397.675 235.825C395.373 235.658 393.367 237.664 392.86 244.984Z" fill="#281214"/>
<ellipse cx="2.79328" cy="2.84585" rx="2.79328" ry="2.84585" transform="matrix(-0.942655 -0.333769 -0.319925 0.947443 399.891 237.849)" fill="white"/>
<rect x="324" y="443.671" width="54.6883" height="54.6883" rx="9.11472" transform="rotate(-45 324 443.671)" fill="#AF3FFF"/>
<mask id="mask0_227_166" style="mask-type:alpha" maskUnits="userSpaceOnUse" x="337" y="418" width="51" height="51">
<path d="M337.581 418.581H387.712V468.712H337.581V418.581Z" fill="#D9D9D9"/>
</mask>
<g mask="url(#mask0_227_166)">
<path d="M363.877 461.593C363.153 462.156 362.139 462.156 361.415 461.593L345.909 449.533C344.868 448.723 344.878 447.147 345.929 446.351L346.068 446.246C346.791 445.698 347.791 445.704 348.508 446.26L361.417 456.271C362.14 456.832 363.152 456.832 363.875 456.271L376.784 446.26C377.501 445.704 378.501 445.698 379.224 446.246L379.363 446.351C380.414 447.147 380.424 448.723 379.383 449.533L363.877 461.593ZM363.877 451.044C363.153 451.608 362.139 451.608 361.415 451.044L345.882 438.963C344.85 438.16 344.85 436.6 345.882 435.798L361.415 423.716C362.139 423.153 363.153 423.153 363.877 423.716L379.41 435.798C380.442 436.6 380.442 438.16 379.41 438.963L363.877 451.044ZM361.419 445.726C362.141 446.285 363.151 446.285 363.873 445.726L372.607 438.966C373.645 438.163 373.645 436.597 372.607 435.795L363.873 429.035C363.151 428.476 362.141 428.476 361.419 429.035L352.684 435.795C351.647 436.597 351.647 438.163 352.684 438.966L361.419 445.726Z" fill="#F8F8F8"/>
</g>
<rect x="493" y="275.671" width="54.6883" height="54.6883" rx="9.11472" transform="rotate(-45 493 275.671)" fill="#FF406E"/>
<mask id="mask1_227_166" style="mask-type:alpha" maskUnits="userSpaceOnUse" x="508" y="252" width="47" height="47">
<path d="M508.859 252.859H554.433V298.433H508.859V252.859Z" fill="#D9D9D9"/>
</mask>
<g mask="url(#mask1_227_166)">
<path d="M535.444 292.736C534.906 292.736 534.455 292.554 534.092 292.189C533.727 291.826 533.545 291.375 533.545 290.837C533.545 290.299 533.727 289.848 534.092 289.485C534.455 289.12 534.906 288.938 535.444 288.938C536.932 288.938 538.253 288.646 539.407 288.061C540.563 287.475 541.141 286.818 541.141 286.09C541.141 285.647 540.935 285.235 540.524 284.855C540.369 284.713 540.193 284.575 539.994 284.441C539.46 284.083 539.307 283.319 539.761 282.864L541.115 281.511C541.409 281.216 541.869 281.155 542.211 281.393C542.95 281.907 543.558 282.492 544.037 283.146C544.638 283.969 544.939 284.95 544.939 286.09C544.939 288.178 543.942 289.808 541.948 290.979C539.954 292.15 537.786 292.736 535.444 292.736ZM518.045 277.711C517.752 278.005 517.294 278.067 516.953 277.831C516.31 277.384 515.78 276.885 515.363 276.333C514.825 275.622 514.556 274.76 514.556 273.747C514.556 272.418 515.047 271.302 516.028 270.399C517.009 269.498 518.765 268.493 521.297 267.386C523.291 266.468 524.565 265.827 525.118 265.462C525.672 265.099 525.95 264.695 525.95 264.252C525.95 263.746 525.641 263.303 525.023 262.923C524.406 262.543 523.449 262.353 522.152 262.353C521.361 262.353 520.696 262.448 520.158 262.638C519.62 262.828 519.129 263.145 518.686 263.588C518.338 263.936 517.911 264.142 517.405 264.205C516.898 264.268 516.439 264.126 516.028 263.778C515.616 263.461 515.379 263.05 515.316 262.543C515.252 262.037 515.395 261.578 515.743 261.167C516.344 260.439 517.207 259.822 518.331 259.315C519.454 258.809 520.728 258.556 522.152 258.556C524.43 258.556 526.266 259.07 527.659 260.098C529.051 261.127 529.747 262.512 529.747 264.252C529.747 265.487 529.288 266.594 528.371 267.575C527.453 268.557 525.601 269.648 522.816 270.851C520.981 271.642 519.778 272.228 519.208 272.608C518.639 272.987 518.354 273.367 518.354 273.747C518.354 274.032 518.536 274.309 518.899 274.579C518.978 274.637 519.064 274.695 519.156 274.753C519.71 275.1 519.881 275.876 519.418 276.338L518.045 277.711ZM520.253 288.027C520.253 288.53 520.661 288.938 521.164 288.938H522.532C522.775 288.938 523.008 288.841 523.179 288.669L543.186 268.528C543.54 268.171 543.539 267.596 543.183 267.241L541.814 265.871C541.457 265.514 540.878 265.515 540.523 265.873L520.518 286.013C520.348 286.184 520.253 286.415 520.253 286.655V288.027ZM517.367 292.736C516.863 292.736 516.455 292.328 516.455 291.824V285.042C516.455 284.801 516.55 284.57 516.72 284.399L539.878 261.109C540.59 260.394 541.747 260.392 542.46 261.105L547.952 266.598C548.663 267.308 548.664 268.46 547.956 269.172L524.793 292.467C524.622 292.639 524.389 292.736 524.146 292.736H517.367Z" fill="#F8F8F8"/>
</g>
<rect x="170" y="273.671" width="54.6883" height="54.6883" rx="9.11472" transform="rotate(-45 170 273.671)" fill="#11D4B1"/>
<mask id="mask2_227_166" style="mask-type:alpha" maskUnits="userSpaceOnUse" x="188" y="253" width="42" height="42">
<path d="M188.138 253.139H229.155V294.155H188.138V253.139Z" fill="#D9D9D9"/>
</mask>
<g mask="url(#mask2_227_166)">
<path d="M198.509 270.73L201.841 272.14C202.24 271.342 202.653 270.573 203.08 269.833C203.507 269.092 203.977 268.352 204.49 267.611L202.097 267.141L198.509 270.73ZM204.575 274.276L209.446 279.104C210.642 278.648 211.924 277.95 213.291 277.011C214.659 276.071 215.94 275.002 217.137 273.806C219.131 271.812 220.69 269.598 221.816 267.163C222.941 264.727 223.432 262.484 223.289 260.433C221.238 260.291 218.988 260.782 216.539 261.906C214.089 263.032 211.867 264.592 209.873 266.586C208.677 267.782 207.609 269.064 206.669 270.431C205.729 271.798 205.031 273.08 204.575 274.276ZM212.992 285.214L216.581 281.625L216.111 279.232C215.371 279.745 214.63 280.208 213.89 280.62C213.149 281.034 212.38 281.44 211.582 281.838L212.992 285.214ZM225.048 257.15C225.836 257.222 226.457 257.844 226.53 258.632C226.807 261.617 226.417 264.531 225.362 267.375C224.151 270.637 222.064 273.749 219.102 276.711L219.957 280.941C220.071 281.511 220.042 282.066 219.871 282.608C219.7 283.149 219.415 283.619 219.017 284.017L213.174 289.86C212.535 290.499 211.453 290.289 211.098 289.458L208.25 282.778L201.118 275.647C201.003 275.532 200.867 275.44 200.717 275.376L194.259 272.622C193.429 272.268 193.218 271.188 193.854 270.548L199.662 264.706C200.061 264.307 200.538 264.022 201.094 263.851C201.649 263.68 202.211 263.652 202.781 263.766L207.011 264.62C209.973 261.658 213.078 259.564 216.325 258.34C219.157 257.271 222.064 256.875 225.048 257.15ZM195.56 280.899C196.557 279.902 197.775 279.396 199.213 279.381C200.652 279.367 201.87 279.859 202.866 280.856C203.863 281.853 204.354 283.07 204.34 284.508C204.326 285.947 203.821 287.165 202.824 288.162C202.112 288.874 200.923 289.486 199.257 289.999C197.822 290.44 195.917 290.84 193.543 291.197C192.947 291.286 192.436 290.775 192.526 290.18C192.883 287.805 193.282 285.9 193.723 284.465C194.236 282.8 194.848 281.611 195.56 280.899ZM197.996 283.291C197.711 283.576 197.426 284.096 197.141 284.851C196.856 285.606 196.657 286.367 196.543 287.136C197.312 287.022 198.074 286.831 198.83 286.56C199.584 286.289 200.104 286.011 200.388 285.726C200.73 285.385 200.915 284.972 200.944 284.487C200.972 284.003 200.816 283.59 200.474 283.248C200.132 282.907 199.719 282.743 199.235 282.756C198.751 282.771 198.338 282.949 197.996 283.291Z" fill="#F8F8F8"/>
</g>
<rect x="207.826" y="269.217" width="6.72666" height="6.72666" rx="3.36333" fill="#F8F8F8"/>
<rect x="214.553" y="263.803" width="5.41414" height="5.41414" rx="2.70707" fill="#F8F8F8"/>
<rect x="211" y="165.5" width="54.4472" height="54.4472" rx="9.07454" transform="rotate(-45 211 165.5)" fill="#D41153"/>
<path d="M271.631 159.382C271.631 160.336 270.925 161.143 269.979 161.27L268.014 161.534C267.96 161.678 267.888 161.822 267.798 161.966C267.708 162.11 267.618 162.245 267.528 162.371L268.3 164.189C268.676 165.077 268.33 166.105 267.495 166.586L264.457 168.331C263.622 168.811 262.56 168.593 261.983 167.823L260.808 166.257C260.718 166.275 260.637 166.284 260.565 166.284H260.08C260.008 166.284 259.927 166.275 259.837 166.257L258.665 167.82C258.086 168.591 257.022 168.809 256.187 168.327L253.169 166.584C252.337 166.104 251.993 165.08 252.365 164.195L253.144 162.344C253.036 162.218 252.941 162.087 252.86 161.952C252.779 161.817 252.712 161.678 252.658 161.534L250.668 161.269C249.722 161.143 249.015 160.335 249.015 159.38V155.916C249.015 154.961 249.722 154.153 250.668 154.027L252.658 153.762C252.712 153.618 252.779 153.474 252.86 153.33C252.941 153.186 253.036 153.051 253.144 152.925L252.371 151.103C251.996 150.217 252.34 149.19 253.173 148.709L256.187 146.969C257.022 146.487 258.086 146.704 258.665 147.476L259.837 149.039H260.565C260.637 149.039 260.718 149.048 260.808 149.066L261.979 147.505C262.558 146.732 263.623 146.515 264.459 146.999L267.498 148.759C268.332 149.242 268.674 150.272 268.295 151.157L267.528 152.952C267.618 153.078 267.708 153.208 267.798 153.343C267.888 153.478 267.96 153.618 268.014 153.762L269.979 154.025C270.925 154.153 271.631 154.96 271.631 155.914V159.382ZM268.77 158.565V156.784L265.936 156.379C265.792 155.822 265.581 155.291 265.302 154.787C265.023 154.283 264.668 153.834 264.236 153.438L265.342 150.766L263.777 149.902L262.05 152.169C261.78 152.079 261.501 152.012 261.213 151.967C260.925 151.922 260.628 151.899 260.323 151.899C260.017 151.899 259.72 151.922 259.432 151.967C259.144 152.012 258.865 152.079 258.595 152.169L256.868 149.875L255.303 150.766L256.436 153.411C256.005 153.807 255.64 154.256 255.343 154.76C255.046 155.264 254.835 155.804 254.709 156.379L251.875 156.73V158.538L254.682 158.889C254.826 159.483 255.042 160.032 255.33 160.536C255.618 161.039 255.978 161.498 256.409 161.912L255.303 164.53L256.868 165.42L258.568 163.153C258.856 163.243 259.139 163.311 259.418 163.355C259.697 163.401 259.999 163.423 260.323 163.423C260.628 163.423 260.925 163.401 261.213 163.355C261.501 163.311 261.789 163.243 262.077 163.153L263.777 165.42L265.342 164.53L264.209 161.912C264.641 161.498 265.005 161.035 265.301 160.521C265.599 160.009 265.819 159.465 265.963 158.889L268.77 158.565Z" fill="#F8F8F8"/>
<path d="M243.388 154.33L240.016 154.33C237.063 154.33 234.489 156.336 233.768 159.199L230.141 173.599C229.821 174.868 230.032 176.213 230.725 177.324V177.324C232.001 179.369 234.601 180.151 236.798 179.161V179.161C237.884 178.671 238.754 177.797 239.236 176.708L240.252 174.408C240.862 173.028 242.229 172.138 243.738 172.138L252.555 172.138C253.85 172.138 255.023 172.902 255.545 174.088L256.688 176.683C257.36 178.208 258.783 179.29 260.429 179.55V179.55C261.812 179.768 263.24 179.375 264.308 178.469V178.469C265.673 177.31 266.281 175.489 265.886 173.743L265.349 171.366" stroke="#F8F8F8" stroke-width="3.62982" stroke-linecap="round"/>
<rect width="54.6883" height="54.6883" rx="9.11472" transform="matrix(-0.707107 -0.707107 -0.707107 0.707107 531.341 165.671)" fill="#35E792"/>
<mask id="mask3_227_166" style="mask-type:alpha" maskUnits="userSpaceOnUse" x="468" y="141" width="49" height="49">
<path d="M516.666 141.675H468.814V189.527H516.666V141.675Z" fill="#D9D9D9"/>
</mask>
<g mask="url(#mask3_227_166)">
<path d="M491.7 172.935C492.298 173.533 493.268 173.533 493.866 172.935L500.159 166.641C500.757 166.043 500.757 165.074 500.159 164.476L493.866 158.182C493.268 157.584 492.298 157.584 491.7 158.182L485.407 164.476C484.809 165.074 484.809 166.043 485.407 166.641L491.7 172.935ZM493.324 167.837C493.025 168.136 492.541 168.136 492.242 167.837L490.505 166.1C490.206 165.801 490.206 165.316 490.505 165.017L492.242 163.28C492.541 162.981 493.025 162.981 493.324 163.28L495.061 165.017C495.36 165.316 495.36 165.801 495.061 166.1L493.324 167.837ZM483.03 182.029C483.628 182.627 484.597 182.627 485.195 182.029L487.073 180.151L489.576 182.653C490.469 183.546 491.537 183.993 492.782 183.993C494.028 183.993 495.098 183.546 495.99 182.653L498.493 180.151L500.371 182.029C500.969 182.627 501.938 182.627 502.536 182.029L503.332 181.233C503.93 180.635 503.93 179.666 503.332 179.068L501.454 177.19L504.414 174.229L506.292 176.107C506.89 176.705 507.86 176.705 508.458 176.107L509.253 175.312C509.851 174.714 509.851 173.744 509.253 173.146L507.375 171.269L509.878 168.766C510.771 167.873 511.217 166.804 511.217 165.557C511.217 164.313 510.771 163.244 509.878 162.351L507.375 159.849L509.253 157.971C509.851 157.373 509.851 156.403 509.253 155.805L508.458 155.01C507.86 154.412 506.89 154.412 506.292 155.01L504.414 156.888L501.454 153.927L503.332 152.049C503.93 151.451 503.93 150.482 503.332 149.884L502.536 149.089C501.938 148.491 500.969 148.491 500.371 149.089L498.493 150.967L495.99 148.464C495.098 147.571 494.028 147.124 492.783 147.123C491.538 147.124 490.469 147.571 489.576 148.464L487.073 150.967L485.195 149.089C484.597 148.491 483.628 148.491 483.03 149.089L482.234 149.884C481.636 150.482 481.636 151.451 482.234 152.049L484.112 153.927L481.152 156.888L479.274 155.01C478.676 154.412 477.706 154.412 477.108 155.01L476.313 155.805C475.715 156.403 475.715 157.373 476.313 157.971L478.191 159.849L475.688 162.351C474.796 163.244 474.349 164.313 474.348 165.559C474.349 166.804 474.796 167.873 475.688 168.766L478.191 171.269L476.313 173.146C475.715 173.744 475.715 174.714 476.313 175.312L477.108 176.107C477.706 176.705 478.676 176.705 479.274 176.107L481.152 174.229L484.112 177.19L482.234 179.068C481.636 179.666 481.636 180.635 482.234 181.233L483.03 182.029ZM479.979 166.641C479.381 166.043 479.381 165.074 479.979 164.476L491.7 152.754C492.298 152.156 493.268 152.156 493.866 152.754L505.587 164.476C506.185 165.074 506.185 166.043 505.587 166.641L493.866 178.363C493.268 178.961 492.298 178.961 491.7 178.363L479.979 166.641Z" fill="#F8F8F8"/>
</g>
<rect x="454" y="395.671" width="54.6883" height="54.6883" rx="9.11472" transform="rotate(-45 454 395.671)" fill="#1E6CFF"/>
<mask id="mask4_227_166" style="mask-type:alpha" maskUnits="userSpaceOnUse" x="468" y="371" width="49" height="49">
<rect x="468.675" y="371.675" width="47.8523" height="47.8523" fill="#D9D9D9"/>
</mask>
<g mask="url(#mask4_227_166)">
<path d="M482.632 413.545C479.874 413.545 477.523 412.573 475.579 410.63C473.635 408.685 472.662 406.334 472.662 403.576C472.662 401.15 473.419 399.031 474.931 397.22C476.075 395.85 477.441 394.866 479.032 394.266C479.84 393.961 480.638 394.614 480.638 395.479V396.967C480.638 397.551 480.258 398.056 479.744 398.334C478.975 398.749 478.318 399.334 477.771 400.087C477.024 401.117 476.65 402.28 476.65 403.576C476.65 405.237 477.232 406.65 478.395 407.813C479.558 408.976 480.97 409.557 482.632 409.557C484.293 409.557 485.706 408.976 486.869 407.813C488.032 406.65 488.613 405.237 488.613 403.576V403.405C488.613 402.398 489.429 401.582 490.436 401.582H500.327C500.593 401.283 500.917 401.042 501.3 400.858C501.682 400.676 502.105 400.585 502.57 400.585C503.401 400.585 504.107 400.876 504.688 401.458C505.27 402.039 505.561 402.745 505.561 403.576C505.561 404.407 505.27 405.113 504.688 405.693C504.107 406.276 503.401 406.567 502.57 406.567C502.105 406.567 501.682 406.476 501.3 406.294C500.917 406.11 500.593 405.869 500.327 405.57H492.402C491.936 407.863 490.798 409.765 488.988 411.278C487.176 412.789 485.058 413.545 482.632 413.545ZM502.57 413.545C500.709 413.545 499.023 413.088 497.512 412.173C496.701 411.684 495.984 411.111 495.36 410.455C494.634 409.692 495.263 408.561 496.316 408.561H498.842C499.127 408.561 499.402 408.655 499.647 408.799C500.013 409.015 500.405 409.185 500.826 409.308C501.39 409.474 501.972 409.557 502.57 409.557C504.232 409.557 505.644 408.976 506.807 407.813C507.97 406.65 508.552 405.237 508.552 403.576C508.552 401.914 507.97 400.502 506.807 399.339C505.644 398.176 504.232 397.594 502.57 397.594C501.906 397.594 501.291 397.685 500.726 397.868V397.868C499.805 398.166 498.701 397.975 498.202 397.146L493.05 388.572C492.352 388.439 491.77 388.107 491.305 387.575C490.84 387.044 490.607 386.396 490.607 385.631C490.607 384.801 490.898 384.095 491.48 383.514C492.061 382.932 492.767 382.641 493.598 382.641C494.429 382.641 495.134 382.932 495.715 383.514C496.298 384.095 496.589 384.801 496.589 385.631V386.056C496.589 386.172 496.555 386.313 496.489 386.479L500.826 393.756C501.091 393.69 501.374 393.648 501.673 393.631C501.972 393.615 502.271 393.607 502.57 393.607C505.328 393.607 507.68 394.578 509.624 396.522C511.568 398.466 512.539 400.818 512.539 403.576C512.539 406.334 511.568 408.685 509.624 410.63C507.68 412.573 505.328 413.545 502.57 413.545ZM482.632 406.567C481.801 406.567 481.095 406.276 480.514 405.693C479.932 405.113 479.641 404.407 479.641 403.576C479.641 402.845 479.874 402.213 480.339 401.682C480.804 401.15 481.369 400.801 482.034 400.635L486.719 392.859C485.755 391.962 485 390.89 484.452 389.643C483.903 388.397 483.629 387.06 483.629 385.631C483.629 382.873 484.601 380.522 486.546 378.579C488.489 376.634 490.84 375.662 493.598 375.662C496.356 375.662 498.707 376.634 500.652 378.579C502.267 380.194 503.211 382.09 503.484 384.267C503.578 385.017 502.955 385.631 502.2 385.631H500.947C500.191 385.631 499.599 385.012 499.438 384.274C499.201 383.187 498.667 382.227 497.835 381.394C496.672 380.231 495.259 379.65 493.598 379.65C491.936 379.65 490.524 380.231 489.361 381.394C488.198 382.557 487.616 383.97 487.616 385.631C487.616 387.06 488.048 388.314 488.912 389.394C489.223 389.782 489.564 390.12 489.934 390.408C490.916 391.169 491.544 392.561 490.905 393.626L485.473 402.679C485.539 402.845 485.581 402.994 485.599 403.127C485.614 403.26 485.622 403.41 485.622 403.576C485.622 404.407 485.331 405.113 484.749 405.693C484.168 406.276 483.462 406.567 482.632 406.567Z" fill="#F8F8F8"/>
</g>
<rect x="324" y="113.671" width="54.6883" height="54.6883" rx="9.1147" transform="rotate(-45 324 113.671)" fill="#05A3FF"/>
<mask id="path-49-outside-5_227_166" maskUnits="userSpaceOnUse" x="337.219" y="105.719" width="51" height="16" fill="black">
<rect fill="white" x="337.219" y="105.719" width="51" height="16"/>
<path d="M349.733 106.719C350.165 106.719 350.521 106.86 350.803 107.142C351.085 107.423 351.226 107.788 351.226 108.236V118.755C351.226 119.187 351.085 119.551 350.803 119.85C350.521 120.132 350.165 120.273 349.733 120.273C349.302 120.273 348.946 120.132 348.664 119.85C348.382 119.551 348.241 119.187 348.241 118.755V117.537L348.788 117.761C348.788 117.976 348.672 118.242 348.44 118.557C348.208 118.855 347.893 119.153 347.495 119.452C347.097 119.75 346.625 120.007 346.078 120.223C345.547 120.422 344.967 120.521 344.337 120.521C343.193 120.521 342.157 120.231 341.228 119.651C340.3 119.054 339.562 118.242 339.015 117.214C338.484 116.169 338.219 114.975 338.219 113.632C338.219 112.273 338.484 111.079 339.015 110.051C339.562 109.007 340.291 108.194 341.203 107.614C342.115 107.017 343.127 106.719 344.237 106.719C344.95 106.719 345.605 106.827 346.202 107.042C346.799 107.258 347.313 107.531 347.744 107.863C348.192 108.194 348.531 108.534 348.764 108.882C349.012 109.214 349.137 109.496 349.137 109.728L348.241 110.051V108.236C348.241 107.805 348.382 107.448 348.664 107.166C348.946 106.868 349.302 106.719 349.733 106.719ZM344.71 117.786C345.439 117.786 346.078 117.603 346.625 117.238C347.172 116.874 347.595 116.376 347.893 115.746C348.208 115.116 348.366 114.412 348.366 113.632C348.366 112.837 348.208 112.124 347.893 111.494C347.595 110.864 347.172 110.366 346.625 110.001C346.078 109.637 345.439 109.454 344.71 109.454C343.997 109.454 343.367 109.637 342.82 110.001C342.273 110.366 341.842 110.864 341.527 111.494C341.228 112.124 341.079 112.837 341.079 113.632C341.079 114.412 341.228 115.116 341.527 115.746C341.842 116.376 342.273 116.874 342.82 117.238C343.367 117.603 343.997 117.786 344.71 117.786Z"/>
<path d="M360.376 106.719C361.321 106.719 362.142 106.818 362.838 107.017C363.551 107.216 364.098 107.498 364.479 107.863C364.877 108.211 365.076 108.634 365.076 109.131C365.076 109.463 364.977 109.778 364.778 110.076C364.579 110.358 364.289 110.499 363.907 110.499C363.642 110.499 363.418 110.466 363.236 110.399C363.07 110.317 362.921 110.217 362.788 110.101C362.655 109.985 362.498 109.877 362.316 109.778C362.15 109.678 361.893 109.604 361.545 109.554C361.213 109.488 360.964 109.454 360.799 109.454C359.953 109.454 359.232 109.637 358.635 110.001C358.055 110.366 357.607 110.864 357.292 111.494C356.977 112.107 356.819 112.82 356.819 113.632C356.819 114.428 356.977 115.141 357.292 115.771C357.624 116.385 358.071 116.874 358.635 117.238C359.215 117.603 359.878 117.786 360.624 117.786C361.039 117.786 361.395 117.761 361.694 117.711C361.992 117.661 362.241 117.587 362.44 117.487C362.672 117.355 362.879 117.214 363.062 117.064C363.244 116.915 363.518 116.841 363.882 116.841C364.313 116.841 364.645 116.981 364.877 117.263C365.109 117.529 365.225 117.86 365.225 118.258C365.225 118.673 364.993 119.054 364.529 119.402C364.065 119.734 363.451 120.007 362.689 120.223C361.943 120.422 361.13 120.521 360.251 120.521C358.942 120.521 357.806 120.223 356.844 119.626C355.883 119.012 355.137 118.183 354.606 117.139C354.092 116.094 353.835 114.926 353.835 113.632C353.835 112.273 354.109 111.079 354.656 110.051C355.22 109.007 355.991 108.194 356.969 107.614C357.963 107.017 359.099 106.719 360.376 106.719Z"/>
<path d="M374.366 106.719C375.692 106.719 376.67 107.042 377.3 107.689C377.93 108.319 378.345 109.139 378.544 110.151L378.121 109.927L378.32 109.529C378.519 109.148 378.825 108.741 379.24 108.31C379.654 107.863 380.152 107.49 380.732 107.191C381.329 106.876 381.992 106.719 382.722 106.719C383.915 106.719 384.819 106.976 385.432 107.49C386.062 108.004 386.493 108.692 386.726 109.554C386.958 110.399 387.074 111.344 387.074 112.389V118.755C387.074 119.187 386.933 119.551 386.651 119.85C386.369 120.132 386.013 120.273 385.582 120.273C385.151 120.273 384.794 120.132 384.512 119.85C384.23 119.551 384.089 119.187 384.089 118.755V112.389C384.089 111.842 384.023 111.353 383.89 110.922C383.758 110.474 383.517 110.118 383.169 109.852C382.821 109.587 382.324 109.454 381.677 109.454C381.047 109.454 380.508 109.587 380.061 109.852C379.613 110.118 379.273 110.474 379.041 110.922C378.825 111.353 378.718 111.842 378.718 112.389V118.755C378.718 119.187 378.577 119.551 378.295 119.85C378.013 120.132 377.657 120.273 377.226 120.273C376.794 120.273 376.438 120.132 376.156 119.85C375.874 119.551 375.733 119.187 375.733 118.755V112.389C375.733 111.842 375.667 111.353 375.534 110.922C375.402 110.474 375.161 110.118 374.813 109.852C374.465 109.587 373.968 109.454 373.321 109.454C372.691 109.454 372.152 109.587 371.705 109.852C371.257 110.118 370.917 110.474 370.685 110.922C370.469 111.353 370.362 111.842 370.362 112.389V118.755C370.362 119.187 370.221 119.551 369.939 119.85C369.657 120.132 369.301 120.273 368.869 120.273C368.438 120.273 368.082 120.132 367.8 119.85C367.518 119.551 367.377 119.187 367.377 118.755V108.484C367.377 108.053 367.518 107.697 367.8 107.415C368.082 107.117 368.438 106.967 368.869 106.967C369.301 106.967 369.657 107.117 369.939 107.415C370.221 107.697 370.362 108.053 370.362 108.484V109.554L369.989 109.479C370.138 109.197 370.345 108.899 370.61 108.584C370.876 108.252 371.199 107.946 371.58 107.664C371.962 107.382 372.384 107.158 372.849 106.992C373.313 106.81 373.818 106.719 374.366 106.719Z"/>
</mask>
<path d="M349.733 106.719C350.165 106.719 350.521 106.86 350.803 107.142C351.085 107.423 351.226 107.788 351.226 108.236V118.755C351.226 119.187 351.085 119.551 350.803 119.85C350.521 120.132 350.165 120.273 349.733 120.273C349.302 120.273 348.946 120.132 348.664 119.85C348.382 119.551 348.241 119.187 348.241 118.755V117.537L348.788 117.761C348.788 117.976 348.672 118.242 348.44 118.557C348.208 118.855 347.893 119.153 347.495 119.452C347.097 119.75 346.625 120.007 346.078 120.223C345.547 120.422 344.967 120.521 344.337 120.521C343.193 120.521 342.157 120.231 341.228 119.651C340.3 119.054 339.562 118.242 339.015 117.214C338.484 116.169 338.219 114.975 338.219 113.632C338.219 112.273 338.484 111.079 339.015 110.051C339.562 109.007 340.291 108.194 341.203 107.614C342.115 107.017 343.127 106.719 344.237 106.719C344.95 106.719 345.605 106.827 346.202 107.042C346.799 107.258 347.313 107.531 347.744 107.863C348.192 108.194 348.531 108.534 348.764 108.882C349.012 109.214 349.137 109.496 349.137 109.728L348.241 110.051V108.236C348.241 107.805 348.382 107.448 348.664 107.166C348.946 106.868 349.302 106.719 349.733 106.719ZM344.71 117.786C345.439 117.786 346.078 117.603 346.625 117.238C347.172 116.874 347.595 116.376 347.893 115.746C348.208 115.116 348.366 114.412 348.366 113.632C348.366 112.837 348.208 112.124 347.893 111.494C347.595 110.864 347.172 110.366 346.625 110.001C346.078 109.637 345.439 109.454 344.71 109.454C343.997 109.454 343.367 109.637 342.82 110.001C342.273 110.366 341.842 110.864 341.527 111.494C341.228 112.124 341.079 112.837 341.079 113.632C341.079 114.412 341.228 115.116 341.527 115.746C341.842 116.376 342.273 116.874 342.82 117.238C343.367 117.603 343.997 117.786 344.71 117.786Z" fill="white"/>
<path d="M360.376 106.719C361.321 106.719 362.142 106.818 362.838 107.017C363.551 107.216 364.098 107.498 364.479 107.863C364.877 108.211 365.076 108.634 365.076 109.131C365.076 109.463 364.977 109.778 364.778 110.076C364.579 110.358 364.289 110.499 363.907 110.499C363.642 110.499 363.418 110.466 363.236 110.399C363.07 110.317 362.921 110.217 362.788 110.101C362.655 109.985 362.498 109.877 362.316 109.778C362.15 109.678 361.893 109.604 361.545 109.554C361.213 109.488 360.964 109.454 360.799 109.454C359.953 109.454 359.232 109.637 358.635 110.001C358.055 110.366 357.607 110.864 357.292 111.494C356.977 112.107 356.819 112.82 356.819 113.632C356.819 114.428 356.977 115.141 357.292 115.771C357.624 116.385 358.071 116.874 358.635 117.238C359.215 117.603 359.878 117.786 360.624 117.786C361.039 117.786 361.395 117.761 361.694 117.711C361.992 117.661 362.241 117.587 362.44 117.487C362.672 117.355 362.879 117.214 363.062 117.064C363.244 116.915 363.518 116.841 363.882 116.841C364.313 116.841 364.645 116.981 364.877 117.263C365.109 117.529 365.225 117.86 365.225 118.258C365.225 118.673 364.993 119.054 364.529 119.402C364.065 119.734 363.451 120.007 362.689 120.223C361.943 120.422 361.13 120.521 360.251 120.521C358.942 120.521 357.806 120.223 356.844 119.626C355.883 119.012 355.137 118.183 354.606 117.139C354.092 116.094 353.835 114.926 353.835 113.632C353.835 112.273 354.109 111.079 354.656 110.051C355.22 109.007 355.991 108.194 356.969 107.614C357.963 107.017 359.099 106.719 360.376 106.719Z" fill="white"/>
<path d="M374.366 106.719C375.692 106.719 376.67 107.042 377.3 107.689C377.93 108.319 378.345 109.139 378.544 110.151L378.121 109.927L378.32 109.529C378.519 109.148 378.825 108.741 379.24 108.31C379.654 107.863 380.152 107.49 380.732 107.191C381.329 106.876 381.992 106.719 382.722 106.719C383.915 106.719 384.819 106.976 385.432 107.49C386.062 108.004 386.493 108.692 386.726 109.554C386.958 110.399 387.074 111.344 387.074 112.389V118.755C387.074 119.187 386.933 119.551 386.651 119.85C386.369 120.132 386.013 120.273 385.582 120.273C385.151 120.273 384.794 120.132 384.512 119.85C384.23 119.551 384.089 119.187 384.089 118.755V112.389C384.089 111.842 384.023 111.353 383.89 110.922C383.758 110.474 383.517 110.118 383.169 109.852C382.821 109.587 382.324 109.454 381.677 109.454C381.047 109.454 380.508 109.587 380.061 109.852C379.613 110.118 379.273 110.474 379.041 110.922C378.825 111.353 378.718 111.842 378.718 112.389V118.755C378.718 119.187 378.577 119.551 378.295 119.85C378.013 120.132 377.657 120.273 377.226 120.273C376.794 120.273 376.438 120.132 376.156 119.85C375.874 119.551 375.733 119.187 375.733 118.755V112.389C375.733 111.842 375.667 111.353 375.534 110.922C375.402 110.474 375.161 110.118 374.813 109.852C374.465 109.587 373.968 109.454 373.321 109.454C372.691 109.454 372.152 109.587 371.705 109.852C371.257 110.118 370.917 110.474 370.685 110.922C370.469 111.353 370.362 111.842 370.362 112.389V118.755C370.362 119.187 370.221 119.551 369.939 119.85C369.657 120.132 369.301 120.273 368.869 120.273C368.438 120.273 368.082 120.132 367.8 119.85C367.518 119.551 367.377 119.187 367.377 118.755V108.484C367.377 108.053 367.518 107.697 367.8 107.415C368.082 107.117 368.438 106.967 368.869 106.967C369.301 106.967 369.657 107.117 369.939 107.415C370.221 107.697 370.362 108.053 370.362 108.484V109.554L369.989 109.479C370.138 109.197 370.345 108.899 370.61 108.584C370.876 108.252 371.199 107.946 371.58 107.664C371.962 107.382 372.384 107.158 372.849 106.992C373.313 106.81 373.818 106.719 374.366 106.719Z" fill="white"/>
<path d="M349.733 106.719C350.165 106.719 350.521 106.86 350.803 107.142C351.085 107.423 351.226 107.788 351.226 108.236V118.755C351.226 119.187 351.085 119.551 350.803 119.85C350.521 120.132 350.165 120.273 349.733 120.273C349.302 120.273 348.946 120.132 348.664 119.85C348.382 119.551 348.241 119.187 348.241 118.755V117.537L348.788 117.761C348.788 117.976 348.672 118.242 348.44 118.557C348.208 118.855 347.893 119.153 347.495 119.452C347.097 119.75 346.625 120.007 346.078 120.223C345.547 120.422 344.967 120.521 344.337 120.521C343.193 120.521 342.157 120.231 341.228 119.651C340.3 119.054 339.562 118.242 339.015 117.214C338.484 116.169 338.219 114.975 338.219 113.632C338.219 112.273 338.484 111.079 339.015 110.051C339.562 109.007 340.291 108.194 341.203 107.614C342.115 107.017 343.127 106.719 344.237 106.719C344.95 106.719 345.605 106.827 346.202 107.042C346.799 107.258 347.313 107.531 347.744 107.863C348.192 108.194 348.531 108.534 348.764 108.882C349.012 109.214 349.137 109.496 349.137 109.728L348.241 110.051V108.236C348.241 107.805 348.382 107.448 348.664 107.166C348.946 106.868 349.302 106.719 349.733 106.719ZM344.71 117.786C345.439 117.786 346.078 117.603 346.625 117.238C347.172 116.874 347.595 116.376 347.893 115.746C348.208 115.116 348.366 114.412 348.366 113.632C348.366 112.837 348.208 112.124 347.893 111.494C347.595 110.864 347.172 110.366 346.625 110.001C346.078 109.637 345.439 109.454 344.71 109.454C343.997 109.454 343.367 109.637 342.82 110.001C342.273 110.366 341.842 110.864 341.527 111.494C341.228 112.124 341.079 112.837 341.079 113.632C341.079 114.412 341.228 115.116 341.527 115.746C341.842 116.376 342.273 116.874 342.82 117.238C343.367 117.603 343.997 117.786 344.71 117.786Z" stroke="white" stroke-width="0.729176" mask="url(#path-49-outside-5_227_166)"/>
<path d="M360.376 106.719C361.321 106.719 362.142 106.818 362.838 107.017C363.551 107.216 364.098 107.498 364.479 107.863C364.877 108.211 365.076 108.634 365.076 109.131C365.076 109.463 364.977 109.778 364.778 110.076C364.579 110.358 364.289 110.499 363.907 110.499C363.642 110.499 363.418 110.466 363.236 110.399C363.07 110.317 362.921 110.217 362.788 110.101C362.655 109.985 362.498 109.877 362.316 109.778C362.15 109.678 361.893 109.604 361.545 109.554C361.213 109.488 360.964 109.454 360.799 109.454C359.953 109.454 359.232 109.637 358.635 110.001C358.055 110.366 357.607 110.864 357.292 111.494C356.977 112.107 356.819 112.82 356.819 113.632C356.819 114.428 356.977 115.141 357.292 115.771C357.624 116.385 358.071 116.874 358.635 117.238C359.215 117.603 359.878 117.786 360.624 117.786C361.039 117.786 361.395 117.761 361.694 117.711C361.992 117.661 362.241 117.587 362.44 117.487C362.672 117.355 362.879 117.214 363.062 117.064C363.244 116.915 363.518 116.841 363.882 116.841C364.313 116.841 364.645 116.981 364.877 117.263C365.109 117.529 365.225 117.86 365.225 118.258C365.225 118.673 364.993 119.054 364.529 119.402C364.065 119.734 363.451 120.007 362.689 120.223C361.943 120.422 361.13 120.521 360.251 120.521C358.942 120.521 357.806 120.223 356.844 119.626C355.883 119.012 355.137 118.183 354.606 117.139C354.092 116.094 353.835 114.926 353.835 113.632C353.835 112.273 354.109 111.079 354.656 110.051C355.22 109.007 355.991 108.194 356.969 107.614C357.963 107.017 359.099 106.719 360.376 106.719Z" stroke="white" stroke-width="0.729176" mask="url(#path-49-outside-5_227_166)"/>
<path d="M374.366 106.719C375.692 106.719 376.67 107.042 377.3 107.689C377.93 108.319 378.345 109.139 378.544 110.151L378.121 109.927L378.32 109.529C378.519 109.148 378.825 108.741 379.24 108.31C379.654 107.863 380.152 107.49 380.732 107.191C381.329 106.876 381.992 106.719 382.722 106.719C383.915 106.719 384.819 106.976 385.432 107.49C386.062 108.004 386.493 108.692 386.726 109.554C386.958 110.399 387.074 111.344 387.074 112.389V118.755C387.074 119.187 386.933 119.551 386.651 119.85C386.369 120.132 386.013 120.273 385.582 120.273C385.151 120.273 384.794 120.132 384.512 119.85C384.23 119.551 384.089 119.187 384.089 118.755V112.389C384.089 111.842 384.023 111.353 383.89 110.922C383.758 110.474 383.517 110.118 383.169 109.852C382.821 109.587 382.324 109.454 381.677 109.454C381.047 109.454 380.508 109.587 380.061 109.852C379.613 110.118 379.273 110.474 379.041 110.922C378.825 111.353 378.718 111.842 378.718 112.389V118.755C378.718 119.187 378.577 119.551 378.295 119.85C378.013 120.132 377.657 120.273 377.226 120.273C376.794 120.273 376.438 120.132 376.156 119.85C375.874 119.551 375.733 119.187 375.733 118.755V112.389C375.733 111.842 375.667 111.353 375.534 110.922C375.402 110.474 375.161 110.118 374.813 109.852C374.465 109.587 373.968 109.454 373.321 109.454C372.691 109.454 372.152 109.587 371.705 109.852C371.257 110.118 370.917 110.474 370.685 110.922C370.469 111.353 370.362 111.842 370.362 112.389V118.755C370.362 119.187 370.221 119.551 369.939 119.85C369.657 120.132 369.301 120.273 368.869 120.273C368.438 120.273 368.082 120.132 367.8 119.85C367.518 119.551 367.377 119.187 367.377 118.755V108.484C367.377 108.053 367.518 107.697 367.8 107.415C368.082 107.117 368.438 106.967 368.869 106.967C369.301 106.967 369.657 107.117 369.939 107.415C370.221 107.697 370.362 108.053 370.362 108.484V109.554L369.989 109.479C370.138 109.197 370.345 108.899 370.61 108.584C370.876 108.252 371.199 107.946 371.58 107.664C371.962 107.382 372.384 107.158 372.849 106.992C373.313 106.81 373.818 106.719 374.366 106.719Z" stroke="white" stroke-width="0.729176" mask="url(#path-49-outside-5_227_166)"/>
<path d="M214.353 407.023C209.74 402.41 209.74 394.93 214.353 390.317L236.317 368.353C240.93 363.74 248.41 363.74 253.023 368.353L274.987 390.317C279.6 394.93 279.6 402.41 274.987 407.023L253.023 428.987C248.41 433.6 240.93 433.6 236.317 428.987L214.353 407.023Z" fill="#D41153"/>
<path fill-rule="evenodd" clip-rule="evenodd" d="M244.719 417.313C254.988 417.313 263.313 408.988 263.313 398.719C263.313 388.45 254.988 380.125 244.719 380.125C234.45 380.125 226.125 388.45 226.125 398.719C226.125 408.988 234.45 417.313 244.719 417.313ZM244.719 419.063C255.955 419.063 265.063 409.954 265.063 398.719C265.063 387.483 255.955 378.375 244.719 378.375C233.483 378.375 224.375 387.483 224.375 398.719C224.375 409.954 233.483 419.063 244.719 419.063Z" fill="#F8F8F8"/>
<path opacity="0.3" d="M254.573 396.841C255.114 397.382 255.99 397.382 256.53 396.841C257.07 396.301 257.07 395.425 256.53 394.885C255.99 394.344 255.114 394.344 254.573 394.885C254.033 395.425 254.033 396.301 254.573 396.841Z" fill="#F8F8F8"/>
<path opacity="0.3" d="M235.984 391.949C236.524 392.489 237.4 392.489 237.941 391.949C238.481 391.409 238.481 390.532 237.941 389.992C237.4 389.452 236.524 389.452 235.984 389.992C235.443 390.532 235.443 391.409 235.984 391.949Z" fill="#F8F8F8"/>
<path opacity="0.3" d="M240.856 410.558C241.396 411.099 242.273 411.099 242.813 410.558C243.353 410.018 243.353 409.142 242.813 408.601C242.273 408.061 241.396 408.061 240.856 408.601C240.316 409.142 240.316 410.018 240.856 410.558Z" fill="#F8F8F8"/>
<path d="M244.711 406.704C243.967 405.96 243.009 405.588 242.04 405.539L239.124 394.503C239.398 394.327 239.663 394.141 239.897 393.906C240.132 393.672 240.318 393.407 240.494 393.133L251.413 396.01C251.452 397.027 251.844 398.025 252.616 398.798C254.241 400.422 256.863 400.422 258.487 398.798C260.111 397.174 260.111 394.552 258.487 392.928C256.863 391.304 254.241 391.304 252.616 392.928C252.382 393.163 252.196 393.427 252.02 393.701L241.101 390.824C241.062 389.807 240.67 388.809 239.897 388.036C238.273 386.412 235.651 386.412 234.027 388.036C232.403 389.66 232.403 392.282 234.027 393.906C234.8 394.679 235.798 395.071 236.815 395.11L239.711 406.146C239.457 406.303 239.212 406.489 238.997 406.704C237.422 408.279 237.422 410.842 238.997 412.418C240.572 413.993 243.136 413.993 244.711 412.418C246.286 410.842 246.286 408.279 244.711 406.704ZM256.53 394.885C257.068 395.423 257.068 396.303 256.53 396.842C255.992 397.38 255.111 397.38 254.573 396.842C254.035 396.303 254.035 395.423 254.573 394.885C255.111 394.347 255.992 394.347 256.53 394.885ZM235.984 391.95C235.446 391.411 235.446 390.531 235.984 389.993C236.522 389.455 237.402 389.455 237.941 389.993C238.479 390.531 238.479 391.411 237.941 391.95C237.402 392.488 236.522 392.488 235.984 391.95ZM240.856 410.559C240.318 410.021 240.318 409.14 240.856 408.602C241.394 408.064 242.275 408.064 242.813 408.602C243.351 409.14 243.351 410.021 242.813 410.559C242.275 411.097 241.394 411.097 240.856 410.559Z" fill="#F8F8F8"/>
</svg>
