<svg width="330" height="373" viewBox="0 0 330 373" fill="none" xmlns="http://www.w3.org/2000/svg">
<path d="M93.7461 300.728L107.033 264.342L56.8711 287.467C55.0989 288.284 53.2634 288.957 51.3824 289.478L3.59925 302.717C2.91222 302.909 2.7813 303.825 3.38775 304.201C3.85767 304.491 4.39538 304.654 4.94759 304.673L53.0149 306.33C58.0743 306.505 63.1382 306.148 68.1226 305.264L93.7461 300.728Z" fill="#B89061" stroke="#281214" stroke-width="5"/>
<path fill-rule="evenodd" clip-rule="evenodd" d="M62.5461 166.965C66.3491 162.343 72.4604 160.306 78.2755 161.723C85.9298 163.586 92.0021 169.405 94.1935 176.973L97.3513 187.881H102.495C107.997 187.881 113.33 185.989 117.602 182.522L128.439 173.727L185.548 194.876L293.611 177.391L287.42 190.168C291.915 187.981 297.107 187.496 302.002 188.902C310.546 191.358 317.099 198.238 319.131 206.894L319.853 209.964C320.253 211.666 320.456 213.41 320.456 215.159V221.647C320.456 233.184 316.408 244.356 309.021 253.216L306.739 255.954C302.273 261.308 295.869 264.675 288.927 265.316C280.771 266.07 272.598 264.075 265.705 259.65L256.594 253.798L223.657 321.784C222.089 325.02 219.833 327.759 217.127 329.872C216.67 336.97 213.279 343.591 207.724 348.111L194.68 358.727C185.609 366.11 174.532 370.599 162.883 371.614L157.577 372.075C151.739 372.585 146.012 370.244 142.2 365.79C139.56 362.704 138.5 358.568 139.329 354.593L139.387 354.32C141.243 345.424 146.592 337.647 154.234 332.732L163.255 326.928L158.141 322.972C153.216 327.602 147.93 331.836 142.329 335.636L132.602 342.238C126.644 346.281 118.639 345.433 113.657 340.233C108.815 335.176 107.393 327.747 110.029 321.259L112.325 315.604H104.762C103.004 315.604 101.262 315.301 99.6066 314.71L99.3946 314.634C90.2783 311.376 84.9822 301.87 87.0084 292.402L88.1462 287.082C90.1272 277.818 94.351 269.182 100.444 261.927L119.99 238.663C120.61 237.924 119.929 236.824 118.991 237.048L106.834 239.969C99.4398 241.747 91.7481 241.888 84.2933 240.387L79.0813 239.337H75.4591C66.5392 239.337 58.4969 233.971 55.0695 225.736C51.8075 217.895 50.1279 209.487 50.1279 200.994V197.699C50.1279 187.584 53.6421 177.783 60.0695 169.974L62.5461 166.965Z" fill="#B89061"/>
<mask id="mask0_10_856" style="mask-type:luminance" maskUnits="userSpaceOnUse" x="50" y="161" width="271" height="212">
<path fill-rule="evenodd" clip-rule="evenodd" d="M62.5461 166.965C66.3491 162.343 72.4604 160.306 78.2755 161.723C85.9298 163.586 92.0021 169.405 94.1935 176.973L97.3513 187.881H102.495C107.997 187.881 113.33 185.989 117.602 182.522L128.439 173.727L185.548 194.876L293.611 177.391L287.42 190.168C291.915 187.981 297.107 187.496 302.002 188.902C310.546 191.358 317.099 198.238 319.131 206.894L319.853 209.964C320.253 211.666 320.456 213.41 320.456 215.159V221.647C320.456 233.184 316.408 244.356 309.021 253.216L306.739 255.954C302.273 261.308 295.869 264.675 288.927 265.316C280.771 266.07 272.598 264.075 265.705 259.65L256.594 253.798L223.657 321.784C222.089 325.02 219.833 327.759 217.127 329.872C216.67 336.97 213.279 343.591 207.724 348.111L194.68 358.727C185.609 366.11 174.532 370.599 162.883 371.614L157.577 372.075C151.739 372.585 146.012 370.244 142.2 365.79C139.56 362.704 138.5 358.568 139.329 354.593L139.387 354.32C141.243 345.424 146.592 337.647 154.234 332.732L163.255 326.928L158.141 322.972C153.216 327.602 147.93 331.836 142.329 335.636L132.602 342.238C126.644 346.281 118.639 345.433 113.657 340.233C108.815 335.176 107.393 327.747 110.029 321.259L112.325 315.604H104.762C103.004 315.604 101.262 315.301 99.6066 314.71L99.3946 314.634C90.2783 311.376 84.9822 301.87 87.0084 292.402L88.1462 287.082C90.1272 277.818 94.351 269.182 100.444 261.927L119.99 238.663C120.61 237.924 119.929 236.824 118.991 237.048L106.834 239.969C99.4398 241.747 91.7481 241.888 84.2933 240.387L79.0813 239.337H75.4591C66.5392 239.337 58.4969 233.971 55.0695 225.736C51.8075 217.895 50.1279 209.487 50.1279 200.994V197.699C50.1279 187.584 53.6421 177.783 60.0695 169.974L62.5461 166.965Z" fill="white"/>
</mask>
<g mask="url(#mask0_10_856)">
<path d="M97.3513 187.881V195.676H91.4941L89.8653 190.05L97.3513 187.881ZM128.439 173.727L123.528 167.676L126.979 164.876L131.145 166.418L128.439 173.727ZM185.548 194.876L186.792 202.57L184.767 202.898L182.842 202.185L185.548 194.876ZM293.611 177.391L292.365 169.698L307.156 167.303L300.624 180.79L293.611 177.391ZM287.42 190.168L290.83 197.177L270.595 207.025L280.408 186.77L287.42 190.168ZM256.594 253.798L249.582 250.398L253.413 242.49L260.805 247.238L256.594 253.798ZM217.127 329.872L209.351 329.371L209.575 325.881L212.331 323.73L217.127 329.872ZM163.255 326.928L168.023 320.765L176.75 327.516L167.47 333.485L163.255 326.928ZM158.142 322.972L152.805 317.293L157.649 312.738L162.909 316.807L158.142 322.972ZM112.325 315.604V307.809H123.901L119.544 318.536L112.325 315.604ZM99.3946 314.634L102.018 307.294V307.295L99.3946 314.634ZM79.0814 239.337V231.542H79.8591L80.6197 231.697L79.0814 239.337ZM76.4318 169.296C73.5234 168.586 70.4654 169.606 68.5624 171.917L56.5284 162.011C62.2313 155.081 71.3975 152.027 80.1178 154.15L76.4318 169.296ZM86.7076 179.14C85.294 174.254 81.3725 170.499 76.4318 169.296L80.1178 154.15C90.4872 156.674 98.712 164.554 101.68 174.806L86.7076 179.14ZM89.8653 190.05L86.7076 179.14L101.68 174.806L104.837 185.715L89.8653 190.05ZM102.495 195.676H97.3513V180.087H102.495V195.676ZM122.512 188.575C116.851 193.169 109.784 195.676 102.495 195.676V180.087C106.207 180.087 109.808 178.811 112.691 176.471L122.512 188.575ZM133.349 179.78L122.512 188.575L112.691 176.471L123.528 167.676L133.349 179.78ZM182.842 202.185L125.733 181.037L131.145 166.418L188.254 187.567L182.842 202.185ZM294.854 185.085L186.792 202.57L184.303 187.181L292.365 169.698L294.854 185.085ZM280.408 186.77L286.597 173.992L300.624 180.79L294.434 193.566L280.408 186.77ZM299.851 196.394C296.823 195.524 293.611 195.824 290.83 197.177L284.011 183.16C290.218 180.139 297.389 179.468 304.153 181.411L299.851 196.394ZM311.546 208.676C310.157 202.767 305.684 198.07 299.851 196.394L304.153 181.411C315.409 184.645 324.039 193.708 326.719 205.111L311.546 208.676ZM312.267 211.747L311.546 208.676L326.719 205.111L327.44 208.18L312.267 211.747ZM312.663 215.159C312.663 214.01 312.529 212.865 312.267 211.747L327.44 208.18C327.976 210.469 328.249 212.81 328.249 215.159H312.663ZM312.663 221.647V215.159H328.249V221.647H312.663ZM303.036 248.223C309.256 240.764 312.663 231.36 312.663 221.647H328.249C328.249 235.009 323.562 247.946 315.006 258.208L303.036 248.223ZM300.754 250.961L303.036 248.223L315.006 258.208L312.724 260.945L300.754 250.961ZM288.21 257.555C293.098 257.104 297.608 254.733 300.754 250.961L312.724 260.945C306.938 267.883 298.639 272.246 289.644 273.077L288.21 257.555ZM269.917 253.09C275.345 256.577 281.786 258.148 288.21 257.555L289.644 273.077C279.758 273.991 269.85 271.573 261.496 266.208L269.917 253.09ZM260.805 247.238L269.917 253.09L261.496 266.208L252.384 260.356L260.805 247.238ZM216.644 318.386L249.582 250.398L263.608 257.196L230.67 325.183L216.644 318.386ZM212.331 323.73C214.117 322.335 215.606 320.528 216.644 318.386L230.67 325.183C228.572 329.513 225.55 333.184 221.924 336.015L212.331 323.73ZM202.805 342.066C206.672 338.919 209.031 334.311 209.351 329.371L224.904 330.373C224.307 339.63 219.886 348.262 212.643 354.156L202.805 342.066ZM189.761 352.682L202.805 342.066L212.643 354.156L199.599 364.772L189.761 352.682ZM162.206 363.849C172.301 362.968 181.901 359.079 189.761 352.682L199.599 364.772C189.318 373.14 176.764 378.228 163.559 379.378L162.206 363.849ZM156.901 364.311L162.206 363.849L163.559 379.378L158.254 379.84L156.901 364.311ZM148.121 360.721C150.297 363.265 153.565 364.602 156.901 364.311L158.254 379.84C149.909 380.568 141.726 377.222 136.279 370.858L148.121 360.721ZM146.959 356.186C146.622 357.796 147.052 359.472 148.121 360.721L136.279 370.858C132.069 365.936 130.378 359.341 131.701 353.001L146.959 356.186ZM147.016 355.912L146.959 356.186L131.701 353.001L131.757 352.727L147.016 355.912ZM158.45 339.287C152.565 343.072 148.445 349.062 147.016 355.912L131.757 352.727C134.041 341.787 140.62 332.221 150.018 326.176L158.45 339.287ZM167.47 333.485L158.45 339.287L150.018 326.176L159.039 320.374L167.47 333.485ZM162.909 316.807L168.023 320.765L158.486 333.094L153.372 329.137L162.909 316.807ZM137.955 329.187C143.213 325.617 148.179 321.639 152.805 317.293L163.478 328.653C158.254 333.563 152.646 338.055 146.706 342.086L137.955 329.187ZM128.227 335.789L137.955 329.187L146.706 342.086L136.977 348.688L128.227 335.789ZM119.286 334.843C121.636 337.296 125.414 337.697 128.227 335.789L136.977 348.688C127.873 354.866 115.64 353.572 108.031 345.625L119.286 334.843ZM117.248 324.191C115.769 327.833 116.567 332.004 119.286 334.843L108.031 345.625C101.062 338.35 99.0175 327.66 102.808 318.325L117.248 324.191ZM119.544 318.536L117.248 324.191L102.808 318.325L105.104 312.67L119.544 318.536ZM104.762 307.809H112.325V323.398H104.762V307.809ZM102.23 307.37C103.042 307.66 103.899 307.809 104.762 307.809V323.398C102.111 323.398 99.4804 322.941 96.9851 322.049L102.23 307.37ZM102.018 307.295L102.23 307.37L96.9851 322.049L96.7731 321.973L102.018 307.295ZM94.6284 294.033C93.4205 299.682 96.5798 305.351 102.018 307.294L96.7731 321.973C83.9785 317.401 76.544 304.061 79.3869 290.772L94.6284 294.033ZM95.7662 288.714L94.6284 294.033L79.3869 290.772L80.5262 285.451L95.7662 288.714ZM106.41 266.942C101.137 273.219 97.4823 280.695 95.7662 288.714L80.5262 285.451C82.7737 274.942 87.5648 265.143 94.4773 256.914L106.41 266.942ZM125.956 243.676L106.41 266.942L94.4773 256.914L114.024 233.648L125.956 243.676ZM117.171 229.469C125.419 227.488 131.413 237.182 125.956 243.676L114.024 233.648C109.808 238.668 114.44 246.158 120.811 244.627L117.171 229.469ZM105.013 232.392L117.171 229.469L120.811 244.627L108.654 247.548L105.013 232.392ZM85.8332 232.746C92.1768 234.024 98.7213 233.904 105.013 232.392L108.654 247.548C100.158 249.591 91.3195 249.754 82.755 248.027L85.8332 232.746ZM80.6197 231.697L85.8332 232.746L82.755 248.027L77.5415 246.978L80.6197 231.697ZM75.4592 231.542H79.0814V247.131H75.4592V231.542ZM62.264 222.741C64.4819 228.071 69.6877 231.542 75.4592 231.542V247.131C63.3925 247.131 52.5109 239.871 47.875 228.73L62.264 222.741ZM57.9202 200.994C57.9202 208.459 59.3978 215.85 62.264 222.741L47.875 228.73C44.2178 219.942 42.335 210.516 42.335 200.994H57.9202ZM57.9202 197.699V200.994H42.335V197.699H57.9202ZM66.0857 174.926C60.8068 181.342 57.9202 189.392 57.9202 197.699H42.335C42.335 185.777 46.4769 174.226 54.0524 165.021L66.0857 174.926ZM68.5624 171.917L66.0857 174.928L54.0524 165.021L56.5284 162.011L68.5624 171.917Z" fill="#281214"/>
</g>
<path d="M77.5912 163.447C72.1953 162.133 66.522 164.024 62.9918 168.313L61.0607 170.661C54.0607 179.166 50.7301 190.106 51.8021 201.069L52.3094 206.257C52.678 210.026 53.3568 213.759 54.3384 217.418L56.0217 223.691C58.6651 233.539 68.5248 239.622 78.5108 237.564L94.5831 189.941L92.8873 179.883C91.5298 171.84 85.5151 165.377 77.5912 163.447Z" fill="#5D3A2C"/>
<path d="M317.105 208.352C314.848 199.328 307.548 192.442 298.408 190.717C293.487 189.788 288.399 190.756 284.162 193.425L273.438 200.184L251.03 246.948L264.117 256.032C269.56 259.809 275.883 262.123 282.477 262.755C291.293 263.597 299.981 260.18 305.86 253.556L306.494 252.841C314.07 244.306 318.255 233.29 318.255 221.876V215.499C318.255 213.808 318.048 212.123 317.636 210.481L317.105 208.352Z" fill="#5D3A2C"/>
<path d="M213.076 326.819L202.362 328.311C194.385 329.421 186.291 329.385 178.324 328.205L168.963 326.819L155.874 335.12C150.049 338.814 145.539 344.345 143.054 350.78C141.16 355.683 142.435 361.299 146.301 364.861C150.25 368.499 155.635 370.153 160.947 369.36L166.464 368.535C177.057 366.953 187.036 362.574 195.373 355.849L202.761 349.89C207.747 345.868 211.047 340.127 212.013 333.795L213.076 326.819Z" fill="#5D3A2C"/>
<path d="M157.593 300.539C155.373 296.408 151.422 293.489 146.823 292.577C144.973 292.21 143.057 292.334 141.27 292.935L139.36 293.576C131.227 296.308 124.429 302.02 120.334 309.56L112.467 324.051C109.488 329.533 110.595 336.338 115.157 340.595C118.879 344.069 124.458 344.646 128.812 342.004L138.495 336.132C145.202 332.063 150.986 326.637 155.473 320.202C158.021 316.547 159.388 312.199 159.388 307.742V306.896C159.388 304.913 158.896 302.963 157.957 301.217L157.593 300.539Z" fill="#5D3A2C"/>
<mask id="mask1_10_856" style="mask-type:luminance" maskUnits="userSpaceOnUse" x="50" y="161" width="271" height="212">
<path fill-rule="evenodd" clip-rule="evenodd" d="M62.5461 166.965C66.3491 162.343 72.4604 160.306 78.2755 161.723C85.9298 163.586 92.0021 169.405 94.1935 176.973L97.3513 187.881H102.495C107.997 187.881 113.33 185.989 117.602 182.522L128.439 173.727L185.548 194.876L293.611 177.391L287.42 190.168C291.915 187.981 297.107 187.496 302.002 188.902C310.546 191.358 317.099 198.238 319.131 206.894L319.853 209.964C320.253 211.666 320.456 213.41 320.456 215.159V221.647C320.456 233.184 316.408 244.356 309.021 253.216L306.739 255.954C302.273 261.308 295.869 264.675 288.927 265.316C280.771 266.07 272.598 264.075 265.705 259.65L256.594 253.798L223.657 321.784C222.089 325.02 219.833 327.759 217.127 329.872C216.67 336.97 213.279 343.591 207.724 348.111L194.68 358.727C185.609 366.11 174.532 370.599 162.883 371.614L157.577 372.075C151.739 372.585 146.012 370.244 142.2 365.79C139.56 362.704 138.5 358.568 139.329 354.593L139.387 354.32C141.243 345.424 146.592 337.647 154.234 332.732L163.255 326.928L158.141 322.972C153.216 327.602 147.93 331.836 142.329 335.636L132.602 342.238C126.644 346.281 118.639 345.433 113.657 340.233C108.815 335.176 107.393 327.747 110.029 321.259L112.325 315.604H104.762C103.004 315.604 101.262 315.301 99.6066 314.71L99.3946 314.634C90.2783 311.376 84.9822 301.87 87.0084 292.402L88.1462 287.082C90.1272 277.818 94.351 269.182 100.444 261.927L119.99 238.663C120.61 237.924 119.929 236.824 118.991 237.048L106.834 239.969C99.4398 241.747 91.7481 241.888 84.2933 240.387L79.0813 239.337H75.4591C66.5392 239.337 58.4969 233.971 55.0695 225.736C51.8075 217.895 50.1279 209.487 50.1279 200.994V197.699C50.1279 187.584 53.6421 177.783 60.0695 169.974L62.5461 166.965Z" fill="white"/>
</mask>
<g mask="url(#mask1_10_856)">
<path d="M97.3513 187.881V195.676H91.4941L89.8653 190.05L97.3513 187.881ZM128.439 173.727L123.528 167.676L126.979 164.876L131.145 166.418L128.439 173.727ZM185.548 194.876L186.792 202.57L184.767 202.898L182.842 202.185L185.548 194.876ZM293.611 177.391L292.365 169.698L307.156 167.303L300.624 180.79L293.611 177.391ZM287.42 190.168L290.83 197.177L270.595 207.025L280.408 186.77L287.42 190.168ZM256.594 253.798L249.582 250.398L253.413 242.49L260.805 247.238L256.594 253.798ZM217.127 329.872L209.351 329.371L209.575 325.881L212.331 323.73L217.127 329.872ZM163.255 326.928L168.023 320.765L176.75 327.516L167.47 333.485L163.255 326.928ZM158.142 322.972L152.805 317.293L157.649 312.738L162.909 316.807L158.142 322.972ZM112.325 315.604V307.809H123.901L119.544 318.536L112.325 315.604ZM99.3946 314.634L102.018 307.294V307.295L99.3946 314.634ZM79.0814 239.337V231.542H79.8591L80.6197 231.697L79.0814 239.337ZM76.4318 169.296C73.5234 168.586 70.4654 169.606 68.5624 171.917L56.5284 162.011C62.2313 155.081 71.3975 152.027 80.1178 154.15L76.4318 169.296ZM86.7076 179.14C85.294 174.254 81.3725 170.499 76.4318 169.296L80.1178 154.15C90.4872 156.674 98.712 164.554 101.68 174.806L86.7076 179.14ZM89.8653 190.05L86.7076 179.14L101.68 174.806L104.837 185.715L89.8653 190.05ZM102.495 195.676H97.3513V180.087H102.495V195.676ZM122.512 188.575C116.851 193.169 109.784 195.676 102.495 195.676V180.087C106.207 180.087 109.808 178.811 112.691 176.471L122.512 188.575ZM133.349 179.78L122.512 188.575L112.691 176.471L123.528 167.676L133.349 179.78ZM182.842 202.185L125.733 181.037L131.145 166.418L188.254 187.567L182.842 202.185ZM294.854 185.085L186.792 202.57L184.303 187.181L292.365 169.698L294.854 185.085ZM280.408 186.77L286.597 173.992L300.624 180.79L294.434 193.566L280.408 186.77ZM299.851 196.394C296.823 195.524 293.611 195.824 290.83 197.177L284.011 183.16C290.218 180.139 297.389 179.468 304.153 181.411L299.851 196.394ZM311.546 208.676C310.157 202.767 305.684 198.07 299.851 196.394L304.153 181.411C315.409 184.645 324.039 193.708 326.719 205.111L311.546 208.676ZM312.267 211.747L311.546 208.676L326.719 205.111L327.44 208.18L312.267 211.747ZM312.663 215.159C312.663 214.01 312.529 212.865 312.267 211.747L327.44 208.18C327.976 210.469 328.249 212.81 328.249 215.159H312.663ZM312.663 221.647V215.159H328.249V221.647H312.663ZM303.036 248.223C309.256 240.764 312.663 231.36 312.663 221.647H328.249C328.249 235.009 323.562 247.946 315.006 258.208L303.036 248.223ZM300.754 250.961L303.036 248.223L315.006 258.208L312.724 260.945L300.754 250.961ZM288.21 257.555C293.098 257.104 297.608 254.733 300.754 250.961L312.724 260.945C306.938 267.883 298.639 272.246 289.644 273.077L288.21 257.555ZM269.917 253.09C275.345 256.577 281.786 258.148 288.21 257.555L289.644 273.077C279.758 273.991 269.85 271.573 261.496 266.208L269.917 253.09ZM260.805 247.238L269.917 253.09L261.496 266.208L252.384 260.356L260.805 247.238ZM216.644 318.386L249.582 250.398L263.608 257.196L230.67 325.183L216.644 318.386ZM212.331 323.73C214.117 322.335 215.606 320.528 216.644 318.386L230.67 325.183C228.572 329.513 225.55 333.184 221.924 336.015L212.331 323.73ZM202.805 342.066C206.672 338.919 209.031 334.311 209.351 329.371L224.904 330.373C224.307 339.63 219.886 348.262 212.643 354.156L202.805 342.066ZM189.761 352.682L202.805 342.066L212.643 354.156L199.599 364.772L189.761 352.682ZM162.206 363.849C172.301 362.968 181.901 359.079 189.761 352.682L199.599 364.772C189.318 373.14 176.764 378.228 163.559 379.378L162.206 363.849ZM156.901 364.311L162.206 363.849L163.559 379.378L158.254 379.84L156.901 364.311ZM148.121 360.721C150.297 363.265 153.565 364.602 156.901 364.311L158.254 379.84C149.909 380.568 141.726 377.222 136.279 370.858L148.121 360.721ZM146.959 356.186C146.622 357.796 147.052 359.472 148.121 360.721L136.279 370.858C132.069 365.936 130.378 359.341 131.701 353.001L146.959 356.186ZM147.016 355.912L146.959 356.186L131.701 353.001L131.757 352.727L147.016 355.912ZM158.45 339.287C152.565 343.072 148.445 349.062 147.016 355.912L131.757 352.727C134.041 341.787 140.62 332.221 150.018 326.176L158.45 339.287ZM167.47 333.485L158.45 339.287L150.018 326.176L159.039 320.374L167.47 333.485ZM162.909 316.807L168.023 320.765L158.486 333.094L153.372 329.137L162.909 316.807ZM137.955 329.187C143.213 325.617 148.179 321.639 152.805 317.293L163.478 328.653C158.254 333.563 152.646 338.055 146.706 342.086L137.955 329.187ZM128.227 335.789L137.955 329.187L146.706 342.086L136.977 348.688L128.227 335.789ZM119.286 334.843C121.636 337.296 125.414 337.697 128.227 335.789L136.977 348.688C127.873 354.866 115.64 353.572 108.031 345.625L119.286 334.843ZM117.248 324.191C115.769 327.833 116.567 332.004 119.286 334.843L108.031 345.625C101.062 338.35 99.0175 327.66 102.808 318.325L117.248 324.191ZM119.544 318.536L117.248 324.191L102.808 318.325L105.104 312.67L119.544 318.536ZM104.762 307.809H112.325V323.398H104.762V307.809ZM102.23 307.37C103.042 307.66 103.899 307.809 104.762 307.809V323.398C102.111 323.398 99.4804 322.941 96.9851 322.049L102.23 307.37ZM102.018 307.295L102.23 307.37L96.9851 322.049L96.7731 321.973L102.018 307.295ZM94.6284 294.033C93.4205 299.682 96.5798 305.351 102.018 307.294L96.7731 321.973C83.9785 317.401 76.544 304.061 79.3869 290.772L94.6284 294.033ZM95.7662 288.714L94.6284 294.033L79.3869 290.772L80.5262 285.451L95.7662 288.714ZM106.41 266.942C101.137 273.219 97.4823 280.695 95.7662 288.714L80.5262 285.451C82.7737 274.942 87.5648 265.143 94.4773 256.914L106.41 266.942ZM125.956 243.676L106.41 266.942L94.4773 256.914L114.024 233.648L125.956 243.676ZM117.171 229.469C125.419 227.488 131.413 237.182 125.956 243.676L114.024 233.648C109.808 238.668 114.44 246.158 120.811 244.627L117.171 229.469ZM105.013 232.392L117.171 229.469L120.811 244.627L108.654 247.548L105.013 232.392ZM85.8332 232.746C92.1768 234.024 98.7213 233.904 105.013 232.392L108.654 247.548C100.158 249.591 91.3195 249.754 82.755 248.027L85.8332 232.746ZM80.6197 231.697L85.8332 232.746L82.755 248.027L77.5415 246.978L80.6197 231.697ZM75.4592 231.542H79.0814V247.131H75.4592V231.542ZM62.264 222.741C64.4819 228.071 69.6877 231.542 75.4592 231.542V247.131C63.3925 247.131 52.5109 239.871 47.875 228.73L62.264 222.741ZM57.9202 200.994C57.9202 208.459 59.3978 215.85 62.264 222.741L47.875 228.73C44.2178 219.942 42.335 210.516 42.335 200.994H57.9202ZM57.9202 197.699V200.994H42.335V197.699H57.9202ZM66.0857 174.926C60.8068 181.342 57.9202 189.392 57.9202 197.699H42.335C42.335 185.777 46.4769 174.226 54.0524 165.021L66.0857 174.926ZM68.5624 171.917L66.0857 174.928L54.0524 165.021L56.5284 162.011L68.5624 171.917Z" fill="#281214"/>
</g>
<path d="M174.926 288.521L175.841 285.086C177.887 277.417 175.099 269.339 168.773 264.599L166.879 263.18C164.768 261.6 162.272 260.594 159.636 260.262C149.388 258.975 139.384 264.373 134.84 273.638L133.394 276.588" stroke="#281214" stroke-width="5" stroke-linecap="round"/>
<path d="M157.677 320.158L160.016 317.543C163.798 313.312 166.972 308.601 169.452 303.54L170.188 302.039M113.592 314.954L115.939 312.327C119.714 308.103 122.884 303.4 125.361 298.344L126.103 296.832" stroke="#281214" stroke-width="5" stroke-linecap="round"/>
<path d="M235.896 231.923L290.202 173.16L138.537 196.316C144.992 220.877 160.66 242.064 182.356 255.422C185.602 257.42 189.51 258.044 193.218 257.157L196.305 256.418C201.856 255.088 207.146 252.837 211.952 249.759L223.21 242.549C227.873 239.561 232.136 235.991 235.896 231.923Z" fill="#05A3FF" stroke="#281214" stroke-width="5"/>
<path fill-rule="evenodd" clip-rule="evenodd" d="M252.286 5.67365C250.495 2.19015 246.907 0 242.992 0H242.071C235.404 0 229.02 2.68929 224.363 7.45898L223.568 8.27315C218.727 13.2311 215.15 19.2816 213.14 25.9134L211.999 29.6749C209.493 37.9413 210.512 46.8765 214.817 54.3651L215.125 54.9013C208.121 57.3331 201.269 60.2153 194.616 63.5356L179.778 70.9385L160.252 81.7224C143.455 91.0005 130.453 105.887 123.52 123.781L122.789 125.666C119.619 133.848 117.992 142.548 117.992 151.322C117.992 159.723 119.483 168.056 122.395 175.936L122.745 176.885C133.375 205.652 160.124 225.313 190.747 226.872L195.409 227.111C212.742 227.993 229.921 223.466 244.571 214.157L252.906 208.859C256.612 206.503 260.133 203.867 263.437 200.972L286.826 180.483C294.105 174.108 300.255 166.547 305.015 158.122L306.31 155.829C312.897 144.172 316.358 131.009 316.358 117.619V116.798C316.358 110.662 315.766 104.54 314.591 98.5187L314.264 96.843L322.417 82.1495C328.196 71.7335 330.464 59.7321 328.883 47.9256C327.593 38.278 324.36 28.9921 319.38 20.6289L318.797 19.6494L314.822 13.0475C310.288 5.52276 299.028 6.73724 296.204 15.0554L283.335 52.959C274.379 48.2872 264.352 46.016 254.248 46.3808V13.7845C254.248 10.9634 253.575 8.18289 252.286 5.67365Z" fill="#B89061"/>
<mask id="mask2_10_856" style="mask-type:luminance" maskUnits="userSpaceOnUse" x="117" y="0" width="213" height="228">
<path fill-rule="evenodd" clip-rule="evenodd" d="M252.286 5.67365C250.495 2.19015 246.907 0 242.992 0H242.071C235.404 0 229.02 2.68929 224.363 7.45898L223.568 8.27315C218.727 13.2311 215.15 19.2816 213.14 25.9134L211.999 29.6749C209.493 37.9413 210.512 46.8765 214.817 54.3651L215.125 54.9013C208.121 57.3331 201.269 60.2153 194.616 63.5356L179.778 70.9385L160.252 81.7224C143.455 91.0005 130.453 105.887 123.52 123.781L122.789 125.666C119.619 133.848 117.992 142.548 117.992 151.322C117.992 159.723 119.483 168.056 122.395 175.936L122.745 176.885C133.375 205.652 160.124 225.313 190.747 226.872L195.409 227.111C212.742 227.993 229.921 223.466 244.571 214.157L252.906 208.859C256.612 206.503 260.133 203.867 263.437 200.972L286.826 180.483C294.105 174.108 300.255 166.547 305.015 158.122L306.31 155.829C312.897 144.172 316.358 131.009 316.358 117.619V116.798C316.358 110.662 315.766 104.54 314.591 98.5187L314.264 96.843L322.417 82.1495C328.196 71.7335 330.464 59.7321 328.883 47.9256C327.593 38.278 324.36 28.9921 319.38 20.6289L318.797 19.6494L314.822 13.0475C310.288 5.52276 299.028 6.73724 296.204 15.0554L283.335 52.959C274.379 48.2872 264.352 46.016 254.248 46.3808V13.7845C254.248 10.9634 253.575 8.18289 252.286 5.67365Z" fill="white"/>
</mask>
<g mask="url(#mask2_10_856)">
<path d="M215.125 54.9013L221.882 51.0167L226.575 59.1787L217.68 62.2652L215.125 54.9013ZM179.778 70.9385L176.011 64.1155L176.154 64.036L176.299 63.9643L179.778 70.9385ZM314.264 96.843L306.616 98.3363L306.07 95.546L307.449 93.0613L314.264 96.843ZM318.798 19.6494L325.473 15.6275L325.482 15.6445L325.493 15.6616L318.798 19.6494ZM283.335 52.959L290.715 55.4656L287.791 64.075L279.731 59.8693L283.335 52.959ZM254.248 46.3808L254.529 54.1702L246.455 54.4617V46.3808H254.248ZM242.992 -7.79413C249.828 -7.79413 256.09 -3.9708 259.217 2.11064L245.355 9.23664C244.899 8.35092 243.986 7.79411 242.992 7.79411V-7.79413ZM242.071 -7.79413H242.992V7.79411H242.071V-7.79413ZM218.788 2.01337C224.912 -4.25824 233.307 -7.79413 242.071 -7.79413V7.79411C237.504 7.79411 233.13 9.63663 229.938 12.9044L218.788 2.01337ZM217.993 2.82755L218.788 2.01337L229.938 12.9044L229.144 13.7186L217.993 2.82755ZM205.682 23.6512C208.056 15.8227 212.278 8.6803 217.993 2.82755L229.144 13.7186C225.177 17.7818 222.245 22.7404 220.596 28.1753L205.682 23.6512ZM204.541 27.413L205.682 23.6512L220.596 28.1753L219.457 31.9367L204.541 27.413ZM208.062 58.2496C202.685 48.8967 201.41 37.7371 204.541 27.413L219.457 31.9367C217.574 38.1455 218.339 44.8562 221.573 50.4805L208.062 58.2496ZM208.37 58.7874L208.062 58.2496L221.573 50.4805L221.882 51.0167L208.37 58.7874ZM217.68 62.2652C210.99 64.5863 204.449 67.3391 198.095 70.5098L191.137 56.5599C198.09 53.0915 205.25 50.0798 212.571 47.539L217.68 62.2652ZM198.095 70.5098L183.257 77.9126L176.299 63.9643L191.137 56.5599L198.095 70.5098ZM183.545 77.7614L164.019 88.5454L156.485 74.8994L176.011 64.1155L183.545 77.7614ZM164.019 88.5454C148.822 96.9396 137.06 110.408 130.786 126.598L116.254 120.964C123.847 101.365 138.087 85.0598 156.485 74.8994L164.019 88.5454ZM130.786 126.598L130.055 128.482L115.523 122.85L116.254 120.964L130.786 126.598ZM130.055 128.482C127.233 135.767 125.785 143.511 125.785 151.322H110.199C110.199 141.584 112.004 131.931 115.523 122.85L130.055 128.482ZM125.785 151.322C125.785 158.8 127.113 166.22 129.705 173.235L115.085 178.638C111.854 169.894 110.199 160.646 110.199 151.322H125.785ZM129.705 173.235L130.055 174.184L115.436 179.588L115.085 178.638L129.705 173.235ZM130.055 174.184C139.605 200.026 163.634 217.689 191.143 219.089L190.351 234.657C156.614 232.939 127.147 211.279 115.436 179.588L130.055 174.184ZM191.143 219.089L195.805 219.326L195.013 234.894L190.351 234.657L191.143 219.089ZM195.805 219.326C211.525 220.126 227.106 216.021 240.39 207.579L248.749 220.735C232.738 230.911 213.96 235.859 195.013 234.894L195.805 219.326ZM240.39 207.579L248.727 202.28L257.086 215.437L248.749 220.735L240.39 207.579ZM248.727 202.28C252.097 200.138 255.298 197.741 258.302 195.11L268.572 206.835C264.968 209.992 261.129 212.868 257.086 215.437L248.727 202.28ZM258.302 195.11L281.692 174.62L291.962 186.346L268.572 206.835L258.302 195.11ZM281.692 174.62C288.31 168.823 293.902 161.949 298.23 154.287L311.799 161.957C306.608 171.146 299.899 179.392 291.962 186.346L281.692 174.62ZM298.23 154.287L299.525 151.994L313.095 159.664L311.799 161.957L298.23 154.287ZM299.525 151.994C305.451 141.506 308.565 129.666 308.565 117.619H324.151C324.151 132.353 320.342 146.836 313.095 159.664L299.525 151.994ZM308.565 117.619V116.797H324.151V117.619H308.565ZM308.565 116.797C308.565 111.164 308.021 105.543 306.943 100.014L322.239 97.0254C323.511 103.54 324.151 110.16 324.151 116.797H308.565ZM306.943 100.014L306.616 98.3363L321.912 95.3481L322.239 97.0254L306.943 100.014ZM329.231 85.9312L321.078 100.625L307.449 93.0613L315.602 78.3662L329.231 85.9312ZM336.608 46.8921C338.411 60.3603 335.824 74.0499 329.231 85.9312L315.602 78.3662C320.568 69.417 322.518 59.1054 321.16 48.9606L336.608 46.8921ZM326.076 16.6411C331.595 25.9095 335.177 36.2001 336.608 46.8921L321.16 48.9606C320.009 40.3559 317.125 32.0754 312.685 24.6165L326.076 16.6411ZM325.493 15.6616L326.076 16.6411L312.685 24.6165L312.102 23.6371L325.493 15.6616ZM321.496 9.02558L325.473 15.6275L312.122 23.6714L308.146 17.0694L321.496 9.02558ZM288.824 12.5494C293.78 -2.04862 313.542 -4.18 321.496 9.02558L308.146 17.0694C307.035 15.2253 304.274 15.5231 303.582 17.5615L288.824 12.5494ZM275.956 50.4524L288.824 12.5494L303.582 17.5615L290.715 55.4656L275.956 50.4524ZM279.731 59.8693C271.971 55.821 263.283 53.8538 254.529 54.1702L253.966 38.5913C265.422 38.1782 276.787 40.7518 286.94 46.0487L279.731 59.8693ZM262.041 13.7845V46.3808H246.455V13.7845H262.041ZM259.217 2.11064C261.072 5.72212 262.041 9.72409 262.041 13.7845H246.455C246.455 12.2026 246.078 10.6435 245.355 9.23664L259.217 2.11064Z" fill="#281214"/>
</g>
<path d="M208.235 162.992C208.235 155.696 202.088 149.91 194.806 150.353L186.793 150.839L175.521 150.212C168.905 149.846 163.338 155.112 163.338 161.74V198.202C163.338 200.143 163.484 202.079 163.774 203.998C165.172 213.215 171.898 220.727 180.905 223.129L191.309 225.904L202.276 222.687C209.103 220.684 213.349 213.887 212.156 206.872L209.901 193.613C208.793 187.093 208.235 180.491 208.235 173.878V162.992Z" fill="#8C6748"/>
<path d="M185.884 162.943C184.438 178.309 185.568 193.81 189.228 208.802L189.787 211.095" stroke="#281214" stroke-width="4" stroke-linecap="round"/>
<path d="M205.905 154.579C205.917 154.566 205.925 154.557 205.93 154.552C205.93 154.544 205.93 154.53 205.922 154.51C205.916 154.49 205.908 154.477 205.903 154.473C205.897 154.471 205.885 154.468 205.867 154.466L194.594 153.419H177.029L164.466 154.516C164.448 154.518 164.437 154.519 164.43 154.521C164.426 154.527 164.418 154.54 164.41 154.56C164.404 154.579 164.402 154.594 164.402 154.601C164.407 154.607 164.415 154.615 164.427 154.627L168.355 158.281C171.457 161.168 175.537 162.772 179.775 162.772H190.376C194.525 162.772 198.526 161.233 201.608 158.454L205.905 154.579Z" fill="#5D3A2C" stroke="#281214" stroke-width="4"/>
<path d="M316.375 20.657L314.257 17.1062C309.444 9.03334 297.225 11.0707 295.291 20.269L293.812 27.3023L284.156 61.4483C294.84 68.9821 302.432 80.1339 305.524 92.8368L307.749 101.978L318.618 84.7434C325.364 74.0483 328.148 61.3283 326.488 48.7938C325.249 39.4455 322.142 30.4418 317.354 22.3187L316.375 20.657Z" fill="#5D3A2C"/>
<path d="M251.904 7.92285C250.295 3.6233 246.025 0.917335 241.45 1.29847L240.54 1.37438C235.506 1.7937 230.738 3.80927 226.929 7.12754L226.327 7.65192C219.466 13.6291 214.78 21.7124 213.001 30.6366L212.498 33.165C211.098 40.1844 212.147 47.4719 215.468 53.8132L219.468 61.4483L236.21 56.7719L253.715 53.6542L253.007 13.7185C252.972 11.7379 252.599 9.778 251.904 7.92285Z" fill="#5D3A2C"/>
<mask id="mask3_10_856" style="mask-type:luminance" maskUnits="userSpaceOnUse" x="117" y="0" width="213" height="228">
<path fill-rule="evenodd" clip-rule="evenodd" d="M252.279 5.67365C250.489 2.19015 246.902 0 242.986 0H242.064C235.4 0 229.016 2.68929 224.359 7.45898L223.562 8.27315C218.721 13.2311 215.144 19.2816 213.134 25.9134L211.993 29.6749C209.486 37.9413 210.506 46.8765 214.812 54.3651L215.121 54.9029C208.115 57.3331 201.263 60.2153 194.611 63.5356L179.773 70.9385L160.247 81.7224C143.45 91.0005 130.448 105.887 123.514 123.781L122.783 125.667C119.613 133.848 117.987 142.548 117.987 151.322C117.987 159.723 119.477 168.056 122.389 175.936L122.741 176.885C133.37 205.652 160.119 225.313 190.743 226.872L195.404 227.111C212.738 227.993 229.917 223.466 244.566 214.157L252.901 208.859C256.608 206.503 260.129 203.867 263.431 200.972L286.821 180.483C294.1 174.108 300.249 166.547 305.01 158.122L306.305 155.829C312.892 144.172 316.354 131.009 316.354 117.619V116.798C316.354 110.662 315.761 104.54 314.585 98.5187L314.257 96.843L322.412 82.1495C328.191 71.7335 330.459 59.7321 328.879 47.9256C327.588 38.278 324.354 28.9921 319.376 20.6289L318.791 19.6494L314.815 13.0475C310.283 5.52276 299.024 6.73724 296.198 15.0554L283.33 52.959C274.374 48.2872 264.348 46.016 254.242 46.3808V13.7845C254.242 10.9634 253.568 8.18289 252.279 5.67365Z" fill="white"/>
</mask>
<g mask="url(#mask3_10_856)">
<path d="M215.121 54.9028L221.876 51.0167L226.569 59.1787L217.675 62.2652L215.121 54.9028ZM179.773 70.9385L176.006 64.1155L176.148 64.036L176.294 63.9643L179.773 70.9385ZM314.257 96.843L306.609 98.3363L306.064 95.546L307.443 93.0613L314.257 96.843ZM318.791 19.6494L325.467 15.6275L325.478 15.6445L325.489 15.6616L318.791 19.6494ZM283.33 52.959L290.708 55.4656L287.786 64.075L279.725 59.8693L283.33 52.959ZM254.242 46.3808L254.522 54.1702L246.449 54.4617V46.3808H254.242ZM242.986 -7.79413C249.823 -7.79413 256.086 -3.9708 259.211 2.11064L245.348 9.23664C244.893 8.35092 243.982 7.79411 242.986 7.79411V-7.79413ZM242.064 -7.79413H242.986V7.79411H242.064V-7.79413ZM218.782 2.01337C224.906 -4.25809 233.3 -7.79413 242.064 -7.79413V7.79411C237.498 7.79411 233.124 9.63663 229.934 12.9044L218.782 2.01337ZM217.987 2.82755L218.782 2.01337L229.934 12.9044L229.139 13.7186L217.987 2.82755ZM205.676 23.6512C208.049 15.8227 212.273 8.6803 217.987 2.82755L229.139 13.7186C225.171 17.7818 222.239 22.7404 220.592 28.1753L205.676 23.6512ZM204.535 27.413L205.676 23.6512L220.592 28.1753L219.451 31.9367L204.535 27.413ZM208.056 58.2496C202.679 48.8967 201.405 37.7371 204.535 27.413L219.451 31.9367C217.568 38.1455 218.335 44.8562 221.567 50.4805L208.056 58.2496ZM208.364 58.7874L208.056 58.2496L221.567 50.4805L221.876 51.0167L208.364 58.7874ZM217.675 62.2652C210.986 64.5863 204.443 67.3391 198.09 70.5098L191.132 56.5599C198.085 53.0915 205.246 50.0798 212.566 47.539L217.675 62.2652ZM198.09 70.5098L183.252 77.9126L176.294 63.9643L191.132 56.5599L198.09 70.5098ZM183.54 77.7614L164.014 88.5454L156.48 74.8994L176.006 64.1155L183.54 77.7614ZM164.014 88.5454C148.816 96.9396 137.054 110.408 130.78 126.598L116.248 120.964C123.841 101.365 138.082 85.0598 156.48 74.8994L164.014 88.5454ZM130.78 126.596L130.051 128.482L115.517 122.85L116.248 120.964L130.78 126.596ZM130.051 128.482C127.228 135.767 125.78 143.511 125.78 151.322H110.194C110.194 141.584 111.999 131.931 115.517 122.85L130.051 128.482ZM125.78 151.322C125.78 158.8 127.107 166.22 129.698 173.235L115.08 178.638C111.848 169.894 110.194 160.646 110.194 151.322H125.78ZM129.698 173.235L130.051 174.184L115.431 179.588L115.08 178.638L129.698 173.235ZM130.051 174.184C139.599 200.026 163.628 217.689 191.139 219.089L190.347 234.657C156.609 232.939 127.141 211.279 115.431 179.588L130.051 174.184ZM191.139 219.089L195.8 219.326L195.009 234.894L190.347 234.657L191.139 219.089ZM195.8 219.326C211.52 220.126 227.1 216.021 240.386 207.579L248.745 220.735C232.733 230.911 213.955 235.859 195.009 234.894L195.8 219.326ZM240.386 207.579L248.721 202.28L257.082 215.437L248.745 220.735L240.386 207.579ZM248.721 202.28C252.092 200.138 255.294 197.741 258.297 195.11L268.567 206.835C264.963 209.992 261.123 212.868 257.082 215.437L248.721 202.28ZM258.297 195.11L281.686 174.62L291.955 186.346L268.567 206.835L258.297 195.11ZM281.686 174.62C288.305 168.823 293.896 161.949 298.226 154.287L311.795 161.957C306.602 171.146 299.895 179.392 291.955 186.346L281.686 174.62ZM298.226 154.287L299.521 151.994L313.09 159.664L311.795 161.957L298.226 154.287ZM299.521 151.994C305.447 141.506 308.561 129.666 308.561 117.619H324.147C324.147 132.353 320.337 146.836 313.09 159.664L299.521 151.994ZM308.561 117.619V116.797H324.147V117.619H308.561ZM308.561 116.797C308.561 111.164 308.017 105.543 306.937 100.014L322.234 97.0254C323.506 103.54 324.147 110.16 324.147 116.797H308.561ZM306.937 100.014L306.609 98.3363L321.907 95.3481L322.234 97.0254L306.937 100.014ZM329.226 85.9312L321.072 100.625L307.443 93.0613L315.598 78.3662L329.226 85.9312ZM336.603 46.8921C338.405 60.3603 335.818 74.0499 329.226 85.9312L315.598 78.3662C320.563 69.417 322.512 59.1054 321.154 48.9606L336.603 46.8921ZM326.072 16.6411C331.589 25.9095 335.172 36.2001 336.603 46.8921L321.154 48.9606C320.002 40.3559 317.121 32.0754 312.68 24.6165L326.072 16.6411ZM325.489 15.6616L326.072 16.6411L312.68 24.6165L312.096 23.6371L325.489 15.6616ZM321.491 9.02558L325.467 15.6275L312.117 23.6714L308.14 17.0694L321.491 9.02558ZM288.819 12.5494C293.776 -2.04862 313.537 -4.18 321.491 9.02558L308.14 17.0694C307.03 15.2253 304.27 15.5231 303.578 17.5615L288.819 12.5494ZM275.95 50.4524L288.819 12.5494L303.578 17.5615L290.708 55.4656L275.95 50.4524ZM279.725 59.8693C271.966 55.821 263.279 53.8538 254.522 54.1702L253.961 38.5913C265.417 38.1782 276.782 40.7518 286.933 46.0487L279.725 59.8693ZM262.035 13.7845V46.3808H246.449V13.7845H262.035ZM259.211 2.11064C261.067 5.72212 262.035 9.72409 262.035 13.7845H246.449C246.449 12.2026 246.072 10.6435 245.348 9.23664L259.211 2.11064Z" fill="#281214"/>
</g>
<path d="M294.605 81.1316L247.94 120.596L241.53 125.371C237.605 128.295 232.058 126.534 230.504 121.87C229.776 119.686 229.903 117.295 230.855 115.189L232.46 111.641" stroke="#281214" stroke-width="4" stroke-linecap="round"/>
<path d="M156.603 70.968L172.375 107.936L175.317 114.244C177.292 118.476 182.85 119.418 186.168 116.082C187.602 114.638 188.212 112.564 187.781 110.584L186.845 106.271" stroke="#281214" stroke-width="4" stroke-linecap="round"/>
<path d="M160.252 124.283C159.377 135.686 161.976 139.399 165.562 139.689C169.148 139.977 172.364 136.732 173.238 125.327C174.114 113.925 171.45 110.353 167.864 110.065C164.278 109.775 161.126 112.879 160.252 124.283Z" fill="#281214"/>
<path d="M170.168 120.374C167.821 120.879 165.518 119.341 165.025 116.938C164.531 114.534 166.033 112.176 168.379 111.67C170.726 111.164 173.029 112.702 173.523 115.106C174.017 117.509 172.515 119.868 170.168 120.374Z" fill="white"/>
<path d="M242.881 136.247C242.091 147.656 244.719 151.349 248.307 151.609C251.894 151.869 255.085 148.601 255.875 137.19C256.665 125.779 253.974 122.228 250.386 121.968C246.798 121.708 243.671 124.836 242.881 136.247Z" fill="#281214"/>
<path d="M246.898 132.076C244.631 131.273 243.429 128.741 244.213 126.42C244.996 124.098 247.469 122.867 249.736 123.67C252.002 124.473 253.204 127.005 252.421 129.326C251.637 131.647 249.164 132.879 246.898 132.076Z" fill="white"/>
</svg>
