<svg width="401" height="408" viewBox="0 0 401 408" fill="none" xmlns="http://www.w3.org/2000/svg">
<rect x="154" y="368.671" width="54.6883" height="54.6883" rx="9.11472" transform="rotate(-45 154 368.671)" fill="#AF3FFF"/>
<mask id="mask0_163_218" style="mask-type:alpha" maskUnits="userSpaceOnUse" x="167" y="343" width="51" height="51">
<path d="M167.581 343.581H217.712V393.712H167.581V343.581Z" fill="#D9D9D9"/>
</mask>
<g mask="url(#mask0_163_218)">
<path d="M193.877 386.592C193.153 387.156 192.139 387.156 191.415 386.592L175.909 374.532C174.868 373.723 174.878 372.147 175.929 371.351L176.068 371.246C176.791 370.698 177.791 370.704 178.508 371.259L191.417 381.271C192.14 381.831 193.152 381.831 193.875 381.271L206.784 371.259C207.501 370.704 208.501 370.698 209.224 371.246L209.363 371.351C210.414 372.147 210.424 373.723 209.383 374.532L193.877 386.592ZM193.877 376.044C193.153 376.607 192.139 376.607 191.415 376.044L175.882 363.963C174.85 363.16 174.85 361.6 175.882 360.797L191.415 348.716C192.139 348.153 193.153 348.153 193.877 348.716L209.41 360.797C210.442 361.6 210.442 363.16 209.41 363.963L193.877 376.044ZM191.419 370.725C192.141 371.285 193.151 371.285 193.873 370.725L202.608 363.966C203.645 363.163 203.645 361.597 202.608 360.794L193.873 354.035C193.151 353.476 192.141 353.476 191.419 354.035L182.685 360.794C181.647 361.597 181.647 363.163 182.685 363.966L191.419 370.725Z" fill="#F8F8F8"/>
</g>
<rect x="323" y="200.67" width="54.6883" height="54.6883" rx="9.11472" transform="rotate(-45 323 200.67)" fill="#FF406E"/>
<mask id="mask1_163_218" style="mask-type:alpha" maskUnits="userSpaceOnUse" x="338" y="177" width="47" height="47">
<path d="M338.859 177.86H384.433V223.433H338.859V177.86Z" fill="#D9D9D9"/>
</mask>
<g mask="url(#mask1_163_218)">
<path d="M365.444 217.736C364.906 217.736 364.455 217.554 364.092 217.189C363.727 216.826 363.545 216.375 363.545 215.837C363.545 215.299 363.727 214.849 364.092 214.485C364.455 214.121 364.906 213.939 365.444 213.939C366.932 213.939 368.253 213.646 369.407 213.061C370.563 212.475 371.141 211.818 371.141 211.09C371.141 210.647 370.935 210.236 370.524 209.856C370.369 209.713 370.193 209.575 369.994 209.442C369.46 209.083 369.307 208.319 369.761 207.865L371.115 206.511C371.409 206.217 371.869 206.155 372.211 206.394C372.95 206.908 373.558 207.492 374.037 208.147C374.638 208.97 374.939 209.951 374.939 211.09C374.939 213.179 373.942 214.809 371.948 215.98C369.954 217.151 367.786 217.736 365.444 217.736ZM348.045 202.712C347.752 203.005 347.294 203.068 346.953 202.831C346.31 202.384 345.78 201.885 345.363 201.334C344.825 200.622 344.556 199.76 344.556 198.747C344.556 197.418 345.047 196.302 346.028 195.4C347.009 194.498 348.765 193.494 351.297 192.386C353.291 191.468 354.565 190.827 355.118 190.462C355.672 190.099 355.95 189.696 355.95 189.253C355.95 188.746 355.641 188.303 355.023 187.924C354.406 187.544 353.449 187.354 352.152 187.354C351.361 187.354 350.696 187.449 350.158 187.639C349.62 187.829 349.129 188.145 348.686 188.588C348.338 188.936 347.911 189.142 347.405 189.205C346.898 189.269 346.439 189.126 346.028 188.778C345.616 188.462 345.379 188.05 345.316 187.544C345.252 187.037 345.395 186.579 345.743 186.167C346.344 185.439 347.207 184.822 348.331 184.316C349.454 183.809 350.728 183.556 352.152 183.556C354.43 183.556 356.266 184.07 357.659 185.098C359.051 186.127 359.747 187.512 359.747 189.253C359.747 190.487 359.288 191.595 358.371 192.576C357.453 193.557 355.601 194.649 352.816 195.852C350.981 196.643 349.778 197.228 349.208 197.608C348.639 197.988 348.354 198.368 348.354 198.747C348.354 199.032 348.536 199.309 348.899 199.579C348.978 199.637 349.064 199.695 349.156 199.753C349.71 200.101 349.881 200.876 349.418 201.339L348.045 202.712ZM350.253 213.027C350.253 213.53 350.661 213.939 351.164 213.939H352.532C352.775 213.939 353.008 213.842 353.179 213.669L373.186 193.528C373.54 193.172 373.539 192.596 373.183 192.241L371.814 190.872C371.457 190.515 370.878 190.516 370.523 190.874L350.518 211.013C350.348 211.184 350.253 211.415 350.253 211.656V213.027ZM347.367 217.736C346.863 217.736 346.455 217.328 346.455 216.825V210.042C346.455 209.801 346.55 209.57 346.72 209.399L369.878 186.11C370.59 185.394 371.747 185.393 372.46 186.106L377.952 191.598C378.663 192.309 378.664 193.46 377.956 194.173L354.793 217.468C354.622 217.64 354.389 217.736 354.146 217.736H347.367Z" fill="#F8F8F8"/>
</g>
<rect x="36" y="323.671" width="54.6883" height="54.6883" rx="9.11472" transform="rotate(-45 36 323.671)" fill="#FF7917"/>
<mask id="mask2_163_218" style="mask-type:alpha" maskUnits="userSpaceOnUse" x="52" y="301" width="45" height="45">
<rect x="52.9531" y="301.954" width="43.2949" height="43.2269" fill="#D9D9D9"/>
</mask>
<g mask="url(#mask2_163_218)">
<path d="M64.5079 340.318C64.0045 340.318 63.5964 339.91 63.5964 339.406V336.913C63.5964 336.671 63.6926 336.439 63.8639 336.268L64.8013 335.332C65.0887 335.045 64.8855 334.554 64.4793 334.554H60.3042C59.1617 334.554 58.1918 334.157 57.3944 333.362C56.5983 332.566 56.2002 331.597 56.2002 330.457V311.095C56.2002 309.954 56.5983 308.986 57.3944 308.189C58.1918 307.395 59.1617 306.997 60.3042 306.997H73.0577C73.5611 306.997 73.9691 307.405 73.9691 307.909V310.183C73.9691 310.687 73.5611 311.095 73.0577 311.095H61.2157C60.7123 311.095 60.3042 311.503 60.3042 312.006V329.545C60.3042 330.049 60.7123 330.457 61.2157 330.457H87.9854C88.4888 330.457 88.8969 330.049 88.8969 329.545V326.28C88.8969 325.777 89.305 325.369 89.8083 325.369H92.0894C92.5928 325.369 93.0009 325.777 93.0009 326.28V330.457C93.0009 331.597 92.6028 332.566 91.8067 333.362C91.0093 334.157 90.0394 334.554 88.8969 334.554H84.7218C84.3156 334.554 84.1123 335.045 84.3998 335.332L85.3372 336.268C85.5084 336.439 85.6047 336.671 85.6047 336.913V339.406C85.6047 339.91 85.1966 340.318 84.6932 340.318H64.5079Z" fill="#F8F8F8"/>
</g>
<mask id="mask3_163_218" style="mask-type:alpha" maskUnits="userSpaceOnUse" x="52" y="302" width="45" height="44">
<rect x="52.9531" y="302.022" width="43.2949" height="43.2269" fill="#D9D9D9"/>
</mask>
<g mask="url(#mask3_163_218)">
<path d="M64.5079 340.386C64.0045 340.386 63.5964 339.978 63.5964 339.474V336.981C63.5964 336.739 63.6926 336.507 63.8639 336.336L64.8013 335.4C65.0887 335.113 64.8855 334.622 64.4793 334.622H60.3042C59.1617 334.622 58.1918 334.225 57.3944 333.43C56.5983 332.634 56.2002 331.665 56.2002 330.525V311.162C56.2002 310.022 56.5983 309.053 57.3944 308.257C58.1918 307.462 59.1617 307.065 60.3042 307.065H73.0577C73.5611 307.065 73.9691 307.473 73.9691 307.976V310.251C73.9691 310.754 73.5611 311.162 73.0577 311.162H61.2157C60.7123 311.162 60.3042 311.571 60.3042 312.074V329.613C60.3042 330.116 60.7123 330.525 61.2157 330.525H87.9854C88.4888 330.525 88.8969 330.116 88.8969 329.613V326.348C88.8969 325.844 89.305 325.436 89.8083 325.436H92.0894C92.5928 325.436 93.0009 325.844 93.0009 326.348V330.525C93.0009 331.665 92.6028 332.634 91.8067 333.43C91.0093 334.225 90.0394 334.622 88.8969 334.622H84.7218C84.3156 334.622 84.1123 335.113 84.3998 335.4L85.3372 336.336C85.5084 336.507 85.6047 336.739 85.6047 336.981V339.474C85.6047 339.978 85.1966 340.386 84.6932 340.386H64.5079Z" fill="#F8F8F8"/>
</g>
<mask id="mask4_163_218" style="mask-type:alpha" maskUnits="userSpaceOnUse" x="73" y="303" width="24" height="23">
<rect x="73.9077" y="303.405" width="22.3402" height="22.3051" fill="#D9D9D9"/>
</mask>
<g mask="url(#mask4_163_218)">
<path d="M82.609 323.164C82.5717 323.413 82.3722 323.619 82.1205 323.619H78.6202C77.891 323.619 77.2664 323.359 76.7464 322.841C76.227 322.322 75.9673 321.698 75.9673 320.97V317.476C75.9673 317.224 76.1734 317.026 76.4203 316.977C76.8157 316.898 77.1611 316.711 77.4566 316.416C77.86 316.013 78.0617 315.518 78.0617 314.929C78.0617 314.34 77.86 313.845 77.4566 313.442C77.1611 313.147 76.8157 312.96 76.4203 312.881C76.1734 312.832 75.9673 312.634 75.9673 312.382V308.888C75.9673 308.16 76.227 307.536 76.7464 307.017C77.2664 306.499 77.891 306.239 78.6202 306.239H81.3057C81.5181 306.239 81.6992 306.091 81.7667 305.89C81.9623 305.305 82.2942 304.821 82.7624 304.438C83.3209 303.981 83.957 303.753 84.6706 303.753C85.3843 303.753 86.0204 303.981 86.5789 304.438C87.0471 304.821 87.379 305.305 87.5746 305.89C87.642 306.091 87.8232 306.239 88.0356 306.239H90.7211C91.4503 306.239 92.0749 306.499 92.5949 307.017C93.1143 307.536 93.374 308.16 93.374 308.888V311.568C93.374 311.781 93.5221 311.962 93.7237 312.029C94.3092 312.225 94.794 312.556 95.178 313.024C95.6353 313.581 95.864 314.216 95.864 314.929C95.864 315.641 95.6353 316.277 95.178 316.834C94.794 317.302 94.3092 317.633 93.7237 317.828C93.5221 317.896 93.374 318.077 93.374 318.289V320.97C93.374 321.698 93.1143 322.322 92.5949 322.841C92.0749 323.359 91.4503 323.619 90.7211 323.619H87.2208C86.9691 323.619 86.7695 323.413 86.7329 323.164C86.6614 322.677 86.4705 322.252 86.16 321.888C85.7566 321.415 85.2602 321.179 84.6706 321.179C84.0966 321.179 83.6042 321.415 83.1934 321.888C82.8767 322.252 82.6819 322.677 82.609 323.164ZM78.8994 320.235C78.8994 320.487 79.1035 320.691 79.3552 320.691H80.5205C80.5955 320.691 80.6624 320.645 80.692 320.576C81.0073 319.842 81.5191 319.277 82.2272 318.879C82.9719 318.461 83.7863 318.251 84.6706 318.251C85.5084 318.251 86.2996 318.461 87.0443 318.879C87.7551 319.278 88.2892 319.847 88.6466 320.584C88.6779 320.649 88.7426 320.691 88.8142 320.691H89.9861C90.2378 320.691 90.4419 320.487 90.4419 320.235V315.826C90.4419 315.726 90.5235 315.644 90.6242 315.644H92.4664C92.5905 315.644 92.6991 315.598 92.7922 315.505C92.8853 315.412 92.9319 315.053 92.9319 314.929C92.9319 314.805 92.8853 314.459 92.7922 314.366C92.6991 314.273 92.5905 314.227 92.4664 314.227H90.6242C90.5235 314.227 90.4419 314.145 90.4419 314.044V309.623C90.4419 309.371 90.2378 309.167 89.9861 309.167H85.4959C85.3952 309.167 85.3136 309.085 85.3136 308.985V307.145C85.3136 307.021 85.2671 306.913 85.174 306.82C85.0809 306.727 84.7249 306.679 84.6007 306.679C84.4766 306.679 84.1206 306.727 84.0275 306.82C83.9344 306.913 83.8879 307.021 83.8879 307.145V308.985C83.8879 309.085 83.8063 309.167 83.7056 309.167H79.3552C79.1035 309.167 78.8994 309.371 78.8994 309.623V310.656C78.8994 310.801 78.969 310.936 79.082 311.026C79.6481 311.48 80.1033 312.026 80.4474 312.663C80.8272 313.368 81.0171 314.123 81.0171 314.929C81.0171 315.734 80.8272 316.493 80.4474 317.206C80.1033 317.851 79.6481 318.4 79.0819 318.855C78.969 318.945 78.8994 319.08 78.8994 319.225V320.235Z" fill="#F8F8F8"/>
</g>
<rect y="198.67" width="54.6883" height="54.6883" rx="9.11472" transform="rotate(-45 0 198.67)" fill="#11D4B1"/>
<mask id="mask5_163_218" style="mask-type:alpha" maskUnits="userSpaceOnUse" x="18" y="178" width="42" height="42">
<path d="M18.1387 178.138H59.1549V219.155H18.1387V178.138Z" fill="#D9D9D9"/>
</mask>
<g mask="url(#mask5_163_218)">
<path d="M28.5089 195.729L31.8414 197.139C32.2402 196.342 32.6532 195.573 33.0805 194.832C33.5077 194.091 33.9777 193.351 34.4904 192.61L32.0978 192.14L28.5089 195.729ZM34.5759 199.275L39.4465 204.103C40.6428 203.648 41.9246 202.95 43.2918 202.01C44.659 201.07 45.9408 200.002 47.1371 198.805C49.1309 196.812 50.6907 194.597 51.8164 192.162C52.9409 189.727 53.4319 187.483 53.2895 185.432C51.2387 185.29 48.9885 185.781 46.5389 186.906C44.0894 188.031 41.8676 189.591 39.8738 191.585C38.6775 192.781 37.6094 194.063 36.6694 195.43C35.7294 196.797 35.0316 198.079 34.5759 199.275ZM42.9927 210.213L46.5817 206.624L46.1117 204.232C45.3711 204.744 44.6305 205.207 43.89 205.619C43.1494 206.033 42.3803 206.439 41.5828 206.838L42.9927 210.213ZM55.048 182.149C55.8362 182.222 56.4574 182.843 56.5304 183.631C56.8071 186.616 56.4178 189.531 55.3625 192.374C54.1514 195.636 52.0647 198.748 49.1024 201.711L49.9569 205.941C50.0709 206.51 50.0424 207.066 49.8715 207.607C49.7006 208.148 49.4158 208.618 49.017 209.017L43.1745 214.859C42.5355 215.498 41.4529 215.289 41.0984 214.457L38.2502 207.778L31.1188 200.646C31.0035 200.531 30.8671 200.439 30.717 200.375L24.259 197.621C23.4291 197.267 23.2185 196.188 23.8545 195.548L29.6625 189.705C30.0612 189.306 30.5386 189.021 31.0946 188.85C31.6495 188.68 32.2117 188.651 32.7814 188.765L37.0112 189.619C39.9735 186.657 43.0782 184.564 46.3253 183.339C49.157 182.271 52.0646 181.874 55.048 182.149ZM25.5608 205.898C26.5578 204.901 27.7751 204.395 29.213 204.38C30.652 204.367 31.8699 204.858 32.8669 205.855C33.8638 206.852 34.3548 208.069 34.34 209.507C34.3263 210.946 33.8211 212.164 32.8241 213.161C32.112 213.873 30.9231 214.486 29.2574 214.998C27.8223 215.44 25.9175 215.839 23.5431 216.196C22.9473 216.285 22.4364 215.775 22.526 215.179C22.883 212.804 23.2822 210.9 23.7237 209.464C24.2364 207.799 24.8488 206.61 25.5608 205.898ZM27.9962 208.29C27.7113 208.575 27.4265 209.095 27.1417 209.851C26.8568 210.605 26.6575 211.367 26.5435 212.136C27.3126 212.022 28.0748 211.83 28.8302 211.56C29.5844 211.289 30.104 211.011 30.3888 210.726C30.7306 210.384 30.9157 209.971 30.9442 209.487C30.9727 209.002 30.816 208.589 30.4742 208.248C30.1324 207.906 29.7194 207.742 29.2352 207.755C28.751 207.77 28.338 207.949 27.9962 208.29Z" fill="#F8F8F8"/>
</g>
<rect x="37.8262" y="194.217" width="6.72666" height="6.72666" rx="3.36333" fill="#F8F8F8"/>
<rect x="44.5532" y="188.803" width="5.41414" height="5.41414" rx="2.70707" fill="#F8F8F8"/>
<rect x="41" y="90.5" width="54.4472" height="54.4472" rx="9.07454" transform="rotate(-45 41 90.5)" fill="#D41153"/>
<path d="M101.631 84.3823C101.631 85.3367 100.925 86.1439 99.9786 86.2709L98.0142 86.5348C97.9602 86.6788 97.8882 86.8227 97.7983 86.9666C97.7083 87.1106 97.6183 87.2455 97.5284 87.3714L98.2995 89.1902C98.6758 90.0775 98.3302 91.1061 97.4946 91.5863L94.4566 93.3322C93.6218 93.8119 92.5603 93.5935 91.9826 92.8233L90.8084 91.2577C90.7184 91.2757 90.6375 91.2847 90.5655 91.2847H90.0797C90.0077 91.2847 89.9268 91.2757 89.8368 91.2577L88.6646 92.8206C88.0861 93.592 87.0225 93.8097 86.1874 93.3276L83.1689 91.5851C82.3372 91.105 81.9927 90.0811 82.365 89.1959L83.1438 87.3445C83.0359 87.2185 82.9412 87.0879 82.8599 86.9526C82.7793 86.818 82.712 86.6788 82.658 86.5348L80.6684 86.2695C79.7217 86.1433 79.0146 85.3357 79.0146 84.3806V80.9165C79.0146 79.9614 79.7217 79.1538 80.6684 79.0276L82.658 78.7623C82.712 78.6184 82.7793 78.4744 82.8599 78.3305C82.9412 78.1865 83.0359 78.0516 83.1438 77.9257L82.3714 76.1039C81.9957 75.2178 82.3396 74.1907 83.1731 73.7096L86.1874 71.9695C87.0225 71.4874 88.0861 71.7051 88.6646 72.4765L89.8368 74.0394H90.5655C90.6375 74.0394 90.7184 74.0484 90.8084 74.0664L91.9791 72.5054C92.5583 71.7332 93.6234 71.516 94.4587 71.9998L97.4982 73.7602C98.3319 74.2431 98.674 75.2723 98.2954 76.1582L97.5284 77.9527C97.6183 78.0786 97.7083 78.2089 97.7983 78.3434C97.8882 78.4787 97.9602 78.6184 98.0142 78.7623L99.9786 79.0262C100.925 79.1532 101.631 79.9605 101.631 80.9149V84.3823ZM98.7698 83.5661V81.7849L95.9361 81.3801C95.7922 80.8224 95.5809 80.2916 95.3024 79.7878C95.0232 79.2841 94.6677 78.8343 94.2358 78.4384L95.3424 75.7666L93.7771 74.903L92.0498 77.17C91.7799 77.08 91.5011 77.0128 91.2132 76.9681C90.9253 76.9228 90.6285 76.9001 90.3226 76.9001C90.0167 76.9001 89.7199 76.9228 89.432 76.9681C89.1441 77.0128 88.8652 77.08 88.5954 77.17L86.8681 74.876L85.3028 75.7666L86.4363 78.4114C86.0045 78.8073 85.64 79.2571 85.3428 79.7608C85.0463 80.2646 84.835 80.8044 84.7091 81.3801L81.8754 81.731V83.5392L84.6821 83.89C84.8261 84.4837 85.042 85.0325 85.3298 85.5363C85.6177 86.04 85.9775 86.4988 86.4093 86.9127L85.3028 89.5305L86.8681 90.4211L88.5684 88.1541C88.8563 88.2441 89.1394 88.3113 89.418 88.356C89.6972 88.4013 89.9987 88.424 90.3226 88.424C90.6285 88.424 90.9253 88.4013 91.2132 88.356C91.5011 88.3113 91.7889 88.2441 92.0768 88.1541L93.7771 90.4211L95.3424 89.5305L94.2089 86.9127C94.6407 86.4988 95.0048 86.0354 95.3013 85.5222C95.5986 85.0098 95.8191 84.4657 95.9631 83.89L98.7698 83.5661Z" fill="#F8F8F8"/>
<path d="M73.3883 79.33L70.0156 79.33C67.0634 79.33 64.489 81.3365 63.7679 84.1993L60.1408 98.5993C59.821 99.8687 60.0319 101.214 60.7249 102.324V102.324C62.0007 104.369 64.601 105.152 66.7982 104.161V104.161C67.8837 103.672 68.7543 102.797 69.2357 101.708L70.2522 99.4082C70.8623 98.028 72.2292 97.1378 73.7381 97.1378L82.5553 97.1378C83.8503 97.1378 85.023 97.9027 85.545 99.0878L86.6879 101.683C87.3596 103.208 88.783 104.29 90.4292 104.55V104.55C91.8124 104.768 93.2403 104.375 94.3079 103.469V103.469C95.6728 102.311 96.2809 100.49 95.8861 98.7434L95.3487 96.3664" stroke="#F8F8F8" stroke-width="3.62982" stroke-linecap="round"/>
<rect width="54.6883" height="54.6883" rx="9.11472" transform="matrix(-0.707107 -0.707107 -0.707107 0.707107 361.341 90.6707)" fill="#35E792"/>
<mask id="mask6_163_218" style="mask-type:alpha" maskUnits="userSpaceOnUse" x="298" y="66" width="49" height="49">
<path d="M346.666 66.6748H298.814V114.527H346.666V66.6748Z" fill="#D9D9D9"/>
</mask>
<g mask="url(#mask6_163_218)">
<path d="M321.7 97.9347C322.298 98.5327 323.268 98.5327 323.866 97.9347L330.159 91.6411C330.757 91.0431 330.757 90.0736 330.159 89.4756L323.866 83.182C323.268 82.584 322.298 82.584 321.7 83.182L315.407 89.4756C314.809 90.0736 314.809 91.0431 315.407 91.6411L321.7 97.9347ZM323.324 92.8367C323.025 93.1357 322.541 93.1357 322.242 92.8367L320.505 91.0997C320.206 90.8007 320.206 90.316 320.505 90.017L322.242 88.28C322.541 87.981 323.025 87.981 323.324 88.28L325.061 90.017C325.36 90.316 325.36 90.8007 325.061 91.0997L323.324 92.8367ZM313.03 107.028C313.628 107.626 314.597 107.626 315.195 107.028L317.073 105.15L319.575 107.653C320.468 108.546 321.537 108.992 322.782 108.992C324.028 108.992 325.097 108.546 325.99 107.653L328.493 105.15L330.371 107.028C330.969 107.626 331.938 107.626 332.536 107.028L333.332 106.233C333.93 105.635 333.93 104.666 333.332 104.068L331.454 102.19L334.414 99.229L336.292 101.107C336.89 101.705 337.86 101.705 338.458 101.107L339.253 100.312C339.851 99.7138 339.851 98.7442 339.253 98.1462L337.375 96.2683L339.877 93.7658C340.77 92.8729 341.217 91.8033 341.217 90.5569C341.217 89.3125 340.77 88.2438 339.877 87.3509L337.375 84.8484L339.253 82.9705C339.851 82.3725 339.851 81.4029 339.253 80.8049L338.458 80.0098C337.86 79.4118 336.89 79.4118 336.292 80.0098L334.414 81.8877L331.454 78.927L333.332 77.0491C333.93 76.4511 333.93 75.4815 333.332 74.8835L332.536 74.0884C331.938 73.4904 330.969 73.4904 330.371 74.0884L328.493 75.9663L325.99 73.4638C325.097 72.5709 324.028 72.1239 322.783 72.123C321.538 72.1239 320.468 72.5709 319.575 73.4638L317.073 75.9663L315.195 74.0884C314.597 73.4904 313.628 73.4904 313.03 74.0884L312.234 74.8835C311.636 75.4815 311.636 76.4511 312.234 77.0491L314.112 78.927L311.152 81.8877L309.274 80.0098C308.676 79.4118 307.706 79.4118 307.108 80.0098L306.313 80.8049C305.715 81.4029 305.715 82.3725 306.313 82.9705L308.191 84.8484L305.688 87.3509C304.795 88.2438 304.349 89.313 304.348 90.5583C304.349 91.8037 304.795 92.8729 305.688 93.7658L308.191 96.2683L306.313 98.1462C305.715 98.7442 305.715 99.7138 306.313 100.312L307.108 101.107C307.706 101.705 308.676 101.705 309.274 101.107L311.152 99.229L314.112 102.19L312.234 104.068C311.636 104.666 311.636 105.635 312.234 106.233L313.03 107.028ZM309.979 91.6411C309.381 91.0431 309.381 90.0736 309.979 89.4756L321.7 77.754C322.298 77.156 323.268 77.156 323.866 77.754L335.587 89.4756C336.185 90.0736 336.185 91.0431 335.587 91.6411L323.866 103.363C323.268 103.961 322.298 103.961 321.7 103.363L309.979 91.6411Z" fill="#F8F8F8"/>
</g>
<rect x="284" y="320.67" width="54.6883" height="54.6883" rx="9.11472" transform="rotate(-45 284 320.67)" fill="#1E6CFF"/>
<mask id="mask7_163_218" style="mask-type:alpha" maskUnits="userSpaceOnUse" x="298" y="296" width="49" height="49">
<rect x="298.675" y="296.675" width="47.8523" height="47.8523" fill="#D9D9D9"/>
</mask>
<g mask="url(#mask7_163_218)">
<path d="M312.632 338.545C309.874 338.545 307.523 337.574 305.58 335.63C303.635 333.686 302.663 331.334 302.663 328.576C302.663 326.15 303.419 324.032 304.932 322.22C306.075 320.85 307.441 319.866 309.032 319.266C309.84 318.961 310.638 319.614 310.638 320.479V321.967C310.638 322.551 310.258 323.056 309.744 323.334C308.976 323.75 308.318 324.334 307.771 325.087C307.024 326.117 306.65 327.28 306.65 328.576C306.65 330.238 307.232 331.65 308.395 332.813C309.558 333.976 310.97 334.558 312.632 334.558C314.293 334.558 315.706 333.976 316.869 332.813C318.032 331.65 318.613 330.238 318.613 328.576V328.405C318.613 327.398 319.43 326.582 320.436 326.582H330.327C330.593 326.283 330.917 326.042 331.3 325.859C331.682 325.676 332.105 325.585 332.57 325.585C333.401 325.585 334.107 325.877 334.688 326.459C335.27 327.04 335.561 327.745 335.561 328.576C335.561 329.407 335.27 330.113 334.688 330.694C334.107 331.276 333.401 331.567 332.57 331.567C332.105 331.567 331.682 331.476 331.3 331.294C330.917 331.11 330.593 330.869 330.327 330.57H322.402C321.936 332.863 320.799 334.766 318.988 336.278C317.176 337.79 315.058 338.545 312.632 338.545ZM332.57 338.545C330.709 338.545 329.023 338.088 327.512 337.174C326.701 336.684 325.984 336.112 325.36 335.455C324.634 334.692 325.263 333.561 326.316 333.561H328.842C329.127 333.561 329.402 333.655 329.648 333.8C330.013 334.015 330.405 334.185 330.826 334.308C331.391 334.475 331.972 334.558 332.57 334.558C334.232 334.558 335.644 333.976 336.807 332.813C337.97 331.65 338.552 330.238 338.552 328.576C338.552 326.915 337.97 325.502 336.807 324.339C335.644 323.176 334.232 322.595 332.57 322.595C331.906 322.595 331.291 322.686 330.726 322.868V322.868C329.805 323.167 328.701 322.976 328.202 322.146L323.05 313.572C322.352 313.44 321.77 313.107 321.305 312.576C320.84 312.044 320.607 311.396 320.607 310.632C320.607 309.801 320.898 309.095 321.481 308.514C322.061 307.932 322.767 307.641 323.598 307.641C324.429 307.641 325.135 307.932 325.715 308.514C326.298 309.095 326.589 309.801 326.589 310.632V311.056C326.589 311.172 326.555 311.313 326.489 311.479L330.826 318.756C331.091 318.69 331.374 318.648 331.673 318.631C331.972 318.615 332.271 318.607 332.57 318.607C335.328 318.607 337.68 319.579 339.624 321.522C341.568 323.467 342.539 325.818 342.539 328.576C342.539 331.334 341.568 333.686 339.624 335.63C337.68 337.574 335.328 338.545 332.57 338.545ZM312.632 331.567C311.801 331.567 311.095 331.276 310.514 330.694C309.932 330.113 309.641 329.407 309.641 328.576C309.641 327.845 309.874 327.214 310.339 326.682C310.804 326.15 311.369 325.801 312.034 325.635L316.719 317.859C315.756 316.962 315 315.89 314.452 314.643C313.903 313.398 313.629 312.06 313.629 310.632C313.629 307.873 314.601 305.523 316.546 303.579C318.489 301.635 320.84 300.662 323.598 300.662C326.356 300.662 328.708 301.635 330.652 303.579C332.267 305.194 333.211 307.09 333.484 309.268C333.578 310.017 332.955 310.632 332.2 310.632H330.947C330.192 310.632 329.599 310.012 329.438 309.274C329.202 308.187 328.667 307.227 327.835 306.395C326.672 305.232 325.259 304.65 323.598 304.65C321.936 304.65 320.524 305.232 319.361 306.395C318.198 307.558 317.616 308.97 317.616 310.632C317.616 312.06 318.048 313.315 318.912 314.394C319.223 314.782 319.564 315.12 319.934 315.408C320.916 316.169 321.544 317.561 320.905 318.626L315.473 327.679C315.54 327.845 315.581 327.995 315.599 328.128C315.615 328.26 315.623 328.41 315.623 328.576C315.623 329.407 315.331 330.113 314.749 330.694C314.168 331.276 313.463 331.567 312.632 331.567Z" fill="#F8F8F8"/>
</g>
<rect x="154" y="38.6704" width="54.6883" height="54.6883" rx="9.1147" transform="rotate(-45 154 38.6704)" fill="#05A3FF"/>
<mask id="path-29-outside-1_163_218" maskUnits="userSpaceOnUse" x="167.219" y="30.719" width="51" height="16" fill="black">
<rect fill="white" x="167.219" y="30.719" width="51" height="16"/>
<path d="M179.734 31.719C180.165 31.719 180.521 31.8599 180.803 32.1418C181.085 32.4236 181.226 32.7884 181.226 33.236V43.7557C181.226 44.1868 181.085 44.5516 180.803 44.85C180.521 45.1318 180.165 45.2728 179.734 45.2728C179.303 45.2728 178.946 45.1318 178.664 44.85C178.382 44.5516 178.242 44.1868 178.242 43.7557V42.5371L178.789 42.761C178.789 42.9765 178.673 43.2418 178.441 43.5568C178.208 43.8552 177.893 44.1536 177.495 44.4521C177.098 44.7505 176.625 45.0075 176.078 45.223C175.547 45.422 174.967 45.5215 174.337 45.5215C173.193 45.5215 172.157 45.2313 171.228 44.651C170.3 44.0542 169.562 43.2418 169.015 42.2138C168.485 41.1693 168.219 39.9756 168.219 38.6327C168.219 37.2731 168.485 36.0794 169.015 35.0515C169.562 34.007 170.292 33.1946 171.204 32.6143C172.115 32.0174 173.127 31.719 174.238 31.719C174.951 31.719 175.605 31.8268 176.202 32.0423C176.799 32.2578 177.313 32.5314 177.744 32.863C178.192 33.1946 178.532 33.5345 178.764 33.8826C179.013 34.2142 179.137 34.4961 179.137 34.7282L178.242 35.0515V33.236C178.242 32.805 178.382 32.4485 178.664 32.1666C178.946 31.8682 179.303 31.719 179.734 31.719ZM174.71 42.7858C175.44 42.7858 176.078 42.6035 176.625 42.2387C177.172 41.874 177.595 41.3766 177.893 40.7466C178.208 40.1165 178.366 39.4119 178.366 38.6327C178.366 37.8368 178.208 37.1239 177.893 36.4939C177.595 35.8639 177.172 35.3665 176.625 35.0017C176.078 34.637 175.44 34.4546 174.71 34.4546C173.997 34.4546 173.367 34.637 172.82 35.0017C172.273 35.3665 171.842 35.8639 171.527 36.4939C171.228 37.1239 171.079 37.8368 171.079 38.6327C171.079 39.4119 171.228 40.1165 171.527 40.7466C171.842 41.3766 172.273 41.874 172.82 42.2387C173.367 42.6035 173.997 42.7858 174.71 42.7858Z"/>
<path d="M190.376 31.719C191.321 31.719 192.142 31.8185 192.838 32.0174C193.551 32.2164 194.098 32.4982 194.479 32.863C194.877 33.2112 195.076 33.6339 195.076 34.1313C195.076 34.4629 194.977 34.7779 194.778 35.0764C194.579 35.3582 194.289 35.4991 193.907 35.4991C193.642 35.4991 193.418 35.466 193.236 35.3997C193.07 35.3168 192.921 35.2173 192.788 35.1012C192.656 34.9852 192.498 34.8774 192.316 34.7779C192.15 34.6784 191.893 34.6038 191.545 34.5541C191.213 34.4878 190.965 34.4546 190.799 34.4546C189.953 34.4546 189.232 34.637 188.635 35.0017C188.055 35.3665 187.607 35.8639 187.292 36.4939C186.977 37.1073 186.82 37.8203 186.82 38.6327C186.82 39.4285 186.977 40.1414 187.292 40.7714C187.624 41.3849 188.071 41.874 188.635 42.2387C189.215 42.6035 189.879 42.7858 190.625 42.7858C191.039 42.7858 191.396 42.761 191.694 42.7112C191.993 42.6615 192.241 42.5869 192.44 42.4874C192.672 42.3548 192.88 42.2138 193.062 42.0646C193.244 41.9154 193.518 41.8408 193.883 41.8408C194.314 41.8408 194.645 41.9817 194.877 42.2636C195.109 42.5289 195.226 42.8604 195.226 43.2584C195.226 43.6728 194.993 44.0542 194.529 44.4023C194.065 44.7339 193.452 45.0075 192.689 45.223C191.943 45.422 191.13 45.5215 190.252 45.5215C188.942 45.5215 187.806 45.223 186.845 44.6262C185.883 44.0127 185.137 43.1837 184.606 42.1392C184.092 41.0947 183.835 39.9259 183.835 38.6327C183.835 37.2731 184.109 36.0794 184.656 35.0515C185.22 34.007 185.991 33.1946 186.969 32.6143C187.964 32.0174 189.099 31.719 190.376 31.719Z"/>
<path d="M204.366 31.719C205.692 31.719 206.67 32.0423 207.3 32.6889C207.93 33.3189 208.345 34.1396 208.544 35.151L208.121 34.9271L208.32 34.5292C208.519 34.1479 208.826 33.7417 209.24 33.3106C209.655 32.863 210.152 32.4899 210.732 32.1915C211.329 31.8765 211.992 31.719 212.722 31.719C213.916 31.719 214.819 31.976 215.433 32.4899C216.063 33.0039 216.494 33.692 216.726 34.5541C216.958 35.3997 217.074 36.3447 217.074 37.3892V43.7557C217.074 44.1868 216.933 44.5516 216.651 44.85C216.369 45.1318 216.013 45.2728 215.582 45.2728C215.151 45.2728 214.794 45.1318 214.512 44.85C214.231 44.5516 214.09 44.1868 214.09 43.7557V37.3892C214.09 36.8421 214.023 36.353 213.891 35.9219C213.758 35.4743 213.518 35.1178 213.17 34.8525C212.821 34.5873 212.324 34.4546 211.677 34.4546C211.047 34.4546 210.509 34.5873 210.061 34.8525C209.613 35.1178 209.273 35.4743 209.041 35.9219C208.826 36.353 208.718 36.8421 208.718 37.3892V43.7557C208.718 44.1868 208.577 44.5516 208.295 44.85C208.013 45.1318 207.657 45.2728 207.226 45.2728C206.795 45.2728 206.438 45.1318 206.156 44.85C205.875 44.5516 205.734 44.1868 205.734 43.7557V37.3892C205.734 36.8421 205.667 36.353 205.535 35.9219C205.402 35.4743 205.162 35.1178 204.813 34.8525C204.465 34.5873 203.968 34.4546 203.321 34.4546C202.691 34.4546 202.152 34.5873 201.705 34.8525C201.257 35.1178 200.917 35.4743 200.685 35.9219C200.47 36.353 200.362 36.8421 200.362 37.3892V43.7557C200.362 44.1868 200.221 44.5516 199.939 44.85C199.657 45.1318 199.301 45.2728 198.87 45.2728C198.439 45.2728 198.082 45.1318 197.8 44.85C197.518 44.5516 197.378 44.1868 197.378 43.7557V33.4847C197.378 33.0536 197.518 32.6972 197.8 32.4153C198.082 32.1169 198.439 31.9677 198.87 31.9677C199.301 31.9677 199.657 32.1169 199.939 32.4153C200.221 32.6972 200.362 33.0536 200.362 33.4847V34.5541L199.989 34.4795C200.138 34.1976 200.345 33.8992 200.611 33.5842C200.876 33.2526 201.199 32.9459 201.58 32.664C201.962 32.3822 202.385 32.1584 202.849 31.9926C203.313 31.8102 203.819 31.719 204.366 31.719Z"/>
</mask>
<path d="M179.734 31.719C180.165 31.719 180.521 31.8599 180.803 32.1418C181.085 32.4236 181.226 32.7884 181.226 33.236V43.7557C181.226 44.1868 181.085 44.5516 180.803 44.85C180.521 45.1318 180.165 45.2728 179.734 45.2728C179.303 45.2728 178.946 45.1318 178.664 44.85C178.382 44.5516 178.242 44.1868 178.242 43.7557V42.5371L178.789 42.761C178.789 42.9765 178.673 43.2418 178.441 43.5568C178.208 43.8552 177.893 44.1536 177.495 44.4521C177.098 44.7505 176.625 45.0075 176.078 45.223C175.547 45.422 174.967 45.5215 174.337 45.5215C173.193 45.5215 172.157 45.2313 171.228 44.651C170.3 44.0542 169.562 43.2418 169.015 42.2138C168.485 41.1693 168.219 39.9756 168.219 38.6327C168.219 37.2731 168.485 36.0794 169.015 35.0515C169.562 34.007 170.292 33.1946 171.204 32.6143C172.115 32.0174 173.127 31.719 174.238 31.719C174.951 31.719 175.605 31.8268 176.202 32.0423C176.799 32.2578 177.313 32.5314 177.744 32.863C178.192 33.1946 178.532 33.5345 178.764 33.8826C179.013 34.2142 179.137 34.4961 179.137 34.7282L178.242 35.0515V33.236C178.242 32.805 178.382 32.4485 178.664 32.1666C178.946 31.8682 179.303 31.719 179.734 31.719ZM174.71 42.7858C175.44 42.7858 176.078 42.6035 176.625 42.2387C177.172 41.874 177.595 41.3766 177.893 40.7466C178.208 40.1165 178.366 39.4119 178.366 38.6327C178.366 37.8368 178.208 37.1239 177.893 36.4939C177.595 35.8639 177.172 35.3665 176.625 35.0017C176.078 34.637 175.44 34.4546 174.71 34.4546C173.997 34.4546 173.367 34.637 172.82 35.0017C172.273 35.3665 171.842 35.8639 171.527 36.4939C171.228 37.1239 171.079 37.8368 171.079 38.6327C171.079 39.4119 171.228 40.1165 171.527 40.7466C171.842 41.3766 172.273 41.874 172.82 42.2387C173.367 42.6035 173.997 42.7858 174.71 42.7858Z" fill="white"/>
<path d="M190.376 31.719C191.321 31.719 192.142 31.8185 192.838 32.0174C193.551 32.2164 194.098 32.4982 194.479 32.863C194.877 33.2112 195.076 33.6339 195.076 34.1313C195.076 34.4629 194.977 34.7779 194.778 35.0764C194.579 35.3582 194.289 35.4991 193.907 35.4991C193.642 35.4991 193.418 35.466 193.236 35.3997C193.07 35.3168 192.921 35.2173 192.788 35.1012C192.656 34.9852 192.498 34.8774 192.316 34.7779C192.15 34.6784 191.893 34.6038 191.545 34.5541C191.213 34.4878 190.965 34.4546 190.799 34.4546C189.953 34.4546 189.232 34.637 188.635 35.0017C188.055 35.3665 187.607 35.8639 187.292 36.4939C186.977 37.1073 186.82 37.8203 186.82 38.6327C186.82 39.4285 186.977 40.1414 187.292 40.7714C187.624 41.3849 188.071 41.874 188.635 42.2387C189.215 42.6035 189.879 42.7858 190.625 42.7858C191.039 42.7858 191.396 42.761 191.694 42.7112C191.993 42.6615 192.241 42.5869 192.44 42.4874C192.672 42.3548 192.88 42.2138 193.062 42.0646C193.244 41.9154 193.518 41.8408 193.883 41.8408C194.314 41.8408 194.645 41.9817 194.877 42.2636C195.109 42.5289 195.226 42.8604 195.226 43.2584C195.226 43.6728 194.993 44.0542 194.529 44.4023C194.065 44.7339 193.452 45.0075 192.689 45.223C191.943 45.422 191.13 45.5215 190.252 45.5215C188.942 45.5215 187.806 45.223 186.845 44.6262C185.883 44.0127 185.137 43.1837 184.606 42.1392C184.092 41.0947 183.835 39.9259 183.835 38.6327C183.835 37.2731 184.109 36.0794 184.656 35.0515C185.22 34.007 185.991 33.1946 186.969 32.6143C187.964 32.0174 189.099 31.719 190.376 31.719Z" fill="white"/>
<path d="M204.366 31.719C205.692 31.719 206.67 32.0423 207.3 32.6889C207.93 33.3189 208.345 34.1396 208.544 35.151L208.121 34.9271L208.32 34.5292C208.519 34.1479 208.826 33.7417 209.24 33.3106C209.655 32.863 210.152 32.4899 210.732 32.1915C211.329 31.8765 211.992 31.719 212.722 31.719C213.916 31.719 214.819 31.976 215.433 32.4899C216.063 33.0039 216.494 33.692 216.726 34.5541C216.958 35.3997 217.074 36.3447 217.074 37.3892V43.7557C217.074 44.1868 216.933 44.5516 216.651 44.85C216.369 45.1318 216.013 45.2728 215.582 45.2728C215.151 45.2728 214.794 45.1318 214.512 44.85C214.231 44.5516 214.09 44.1868 214.09 43.7557V37.3892C214.09 36.8421 214.023 36.353 213.891 35.9219C213.758 35.4743 213.518 35.1178 213.17 34.8525C212.821 34.5873 212.324 34.4546 211.677 34.4546C211.047 34.4546 210.509 34.5873 210.061 34.8525C209.613 35.1178 209.273 35.4743 209.041 35.9219C208.826 36.353 208.718 36.8421 208.718 37.3892V43.7557C208.718 44.1868 208.577 44.5516 208.295 44.85C208.013 45.1318 207.657 45.2728 207.226 45.2728C206.795 45.2728 206.438 45.1318 206.156 44.85C205.875 44.5516 205.734 44.1868 205.734 43.7557V37.3892C205.734 36.8421 205.667 36.353 205.535 35.9219C205.402 35.4743 205.162 35.1178 204.813 34.8525C204.465 34.5873 203.968 34.4546 203.321 34.4546C202.691 34.4546 202.152 34.5873 201.705 34.8525C201.257 35.1178 200.917 35.4743 200.685 35.9219C200.47 36.353 200.362 36.8421 200.362 37.3892V43.7557C200.362 44.1868 200.221 44.5516 199.939 44.85C199.657 45.1318 199.301 45.2728 198.87 45.2728C198.439 45.2728 198.082 45.1318 197.8 44.85C197.518 44.5516 197.378 44.1868 197.378 43.7557V33.4847C197.378 33.0536 197.518 32.6972 197.8 32.4153C198.082 32.1169 198.439 31.9677 198.87 31.9677C199.301 31.9677 199.657 32.1169 199.939 32.4153C200.221 32.6972 200.362 33.0536 200.362 33.4847V34.5541L199.989 34.4795C200.138 34.1976 200.345 33.8992 200.611 33.5842C200.876 33.2526 201.199 32.9459 201.58 32.664C201.962 32.3822 202.385 32.1584 202.849 31.9926C203.313 31.8102 203.819 31.719 204.366 31.719Z" fill="white"/>
<path d="M179.734 31.719C180.165 31.719 180.521 31.8599 180.803 32.1418C181.085 32.4236 181.226 32.7884 181.226 33.236V43.7557C181.226 44.1868 181.085 44.5516 180.803 44.85C180.521 45.1318 180.165 45.2728 179.734 45.2728C179.303 45.2728 178.946 45.1318 178.664 44.85C178.382 44.5516 178.242 44.1868 178.242 43.7557V42.5371L178.789 42.761C178.789 42.9765 178.673 43.2418 178.441 43.5568C178.208 43.8552 177.893 44.1536 177.495 44.4521C177.098 44.7505 176.625 45.0075 176.078 45.223C175.547 45.422 174.967 45.5215 174.337 45.5215C173.193 45.5215 172.157 45.2313 171.228 44.651C170.3 44.0542 169.562 43.2418 169.015 42.2138C168.485 41.1693 168.219 39.9756 168.219 38.6327C168.219 37.2731 168.485 36.0794 169.015 35.0515C169.562 34.007 170.292 33.1946 171.204 32.6143C172.115 32.0174 173.127 31.719 174.238 31.719C174.951 31.719 175.605 31.8268 176.202 32.0423C176.799 32.2578 177.313 32.5314 177.744 32.863C178.192 33.1946 178.532 33.5345 178.764 33.8826C179.013 34.2142 179.137 34.4961 179.137 34.7282L178.242 35.0515V33.236C178.242 32.805 178.382 32.4485 178.664 32.1666C178.946 31.8682 179.303 31.719 179.734 31.719ZM174.71 42.7858C175.44 42.7858 176.078 42.6035 176.625 42.2387C177.172 41.874 177.595 41.3766 177.893 40.7466C178.208 40.1165 178.366 39.4119 178.366 38.6327C178.366 37.8368 178.208 37.1239 177.893 36.4939C177.595 35.8639 177.172 35.3665 176.625 35.0017C176.078 34.637 175.44 34.4546 174.71 34.4546C173.997 34.4546 173.367 34.637 172.82 35.0017C172.273 35.3665 171.842 35.8639 171.527 36.4939C171.228 37.1239 171.079 37.8368 171.079 38.6327C171.079 39.4119 171.228 40.1165 171.527 40.7466C171.842 41.3766 172.273 41.874 172.82 42.2387C173.367 42.6035 173.997 42.7858 174.71 42.7858Z" stroke="white" stroke-width="0.729176" mask="url(#path-29-outside-1_163_218)"/>
<path d="M190.376 31.719C191.321 31.719 192.142 31.8185 192.838 32.0174C193.551 32.2164 194.098 32.4982 194.479 32.863C194.877 33.2112 195.076 33.6339 195.076 34.1313C195.076 34.4629 194.977 34.7779 194.778 35.0764C194.579 35.3582 194.289 35.4991 193.907 35.4991C193.642 35.4991 193.418 35.466 193.236 35.3997C193.07 35.3168 192.921 35.2173 192.788 35.1012C192.656 34.9852 192.498 34.8774 192.316 34.7779C192.15 34.6784 191.893 34.6038 191.545 34.5541C191.213 34.4878 190.965 34.4546 190.799 34.4546C189.953 34.4546 189.232 34.637 188.635 35.0017C188.055 35.3665 187.607 35.8639 187.292 36.4939C186.977 37.1073 186.82 37.8203 186.82 38.6327C186.82 39.4285 186.977 40.1414 187.292 40.7714C187.624 41.3849 188.071 41.874 188.635 42.2387C189.215 42.6035 189.879 42.7858 190.625 42.7858C191.039 42.7858 191.396 42.761 191.694 42.7112C191.993 42.6615 192.241 42.5869 192.44 42.4874C192.672 42.3548 192.88 42.2138 193.062 42.0646C193.244 41.9154 193.518 41.8408 193.883 41.8408C194.314 41.8408 194.645 41.9817 194.877 42.2636C195.109 42.5289 195.226 42.8604 195.226 43.2584C195.226 43.6728 194.993 44.0542 194.529 44.4023C194.065 44.7339 193.452 45.0075 192.689 45.223C191.943 45.422 191.13 45.5215 190.252 45.5215C188.942 45.5215 187.806 45.223 186.845 44.6262C185.883 44.0127 185.137 43.1837 184.606 42.1392C184.092 41.0947 183.835 39.9259 183.835 38.6327C183.835 37.2731 184.109 36.0794 184.656 35.0515C185.22 34.007 185.991 33.1946 186.969 32.6143C187.964 32.0174 189.099 31.719 190.376 31.719Z" stroke="white" stroke-width="0.729176" mask="url(#path-29-outside-1_163_218)"/>
<path d="M204.366 31.719C205.692 31.719 206.67 32.0423 207.3 32.6889C207.93 33.3189 208.345 34.1396 208.544 35.151L208.121 34.9271L208.32 34.5292C208.519 34.1479 208.826 33.7417 209.24 33.3106C209.655 32.863 210.152 32.4899 210.732 32.1915C211.329 31.8765 211.992 31.719 212.722 31.719C213.916 31.719 214.819 31.976 215.433 32.4899C216.063 33.0039 216.494 33.692 216.726 34.5541C216.958 35.3997 217.074 36.3447 217.074 37.3892V43.7557C217.074 44.1868 216.933 44.5516 216.651 44.85C216.369 45.1318 216.013 45.2728 215.582 45.2728C215.151 45.2728 214.794 45.1318 214.512 44.85C214.231 44.5516 214.09 44.1868 214.09 43.7557V37.3892C214.09 36.8421 214.023 36.353 213.891 35.9219C213.758 35.4743 213.518 35.1178 213.17 34.8525C212.821 34.5873 212.324 34.4546 211.677 34.4546C211.047 34.4546 210.509 34.5873 210.061 34.8525C209.613 35.1178 209.273 35.4743 209.041 35.9219C208.826 36.353 208.718 36.8421 208.718 37.3892V43.7557C208.718 44.1868 208.577 44.5516 208.295 44.85C208.013 45.1318 207.657 45.2728 207.226 45.2728C206.795 45.2728 206.438 45.1318 206.156 44.85C205.875 44.5516 205.734 44.1868 205.734 43.7557V37.3892C205.734 36.8421 205.667 36.353 205.535 35.9219C205.402 35.4743 205.162 35.1178 204.813 34.8525C204.465 34.5873 203.968 34.4546 203.321 34.4546C202.691 34.4546 202.152 34.5873 201.705 34.8525C201.257 35.1178 200.917 35.4743 200.685 35.9219C200.47 36.353 200.362 36.8421 200.362 37.3892V43.7557C200.362 44.1868 200.221 44.5516 199.939 44.85C199.657 45.1318 199.301 45.2728 198.87 45.2728C198.439 45.2728 198.082 45.1318 197.8 44.85C197.518 44.5516 197.378 44.1868 197.378 43.7557V33.4847C197.378 33.0536 197.518 32.6972 197.8 32.4153C198.082 32.1169 198.439 31.9677 198.87 31.9677C199.301 31.9677 199.657 32.1169 199.939 32.4153C200.221 32.6972 200.362 33.0536 200.362 33.4847V34.5541L199.989 34.4795C200.138 34.1976 200.345 33.8992 200.611 33.5842C200.876 33.2526 201.199 32.9459 201.58 32.664C201.962 32.3822 202.385 32.1584 202.849 31.9926C203.313 31.8102 203.819 31.719 204.366 31.719Z" stroke="white" stroke-width="0.729176" mask="url(#path-29-outside-1_163_218)"/>
</svg>
