<svg width="425" height="425" viewBox="0 0 425 425" fill="none" xmlns="http://www.w3.org/2000/svg">
<g clip-path="url(#clip0_726_647)">
<path d="M137.175 284.5L145.7 261.157L113.516 275.993C112.379 276.517 111.201 276.949 109.994 277.283L79.3368 285.776C78.896 285.898 78.812 286.487 79.2011 286.728C79.5026 286.914 79.8476 287.018 80.2019 287.031L111.042 288.094C114.288 288.206 117.537 287.977 120.735 287.41L137.175 284.5Z" fill="#B89061" stroke="#281214" stroke-width="5"/>
<mask id="path-2-inside-1_726_647" fill="white">
<path fill-rule="evenodd" clip-rule="evenodd" d="M117.157 198.69C119.597 195.725 123.518 194.418 127.249 195.327C132.16 196.522 136.057 200.254 137.462 205.11L139.488 212.108H142.788C146.318 212.108 149.74 210.894 152.481 208.67L159.434 203.028L196.075 216.595L265.408 205.378L261.437 213.575C264.32 212.172 267.651 211.861 270.792 212.763C276.274 214.338 280.478 218.752 281.783 224.305L282.245 226.274C282.502 227.366 282.632 228.485 282.632 229.607V233.769C282.632 241.17 280.036 248.337 275.295 254.021L273.831 255.777C270.966 259.212 266.857 261.372 262.403 261.783C257.17 262.267 251.926 260.987 247.505 258.148L241.659 254.394L220.526 298.008C219.52 300.084 218.073 301.84 216.336 303.196C216.043 307.75 213.867 311.997 210.303 314.897L201.934 321.707C196.115 326.443 189.008 329.322 181.533 329.974L178.13 330.27C174.383 330.597 170.709 329.095 168.263 326.237C166.57 324.258 165.889 321.605 166.422 319.055L166.458 318.88C167.649 313.173 171.081 308.184 175.984 305.031L181.772 301.308L178.491 298.77C175.331 301.739 171.939 304.456 168.347 306.894L162.105 311.129C158.283 313.723 153.146 313.179 149.951 309.843C146.843 306.599 145.931 301.833 147.622 297.671L149.095 294.043H144.243C143.116 294.043 141.997 293.849 140.936 293.469L140.8 293.421C134.95 291.331 131.552 285.233 132.852 279.159L133.582 275.746C134.854 269.803 137.563 264.262 141.473 259.609L154.013 244.684C154.411 244.211 153.974 243.504 153.373 243.649L145.572 245.523C140.828 246.663 135.893 246.754 131.111 245.791L127.766 245.117H125.442C119.72 245.117 114.559 241.675 112.36 236.392C110.267 231.362 109.19 225.968 109.19 220.52V218.406C109.19 211.917 111.444 205.63 115.568 200.62L117.157 198.69Z"/>
</mask>
<path fill-rule="evenodd" clip-rule="evenodd" d="M117.157 198.69C119.597 195.725 123.518 194.418 127.249 195.327C132.16 196.522 136.057 200.254 137.462 205.11L139.488 212.108H142.788C146.318 212.108 149.74 210.894 152.481 208.67L159.434 203.028L196.075 216.595L265.408 205.378L261.437 213.575C264.32 212.172 267.651 211.861 270.792 212.763C276.274 214.338 280.478 218.752 281.783 224.305L282.245 226.274C282.502 227.366 282.632 228.485 282.632 229.607V233.769C282.632 241.17 280.036 248.337 275.295 254.021L273.831 255.777C270.966 259.212 266.857 261.372 262.403 261.783C257.17 262.267 251.926 260.987 247.505 258.148L241.659 254.394L220.526 298.008C219.52 300.084 218.073 301.84 216.336 303.196C216.043 307.75 213.867 311.997 210.303 314.897L201.934 321.707C196.115 326.443 189.008 329.322 181.533 329.974L178.13 330.27C174.383 330.597 170.709 329.095 168.263 326.237C166.57 324.258 165.889 321.605 166.422 319.055L166.458 318.88C167.649 313.173 171.081 308.184 175.984 305.031L181.772 301.308L178.491 298.77C175.331 301.739 171.939 304.456 168.347 306.894L162.105 311.129C158.283 313.723 153.146 313.179 149.951 309.843C146.843 306.599 145.931 301.833 147.622 297.671L149.095 294.043H144.243C143.116 294.043 141.997 293.849 140.936 293.469L140.8 293.421C134.95 291.331 131.552 285.233 132.852 279.159L133.582 275.746C134.854 269.803 137.563 264.262 141.473 259.609L154.013 244.684C154.411 244.211 153.974 243.504 153.373 243.649L145.572 245.523C140.828 246.663 135.893 246.754 131.111 245.791L127.766 245.117H125.442C119.72 245.117 114.559 241.675 112.36 236.392C110.267 231.362 109.19 225.968 109.19 220.52V218.406C109.19 211.917 111.444 205.63 115.568 200.62L117.157 198.69Z" fill="#B89061"/>
<path d="M127.249 195.327L128.431 190.468L128.431 190.468L127.249 195.327ZM117.157 198.69L121.017 201.867L121.017 201.867L117.157 198.69ZM137.462 205.11L132.659 206.5L132.659 206.5L137.462 205.11ZM139.488 212.108V217.108H135.73L134.685 213.499L139.488 212.108ZM152.481 208.67L155.631 212.553L155.631 212.553L152.481 208.67ZM159.434 203.028L156.283 199.146L158.497 197.349L161.17 198.339L159.434 203.028ZM196.075 216.595L196.874 221.531L195.574 221.741L194.339 221.284L196.075 216.595ZM265.408 205.378L264.61 200.442L274.1 198.907L269.908 207.558L265.408 205.378ZM261.437 213.575L263.624 218.071L250.641 224.389L256.937 211.395L261.437 213.575ZM270.792 212.763L272.172 207.957L272.172 207.957L270.792 212.763ZM281.783 224.305L286.65 223.161L286.65 223.161L281.783 224.305ZM282.245 226.274L277.378 227.417L277.378 227.417L282.245 226.274ZM275.295 254.021L279.135 257.223L279.135 257.223L275.295 254.021ZM273.831 255.777L269.991 252.574L269.991 252.574L273.831 255.777ZM262.403 261.783L261.943 256.804L261.943 256.804L262.403 261.783ZM247.505 258.148L250.206 253.94L250.206 253.94L247.505 258.148ZM241.659 254.394L237.159 252.213L239.617 247.14L244.36 250.186L241.659 254.394ZM220.526 298.008L216.026 295.828L216.026 295.828L220.526 298.008ZM216.336 303.196L211.347 302.875L211.491 300.636L213.259 299.255L216.336 303.196ZM210.303 314.897L207.147 311.019L207.147 311.019L210.303 314.897ZM201.934 321.707L205.09 325.585L205.09 325.585L201.934 321.707ZM181.533 329.974L181.099 324.993L181.099 324.993L181.533 329.974ZM178.13 330.27L178.564 335.251L178.564 335.251L178.13 330.27ZM168.263 326.237L172.062 322.986L172.062 322.986L168.263 326.237ZM166.422 319.055L171.316 320.077L171.316 320.077L166.422 319.055ZM166.458 318.88L161.564 317.858L161.564 317.858L166.458 318.88ZM175.984 305.031L173.28 300.825L173.28 300.825L175.984 305.031ZM181.772 301.308L184.831 297.353L190.43 301.685L184.477 305.514L181.772 301.308ZM178.491 298.77L175.067 295.127L178.176 292.205L181.55 294.815L178.491 298.77ZM168.347 306.894L165.539 302.756L165.539 302.756L168.347 306.894ZM162.105 311.129L164.913 315.266L164.913 315.266L162.105 311.129ZM149.951 309.843L153.562 306.385L153.562 306.385L149.951 309.843ZM147.622 297.671L152.254 299.552L152.254 299.552L147.622 297.671ZM149.095 294.043V289.043H156.523L153.728 295.924L149.095 294.043ZM140.936 293.469L139.253 298.178L139.253 298.178L140.936 293.469ZM140.8 293.421L142.482 288.712L142.482 288.712L140.8 293.421ZM132.852 279.159L127.963 278.113L127.963 278.113L132.852 279.159ZM133.582 275.746L138.471 276.792L138.471 276.792L133.582 275.746ZM141.473 259.609L145.301 262.826L145.301 262.826L141.473 259.609ZM154.013 244.684L157.841 247.901L157.841 247.901L154.013 244.684ZM153.373 243.649L152.204 238.787L152.204 238.787L153.373 243.649ZM145.572 245.523L144.404 240.662L144.404 240.662L145.572 245.523ZM131.111 245.791L132.098 240.889L132.098 240.889L131.111 245.791ZM127.766 245.117V240.117H128.265L128.754 240.215L127.766 245.117ZM112.36 236.392L116.977 234.471L116.977 234.471L112.36 236.392ZM115.568 200.62L111.708 197.442L111.708 197.442L115.568 200.62ZM126.066 200.185C124.2 199.73 122.238 200.384 121.017 201.867L113.296 195.512C116.956 191.066 122.837 189.106 128.431 190.468L126.066 200.185ZM132.659 206.5C131.752 203.366 129.237 200.956 126.066 200.185L128.431 190.468C135.084 192.088 140.361 197.143 142.265 203.72L132.659 206.5ZM134.685 213.499L132.659 206.5L142.265 203.72L144.291 210.718L134.685 213.499ZM142.788 217.108H139.488V207.108H142.788V217.108ZM155.631 212.553C152 215.5 147.465 217.108 142.788 217.108V207.108C145.171 207.108 147.48 206.289 149.33 204.788L155.631 212.553ZM162.585 206.911L155.631 212.553L149.33 204.788L156.283 199.146L162.585 206.911ZM194.339 221.284L157.698 207.717L161.17 198.339L197.811 211.906L194.339 221.284ZM266.207 210.314L196.874 221.531L195.277 211.659L264.61 200.442L266.207 210.314ZM256.937 211.395L260.909 203.198L269.908 207.558L265.936 215.755L256.937 211.395ZM269.412 217.569C267.469 217.011 265.408 217.203 263.624 218.071L259.249 209.079C263.231 207.141 267.833 206.711 272.172 207.957L269.412 217.569ZM276.915 225.448C276.024 221.657 273.155 218.644 269.412 217.569L272.172 207.957C279.394 210.031 284.931 215.846 286.65 223.161L276.915 225.448ZM277.378 227.417L276.915 225.448L286.65 223.161L287.113 225.13L277.378 227.417ZM277.632 229.607C277.632 228.87 277.547 228.135 277.378 227.417L287.113 225.13C287.458 226.597 287.632 228.1 287.632 229.607H277.632ZM277.632 233.769V229.607H287.632V233.769H277.632ZM271.455 250.818C275.446 246.033 277.632 240 277.632 233.769H287.632C287.632 242.34 284.625 250.64 279.135 257.223L271.455 250.818ZM269.991 252.574L271.455 250.818L279.135 257.223L277.671 258.979L269.991 252.574ZM261.943 256.804C265.08 256.515 267.974 254.993 269.991 252.574L277.671 258.979C273.959 263.43 268.634 266.229 262.863 266.762L261.943 256.804ZM250.206 253.94C253.69 256.177 257.821 257.185 261.943 256.804L262.863 266.762C256.52 267.348 250.163 265.797 244.803 262.355L250.206 253.94ZM244.36 250.186L250.206 253.94L244.803 262.355L238.957 258.601L244.36 250.186ZM216.026 295.828L237.159 252.213L246.158 256.574L225.026 300.188L216.026 295.828ZM213.259 299.255C214.405 298.36 215.36 297.202 216.026 295.828L225.026 300.188C223.679 302.966 221.74 305.321 219.414 307.137L213.259 299.255ZM207.147 311.019C209.628 309 211.143 306.044 211.347 302.875L221.326 303.518C220.943 309.456 218.106 314.993 213.459 318.775L207.147 311.019ZM198.778 317.829L207.147 311.019L213.459 318.775L205.09 325.585L198.778 317.829ZM181.099 324.993C187.576 324.428 193.735 321.933 198.778 317.829L205.09 325.585C198.494 330.953 190.439 334.217 181.967 334.955L181.099 324.993ZM177.696 325.289L181.099 324.993L181.967 334.955L178.564 335.251L177.696 325.289ZM172.062 322.986C173.459 324.618 175.556 325.475 177.696 325.289L178.564 335.251C173.209 335.718 167.959 333.572 164.465 329.488L172.062 322.986ZM171.316 320.077C171.1 321.11 171.376 322.185 172.062 322.986L164.465 329.488C161.763 326.332 160.678 322.101 161.527 318.034L171.316 320.077ZM171.353 319.901L171.316 320.077L161.527 318.034L161.564 317.858L171.353 319.901ZM178.689 309.236C174.913 311.664 172.27 315.507 171.353 319.901L161.564 317.858C163.029 310.84 167.25 304.703 173.28 300.825L178.689 309.236ZM184.477 305.514L178.689 309.236L173.28 300.825L179.067 297.103L184.477 305.514ZM181.55 294.815L184.831 297.353L178.713 305.263L175.432 302.725L181.55 294.815ZM165.539 302.756C168.914 300.467 172.099 297.915 175.067 295.127L181.915 302.414C178.563 305.564 174.965 308.445 171.154 311.031L165.539 302.756ZM159.298 306.991L165.539 302.756L171.154 311.031L164.913 315.266L159.298 306.991ZM153.562 306.385C155.07 307.959 157.494 308.216 159.298 306.991L164.913 315.266C159.071 319.23 151.223 318.4 146.34 313.302L153.562 306.385ZM152.254 299.552C151.305 301.888 151.817 304.564 153.562 306.385L146.34 313.302C141.869 308.635 140.557 301.777 142.989 295.789L152.254 299.552ZM153.728 295.924L152.254 299.552L142.989 295.789L144.463 292.161L153.728 295.924ZM144.243 289.043H149.095V299.043H144.243V289.043ZM142.618 288.761C143.14 288.947 143.689 289.043 144.243 289.043V299.043C142.542 299.043 140.855 298.75 139.253 298.178L142.618 288.761ZM142.482 288.712L142.618 288.761L139.253 298.178L139.117 298.129L142.482 288.712ZM137.741 280.205C136.966 283.828 138.993 287.466 142.482 288.712L139.117 298.129C130.908 295.196 126.139 286.638 127.963 278.113L137.741 280.205ZM138.471 276.792L137.741 280.205L127.963 278.113L128.693 274.7L138.471 276.792ZM145.301 262.826C141.917 266.853 139.572 271.649 138.471 276.792L128.693 274.7C130.135 267.958 133.209 261.672 137.645 256.393L145.301 262.826ZM157.841 247.901L145.301 262.826L137.645 256.393L150.185 241.468L157.841 247.901ZM152.204 238.787C157.496 237.516 161.342 243.734 157.841 247.901L150.185 241.468C147.48 244.688 150.452 249.493 154.541 248.511L152.204 238.787ZM144.404 240.662L152.204 238.787L154.541 248.511L146.74 250.385L144.404 240.662ZM132.098 240.889C136.168 241.709 140.367 241.631 144.404 240.662L146.74 250.385C141.289 251.695 135.619 251.799 130.123 250.692L132.098 240.889ZM128.754 240.215L132.098 240.889L130.123 250.692L126.779 250.019L128.754 240.215ZM125.442 240.117H127.766V250.117H125.442V240.117ZM116.977 234.471C118.399 237.89 121.739 240.117 125.442 240.117V250.117C117.7 250.117 110.719 245.46 107.744 238.313L116.977 234.471ZM114.19 220.52C114.19 225.309 115.137 230.05 116.977 234.471L107.744 238.313C105.398 232.674 104.19 226.628 104.19 220.52H114.19ZM114.19 218.406V220.52H104.19V218.406H114.19ZM119.429 203.797C116.042 207.912 114.19 213.077 114.19 218.406H104.19C104.19 210.758 106.847 203.348 111.708 197.442L119.429 203.797ZM121.017 201.867L119.429 203.797L111.708 197.442L113.296 195.512L121.017 201.867Z" fill="#281214" mask="url(#path-2-inside-1_726_647)"/>
<path d="M126.811 196.433C123.348 195.59 119.708 196.803 117.444 199.555L116.204 201.061C111.713 206.517 109.576 213.535 110.264 220.568L110.59 223.896C110.826 226.314 111.262 228.709 111.892 231.055L112.972 235.08C114.668 241.398 120.993 245.3 127.401 243.98V243.98L137.713 213.429L136.624 206.977C135.754 201.817 131.895 197.671 126.811 196.433V196.433Z" fill="#5D3A2C"/>
<path d="M280.482 225.24C279.034 219.451 274.35 215.034 268.486 213.927V213.927C265.329 213.331 262.064 213.952 259.346 215.664L252.465 220L238.088 250L246.485 255.827C249.977 258.25 254.034 259.735 258.265 260.14V260.14C263.921 260.68 269.495 258.488 273.267 254.239L273.674 253.78C278.535 248.305 281.22 241.238 281.22 233.916V229.825C281.22 228.74 281.087 227.659 280.823 226.606L280.482 225.24Z" fill="#5D3A2C"/>
<path d="M213.737 301.238L206.863 302.195C201.745 302.907 196.552 302.884 191.44 302.127L185.434 301.238L177.036 306.563C173.299 308.933 170.405 312.481 168.811 316.608V316.608C167.596 319.754 168.414 323.357 170.894 325.641V325.641C173.428 327.976 176.883 329.037 180.291 328.528L183.831 327.999C190.627 326.984 197.03 324.175 202.379 319.861L207.119 316.038C210.318 313.458 212.435 309.775 213.055 305.713L213.737 301.238Z" fill="#5D3A2C"/>
<path d="M178.14 284.378C176.715 281.729 174.181 279.855 171.23 279.271V279.271C170.042 279.036 168.814 279.115 167.666 279.5L166.442 279.912C161.223 281.665 156.862 285.329 154.234 290.166L149.186 299.462C147.275 302.979 147.985 307.344 150.912 310.075V310.075C153.301 312.304 156.88 312.674 159.674 310.979L165.887 307.212C170.19 304.602 173.9 301.121 176.779 296.993V296.993C178.414 294.648 179.291 291.858 179.291 289V288.457C179.291 287.185 178.976 285.934 178.374 284.814L178.14 284.378Z" fill="#5D3A2C"/>
<mask id="path-8-inside-2_726_647" fill="white">
<path fill-rule="evenodd" clip-rule="evenodd" d="M117.157 198.69C119.597 195.725 123.518 194.418 127.249 195.327C132.16 196.522 136.057 200.254 137.462 205.11L139.488 212.108H142.788C146.318 212.108 149.74 210.894 152.481 208.67L159.434 203.028L196.075 216.595L265.408 205.378L261.437 213.575C264.32 212.172 267.651 211.861 270.792 212.763C276.274 214.338 280.478 218.752 281.783 224.305L282.245 226.274C282.502 227.366 282.632 228.485 282.632 229.607V233.769C282.632 241.17 280.036 248.337 275.295 254.021L273.831 255.777C270.966 259.212 266.857 261.372 262.403 261.783C257.17 262.267 251.926 260.987 247.505 258.148L241.659 254.394L220.526 298.008C219.52 300.084 218.073 301.84 216.336 303.196C216.043 307.75 213.867 311.997 210.303 314.897L201.934 321.707C196.115 326.443 189.008 329.322 181.533 329.974L178.13 330.27C174.383 330.597 170.709 329.095 168.263 326.237C166.57 324.258 165.889 321.605 166.422 319.055L166.458 318.88C167.649 313.173 171.081 308.184 175.984 305.031L181.772 301.308L178.491 298.77C175.331 301.739 171.939 304.456 168.347 306.894L162.105 311.129C158.283 313.723 153.146 313.179 149.951 309.843C146.843 306.599 145.931 301.833 147.622 297.671L149.095 294.043H144.243C143.116 294.043 141.997 293.849 140.936 293.469L140.8 293.421C134.95 291.331 131.552 285.233 132.852 279.159L133.582 275.746C134.854 269.803 137.563 264.262 141.473 259.609L154.013 244.684C154.411 244.211 153.974 243.504 153.373 243.649L145.572 245.523C140.828 246.663 135.893 246.754 131.111 245.791L127.766 245.117H125.442C119.72 245.117 114.559 241.675 112.36 236.392C110.267 231.362 109.19 225.968 109.19 220.52V218.406C109.19 211.917 111.444 205.63 115.568 200.62L117.157 198.69Z"/>
</mask>
<path d="M127.249 195.327L128.431 190.468L128.431 190.468L127.249 195.327ZM117.157 198.69L121.017 201.867L121.017 201.867L117.157 198.69ZM137.462 205.11L132.659 206.5L132.659 206.5L137.462 205.11ZM139.488 212.108V217.108H135.73L134.685 213.499L139.488 212.108ZM152.481 208.67L155.631 212.553L155.631 212.553L152.481 208.67ZM159.434 203.028L156.283 199.146L158.497 197.349L161.17 198.339L159.434 203.028ZM196.075 216.595L196.874 221.531L195.574 221.741L194.339 221.284L196.075 216.595ZM265.408 205.378L264.61 200.442L274.1 198.907L269.908 207.558L265.408 205.378ZM261.437 213.575L263.624 218.071L250.641 224.389L256.937 211.395L261.437 213.575ZM270.792 212.763L272.172 207.957L272.172 207.957L270.792 212.763ZM281.783 224.305L286.65 223.161L286.65 223.161L281.783 224.305ZM282.245 226.274L277.378 227.417L277.378 227.417L282.245 226.274ZM275.295 254.021L279.135 257.223L279.135 257.223L275.295 254.021ZM273.831 255.777L269.991 252.574L269.991 252.574L273.831 255.777ZM262.403 261.783L261.943 256.804L261.943 256.804L262.403 261.783ZM247.505 258.148L250.206 253.94L250.206 253.94L247.505 258.148ZM241.659 254.394L237.159 252.213L239.617 247.14L244.36 250.186L241.659 254.394ZM220.526 298.008L216.026 295.828L216.026 295.828L220.526 298.008ZM216.336 303.196L211.347 302.875L211.491 300.636L213.259 299.255L216.336 303.196ZM210.303 314.897L207.147 311.019L207.147 311.019L210.303 314.897ZM201.934 321.707L205.09 325.585L205.09 325.585L201.934 321.707ZM181.533 329.974L181.099 324.993L181.099 324.993L181.533 329.974ZM178.13 330.27L178.564 335.251L178.564 335.251L178.13 330.27ZM168.263 326.237L172.062 322.986L172.062 322.986L168.263 326.237ZM166.422 319.055L171.316 320.077L171.316 320.077L166.422 319.055ZM166.458 318.88L161.564 317.858L161.564 317.858L166.458 318.88ZM175.984 305.031L173.28 300.825L173.28 300.825L175.984 305.031ZM181.772 301.308L184.831 297.353L190.43 301.685L184.477 305.514L181.772 301.308ZM178.491 298.77L175.067 295.127L178.176 292.205L181.55 294.815L178.491 298.77ZM168.347 306.894L165.539 302.756L165.539 302.756L168.347 306.894ZM162.105 311.129L164.913 315.266L164.913 315.266L162.105 311.129ZM149.951 309.843L153.562 306.385L153.562 306.385L149.951 309.843ZM147.622 297.671L152.254 299.552L152.254 299.552L147.622 297.671ZM149.095 294.043V289.043H156.523L153.728 295.924L149.095 294.043ZM140.936 293.469L139.253 298.178L139.253 298.178L140.936 293.469ZM140.8 293.421L142.482 288.712L142.482 288.712L140.8 293.421ZM132.852 279.159L127.963 278.113L127.963 278.113L132.852 279.159ZM133.582 275.746L138.471 276.792L138.471 276.792L133.582 275.746ZM141.473 259.609L145.301 262.826L145.301 262.826L141.473 259.609ZM154.013 244.684L157.841 247.901L157.841 247.901L154.013 244.684ZM153.373 243.649L152.204 238.787L152.204 238.787L153.373 243.649ZM145.572 245.523L144.404 240.662L144.404 240.662L145.572 245.523ZM131.111 245.791L132.098 240.889L132.098 240.889L131.111 245.791ZM127.766 245.117V240.117H128.265L128.754 240.215L127.766 245.117ZM112.36 236.392L116.977 234.471L116.977 234.471L112.36 236.392ZM115.568 200.62L111.708 197.442L111.708 197.442L115.568 200.62ZM126.066 200.185C124.2 199.73 122.238 200.384 121.017 201.867L113.296 195.512C116.956 191.066 122.837 189.106 128.431 190.468L126.066 200.185ZM132.659 206.5C131.752 203.366 129.237 200.956 126.066 200.185L128.431 190.468C135.084 192.088 140.361 197.143 142.265 203.72L132.659 206.5ZM134.685 213.499L132.659 206.5L142.265 203.72L144.291 210.718L134.685 213.499ZM142.788 217.108H139.488V207.108H142.788V217.108ZM155.631 212.553C152 215.5 147.465 217.108 142.788 217.108V207.108C145.171 207.108 147.48 206.289 149.33 204.788L155.631 212.553ZM162.585 206.911L155.631 212.553L149.33 204.788L156.283 199.146L162.585 206.911ZM194.339 221.284L157.698 207.717L161.17 198.339L197.811 211.906L194.339 221.284ZM266.207 210.314L196.874 221.531L195.277 211.659L264.61 200.442L266.207 210.314ZM256.937 211.395L260.909 203.198L269.908 207.558L265.936 215.755L256.937 211.395ZM269.412 217.569C267.469 217.011 265.408 217.203 263.624 218.071L259.249 209.079C263.231 207.141 267.833 206.711 272.172 207.957L269.412 217.569ZM276.915 225.448C276.024 221.657 273.155 218.644 269.412 217.569L272.172 207.957C279.394 210.031 284.931 215.846 286.65 223.161L276.915 225.448ZM277.378 227.417L276.915 225.448L286.65 223.161L287.113 225.13L277.378 227.417ZM277.632 229.607C277.632 228.87 277.547 228.135 277.378 227.417L287.113 225.13C287.458 226.597 287.632 228.1 287.632 229.607H277.632ZM277.632 233.769V229.607H287.632V233.769H277.632ZM271.455 250.818C275.446 246.033 277.632 240 277.632 233.769H287.632C287.632 242.34 284.625 250.64 279.135 257.223L271.455 250.818ZM269.991 252.574L271.455 250.818L279.135 257.223L277.671 258.979L269.991 252.574ZM261.943 256.804C265.08 256.515 267.974 254.993 269.991 252.574L277.671 258.979C273.959 263.43 268.634 266.229 262.863 266.762L261.943 256.804ZM250.206 253.94C253.69 256.177 257.821 257.185 261.943 256.804L262.863 266.762C256.52 267.348 250.163 265.797 244.803 262.355L250.206 253.94ZM244.36 250.186L250.206 253.94L244.803 262.355L238.957 258.601L244.36 250.186ZM216.026 295.828L237.159 252.213L246.158 256.574L225.026 300.188L216.026 295.828ZM213.259 299.255C214.405 298.36 215.36 297.202 216.026 295.828L225.026 300.188C223.679 302.966 221.74 305.321 219.414 307.137L213.259 299.255ZM207.147 311.019C209.628 309 211.143 306.044 211.347 302.875L221.326 303.518C220.943 309.456 218.106 314.993 213.459 318.775L207.147 311.019ZM198.778 317.829L207.147 311.019L213.459 318.775L205.09 325.585L198.778 317.829ZM181.099 324.993C187.576 324.428 193.735 321.933 198.778 317.829L205.09 325.585C198.494 330.953 190.439 334.217 181.967 334.955L181.099 324.993ZM177.696 325.289L181.099 324.993L181.967 334.955L178.564 335.251L177.696 325.289ZM172.062 322.986C173.459 324.618 175.556 325.475 177.696 325.289L178.564 335.251C173.209 335.718 167.959 333.572 164.465 329.488L172.062 322.986ZM171.316 320.077C171.1 321.11 171.376 322.185 172.062 322.986L164.465 329.488C161.763 326.332 160.678 322.101 161.527 318.034L171.316 320.077ZM171.353 319.901L171.316 320.077L161.527 318.034L161.564 317.858L171.353 319.901ZM178.689 309.236C174.913 311.664 172.27 315.507 171.353 319.901L161.564 317.858C163.029 310.84 167.25 304.703 173.28 300.825L178.689 309.236ZM184.477 305.514L178.689 309.236L173.28 300.825L179.067 297.103L184.477 305.514ZM181.55 294.815L184.831 297.353L178.713 305.263L175.432 302.725L181.55 294.815ZM165.539 302.756C168.914 300.467 172.099 297.915 175.067 295.127L181.915 302.414C178.563 305.564 174.965 308.445 171.154 311.031L165.539 302.756ZM159.298 306.991L165.539 302.756L171.154 311.031L164.913 315.266L159.298 306.991ZM153.562 306.385C155.07 307.959 157.494 308.216 159.298 306.991L164.913 315.266C159.071 319.23 151.223 318.4 146.34 313.302L153.562 306.385ZM152.254 299.552C151.305 301.888 151.817 304.564 153.562 306.385L146.34 313.302C141.869 308.635 140.557 301.777 142.989 295.789L152.254 299.552ZM153.728 295.924L152.254 299.552L142.989 295.789L144.463 292.161L153.728 295.924ZM144.243 289.043H149.095V299.043H144.243V289.043ZM142.618 288.761C143.14 288.947 143.689 289.043 144.243 289.043V299.043C142.542 299.043 140.855 298.75 139.253 298.178L142.618 288.761ZM142.482 288.712L142.618 288.761L139.253 298.178L139.117 298.129L142.482 288.712ZM137.741 280.205C136.966 283.828 138.993 287.466 142.482 288.712L139.117 298.129C130.908 295.196 126.139 286.638 127.963 278.113L137.741 280.205ZM138.471 276.792L137.741 280.205L127.963 278.113L128.693 274.7L138.471 276.792ZM145.301 262.826C141.917 266.853 139.572 271.649 138.471 276.792L128.693 274.7C130.135 267.958 133.209 261.672 137.645 256.393L145.301 262.826ZM157.841 247.901L145.301 262.826L137.645 256.393L150.185 241.468L157.841 247.901ZM152.204 238.787C157.496 237.516 161.342 243.734 157.841 247.901L150.185 241.468C147.48 244.688 150.452 249.493 154.541 248.511L152.204 238.787ZM144.404 240.662L152.204 238.787L154.541 248.511L146.74 250.385L144.404 240.662ZM132.098 240.889C136.168 241.709 140.367 241.631 144.404 240.662L146.74 250.385C141.289 251.695 135.619 251.799 130.123 250.692L132.098 240.889ZM128.754 240.215L132.098 240.889L130.123 250.692L126.779 250.019L128.754 240.215ZM125.442 240.117H127.766V250.117H125.442V240.117ZM116.977 234.471C118.399 237.89 121.739 240.117 125.442 240.117V250.117C117.7 250.117 110.719 245.46 107.744 238.313L116.977 234.471ZM114.19 220.52C114.19 225.309 115.137 230.05 116.977 234.471L107.744 238.313C105.398 232.674 104.19 226.628 104.19 220.52H114.19ZM114.19 218.406V220.52H104.19V218.406H114.19ZM119.429 203.797C116.042 207.912 114.19 213.077 114.19 218.406H104.19C104.19 210.758 106.847 203.348 111.708 197.442L119.429 203.797ZM121.017 201.867L119.429 203.797L111.708 197.442L113.296 195.512L121.017 201.867Z" fill="#281214" mask="url(#path-8-inside-2_726_647)"/>
<path d="M189.26 276.669L189.848 274.466C191.16 269.546 189.372 264.364 185.312 261.323L184.097 260.413C182.743 259.399 181.142 258.754 179.45 258.541V258.541C172.876 257.715 166.456 261.178 163.541 267.122L162.614 269.014" stroke="#281214" stroke-width="5" stroke-linecap="round"/>
<path d="M178.193 296.965L179.694 295.287C182.119 292.573 184.156 289.551 185.748 286.304L186.22 285.341M149.908 293.626L151.414 291.941C153.836 289.231 155.87 286.214 157.459 282.971L157.935 282.001" stroke="#281214" stroke-width="5" stroke-linecap="round"/>
<path d="M228.378 240.361L263.221 202.664L165.913 217.519C170.054 233.275 180.107 246.867 194.027 255.436C196.11 256.718 198.617 257.118 200.996 256.549L202.977 256.075C206.538 255.222 209.932 253.778 213.016 251.803L220.239 247.178C223.231 245.261 225.966 242.971 228.378 240.361Z" fill="#05A3FF" stroke="#281214" stroke-width="5"/>
<mask id="path-13-inside-3_726_647" fill="white">
<path fill-rule="evenodd" clip-rule="evenodd" d="M238.894 95.22C237.745 92.9853 235.443 91.5803 232.931 91.5803H232.34C228.063 91.5803 223.967 93.3055 220.979 96.3653L220.469 96.8876C217.363 100.068 215.068 103.95 213.778 108.204L213.046 110.617C211.438 115.92 212.092 121.652 214.854 126.456L215.052 126.8C210.558 128.36 206.162 130.209 201.893 132.339L192.373 137.088L179.845 144.006C169.068 149.958 160.726 159.508 156.278 170.987L155.809 172.196C153.775 177.445 152.731 183.026 152.731 188.655C152.731 194.044 153.688 199.39 155.556 204.445L155.781 205.054C162.601 223.508 179.763 236.121 199.411 237.121L202.402 237.274C213.523 237.84 224.545 234.936 233.944 228.964L239.292 225.565C241.67 224.054 243.929 222.363 246.049 220.506L261.055 207.362C265.725 203.272 269.671 198.422 272.725 193.017L273.556 191.546C277.782 184.068 280.003 175.624 280.003 167.034V166.507C280.003 162.571 279.623 158.644 278.869 154.781L278.659 153.706L283.89 144.28C287.598 137.598 289.053 129.899 288.039 122.325C287.211 116.136 285.137 110.179 281.942 104.814L281.568 104.186L279.017 99.9504C276.108 95.1232 268.884 95.9023 267.072 101.239L258.815 125.554C253.069 122.557 246.636 121.1 240.153 121.334V100.423C240.153 98.6134 239.721 96.8297 238.894 95.22Z"/>
</mask>
<path fill-rule="evenodd" clip-rule="evenodd" d="M238.894 95.22C237.745 92.9853 235.443 91.5803 232.931 91.5803H232.34C228.063 91.5803 223.967 93.3055 220.979 96.3653L220.469 96.8876C217.363 100.068 215.068 103.95 213.778 108.204L213.046 110.617C211.438 115.92 212.092 121.652 214.854 126.456L215.052 126.8C210.558 128.36 206.162 130.209 201.893 132.339L192.373 137.088L179.845 144.006C169.068 149.958 160.726 159.508 156.278 170.987L155.809 172.196C153.775 177.445 152.731 183.026 152.731 188.655C152.731 194.044 153.688 199.39 155.556 204.445L155.781 205.054C162.601 223.508 179.763 236.121 199.411 237.121L202.402 237.274C213.523 237.84 224.545 234.936 233.944 228.964L239.292 225.565C241.67 224.054 243.929 222.363 246.049 220.506L261.055 207.362C265.725 203.272 269.671 198.422 272.725 193.017L273.556 191.546C277.782 184.068 280.003 175.624 280.003 167.034V166.507C280.003 162.571 279.623 158.644 278.869 154.781L278.659 153.706L283.89 144.28C287.598 137.598 289.053 129.899 288.039 122.325C287.211 116.136 285.137 110.179 281.942 104.814L281.568 104.186L279.017 99.9504C276.108 95.1232 268.884 95.9023 267.072 101.239L258.815 125.554C253.069 122.557 246.636 121.1 240.153 121.334V100.423C240.153 98.6134 239.721 96.8297 238.894 95.22Z" fill="#B89061"/>
<path d="M238.894 95.22L234.447 97.5057L234.447 97.5057L238.894 95.22ZM220.979 96.3653L217.402 92.8719L217.402 92.8719L220.979 96.3653ZM220.469 96.8876L224.046 100.381L224.046 100.381L220.469 96.8876ZM213.778 108.204L218.562 109.655L218.562 109.655L213.778 108.204ZM213.046 110.617L217.831 112.068L217.831 112.068L213.046 110.617ZM214.854 126.456L210.52 128.948L210.52 128.948L214.854 126.456ZM215.052 126.8L219.387 124.308L222.398 129.544L216.691 131.524L215.052 126.8ZM201.893 132.339L204.125 136.813L204.125 136.813L201.893 132.339ZM192.373 137.088L189.956 132.711L190.048 132.66L190.141 132.614L192.373 137.088ZM179.845 144.006L177.428 139.629L177.428 139.629L179.845 144.006ZM156.278 170.987L151.616 169.18L151.616 169.18L156.278 170.987ZM155.809 172.196L160.471 174.003L160.471 174.003L155.809 172.196ZM155.556 204.445L160.246 202.712L160.246 202.712L155.556 204.445ZM155.781 205.054L151.091 206.788L151.091 206.788L155.781 205.054ZM199.411 237.121L199.157 242.115L199.157 242.115L199.411 237.121ZM202.402 237.274L202.656 232.28L202.656 232.28L202.402 237.274ZM233.944 228.964L231.262 224.744L231.262 224.744L233.944 228.964ZM239.292 225.565L241.974 229.785L241.974 229.785L239.292 225.565ZM246.049 220.506L242.754 216.745L242.754 216.745L246.049 220.506ZM261.055 207.362L264.35 211.123L264.35 211.123L261.055 207.362ZM272.725 193.017L268.372 190.557L268.372 190.557L272.725 193.017ZM273.556 191.546L277.909 194.006L277.909 194.006L273.556 191.546ZM278.869 154.781L273.962 155.74L273.962 155.74L278.869 154.781ZM278.659 153.706L273.752 154.664L273.402 152.874L274.287 151.28L278.659 153.706ZM283.89 144.28L288.262 146.706L288.262 146.706L283.89 144.28ZM288.039 122.325L283.084 122.989L283.084 122.989L288.039 122.325ZM281.942 104.814L286.238 102.256L286.238 102.256L281.942 104.814ZM281.568 104.186L285.851 101.605L285.857 101.616L285.864 101.627L281.568 104.186ZM279.017 99.9504L283.299 97.3703L283.299 97.3703L279.017 99.9504ZM267.072 101.239L262.337 99.6309L262.337 99.6309L267.072 101.239ZM258.815 125.554L263.55 127.162L261.674 132.685L256.503 129.987L258.815 125.554ZM240.153 121.334L240.333 126.331L235.153 126.518V121.334H240.153ZM232.931 86.5803C237.317 86.5803 241.335 89.033 243.341 92.9343L234.447 97.5057C234.155 96.9375 233.569 96.5803 232.931 96.5803V86.5803ZM232.34 86.5803H232.931V96.5803H232.34V86.5803ZM217.402 92.8719C221.331 88.8486 226.717 86.5803 232.34 86.5803V96.5803C229.41 96.5803 226.604 97.7623 224.556 99.8586L217.402 92.8719ZM216.892 93.3942L217.402 92.8719L224.556 99.8586L224.046 100.381L216.892 93.3942ZM208.993 106.753C210.516 101.731 213.225 97.1488 216.892 93.3942L224.046 100.381C221.501 102.988 219.62 106.169 218.562 109.655L208.993 106.753ZM208.261 109.166L208.993 106.753L218.562 109.655L217.831 112.068L208.261 109.166ZM210.52 128.948C207.07 122.948 206.252 115.789 208.261 109.166L217.831 112.068C216.623 116.051 217.114 120.356 219.189 123.964L210.52 128.948ZM210.718 129.293L210.52 128.948L219.189 123.964L219.387 124.308L210.718 129.293ZM216.691 131.524C212.399 133.013 208.202 134.779 204.125 136.813L199.661 127.864C204.122 125.639 208.716 123.707 213.413 122.077L216.691 131.524ZM204.125 136.813L194.605 141.562L190.141 132.614L199.661 127.864L204.125 136.813ZM194.79 141.465L182.262 148.383L177.428 139.629L189.956 132.711L194.79 141.465ZM182.262 148.383C172.512 153.768 164.965 162.408 160.94 172.794L151.616 169.18C156.488 156.607 165.624 146.147 177.428 139.629L182.262 148.383ZM160.94 172.794L160.471 174.003L151.147 170.39L151.616 169.18L160.94 172.794ZM160.471 174.003C158.66 178.676 157.731 183.644 157.731 188.655H147.731C147.731 182.408 148.889 176.215 151.147 170.39L160.471 174.003ZM157.731 188.655C157.731 193.452 158.583 198.212 160.246 202.712L150.866 206.178C148.793 200.569 147.731 194.636 147.731 188.655H157.731ZM160.246 202.712L160.471 203.321L151.091 206.788L150.866 206.178L160.246 202.712ZM160.471 203.321C166.598 219.899 182.015 231.23 199.665 232.128L199.157 242.115C177.511 241.013 158.605 227.118 151.091 206.788L160.471 203.321ZM199.665 232.128L202.656 232.28L202.148 242.267L199.157 242.115L199.665 232.128ZM202.656 232.28C212.742 232.793 222.739 230.16 231.262 224.744L236.625 233.184C226.352 239.712 214.304 242.886 202.148 242.267L202.656 232.28ZM231.262 224.744L236.611 221.345L241.974 229.785L236.625 233.184L231.262 224.744ZM236.611 221.345C238.773 219.971 240.827 218.433 242.754 216.745L249.343 224.267C247.031 226.292 244.568 228.137 241.974 229.785L236.611 221.345ZM242.754 216.745L257.761 203.601L264.35 211.123L249.343 224.267L242.754 216.745ZM257.761 203.601C262.007 199.882 265.595 195.472 268.372 190.557L277.078 195.477C273.747 201.372 269.443 206.662 264.35 211.123L257.761 203.601ZM268.372 190.557L269.203 189.086L277.909 194.006L277.078 195.477L268.372 190.557ZM269.203 189.086C273.005 182.358 275.003 174.762 275.003 167.034H285.003C285.003 176.486 282.559 185.777 277.909 194.006L269.203 189.086ZM275.003 167.034V166.507H285.003V167.034H275.003ZM275.003 166.507C275.003 162.893 274.654 159.287 273.962 155.74L283.776 153.823C284.592 158.002 285.003 162.249 285.003 166.507H275.003ZM273.962 155.74L273.752 154.664L283.566 152.747L283.776 153.823L273.962 155.74ZM288.262 146.706L283.031 156.132L274.287 151.28L279.518 141.853L288.262 146.706ZM292.995 121.662C294.152 130.302 292.492 139.084 288.262 146.706L279.518 141.853C282.704 136.112 283.955 129.497 283.084 122.989L292.995 121.662ZM286.238 102.256C289.779 108.201 292.077 114.803 292.995 121.662L283.084 122.989C282.345 117.469 280.495 112.157 277.646 107.372L286.238 102.256ZM285.864 101.627L286.238 102.256L277.646 107.372L277.272 106.744L285.864 101.627ZM283.299 97.3703L285.851 101.605L277.285 106.766L274.734 102.531L283.299 97.3703ZM262.337 99.6309C265.517 90.2661 278.196 88.8988 283.299 97.3703L274.734 102.531C274.021 101.348 272.25 101.538 271.806 102.846L262.337 99.6309ZM254.081 123.946L262.337 99.6309L271.806 102.846L263.55 127.162L254.081 123.946ZM256.503 129.987C251.524 127.39 245.95 126.128 240.333 126.331L239.972 116.337C247.322 116.072 254.614 117.723 261.128 121.121L256.503 129.987ZM245.153 100.423V121.334H235.153V100.423H245.153ZM243.341 92.9343C244.531 95.2511 245.153 97.8184 245.153 100.423H235.153C235.153 99.4084 234.911 98.4082 234.447 97.5057L243.341 92.9343Z" fill="#281214" mask="url(#path-13-inside-3_726_647)"/>
<path d="M210.631 196.141C210.631 191.461 206.687 187.749 202.015 188.033L196.874 188.345L189.642 187.943C185.397 187.708 181.825 191.086 181.825 195.338V218.729C181.825 219.974 181.919 221.216 182.105 222.447V222.447C183.002 228.36 187.317 233.179 193.096 234.72L199.771 236.5L206.808 234.436C211.188 233.151 213.912 228.791 213.147 224.291L211.7 215.785C210.989 211.602 210.631 207.367 210.631 203.125V196.141Z" fill="#8C6748"/>
<path d="M196.291 196.11V196.11C195.363 205.967 196.088 215.911 198.436 225.529L198.795 227" stroke="#281214" stroke-width="4" stroke-linecap="round"/>
<path d="M182.524 190.775L185.044 193.119C187.034 194.971 189.652 196 192.371 196H199.173C201.835 196 204.402 195.013 206.379 193.23L209.136 190.744C209.144 190.736 209.149 190.73 209.152 190.727C209.152 190.722 209.152 190.713 209.147 190.7C209.143 190.687 209.138 190.679 209.135 190.676C209.131 190.675 209.123 190.673 209.112 190.672L201.879 190H190.609L182.549 190.704C182.537 190.705 182.53 190.706 182.526 190.707C182.523 190.711 182.518 190.719 182.513 190.732C182.509 190.744 182.508 190.754 182.508 190.758C182.511 190.762 182.516 190.767 182.524 190.775ZM209.155 190.723C209.155 190.723 209.155 190.723 209.155 190.723L209.155 190.723Z" fill="#5D3A2C" stroke="#281214" stroke-width="4"/>
<path d="M280.014 104.832L278.655 102.554C275.566 97.3753 267.727 98.6823 266.486 104.583L265.536 109.095L259.342 131V131C266.197 135.833 271.068 142.987 273.051 151.136L274.478 157L281.453 145.944C285.78 139.083 287.567 130.923 286.501 122.882V122.882C285.707 116.885 283.714 111.109 280.642 105.898L280.014 104.832Z" fill="#5D3A2C"/>
<path d="M238.649 96.6629C237.616 93.9047 234.877 92.1688 231.942 92.4133L231.358 92.462C228.128 92.731 225.069 94.024 222.625 96.1527L222.239 96.4891C217.837 100.324 214.83 105.509 213.689 111.234L213.366 112.856C212.468 117.359 213.141 122.034 215.272 126.102L217.838 131L228.58 128L239.811 126L239.356 100.381C239.334 99.1103 239.095 97.853 238.649 96.6629V96.6629Z" fill="#5D3A2C"/>
<mask id="path-20-inside-4_726_647" fill="white">
<path fill-rule="evenodd" clip-rule="evenodd" d="M238.891 95.22C237.742 92.9853 235.44 91.5803 232.928 91.5803H232.337C228.06 91.5803 223.964 93.3055 220.976 96.3653L220.466 96.8876C217.36 100.068 215.065 103.95 213.775 108.204L213.043 110.617C211.434 115.92 212.089 121.652 214.851 126.456L215.049 126.801C210.555 128.36 206.159 130.209 201.89 132.339L192.37 137.088L179.842 144.006C169.065 149.958 160.723 159.508 156.275 170.987L155.806 172.197C153.772 177.445 152.728 183.026 152.728 188.655C152.728 194.044 153.685 199.39 155.553 204.445L155.778 205.054C162.598 223.508 179.76 236.121 199.408 237.121L202.399 237.274C213.52 237.84 224.542 234.936 233.941 228.964L239.289 225.565C241.668 224.054 243.926 222.363 246.046 220.506L261.052 207.362C265.722 203.272 269.668 198.422 272.722 193.017L273.553 191.546C277.779 184.068 280 175.624 280 167.034V166.507C280 162.571 279.62 158.644 278.866 154.781L278.656 153.706L283.887 144.28C287.595 137.598 289.05 129.899 288.037 122.325C287.208 116.136 285.134 110.179 281.939 104.814L281.565 104.186L279.014 99.9504C276.106 95.1232 268.881 95.9023 267.069 101.239L258.812 125.554C253.066 122.557 246.633 121.1 240.15 121.334V100.423C240.15 98.6134 239.718 96.8297 238.891 95.22Z"/>
</mask>
<path d="M238.891 95.22L234.444 97.5057L234.444 97.5057L238.891 95.22ZM220.976 96.3653L217.399 92.8719L217.399 92.8719L220.976 96.3653ZM220.466 96.8876L224.043 100.381L224.043 100.381L220.466 96.8876ZM213.775 108.204L208.99 106.753L213.775 108.204ZM213.043 110.617L208.258 109.166L208.258 109.166L213.043 110.617ZM214.851 126.456L219.186 123.964L219.186 123.964L214.851 126.456ZM215.049 126.801L219.384 124.308L222.395 129.544L216.688 131.524L215.049 126.801ZM201.89 132.339L199.658 127.864L199.658 127.864L201.89 132.339ZM192.37 137.088L189.953 132.711L190.045 132.66L190.138 132.614L192.37 137.088ZM179.842 144.006L177.425 139.629L177.425 139.629L179.842 144.006ZM156.275 170.987L151.613 169.18L151.613 169.18L156.275 170.987ZM155.806 172.197L160.468 174.003L160.468 174.003L155.806 172.197ZM155.553 204.445L150.863 206.178L150.863 206.178L155.553 204.445ZM155.778 205.054L160.468 203.321L160.468 203.321L155.778 205.054ZM199.408 237.121L199.154 242.115L199.154 242.115L199.408 237.121ZM202.399 237.274L202.653 232.28L202.653 232.28L202.399 237.274ZM233.941 228.964L231.259 224.744L231.259 224.744L233.941 228.964ZM239.289 225.565L241.971 229.785L241.971 229.785L239.289 225.565ZM246.046 220.506L242.751 216.745L242.751 216.745L246.046 220.506ZM261.052 207.362L264.347 211.123L264.347 211.123L261.052 207.362ZM272.722 193.017L268.369 190.557L268.369 190.557L272.722 193.017ZM273.553 191.546L277.906 194.006L277.906 194.006L273.553 191.546ZM278.866 154.781L273.959 155.74L273.959 155.74L278.866 154.781ZM278.656 153.706L273.749 154.664L273.399 152.874L274.284 151.28L278.656 153.706ZM283.887 144.28L288.259 146.706L288.259 146.706L283.887 144.28ZM288.037 122.325L283.081 122.989L283.081 122.989L288.037 122.325ZM281.939 104.814L286.235 102.256L286.235 102.256L281.939 104.814ZM281.565 104.186L285.848 101.605L285.854 101.616L285.861 101.627L281.565 104.186ZM279.014 99.9504L283.296 97.3703L283.296 97.3703L279.014 99.9504ZM267.069 101.239L262.334 99.6309L262.334 99.6309L267.069 101.239ZM258.812 125.554L263.547 127.162L261.671 132.685L256.5 129.987L258.812 125.554ZM240.15 121.334L240.33 126.331L235.15 126.518V121.334H240.15ZM232.928 86.5803C237.314 86.5803 241.332 89.033 243.338 92.9343L234.444 97.5057C234.152 96.9375 233.566 96.5803 232.928 96.5803V86.5803ZM232.337 86.5803H232.928V96.5803H232.337V86.5803ZM217.399 92.8719C221.328 88.8487 226.714 86.5803 232.337 86.5803V96.5803C229.407 96.5803 226.601 97.7623 224.553 99.8586L217.399 92.8719ZM216.889 93.3942L217.399 92.8719L224.553 99.8586L224.043 100.381L216.889 93.3942ZM208.99 106.753C210.513 101.731 213.222 97.1488 216.889 93.3942L224.043 100.381C221.498 102.988 219.617 106.169 218.559 109.655L208.99 106.753ZM208.258 109.166L208.99 106.753L218.559 109.655L217.828 112.068L208.258 109.166ZM210.517 128.948C207.067 122.948 206.249 115.789 208.258 109.166L217.828 112.068C216.62 116.051 217.111 120.356 219.186 123.964L210.517 128.948ZM210.715 129.293L210.517 128.948L219.186 123.964L219.384 124.308L210.715 129.293ZM216.688 131.524C212.396 133.013 208.199 134.779 204.122 136.813L199.658 127.864C204.119 125.639 208.713 123.707 213.41 122.077L216.688 131.524ZM204.122 136.813L194.602 141.562L190.138 132.614L199.658 127.864L204.122 136.813ZM194.788 141.465L182.259 148.383L177.425 139.629L189.953 132.711L194.788 141.465ZM182.259 148.383C172.509 153.768 164.962 162.408 160.937 172.794L151.613 169.18C156.485 156.607 165.622 146.147 177.425 139.629L182.259 148.383ZM160.937 172.793L160.468 174.003L151.144 170.39L151.613 169.18L160.937 172.793ZM160.468 174.003C158.657 178.676 157.728 183.644 157.728 188.655H147.728C147.728 182.408 148.886 176.215 151.144 170.39L160.468 174.003ZM157.728 188.655C157.728 193.452 158.58 198.212 160.243 202.712L150.863 206.178C148.79 200.569 147.728 194.636 147.728 188.655H157.728ZM160.243 202.712L160.468 203.321L151.088 206.788L150.863 206.178L160.243 202.712ZM160.468 203.321C166.595 219.899 182.012 231.23 199.662 232.128L199.154 242.115C177.508 241.013 158.602 227.118 151.088 206.788L160.468 203.321ZM199.662 232.128L202.653 232.28L202.145 242.267L199.154 242.115L199.662 232.128ZM202.653 232.28C212.739 232.793 222.736 230.16 231.259 224.744L236.623 233.184C226.349 239.712 214.301 242.886 202.145 242.267L202.653 232.28ZM231.259 224.744L236.608 221.345L241.971 229.785L236.623 233.184L231.259 224.744ZM236.608 221.345C238.77 219.971 240.824 218.433 242.751 216.745L249.34 224.267C247.029 226.292 244.565 228.137 241.971 229.785L236.608 221.345ZM242.751 216.745L257.758 203.601L264.347 211.123L249.34 224.267L242.751 216.745ZM257.758 203.601C262.004 199.882 265.592 195.472 268.369 190.557L277.075 195.477C273.744 201.372 269.44 206.662 264.347 211.123L257.758 203.601ZM268.369 190.557L269.2 189.086L277.906 194.006L277.075 195.477L268.369 190.557ZM269.2 189.086C273.002 182.358 275 174.762 275 167.034H285C285 176.486 282.557 185.777 277.906 194.006L269.2 189.086ZM275 167.034V166.507H285V167.034H275ZM275 166.507C275 162.893 274.651 159.287 273.959 155.74L283.773 153.823C284.589 158.002 285 162.249 285 166.507H275ZM273.959 155.74L273.749 154.664L283.563 152.747L283.773 153.823L273.959 155.74ZM288.259 146.706L283.028 156.132L274.284 151.28L279.515 141.853L288.259 146.706ZM292.992 121.662C294.149 130.302 292.489 139.084 288.259 146.706L279.515 141.853C282.701 136.112 283.952 129.497 283.081 122.989L292.992 121.662ZM286.235 102.256C289.776 108.201 292.074 114.803 292.992 121.662L283.081 122.989C282.342 117.469 280.492 112.157 277.643 107.372L286.235 102.256ZM285.861 101.627L286.235 102.256L277.643 107.372L277.269 106.744L285.861 101.627ZM283.296 97.3703L285.848 101.605L277.282 106.766L274.731 102.531L283.296 97.3703ZM262.334 99.6309C265.514 90.2661 278.193 88.8988 283.296 97.3703L274.731 102.531C274.018 101.348 272.248 101.538 271.803 102.846L262.334 99.6309ZM254.078 123.946L262.334 99.6309L271.803 102.846L263.547 127.162L254.078 123.946ZM256.5 129.987C251.521 127.39 245.947 126.128 240.33 126.331L239.969 116.337C247.319 116.072 254.611 117.723 261.125 121.121L256.5 129.987ZM245.15 100.423V121.334H235.15V100.423H245.15ZM243.338 92.9343C244.528 95.2511 245.15 97.8184 245.15 100.423H235.15C235.15 99.4084 234.908 98.4082 234.444 97.5057L243.338 92.9343Z" fill="#281214" mask="url(#path-20-inside-4_726_647)"/>
<path d="M266.046 143.627L236.105 168.944L231.992 172.007C229.474 173.883 225.916 172.753 224.918 169.761V169.761C224.451 168.36 224.532 166.826 225.143 165.475L226.173 163.199" stroke="#281214" stroke-width="4" stroke-linecap="round"/>
<path d="M177.503 137.107L187.622 160.822L189.51 164.869C190.777 167.584 194.343 168.188 196.472 166.048V166.048C197.392 165.122 197.783 163.791 197.507 162.521L196.906 159.754" stroke="#281214" stroke-width="4" stroke-linecap="round"/>
<path d="M179.844 171.309C179.283 178.624 180.95 181.006 183.251 181.192C185.552 181.377 187.615 179.295 188.177 171.979C188.738 164.664 187.029 162.373 184.728 162.188C182.427 162.002 180.406 163.993 179.844 171.309Z" fill="#281214"/>
<ellipse cx="2.78893" cy="2.85011" rx="2.78893" ry="2.85011" transform="matrix(-0.977553 0.210688 0.201334 0.979523 187.786 162.63)" fill="white"/>
<path d="M232.859 178.984C232.353 186.303 234.038 188.672 236.34 188.839C238.643 189.006 240.69 186.909 241.197 179.589C241.703 172.269 239.977 169.991 237.675 169.824C235.372 169.657 233.366 171.664 232.859 178.984Z" fill="#281214"/>
<ellipse cx="2.79328" cy="2.84585" rx="2.79328" ry="2.84585" transform="matrix(-0.942655 -0.333769 -0.319925 0.947443 239.891 171.848)" fill="white"/>
<rect x="164" y="377.671" width="54.6883" height="54.6883" rx="9.11472" transform="rotate(-45 164 377.671)" fill="#AF3FFF"/>
<mask id="mask0_726_647" style="mask-type:alpha" maskUnits="userSpaceOnUse" x="177" y="352" width="51" height="51">
<path d="M177.58 352.581H227.711V402.712H177.58V352.581Z" fill="#D9D9D9"/>
</mask>
<g mask="url(#mask0_726_647)">
<path d="M203.877 395.592C203.153 396.156 202.139 396.156 201.414 395.592L185.908 383.532C184.868 382.723 184.878 381.147 185.929 380.351L186.068 380.246C186.791 379.698 187.791 379.704 188.508 380.259L201.417 390.271C202.14 390.831 203.151 390.831 203.874 390.271L216.784 380.259C217.5 379.704 218.501 379.698 219.223 380.246L219.362 380.351C220.413 381.147 220.423 382.723 219.383 383.532L203.877 395.592ZM203.877 385.044C203.153 385.607 202.139 385.607 201.414 385.044L185.882 372.963C184.849 372.16 184.849 370.6 185.882 369.797L201.414 357.716C202.139 357.153 203.153 357.153 203.877 357.716L219.41 369.797C220.442 370.6 220.442 372.16 219.41 372.963L203.877 385.044ZM201.418 379.725C202.141 380.285 203.15 380.285 203.873 379.725L212.607 372.966C213.644 372.163 213.644 370.597 212.607 369.794L203.873 363.035C203.15 362.476 202.141 362.476 201.418 363.035L192.684 369.794C191.647 370.597 191.647 372.163 192.684 372.966L201.418 379.725Z" fill="#F8F8F8"/>
</g>
<rect x="333" y="209.67" width="54.6883" height="54.6883" rx="9.11472" transform="rotate(-45 333 209.67)" fill="#FF406E"/>
<mask id="mask1_726_647" style="mask-type:alpha" maskUnits="userSpaceOnUse" x="348" y="186" width="47" height="47">
<path d="M348.859 186.86H394.433V232.433H348.859V186.86Z" fill="#D9D9D9"/>
</mask>
<g mask="url(#mask1_726_647)">
<path d="M375.444 226.736C374.906 226.736 374.455 226.554 374.092 226.189C373.727 225.826 373.545 225.375 373.545 224.837C373.545 224.299 373.727 223.849 374.092 223.485C374.455 223.121 374.906 222.939 375.444 222.939C376.931 222.939 378.252 222.646 379.407 222.061C380.562 221.475 381.14 220.818 381.14 220.09C381.14 219.647 380.935 219.236 380.523 218.856C380.369 218.713 380.192 218.575 379.993 218.442C379.459 218.083 379.306 217.319 379.761 216.865L381.114 215.511C381.409 215.217 381.869 215.155 382.211 215.394C382.949 215.908 383.558 216.492 384.036 217.147C384.637 217.97 384.938 218.951 384.938 220.09C384.938 222.179 383.941 223.809 381.947 224.98C379.953 226.151 377.786 226.736 375.444 226.736ZM358.044 211.712C357.751 212.005 357.293 212.068 356.953 211.831C356.309 211.384 355.779 210.885 355.363 210.334C354.825 209.622 354.556 208.76 354.556 207.747C354.556 206.418 355.046 205.302 356.027 204.4C357.008 203.498 358.765 202.494 361.297 201.386C363.291 200.468 364.564 199.827 365.117 199.462C365.672 199.099 365.949 198.696 365.949 198.253C365.949 197.746 365.64 197.303 365.022 196.924C364.406 196.544 363.449 196.354 362.151 196.354C361.36 196.354 360.695 196.449 360.157 196.639C359.619 196.829 359.129 197.145 358.686 197.588C358.338 197.936 357.91 198.142 357.404 198.205C356.898 198.269 356.439 198.126 356.027 197.778C355.616 197.462 355.379 197.05 355.315 196.544C355.252 196.037 355.394 195.579 355.742 195.167C356.344 194.439 357.207 193.822 358.331 193.316C359.454 192.809 360.727 192.556 362.151 192.556C364.43 192.556 366.266 193.07 367.658 194.098C369.051 195.127 369.747 196.512 369.747 198.253C369.747 199.487 369.288 200.595 368.37 201.576C367.452 202.557 365.601 203.649 362.816 204.852C360.98 205.643 359.778 206.228 359.208 206.608C358.638 206.988 358.353 207.368 358.353 207.747C358.353 208.032 358.535 208.309 358.898 208.579C358.978 208.637 359.063 208.695 359.155 208.753C359.71 209.101 359.88 209.876 359.417 210.339L358.044 211.712ZM360.252 222.027C360.252 222.53 360.66 222.939 361.164 222.939H362.531C362.774 222.939 363.007 222.842 363.178 222.669L383.185 202.528C383.539 202.172 383.538 201.596 383.183 201.241L381.814 199.872C381.457 199.515 380.878 199.516 380.522 199.874L360.517 220.013C360.348 220.184 360.252 220.415 360.252 220.656V222.027ZM357.366 226.736C356.863 226.736 356.455 226.328 356.455 225.825V219.042C356.455 218.801 356.55 218.57 356.72 218.399L379.878 195.11C380.589 194.394 381.746 194.393 382.46 195.106L387.952 200.598C388.662 201.309 388.664 202.46 387.955 203.173L364.792 226.468C364.621 226.64 364.388 226.736 364.146 226.736H357.366Z" fill="#F8F8F8"/>
</g>
<rect x="46" y="332.671" width="54.6883" height="54.6883" rx="9.11472" transform="rotate(-45 46 332.671)" fill="#FF7917"/>
<mask id="mask2_726_647" style="mask-type:alpha" maskUnits="userSpaceOnUse" x="62" y="310" width="45" height="45">
<rect x="62.9531" y="310.954" width="43.2949" height="43.2269" fill="#D9D9D9"/>
</mask>
<g mask="url(#mask2_726_647)">
<path d="M74.5079 349.318C74.0045 349.318 73.5964 348.91 73.5964 348.406V345.913C73.5964 345.671 73.6926 345.439 73.8639 345.268L74.8013 344.332C75.0887 344.045 74.8855 343.554 74.4793 343.554H70.3042C69.1617 343.554 68.1918 343.157 67.3944 342.362C66.5983 341.566 66.2002 340.597 66.2002 339.457V320.095C66.2002 318.954 66.5983 317.986 67.3944 317.189C68.1918 316.395 69.1617 315.997 70.3042 315.997H83.0577C83.5611 315.997 83.9691 316.405 83.9691 316.909V319.183C83.9691 319.687 83.5611 320.095 83.0577 320.095H71.2157C70.7123 320.095 70.3042 320.503 70.3042 321.006V338.545C70.3042 339.049 70.7123 339.457 71.2157 339.457H97.9854C98.4888 339.457 98.8969 339.049 98.8969 338.545V335.28C98.8969 334.777 99.305 334.369 99.8083 334.369H102.089C102.593 334.369 103.001 334.777 103.001 335.28V339.457C103.001 340.597 102.603 341.566 101.807 342.362C101.009 343.157 100.039 343.554 98.8969 343.554H94.7218C94.3156 343.554 94.1123 344.045 94.3998 344.332L95.3372 345.268C95.5084 345.439 95.6047 345.671 95.6047 345.913V348.406C95.6047 348.91 95.1966 349.318 94.6932 349.318H74.5079Z" fill="#F8F8F8"/>
</g>
<mask id="mask3_726_647" style="mask-type:alpha" maskUnits="userSpaceOnUse" x="62" y="311" width="45" height="44">
<rect x="62.9531" y="311.022" width="43.2949" height="43.2269" fill="#D9D9D9"/>
</mask>
<g mask="url(#mask3_726_647)">
<path d="M74.5079 349.386C74.0045 349.386 73.5964 348.978 73.5964 348.474V345.981C73.5964 345.739 73.6926 345.507 73.8639 345.336L74.8013 344.4C75.0887 344.113 74.8855 343.622 74.4793 343.622H70.3042C69.1617 343.622 68.1918 343.225 67.3944 342.43C66.5983 341.634 66.2002 340.665 66.2002 339.525V320.162C66.2002 319.022 66.5983 318.053 67.3944 317.257C68.1918 316.462 69.1617 316.065 70.3042 316.065H83.0577C83.5611 316.065 83.9691 316.473 83.9691 316.976V319.251C83.9691 319.754 83.5611 320.162 83.0577 320.162H71.2157C70.7123 320.162 70.3042 320.571 70.3042 321.074V338.613C70.3042 339.116 70.7123 339.525 71.2157 339.525H97.9854C98.4888 339.525 98.8969 339.116 98.8969 338.613V335.348C98.8969 334.844 99.305 334.436 99.8083 334.436H102.089C102.593 334.436 103.001 334.844 103.001 335.348V339.525C103.001 340.665 102.603 341.634 101.807 342.43C101.009 343.225 100.039 343.622 98.8969 343.622H94.7218C94.3156 343.622 94.1123 344.113 94.3998 344.4L95.3372 345.336C95.5084 345.507 95.6047 345.739 95.6047 345.981V348.474C95.6047 348.978 95.1966 349.386 94.6932 349.386H74.5079Z" fill="#F8F8F8"/>
</g>
<mask id="mask4_726_647" style="mask-type:alpha" maskUnits="userSpaceOnUse" x="83" y="312" width="24" height="23">
<rect x="83.9082" y="312.405" width="22.3402" height="22.3051" fill="#D9D9D9"/>
</mask>
<g mask="url(#mask4_726_647)">
<path d="M92.6095 332.164C92.5722 332.413 92.3727 332.619 92.121 332.619H88.6207C87.8915 332.619 87.2669 332.359 86.7469 331.841C86.2275 331.322 85.9678 330.698 85.9678 329.97V326.476C85.9678 326.224 86.1739 326.026 86.4208 325.977C86.8162 325.898 87.1616 325.711 87.4571 325.416C87.8605 325.013 88.0622 324.518 88.0622 323.929C88.0622 323.34 87.8605 322.845 87.4571 322.442C87.1616 322.147 86.8162 321.96 86.4208 321.881C86.1739 321.832 85.9678 321.634 85.9678 321.382V317.888C85.9678 317.16 86.2275 316.536 86.7469 316.017C87.2669 315.499 87.8915 315.239 88.6207 315.239H91.3062C91.5186 315.239 91.6997 315.091 91.7672 314.89C91.9628 314.305 92.2947 313.821 92.7629 313.438C93.3214 312.981 93.9575 312.753 94.6711 312.753C95.3848 312.753 96.0209 312.981 96.5794 313.438C97.0476 313.821 97.3795 314.305 97.5751 314.89C97.6425 315.091 97.8237 315.239 98.0361 315.239H100.722C101.451 315.239 102.075 315.499 102.595 316.017C103.115 316.536 103.374 317.16 103.374 317.888V320.568C103.374 320.781 103.523 320.962 103.724 321.029C104.31 321.225 104.794 321.556 105.178 322.024C105.636 322.581 105.864 323.216 105.864 323.929C105.864 324.641 105.636 325.277 105.178 325.834C104.794 326.302 104.31 326.633 103.724 326.828C103.523 326.896 103.374 327.077 103.374 327.289V329.97C103.374 330.698 103.115 331.322 102.595 331.841C102.075 332.359 101.451 332.619 100.722 332.619H97.2213C96.9696 332.619 96.77 332.413 96.7334 332.164C96.6619 331.677 96.4709 331.252 96.1605 330.888C95.7571 330.415 95.2607 330.179 94.6711 330.179C94.0971 330.179 93.6047 330.415 93.1939 330.888C92.8772 331.252 92.6824 331.677 92.6095 332.164ZM88.8999 329.235C88.8999 329.487 89.104 329.691 89.3557 329.691H90.521C90.596 329.691 90.6629 329.645 90.6925 329.576C91.0078 328.842 91.5196 328.277 92.2277 327.879C92.9723 327.461 93.7868 327.251 94.6711 327.251C95.5089 327.251 96.3001 327.461 97.0448 327.879C97.7556 328.278 98.2897 328.847 98.6471 329.584C98.6784 329.649 98.7431 329.691 98.8147 329.691H99.9866C100.238 329.691 100.442 329.487 100.442 329.235V324.826C100.442 324.726 100.524 324.644 100.625 324.644H102.467C102.591 324.644 102.7 324.598 102.793 324.505C102.886 324.412 102.932 324.053 102.932 323.929C102.932 323.805 102.886 323.459 102.793 323.366C102.7 323.273 102.591 323.227 102.467 323.227H100.625C100.524 323.227 100.442 323.145 100.442 323.044V318.623C100.442 318.371 100.238 318.167 99.9866 318.167H95.4964C95.3957 318.167 95.3141 318.085 95.3141 317.985V316.145C95.3141 316.021 95.2676 315.913 95.1745 315.82C95.0814 315.727 94.7253 315.679 94.6012 315.679C94.4771 315.679 94.1211 315.727 94.028 315.82C93.9349 315.913 93.8884 316.021 93.8884 316.145V317.985C93.8884 318.085 93.8068 318.167 93.7061 318.167H89.3557C89.104 318.167 88.8999 318.371 88.8999 318.623V319.656C88.8999 319.801 88.9695 319.936 89.0825 320.026C89.6486 320.48 90.1038 321.026 90.4479 321.663C90.8277 322.368 91.0176 323.123 91.0176 323.929C91.0176 324.734 90.8277 325.493 90.4479 326.206C90.1037 326.851 89.6486 327.4 89.0824 327.855C88.9695 327.945 88.8999 328.08 88.8999 328.225V329.235Z" fill="#F8F8F8"/>
</g>
<rect x="10" y="207.67" width="54.6883" height="54.6883" rx="9.11472" transform="rotate(-45 10 207.67)" fill="#11D4B1"/>
<mask id="mask5_726_647" style="mask-type:alpha" maskUnits="userSpaceOnUse" x="28" y="187" width="42" height="42">
<path d="M28.1387 187.138H69.1549V228.155H28.1387V187.138Z" fill="#D9D9D9"/>
</mask>
<g mask="url(#mask5_726_647)">
<path d="M38.5089 204.729L41.8414 206.139C42.2402 205.342 42.6532 204.573 43.0805 203.832C43.5077 203.091 43.9777 202.351 44.4904 201.61L42.0978 201.14L38.5089 204.729ZM44.5759 208.275L49.4465 213.103C50.6428 212.648 51.9246 211.95 53.2918 211.01C54.659 210.07 55.9408 209.002 57.1371 207.805C59.1309 205.812 60.6907 203.597 61.8164 201.162C62.9409 198.727 63.4319 196.483 63.2895 194.432C61.2387 194.29 58.9885 194.781 56.5389 195.906C54.0894 197.031 51.8676 198.591 49.8738 200.585C48.6775 201.781 47.6094 203.063 46.6694 204.43C45.7294 205.797 45.0316 207.079 44.5759 208.275ZM52.9927 219.213L56.5817 215.624L56.1117 213.232C55.3711 213.744 54.6305 214.207 53.89 214.619C53.1494 215.033 52.3803 215.439 51.5828 215.838L52.9927 219.213ZM65.048 191.149C65.8362 191.222 66.4574 191.843 66.5304 192.631C66.8071 195.616 66.4178 198.531 65.3625 201.374C64.1514 204.636 62.0647 207.748 59.1024 210.711L59.9569 214.941C60.0709 215.51 60.0424 216.066 59.8715 216.607C59.7006 217.148 59.4158 217.618 59.017 218.017L53.1745 223.859C52.5355 224.498 51.4529 224.289 51.0984 223.457L48.2502 216.778L41.1188 209.646C41.0035 209.531 40.8671 209.439 40.717 209.375L34.259 206.621C33.4291 206.267 33.2185 205.188 33.8545 204.548L39.6625 198.705C40.0612 198.306 40.5386 198.021 41.0946 197.85C41.6495 197.68 42.2117 197.651 42.7814 197.765L47.0112 198.619C49.9735 195.657 53.0782 193.564 56.3253 192.339C59.157 191.271 62.0646 190.874 65.048 191.149ZM35.5608 214.898C36.5578 213.901 37.7751 213.395 39.213 213.38C40.652 213.367 41.8699 213.858 42.8669 214.855C43.8638 215.852 44.3548 217.069 44.34 218.507C44.3263 219.946 43.8211 221.164 42.8241 222.161C42.112 222.873 40.9231 223.486 39.2574 223.998C37.8223 224.44 35.9175 224.839 33.5431 225.196C32.9473 225.285 32.4364 224.775 32.526 224.179C32.883 221.804 33.2822 219.9 33.7237 218.464C34.2364 216.799 34.8488 215.61 35.5608 214.898ZM37.9962 217.29C37.7113 217.575 37.4265 218.095 37.1417 218.851C36.8568 219.605 36.6575 220.367 36.5435 221.136C37.3126 221.022 38.0748 220.83 38.8302 220.56C39.5844 220.289 40.104 220.011 40.3888 219.726C40.7306 219.384 40.9157 218.971 40.9442 218.487C40.9727 218.002 40.816 217.589 40.4742 217.248C40.1324 216.906 39.7194 216.742 39.2352 216.755C38.751 216.77 38.338 216.949 37.9962 217.29Z" fill="#F8F8F8"/>
</g>
<rect x="47.8262" y="203.217" width="6.72666" height="6.72666" rx="3.36333" fill="#F8F8F8"/>
<rect x="54.5527" y="197.803" width="5.41414" height="5.41414" rx="2.70707" fill="#F8F8F8"/>
<rect x="51" y="99.5" width="54.4472" height="54.4472" rx="9.07454" transform="rotate(-45 51 99.5)" fill="#D41153"/>
<path d="M111.631 93.3823C111.631 94.3367 110.925 95.1439 109.979 95.2709L108.014 95.5348C107.96 95.6788 107.888 95.8227 107.798 95.9666C107.708 96.1106 107.618 96.2455 107.528 96.3714L108.3 98.1902C108.676 99.0775 108.33 100.106 107.495 100.586L104.457 102.332C103.622 102.812 102.56 102.594 101.983 101.823L100.808 100.258C100.718 100.276 100.637 100.285 100.565 100.285H100.08C100.008 100.285 99.9268 100.276 99.8368 100.258L98.6646 101.821C98.0861 102.592 97.0225 102.81 96.1874 102.328L93.1689 100.585C92.3372 100.105 91.9927 99.0811 92.365 98.1959L93.1438 96.3445C93.0359 96.2185 92.9412 96.0879 92.8599 95.9526C92.7793 95.818 92.712 95.6788 92.658 95.5348L90.6684 95.2695C89.7217 95.1433 89.0146 94.3357 89.0146 93.3806V89.9165C89.0146 88.9614 89.7217 88.1538 90.6684 88.0276L92.658 87.7623C92.712 87.6184 92.7793 87.4744 92.8599 87.3305C92.9412 87.1865 93.0359 87.0516 93.1438 86.9257L92.3714 85.1039C91.9957 84.2178 92.3396 83.1907 93.1731 82.7096L96.1874 80.9695C97.0225 80.4874 98.0861 80.7051 98.6646 81.4765L99.8368 83.0394H100.565C100.637 83.0394 100.718 83.0484 100.808 83.0664L101.979 81.5054C102.558 80.7332 103.623 80.516 104.459 80.9998L107.498 82.7602C108.332 83.2431 108.674 84.2723 108.295 85.1582L107.528 86.9527C107.618 87.0786 107.708 87.2089 107.798 87.3434C107.888 87.4787 107.96 87.6184 108.014 87.7623L109.979 88.0262C110.925 88.1532 111.631 88.9605 111.631 89.9149V93.3823ZM108.77 92.5661V90.7849L105.936 90.3801C105.792 89.8224 105.581 89.2916 105.302 88.7878C105.023 88.2841 104.668 87.8343 104.236 87.4384L105.342 84.7666L103.777 83.903L102.05 86.17C101.78 86.08 101.501 86.0128 101.213 85.9681C100.925 85.9228 100.628 85.9001 100.323 85.9001C100.017 85.9001 99.7199 85.9228 99.432 85.9681C99.1441 86.0128 98.8652 86.08 98.5954 86.17L96.8681 83.876L95.3028 84.7666L96.4363 87.4114C96.0045 87.8073 95.64 88.2571 95.3428 88.7608C95.0463 89.2646 94.835 89.8044 94.7091 90.3801L91.8754 90.731V92.5392L94.6821 92.89C94.8261 93.4837 95.042 94.0325 95.3298 94.5363C95.6177 95.04 95.9775 95.4988 96.4093 95.9127L95.3028 98.5305L96.8681 99.4211L98.5684 97.1541C98.8563 97.2441 99.1394 97.3113 99.418 97.356C99.6972 97.4013 99.9987 97.424 100.323 97.424C100.628 97.424 100.925 97.4013 101.213 97.356C101.501 97.3113 101.789 97.2441 102.077 97.1541L103.777 99.4211L105.342 98.5305L104.209 95.9127C104.641 95.4988 105.005 95.0354 105.301 94.5222C105.599 94.0098 105.819 93.4657 105.963 92.89L108.77 92.5661Z" fill="#F8F8F8"/>
<path d="M83.3878 88.33L80.0152 88.33C77.063 88.33 74.4885 90.3365 73.7674 93.1993L70.1403 107.599C69.8205 108.869 70.0314 110.214 70.7244 111.324V111.324C72.0002 113.369 74.6005 114.152 76.7977 113.161V113.161C77.8832 112.672 78.7538 111.797 79.2352 110.708L80.2517 108.408C80.8618 107.028 82.2287 106.138 83.7377 106.138L92.5548 106.138C93.8498 106.138 95.0226 106.903 95.5445 108.088L96.6874 110.683C97.3591 112.208 98.7825 113.29 100.429 113.55V113.55C101.812 113.768 103.24 113.375 104.307 112.469V112.469C105.672 111.311 106.28 109.49 105.886 107.743L105.348 105.366" stroke="#F8F8F8" stroke-width="3.62982" stroke-linecap="round"/>
<rect width="54.6883" height="54.6883" rx="9.11472" transform="matrix(-0.707107 -0.707107 -0.707107 0.707107 371.341 99.6707)" fill="#35E792"/>
<mask id="mask6_726_647" style="mask-type:alpha" maskUnits="userSpaceOnUse" x="308" y="75" width="49" height="49">
<path d="M356.666 75.6748H308.814V123.527H356.666V75.6748Z" fill="#D9D9D9"/>
</mask>
<g mask="url(#mask6_726_647)">
<path d="M331.7 106.935C332.298 107.533 333.267 107.533 333.865 106.935L340.159 100.641C340.757 100.043 340.757 99.0736 340.159 98.4756L333.865 92.182C333.267 91.584 332.298 91.584 331.7 92.182L325.406 98.4756C324.808 99.0736 324.808 100.043 325.406 100.641L331.7 106.935ZM333.324 101.837C333.025 102.136 332.54 102.136 332.241 101.837L330.504 100.1C330.205 99.8007 330.205 99.316 330.504 99.017L332.241 97.28C332.54 96.981 333.025 96.981 333.324 97.28L335.061 99.017C335.36 99.316 335.36 99.8007 335.061 100.1L333.324 101.837ZM323.029 116.028C323.627 116.626 324.597 116.626 325.195 116.028L327.073 114.15L329.575 116.653C330.468 117.546 331.537 117.992 332.781 117.992C334.027 117.992 335.097 117.546 335.99 116.653L338.492 114.15L340.37 116.028C340.968 116.626 341.938 116.626 342.536 116.028L343.331 115.233C343.929 114.635 343.929 113.666 343.331 113.068L341.453 111.19L344.414 108.229L346.292 110.107C346.89 110.705 347.859 110.705 348.457 110.107L349.252 109.312C349.85 108.714 349.85 107.744 349.252 107.146L347.375 105.268L349.877 102.766C350.77 101.873 351.216 100.803 351.216 99.5569C351.216 98.3125 350.77 97.2438 349.877 96.3509L347.375 93.8484L349.252 91.9705C349.85 91.3725 349.85 90.4029 349.252 89.8049L348.457 89.0098C347.859 88.4118 346.89 88.4118 346.292 89.0098L344.414 90.8877L341.453 87.927L343.331 86.0491C343.929 85.4511 343.929 84.4815 343.331 83.8835L342.536 83.0884C341.938 82.4904 340.968 82.4904 340.37 83.0884L338.492 84.9663L335.99 82.4638C335.097 81.5709 334.028 81.1239 332.782 81.123C331.537 81.1239 330.468 81.5709 329.575 82.4638L327.073 84.9663L325.195 83.0884C324.597 82.4904 323.627 82.4904 323.029 83.0884L322.234 83.8835C321.636 84.4815 321.636 85.4511 322.234 86.0491L324.112 87.927L321.151 90.8877L319.273 89.0098C318.675 88.4118 317.706 88.4118 317.108 89.0098L316.312 89.8049C315.714 90.4029 315.714 91.3725 316.312 91.9705L318.19 93.8484L315.688 96.3509C314.795 97.2438 314.348 98.313 314.347 99.5583C314.348 100.804 314.795 101.873 315.688 102.766L318.19 105.268L316.312 107.146C315.714 107.744 315.714 108.714 316.312 109.312L317.108 110.107C317.706 110.705 318.675 110.705 319.273 110.107L321.151 108.229L324.112 111.19L322.234 113.068C321.636 113.666 321.636 114.635 322.234 115.233L323.029 116.028ZM319.978 100.641C319.38 100.043 319.38 99.0736 319.978 98.4756L331.7 86.754C332.298 86.156 333.267 86.156 333.865 86.754L345.587 98.4756C346.185 99.0736 346.185 100.043 345.587 100.641L333.865 112.363C333.267 112.961 332.298 112.961 331.7 112.363L319.978 100.641Z" fill="#F8F8F8"/>
</g>
<rect x="294" y="329.67" width="54.6883" height="54.6883" rx="9.11472" transform="rotate(-45 294 329.67)" fill="#1E6CFF"/>
<mask id="mask7_726_647" style="mask-type:alpha" maskUnits="userSpaceOnUse" x="308" y="305" width="49" height="49">
<rect x="308.675" y="305.675" width="47.8523" height="47.8523" fill="#D9D9D9"/>
</mask>
<g mask="url(#mask7_726_647)">
<path d="M322.631 347.545C319.873 347.545 317.522 346.574 315.579 344.63C313.634 342.686 312.662 340.334 312.662 337.576C312.662 335.15 313.418 333.032 314.931 331.22C316.074 329.85 317.441 328.866 319.031 328.266C319.84 327.961 320.637 328.614 320.637 329.479V330.967C320.637 331.551 320.257 332.056 319.744 332.334C318.975 332.75 318.317 333.334 317.77 334.087C317.023 335.117 316.65 336.28 316.65 337.576C316.65 339.238 317.231 340.65 318.394 341.813C319.557 342.976 320.97 343.558 322.631 343.558C324.293 343.558 325.705 342.976 326.868 341.813C328.031 340.65 328.613 339.238 328.613 337.576V337.405C328.613 336.398 329.429 335.582 330.436 335.582H340.327C340.593 335.283 340.917 335.042 341.3 334.859C341.681 334.676 342.105 334.585 342.57 334.585C343.401 334.585 344.106 334.877 344.687 335.459C345.269 336.04 345.561 336.745 345.561 337.576C345.561 338.407 345.269 339.113 344.687 339.694C344.106 340.276 343.401 340.567 342.57 340.567C342.105 340.567 341.681 340.476 341.3 340.294C340.917 340.11 340.593 339.869 340.327 339.57H332.401C331.936 341.863 330.798 343.766 328.988 345.278C327.176 346.79 325.057 347.545 322.631 347.545ZM342.57 347.545C340.709 347.545 339.023 347.088 337.511 346.174C336.701 345.684 335.984 345.112 335.359 344.455C334.634 343.692 335.263 342.561 336.315 342.561H338.842C339.127 342.561 339.402 342.655 339.647 342.8C340.012 343.015 340.405 343.185 340.825 343.308C341.39 343.475 341.972 343.558 342.57 343.558C344.231 343.558 345.644 342.976 346.807 341.813C347.97 340.65 348.551 339.238 348.551 337.576C348.551 335.915 347.97 334.502 346.807 333.339C345.644 332.176 344.231 331.595 342.57 331.595C341.905 331.595 341.29 331.686 340.725 331.868V331.868C339.805 332.167 338.7 331.976 338.202 331.146L333.049 322.572C332.351 322.44 331.77 322.107 331.305 321.576C330.839 321.044 330.607 320.396 330.607 319.632C330.607 318.801 330.898 318.095 331.48 317.514C332.061 316.932 332.767 316.641 333.597 316.641C334.428 316.641 335.134 316.932 335.715 317.514C336.297 318.095 336.588 318.801 336.588 319.632V320.056C336.588 320.172 336.555 320.313 336.489 320.479L340.825 327.756C341.091 327.69 341.373 327.648 341.673 327.631C341.972 327.615 342.271 327.607 342.57 327.607C345.328 327.607 347.679 328.579 349.624 330.522C351.567 332.467 352.539 334.818 352.539 337.576C352.539 340.334 351.567 342.686 349.624 344.63C347.679 346.574 345.328 347.545 342.57 347.545ZM322.631 340.567C321.801 340.567 321.095 340.276 320.514 339.694C319.932 339.113 319.641 338.407 319.641 337.576C319.641 336.845 319.873 336.214 320.338 335.682C320.804 335.15 321.369 334.801 322.033 334.635L326.719 326.859C325.755 325.962 324.999 324.89 324.452 323.643C323.903 322.398 323.628 321.06 323.628 319.632C323.628 316.873 324.601 314.523 326.545 312.579C328.489 310.635 330.839 309.662 333.597 309.662C336.356 309.662 338.707 310.635 340.652 312.579C342.266 314.194 343.21 316.09 343.483 318.268C343.577 319.017 342.955 319.632 342.199 319.632H340.946C340.191 319.632 339.598 319.012 339.438 318.274C339.201 317.187 338.667 316.227 337.834 315.395C336.671 314.232 335.259 313.65 333.597 313.65C331.936 313.65 330.524 314.232 329.361 315.395C328.197 316.558 327.616 317.97 327.616 319.632C327.616 321.06 328.048 322.315 328.912 323.394C329.223 323.782 329.563 324.12 329.934 324.408C330.915 325.169 331.543 326.561 330.904 327.626L325.473 336.679C325.539 336.845 325.581 336.995 325.598 337.128C325.614 337.26 325.622 337.41 325.622 337.576C325.622 338.407 325.331 339.113 324.749 339.694C324.168 340.276 323.462 340.567 322.631 340.567Z" fill="#F8F8F8"/>
</g>
<rect x="164" y="47.6704" width="54.6883" height="54.6883" rx="9.1147" transform="rotate(-45 164 47.6704)" fill="#05A3FF"/>
<mask id="path-56-outside-5_726_647" maskUnits="userSpaceOnUse" x="177.219" y="39.719" width="51" height="16" fill="black">
<rect fill="white" x="177.219" y="39.719" width="51" height="16"/>
<path d="M189.733 40.719C190.164 40.719 190.521 40.8599 190.803 41.1418C191.084 41.4236 191.225 41.7884 191.225 42.236V52.7557C191.225 53.1868 191.084 53.5516 190.803 53.85C190.521 54.1318 190.164 54.2728 189.733 54.2728C189.302 54.2728 188.946 54.1318 188.664 53.85C188.382 53.5516 188.241 53.1868 188.241 52.7557V51.5371L188.788 51.761C188.788 51.9765 188.672 52.2418 188.44 52.5568C188.208 52.8552 187.893 53.1536 187.495 53.4521C187.097 53.7505 186.625 54.0075 186.077 54.223C185.547 54.422 184.967 54.5215 184.337 54.5215C183.193 54.5215 182.156 54.2313 181.228 53.651C180.299 53.0542 179.562 52.2418 179.015 51.2138C178.484 50.1693 178.219 48.9756 178.219 47.6327C178.219 46.2731 178.484 45.0794 179.015 44.0515C179.562 43.007 180.291 42.1946 181.203 41.6143C182.115 41.0174 183.126 40.719 184.237 40.719C184.95 40.719 185.605 40.8268 186.202 41.0423C186.799 41.2578 187.313 41.5314 187.744 41.863C188.191 42.1946 188.531 42.5345 188.763 42.8826C189.012 43.2142 189.136 43.4961 189.136 43.7282L188.241 44.0515V42.236C188.241 41.805 188.382 41.4485 188.664 41.1666C188.946 40.8682 189.302 40.719 189.733 40.719ZM184.71 51.7858C185.439 51.7858 186.077 51.6035 186.625 51.2387C187.172 50.874 187.594 50.3766 187.893 49.7466C188.208 49.1165 188.365 48.4119 188.365 47.6327C188.365 46.8368 188.208 46.1239 187.893 45.4939C187.594 44.8639 187.172 44.3665 186.625 44.0017C186.077 43.637 185.439 43.4546 184.71 43.4546C183.997 43.4546 183.367 43.637 182.82 44.0017C182.272 44.3665 181.841 44.8639 181.526 45.4939C181.228 46.1239 181.079 46.8368 181.079 47.6327C181.079 48.4119 181.228 49.1165 181.526 49.7466C181.841 50.3766 182.272 50.874 182.82 51.2387C183.367 51.6035 183.997 51.7858 184.71 51.7858Z"/>
<path d="M200.376 40.719C201.321 40.719 202.141 40.8185 202.838 41.0174C203.551 41.2164 204.098 41.4982 204.479 41.863C204.877 42.2112 205.076 42.6339 205.076 43.1313C205.076 43.4629 204.976 43.7779 204.777 44.0764C204.578 44.3582 204.288 44.4991 203.907 44.4991C203.642 44.4991 203.418 44.466 203.236 44.3997C203.07 44.3168 202.921 44.2173 202.788 44.1012C202.655 43.9852 202.498 43.8774 202.315 43.7779C202.15 43.6784 201.893 43.6038 201.544 43.5541C201.213 43.4878 200.964 43.4546 200.798 43.4546C199.953 43.4546 199.232 43.637 198.635 44.0017C198.054 44.3665 197.607 44.8639 197.292 45.4939C196.977 46.1073 196.819 46.8203 196.819 47.6327C196.819 48.4285 196.977 49.1414 197.292 49.7714C197.623 50.3849 198.071 50.874 198.635 51.2387C199.215 51.6035 199.878 51.7858 200.624 51.7858C201.039 51.7858 201.395 51.761 201.694 51.7112C201.992 51.6615 202.241 51.5869 202.44 51.4874C202.672 51.3548 202.879 51.2138 203.061 51.0646C203.244 50.9154 203.517 50.8408 203.882 50.8408C204.313 50.8408 204.645 50.9817 204.877 51.2636C205.109 51.5289 205.225 51.8604 205.225 52.2584C205.225 52.6728 204.993 53.0542 204.529 53.4023C204.064 53.7339 203.451 54.0075 202.688 54.223C201.942 54.422 201.13 54.5215 200.251 54.5215C198.941 54.5215 197.806 54.223 196.844 53.6262C195.882 53.0127 195.136 52.1837 194.606 51.1392C194.092 50.0947 193.835 48.9259 193.835 47.6327C193.835 46.2731 194.108 45.0794 194.656 44.0515C195.219 43.007 195.99 42.1946 196.968 41.6143C197.963 41.0174 199.099 40.719 200.376 40.719Z"/>
<path d="M214.365 40.719C215.692 40.719 216.67 41.0423 217.3 41.6889C217.93 42.3189 218.344 43.1396 218.543 44.151L218.121 43.9271L218.32 43.5292C218.518 43.1479 218.825 42.7417 219.24 42.3106C219.654 41.863 220.152 41.4899 220.732 41.1915C221.329 40.8765 221.992 40.719 222.721 40.719C223.915 40.719 224.819 40.976 225.432 41.4899C226.062 42.0039 226.493 42.692 226.725 43.5541C226.957 44.3997 227.074 45.3447 227.074 46.3892V52.7557C227.074 53.1868 226.933 53.5516 226.651 53.85C226.369 54.1318 226.012 54.2728 225.581 54.2728C225.15 54.2728 224.794 54.1318 224.512 53.85C224.23 53.5516 224.089 53.1868 224.089 52.7557V46.3892C224.089 45.8421 224.023 45.353 223.89 44.9219C223.758 44.4743 223.517 44.1178 223.169 43.8525C222.821 43.5873 222.323 43.4546 221.677 43.4546C221.047 43.4546 220.508 43.5873 220.06 43.8525C219.613 44.1178 219.273 44.4743 219.041 44.9219C218.825 45.353 218.717 45.8421 218.717 46.3892V52.7557C218.717 53.1868 218.577 53.5516 218.295 53.85C218.013 54.1318 217.656 54.2728 217.225 54.2728C216.794 54.2728 216.438 54.1318 216.156 53.85C215.874 53.5516 215.733 53.1868 215.733 52.7557V46.3892C215.733 45.8421 215.667 45.353 215.534 44.9219C215.402 44.4743 215.161 44.1178 214.813 43.8525C214.465 43.5873 213.967 43.4546 213.321 43.4546C212.691 43.4546 212.152 43.5873 211.704 43.8525C211.257 44.1178 210.917 44.4743 210.685 44.9219C210.469 45.353 210.361 45.8421 210.361 46.3892V52.7557C210.361 53.1868 210.22 53.5516 209.939 53.85C209.657 54.1318 209.3 54.2728 208.869 54.2728C208.438 54.2728 208.082 54.1318 207.8 53.85C207.518 53.5516 207.377 53.1868 207.377 52.7557V42.4847C207.377 42.0536 207.518 41.6972 207.8 41.4153C208.082 41.1169 208.438 40.9677 208.869 40.9677C209.3 40.9677 209.657 41.1169 209.939 41.4153C210.22 41.6972 210.361 42.0536 210.361 42.4847V43.5541L209.988 43.4795C210.138 43.1976 210.345 42.8992 210.61 42.5842C210.875 42.2526 211.199 41.9459 211.58 41.664C211.961 41.3822 212.384 41.1584 212.848 40.9926C213.313 40.8102 213.818 40.719 214.365 40.719Z"/>
</mask>
<path d="M189.733 40.719C190.164 40.719 190.521 40.8599 190.803 41.1418C191.084 41.4236 191.225 41.7884 191.225 42.236V52.7557C191.225 53.1868 191.084 53.5516 190.803 53.85C190.521 54.1318 190.164 54.2728 189.733 54.2728C189.302 54.2728 188.946 54.1318 188.664 53.85C188.382 53.5516 188.241 53.1868 188.241 52.7557V51.5371L188.788 51.761C188.788 51.9765 188.672 52.2418 188.44 52.5568C188.208 52.8552 187.893 53.1536 187.495 53.4521C187.097 53.7505 186.625 54.0075 186.077 54.223C185.547 54.422 184.967 54.5215 184.337 54.5215C183.193 54.5215 182.156 54.2313 181.228 53.651C180.299 53.0542 179.562 52.2418 179.015 51.2138C178.484 50.1693 178.219 48.9756 178.219 47.6327C178.219 46.2731 178.484 45.0794 179.015 44.0515C179.562 43.007 180.291 42.1946 181.203 41.6143C182.115 41.0174 183.126 40.719 184.237 40.719C184.95 40.719 185.605 40.8268 186.202 41.0423C186.799 41.2578 187.313 41.5314 187.744 41.863C188.191 42.1946 188.531 42.5345 188.763 42.8826C189.012 43.2142 189.136 43.4961 189.136 43.7282L188.241 44.0515V42.236C188.241 41.805 188.382 41.4485 188.664 41.1666C188.946 40.8682 189.302 40.719 189.733 40.719ZM184.71 51.7858C185.439 51.7858 186.077 51.6035 186.625 51.2387C187.172 50.874 187.594 50.3766 187.893 49.7466C188.208 49.1165 188.365 48.4119 188.365 47.6327C188.365 46.8368 188.208 46.1239 187.893 45.4939C187.594 44.8639 187.172 44.3665 186.625 44.0017C186.077 43.637 185.439 43.4546 184.71 43.4546C183.997 43.4546 183.367 43.637 182.82 44.0017C182.272 44.3665 181.841 44.8639 181.526 45.4939C181.228 46.1239 181.079 46.8368 181.079 47.6327C181.079 48.4119 181.228 49.1165 181.526 49.7466C181.841 50.3766 182.272 50.874 182.82 51.2387C183.367 51.6035 183.997 51.7858 184.71 51.7858Z" fill="white"/>
<path d="M200.376 40.719C201.321 40.719 202.141 40.8185 202.838 41.0174C203.551 41.2164 204.098 41.4982 204.479 41.863C204.877 42.2112 205.076 42.6339 205.076 43.1313C205.076 43.4629 204.976 43.7779 204.777 44.0764C204.578 44.3582 204.288 44.4991 203.907 44.4991C203.642 44.4991 203.418 44.466 203.236 44.3997C203.07 44.3168 202.921 44.2173 202.788 44.1012C202.655 43.9852 202.498 43.8774 202.315 43.7779C202.15 43.6784 201.893 43.6038 201.544 43.5541C201.213 43.4878 200.964 43.4546 200.798 43.4546C199.953 43.4546 199.232 43.637 198.635 44.0017C198.054 44.3665 197.607 44.8639 197.292 45.4939C196.977 46.1073 196.819 46.8203 196.819 47.6327C196.819 48.4285 196.977 49.1414 197.292 49.7714C197.623 50.3849 198.071 50.874 198.635 51.2387C199.215 51.6035 199.878 51.7858 200.624 51.7858C201.039 51.7858 201.395 51.761 201.694 51.7112C201.992 51.6615 202.241 51.5869 202.44 51.4874C202.672 51.3548 202.879 51.2138 203.061 51.0646C203.244 50.9154 203.517 50.8408 203.882 50.8408C204.313 50.8408 204.645 50.9817 204.877 51.2636C205.109 51.5289 205.225 51.8604 205.225 52.2584C205.225 52.6728 204.993 53.0542 204.529 53.4023C204.064 53.7339 203.451 54.0075 202.688 54.223C201.942 54.422 201.13 54.5215 200.251 54.5215C198.941 54.5215 197.806 54.223 196.844 53.6262C195.882 53.0127 195.136 52.1837 194.606 51.1392C194.092 50.0947 193.835 48.9259 193.835 47.6327C193.835 46.2731 194.108 45.0794 194.656 44.0515C195.219 43.007 195.99 42.1946 196.968 41.6143C197.963 41.0174 199.099 40.719 200.376 40.719Z" fill="white"/>
<path d="M214.365 40.719C215.692 40.719 216.67 41.0423 217.3 41.6889C217.93 42.3189 218.344 43.1396 218.543 44.151L218.121 43.9271L218.32 43.5292C218.518 43.1479 218.825 42.7417 219.24 42.3106C219.654 41.863 220.152 41.4899 220.732 41.1915C221.329 40.8765 221.992 40.719 222.721 40.719C223.915 40.719 224.819 40.976 225.432 41.4899C226.062 42.0039 226.493 42.692 226.725 43.5541C226.957 44.3997 227.074 45.3447 227.074 46.3892V52.7557C227.074 53.1868 226.933 53.5516 226.651 53.85C226.369 54.1318 226.012 54.2728 225.581 54.2728C225.15 54.2728 224.794 54.1318 224.512 53.85C224.23 53.5516 224.089 53.1868 224.089 52.7557V46.3892C224.089 45.8421 224.023 45.353 223.89 44.9219C223.758 44.4743 223.517 44.1178 223.169 43.8525C222.821 43.5873 222.323 43.4546 221.677 43.4546C221.047 43.4546 220.508 43.5873 220.06 43.8525C219.613 44.1178 219.273 44.4743 219.041 44.9219C218.825 45.353 218.717 45.8421 218.717 46.3892V52.7557C218.717 53.1868 218.577 53.5516 218.295 53.85C218.013 54.1318 217.656 54.2728 217.225 54.2728C216.794 54.2728 216.438 54.1318 216.156 53.85C215.874 53.5516 215.733 53.1868 215.733 52.7557V46.3892C215.733 45.8421 215.667 45.353 215.534 44.9219C215.402 44.4743 215.161 44.1178 214.813 43.8525C214.465 43.5873 213.967 43.4546 213.321 43.4546C212.691 43.4546 212.152 43.5873 211.704 43.8525C211.257 44.1178 210.917 44.4743 210.685 44.9219C210.469 45.353 210.361 45.8421 210.361 46.3892V52.7557C210.361 53.1868 210.22 53.5516 209.939 53.85C209.657 54.1318 209.3 54.2728 208.869 54.2728C208.438 54.2728 208.082 54.1318 207.8 53.85C207.518 53.5516 207.377 53.1868 207.377 52.7557V42.4847C207.377 42.0536 207.518 41.6972 207.8 41.4153C208.082 41.1169 208.438 40.9677 208.869 40.9677C209.3 40.9677 209.657 41.1169 209.939 41.4153C210.22 41.6972 210.361 42.0536 210.361 42.4847V43.5541L209.988 43.4795C210.138 43.1976 210.345 42.8992 210.61 42.5842C210.875 42.2526 211.199 41.9459 211.58 41.664C211.961 41.3822 212.384 41.1584 212.848 40.9926C213.313 40.8102 213.818 40.719 214.365 40.719Z" fill="white"/>
<path d="M189.733 40.719C190.164 40.719 190.521 40.8599 190.803 41.1418C191.084 41.4236 191.225 41.7884 191.225 42.236V52.7557C191.225 53.1868 191.084 53.5516 190.803 53.85C190.521 54.1318 190.164 54.2728 189.733 54.2728C189.302 54.2728 188.946 54.1318 188.664 53.85C188.382 53.5516 188.241 53.1868 188.241 52.7557V51.5371L188.788 51.761C188.788 51.9765 188.672 52.2418 188.44 52.5568C188.208 52.8552 187.893 53.1536 187.495 53.4521C187.097 53.7505 186.625 54.0075 186.077 54.223C185.547 54.422 184.967 54.5215 184.337 54.5215C183.193 54.5215 182.156 54.2313 181.228 53.651C180.299 53.0542 179.562 52.2418 179.015 51.2138C178.484 50.1693 178.219 48.9756 178.219 47.6327C178.219 46.2731 178.484 45.0794 179.015 44.0515C179.562 43.007 180.291 42.1946 181.203 41.6143C182.115 41.0174 183.126 40.719 184.237 40.719C184.95 40.719 185.605 40.8268 186.202 41.0423C186.799 41.2578 187.313 41.5314 187.744 41.863C188.191 42.1946 188.531 42.5345 188.763 42.8826C189.012 43.2142 189.136 43.4961 189.136 43.7282L188.241 44.0515V42.236C188.241 41.805 188.382 41.4485 188.664 41.1666C188.946 40.8682 189.302 40.719 189.733 40.719ZM184.71 51.7858C185.439 51.7858 186.077 51.6035 186.625 51.2387C187.172 50.874 187.594 50.3766 187.893 49.7466C188.208 49.1165 188.365 48.4119 188.365 47.6327C188.365 46.8368 188.208 46.1239 187.893 45.4939C187.594 44.8639 187.172 44.3665 186.625 44.0017C186.077 43.637 185.439 43.4546 184.71 43.4546C183.997 43.4546 183.367 43.637 182.82 44.0017C182.272 44.3665 181.841 44.8639 181.526 45.4939C181.228 46.1239 181.079 46.8368 181.079 47.6327C181.079 48.4119 181.228 49.1165 181.526 49.7466C181.841 50.3766 182.272 50.874 182.82 51.2387C183.367 51.6035 183.997 51.7858 184.71 51.7858Z" stroke="white" stroke-width="0.729176" mask="url(#path-56-outside-5_726_647)"/>
<path d="M200.376 40.719C201.321 40.719 202.141 40.8185 202.838 41.0174C203.551 41.2164 204.098 41.4982 204.479 41.863C204.877 42.2112 205.076 42.6339 205.076 43.1313C205.076 43.4629 204.976 43.7779 204.777 44.0764C204.578 44.3582 204.288 44.4991 203.907 44.4991C203.642 44.4991 203.418 44.466 203.236 44.3997C203.07 44.3168 202.921 44.2173 202.788 44.1012C202.655 43.9852 202.498 43.8774 202.315 43.7779C202.15 43.6784 201.893 43.6038 201.544 43.5541C201.213 43.4878 200.964 43.4546 200.798 43.4546C199.953 43.4546 199.232 43.637 198.635 44.0017C198.054 44.3665 197.607 44.8639 197.292 45.4939C196.977 46.1073 196.819 46.8203 196.819 47.6327C196.819 48.4285 196.977 49.1414 197.292 49.7714C197.623 50.3849 198.071 50.874 198.635 51.2387C199.215 51.6035 199.878 51.7858 200.624 51.7858C201.039 51.7858 201.395 51.761 201.694 51.7112C201.992 51.6615 202.241 51.5869 202.44 51.4874C202.672 51.3548 202.879 51.2138 203.061 51.0646C203.244 50.9154 203.517 50.8408 203.882 50.8408C204.313 50.8408 204.645 50.9817 204.877 51.2636C205.109 51.5289 205.225 51.8604 205.225 52.2584C205.225 52.6728 204.993 53.0542 204.529 53.4023C204.064 53.7339 203.451 54.0075 202.688 54.223C201.942 54.422 201.13 54.5215 200.251 54.5215C198.941 54.5215 197.806 54.223 196.844 53.6262C195.882 53.0127 195.136 52.1837 194.606 51.1392C194.092 50.0947 193.835 48.9259 193.835 47.6327C193.835 46.2731 194.108 45.0794 194.656 44.0515C195.219 43.007 195.99 42.1946 196.968 41.6143C197.963 41.0174 199.099 40.719 200.376 40.719Z" stroke="white" stroke-width="0.729176" mask="url(#path-56-outside-5_726_647)"/>
<path d="M214.365 40.719C215.692 40.719 216.67 41.0423 217.3 41.6889C217.93 42.3189 218.344 43.1396 218.543 44.151L218.121 43.9271L218.32 43.5292C218.518 43.1479 218.825 42.7417 219.24 42.3106C219.654 41.863 220.152 41.4899 220.732 41.1915C221.329 40.8765 221.992 40.719 222.721 40.719C223.915 40.719 224.819 40.976 225.432 41.4899C226.062 42.0039 226.493 42.692 226.725 43.5541C226.957 44.3997 227.074 45.3447 227.074 46.3892V52.7557C227.074 53.1868 226.933 53.5516 226.651 53.85C226.369 54.1318 226.012 54.2728 225.581 54.2728C225.15 54.2728 224.794 54.1318 224.512 53.85C224.23 53.5516 224.089 53.1868 224.089 52.7557V46.3892C224.089 45.8421 224.023 45.353 223.89 44.9219C223.758 44.4743 223.517 44.1178 223.169 43.8525C222.821 43.5873 222.323 43.4546 221.677 43.4546C221.047 43.4546 220.508 43.5873 220.06 43.8525C219.613 44.1178 219.273 44.4743 219.041 44.9219C218.825 45.353 218.717 45.8421 218.717 46.3892V52.7557C218.717 53.1868 218.577 53.5516 218.295 53.85C218.013 54.1318 217.656 54.2728 217.225 54.2728C216.794 54.2728 216.438 54.1318 216.156 53.85C215.874 53.5516 215.733 53.1868 215.733 52.7557V46.3892C215.733 45.8421 215.667 45.353 215.534 44.9219C215.402 44.4743 215.161 44.1178 214.813 43.8525C214.465 43.5873 213.967 43.4546 213.321 43.4546C212.691 43.4546 212.152 43.5873 211.704 43.8525C211.257 44.1178 210.917 44.4743 210.685 44.9219C210.469 45.353 210.361 45.8421 210.361 46.3892V52.7557C210.361 53.1868 210.22 53.5516 209.939 53.85C209.657 54.1318 209.3 54.2728 208.869 54.2728C208.438 54.2728 208.082 54.1318 207.8 53.85C207.518 53.5516 207.377 53.1868 207.377 52.7557V42.4847C207.377 42.0536 207.518 41.6972 207.8 41.4153C208.082 41.1169 208.438 40.9677 208.869 40.9677C209.3 40.9677 209.657 41.1169 209.939 41.4153C210.22 41.6972 210.361 42.0536 210.361 42.4847V43.5541L209.988 43.4795C210.138 43.1976 210.345 42.8992 210.61 42.5842C210.875 42.2526 211.199 41.9459 211.58 41.664C211.961 41.3822 212.384 41.1584 212.848 40.9926C213.313 40.8102 213.818 40.719 214.365 40.719Z" stroke="white" stroke-width="0.729176" mask="url(#path-56-outside-5_726_647)"/>
</g>
<defs>
<clipPath id="clip0_726_647">
<rect width="425" height="425" fill="white"/>
</clipPath>
</defs>
</svg>
