<svg width="718" height="678" viewBox="0 0 718 678" fill="none" xmlns="http://www.w3.org/2000/svg">
<rect x="446" y="126.528" width="60.8112" height="60.8112" rx="10.1352" transform="rotate(-45 446 126.528)" fill="#35E792"/>
<rect x="459.327" y="97.4548" width="60.8112" height="60.8112" rx="10.1352" transform="rotate(1.76459 459.327 97.4548)" fill="#35E792"/>
<rect x="521" y="185.293" width="45.6694" height="45.6694" rx="7.61156" transform="rotate(-45 521 185.293)" fill="#FF406E"/>
<rect x="529.83" y="161.84" width="45.6694" height="45.6694" rx="7.61156" fill="#FF406E"/>
<rect x="146" y="567" width="69.2965" height="69.2965" rx="11.5494" transform="rotate(-45 146 567)" fill="#FFCB1F"/>
<rect x="161.2" y="534.09" width="69.2965" height="69.2965" rx="11.5494" transform="rotate(-0.736077 161.2 534.09)" fill="#FFCB1F"/>
<rect x="79.5234" y="438.066" width="410.307" height="410.307" rx="68.3843" transform="rotate(-60.9081 79.5234 438.066)" fill="#05A3FF"/>
<path d="M155.317 245.901C155.735 244.198 157.263 243 159.017 243C160.271 243 161.332 243.926 161.502 245.169L164.068 263.985C165.629 275.433 169.405 286.468 175.184 296.473L179.912 304.66L152.216 324.256L146.591 302.344C144.87 295.638 144.833 288.611 146.483 281.887L155.317 245.901Z" fill="#8C6748" stroke="#260F12" stroke-width="8"/>
<path d="M249.732 424.578L249.676 424.582L249.62 424.588L227.866 426.94C217.593 428.05 207.228 428.02 196.962 426.85L180.432 424.965C176.307 424.495 172.692 427.721 172.692 431.873C172.692 437.308 169.319 442.173 164.229 444.078L139.82 453.215C134.961 455.034 129.816 455.965 124.628 455.965H121.542C116.895 455.965 112.37 454.477 108.63 451.718L107.399 450.81C102.555 447.237 102.516 440.007 107.322 436.382L122.686 424.794C136.248 414.564 143.393 397.928 141.473 381.05L138.97 359.033C137.892 349.558 139.766 339.981 144.335 331.611C148.44 324.089 154.137 317.554 161.029 312.462L165.757 308.968C171.607 304.645 178.689 302.312 185.963 302.312H199.032C207.431 302.312 215.771 303.723 223.703 306.486L274.611 324.219C277.457 325.21 279.618 327.561 280.367 330.48L300.761 409.943C302.15 415.353 298.326 420.709 292.758 421.152L249.732 424.578Z" fill="#B89061" stroke="#260F12" stroke-width="8"/>
<path d="M135.193 407.631L171.245 435.543L149.73 448.336L113.678 454.15L105.537 440.776L135.193 407.631Z" fill="#8C6748"/>
<path d="M249.732 424.578L249.676 424.582L249.62 424.588L227.866 426.94C217.593 428.05 207.228 428.02 196.962 426.85L180.432 424.965C176.307 424.495 172.692 427.721 172.692 431.873C172.692 437.308 169.319 442.173 164.229 444.078L139.82 453.215C134.961 455.034 129.816 455.965 124.628 455.965H121.542C116.895 455.965 112.37 454.477 108.63 451.718L107.399 450.81C102.555 447.237 102.516 440.007 107.322 436.382L122.686 424.794C136.248 414.564 143.393 397.928 141.473 381.05L138.97 359.033C137.892 349.558 139.766 339.981 144.335 331.611C148.44 324.089 154.137 317.554 161.029 312.462L165.757 308.968C171.607 304.645 178.689 302.312 185.963 302.312H199.032C207.431 302.312 215.771 303.723 223.703 306.486L274.611 324.219C277.457 325.21 279.618 327.561 280.367 330.48L300.761 409.943C302.15 415.353 298.326 420.709 292.758 421.152L249.732 424.578Z" stroke="#260F12" stroke-width="8"/>
<mask id="path-12-inside-1_151_131" fill="white">
<path fill-rule="evenodd" clip-rule="evenodd" d="M239.133 254.088C244.245 250.186 251.132 249.532 256.888 252.402L302.279 275.037C306.04 273.652 309.947 272.592 313.963 271.884C321.756 270.512 329.729 270.512 337.522 271.884L339.757 272.278C343.674 272.968 347.511 273.942 351.242 275.183L395.084 254.973C400.889 252.297 407.546 251.967 413.599 254.026C418.1 255.557 421.988 258.572 424.571 262.564L427.794 267.544C430.054 271.037 431.025 275.209 430.54 279.341C429.935 284.488 427.495 289.245 423.667 292.738L421.516 294.7C413.758 301.78 404.096 306.369 393.778 307.935C397.54 313.264 400.703 318.994 403.21 325.023L407.49 335.315C410.817 343.316 415.499 350.684 421.33 357.094L428.797 365.304C430.974 367.697 432.624 370.521 433.64 373.592C438.327 387.749 436.716 403.238 429.216 416.128L426.891 420.125C424.692 423.904 421.84 427.263 418.468 430.046L412.412 435.045C403.538 442.369 392.76 447.013 381.342 448.431L369.945 449.847C361.151 450.939 352.25 450.858 343.478 449.605L337.347 448.729C325.905 447.094 314.819 443.547 304.552 438.237L303.433 437.657C288.453 429.909 275.72 418.436 266.456 404.343L264.074 400.72C257.73 391.069 253.585 380.142 251.932 368.711C250.838 361.149 250.85 353.469 251.967 345.91L252.364 343.227C253.74 333.912 256.619 324.882 260.888 316.488L262.754 312.82C252.664 312.505 243.075 308.263 236.048 300.97L233.777 298.612C229.375 294.043 226.432 288.266 225.324 282.018L225.015 280.277C224.428 276.964 224.793 273.552 226.068 270.438C228.554 264.365 232.615 259.064 237.832 255.081L239.133 254.088Z"/>
</mask>
<path fill-rule="evenodd" clip-rule="evenodd" d="M239.133 254.088C244.245 250.186 251.132 249.532 256.888 252.402L302.279 275.037C306.04 273.652 309.947 272.592 313.963 271.884C321.756 270.512 329.729 270.512 337.522 271.884L339.757 272.278C343.674 272.968 347.511 273.942 351.242 275.183L395.084 254.973C400.889 252.297 407.546 251.967 413.599 254.026C418.1 255.557 421.988 258.572 424.571 262.564L427.794 267.544C430.054 271.037 431.025 275.209 430.54 279.341C429.935 284.488 427.495 289.245 423.667 292.738L421.516 294.7C413.758 301.78 404.096 306.369 393.778 307.935C397.54 313.264 400.703 318.994 403.21 325.023L407.49 335.315C410.817 343.316 415.499 350.684 421.33 357.094L428.797 365.304C430.974 367.697 432.624 370.521 433.64 373.592C438.327 387.749 436.716 403.238 429.216 416.128L426.891 420.125C424.692 423.904 421.84 427.263 418.468 430.046L412.412 435.045C403.538 442.369 392.76 447.013 381.342 448.431L369.945 449.847C361.151 450.939 352.25 450.858 343.478 449.605L337.347 448.729C325.905 447.094 314.819 443.547 304.552 438.237L303.433 437.657C288.453 429.909 275.72 418.436 266.456 404.343L264.074 400.72C257.73 391.069 253.585 380.142 251.932 368.711C250.838 361.149 250.85 353.469 251.967 345.91L252.364 343.227C253.74 333.912 256.619 324.882 260.888 316.488L262.754 312.82C252.664 312.505 243.075 308.263 236.048 300.97L233.777 298.612C229.375 294.043 226.432 288.266 225.324 282.018L225.015 280.277C224.428 276.964 224.793 273.552 226.068 270.438C228.554 264.365 232.615 259.064 237.832 255.081L239.133 254.088Z" fill="#B89061"/>
<path d="M256.888 252.402L260.458 245.242H260.458L256.888 252.402ZM239.133 254.088L243.987 260.447L239.133 254.088ZM302.279 275.037L298.709 282.196L301.801 283.738L305.043 282.544L302.279 275.037ZM313.963 271.884L312.575 264.006L312.575 264.006L313.963 271.884ZM337.522 271.884L336.134 279.763L336.134 279.763L337.522 271.884ZM339.757 272.278L341.145 264.399V264.399L339.757 272.278ZM351.242 275.183L348.717 282.774L351.719 283.772L354.591 282.448L351.242 275.183ZM395.084 254.973L398.433 262.238V262.238L395.084 254.973ZM413.599 254.026L416.175 246.452L416.174 246.452L413.599 254.026ZM424.571 262.564L431.287 258.218L431.287 258.218L424.571 262.564ZM427.794 267.544L434.51 263.198V263.198L427.794 267.544ZM430.54 279.341L438.485 280.275V280.275L430.54 279.341ZM423.667 292.738L418.274 286.829L418.274 286.829L423.667 292.738ZM421.516 294.7L426.909 300.61L426.909 300.61L421.516 294.7ZM393.778 307.935L392.578 300.026L379.775 301.969L387.242 312.548L393.778 307.935ZM403.21 325.023L395.823 328.094V328.094L403.21 325.023ZM407.49 335.315L414.877 332.243V332.243L407.49 335.315ZM421.33 357.094L415.411 362.477V362.477L421.33 357.094ZM428.797 365.304L422.879 370.687L422.879 370.687L428.797 365.304ZM433.64 373.592L426.046 376.106L426.046 376.106L433.64 373.592ZM429.216 416.128L436.131 420.151L436.131 420.151L429.216 416.128ZM426.891 420.125L419.976 416.102L419.976 416.102L426.891 420.125ZM418.468 430.046L423.561 436.216L423.561 436.216L418.468 430.046ZM412.412 435.045L407.32 428.875H407.32L412.412 435.045ZM381.342 448.431L380.355 440.492L381.342 448.431ZM369.945 449.847L370.931 457.786L369.945 449.847ZM343.478 449.605L344.609 441.685H344.609L343.478 449.605ZM337.347 448.729L338.479 440.809L337.347 448.729ZM304.552 438.237L308.228 431.131L308.228 431.131L304.552 438.237ZM303.433 437.657L299.757 444.763H299.757L303.433 437.657ZM266.456 404.343L259.771 408.738L259.771 408.738L266.456 404.343ZM264.074 400.72L270.759 396.326L270.759 396.326L264.074 400.72ZM251.932 368.711L259.85 367.566L251.932 368.711ZM251.967 345.91L259.881 347.08L251.967 345.91ZM252.364 343.227L244.449 342.058L252.364 343.227ZM260.888 316.488L268.019 320.115L260.888 316.488ZM262.754 312.82L269.885 316.447L275.596 305.218L263.004 304.824L262.754 312.82ZM236.048 300.97L241.809 295.419L236.048 300.97ZM233.777 298.612L228.016 304.163H228.016L233.777 298.612ZM225.324 282.018L217.447 283.415L225.324 282.018ZM225.015 280.277L232.892 278.88L225.015 280.277ZM226.068 270.438L218.664 267.407L226.068 270.438ZM237.832 255.081L232.978 248.722L237.832 255.081ZM260.458 245.242C251.971 241.011 241.817 241.975 234.279 247.729L243.987 260.447C246.674 258.396 250.293 258.053 253.318 259.561L260.458 245.242ZM305.849 267.877L260.458 245.242L253.318 259.561L298.709 282.196L305.849 267.877ZM312.575 264.006C308.087 264.796 303.72 265.981 299.515 267.529L305.043 282.544C308.361 281.322 311.807 280.387 315.351 279.763L312.575 264.006ZM338.91 264.006C330.198 262.471 321.286 262.471 312.575 264.006L315.351 279.763C322.225 278.552 329.259 278.552 336.134 279.763L338.91 264.006ZM341.145 264.399L338.91 264.006L336.134 279.763L338.37 280.157L341.145 264.399ZM353.767 267.592C349.666 266.228 345.449 265.158 341.145 264.399L338.37 280.157C341.898 280.778 345.356 281.656 348.717 282.774L353.767 267.592ZM391.735 247.708L347.893 267.918L354.591 282.448L398.433 262.238L391.735 247.708ZM416.174 246.452C408.196 243.738 399.417 244.166 391.735 247.708L398.433 262.238C402.361 260.427 406.897 260.196 411.023 261.6L416.174 246.452ZM431.287 258.218C427.719 252.703 422.367 248.558 416.175 246.452L411.023 261.6C413.834 262.556 416.257 264.441 417.855 266.911L431.287 258.218ZM434.51 263.198L431.287 258.218L417.855 266.911L421.078 271.891L434.51 263.198ZM438.485 280.275C439.188 274.293 437.782 268.254 434.51 263.198L421.078 271.891C422.326 273.82 422.863 276.125 422.595 278.407L438.485 280.275ZM429.059 298.648C434.309 293.857 437.656 287.334 438.485 280.275L422.595 278.407C422.214 281.643 420.68 284.633 418.274 286.829L429.059 298.648ZM426.909 300.61L429.059 298.648L418.274 286.829L416.124 288.791L426.909 300.61ZM394.979 315.844C406.856 314.042 417.978 308.76 426.909 300.61L416.124 288.791C409.538 294.801 401.336 298.696 392.578 300.026L394.979 315.844ZM410.597 321.951C407.864 315.379 404.415 309.131 400.314 303.322L387.242 312.548C390.664 317.396 393.543 322.61 395.823 328.094L410.597 321.951ZM414.877 332.243L410.597 321.951L395.823 328.094L400.103 338.386L414.877 332.243ZM427.248 351.711C422.036 345.981 417.851 339.395 414.877 332.243L400.103 338.386C403.783 347.237 408.962 355.386 415.411 362.477L427.248 351.711ZM434.715 359.921L427.248 351.711L415.411 362.477L422.879 370.687L434.715 359.921ZM441.235 371.077C439.866 366.943 437.645 363.143 434.715 359.921L422.879 370.687C424.302 372.252 425.381 374.098 426.046 376.106L441.235 371.077ZM436.131 420.151C444.784 405.28 446.642 387.411 441.235 371.077L426.046 376.106C430.012 388.088 428.649 401.196 422.301 412.105L436.131 420.151ZM433.805 424.148L436.131 420.151L422.301 412.105L419.976 416.102L433.805 424.148ZM423.561 436.216C427.662 432.831 431.131 428.745 433.805 424.148L419.976 416.102C418.253 419.063 416.018 421.696 413.376 423.877L423.561 436.216ZM417.505 441.215L423.561 436.216L413.376 423.877L407.32 428.875L417.505 441.215ZM382.328 456.37C395.256 454.764 407.458 449.507 417.505 441.215L407.32 428.875C399.618 435.232 390.265 439.261 380.355 440.492L382.328 456.37ZM370.931 457.786L382.328 456.37L380.355 440.492L368.959 441.908L370.931 457.786ZM342.346 457.524C351.821 458.878 361.433 458.966 370.931 457.786L368.959 441.908C360.868 442.913 352.68 442.838 344.609 441.685L342.346 457.524ZM336.216 456.649L342.346 457.524L344.609 441.685L338.479 440.809L336.216 456.649ZM300.876 445.342C311.939 451.065 323.886 454.887 336.216 456.649L338.479 440.809C327.924 439.301 317.698 436.03 308.228 431.131L300.876 445.342ZM299.757 444.763L300.877 445.342L308.228 431.131L307.108 430.552L299.757 444.763ZM259.771 408.738C269.789 423.977 283.559 436.384 299.757 444.763L307.108 430.552C293.348 423.434 281.651 412.895 273.141 399.949L259.771 408.738ZM257.389 405.114L259.771 408.738L273.141 399.949L270.759 396.326L257.389 405.114ZM244.014 369.856C245.835 382.447 250.401 394.483 257.389 405.114L270.759 396.326C265.059 387.654 261.335 377.836 259.85 367.566L244.014 369.856ZM244.053 344.741C242.823 353.066 242.81 361.527 244.014 369.856L259.85 367.566C258.867 360.772 258.878 353.871 259.881 347.08L244.053 344.741ZM244.449 342.058L244.053 344.741L259.881 347.08L260.278 344.397L244.449 342.058ZM253.758 312.861C249.096 322.026 245.953 331.886 244.449 342.058L260.278 344.397C261.528 335.938 264.142 327.737 268.019 320.115L253.758 312.861ZM255.623 309.194L253.758 312.861L268.019 320.115L269.885 316.447L255.623 309.194ZM230.287 306.52C238.764 315.318 250.331 320.436 262.504 320.817L263.004 304.824C254.996 304.574 247.386 301.207 241.809 295.419L230.287 306.52ZM228.016 304.163L230.287 306.52L241.809 295.419L239.538 293.062L228.016 304.163ZM217.447 283.415C218.832 291.227 222.511 298.45 228.016 304.163L239.538 293.062C236.238 289.636 234.032 285.305 233.201 280.621L217.447 283.415ZM217.138 281.673L217.447 283.415L233.201 280.621L232.892 278.88L217.138 281.673ZM218.664 267.407C216.815 271.922 216.286 276.869 217.138 281.673L232.892 278.88C232.569 277.058 232.77 275.182 233.471 273.469L218.664 267.407ZM232.978 248.722C226.631 253.568 221.69 260.017 218.664 267.407L233.471 273.469C235.419 268.712 238.6 264.56 242.686 261.44L232.978 248.722ZM234.279 247.729L232.978 248.722L242.686 261.44L243.987 260.447L234.279 247.729Z" fill="#260F12" mask="url(#path-12-inside-1_151_131)"/>
<rect x="356.159" y="382.046" width="37.2152" height="61.6377" fill="#8C6748"/>
<path d="M374.767 391.35L374.767 422.75" stroke="#260F12" stroke-width="5" stroke-linecap="round"/>
<path d="M359.381 381.871L366.658 381.057H380.761L389.241 381.949C390.284 382.059 390.771 383.308 390.067 384.096C386.049 388.598 380.298 391.176 374.264 391.176C368.343 391.176 362.692 388.697 358.681 384.34L356.842 386.033L358.681 384.34L358.523 384.168C357.76 383.339 358.262 381.997 359.381 381.871Z" fill="#5D3A2C" stroke="#260F12" stroke-width="5"/>
<path d="M247.375 254.95L303.779 284.025L300.905 285.767C290.132 292.296 280.734 300.861 273.235 310.984L272.961 311.355L241.56 301.469L228.768 276.465L247.375 254.95Z" fill="#5D3A2C"/>
<path d="M344.483 281.699L409.029 256.113L427.636 278.21L404.958 302.051L386.351 312.518L382.006 307.368C374.525 298.502 365.206 291.369 354.693 286.463L344.483 281.699Z" fill="#5D3A2C"/>
<mask id="path-19-inside-2_151_131" fill="white">
<path fill-rule="evenodd" clip-rule="evenodd" d="M239.133 254.088C244.245 250.186 251.132 249.532 256.888 252.402L302.279 275.037C306.04 273.652 309.947 272.592 313.963 271.884C321.756 270.512 329.729 270.512 337.522 271.884L339.757 272.278C343.674 272.968 347.511 273.942 351.242 275.183L395.084 254.973C400.889 252.297 407.546 251.967 413.599 254.026C418.1 255.557 421.988 258.572 424.571 262.564L427.794 267.544C430.054 271.037 431.025 275.209 430.54 279.341C429.935 284.488 427.495 289.245 423.667 292.738L421.516 294.7C413.758 301.78 404.096 306.369 393.778 307.935C397.54 313.264 400.703 318.994 403.21 325.023L407.49 335.315C410.817 343.316 415.499 350.684 421.33 357.094L428.797 365.304C430.974 367.697 432.624 370.521 433.64 373.592C438.327 387.749 436.716 403.238 429.216 416.128L426.891 420.125C424.692 423.904 421.84 427.263 418.468 430.046L412.412 435.045C403.538 442.369 392.76 447.013 381.342 448.431L369.945 449.847C361.151 450.939 352.25 450.858 343.478 449.605L337.347 448.729C325.905 447.094 314.819 443.547 304.552 438.237L303.433 437.657C288.453 429.909 275.72 418.436 266.456 404.343L264.074 400.72C257.73 391.069 253.585 380.142 251.932 368.711C250.838 361.149 250.85 353.469 251.967 345.91L252.364 343.227C253.74 333.912 256.619 324.882 260.888 316.488L262.754 312.82C252.664 312.505 243.075 308.263 236.048 300.97L233.777 298.612C229.375 294.043 226.432 288.266 225.324 282.018L225.015 280.277C224.428 276.964 224.793 273.552 226.068 270.438C228.554 264.365 232.615 259.064 237.832 255.081L239.133 254.088Z"/>
</mask>
<path d="M256.888 252.402L260.458 245.242H260.458L256.888 252.402ZM239.133 254.088L243.987 260.447L239.133 254.088ZM302.279 275.037L298.709 282.196L301.801 283.738L305.043 282.544L302.279 275.037ZM313.963 271.884L312.575 264.006L312.575 264.006L313.963 271.884ZM337.522 271.884L336.134 279.763L336.134 279.763L337.522 271.884ZM339.757 272.278L341.145 264.399V264.399L339.757 272.278ZM351.242 275.183L348.717 282.774L351.719 283.772L354.591 282.448L351.242 275.183ZM395.084 254.973L398.433 262.238V262.238L395.084 254.973ZM413.599 254.026L416.175 246.452L416.174 246.452L413.599 254.026ZM424.571 262.564L431.287 258.218L431.287 258.218L424.571 262.564ZM427.794 267.544L434.51 263.198V263.198L427.794 267.544ZM430.54 279.341L438.485 280.275V280.275L430.54 279.341ZM423.667 292.738L418.274 286.829L418.274 286.829L423.667 292.738ZM421.516 294.7L426.909 300.61L426.909 300.61L421.516 294.7ZM393.778 307.935L392.578 300.026L379.775 301.969L387.242 312.548L393.778 307.935ZM403.21 325.023L395.823 328.094V328.094L403.21 325.023ZM407.49 335.315L414.877 332.243V332.243L407.49 335.315ZM421.33 357.094L415.411 362.477V362.477L421.33 357.094ZM428.797 365.304L422.879 370.687L422.879 370.687L428.797 365.304ZM433.64 373.592L426.046 376.106L426.046 376.106L433.64 373.592ZM429.216 416.128L436.131 420.151L436.131 420.151L429.216 416.128ZM426.891 420.125L419.976 416.102L419.976 416.102L426.891 420.125ZM418.468 430.046L423.561 436.216L423.561 436.216L418.468 430.046ZM412.412 435.045L407.32 428.875H407.32L412.412 435.045ZM381.342 448.431L380.355 440.492L381.342 448.431ZM369.945 449.847L370.931 457.786L369.945 449.847ZM343.478 449.605L344.609 441.685H344.609L343.478 449.605ZM337.347 448.729L338.479 440.809L337.347 448.729ZM304.552 438.237L308.228 431.131L308.228 431.131L304.552 438.237ZM303.433 437.657L299.757 444.763H299.757L303.433 437.657ZM266.456 404.343L259.771 408.738L259.771 408.738L266.456 404.343ZM264.074 400.72L270.759 396.326L270.759 396.326L264.074 400.72ZM251.932 368.711L259.85 367.566L251.932 368.711ZM251.967 345.91L259.881 347.08L251.967 345.91ZM252.364 343.227L244.449 342.058L252.364 343.227ZM260.888 316.488L268.019 320.115L260.888 316.488ZM262.754 312.82L269.885 316.447L275.596 305.218L263.004 304.824L262.754 312.82ZM236.048 300.97L241.809 295.419L236.048 300.97ZM233.777 298.612L228.016 304.163H228.016L233.777 298.612ZM225.324 282.018L217.447 283.415L225.324 282.018ZM225.015 280.277L232.892 278.88L225.015 280.277ZM226.068 270.438L218.664 267.407L226.068 270.438ZM237.832 255.081L232.978 248.722L237.832 255.081ZM260.458 245.242C251.971 241.011 241.817 241.975 234.279 247.729L243.987 260.447C246.674 258.396 250.293 258.053 253.318 259.561L260.458 245.242ZM305.849 267.877L260.458 245.242L253.318 259.561L298.709 282.196L305.849 267.877ZM312.575 264.006C308.087 264.796 303.72 265.981 299.515 267.529L305.043 282.544C308.361 281.322 311.807 280.387 315.351 279.763L312.575 264.006ZM338.91 264.006C330.198 262.471 321.286 262.471 312.575 264.006L315.351 279.763C322.225 278.552 329.259 278.552 336.134 279.763L338.91 264.006ZM341.145 264.399L338.91 264.006L336.134 279.763L338.37 280.157L341.145 264.399ZM353.767 267.592C349.666 266.228 345.449 265.158 341.145 264.399L338.37 280.157C341.898 280.778 345.356 281.656 348.717 282.774L353.767 267.592ZM391.735 247.708L347.893 267.918L354.591 282.448L398.433 262.238L391.735 247.708ZM416.174 246.452C408.196 243.738 399.417 244.166 391.735 247.708L398.433 262.238C402.361 260.427 406.897 260.196 411.023 261.6L416.174 246.452ZM431.287 258.218C427.719 252.703 422.367 248.558 416.175 246.452L411.023 261.6C413.834 262.556 416.257 264.441 417.855 266.911L431.287 258.218ZM434.51 263.198L431.287 258.218L417.855 266.911L421.078 271.891L434.51 263.198ZM438.485 280.275C439.188 274.293 437.782 268.254 434.51 263.198L421.078 271.891C422.326 273.82 422.863 276.125 422.595 278.407L438.485 280.275ZM429.059 298.648C434.309 293.857 437.656 287.334 438.485 280.275L422.595 278.407C422.214 281.643 420.68 284.633 418.274 286.829L429.059 298.648ZM426.909 300.61L429.059 298.648L418.274 286.829L416.124 288.791L426.909 300.61ZM394.979 315.844C406.856 314.042 417.978 308.76 426.909 300.61L416.124 288.791C409.538 294.801 401.336 298.696 392.578 300.026L394.979 315.844ZM410.597 321.951C407.864 315.379 404.415 309.131 400.314 303.322L387.242 312.548C390.664 317.396 393.543 322.61 395.823 328.094L410.597 321.951ZM414.877 332.243L410.597 321.951L395.823 328.094L400.103 338.386L414.877 332.243ZM427.248 351.711C422.036 345.981 417.851 339.395 414.877 332.243L400.103 338.386C403.783 347.237 408.962 355.386 415.411 362.477L427.248 351.711ZM434.715 359.921L427.248 351.711L415.411 362.477L422.879 370.687L434.715 359.921ZM441.235 371.077C439.866 366.943 437.645 363.143 434.715 359.921L422.879 370.687C424.302 372.252 425.381 374.098 426.046 376.106L441.235 371.077ZM436.131 420.151C444.784 405.28 446.642 387.411 441.235 371.077L426.046 376.106C430.012 388.088 428.649 401.196 422.301 412.105L436.131 420.151ZM433.805 424.148L436.131 420.151L422.301 412.105L419.976 416.102L433.805 424.148ZM423.561 436.216C427.662 432.831 431.131 428.745 433.805 424.148L419.976 416.102C418.253 419.063 416.018 421.696 413.376 423.877L423.561 436.216ZM417.505 441.215L423.561 436.216L413.376 423.877L407.32 428.875L417.505 441.215ZM382.328 456.37C395.256 454.764 407.458 449.507 417.505 441.215L407.32 428.875C399.618 435.232 390.265 439.261 380.355 440.492L382.328 456.37ZM370.931 457.786L382.328 456.37L380.355 440.492L368.959 441.908L370.931 457.786ZM342.346 457.524C351.821 458.878 361.433 458.966 370.931 457.786L368.959 441.908C360.868 442.913 352.68 442.838 344.609 441.685L342.346 457.524ZM336.216 456.649L342.346 457.524L344.609 441.685L338.479 440.809L336.216 456.649ZM300.876 445.342C311.939 451.065 323.886 454.887 336.216 456.649L338.479 440.809C327.924 439.301 317.698 436.03 308.228 431.131L300.876 445.342ZM299.757 444.763L300.877 445.342L308.228 431.131L307.108 430.552L299.757 444.763ZM259.771 408.738C269.789 423.977 283.559 436.384 299.757 444.763L307.108 430.552C293.348 423.434 281.651 412.895 273.141 399.949L259.771 408.738ZM257.389 405.114L259.771 408.738L273.141 399.949L270.759 396.326L257.389 405.114ZM244.014 369.856C245.835 382.447 250.401 394.483 257.389 405.114L270.759 396.326C265.059 387.654 261.335 377.836 259.85 367.566L244.014 369.856ZM244.053 344.741C242.823 353.066 242.81 361.527 244.014 369.856L259.85 367.566C258.867 360.772 258.878 353.871 259.881 347.08L244.053 344.741ZM244.449 342.058L244.053 344.741L259.881 347.08L260.278 344.397L244.449 342.058ZM253.758 312.861C249.096 322.026 245.953 331.886 244.449 342.058L260.278 344.397C261.528 335.938 264.142 327.737 268.019 320.115L253.758 312.861ZM255.623 309.194L253.758 312.861L268.019 320.115L269.885 316.447L255.623 309.194ZM230.287 306.52C238.764 315.318 250.331 320.436 262.504 320.817L263.004 304.824C254.996 304.574 247.386 301.207 241.809 295.419L230.287 306.52ZM228.016 304.163L230.287 306.52L241.809 295.419L239.538 293.062L228.016 304.163ZM217.447 283.415C218.832 291.227 222.511 298.45 228.016 304.163L239.538 293.062C236.238 289.636 234.032 285.305 233.201 280.621L217.447 283.415ZM217.138 281.673L217.447 283.415L233.201 280.621L232.892 278.88L217.138 281.673ZM218.664 267.407C216.815 271.922 216.286 276.869 217.138 281.673L232.892 278.88C232.569 277.058 232.77 275.182 233.471 273.469L218.664 267.407ZM232.978 248.722C226.631 253.568 221.69 260.017 218.664 267.407L233.471 273.469C235.419 268.712 238.6 264.56 242.686 261.44L232.978 248.722ZM234.279 247.729L232.978 248.722L242.686 261.44L243.987 260.447L234.279 247.729Z" fill="#260F12" mask="url(#path-19-inside-2_151_131)"/>
<path d="M282.354 410.625C285.373 410.916 288.411 410.97 291.439 410.787L323.102 408.88C329.48 408.496 335.623 411.34 339.457 416.451L341.388 419.027L344.588 416.627L341.388 419.027C345.874 425.007 345.356 433.359 340.167 438.74C337.937 441.053 335.032 442.601 331.869 443.164L327.623 443.919C317.662 445.689 307.464 445.656 297.515 443.821L259.592 436.826C256.502 436.256 253.711 434.617 251.708 432.196C247.357 426.939 247.658 419.25 252.406 414.349L253.297 413.429C256.432 410.193 260.87 408.56 265.355 408.991L282.354 410.625Z" fill="#8C6748" stroke="#260F12" stroke-width="8"/>
<path d="M434.692 408.076C432.724 408.445 430.713 408.525 428.722 408.316L423.318 407.749C416.041 406.984 409.15 411.171 406.474 417.98L406.258 418.53C404.666 422.581 404.915 427.125 406.94 430.979L408.65 434.231C409.374 435.609 410.608 436.649 412.089 437.129C416.911 438.691 422.113 438.623 426.893 436.936L439.489 432.492C443.168 431.193 446.142 428.422 447.696 424.843L448.195 423.693C449.577 420.51 449.438 416.872 447.818 413.803C445.479 409.374 440.529 406.983 435.606 407.905L434.692 408.076Z" fill="#8C6748" stroke="#260F12" stroke-width="8"/>
<circle cx="325.295" cy="353.222" r="32.6337" fill="#D9D9D9" stroke="#260F12" stroke-width="8"/>
<path d="M438.174 353.222C438.174 372.076 425.939 385.855 412.518 385.855C399.097 385.855 386.862 372.076 386.862 353.222C386.862 334.368 399.097 320.588 412.518 320.588C425.939 320.588 438.174 334.368 438.174 353.222Z" fill="#D9D9D9" stroke="#260F12" stroke-width="8"/>
<line x1="359.603" y1="359.107" x2="386.351" y2="359.107" stroke="#260F12" stroke-width="8"/>
<path d="M304.942 350.314L343.321 350.314" stroke="#260F12" stroke-width="5" stroke-linecap="round"/>
<path d="M394.492 365.433H418.915" stroke="#260F12" stroke-width="5" stroke-linecap="round"/>
<path d="M391.003 349.151H425.892" stroke="#260F12" stroke-width="5" stroke-linecap="round"/>
<path d="M306.15 365.764L343.366 365.764" stroke="#260F12" stroke-width="5" stroke-linecap="round"/>
<path d="M332.885 358.023C333.002 365.787 331.011 368.189 328.475 368.227C325.939 368.265 323.818 365.926 323.701 358.162C323.584 350.398 325.615 348.096 328.151 348.057C330.687 348.019 332.768 350.26 332.885 358.023Z" fill="#281214"/>
<path d="M403.88 357.05C403.985 364.06 402.489 366.224 400.577 366.253C398.664 366.282 397.06 364.165 396.954 357.154C396.848 350.144 398.375 348.069 400.287 348.04C402.2 348.012 403.774 350.039 403.88 357.05Z" fill="#281214"/>
<circle cx="330.528" cy="354.966" r="3.48893" fill="#D9D9D9"/>
<circle cx="402.051" cy="354.385" r="2.90744" fill="#D9D9D9"/>
<path d="M599.57 383.899L573.588 326.922L585.208 310.334L612.778 378.744L599.57 383.899Z" fill="#7B0000" stroke="#260F12" stroke-width="8"/>
<path d="M606.485 381.024L556.011 354.435L565.966 315.764L607.798 379.591L606.485 381.024Z" fill="#D9D9D9" stroke="#260F12" stroke-width="8"/>
<path d="M595.259 392.172L526.553 353.219L526.875 331.122L605.665 379.961L595.259 392.172Z" fill="#D9D9D9" stroke="#260F12" stroke-width="8"/>
<path d="M585.954 395.737L513.638 363.985L511.708 341.97L595.062 382.53L585.954 395.737Z" fill="#D9D9D9" stroke="#260F12" stroke-width="8"/>
<path d="M550.083 506.151L447.366 476.846L498.208 350.236L594.861 390.063L550.083 506.151Z" fill="#7B0000" stroke="#260F12" stroke-width="8"/>
<path d="M550.363 505.79L595.643 390.6L611.459 386.722L565.14 504.836L552.769 506.432L550.363 505.79Z" fill="#260F12" stroke="#260F12" stroke-width="8"/>
</svg>
