<svg width="250" height="250" viewBox="0 0 250 250" fill="none" xmlns="http://www.w3.org/2000/svg">
<g clip-path="url(#clip0_616_76)">
<path d="M14.118 154.36C-2.6492 137.593 -2.6492 110.408 14.118 93.6403L93.9528 13.8055C110.72 -2.96165 137.905 -2.96165 154.672 13.8055L234.507 93.6403C251.274 110.408 251.274 137.592 234.507 154.36L154.672 234.194C137.905 250.962 110.72 250.962 93.9528 234.194L14.118 154.36Z" fill="#FF4365"/>
<path fill-rule="evenodd" clip-rule="evenodd" d="M124.49 191.761C161.815 191.761 192.073 161.503 192.073 124.178C192.073 86.8526 161.815 56.5946 124.49 56.5946C87.1651 56.5946 56.9071 86.8526 56.9071 124.178C56.9071 161.503 87.1651 191.761 124.49 191.761ZM124.49 198.121C165.328 198.121 198.434 165.016 198.434 124.178C198.434 83.3396 165.328 50.2339 124.49 50.2339C83.6521 50.2339 50.5464 83.3396 50.5464 124.178C50.5464 165.016 83.6521 198.121 124.49 198.121Z" fill="#F8F8F8"/>
<path d="M92.686 161.912L94.0775 174.268L103.094 165.697L118.511 123.398C114.726 122.452 111.387 120.559 108.659 117.943L92.686 161.912Z" fill="#F8F8F8"/>
<path d="M139.493 117.943C136.766 120.559 133.371 122.452 129.642 123.398L145.059 165.697L154.075 174.268L155.522 161.912L139.493 117.943Z" fill="#F8F8F8"/>
<path d="M140.773 101.915C140.773 94.6794 136.098 88.5571 129.642 86.2196V74.0864H118.511V86.2196C112.055 88.5571 107.379 94.6794 107.379 101.915C107.379 111.154 114.837 118.612 124.076 118.612C133.315 118.612 140.773 111.154 140.773 101.915ZM124.076 107.48C121.015 107.48 118.511 104.976 118.511 101.915C118.511 98.8536 121.015 96.3491 124.076 96.3491C127.137 96.3491 129.642 98.8536 129.642 101.915C129.642 104.976 127.137 107.48 124.076 107.48Z" fill="#F8F8F8"/>
</g>
<defs>
<clipPath id="clip0_616_76">
<rect width="250" height="249.372" fill="white"/>
</clipPath>
</defs>
</svg>
