<svg width="459" height="460" viewBox="0 0 459 460" fill="none" xmlns="http://www.w3.org/2000/svg">
<g filter="url(#filter0_d_2_74)">
<path d="M90.9069 253.067C69.8186 231.979 69.8186 197.788 90.9069 176.7L191.316 76.2904C212.404 55.2021 246.595 55.2021 267.684 76.2904L368.093 176.7C389.181 197.788 389.181 231.979 368.093 253.067L267.684 353.476C246.595 374.565 212.404 374.565 191.316 353.476L90.9069 253.067Z" fill="#FF4365"/>
</g>
<path fill-rule="evenodd" clip-rule="evenodd" d="M229.723 300.107C276.667 300.107 314.723 262.051 314.723 215.107C314.723 168.163 276.667 130.107 229.723 130.107C182.779 130.107 144.723 168.163 144.723 215.107C144.723 262.051 182.779 300.107 229.723 300.107ZM229.723 308.107C281.086 308.107 322.723 266.469 322.723 215.107C322.723 163.744 281.086 122.107 229.723 122.107C178.361 122.107 136.723 163.744 136.723 215.107C136.723 266.469 178.361 308.107 229.723 308.107Z" fill="#F8F8F8"/>
<path d="M189.723 262.566L191.473 278.106L202.813 267.326L222.203 214.126C217.443 212.936 213.243 210.556 209.813 207.266L189.723 262.566Z" fill="#F8F8F8"/>
<path d="M248.593 207.266C245.163 210.556 240.893 212.936 236.203 214.126L255.593 267.326L266.933 278.106L268.753 262.566L248.593 207.266Z" fill="#F8F8F8"/>
<path d="M250.203 187.107C250.203 178.007 244.323 170.307 236.203 167.367V152.107H222.203V167.367C214.083 170.307 208.203 178.007 208.203 187.107C208.203 198.727 217.583 208.107 229.203 208.107C240.823 208.107 250.203 198.727 250.203 187.107ZM229.203 194.107C225.353 194.107 222.203 190.957 222.203 187.107C222.203 183.257 225.353 180.107 229.203 180.107C233.053 180.107 236.203 183.257 236.203 187.107C236.203 190.957 233.053 194.107 229.203 194.107Z" fill="#F8F8F8"/>
<defs>
<filter id="filter0_d_2_74" x="0.0908203" y="0.474213" width="458.818" height="458.818" filterUnits="userSpaceOnUse" color-interpolation-filters="sRGB">
<feFlood flood-opacity="0" result="BackgroundImageFix"/>
<feColorMatrix in="SourceAlpha" type="matrix" values="0 0 0 0 0 0 0 0 0 0 0 0 0 0 0 0 0 0 127 0" result="hardAlpha"/>
<feOffset dy="15"/>
<feGaussianBlur stdDeviation="37.5"/>
<feComposite in2="hardAlpha" operator="out"/>
<feColorMatrix type="matrix" values="0 0 0 0 1 0 0 0 0 0.262745 0 0 0 0 0.396078 0 0 0 0.5 0"/>
<feBlend mode="normal" in2="BackgroundImageFix" result="effect1_dropShadow_2_74"/>
<feBlend mode="normal" in="SourceGraphic" in2="effect1_dropShadow_2_74" result="shape"/>
</filter>
</defs>
</svg>
