<svg width="410" height="391" viewBox="0 0 410 391" fill="none" xmlns="http://www.w3.org/2000/svg">
<path d="M264.595 303.09C272.451 295.593 282.964 291.524 293.821 291.779C304.678 292.034 314.988 296.591 322.485 304.447C329.982 312.304 334.05 322.817 333.796 333.674C333.541 344.53 328.984 354.841 321.127 362.338C313.27 369.834 302.757 373.903 291.901 373.648C281.044 373.394 270.733 368.837 263.237 360.98C255.74 353.123 251.672 342.61 251.926 331.754C252.181 320.897 256.738 310.586 264.595 303.09Z" fill="#1ABCFE"/>
<path d="M148.813 300.374C156.67 292.877 167.183 288.808 178.04 289.063C188.896 289.318 199.207 293.875 206.704 301.732L234.97 331.356L205.346 359.622C197.489 367.119 186.976 371.187 176.12 370.933C165.263 370.678 154.952 366.121 147.456 358.264C139.959 350.407 135.89 339.894 136.145 329.038C136.4 318.181 140.957 307.87 148.813 300.374V300.374Z" fill="#0ACF83"/>
<path d="M353.465 218.291L294.217 274.823L322.483 304.447C329.98 312.304 340.29 316.861 351.147 317.116C362.003 317.37 372.517 313.302 380.373 305.805C388.23 298.308 392.787 287.998 393.042 277.141C393.296 266.285 389.228 255.771 381.731 247.915L353.465 218.291Z" fill="#FF7262"/>
<path d="M267.313 187.309C259.457 194.805 254.9 205.116 254.645 215.973C254.39 226.829 258.459 237.342 265.956 245.199L294.222 274.823L353.47 218.291L325.204 188.667C317.707 180.81 307.396 176.253 296.54 175.998C285.683 175.744 275.17 179.812 267.313 187.309V187.309Z" fill="#F24E1E"/>
<path d="M208.063 243.841C200.207 251.338 195.65 261.649 195.395 272.505C195.14 283.362 199.209 293.875 206.706 301.732L234.972 331.356L294.22 274.823L265.954 245.199C258.457 237.343 248.146 232.786 237.29 232.531C226.433 232.276 215.92 236.345 208.063 243.841V243.841Z" fill="#A259FF"/>
<g clip-path="url(#clip0_523_1986)">
<path d="M186.889 289.22C188.215 290.75 188.758 293.52 187.437 297.487C186.145 301.37 183.218 305.765 178.827 309.57C174.015 313.74 169.266 317.625 165.212 319.809C163.179 320.904 161.631 321.396 160.543 321.459C159.639 321.512 159.171 321.285 158.751 320.801C158.145 320.101 157.486 318.648 157.158 316.325C156.84 314.079 156.882 311.353 157.349 308.479C158.297 302.644 160.877 296.858 164.837 293.427C169.137 289.7 174.023 287.632 178.229 287.089C182.554 286.531 185.502 287.619 186.889 289.22Z" fill="#8C6748" stroke="#281214" stroke-width="6.99106"/>
<path d="M266.469 219.741C267.795 221.27 270.46 222.202 274.574 221.459C278.601 220.731 283.368 218.459 287.758 214.654C292.57 210.484 297.092 206.335 299.829 202.634C301.203 200.776 301.91 199.314 302.127 198.246C302.308 197.359 302.15 196.864 301.73 196.379C301.123 195.679 299.779 194.82 297.526 194.165C295.348 193.532 292.644 193.185 289.732 193.239C283.822 193.348 277.729 195.079 273.768 198.511C269.469 202.237 266.726 206.779 265.591 210.866C264.424 215.067 265.082 218.14 266.469 219.741Z" fill="#8C6748" stroke="#281214" stroke-width="6.99106"/>
<path d="M163.529 238.541L218.122 191.23L259.35 238.805L245.248 246.927C234.417 253.166 224.833 261.353 216.979 271.078L204.797 286.162L163.529 238.541Z" fill="#B89061" stroke="#281214" stroke-width="6.99106"/>
<path d="M264.495 127.7L265.116 121.055L266.244 122.962C278.647 143.931 279.123 169.762 267.742 191.08L251.203 176.907L257.246 160.163C261.025 149.692 263.461 138.784 264.495 127.7Z" fill="#8C6748" stroke="#281214" stroke-width="6.99106"/>
<path d="M188.143 256.27C197.418 266.973 203.806 277.836 206.588 286.954C209.427 296.255 208.247 302.576 204.421 305.892C202.805 307.292 199.818 308.077 195.125 307.518C190.54 306.972 184.962 305.206 178.962 302.406C166.965 296.807 153.955 287.393 144.821 276.853C135.638 266.257 132.079 257.402 131.788 250.447C131.501 243.618 134.339 238.139 139.069 234.04C142.95 230.677 149.995 230.248 159.395 234.178C168.572 238.016 178.936 245.646 188.143 256.27Z" fill="#B89061" stroke="#281214" stroke-width="6.99106"/>
<path d="M232.757 217.607C242.033 228.31 251.878 236.178 260.507 240.229C269.31 244.361 275.735 244.091 279.561 240.776C281.177 239.376 282.378 236.531 282.492 231.806C282.604 227.19 281.649 221.417 279.731 215.08C275.895 202.409 268.426 188.193 259.291 177.652C250.109 167.056 241.851 162.275 235.007 160.997C228.289 159.742 222.462 161.772 217.732 165.872C213.851 169.235 212.424 176.147 214.978 186.01C217.472 195.64 223.551 206.984 232.757 217.607Z" fill="#B89061" stroke="#281214" stroke-width="6.99106"/>
<path d="M250.873 233.173C261.204 245.094 271.954 245.826 279.421 239.355C286.888 232.884 285.35 213.861 275.02 201.941C264.69 190.021 265.789 188.467 258.322 194.938C250.855 201.409 240.543 221.253 250.873 233.173Z" fill="#8C6748"/>
<path d="M202.149 275.397C212.479 287.317 211.329 298.363 203.414 305.222C195.499 312.082 176.376 308.298 166.046 296.378C155.716 284.458 153.938 285.398 161.853 278.539C169.768 271.679 191.819 263.477 202.149 275.397Z" fill="#8C6748"/>
<path d="M232.757 217.607C242.033 228.31 251.878 236.178 260.507 240.229C269.31 244.361 275.735 244.091 279.561 240.776C281.177 239.376 282.378 236.531 282.492 231.806C282.604 227.19 281.649 221.417 279.731 215.08C275.895 202.409 268.426 188.193 259.291 177.652C250.109 167.056 241.851 162.275 235.007 160.997C228.289 159.742 222.462 161.772 217.732 165.872C213.851 169.235 212.424 176.147 214.978 186.01C217.472 195.64 223.551 206.984 232.757 217.607Z" stroke="#281214" stroke-width="6.99106"/>
<path d="M188.143 256.27C197.418 266.973 203.806 277.836 206.588 286.954C209.427 296.255 208.247 302.576 204.421 305.892C202.805 307.292 199.818 308.077 195.125 307.518C190.54 306.972 184.962 305.206 178.962 302.406C166.965 296.807 153.955 287.393 144.821 276.853C135.638 266.257 132.079 257.402 131.788 250.447C131.501 243.618 134.339 238.139 139.069 234.04C142.95 230.677 149.995 230.248 159.395 234.178C168.572 238.016 178.936 245.646 188.143 256.27Z" stroke="#281214" stroke-width="6.99106"/>
<path d="M163.176 243.472L193.114 217.527L221.291 193.109C222.264 192.266 223.735 192.371 224.578 193.344L245.945 217.999L245.377 222.088L246.962 226.882L228.121 238.975C221.987 242.913 216.312 247.523 211.201 252.721L194.032 270.182L188.827 265.955L185.892 268.499L163.176 243.472Z" fill="#B89061"/>
<rect x="231.258" y="222.634" width="6.89654" height="19.7337" rx="3.44827" transform="rotate(-49.5852 231.258 222.634)" fill="#281214"/>
<rect x="187.375" y="259.252" width="7.06275" height="18.0431" rx="3.53138" transform="rotate(-32.5661 187.375 259.252)" fill="#281214"/>
<path d="M39.4594 144.96C38.1387 143.939 37.1729 142.529 36.699 140.929L36.4315 140.026C34.4969 133.493 34.6992 126.513 37.0089 120.103C37.889 117.66 40.145 115.982 42.7372 115.84L53.3336 115.263C58.6076 114.975 63.8966 115.154 69.1391 115.797L77.2803 116.795L70.5812 150.583C59.9236 153.884 48.3089 151.797 39.4594 144.96Z" fill="#8C6748" stroke="#281214" stroke-width="6.99106"/>
<path d="M141.519 56.6216C140.459 54.9277 138.761 53.732 136.809 53.3041L132.578 52.3764C128.336 51.4465 123.973 51.2001 119.653 51.6465L119.198 51.6935C115.157 52.1111 111.907 55.2026 111.288 59.2174L110.127 66.7462C109.321 71.9659 108.979 77.2466 109.103 82.5266L109.295 90.727L143.583 87.3848L143.692 87.1387C148.079 77.2364 147.265 65.8024 141.519 56.6216Z" fill="#8C6748" stroke="#281214" stroke-width="6.99106"/>
<path d="M223.196 124.136C230.61 132.69 234.439 140.949 235.672 148.894C236.905 156.841 235.582 164.751 232.243 172.674C225.5 188.674 210.711 204.338 193.256 219.465C175.866 234.535 157.908 246.373 140.774 250.219C132.275 252.126 124.048 252.051 116.178 249.486C108.309 246.922 100.567 241.794 93.1511 233.237C78.242 216.033 69.1885 190.179 68.2047 164.841C67.2192 139.459 74.3397 115.4 90.7485 101.18C107.112 86.9986 132.413 83.773 157.961 88.8086C183.448 93.8324 208.283 106.927 223.196 124.136Z" fill="#B89061" stroke="#281214" stroke-width="6.99106"/>
<path d="M195.523 196.342L201.887 180.996L184.966 165.65L166.527 152.136L131.954 182.097L142.709 202.27L155.533 220.65C161.069 219.474 172.002 216.726 172.475 216.316C172.947 215.907 176.638 207.189 178.424 202.882L195.523 196.342Z" fill="#8C6748"/>
<rect x="149.289" y="172.249" width="7.03835" height="43.7942" rx="3.51918" transform="rotate(-40.9126 149.289 172.249)" fill="#281214"/>
<path d="M134.465 180.482C134.338 180.484 134.277 180.453 134.241 180.429C134.192 180.396 134.136 180.336 134.097 180.247C134.059 180.158 134.053 180.076 134.062 180.018C134.068 179.975 134.087 179.909 134.176 179.818L141.616 172.172L154.743 160.796L164.372 153.713C164.474 153.639 164.541 153.629 164.585 153.628C164.644 153.627 164.724 153.644 164.806 153.694C164.889 153.743 164.941 153.806 164.967 153.859C164.987 153.898 165.01 153.963 164.991 154.087L164.307 158.577C163.706 162.528 161.717 166.136 158.696 168.754L150.032 176.262C147.078 178.823 143.324 180.273 139.416 180.365L134.465 180.482Z" fill="#5D3A2C" stroke="#281214" stroke-width="5.47427"/>
<path d="M203.709 183.854C203.807 182.129 202.489 180.651 200.764 180.553C199.039 180.455 197.561 181.773 197.463 183.498L203.709 183.854ZM180.224 204.206C192.389 205.253 203.015 196.044 203.709 183.854L197.463 183.498C196.97 192.168 189.412 198.717 180.76 197.973L180.224 204.206Z" fill="#281214"/>
<path d="M158.756 216.914C157.03 216.841 155.572 218.182 155.5 219.908C155.427 221.634 156.768 223.092 158.494 223.164L158.756 216.914ZM158.494 223.164L159.054 223.188L159.317 216.937L158.756 216.914L158.494 223.164ZM159.054 223.188C170.9 223.685 180.994 214.674 181.839 202.848L175.599 202.403C174.995 210.853 167.782 217.292 159.317 216.937L159.054 223.188Z" fill="#281214"/>
<path d="M223.196 124.136C230.61 132.69 234.439 140.949 235.672 148.894C236.905 156.841 235.582 164.751 232.243 172.674C225.5 188.674 210.711 204.338 193.256 219.465C175.866 234.535 157.908 246.373 140.774 250.219C132.275 252.126 124.048 252.051 116.178 249.486C108.309 246.922 100.567 241.794 93.1511 233.237C78.242 216.033 69.1885 190.179 68.2047 164.841C67.2192 139.459 74.3397 115.4 90.7485 101.18C107.112 86.9986 132.413 83.773 157.961 88.8086C183.448 93.8324 208.283 106.927 223.196 124.136Z" stroke="#281214" stroke-width="6.99106"/>
<path d="M98.4235 147.398C103.515 153.273 102.867 156.976 100.111 159.364C97.3554 161.752 93.5353 161.921 88.4441 156.046C83.3528 150.171 84.1071 146.508 86.8628 144.12C89.6186 141.732 93.3322 141.523 98.4235 147.398Z" fill="#D4B694"/>
<path d="M98.4235 147.398C103.515 153.273 102.867 156.976 100.111 159.364C97.3554 161.752 93.5353 161.921 88.4441 156.046C83.3528 150.171 84.1071 146.508 86.8628 144.12C89.6186 141.732 93.3322 141.523 98.4235 147.398Z" fill="#D4B694"/>
<path d="M145.97 106.192C151.062 112.066 150.414 115.769 147.658 118.157C144.902 120.545 141.082 120.715 135.991 114.84C130.9 108.965 131.654 105.302 134.41 102.913C137.165 100.525 140.879 100.317 145.97 106.192Z" fill="#D4B694"/>
<path d="M145.97 106.192C151.062 112.066 150.414 115.769 147.658 118.157C144.902 120.545 141.082 120.715 135.991 114.84C130.9 108.965 131.654 105.302 134.41 102.913C137.165 100.525 140.879 100.317 145.97 106.192Z" fill="#D4B694"/>
<path d="M103.244 161.27L106.834 156.915C117.233 144.302 129.625 133.475 143.519 124.862L149.619 121.081" stroke="#281214" stroke-width="9.32142"/>
<circle cx="174.372" cy="109.909" r="33.7901" transform="rotate(-40.9126 174.372 109.909)" fill="#D9D9D9" stroke="#281214" stroke-width="6.21428"/>
<circle cx="87.4932" cy="185.2" r="33.7901" transform="rotate(-40.9126 87.4932 185.2)" fill="#D9D9D9" stroke="#281214" stroke-width="6.21428"/>
<circle cx="92.3498" cy="171.229" r="3.88392" transform="rotate(-40.9126 92.3498 171.229)" fill="#D9D9D9"/>
<circle cx="159.854" cy="112.726" r="3.88392" transform="rotate(-40.9126 159.854 112.726)" fill="#D9D9D9"/>
</g>
<path d="M69.5993 190.919V190.919C75.7342 178.529 89.1122 171.46 102.804 173.372L110.851 174.496" stroke="#281214" stroke-width="7.53793" stroke-linecap="round"/>
<path d="M162.836 129.448L164.609 117.431C166.32 105.834 174.044 96.0119 184.91 91.6158V91.6158" stroke="#281214" stroke-width="7.53793" stroke-linecap="round"/>
<defs>
<clipPath id="clip0_523_1986">
<rect width="218.277" height="260.223" fill="white" transform="translate(0 142.951) rotate(-40.9126)"/>
</clipPath>
</defs>
</svg>
