<svg width="1432" height="459" viewBox="0 0 1432 459" fill="none" xmlns="http://www.w3.org/2000/svg">
<g filter="url(#filter0_d_22_77)">
<path d="M91.1838 252.727C70.0955 231.639 70.0955 197.448 91.1838 176.36L191.593 75.9507C212.681 54.8623 246.872 54.8623 267.96 75.9507L368.37 176.36C389.458 197.448 389.458 231.639 368.37 252.727L267.96 353.137C246.872 374.225 212.681 374.225 191.593 353.137L91.1838 252.727Z" fill="#38B6FF"/>
</g>
<path fill-rule="evenodd" clip-rule="evenodd" d="M230 299.767C276.944 299.767 315 261.711 315 214.767C315 167.823 276.944 129.767 230 129.767C183.056 129.767 145 167.823 145 214.767C145 261.711 183.056 299.767 230 299.767ZM230 307.767C281.362 307.767 323 266.129 323 214.767C323 163.404 281.362 121.767 230 121.767C178.638 121.767 137 163.404 137 214.767C137 266.129 178.638 307.767 230 307.767Z" fill="#F8F8F8"/>
<path opacity="0.3" d="M245.75 178.017H193.25V251.517H266.75V199.017H245.75V178.017ZM203.75 188.517H230V199.017H203.75V188.517ZM256.25 241.017H203.75V230.517H256.25V241.017ZM256.25 209.517V220.017H203.75V209.517H256.25Z" fill="#F8F8F8"/>
<path d="M203.75 220.017H256.25V209.517H203.75V220.017ZM203.75 241.017H256.25V230.517H203.75V241.017ZM251 167.517H193.25C187.475 167.517 182.75 172.242 182.75 178.017V251.517C182.75 257.292 187.475 262.017 193.25 262.017H266.75C272.525 262.017 277.25 257.292 277.25 251.517V193.767L251 167.517ZM266.75 251.517H193.25V178.017H245.75V199.017H266.75V251.517ZM230 188.517H203.75V199.017H230V188.517Z" fill="#F8F8F8"/>
<path d="M501.512 201.551H487.544V264.767H467.096V201.551H458.024V184.991H467.096V180.959C467.096 171.167 469.88 163.967 475.448 159.359C481.016 154.751 489.416 152.591 500.648 152.879V169.871C495.752 169.775 492.344 170.591 490.424 172.319C488.504 174.047 487.544 177.167 487.544 181.679V184.991H501.512V201.551ZM589.889 184.991V264.767H569.585V254.687C566.993 258.143 563.585 260.879 559.361 262.895C555.233 264.815 550.721 265.775 545.825 265.775C539.585 265.775 534.065 264.479 529.265 261.887C524.465 259.199 520.673 255.311 517.889 250.223C515.201 245.039 513.857 238.895 513.857 231.791V184.991H534.017V228.911C534.017 235.247 535.601 240.143 538.769 243.599C541.937 246.959 546.257 248.639 551.729 248.639C557.297 248.639 561.665 246.959 564.833 243.599C568.001 240.143 569.585 235.247 569.585 228.911V184.991H589.889ZM629.94 158.207V264.767H609.78V158.207H629.94ZM670.018 158.207V264.767H649.858V158.207H670.018ZM766.256 184.991L716.864 302.495H695.408L712.688 262.751L680.72 184.991H703.328L723.92 240.719L744.8 184.991H766.256ZM886.748 184.991V264.767H866.444V254.687C863.852 258.143 860.444 260.879 856.22 262.895C852.092 264.815 847.58 265.775 842.684 265.775C836.444 265.775 830.924 264.479 826.124 261.887C821.324 259.199 817.532 255.311 814.748 250.223C812.06 245.039 810.716 238.895 810.716 231.791V184.991H830.876V228.911C830.876 235.247 832.46 240.143 835.628 243.599C838.796 246.959 843.116 248.639 848.588 248.639C854.156 248.639 858.524 246.959 861.692 243.599C864.86 240.143 866.444 235.247 866.444 228.911V184.991H886.748ZM926.799 196.511C929.391 192.863 932.943 189.839 937.455 187.439C942.063 184.943 947.295 183.695 953.151 183.695C959.967 183.695 966.111 185.375 971.583 188.735C977.151 192.095 981.519 196.895 984.687 203.135C987.951 209.279 989.583 216.431 989.583 224.591C989.583 232.751 987.951 239.999 984.687 246.335C981.519 252.575 977.151 257.423 971.583 260.879C966.111 264.335 959.967 266.063 953.151 266.063C947.295 266.063 942.111 264.863 937.599 262.463C933.183 260.063 929.583 257.039 926.799 253.391V302.783H906.639V184.991H926.799V196.511ZM968.991 224.591C968.991 219.791 967.983 215.663 965.967 212.207C964.047 208.655 961.455 205.967 958.191 204.143C955.023 202.319 951.567 201.407 947.823 201.407C944.175 201.407 940.719 202.367 937.455 204.287C934.287 206.111 931.695 208.799 929.679 212.351C927.759 215.903 926.799 220.079 926.799 224.879C926.799 229.679 927.759 233.855 929.679 237.407C931.695 240.959 934.287 243.695 937.455 245.615C940.719 247.439 944.175 248.351 947.823 248.351C951.567 248.351 955.023 247.391 958.191 245.471C961.455 243.551 964.047 240.815 965.967 237.263C967.983 233.711 968.991 229.487 968.991 224.591ZM999.049 224.591C999.049 216.527 1000.63 209.375 1003.8 203.135C1007.06 196.895 1011.48 192.095 1017.05 188.735C1022.62 185.375 1028.81 183.695 1035.62 183.695C1040.81 183.695 1045.75 184.847 1050.46 187.151C1055.16 189.359 1058.9 192.335 1061.69 196.079V158.207H1082.14V264.767H1061.69V252.959C1059.19 256.895 1055.69 260.063 1051.18 262.463C1046.66 264.863 1041.43 266.063 1035.48 266.063C1028.76 266.063 1022.62 264.335 1017.05 260.879C1011.48 257.423 1007.06 252.575 1003.8 246.335C1000.63 239.999 999.049 232.751 999.049 224.591ZM1061.83 224.879C1061.83 219.983 1060.87 215.807 1058.95 212.351C1057.03 208.799 1054.44 206.111 1051.18 204.287C1047.91 202.367 1044.41 201.407 1040.66 201.407C1036.92 201.407 1033.46 202.319 1030.3 204.143C1027.13 205.967 1024.54 208.655 1022.52 212.207C1020.6 215.663 1019.64 219.791 1019.64 224.591C1019.64 229.391 1020.6 233.615 1022.52 237.263C1024.54 240.815 1027.13 243.551 1030.3 245.471C1033.56 247.391 1037.02 248.351 1040.66 248.351C1044.41 248.351 1047.91 247.439 1051.18 245.615C1054.44 243.695 1057.03 241.007 1058.95 237.551C1060.87 233.999 1061.83 229.775 1061.83 224.879ZM1096.64 224.591C1096.64 216.527 1098.23 209.375 1101.39 203.135C1104.66 196.895 1109.03 192.095 1114.5 188.735C1120.07 185.375 1126.26 183.695 1133.07 183.695C1139.03 183.695 1144.21 184.895 1148.63 187.295C1153.14 189.695 1156.74 192.719 1159.43 196.367V184.991H1179.73V264.767H1159.43V253.103C1156.83 256.847 1153.23 259.967 1148.63 262.463C1144.11 264.863 1138.88 266.063 1132.93 266.063C1126.21 266.063 1120.07 264.335 1114.5 260.879C1109.03 257.423 1104.66 252.575 1101.39 246.335C1098.23 239.999 1096.64 232.751 1096.64 224.591ZM1159.43 224.879C1159.43 219.983 1158.47 215.807 1156.55 212.351C1154.63 208.799 1152.03 206.111 1148.77 204.287C1145.51 202.367 1142 201.407 1138.26 201.407C1134.51 201.407 1131.06 202.319 1127.89 204.143C1124.72 205.967 1122.13 208.655 1120.11 212.207C1118.19 215.663 1117.23 219.791 1117.23 224.591C1117.23 229.391 1118.19 233.615 1120.11 237.263C1122.13 240.815 1124.72 243.551 1127.89 245.471C1131.15 247.391 1134.61 248.351 1138.26 248.351C1142 248.351 1145.51 247.439 1148.77 245.615C1152.03 243.695 1154.63 241.007 1156.55 237.551C1158.47 233.999 1159.43 229.775 1159.43 224.879ZM1222.89 201.551V240.143C1222.89 242.831 1223.52 244.799 1224.76 246.047C1226.11 247.199 1228.32 247.775 1231.39 247.775H1240.75V264.767H1228.08C1211.08 264.767 1202.59 256.511 1202.59 239.999V201.551H1193.08V184.991H1202.59V165.263H1222.89V184.991H1240.75V201.551H1222.89ZM1329.41 223.151C1329.41 226.031 1329.22 228.623 1328.83 230.927H1270.51C1270.99 236.687 1273.01 241.199 1276.56 244.463C1280.11 247.727 1284.48 249.359 1289.66 249.359C1297.15 249.359 1302.48 246.143 1305.65 239.711H1327.39C1325.09 247.391 1320.67 253.727 1314.14 258.719C1307.62 263.615 1299.6 266.063 1290.1 266.063C1282.42 266.063 1275.5 264.383 1269.36 261.023C1263.31 257.567 1258.56 252.719 1255.1 246.479C1251.74 240.239 1250.06 233.039 1250.06 224.879C1250.06 216.623 1251.74 209.375 1255.1 203.135C1258.46 196.895 1263.17 192.095 1269.22 188.735C1275.26 185.375 1282.22 183.695 1290.1 183.695C1297.68 183.695 1304.45 185.327 1310.4 188.591C1316.45 191.855 1321.1 196.511 1324.37 202.559C1327.73 208.511 1329.41 215.375 1329.41 223.151ZM1308.53 217.391C1308.43 212.207 1306.56 208.079 1302.91 205.007C1299.26 201.839 1294.8 200.255 1289.52 200.255C1284.53 200.255 1280.3 201.791 1276.85 204.863C1273.49 207.839 1271.42 212.015 1270.66 217.391H1308.53ZM1338.94 224.591C1338.94 216.527 1340.52 209.375 1343.69 203.135C1346.96 196.895 1351.37 192.095 1356.94 188.735C1362.51 185.375 1368.7 183.695 1375.52 183.695C1380.7 183.695 1385.64 184.847 1390.35 187.151C1395.05 189.359 1398.8 192.335 1401.58 196.079V158.207H1422.03V264.767H1401.58V252.959C1399.08 256.895 1395.58 260.063 1391.07 262.463C1386.56 264.863 1381.32 266.063 1375.37 266.063C1368.65 266.063 1362.51 264.335 1356.94 260.879C1351.37 257.423 1346.96 252.575 1343.69 246.335C1340.52 239.999 1338.94 232.751 1338.94 224.591ZM1401.72 224.879C1401.72 219.983 1400.76 215.807 1398.84 212.351C1396.92 208.799 1394.33 206.111 1391.07 204.287C1387.8 202.367 1384.3 201.407 1380.56 201.407C1376.81 201.407 1373.36 202.319 1370.19 204.143C1367.02 205.967 1364.43 208.655 1362.41 212.207C1360.49 215.663 1359.53 219.791 1359.53 224.591C1359.53 229.391 1360.49 233.615 1362.41 237.263C1364.43 240.815 1367.02 243.551 1370.19 245.471C1373.45 247.391 1376.91 248.351 1380.56 248.351C1384.3 248.351 1387.8 247.439 1391.07 245.615C1394.33 243.695 1396.92 241.007 1398.84 237.551C1400.76 233.999 1401.72 229.775 1401.72 224.879Z" fill="#101315"/>
<defs>
<filter id="filter0_d_22_77" x="0.367676" y="0.134399" width="458.818" height="458.818" filterUnits="userSpaceOnUse" color-interpolation-filters="sRGB">
<feFlood flood-opacity="0" result="BackgroundImageFix"/>
<feColorMatrix in="SourceAlpha" type="matrix" values="0 0 0 0 0 0 0 0 0 0 0 0 0 0 0 0 0 0 127 0" result="hardAlpha"/>
<feOffset dy="15"/>
<feGaussianBlur stdDeviation="37.5"/>
<feComposite in2="hardAlpha" operator="out"/>
<feColorMatrix type="matrix" values="0 0 0 0 0.219608 0 0 0 0 0.713726 0 0 0 0 1 0 0 0 0.5 0"/>
<feBlend mode="normal" in2="BackgroundImageFix" result="effect1_dropShadow_22_77"/>
<feBlend mode="normal" in="SourceGraphic" in2="effect1_dropShadow_22_77" result="shape"/>
</filter>
</defs>
</svg>
