<svg width="250" height="250" viewBox="0 0 250 250" fill="none" xmlns="http://www.w3.org/2000/svg">
<g clip-path="url(#clip0_616_95)">
<path d="M14.1394 154.593C-2.65309 137.8 -2.65309 110.574 14.1394 93.7815L94.0947 13.8262C110.887 -2.9663 138.113 -2.9663 154.906 13.8262L234.861 93.7815C251.654 110.574 251.654 137.8 234.861 154.593L154.906 234.548C138.113 251.34 110.887 251.34 94.0947 234.548L14.1394 154.593Z" fill="#D41153"/>
<path fill-rule="evenodd" clip-rule="evenodd" d="M124.678 192.05C162.059 192.05 192.363 161.746 192.363 124.365C192.363 86.9836 162.059 56.6799 124.678 56.6799C87.2965 56.6799 56.9929 86.9836 56.9929 124.365C56.9929 161.746 87.2965 192.05 124.678 192.05ZM124.678 198.42C165.578 198.42 198.733 165.265 198.733 124.365C198.733 83.4653 165.578 50.3096 124.678 50.3096C83.7783 50.3096 50.6226 83.4653 50.6226 124.365C50.6226 165.265 83.7783 198.42 124.678 198.42Z" fill="#F8F8F8"/>
<path opacity="0.3" d="M160.55 117.532C162.517 119.499 165.706 119.499 167.673 117.532C169.64 115.565 169.64 112.376 167.673 110.409C165.706 108.442 162.517 108.442 160.55 110.409C158.583 112.376 158.583 115.565 160.55 117.532Z" fill="#F8F8F8"/>
<path opacity="0.3" d="M92.8808 99.7242C94.8478 101.691 98.0369 101.691 100.004 99.7242C101.971 97.7572 101.971 94.5681 100.004 92.6011C98.0369 90.6341 94.8478 90.6341 92.8808 92.6011C90.9138 94.5681 90.9138 97.7572 92.8808 99.7242Z" fill="#F8F8F8"/>
<path opacity="0.3" d="M110.617 167.465C112.584 169.432 115.773 169.432 117.74 167.465C119.707 165.498 119.707 162.309 117.74 160.342C115.773 158.375 112.584 158.375 110.617 160.342C108.65 162.309 108.65 165.498 110.617 167.465Z" fill="#F8F8F8"/>
<path d="M124.65 153.433C121.943 150.726 118.453 149.373 114.927 149.195L104.313 109.02C105.31 108.379 106.272 107.702 107.127 106.848C107.982 105.993 108.658 105.031 109.299 104.034L149.046 114.505C149.189 118.209 150.613 121.842 153.427 124.656C159.339 130.568 168.884 130.568 174.796 124.656C180.709 118.743 180.709 109.198 174.796 103.286C168.884 97.374 159.339 97.374 153.427 103.286C152.572 104.141 151.896 105.103 151.255 106.1L111.508 95.6288C111.365 91.9248 109.94 88.292 107.127 85.4784C101.215 79.5662 91.6697 79.5662 85.7575 85.4784C79.8453 91.3906 79.8453 100.936 85.7575 106.848C88.5711 109.661 92.2039 111.086 95.9079 111.228L106.45 151.403C105.524 151.973 104.634 152.649 103.85 153.433C98.1161 159.167 98.1161 168.498 103.85 174.232C109.584 179.967 118.916 179.967 124.65 174.232C130.384 168.498 130.384 159.167 124.65 153.433ZM167.673 110.409C169.632 112.368 169.632 115.574 167.673 117.532C165.714 119.491 162.509 119.491 160.55 117.532C158.591 115.574 158.591 112.368 160.55 110.409C162.509 108.45 165.714 108.45 167.673 110.409ZM92.8806 99.7246C90.9217 97.7658 90.9217 94.5603 92.8806 92.6015C94.8394 90.6426 98.0448 90.6426 100.004 92.6015C101.963 94.5603 101.963 97.7658 100.004 99.7246C98.0448 101.683 94.8394 101.683 92.8806 99.7246ZM110.617 167.465C108.658 165.507 108.658 162.301 110.617 160.342C112.576 158.383 115.781 158.383 117.74 160.342C119.699 162.301 119.699 165.507 117.74 167.465C115.781 169.424 112.576 169.424 110.617 167.465Z" fill="#F8F8F8"/>
</g>
<defs>
<clipPath id="clip0_616_95">
<rect width="250" height="249.372" fill="white"/>
</clipPath>
</defs>
</svg>
