<svg width="459" height="459" viewBox="0 0 459 459" fill="none" xmlns="http://www.w3.org/2000/svg">
<g filter="url(#filter0_d_2_76)">
<path d="M90.9069 252.727C69.8186 231.639 69.8186 197.448 90.9069 176.36L191.316 75.9507C212.404 54.8623 246.595 54.8623 267.684 75.9507L368.093 176.36C389.181 197.448 389.181 231.639 368.093 252.727L267.684 353.137C246.595 374.225 212.404 374.225 191.316 353.137L90.9069 252.727Z" fill="#D41153"/>
</g>
<path fill-rule="evenodd" clip-rule="evenodd" d="M229.723 299.767C276.667 299.767 314.723 261.711 314.723 214.767C314.723 167.823 276.667 129.767 229.723 129.767C182.779 129.767 144.723 167.823 144.723 214.767C144.723 261.711 182.779 299.767 229.723 299.767ZM229.723 307.767C281.086 307.767 322.723 266.13 322.723 214.767C322.723 163.405 281.086 121.767 229.723 121.767C178.361 121.767 136.723 163.405 136.723 214.767C136.723 266.13 178.361 307.767 229.723 307.767Z" fill="#F8F8F8"/>
<path opacity="0.3" d="M274.772 206.186C277.242 208.656 281.247 208.656 283.717 206.186C286.187 203.716 286.187 199.711 283.717 197.241C281.247 194.77 277.242 194.77 274.772 197.241C272.302 199.711 272.302 203.716 274.772 206.186Z" fill="#F8F8F8"/>
<path opacity="0.3" d="M189.791 183.823C192.262 186.293 196.267 186.293 198.737 183.823C201.207 181.352 201.207 177.348 198.737 174.877C196.267 172.407 192.262 172.407 189.791 174.877C187.321 177.348 187.321 181.352 189.791 183.823Z" fill="#F8F8F8"/>
<path opacity="0.3" d="M212.065 268.893C214.536 271.363 218.541 271.363 221.011 268.893C223.481 266.423 223.481 262.418 221.011 259.947C218.541 257.477 214.536 257.477 212.065 259.947C209.595 262.418 209.595 266.423 212.065 268.893Z" fill="#F8F8F8"/>
<path d="M229.688 251.27C226.288 247.871 221.905 246.172 217.477 245.948L204.149 195.496C205.401 194.691 206.609 193.841 207.682 192.768C208.756 191.694 209.605 190.487 210.41 189.235L260.325 202.384C260.504 207.036 262.293 211.598 265.827 215.131C273.251 222.556 285.238 222.556 292.663 215.131C300.087 207.707 300.087 195.72 292.663 188.295C285.238 180.871 273.251 180.871 265.827 188.295C264.753 189.369 263.903 190.576 263.098 191.829L213.183 178.679C213.005 174.027 211.216 169.465 207.682 165.932C200.257 158.507 188.271 158.507 180.846 165.932C173.421 173.357 173.422 185.343 180.846 192.768C184.38 196.301 188.942 198.09 193.593 198.269L206.832 248.721C205.669 249.437 204.551 250.286 203.567 251.27C196.366 258.471 196.366 270.19 203.567 277.391C210.768 284.592 222.487 284.592 229.688 277.391C236.889 270.19 236.889 258.471 229.688 251.27ZM283.717 197.241C286.177 199.701 286.177 203.726 283.717 206.186C281.257 208.646 277.232 208.646 274.772 206.186C272.312 203.726 272.312 199.701 274.772 197.241C277.232 194.781 281.257 194.781 283.717 197.241ZM189.791 183.823C187.331 181.363 187.331 177.337 189.791 174.877C192.251 172.417 196.277 172.417 198.737 174.877C201.197 177.337 201.197 181.363 198.737 183.823C196.277 186.283 192.251 186.283 189.791 183.823ZM212.065 268.893C209.605 266.433 209.605 262.407 212.065 259.947C214.525 257.487 218.551 257.487 221.011 259.947C223.471 262.407 223.471 266.433 221.011 268.893C218.551 271.353 214.525 271.353 212.065 268.893Z" fill="#F8F8F8"/>
<defs>
<filter id="filter0_d_2_76" x="0.0908203" y="0.134399" width="458.818" height="458.818" filterUnits="userSpaceOnUse" color-interpolation-filters="sRGB">
<feFlood flood-opacity="0" result="BackgroundImageFix"/>
<feColorMatrix in="SourceAlpha" type="matrix" values="0 0 0 0 0 0 0 0 0 0 0 0 0 0 0 0 0 0 127 0" result="hardAlpha"/>
<feOffset dy="15"/>
<feGaussianBlur stdDeviation="37.5"/>
<feComposite in2="hardAlpha" operator="out"/>
<feColorMatrix type="matrix" values="0 0 0 0 0.831373 0 0 0 0 0.0666667 0 0 0 0 0.32549 0 0 0 0.5 0"/>
<feBlend mode="normal" in2="BackgroundImageFix" result="effect1_dropShadow_2_76"/>
<feBlend mode="normal" in="SourceGraphic" in2="effect1_dropShadow_2_76" result="shape"/>
</filter>
</defs>
</svg>
