<svg width="1037" height="459" viewBox="0 0 1037 459" fill="none" xmlns="http://www.w3.org/2000/svg">
<g filter="url(#filter0_d_58_70)">
<path d="M91.1838 252.727C70.0955 231.639 70.0955 197.448 91.1838 176.36L191.593 75.9507C212.681 54.8623 246.872 54.8623 267.96 75.9507L368.37 176.36C389.458 197.448 389.458 231.639 368.37 252.727L267.96 353.137C246.872 374.225 212.681 374.225 191.593 353.137L91.1838 252.727Z" fill="#38B6FF"/>
</g>
<path fill-rule="evenodd" clip-rule="evenodd" d="M230 299.767C276.944 299.767 315 261.711 315 214.767C315 167.823 276.944 129.767 230 129.767C183.056 129.767 145 167.823 145 214.767C145 261.711 183.056 299.767 230 299.767ZM230 307.767C281.362 307.767 323 266.129 323 214.767C323 163.404 281.362 121.767 230 121.767C178.638 121.767 137 163.404 137 214.767C137 266.129 178.638 307.767 230 307.767Z" fill="#F8F8F8"/>
<path opacity="0.3" d="M245.75 178.017H193.25V251.517H266.75V199.017H245.75V178.017ZM203.75 188.517H230V199.017H203.75V188.517ZM256.25 241.017H203.75V230.517H256.25V241.017ZM256.25 209.517V220.017H203.75V209.517H256.25Z" fill="#F8F8F8"/>
<path d="M203.75 220.017H256.25V209.517H203.75V220.017ZM203.75 241.017H256.25V230.517H203.75V241.017ZM251 167.517H193.25C187.475 167.517 182.75 172.242 182.75 178.017V251.517C182.75 257.292 187.475 262.017 193.25 262.017H266.75C272.525 262.017 277.25 257.292 277.25 251.517V193.767L251 167.517ZM266.75 251.517H193.25V178.017H245.75V199.017H266.75V251.517ZM230 188.517H203.75V199.017H230V188.517Z" fill="#F8F8F8"/>
<path d="M516.329 253.565L494.153 214.397H484.649V253.565H464.489V153.053H502.217C509.993 153.053 516.617 154.445 522.089 157.229C527.561 159.917 531.641 163.613 534.329 168.317C537.113 172.925 538.505 178.109 538.505 183.869C538.505 190.493 536.585 196.493 532.745 201.869C528.905 207.149 523.193 210.797 515.609 212.813L539.657 253.565H516.329ZM484.649 199.277H501.497C506.969 199.277 511.049 197.981 513.737 195.389C516.425 192.701 517.769 189.005 517.769 184.301C517.769 179.693 516.425 176.141 513.737 173.645C511.049 171.053 506.969 169.757 501.497 169.757H484.649V199.277ZM576.899 169.325V194.525H610.739V210.509H576.899V237.149H615.059V253.565H556.739V152.909H615.059V169.325H576.899ZM695.012 234.413H654.98L648.356 253.565H627.188L663.332 152.909H686.804L722.948 253.565H701.636L695.012 234.413ZM689.54 218.285L674.996 176.237L660.452 218.285H689.54ZM771.594 153.053C782.154 153.053 791.418 155.117 799.386 159.245C807.45 163.373 813.642 169.277 817.962 176.957C822.378 184.541 824.586 193.373 824.586 203.453C824.586 213.533 822.378 222.365 817.962 229.949C813.642 237.437 807.45 243.245 799.386 247.373C791.418 251.501 782.154 253.565 771.594 253.565H736.458V153.053H771.594ZM770.874 236.429C781.434 236.429 789.594 233.549 795.354 227.789C801.114 222.029 803.994 213.917 803.994 203.453C803.994 192.989 801.114 184.829 795.354 178.973C789.594 173.021 781.434 170.045 770.874 170.045H756.618V236.429H770.874ZM949.261 153.053V253.565H929.101V188.189L902.173 253.565H886.909L859.837 188.189V253.565H839.677V153.053H862.573L894.541 227.789L926.509 153.053H949.261ZM989.352 169.325V194.525H1023.19V210.509H989.352V237.149H1027.51V253.565H969.192V152.909H1027.51V169.325H989.352Z" fill="#101315"/>
<path d="M471.032 306.818C471.896 305.538 473.08 304.498 474.584 303.698C476.12 302.898 477.864 302.498 479.816 302.498C482.088 302.498 484.136 303.058 485.96 304.178C487.816 305.298 489.272 306.898 490.328 308.978C491.416 311.026 491.96 313.41 491.96 316.13C491.96 318.85 491.416 321.266 490.328 323.378C489.272 325.458 487.816 327.074 485.96 328.226C484.136 329.378 482.088 329.954 479.816 329.954C477.832 329.954 476.088 329.57 474.584 328.802C473.112 328.002 471.928 326.978 471.032 325.73V329.522H464.312V294.002H471.032V306.818ZM485.096 316.13C485.096 314.53 484.76 313.154 484.088 312.002C483.448 310.818 482.584 309.922 481.496 309.314C480.44 308.706 479.288 308.402 478.04 308.402C476.824 308.402 475.672 308.722 474.584 309.362C473.528 309.97 472.664 310.866 471.992 312.05C471.352 313.234 471.032 314.626 471.032 316.226C471.032 317.826 471.352 319.218 471.992 320.402C472.664 321.586 473.528 322.498 474.584 323.138C475.672 323.746 476.824 324.05 478.04 324.05C479.288 324.05 480.44 323.73 481.496 323.09C482.584 322.45 483.448 321.538 484.088 320.354C484.76 319.17 485.096 317.762 485.096 316.13ZM522.283 302.93L505.819 342.098H498.667L504.427 328.85L493.771 302.93H501.307L508.171 321.506L515.131 302.93H522.283ZM535.615 316.13C535.615 313.442 536.143 311.058 537.199 308.978C538.287 306.898 539.743 305.298 541.567 304.178C543.423 303.058 545.487 302.498 547.759 302.498C549.743 302.498 551.471 302.898 552.943 303.698C554.447 304.498 555.647 305.506 556.543 306.722V302.93H563.311V329.522H556.543V325.634C555.679 326.882 554.479 327.922 552.943 328.754C551.439 329.554 549.695 329.954 547.711 329.954C545.471 329.954 543.423 329.378 541.567 328.226C539.743 327.074 538.287 325.458 537.199 323.378C536.143 321.266 535.615 318.85 535.615 316.13ZM556.543 316.226C556.543 314.594 556.223 313.202 555.583 312.05C554.943 310.866 554.079 309.97 552.991 309.362C551.903 308.722 550.735 308.402 549.487 308.402C548.239 308.402 547.087 308.706 546.031 309.314C544.975 309.922 544.111 310.818 543.439 312.002C542.799 313.154 542.479 314.53 542.479 316.13C542.479 317.73 542.799 319.138 543.439 320.354C544.111 321.538 544.975 322.45 546.031 323.09C547.119 323.73 548.271 324.05 549.487 324.05C550.735 324.05 551.903 323.746 552.991 323.138C554.079 322.498 554.943 321.602 555.583 320.45C556.223 319.266 556.543 317.858 556.543 316.226ZM568.146 316.226C568.146 313.474 568.707 311.074 569.827 309.026C570.947 306.946 572.499 305.346 574.483 304.226C576.467 303.074 578.739 302.498 581.299 302.498C584.595 302.498 587.315 303.33 589.459 304.994C591.635 306.626 593.091 308.93 593.827 311.906H586.579C586.195 310.754 585.539 309.858 584.611 309.218C583.715 308.546 582.595 308.21 581.251 308.21C579.331 308.21 577.811 308.914 576.691 310.322C575.571 311.698 575.011 313.666 575.011 316.226C575.011 318.754 575.571 320.722 576.691 322.13C577.811 323.506 579.331 324.194 581.251 324.194C583.971 324.194 585.747 322.978 586.579 320.546H593.827C593.091 323.426 591.635 325.714 589.459 327.41C587.283 329.106 584.563 329.954 581.299 329.954C578.739 329.954 576.467 329.394 574.483 328.274C572.499 327.122 570.947 325.522 569.827 323.474C568.707 321.394 568.146 318.978 568.146 316.226ZM631.774 302.546C635.038 302.546 637.662 303.554 639.646 305.57C641.662 307.554 642.67 310.338 642.67 313.922V329.522H635.95V314.834C635.95 312.754 635.422 311.17 634.366 310.082C633.31 308.962 631.87 308.402 630.046 308.402C628.222 308.402 626.766 308.962 625.678 310.082C624.622 311.17 624.094 312.754 624.094 314.834V329.522H617.374V314.834C617.374 312.754 616.846 311.17 615.79 310.082C614.734 308.962 613.294 308.402 611.47 308.402C609.614 308.402 608.142 308.962 607.054 310.082C605.998 311.17 605.47 312.754 605.47 314.834V329.522H598.75V302.93H605.47V306.146C606.334 305.026 607.438 304.146 608.782 303.506C610.158 302.866 611.662 302.546 613.294 302.546C615.374 302.546 617.23 302.994 618.862 303.89C620.494 304.754 621.758 306.002 622.654 307.634C623.518 306.098 624.766 304.866 626.398 303.938C628.062 303.01 629.854 302.546 631.774 302.546Z" fill="#101315"/>
<path d="M647.318 312.626C647.318 309.298 648.038 306.338 649.478 303.746C650.918 301.122 652.918 299.09 655.478 297.65C658.07 296.178 660.998 295.442 664.262 295.442C668.262 295.442 671.686 296.498 674.534 298.61C677.382 300.722 679.286 303.602 680.246 307.25H671.222C670.55 305.842 669.59 304.77 668.342 304.034C667.126 303.298 665.734 302.93 664.166 302.93C661.638 302.93 659.59 303.81 658.022 305.57C656.454 307.33 655.67 309.682 655.67 312.626C655.67 315.57 656.454 317.922 658.022 319.682C659.59 321.442 661.638 322.322 664.166 322.322C665.734 322.322 667.126 321.954 668.342 321.218C669.59 320.482 670.55 319.41 671.222 318.002H680.246C679.286 321.65 677.382 324.53 674.534 326.642C671.686 328.722 668.262 329.762 664.262 329.762C660.998 329.762 658.07 329.042 655.478 327.602C652.918 326.13 650.918 324.098 649.478 321.506C648.038 318.914 647.318 315.954 647.318 312.626ZM697.465 329.858C695.001 329.858 692.793 329.458 690.841 328.658C688.889 327.858 687.321 326.674 686.137 325.106C684.985 323.538 684.377 321.65 684.313 319.442H693.049C693.177 320.69 693.609 321.65 694.345 322.322C695.081 322.962 696.041 323.282 697.225 323.282C698.441 323.282 699.401 323.01 700.105 322.466C700.809 321.89 701.161 321.106 701.161 320.114C701.161 319.282 700.873 318.594 700.297 318.05C699.753 317.506 699.065 317.058 698.233 316.706C697.433 316.354 696.281 315.954 694.777 315.506C692.601 314.834 690.825 314.162 689.449 313.49C688.073 312.818 686.889 311.826 685.897 310.514C684.905 309.202 684.409 307.49 684.409 305.378C684.409 302.242 685.545 299.794 687.817 298.034C690.089 296.242 693.049 295.346 696.697 295.346C700.409 295.346 703.401 296.242 705.673 298.034C707.945 299.794 709.161 302.258 709.321 305.426H700.441C700.377 304.338 699.977 303.49 699.241 302.882C698.505 302.242 697.561 301.922 696.409 301.922C695.417 301.922 694.617 302.194 694.009 302.738C693.401 303.25 693.097 304.002 693.097 304.994C693.097 306.082 693.609 306.93 694.633 307.538C695.657 308.146 697.257 308.802 699.433 309.506C701.609 310.242 703.369 310.946 704.713 311.618C706.089 312.29 707.273 313.266 708.265 314.546C709.257 315.826 709.753 317.474 709.753 319.49C709.753 321.41 709.257 323.154 708.265 324.722C707.305 326.29 705.897 327.538 704.041 328.466C702.185 329.394 699.993 329.858 697.465 329.858ZM722.868 295.826V315.986C722.868 318.002 723.364 319.554 724.356 320.642C725.348 321.73 726.804 322.274 728.724 322.274C730.644 322.274 732.116 321.73 733.14 320.642C734.164 319.554 734.676 318.002 734.676 315.986V295.826H742.884V315.938C742.884 318.946 742.244 321.49 740.964 323.57C739.684 325.65 737.956 327.218 735.78 328.274C733.636 329.33 731.236 329.858 728.58 329.858C725.924 329.858 723.54 329.346 721.428 328.322C719.348 327.266 717.7 325.698 716.484 323.618C715.268 321.506 714.66 318.946 714.66 315.938V295.826H722.868ZM770.584 295.826V302.402H756.856V309.506H767.128V315.89H756.856V329.522H748.648V295.826H770.584Z" fill="#2C91C6"/>
<defs>
<filter id="filter0_d_58_70" x="0.367676" y="0.134399" width="458.818" height="458.818" filterUnits="userSpaceOnUse" color-interpolation-filters="sRGB">
<feFlood flood-opacity="0" result="BackgroundImageFix"/>
<feColorMatrix in="SourceAlpha" type="matrix" values="0 0 0 0 0 0 0 0 0 0 0 0 0 0 0 0 0 0 127 0" result="hardAlpha"/>
<feOffset dy="15"/>
<feGaussianBlur stdDeviation="37.5"/>
<feComposite in2="hardAlpha" operator="out"/>
<feColorMatrix type="matrix" values="0 0 0 0 0.219608 0 0 0 0 0.713726 0 0 0 0 1 0 0 0 0.5 0"/>
<feBlend mode="normal" in2="BackgroundImageFix" result="effect1_dropShadow_58_70"/>
<feBlend mode="normal" in="SourceGraphic" in2="effect1_dropShadow_58_70" result="shape"/>
</filter>
</defs>
</svg>
