<svg width="250" height="250" viewBox="0 0 250 250" fill="none" xmlns="http://www.w3.org/2000/svg">
<mask id="mask0_1_301" style="mask-type:alpha" maskUnits="userSpaceOnUse" x="0" y="0" width="250" height="250">
<rect width="250" height="250" fill="#D9D9D9"/>
</mask>
<g mask="url(#mask0_1_301)">
<path d="M52.0833 229.167C46.3542 229.167 41.4479 227.128 37.3646 223.052C33.2882 218.969 31.25 214.062 31.25 208.333L31.25 62.5C31.25 56.7708 33.2882 51.868 37.3646 47.7916C41.4479 43.7083 46.3542 41.6666 52.0833 41.6666H57.5C60.2614 41.6666 62.5 39.4281 62.5 36.6666V30.8333C62.5 25.3105 66.9772 20.8333 72.5 20.8333H73.3333C78.8562 20.8333 83.3333 25.3105 83.3333 30.8333V36.6666C83.3333 39.4281 85.5719 41.6666 88.3333 41.6666L161.667 41.6666C164.428 41.6666 166.667 39.4281 166.667 36.6666V30.8333C166.667 25.3105 171.144 20.8333 176.667 20.8333H177.5C183.023 20.8333 187.5 25.3105 187.5 30.8333V36.6666C187.5 39.4281 189.739 41.6666 192.5 41.6666H197.917C203.646 41.6666 208.552 43.7083 212.635 47.7916C216.712 51.868 218.75 56.7708 218.75 62.5V94.1666C218.75 99.6895 214.273 104.167 208.75 104.167L62.0833 104.167C56.5605 104.167 52.0833 108.644 52.0833 114.167L52.0833 198.333C52.0833 203.856 56.5605 208.333 62.0833 208.333H83.75C89.2728 208.333 93.75 212.81 93.75 218.333V219.167C93.75 224.69 89.2729 229.167 83.75 229.167H52.0833ZM52.0833 73.3333C52.0833 78.8562 56.5605 83.3333 62.0833 83.3333L187.917 83.3333C193.44 83.3333 197.917 78.8562 197.917 73.3333V72.5C197.917 66.9771 193.44 62.5 187.917 62.5L62.0833 62.5C56.5605 62.5 52.0833 66.9771 52.0833 72.5L52.0833 73.3333Z" fill="#FFCB1F"/>
</g>
<mask id="mask1_1_301" style="mask-type:alpha" maskUnits="userSpaceOnUse" x="98" y="109" width="141" height="141">
<rect x="98" y="109" width="141" height="141" fill="#D9D9D9"/>
</mask>
<g mask="url(#mask1_1_301)">
<path d="M151.387 243.002C149.077 243.981 146.399 243.096 145.127 240.933L136.712 226.627C136.003 225.423 134.823 224.569 133.456 224.275L117.474 220.828C114.996 220.293 113.31 217.988 113.551 215.464L115.127 198.973C115.257 197.606 114.819 196.245 113.916 195.21L103.073 182.788C101.429 180.904 101.429 178.095 103.073 176.212L113.916 163.79C114.819 162.755 115.257 161.394 115.127 160.026L113.551 143.535C113.31 141.011 114.996 138.706 117.474 138.172L133.456 134.724C134.823 134.43 136.003 133.577 136.712 132.372L145.127 118.066C146.399 115.904 149.077 115.019 151.387 115.997L166.55 122.42C167.796 122.948 169.204 122.948 170.45 122.42L185.613 115.997C187.923 115.019 190.601 115.904 191.873 118.066L200.288 132.372C200.997 133.577 202.177 134.43 203.544 134.724L219.526 138.172C222.004 138.706 223.69 141.011 223.449 143.535L221.873 160.026C221.743 161.394 222.181 162.755 223.084 163.79L233.927 176.212C235.571 178.095 235.571 180.904 233.927 182.788L223.084 195.21C222.181 196.245 221.743 197.606 221.873 198.973L223.449 215.464C223.69 217.988 222.004 220.293 219.526 220.828L203.544 224.275C202.177 224.569 200.997 225.423 200.288 226.627L191.873 240.933C190.601 243.096 187.923 243.981 185.613 243.002L170.45 236.579C169.204 236.051 167.796 236.051 166.55 236.579L151.387 243.002ZM151.688 221.219C152.984 223.394 155.701 224.257 158.014 223.229L166.489 219.462C167.771 218.893 169.232 218.887 170.517 219.447L179.231 223.243C181.567 224.261 184.295 223.359 185.564 221.15L190.183 213.109C190.874 211.907 192.032 211.046 193.381 210.73L202.784 208.533C205.196 207.97 206.832 205.725 206.63 203.257L205.832 193.507C205.722 192.158 206.163 190.822 207.055 189.804L213.234 182.756C214.872 180.887 214.889 178.098 213.273 176.21L207.013 168.891C206.147 167.879 205.721 166.562 205.829 165.234L206.623 155.527C206.828 153.024 205.145 150.758 202.691 150.23L193.395 148.232C192.037 147.94 190.862 147.097 190.151 145.903L185.312 137.781C184.016 135.606 181.299 134.742 178.986 135.771L170.511 139.537C169.229 140.107 167.768 140.112 166.483 139.552L157.769 135.756C155.433 134.738 152.705 135.64 151.436 137.849L146.843 145.845C146.137 147.073 144.944 147.945 143.558 148.242L134.309 150.23C131.855 150.758 130.172 153.024 130.377 155.527L131.171 165.234C131.279 166.562 130.853 167.879 129.987 168.891L123.727 176.21C122.111 178.098 122.128 180.887 123.766 182.756L129.947 189.807C130.838 190.823 131.28 192.156 131.171 193.503L130.37 203.479C130.169 205.978 131.851 208.24 134.303 208.767L143.605 210.767C144.963 211.059 146.138 211.903 146.849 213.096L151.688 221.219ZM158.796 197.702C160.748 199.654 163.914 199.654 165.867 197.702L192.898 170.67C194.84 168.728 194.853 165.584 192.926 163.627L190.699 161.364C188.747 159.381 185.551 159.373 183.59 161.347L165.867 179.174C163.916 181.137 160.742 181.142 158.785 179.185L153.382 173.782C151.43 171.829 148.264 171.829 146.311 173.782L144.129 175.964C142.177 177.917 142.177 181.083 144.129 183.035L158.796 197.702Z" fill="#FFCB1F"/>
</g>
</svg>
