<svg width="400" height="342" viewBox="0 0 400 342" fill="none" xmlns="http://www.w3.org/2000/svg">
<g clip-path="url(#clip0_480_752)">
<path d="M395.645 155.226C404.513 169.466 370.686 206.926 345.481 222.621C320.275 238.316 313.236 226.303 304.369 212.063C295.502 197.822 289.975 184.631 315.18 168.936C340.385 153.241 386.778 140.986 395.645 155.226Z" fill="#2C91C6" stroke="#257AA8" stroke-width="4"/>
<path d="M366.487 248.495C365.407 251.297 362.573 253.606 358.046 255.278C353.559 256.934 347.744 257.833 341.329 258.045C328.493 258.467 313.754 256.124 303.508 252.172C293.318 248.242 290.063 243.712 289.465 239C289.149 236.499 289.543 233.722 290.413 230.595C291.244 227.606 292.464 224.445 293.784 221.022C293.848 220.858 293.911 220.694 293.974 220.529C296.76 213.308 299.54 207.42 303.901 204.178C308.032 201.108 314.062 200.113 324.236 204.037C334.472 207.984 346.47 215.997 355.204 224.776C359.568 229.163 363.031 233.657 365.066 237.838C367.114 242.045 367.584 245.65 366.487 248.495Z" fill="#2C91C6" stroke="url(#paint0_linear_480_752)" stroke-width="4"/>
<path d="M330.102 125.012C313.512 133.313 316.939 101.347 305.589 78.6616C294.239 55.9764 272.409 51.1622 289 42.8612C305.591 34.5603 328.241 46.221 339.591 68.9063C350.942 91.5915 339.591 68.9063 330.102 125.012Z" fill="#2C91C6" stroke="#257AA8" stroke-width="4"/>
<path d="M347.147 196.5C347.147 284.866 282.866 278.5 194.5 278.5C106.135 278.5 40.6475 284.866 40.6475 196.5C40.6475 108.134 104.282 10 192.647 10C281.013 10 347.147 108.134 347.147 196.5Z" fill="#2C91C6" stroke="#257AA8" stroke-width="4"/>
<path d="M313.647 201.869C313.647 271.457 262.482 267 193 267C123.519 267 72.6475 271.457 72.6475 201.869C72.6475 132.281 122.683 55 192.165 55C261.646 55 313.647 132.281 313.647 201.869Z" fill="#F8F8F8"/>
<rect x="157.535" y="153.305" width="106.156" height="99.4375" fill="black"/>
<path d="M118.75 105.75V256.25H269.25V105.75H118.75ZM199.375 222.656C199.375 237.306 190.721 244.449 178.194 244.449C166.88 244.449 160.312 238.59 156.98 231.518L168.496 224.548C170.716 228.488 172.403 231.821 177.25 231.821C181.281 231.821 184.594 230.003 184.594 222.932V175.625H199.375V222.656ZM232.75 244.113C219.619 244.113 211.133 238.187 206.991 230.003L218.523 223.328C221.547 228.28 225.494 231.579 232.465 231.579C238.324 231.579 241.727 228.985 241.727 224.944C241.727 220.096 238.223 218.38 231.756 215.538L228.222 214.019C218.016 209.679 211.25 204.223 211.25 192.704C211.25 182.099 219.33 174.352 231.958 174.352C240.951 174.352 247.411 177.147 252.063 185.33L241.031 192.422C238.606 188.078 235.992 186.375 231.941 186.375C227.799 186.375 225.172 189.002 225.172 192.422C225.172 196.665 227.799 198.381 233.859 201.008L237.393 202.524C249.416 207.677 256.185 212.938 256.185 224.749C256.189 237.481 246.188 244.113 232.75 244.113Z" fill="#F7E018"/>
<path d="M101.54 260.087C100.494 255.674 102.358 251.02 106.836 247.061C111.293 243.12 118.144 240.08 126.359 239.002C134.574 237.923 142.409 239.036 148.408 241.605C154.435 244.185 158.325 248.084 159.37 252.497C160.635 257.837 160.831 261.219 159.269 263.604C157.706 265.989 153.991 267.945 145.539 269.054C137.183 270.151 126.419 270.139 117.501 268.567C113.033 267.779 109.165 266.623 106.325 265.11C103.475 263.593 101.968 261.895 101.54 260.087Z" fill="#2C91C6" stroke="url(#paint1_linear_480_752)" stroke-width="4"/>
<path d="M286.662 260.087C287.707 255.674 285.843 251.02 281.365 247.061C276.909 243.12 270.057 240.08 261.842 239.002C253.628 237.923 245.792 239.036 239.793 241.605C233.766 244.185 229.876 248.084 228.831 252.497C227.566 257.837 227.37 261.219 228.933 263.604C230.495 265.989 234.21 267.945 242.662 269.054C251.018 270.151 261.782 270.139 270.7 268.567C275.169 267.779 279.036 266.623 281.877 265.11C284.726 263.593 286.233 261.895 286.662 260.087Z" fill="#2C91C6" stroke="url(#paint2_linear_480_752)" stroke-width="4"/>
<circle cx="109" cy="73" r="10" fill="#101315"/>
<circle cx="278" cy="73" r="10" fill="#101315"/>
<path d="M47.948 182.589C49.3661 190.631 55.6647 197.291 65.2183 201.399C74.7531 205.498 87.2984 206.928 100.567 204.589C113.836 202.249 125.136 196.615 132.694 189.501C140.266 182.373 143.907 173.961 142.489 165.919C141.071 157.877 134.772 151.217 125.219 147.11C115.684 143.01 103.139 141.58 89.8698 143.92C76.6008 146.259 65.3012 151.894 57.7436 159.007C50.1711 166.135 46.5299 174.547 47.948 182.589Z" fill="#2C91C6" stroke="url(#paint3_linear_480_752)" stroke-width="4"/>
<path d="M340.489 182.589C339.07 190.631 332.772 197.291 323.218 201.399C313.683 205.498 301.138 206.928 287.869 204.589C274.6 202.249 263.301 196.615 255.743 189.501C248.17 182.373 244.529 173.961 245.947 165.919C247.365 157.877 253.664 151.217 263.218 147.11C272.752 143.01 285.298 141.58 298.567 143.92C311.836 146.259 323.135 151.894 330.693 159.007C338.265 166.135 341.907 174.547 340.489 182.589Z" fill="#2C91C6" stroke="url(#paint4_linear_480_752)" stroke-width="4"/>
<path d="M179.967 72.6358C179.765 71.5497 178.722 70.8323 177.636 71.0334C176.55 71.2346 175.832 72.2781 176.033 73.3642L179.967 72.6358ZM209.971 73.3398C210.159 72.2513 209.428 71.2168 208.34 71.0291C207.251 70.8414 206.217 71.5717 206.029 72.6602L209.971 73.3398ZM178 73C176.033 73.3642 176.034 73.3651 176.034 73.366C176.034 73.3664 176.034 73.3674 176.034 73.3682C176.034 73.3698 176.035 73.3715 176.035 73.3735C176.036 73.3775 176.037 73.3822 176.038 73.3878C176.04 73.399 176.043 73.4134 176.046 73.431C176.053 73.4661 176.063 73.5139 176.076 73.5736C176.102 73.6928 176.14 73.8596 176.192 74.0673C176.296 74.4823 176.457 75.0633 176.691 75.7566C177.157 77.1372 177.923 78.9964 179.125 80.8863C181.546 84.691 185.822 88.7145 192.92 88.9984L193.08 85.0016C187.678 84.7855 184.454 81.809 182.5 78.7387C181.515 77.1911 180.874 75.644 180.481 74.4778C180.285 73.8977 180.153 73.42 180.072 73.0948C180.031 72.9324 180.003 72.8086 179.986 72.7299C179.978 72.6905 179.972 72.6625 179.969 72.6465C179.967 72.6385 179.966 72.6336 179.966 72.6318C179.966 72.6309 179.966 72.6307 179.966 72.6314C179.966 72.6317 179.966 72.6323 179.966 72.633C179.966 72.6334 179.966 72.6341 179.966 72.6343C179.966 72.635 179.967 72.6358 178 73ZM192.92 88.9984C200.134 89.287 204.471 85.1758 206.892 81.234C208.094 79.2755 208.857 77.3189 209.32 75.8638C209.553 75.1323 209.712 74.5175 209.815 74.0788C209.867 73.8592 209.904 73.683 209.93 73.5576C209.942 73.4948 209.952 73.4447 209.959 73.4081C209.962 73.3898 209.965 73.3749 209.967 73.3635C209.968 73.3578 209.969 73.3529 209.969 73.349C209.97 73.347 209.97 73.3453 209.97 73.3437C209.97 73.343 209.971 73.342 209.971 73.3416C209.971 73.3407 209.971 73.3398 208 73C206.029 72.6602 206.029 72.6594 206.029 72.6587C206.029 72.6586 206.029 72.6579 206.03 72.6576C206.03 72.6569 206.03 72.6565 206.03 72.6563C206.03 72.6559 206.03 72.6563 206.03 72.6575C206.029 72.66 206.028 72.6659 206.026 72.6751C206.023 72.6933 206.017 72.7246 206.008 72.7679C205.991 72.8546 205.962 72.9894 205.921 73.1653C205.838 73.5177 205.705 74.0317 205.508 74.6519C205.111 75.8998 204.468 77.537 203.483 79.141C201.529 82.3242 198.366 85.213 193.08 85.0016L192.92 88.9984Z" fill="#101315"/>
<ellipse cx="301.088" cy="94.5569" rx="10" ry="2.5" transform="rotate(-40.743 301.088 94.5569)" fill="#FF4365"/>
<ellipse cx="294.208" cy="88.4207" rx="10" ry="2.5" transform="rotate(-40.743 294.208 88.4207)" fill="#FF4365"/>
<ellipse cx="94.088" cy="94.5564" rx="10" ry="2.5" transform="rotate(-40.743 94.088 94.5564)" fill="#FF4365"/>
<ellipse cx="87.2081" cy="88.4207" rx="10" ry="2.5" transform="rotate(-40.743 87.2081 88.4207)" fill="#FF4365"/>
</g>
<defs>
<linearGradient id="paint0_linear_480_752" x1="358.103" y1="244.818" x2="317.67" y2="220.016" gradientUnits="userSpaceOnUse">
<stop stop-color="#257AA8"/>
<stop offset="1" stop-color="#257AA8" stop-opacity="0"/>
</linearGradient>
<linearGradient id="paint1_linear_480_752" x1="130" y1="190.201" x2="131.377" y2="269.745" gradientUnits="userSpaceOnUse">
<stop stop-color="#257AA8"/>
<stop offset="1" stop-color="#257AA8" stop-opacity="0"/>
</linearGradient>
<linearGradient id="paint2_linear_480_752" x1="258.201" y1="190.201" x2="275.932" y2="265.852" gradientUnits="userSpaceOnUse">
<stop stop-color="#257AA8"/>
<stop offset="1" stop-color="#257AA8" stop-opacity="0"/>
</linearGradient>
<linearGradient id="paint3_linear_480_752" x1="143.384" y1="161.684" x2="75.3954" y2="153.356" gradientUnits="userSpaceOnUse">
<stop stop-color="#257AA8"/>
<stop offset="1" stop-color="#257AA8" stop-opacity="0"/>
</linearGradient>
<linearGradient id="paint4_linear_480_752" x1="245.053" y1="161.684" x2="308.605" y2="153.3" gradientUnits="userSpaceOnUse">
<stop stop-color="#257AA8"/>
<stop offset="1" stop-color="#257AA8" stop-opacity="0"/>
</linearGradient>
<clipPath id="clip0_480_752">
<rect width="400" height="342" fill="white"/>
</clipPath>
</defs>
</svg>
