<?xml version="1.0" standalone="no"?>
<!DOCTYPE svg PUBLIC "-//W3C//DTD SVG 20010904//EN"
 "http://www.w3.org/TR/2001/REC-SVG-20010904/DTD/svg10.dtd">
<svg version="1.0" xmlns="http://www.w3.org/2000/svg"
 width="316.000000pt" height="316.000000pt" viewBox="0 0 316.000000 316.000000"
 preserveAspectRatio="xMidYMid meet">
<metadata>
Created by potrace 1.11, written by Peter Selinger 2001-2013
</metadata>
<g transform="translate(0.000000,316.000000) scale(0.100000,-0.100000)"
fill="#000000" stroke="none">
<path d="M1470 3146 c-98 -26 -141 -57 -320 -233 -376 -370 -1052 -1051 -1071
-1079 -24 -36 -46 -85 -64 -143 -16 -51 -13 -186 5 -246 29 -95 76 -147 692
-761 527 -525 621 -614 670 -637 73 -35 134 -46 223 -43 82 4 151 26 220 71
27 18 321 304 652 636 649 652 646 648 673 781 12 61 8 161 -9 218 -30 98 -50
120 -680 751 -659 659 -651 652 -772 684 -59 16 -161 16 -219 1z"/>
</g>
</svg>
