<svg width="630" height="860" viewBox="0 0 630 860" fill="none" xmlns="http://www.w3.org/2000/svg">
<g filter="url(#filter0_d_3701_137)">
<g filter="url(#filter1_d_3701_137)">
<path d="M216.709 802.091C205.421 786.47 168.31 761.542 164.227 655.353C163.103 626.127 189.704 604.452 218.673 608.479L281.167 617.164C299.261 619.679 313.042 634.721 313.874 652.97C315.697 692.92 316.392 723.405 313.526 766.136C312.845 776.279 308.937 786.022 301.932 793.389C294.178 801.542 287.159 807.624 279.775 812.337C260.338 824.745 235.466 817.161 217.406 802.822C217.137 802.609 216.911 802.37 216.709 802.091Z" fill="#D9D9D9"/>
</g>
<g filter="url(#filter2_d_3701_137)">
<path d="M424.751 802.091C436.039 786.47 473.15 761.542 477.233 655.353C478.357 626.127 451.756 604.452 422.788 608.479L360.294 617.164C342.199 619.679 328.419 634.721 327.586 652.97C325.764 692.92 325.068 723.405 327.935 766.136C328.615 776.279 332.524 786.022 339.529 793.389C347.283 801.542 354.301 807.624 361.685 812.337C381.122 824.745 405.994 817.161 424.054 802.822C424.323 802.609 424.55 802.37 424.751 802.091Z" fill="#D9D9D9"/>
</g>
<g filter="url(#filter3_d_3701_137)">
<path d="M508.5 469.887C530.255 585.857 464 672.5 311 672.5C166.5 672.5 97.3604 585.97 118.5 469.887C160 242.001 193.236 242.001 317.5 242.001C441.764 242.001 463.5 230.001 508.5 469.887Z" fill="#D9D9D9"/>
</g>
<g filter="url(#filter4_d_3701_137)">
<path d="M523.5 167.5C523.5 242.058 448.816 272 324.552 272C200.288 272 117 248.558 117 174C117 70.5 200.288 39 324.552 39C448.816 39 523.5 80.5 523.5 167.5Z" fill="#D9D9D9"/>
</g>
<circle cx="221.5" cy="163.5" r="12.5" fill="black"/>
<circle cx="408.5" cy="163.5" r="12.5" fill="black"/>
<path d="M408 164.5C334.645 168.053 293.994 169.177 223 164.5" stroke="black"/>
<g filter="url(#filter5_d_3701_137)">
<path d="M200 565C200 553.954 208.954 545 220 545H420C431.046 545 440 553.954 440 565V609C440 620.046 431.046 629 420 629H220C208.954 629 200 620.046 200 609V565Z" fill="#3C3C3C"/>
<path d="M200.5 565C200.5 554.23 209.23 545.5 220 545.5H420C430.77 545.5 439.5 554.23 439.5 565V609C439.5 619.77 430.77 628.5 420 628.5H220C209.23 628.5 200.5 619.77 200.5 609V565Z" stroke="#3C3C3C"/>
</g>
<path d="M386.613 565.159C385.863 565.159 385.194 565.03 384.607 564.773C384.024 564.515 383.56 564.157 383.215 563.699C382.874 563.237 382.689 562.701 382.658 562.091H384.09C384.121 562.466 384.249 562.79 384.477 563.062C384.704 563.331 385.001 563.54 385.369 563.688C385.736 563.835 386.143 563.909 386.59 563.909C387.09 563.909 387.533 563.822 387.92 563.648C388.306 563.473 388.609 563.231 388.829 562.92C389.049 562.61 389.158 562.25 389.158 561.841C389.158 561.413 389.052 561.036 388.84 560.71C388.628 560.381 388.317 560.123 387.908 559.938C387.499 559.752 386.999 559.659 386.408 559.659H385.477V558.409H386.408C386.871 558.409 387.276 558.326 387.624 558.159C387.977 557.992 388.251 557.758 388.448 557.455C388.649 557.152 388.749 556.795 388.749 556.386C388.749 555.992 388.662 555.65 388.488 555.358C388.314 555.066 388.067 554.839 387.749 554.676C387.435 554.513 387.064 554.432 386.636 554.432C386.234 554.432 385.855 554.506 385.499 554.653C385.147 554.797 384.859 555.008 384.636 555.284C384.412 555.557 384.291 555.886 384.272 556.273H382.908C382.931 555.663 383.115 555.129 383.46 554.67C383.804 554.208 384.255 553.848 384.812 553.591C385.372 553.333 385.988 553.205 386.658 553.205C387.378 553.205 387.996 553.35 388.511 553.642C389.026 553.93 389.422 554.311 389.698 554.784C389.975 555.258 390.113 555.769 390.113 556.318C390.113 556.973 389.941 557.532 389.596 557.994C389.255 558.456 388.791 558.777 388.204 558.955V559.045C388.939 559.167 389.513 559.479 389.925 559.983C390.338 560.483 390.545 561.102 390.545 561.841C390.545 562.473 390.372 563.042 390.028 563.545C389.687 564.045 389.221 564.439 388.63 564.727C388.039 565.015 387.367 565.159 386.613 565.159ZM396.3 562.955V555.455H397.573V562.955H396.3ZM393.187 559.841V558.568H400.687V559.841H393.187ZM403.143 562.614V561.455L408.256 553.364H409.097V555.159H408.529L404.665 561.273V561.364H411.552V562.614H403.143ZM408.62 565V562.261V561.722V553.364H409.961V565H408.62ZM418.749 558.114V556.886H425.749V558.114H418.749ZM418.749 561.477V560.25H425.749V561.477H418.749Z" fill="#A5A5A5"/>
<path d="M399.491 619L420.31 577.818V577.455H396.31V572.455H426.128V577.727L405.401 619H399.491Z" fill="#EEEEEE"/>
<g filter="url(#filter6_d_3701_137)">
<rect x="200" y="443" width="40" height="40" rx="17" fill="#CECECE"/>
<rect x="200.5" y="443.5" width="39" height="39" rx="16.5" stroke="#CECECE"/>
</g>
<g filter="url(#filter7_d_3701_137)">
<rect x="263" y="443" width="40" height="40" rx="17" fill="#CECECE"/>
<rect x="263.5" y="443.5" width="39" height="39" rx="16.5" stroke="#CECECE"/>
</g>
<g filter="url(#filter8_d_3701_137)">
<rect x="326" y="443" width="40" height="40" rx="17" fill="#CECECE"/>
<rect x="326.5" y="443.5" width="39" height="39" rx="16.5" stroke="#CECECE"/>
</g>
<g filter="url(#filter9_d_3701_137)">
<rect x="388" y="443" width="40" height="40" rx="17" fill="#FCFCFC"/>
<rect x="388.5" y="443.5" width="39" height="39" rx="16.5" stroke="#CECECE"/>
</g>
<g filter="url(#filter10_d_3701_137)">
<rect x="200" y="296" width="40" height="40" rx="17" fill="#FFD0D0"/>
<rect x="200.5" y="296.5" width="39" height="39" rx="16.5" stroke="#FFD9D9"/>
</g>
<g filter="url(#filter11_d_3701_137)">
<rect x="263" y="296" width="40" height="40" rx="17" fill="#FFD0D0"/>
<rect x="263.5" y="296.5" width="39" height="39" rx="16.5" stroke="#FFD9D9"/>
</g>
<g filter="url(#filter12_d_3701_137)">
<rect x="326" y="296" width="40" height="40" rx="17" fill="#FCFCFC"/>
<rect x="326.5" y="296.5" width="39" height="39" rx="16.5" stroke="#CECECE"/>
</g>
<g filter="url(#filter13_d_3701_137)">
<rect x="388" y="296" width="40" height="40" rx="17" fill="#FCFCFC"/>
<rect x="388.5" y="296.5" width="39" height="39" rx="16.5" stroke="#CECECE"/>
</g>
<g filter="url(#filter14_d_3701_137)">
<rect x="200" y="345" width="40" height="40" rx="17" fill="#CECECE"/>
<rect x="200.5" y="345.5" width="39" height="39" rx="16.5" stroke="#CECECE"/>
</g>
<g filter="url(#filter15_d_3701_137)">
<rect x="263" y="345" width="40" height="40" rx="17" fill="#CECECE"/>
<rect x="263.5" y="345.5" width="39" height="39" rx="16.5" stroke="#CECECE"/>
</g>
<g filter="url(#filter16_d_3701_137)">
<rect x="326" y="345" width="40" height="40" rx="17" fill="#CECECE"/>
<rect x="326.5" y="345.5" width="39" height="39" rx="16.5" stroke="#CECECE"/>
</g>
<g filter="url(#filter17_d_3701_137)">
<rect x="388" y="345" width="40" height="40" rx="17" fill="#FCFCFC"/>
<rect x="388.5" y="345.5" width="39" height="39" rx="16.5" stroke="#CECECE"/>
</g>
<g filter="url(#filter18_d_3701_137)">
<rect x="200" y="394" width="40" height="40" rx="17" fill="#CECECE"/>
<rect x="200.5" y="394.5" width="39" height="39" rx="16.5" stroke="#CECECE"/>
</g>
<g filter="url(#filter19_d_3701_137)">
<rect x="263" y="394" width="40" height="40" rx="17" fill="#CECECE"/>
<rect x="263.5" y="394.5" width="39" height="39" rx="16.5" stroke="#CECECE"/>
</g>
<g filter="url(#filter20_d_3701_137)">
<rect x="326" y="394" width="40" height="40" rx="17" fill="#CECECE"/>
<rect x="326.5" y="394.5" width="39" height="39" rx="16.5" stroke="#CECECE"/>
</g>
<g filter="url(#filter21_d_3701_137)">
<rect x="388" y="394" width="40" height="40" rx="17" fill="#FCFCFC"/>
<rect x="388.5" y="394.5" width="39" height="39" rx="16.5" stroke="#CECECE"/>
</g>
<g filter="url(#filter22_d_3701_137)">
<rect x="200" y="492" width="40" height="40" rx="17" fill="#CECECE"/>
<rect x="200.5" y="492.5" width="39" height="39" rx="16.5" stroke="#CECECE"/>
</g>
<g filter="url(#filter23_d_3701_137)">
<rect x="263" y="492" width="40" height="40" rx="17" fill="#CECECE"/>
<rect x="263.5" y="492.5" width="39" height="39" rx="16.5" stroke="#CECECE"/>
</g>
<g filter="url(#filter24_d_3701_137)">
<rect x="325" y="492" width="103" height="40" rx="17" fill="#FCFCFC"/>
<rect x="325.5" y="492.5" width="102" height="39" rx="16.5" stroke="#CECECE"/>
</g>
<path d="M287.952 314H286.543C286.46 313.595 286.314 313.239 286.106 312.932C285.901 312.625 285.651 312.367 285.356 312.159C285.064 311.947 284.74 311.788 284.384 311.682C284.028 311.576 283.657 311.523 283.271 311.523C282.566 311.523 281.928 311.701 281.356 312.057C280.788 312.413 280.335 312.938 279.998 313.631C279.665 314.324 279.498 315.174 279.498 316.182C279.498 317.189 279.665 318.04 279.998 318.733C280.335 319.426 280.788 319.951 281.356 320.307C281.928 320.663 282.566 320.841 283.271 320.841C283.657 320.841 284.028 320.788 284.384 320.682C284.74 320.576 285.064 320.419 285.356 320.21C285.651 319.998 285.901 319.739 286.106 319.432C286.314 319.121 286.46 318.765 286.543 318.364H287.952C287.846 318.958 287.653 319.491 287.373 319.96C287.093 320.43 286.744 320.83 286.327 321.159C285.911 321.485 285.443 321.733 284.924 321.903C284.409 322.074 283.858 322.159 283.271 322.159C282.278 322.159 281.396 321.917 280.623 321.432C279.85 320.947 279.242 320.258 278.799 319.364C278.356 318.47 278.134 317.409 278.134 316.182C278.134 314.955 278.356 313.894 278.799 313C279.242 312.106 279.85 311.417 280.623 310.932C281.396 310.447 282.278 310.205 283.271 310.205C283.858 310.205 284.409 310.29 284.924 310.46C285.443 310.631 285.911 310.881 286.327 311.21C286.744 311.536 287.093 311.934 287.373 312.403C287.653 312.869 287.846 313.402 287.952 314Z" fill="black"/>
<path d="M220 518.159C219.144 518.159 218.415 517.926 217.812 517.46C217.21 516.991 216.75 516.311 216.432 515.42C216.114 514.527 215.955 513.447 215.955 512.182C215.955 510.924 216.114 509.85 216.432 508.96C216.754 508.066 217.216 507.384 217.818 506.915C218.424 506.441 219.152 506.205 220 506.205C220.848 506.205 221.574 506.441 222.176 506.915C222.782 507.384 223.244 508.066 223.562 508.96C223.884 509.85 224.045 510.924 224.045 512.182C224.045 513.447 223.886 514.527 223.568 515.42C223.25 516.311 222.79 516.991 222.188 517.46C221.585 517.926 220.856 518.159 220 518.159ZM220 516.909C220.848 516.909 221.508 516.5 221.977 515.682C222.447 514.864 222.682 513.697 222.682 512.182C222.682 511.174 222.574 510.316 222.358 509.608C222.146 508.9 221.839 508.36 221.438 507.989C221.04 507.617 220.561 507.432 220 507.432C219.159 507.432 218.502 507.847 218.028 508.676C217.555 509.502 217.318 510.67 217.318 512.182C217.318 513.189 217.424 514.045 217.636 514.75C217.848 515.455 218.153 515.991 218.551 516.358C218.953 516.725 219.436 516.909 220 516.909Z" fill="black"/>
<path d="M346.076 420.159C345.599 420.152 345.121 420.061 344.644 419.886C344.167 419.712 343.731 419.419 343.337 419.006C342.943 418.589 342.627 418.027 342.388 417.318C342.15 416.606 342.031 415.712 342.031 414.636C342.031 413.606 342.127 412.693 342.32 411.898C342.513 411.098 342.794 410.426 343.161 409.881C343.529 409.331 343.972 408.915 344.491 408.631C345.013 408.347 345.603 408.205 346.258 408.205C346.909 408.205 347.489 408.335 347.996 408.597C348.508 408.854 348.924 409.214 349.246 409.676C349.568 410.138 349.777 410.67 349.871 411.273H348.485C348.356 410.75 348.106 410.316 347.735 409.972C347.364 409.627 346.871 409.455 346.258 409.455C345.356 409.455 344.646 409.847 344.127 410.631C343.612 411.415 343.353 412.515 343.349 413.932H343.44C343.652 413.61 343.904 413.335 344.195 413.108C344.491 412.877 344.817 412.699 345.173 412.574C345.529 412.449 345.906 412.386 346.303 412.386C346.97 412.386 347.58 412.553 348.133 412.886C348.686 413.216 349.129 413.672 349.462 414.256C349.796 414.835 349.962 415.5 349.962 416.25C349.962 416.97 349.801 417.629 349.479 418.227C349.157 418.822 348.705 419.295 348.121 419.648C347.542 419.996 346.86 420.167 346.076 420.159ZM346.076 418.909C346.553 418.909 346.981 418.79 347.36 418.551C347.743 418.312 348.044 417.992 348.263 417.591C348.487 417.189 348.599 416.742 348.599 416.25C348.599 415.769 348.491 415.331 348.275 414.938C348.063 414.54 347.769 414.223 347.394 413.989C347.023 413.754 346.599 413.636 346.121 413.636C345.762 413.636 345.426 413.708 345.116 413.852C344.805 413.992 344.532 414.186 344.298 414.432C344.067 414.678 343.885 414.96 343.752 415.278C343.62 415.593 343.553 415.924 343.553 416.273C343.553 416.735 343.661 417.167 343.877 417.568C344.097 417.97 344.396 418.294 344.775 418.54C345.157 418.786 345.591 418.909 346.076 418.909Z" fill="black"/>
<path d="M282.974 420.159C282.307 420.159 281.707 420.027 281.173 419.761C280.638 419.496 280.21 419.133 279.888 418.67C279.567 418.208 279.39 417.682 279.36 417.091H280.724C280.777 417.617 281.015 418.053 281.44 418.398C281.868 418.739 282.379 418.909 282.974 418.909C283.451 418.909 283.875 418.797 284.246 418.574C284.621 418.35 284.915 418.044 285.127 417.653C285.343 417.259 285.451 416.814 285.451 416.318C285.451 415.811 285.339 415.358 285.116 414.96C284.896 414.559 284.593 414.242 284.207 414.011C283.82 413.78 283.379 413.663 282.883 413.659C282.527 413.655 282.161 413.71 281.786 413.824C281.411 413.934 281.103 414.076 280.86 414.25L279.542 414.091L280.246 408.364H286.292V409.614H281.428L281.019 413.045H281.087C281.326 412.856 281.625 412.699 281.985 412.574C282.345 412.449 282.72 412.386 283.11 412.386C283.822 412.386 284.457 412.557 285.013 412.898C285.574 413.235 286.013 413.697 286.332 414.284C286.654 414.871 286.815 415.542 286.815 416.295C286.815 417.038 286.648 417.701 286.315 418.284C285.985 418.864 285.531 419.322 284.951 419.659C284.371 419.992 283.712 420.159 282.974 420.159Z" fill="black"/>
<path d="M215.799 417.614V416.455L220.913 408.364H221.754V410.159H221.185L217.322 416.273V416.364H224.208V417.614H215.799ZM221.276 420V417.261V416.722V408.364H222.617V420H221.276Z" fill="black"/>
<path d="M346.043 469.159C345.293 469.159 344.624 469.03 344.037 468.773C343.454 468.515 342.99 468.157 342.645 467.699C342.304 467.237 342.118 466.701 342.088 466.091H343.52C343.55 466.466 343.679 466.79 343.906 467.062C344.134 467.331 344.431 467.54 344.798 467.688C345.166 467.835 345.573 467.909 346.02 467.909C346.52 467.909 346.963 467.822 347.349 467.648C347.736 467.473 348.039 467.231 348.259 466.92C348.478 466.61 348.588 466.25 348.588 465.841C348.588 465.413 348.482 465.036 348.27 464.71C348.058 464.381 347.747 464.123 347.338 463.938C346.929 463.752 346.429 463.659 345.838 463.659H344.906V462.409H345.838C346.3 462.409 346.705 462.326 347.054 462.159C347.406 461.992 347.681 461.758 347.878 461.455C348.079 461.152 348.179 460.795 348.179 460.386C348.179 459.992 348.092 459.65 347.918 459.358C347.743 459.066 347.497 458.839 347.179 458.676C346.865 458.513 346.493 458.432 346.065 458.432C345.664 458.432 345.285 458.506 344.929 458.653C344.577 458.797 344.289 459.008 344.065 459.284C343.842 459.557 343.721 459.886 343.702 460.273H342.338C342.361 459.663 342.545 459.129 342.889 458.67C343.234 458.208 343.685 457.848 344.241 457.591C344.802 457.333 345.418 457.205 346.088 457.205C346.808 457.205 347.425 457.35 347.94 457.642C348.455 457.93 348.851 458.311 349.128 458.784C349.404 459.258 349.543 459.769 349.543 460.318C349.543 460.973 349.37 461.532 349.026 461.994C348.685 462.456 348.221 462.777 347.634 462.955V463.045C348.368 463.167 348.942 463.479 349.355 463.983C349.768 464.483 349.974 465.102 349.974 465.841C349.974 466.473 349.802 467.042 349.457 467.545C349.116 468.045 348.651 468.439 348.06 468.727C347.469 469.015 346.796 469.159 346.043 469.159Z" fill="black"/>
<path d="M279.361 469V467.977L283.202 463.773C283.652 463.28 284.024 462.852 284.315 462.489C284.607 462.121 284.823 461.777 284.963 461.455C285.107 461.129 285.179 460.788 285.179 460.432C285.179 460.023 285.08 459.669 284.884 459.369C284.69 459.07 284.425 458.839 284.088 458.676C283.751 458.513 283.372 458.432 282.952 458.432C282.505 458.432 282.115 458.525 281.781 458.71C281.452 458.892 281.196 459.148 281.014 459.477C280.836 459.807 280.747 460.193 280.747 460.636H279.406C279.406 459.955 279.563 459.356 279.878 458.841C280.192 458.326 280.62 457.924 281.162 457.636C281.707 457.348 282.319 457.205 282.997 457.205C283.679 457.205 284.283 457.348 284.81 457.636C285.336 457.924 285.749 458.312 286.048 458.801C286.348 459.29 286.497 459.833 286.497 460.432C286.497 460.86 286.42 461.278 286.264 461.688C286.113 462.093 285.848 462.545 285.469 463.045C285.094 463.542 284.573 464.148 283.906 464.864L281.293 467.659V467.75H286.702V469H279.361Z" fill="black"/>
<path d="M221.577 457.364V469H220.168V458.841H220.099L217.259 460.727V459.295L220.168 457.364H221.577Z" fill="black"/>
<path d="M345.917 359.205C346.394 359.208 346.871 359.299 347.349 359.477C347.826 359.655 348.262 359.951 348.656 360.364C349.049 360.773 349.366 361.331 349.604 362.04C349.843 362.748 349.962 363.636 349.962 364.705C349.962 365.739 349.864 366.657 349.667 367.46C349.474 368.259 349.193 368.934 348.826 369.483C348.462 370.032 348.019 370.449 347.496 370.733C346.978 371.017 346.39 371.159 345.735 371.159C345.084 371.159 344.502 371.03 343.991 370.773C343.483 370.511 343.067 370.15 342.741 369.688C342.419 369.222 342.212 368.682 342.121 368.068H343.508C343.633 368.602 343.881 369.044 344.252 369.392C344.627 369.737 345.121 369.909 345.735 369.909C346.633 369.909 347.341 369.517 347.86 368.733C348.383 367.949 348.644 366.841 348.644 365.409H348.553C348.341 365.727 348.089 366.002 347.798 366.233C347.506 366.464 347.182 366.642 346.826 366.767C346.47 366.892 346.091 366.955 345.69 366.955C345.023 366.955 344.411 366.79 343.854 366.46C343.301 366.127 342.858 365.67 342.525 365.091C342.195 364.508 342.031 363.841 342.031 363.091C342.031 362.379 342.19 361.727 342.508 361.136C342.83 360.542 343.281 360.068 343.86 359.716C344.443 359.364 345.129 359.193 345.917 359.205ZM345.917 360.455C345.44 360.455 345.01 360.574 344.627 360.812C344.248 361.047 343.947 361.366 343.724 361.767C343.504 362.165 343.394 362.606 343.394 363.091C343.394 363.576 343.5 364.017 343.712 364.415C343.928 364.809 344.222 365.123 344.593 365.358C344.968 365.589 345.394 365.705 345.871 365.705C346.231 365.705 346.567 365.634 346.877 365.494C347.188 365.35 347.459 365.155 347.69 364.909C347.924 364.659 348.108 364.377 348.241 364.062C348.373 363.744 348.44 363.413 348.44 363.068C348.44 362.614 348.33 362.187 348.11 361.79C347.894 361.392 347.595 361.07 347.212 360.824C346.834 360.578 346.402 360.455 345.917 360.455Z" fill="black"/>
<path d="M283.002 371.159C282.222 371.159 281.532 371.021 280.934 370.744C280.339 370.464 279.875 370.08 279.542 369.591C279.209 369.098 279.044 368.538 279.048 367.909C279.044 367.417 279.14 366.962 279.337 366.545C279.534 366.125 279.803 365.775 280.144 365.494C280.489 365.21 280.873 365.03 281.298 364.955V364.886C280.741 364.742 280.298 364.43 279.968 363.949C279.638 363.464 279.476 362.913 279.479 362.295C279.476 361.705 279.625 361.176 279.928 360.71C280.231 360.244 280.648 359.877 281.178 359.608C281.712 359.339 282.32 359.205 283.002 359.205C283.676 359.205 284.279 359.339 284.809 359.608C285.339 359.877 285.756 360.244 286.059 360.71C286.366 361.176 286.521 361.705 286.525 362.295C286.521 362.913 286.353 363.464 286.019 363.949C285.69 364.43 285.252 364.742 284.707 364.886V364.955C285.127 365.03 285.506 365.21 285.843 365.494C286.18 365.775 286.449 366.125 286.65 366.545C286.851 366.962 286.953 367.417 286.957 367.909C286.953 368.538 286.782 369.098 286.445 369.591C286.112 370.08 285.648 370.464 285.053 370.744C284.462 371.021 283.779 371.159 283.002 371.159ZM283.002 369.909C283.529 369.909 283.983 369.824 284.366 369.653C284.748 369.483 285.044 369.242 285.252 368.932C285.46 368.621 285.567 368.258 285.57 367.841C285.567 367.402 285.453 367.013 285.229 366.676C285.006 366.339 284.701 366.074 284.315 365.881C283.932 365.687 283.495 365.591 283.002 365.591C282.506 365.591 282.063 365.687 281.673 365.881C281.286 366.074 280.981 366.339 280.758 366.676C280.538 367.013 280.43 367.402 280.434 367.841C280.43 368.258 280.531 368.621 280.735 368.932C280.943 369.242 281.241 369.483 281.627 369.653C282.013 369.824 282.472 369.909 283.002 369.909ZM283.002 364.386C283.419 364.386 283.788 364.303 284.11 364.136C284.436 363.97 284.692 363.737 284.877 363.438C285.063 363.138 285.157 362.788 285.161 362.386C285.157 361.992 285.065 361.65 284.883 361.358C284.701 361.062 284.449 360.835 284.127 360.676C283.805 360.513 283.43 360.432 283.002 360.432C282.567 360.432 282.186 360.513 281.86 360.676C281.534 360.835 281.282 361.062 281.104 361.358C280.926 361.65 280.839 361.992 280.843 362.386C280.839 362.788 280.928 363.138 281.11 363.438C281.296 363.737 281.551 363.97 281.877 364.136C282.203 364.303 282.578 364.386 283.002 364.386Z" fill="black"/>
<path d="M407.363 468.205V460.705H408.636V468.205H407.363ZM404.249 465.091V463.818H411.749V465.091H404.249Z" fill="black"/>
<path d="M410.548 414.386V415.636H405.457V414.386H410.548Z" fill="black"/>
<path d="M405.907 362.273L407.998 365.841L410.089 362.273H411.634L408.816 366.636L411.634 371H410.089L407.998 367.614L405.907 371H404.362L407.134 366.636L404.362 362.273H405.907Z" fill="black"/>
<path d="M410.489 309.818L406.739 323.75H405.512L409.262 309.818H410.489Z" fill="black"/>
<path d="M338.832 321.205V313.705H340.104V321.205H338.832ZM335.718 318.091V316.818H343.218V318.091H335.718ZM350.083 309.818L346.333 323.75H345.106L348.856 309.818H350.083ZM356.673 316.386V317.636H351.582V316.386H356.673Z" fill="black"/>
<path d="M372.999 512.386V511.159H379.999V512.386H372.999ZM372.999 515.75V514.523H379.999V515.75H372.999Z" fill="black"/>
<path d="M283.001 518.091C282.721 518.091 282.481 517.991 282.28 517.79C282.079 517.589 281.979 517.348 281.979 517.068C281.979 516.788 282.079 516.547 282.28 516.347C282.481 516.146 282.721 516.045 283.001 516.045C283.282 516.045 283.522 516.146 283.723 516.347C283.924 516.547 284.024 516.788 284.024 517.068C284.024 517.254 283.977 517.424 283.882 517.58C283.791 517.735 283.668 517.86 283.513 517.955C283.361 518.045 283.191 518.091 283.001 518.091Z" fill="black"/>
<path d="M216.998 371L222.202 360.705V360.614H216.202V359.364H223.657V360.682L218.475 371H216.998Z" fill="black"/>
<path d="M220.171 314H218.762C218.679 313.595 218.533 313.239 218.325 312.932C218.12 312.625 217.87 312.367 217.575 312.159C217.283 311.947 216.959 311.788 216.603 311.682C216.247 311.576 215.876 311.523 215.489 311.523C214.785 311.523 214.147 311.701 213.575 312.057C213.006 312.413 212.554 312.938 212.217 313.631C211.883 314.324 211.717 315.174 211.717 316.182C211.717 317.189 211.883 318.04 212.217 318.733C212.554 319.426 213.006 319.951 213.575 320.307C214.147 320.663 214.785 320.841 215.489 320.841C215.876 320.841 216.247 320.788 216.603 320.682C216.959 320.576 217.283 320.419 217.575 320.21C217.87 319.998 218.12 319.739 218.325 319.432C218.533 319.121 218.679 318.765 218.762 318.364H220.171C220.065 318.958 219.872 319.491 219.592 319.96C219.311 320.43 218.963 320.83 218.546 321.159C218.129 321.485 217.662 321.733 217.143 321.903C216.628 322.074 216.076 322.159 215.489 322.159C214.497 322.159 213.614 321.917 212.842 321.432C212.069 320.947 211.461 320.258 211.018 319.364C210.575 318.47 210.353 317.409 210.353 316.182C210.353 314.955 210.575 313.894 211.018 313C211.461 312.106 212.069 311.417 212.842 310.932C213.614 310.447 214.497 310.205 215.489 310.205C216.076 310.205 216.628 310.29 217.143 310.46C217.662 310.631 218.129 310.881 218.546 311.21C218.963 311.536 219.311 311.934 219.592 312.403C219.872 312.869 220.065 313.402 220.171 314ZM222.448 322V310.364H229.471V311.614H223.857V315.545H229.107V316.795H223.857V320.75H229.562V322H222.448Z" fill="black"/>
<g filter="url(#filter25_d_3701_137)">
<path d="M40 429.069V468.929C40 499.504 53.3714 528.878 76.2305 549.184C99.7305 570.059 137.434 555.414 139.821 524.072L148.093 415.469C149.028 403.2 151.42 391.086 155.219 379.382L185.675 285.565C188.232 277.687 179.69 270.829 172.551 275.029L105.566 314.432C64.943 338.328 40 381.938 40 429.069Z" fill="#D9D9D9"/>
<path d="M40 429.069V468.929C40 499.504 53.3714 528.878 76.2305 549.184C99.7305 570.059 137.434 555.414 139.821 524.072L148.093 415.469C149.028 403.2 151.42 391.086 155.219 379.382L185.675 285.565C188.232 277.687 179.69 270.829 172.551 275.029L105.566 314.432C64.943 338.328 40 381.938 40 429.069Z" stroke="#CECECE"/>
</g>
<g filter="url(#filter26_d_3701_137)">
<path d="M585 429.069V468.929C585 499.504 571.629 528.878 548.769 549.184C525.269 570.059 487.566 555.414 485.179 524.072L476.907 415.469C475.972 403.2 473.58 391.086 469.781 379.382L439.325 285.565C436.768 277.687 445.31 270.829 452.449 275.029L519.434 314.432C560.057 338.328 585 381.938 585 429.069Z" fill="#D9D9D9"/>
<path d="M585 429.069V468.929C585 499.504 571.629 528.878 548.769 549.184C525.269 570.059 487.566 555.414 485.179 524.072L476.907 415.469C475.972 403.2 473.58 391.086 469.781 379.382L439.325 285.565C436.768 277.687 445.31 270.829 452.449 275.029L519.434 314.432C560.057 338.328 585 381.938 585 429.069Z" stroke="#CECECE"/>
</g>
</g>
<defs>
<filter id="filter0_d_3701_137" x="-4" y="0" width="638" height="868" filterUnits="userSpaceOnUse" color-interpolation-filters="sRGB">
<feFlood flood-opacity="0" result="BackgroundImageFix"/>
<feColorMatrix in="SourceAlpha" type="matrix" values="0 0 0 0 0 0 0 0 0 0 0 0 0 0 0 0 0 0 127 0" result="hardAlpha"/>
<feOffset dy="4"/>
<feGaussianBlur stdDeviation="2"/>
<feComposite in2="hardAlpha" operator="out"/>
<feColorMatrix type="matrix" values="0 0 0 0 0 0 0 0 0 0 0 0 0 0 0 0 0 0 0.25 0"/>
<feBlend mode="normal" in2="BackgroundImageFix" result="effect1_dropShadow_3701_137"/>
<feBlend mode="normal" in="SourceGraphic" in2="effect1_dropShadow_3701_137" result="shape"/>
</filter>
<filter id="filter1_d_3701_137" x="160.193" y="607.996" width="159.268" height="218.589" filterUnits="userSpaceOnUse" color-interpolation-filters="sRGB">
<feFlood flood-opacity="0" result="BackgroundImageFix"/>
<feColorMatrix in="SourceAlpha" type="matrix" values="0 0 0 0 0 0 0 0 0 0 0 0 0 0 0 0 0 0 127 0" result="hardAlpha"/>
<feOffset dy="4"/>
<feGaussianBlur stdDeviation="2"/>
<feComposite in2="hardAlpha" operator="out"/>
<feColorMatrix type="matrix" values="0 0 0 0 0 0 0 0 0 0 0 0 0 0 0 0 0 0 0.25 0"/>
<feBlend mode="normal" in2="BackgroundImageFix" result="effect1_dropShadow_3701_137"/>
<feBlend mode="normal" in="SourceGraphic" in2="effect1_dropShadow_3701_137" result="shape"/>
</filter>
<filter id="filter2_d_3701_137" x="322" y="607.996" width="159.268" height="218.589" filterUnits="userSpaceOnUse" color-interpolation-filters="sRGB">
<feFlood flood-opacity="0" result="BackgroundImageFix"/>
<feColorMatrix in="SourceAlpha" type="matrix" values="0 0 0 0 0 0 0 0 0 0 0 0 0 0 0 0 0 0 127 0" result="hardAlpha"/>
<feOffset dy="4"/>
<feGaussianBlur stdDeviation="2"/>
<feComposite in2="hardAlpha" operator="out"/>
<feColorMatrix type="matrix" values="0 0 0 0 0 0 0 0 0 0 0 0 0 0 0 0 0 0 0.25 0"/>
<feBlend mode="normal" in2="BackgroundImageFix" result="effect1_dropShadow_3701_137"/>
<feBlend mode="normal" in="SourceGraphic" in2="effect1_dropShadow_3701_137" result="shape"/>
</filter>
<filter id="filter3_d_3701_137" x="110.763" y="241.902" width="405.772" height="438.598" filterUnits="userSpaceOnUse" color-interpolation-filters="sRGB">
<feFlood flood-opacity="0" result="BackgroundImageFix"/>
<feColorMatrix in="SourceAlpha" type="matrix" values="0 0 0 0 0 0 0 0 0 0 0 0 0 0 0 0 0 0 127 0" result="hardAlpha"/>
<feOffset dy="4"/>
<feGaussianBlur stdDeviation="2"/>
<feComposite in2="hardAlpha" operator="out"/>
<feColorMatrix type="matrix" values="0 0 0 0 0 0 0 0 0 0 0 0 0 0 0 0 0 0 0.25 0"/>
<feBlend mode="normal" in2="BackgroundImageFix" result="effect1_dropShadow_3701_137"/>
<feBlend mode="normal" in="SourceGraphic" in2="effect1_dropShadow_3701_137" result="shape"/>
</filter>
<filter id="filter4_d_3701_137" x="113" y="39" width="414.5" height="241" filterUnits="userSpaceOnUse" color-interpolation-filters="sRGB">
<feFlood flood-opacity="0" result="BackgroundImageFix"/>
<feColorMatrix in="SourceAlpha" type="matrix" values="0 0 0 0 0 0 0 0 0 0 0 0 0 0 0 0 0 0 127 0" result="hardAlpha"/>
<feOffset dy="4"/>
<feGaussianBlur stdDeviation="2"/>
<feComposite in2="hardAlpha" operator="out"/>
<feColorMatrix type="matrix" values="0 0 0 0 0 0 0 0 0 0 0 0 0 0 0 0 0 0 0.25 0"/>
<feBlend mode="normal" in2="BackgroundImageFix" result="effect1_dropShadow_3701_137"/>
<feBlend mode="normal" in="SourceGraphic" in2="effect1_dropShadow_3701_137" result="shape"/>
</filter>
<filter id="filter5_d_3701_137" x="196" y="545" width="248" height="92" filterUnits="userSpaceOnUse" color-interpolation-filters="sRGB">
<feFlood flood-opacity="0" result="BackgroundImageFix"/>
<feColorMatrix in="SourceAlpha" type="matrix" values="0 0 0 0 0 0 0 0 0 0 0 0 0 0 0 0 0 0 127 0" result="hardAlpha"/>
<feOffset dy="4"/>
<feGaussianBlur stdDeviation="2"/>
<feComposite in2="hardAlpha" operator="out"/>
<feColorMatrix type="matrix" values="0 0 0 0 0 0 0 0 0 0 0 0 0 0 0 0 0 0 0.25 0"/>
<feBlend mode="normal" in2="BackgroundImageFix" result="effect1_dropShadow_3701_137"/>
<feBlend mode="normal" in="SourceGraphic" in2="effect1_dropShadow_3701_137" result="shape"/>
</filter>
<filter id="filter6_d_3701_137" x="196" y="443" width="48" height="48" filterUnits="userSpaceOnUse" color-interpolation-filters="sRGB">
<feFlood flood-opacity="0" result="BackgroundImageFix"/>
<feColorMatrix in="SourceAlpha" type="matrix" values="0 0 0 0 0 0 0 0 0 0 0 0 0 0 0 0 0 0 127 0" result="hardAlpha"/>
<feOffset dy="4"/>
<feGaussianBlur stdDeviation="2"/>
<feComposite in2="hardAlpha" operator="out"/>
<feColorMatrix type="matrix" values="0 0 0 0 0 0 0 0 0 0 0 0 0 0 0 0 0 0 0.25 0"/>
<feBlend mode="normal" in2="BackgroundImageFix" result="effect1_dropShadow_3701_137"/>
<feBlend mode="normal" in="SourceGraphic" in2="effect1_dropShadow_3701_137" result="shape"/>
</filter>
<filter id="filter7_d_3701_137" x="259" y="443" width="48" height="48" filterUnits="userSpaceOnUse" color-interpolation-filters="sRGB">
<feFlood flood-opacity="0" result="BackgroundImageFix"/>
<feColorMatrix in="SourceAlpha" type="matrix" values="0 0 0 0 0 0 0 0 0 0 0 0 0 0 0 0 0 0 127 0" result="hardAlpha"/>
<feOffset dy="4"/>
<feGaussianBlur stdDeviation="2"/>
<feComposite in2="hardAlpha" operator="out"/>
<feColorMatrix type="matrix" values="0 0 0 0 0 0 0 0 0 0 0 0 0 0 0 0 0 0 0.25 0"/>
<feBlend mode="normal" in2="BackgroundImageFix" result="effect1_dropShadow_3701_137"/>
<feBlend mode="normal" in="SourceGraphic" in2="effect1_dropShadow_3701_137" result="shape"/>
</filter>
<filter id="filter8_d_3701_137" x="322" y="443" width="48" height="48" filterUnits="userSpaceOnUse" color-interpolation-filters="sRGB">
<feFlood flood-opacity="0" result="BackgroundImageFix"/>
<feColorMatrix in="SourceAlpha" type="matrix" values="0 0 0 0 0 0 0 0 0 0 0 0 0 0 0 0 0 0 127 0" result="hardAlpha"/>
<feOffset dy="4"/>
<feGaussianBlur stdDeviation="2"/>
<feComposite in2="hardAlpha" operator="out"/>
<feColorMatrix type="matrix" values="0 0 0 0 0 0 0 0 0 0 0 0 0 0 0 0 0 0 0.25 0"/>
<feBlend mode="normal" in2="BackgroundImageFix" result="effect1_dropShadow_3701_137"/>
<feBlend mode="normal" in="SourceGraphic" in2="effect1_dropShadow_3701_137" result="shape"/>
</filter>
<filter id="filter9_d_3701_137" x="384" y="443" width="48" height="48" filterUnits="userSpaceOnUse" color-interpolation-filters="sRGB">
<feFlood flood-opacity="0" result="BackgroundImageFix"/>
<feColorMatrix in="SourceAlpha" type="matrix" values="0 0 0 0 0 0 0 0 0 0 0 0 0 0 0 0 0 0 127 0" result="hardAlpha"/>
<feOffset dy="4"/>
<feGaussianBlur stdDeviation="2"/>
<feComposite in2="hardAlpha" operator="out"/>
<feColorMatrix type="matrix" values="0 0 0 0 0 0 0 0 0 0 0 0 0 0 0 0 0 0 0.25 0"/>
<feBlend mode="normal" in2="BackgroundImageFix" result="effect1_dropShadow_3701_137"/>
<feBlend mode="normal" in="SourceGraphic" in2="effect1_dropShadow_3701_137" result="shape"/>
</filter>
<filter id="filter10_d_3701_137" x="196" y="296" width="48" height="48" filterUnits="userSpaceOnUse" color-interpolation-filters="sRGB">
<feFlood flood-opacity="0" result="BackgroundImageFix"/>
<feColorMatrix in="SourceAlpha" type="matrix" values="0 0 0 0 0 0 0 0 0 0 0 0 0 0 0 0 0 0 127 0" result="hardAlpha"/>
<feOffset dy="4"/>
<feGaussianBlur stdDeviation="2"/>
<feComposite in2="hardAlpha" operator="out"/>
<feColorMatrix type="matrix" values="0 0 0 0 0 0 0 0 0 0 0 0 0 0 0 0 0 0 0.25 0"/>
<feBlend mode="normal" in2="BackgroundImageFix" result="effect1_dropShadow_3701_137"/>
<feBlend mode="normal" in="SourceGraphic" in2="effect1_dropShadow_3701_137" result="shape"/>
</filter>
<filter id="filter11_d_3701_137" x="259" y="296" width="48" height="48" filterUnits="userSpaceOnUse" color-interpolation-filters="sRGB">
<feFlood flood-opacity="0" result="BackgroundImageFix"/>
<feColorMatrix in="SourceAlpha" type="matrix" values="0 0 0 0 0 0 0 0 0 0 0 0 0 0 0 0 0 0 127 0" result="hardAlpha"/>
<feOffset dy="4"/>
<feGaussianBlur stdDeviation="2"/>
<feComposite in2="hardAlpha" operator="out"/>
<feColorMatrix type="matrix" values="0 0 0 0 0 0 0 0 0 0 0 0 0 0 0 0 0 0 0.25 0"/>
<feBlend mode="normal" in2="BackgroundImageFix" result="effect1_dropShadow_3701_137"/>
<feBlend mode="normal" in="SourceGraphic" in2="effect1_dropShadow_3701_137" result="shape"/>
</filter>
<filter id="filter12_d_3701_137" x="322" y="296" width="48" height="48" filterUnits="userSpaceOnUse" color-interpolation-filters="sRGB">
<feFlood flood-opacity="0" result="BackgroundImageFix"/>
<feColorMatrix in="SourceAlpha" type="matrix" values="0 0 0 0 0 0 0 0 0 0 0 0 0 0 0 0 0 0 127 0" result="hardAlpha"/>
<feOffset dy="4"/>
<feGaussianBlur stdDeviation="2"/>
<feComposite in2="hardAlpha" operator="out"/>
<feColorMatrix type="matrix" values="0 0 0 0 0 0 0 0 0 0 0 0 0 0 0 0 0 0 0.25 0"/>
<feBlend mode="normal" in2="BackgroundImageFix" result="effect1_dropShadow_3701_137"/>
<feBlend mode="normal" in="SourceGraphic" in2="effect1_dropShadow_3701_137" result="shape"/>
</filter>
<filter id="filter13_d_3701_137" x="384" y="296" width="48" height="48" filterUnits="userSpaceOnUse" color-interpolation-filters="sRGB">
<feFlood flood-opacity="0" result="BackgroundImageFix"/>
<feColorMatrix in="SourceAlpha" type="matrix" values="0 0 0 0 0 0 0 0 0 0 0 0 0 0 0 0 0 0 127 0" result="hardAlpha"/>
<feOffset dy="4"/>
<feGaussianBlur stdDeviation="2"/>
<feComposite in2="hardAlpha" operator="out"/>
<feColorMatrix type="matrix" values="0 0 0 0 0 0 0 0 0 0 0 0 0 0 0 0 0 0 0.25 0"/>
<feBlend mode="normal" in2="BackgroundImageFix" result="effect1_dropShadow_3701_137"/>
<feBlend mode="normal" in="SourceGraphic" in2="effect1_dropShadow_3701_137" result="shape"/>
</filter>
<filter id="filter14_d_3701_137" x="196" y="345" width="48" height="48" filterUnits="userSpaceOnUse" color-interpolation-filters="sRGB">
<feFlood flood-opacity="0" result="BackgroundImageFix"/>
<feColorMatrix in="SourceAlpha" type="matrix" values="0 0 0 0 0 0 0 0 0 0 0 0 0 0 0 0 0 0 127 0" result="hardAlpha"/>
<feOffset dy="4"/>
<feGaussianBlur stdDeviation="2"/>
<feComposite in2="hardAlpha" operator="out"/>
<feColorMatrix type="matrix" values="0 0 0 0 0 0 0 0 0 0 0 0 0 0 0 0 0 0 0.25 0"/>
<feBlend mode="normal" in2="BackgroundImageFix" result="effect1_dropShadow_3701_137"/>
<feBlend mode="normal" in="SourceGraphic" in2="effect1_dropShadow_3701_137" result="shape"/>
</filter>
<filter id="filter15_d_3701_137" x="259" y="345" width="48" height="48" filterUnits="userSpaceOnUse" color-interpolation-filters="sRGB">
<feFlood flood-opacity="0" result="BackgroundImageFix"/>
<feColorMatrix in="SourceAlpha" type="matrix" values="0 0 0 0 0 0 0 0 0 0 0 0 0 0 0 0 0 0 127 0" result="hardAlpha"/>
<feOffset dy="4"/>
<feGaussianBlur stdDeviation="2"/>
<feComposite in2="hardAlpha" operator="out"/>
<feColorMatrix type="matrix" values="0 0 0 0 0 0 0 0 0 0 0 0 0 0 0 0 0 0 0.25 0"/>
<feBlend mode="normal" in2="BackgroundImageFix" result="effect1_dropShadow_3701_137"/>
<feBlend mode="normal" in="SourceGraphic" in2="effect1_dropShadow_3701_137" result="shape"/>
</filter>
<filter id="filter16_d_3701_137" x="322" y="345" width="48" height="48" filterUnits="userSpaceOnUse" color-interpolation-filters="sRGB">
<feFlood flood-opacity="0" result="BackgroundImageFix"/>
<feColorMatrix in="SourceAlpha" type="matrix" values="0 0 0 0 0 0 0 0 0 0 0 0 0 0 0 0 0 0 127 0" result="hardAlpha"/>
<feOffset dy="4"/>
<feGaussianBlur stdDeviation="2"/>
<feComposite in2="hardAlpha" operator="out"/>
<feColorMatrix type="matrix" values="0 0 0 0 0 0 0 0 0 0 0 0 0 0 0 0 0 0 0.25 0"/>
<feBlend mode="normal" in2="BackgroundImageFix" result="effect1_dropShadow_3701_137"/>
<feBlend mode="normal" in="SourceGraphic" in2="effect1_dropShadow_3701_137" result="shape"/>
</filter>
<filter id="filter17_d_3701_137" x="384" y="345" width="48" height="48" filterUnits="userSpaceOnUse" color-interpolation-filters="sRGB">
<feFlood flood-opacity="0" result="BackgroundImageFix"/>
<feColorMatrix in="SourceAlpha" type="matrix" values="0 0 0 0 0 0 0 0 0 0 0 0 0 0 0 0 0 0 127 0" result="hardAlpha"/>
<feOffset dy="4"/>
<feGaussianBlur stdDeviation="2"/>
<feComposite in2="hardAlpha" operator="out"/>
<feColorMatrix type="matrix" values="0 0 0 0 0 0 0 0 0 0 0 0 0 0 0 0 0 0 0.25 0"/>
<feBlend mode="normal" in2="BackgroundImageFix" result="effect1_dropShadow_3701_137"/>
<feBlend mode="normal" in="SourceGraphic" in2="effect1_dropShadow_3701_137" result="shape"/>
</filter>
<filter id="filter18_d_3701_137" x="196" y="394" width="48" height="48" filterUnits="userSpaceOnUse" color-interpolation-filters="sRGB">
<feFlood flood-opacity="0" result="BackgroundImageFix"/>
<feColorMatrix in="SourceAlpha" type="matrix" values="0 0 0 0 0 0 0 0 0 0 0 0 0 0 0 0 0 0 127 0" result="hardAlpha"/>
<feOffset dy="4"/>
<feGaussianBlur stdDeviation="2"/>
<feComposite in2="hardAlpha" operator="out"/>
<feColorMatrix type="matrix" values="0 0 0 0 0 0 0 0 0 0 0 0 0 0 0 0 0 0 0.25 0"/>
<feBlend mode="normal" in2="BackgroundImageFix" result="effect1_dropShadow_3701_137"/>
<feBlend mode="normal" in="SourceGraphic" in2="effect1_dropShadow_3701_137" result="shape"/>
</filter>
<filter id="filter19_d_3701_137" x="259" y="394" width="48" height="48" filterUnits="userSpaceOnUse" color-interpolation-filters="sRGB">
<feFlood flood-opacity="0" result="BackgroundImageFix"/>
<feColorMatrix in="SourceAlpha" type="matrix" values="0 0 0 0 0 0 0 0 0 0 0 0 0 0 0 0 0 0 127 0" result="hardAlpha"/>
<feOffset dy="4"/>
<feGaussianBlur stdDeviation="2"/>
<feComposite in2="hardAlpha" operator="out"/>
<feColorMatrix type="matrix" values="0 0 0 0 0 0 0 0 0 0 0 0 0 0 0 0 0 0 0.25 0"/>
<feBlend mode="normal" in2="BackgroundImageFix" result="effect1_dropShadow_3701_137"/>
<feBlend mode="normal" in="SourceGraphic" in2="effect1_dropShadow_3701_137" result="shape"/>
</filter>
<filter id="filter20_d_3701_137" x="322" y="394" width="48" height="48" filterUnits="userSpaceOnUse" color-interpolation-filters="sRGB">
<feFlood flood-opacity="0" result="BackgroundImageFix"/>
<feColorMatrix in="SourceAlpha" type="matrix" values="0 0 0 0 0 0 0 0 0 0 0 0 0 0 0 0 0 0 127 0" result="hardAlpha"/>
<feOffset dy="4"/>
<feGaussianBlur stdDeviation="2"/>
<feComposite in2="hardAlpha" operator="out"/>
<feColorMatrix type="matrix" values="0 0 0 0 0 0 0 0 0 0 0 0 0 0 0 0 0 0 0.25 0"/>
<feBlend mode="normal" in2="BackgroundImageFix" result="effect1_dropShadow_3701_137"/>
<feBlend mode="normal" in="SourceGraphic" in2="effect1_dropShadow_3701_137" result="shape"/>
</filter>
<filter id="filter21_d_3701_137" x="384" y="394" width="48" height="48" filterUnits="userSpaceOnUse" color-interpolation-filters="sRGB">
<feFlood flood-opacity="0" result="BackgroundImageFix"/>
<feColorMatrix in="SourceAlpha" type="matrix" values="0 0 0 0 0 0 0 0 0 0 0 0 0 0 0 0 0 0 127 0" result="hardAlpha"/>
<feOffset dy="4"/>
<feGaussianBlur stdDeviation="2"/>
<feComposite in2="hardAlpha" operator="out"/>
<feColorMatrix type="matrix" values="0 0 0 0 0 0 0 0 0 0 0 0 0 0 0 0 0 0 0.25 0"/>
<feBlend mode="normal" in2="BackgroundImageFix" result="effect1_dropShadow_3701_137"/>
<feBlend mode="normal" in="SourceGraphic" in2="effect1_dropShadow_3701_137" result="shape"/>
</filter>
<filter id="filter22_d_3701_137" x="196" y="492" width="48" height="48" filterUnits="userSpaceOnUse" color-interpolation-filters="sRGB">
<feFlood flood-opacity="0" result="BackgroundImageFix"/>
<feColorMatrix in="SourceAlpha" type="matrix" values="0 0 0 0 0 0 0 0 0 0 0 0 0 0 0 0 0 0 127 0" result="hardAlpha"/>
<feOffset dy="4"/>
<feGaussianBlur stdDeviation="2"/>
<feComposite in2="hardAlpha" operator="out"/>
<feColorMatrix type="matrix" values="0 0 0 0 0 0 0 0 0 0 0 0 0 0 0 0 0 0 0.25 0"/>
<feBlend mode="normal" in2="BackgroundImageFix" result="effect1_dropShadow_3701_137"/>
<feBlend mode="normal" in="SourceGraphic" in2="effect1_dropShadow_3701_137" result="shape"/>
</filter>
<filter id="filter23_d_3701_137" x="259" y="492" width="48" height="48" filterUnits="userSpaceOnUse" color-interpolation-filters="sRGB">
<feFlood flood-opacity="0" result="BackgroundImageFix"/>
<feColorMatrix in="SourceAlpha" type="matrix" values="0 0 0 0 0 0 0 0 0 0 0 0 0 0 0 0 0 0 127 0" result="hardAlpha"/>
<feOffset dy="4"/>
<feGaussianBlur stdDeviation="2"/>
<feComposite in2="hardAlpha" operator="out"/>
<feColorMatrix type="matrix" values="0 0 0 0 0 0 0 0 0 0 0 0 0 0 0 0 0 0 0.25 0"/>
<feBlend mode="normal" in2="BackgroundImageFix" result="effect1_dropShadow_3701_137"/>
<feBlend mode="normal" in="SourceGraphic" in2="effect1_dropShadow_3701_137" result="shape"/>
</filter>
<filter id="filter24_d_3701_137" x="321" y="492" width="111" height="48" filterUnits="userSpaceOnUse" color-interpolation-filters="sRGB">
<feFlood flood-opacity="0" result="BackgroundImageFix"/>
<feColorMatrix in="SourceAlpha" type="matrix" values="0 0 0 0 0 0 0 0 0 0 0 0 0 0 0 0 0 0 127 0" result="hardAlpha"/>
<feOffset dy="4"/>
<feGaussianBlur stdDeviation="2"/>
<feComposite in2="hardAlpha" operator="out"/>
<feColorMatrix type="matrix" values="0 0 0 0 0 0 0 0 0 0 0 0 0 0 0 0 0 0 0.25 0"/>
<feBlend mode="normal" in2="BackgroundImageFix" result="effect1_dropShadow_3701_137"/>
<feBlend mode="normal" in="SourceGraphic" in2="effect1_dropShadow_3701_137" result="shape"/>
</filter>
<filter id="filter25_d_3701_137" x="35.5" y="273.251" width="155.139" height="294.177" filterUnits="userSpaceOnUse" color-interpolation-filters="sRGB">
<feFlood flood-opacity="0" result="BackgroundImageFix"/>
<feColorMatrix in="SourceAlpha" type="matrix" values="0 0 0 0 0 0 0 0 0 0 0 0 0 0 0 0 0 0 127 0" result="hardAlpha"/>
<feOffset dy="4"/>
<feGaussianBlur stdDeviation="2"/>
<feComposite in2="hardAlpha" operator="out"/>
<feColorMatrix type="matrix" values="0 0 0 0 0 0 0 0 0 0 0 0 0 0 0 0 0 0 0.25 0"/>
<feBlend mode="normal" in2="BackgroundImageFix" result="effect1_dropShadow_3701_137"/>
<feBlend mode="normal" in="SourceGraphic" in2="effect1_dropShadow_3701_137" result="shape"/>
</filter>
<filter id="filter26_d_3701_137" x="434.361" y="273.251" width="155.139" height="294.177" filterUnits="userSpaceOnUse" color-interpolation-filters="sRGB">
<feFlood flood-opacity="0" result="BackgroundImageFix"/>
<feColorMatrix in="SourceAlpha" type="matrix" values="0 0 0 0 0 0 0 0 0 0 0 0 0 0 0 0 0 0 127 0" result="hardAlpha"/>
<feOffset dy="4"/>
<feGaussianBlur stdDeviation="2"/>
<feComposite in2="hardAlpha" operator="out"/>
<feColorMatrix type="matrix" values="0 0 0 0 0 0 0 0 0 0 0 0 0 0 0 0 0 0 0.25 0"/>
<feBlend mode="normal" in2="BackgroundImageFix" result="effect1_dropShadow_3701_137"/>
<feBlend mode="normal" in="SourceGraphic" in2="effect1_dropShadow_3701_137" result="shape"/>
</filter>
</defs>
</svg>
