<svg width="2019" height="1365" viewBox="0 0 2019 1365" fill="none" xmlns="http://www.w3.org/2000/svg">
<g clip-path="url(#clip0_3701_25)">
<rect width="2018.07" height="1365" fill="#4FABD4"/>
<rect x="1524.76" y="23.8244" width="381.191" height="74.2762" rx="29.4302" fill="#577EB1"/>
<path d="M0.00012207 797.418C125.154 748.329 265.943 759.624 381.671 828.038L588.172 950.113C740.119 1039.94 927.641 1045.08 1084.28 963.711L1111.83 949.4C1165.36 921.592 1214.21 885.567 1256.58 842.636L1491.28 604.875C1572.6 522.494 1690.88 488.275 1803.62 514.511L1821.5 518.671C1906.93 538.552 1979.02 595.549 2018.07 674.092V1365H0.00012207V797.418Z" fill="#577EB1"/>
<path d="M-93.3094 687.884C-87.4434 670.984 -68.9801 662.048 -52.0865 667.932L-13.6924 681.304C5.67053 688.048 25.6232 692.962 45.9036 695.98L90.9797 702.687C99.0981 703.895 105.108 710.866 105.108 719.074C105.108 727.395 98.9356 734.425 90.6844 735.501L57.0979 739.883C21.1931 744.567 -15.261 742.766 -50.5291 734.565L-70.0631 730.023C-88.7892 725.668 -99.6139 706.047 -93.3094 687.884Z" fill="#577EB1"/>
<path d="M359.06 741.377C353.886 760.499 334.18 771.798 315.063 766.603L278.106 756.56C259.039 751.379 239.528 747.997 219.83 746.46L196.684 744.653C176.843 743.104 163.074 723.987 167.492 704.582C170.126 693.014 179.014 683.712 190.491 680.708C228.839 670.67 269.36 672.819 306.43 686.859L337.156 698.495C354.402 705.026 363.877 723.577 359.06 741.377Z" fill="#577EB1"/>
<path d="M947.342 921.524C946.905 908.907 956.822 898.347 969.44 897.989L993.188 897.317C1005.73 896.962 1018.2 895.423 1030.45 892.72L1044.47 889.629C1056.8 886.907 1068.69 895.746 1069.63 908.344L1069.67 908.848C1070.23 916.262 1066.61 923.369 1060.28 927.28C1039 940.438 1014.13 946.589 989.175 944.865L968.516 943.438C956.887 942.634 947.746 933.173 947.342 921.524Z" fill="#577EB1"/>
<path d="M416.242 877.728C427.856 862.603 449.364 859.396 464.886 870.474L500.707 896.043C516.558 907.357 533.386 917.237 550.991 925.565L575.674 937.242C593.469 945.66 599.391 968.079 588.073 984.187C581.307 993.816 569.77 998.912 558.096 997.428L556.426 997.216C515.968 992.074 477.926 975.108 447.066 948.444L421.176 926.074C406.983 913.811 404.819 892.606 416.242 877.728Z" fill="#4FABD4"/>
<path d="M1034.75 975.529C1031.77 956.693 1044.25 938.882 1062.97 935.247L1106.17 926.858C1125.29 923.146 1144.04 917.738 1162.2 910.699L1187.66 900.829C1206.01 893.713 1226.35 904.848 1230.25 924.146C1232.57 935.681 1228.33 947.557 1219.22 955.005L1217.92 956.071C1186.34 981.883 1147.85 997.803 1107.27 1001.84L1073.22 1005.22C1054.55 1007.08 1037.68 994.056 1034.75 975.529Z" fill="#4FABD4"/>
<path d="M1740.65 539.798C1742.42 558.786 1728.82 575.758 1709.91 578.182L1666.25 583.776C1646.94 586.251 1627.88 590.442 1609.3 596.299L1583.26 604.511C1564.49 610.432 1544.91 598.013 1542.26 578.505C1540.68 566.844 1545.67 555.265 1555.25 548.418L1556.62 547.438C1589.79 523.71 1629.22 510.298 1669.98 508.88L1704.18 507.69C1722.92 507.038 1738.92 521.121 1740.65 539.798Z" fill="#4FABD4"/>
<path d="M1349.56 598.409C1352.26 576.317 1371.33 559.904 1393.57 560.517L1469.14 562.598C1487 563.09 1504.87 562.121 1522.58 559.7L1573.52 552.737C1597.42 549.47 1618.24 569.08 1616.4 593.128C1615.35 606.947 1606.83 619.087 1594.2 624.777L1588.02 627.557C1539.5 649.405 1485.98 657.751 1433.11 651.714L1387.49 646.505C1363.69 643.787 1346.66 622.192 1349.56 598.409Z" fill="#4FABD4"/>
<path d="M1244.46 674.086C1247.16 651.994 1266.22 635.582 1288.47 636.195L1364.03 638.276C1381.89 638.768 1399.77 637.799 1417.47 635.378L1468.41 628.414C1492.31 625.148 1513.13 644.757 1511.3 668.806C1510.24 682.625 1501.73 694.764 1489.09 700.454L1482.91 703.235C1434.39 725.082 1380.88 733.428 1328.01 727.392L1282.38 722.182C1258.58 719.464 1241.55 697.869 1244.46 674.086Z" fill="#4FABD4"/>
<path d="M635.456 980.379C645.253 967.62 662.613 963.407 677.168 970.256L699.565 980.795C723.551 992.081 749.118 999.644 775.385 1003.22L790.809 1005.32C814.474 1008.55 827.106 1034.94 814.769 1055.39C809.963 1063.36 802.038 1068.95 792.919 1070.79L755.017 1078.47C753.033 1078.87 751.349 1080.17 750.457 1081.99C732.191 1119.2 676.194 1106.19 676.194 1064.74L676.194 1051.75C676.194 1049.18 674.787 1046.81 672.526 1045.58L646.243 1031.28C627.774 1021.23 622.651 997.056 635.456 980.379Z" fill="#4FABD4"/>
<path d="M445.633 825.417C451.818 807.599 473.722 801.193 488.533 812.871L492.03 815.627C493.808 817.029 495.398 818.653 496.763 820.46C511.866 840.448 493.349 868.291 469.076 862.093L464.762 860.992C449.202 857.019 440.367 840.588 445.633 825.417Z" fill="#577EB1"/>
<path d="M1621.06 513.467C1626.56 501.854 1640.8 497.412 1651.93 503.841L1665.65 511.765C1667.02 512.558 1668.29 513.516 1669.42 514.619C1683.13 527.917 1671.23 550.917 1652.46 547.404L1636.89 544.491C1622.72 541.839 1614.89 526.496 1621.06 513.467Z" fill="#577EB1"/>
<path d="M1685.72 478.638C1686.46 465.81 1697.99 456.343 1710.72 458.122L1726.41 460.314C1727.97 460.533 1729.51 460.945 1730.98 461.54C1748.68 468.715 1746.29 494.501 1727.57 498.297L1712.05 501.446C1697.92 504.311 1684.9 493.032 1685.72 478.638Z" fill="#577EB1"/>
<path d="M883.051 954.249C883.436 941.759 894.292 932.191 906.732 933.378L923.128 934.943C924.662 935.089 926.172 935.423 927.625 935.936C945.308 942.189 944.019 967.617 925.793 972.048L909.789 975.94C895.9 979.317 882.611 968.537 883.051 954.249Z" fill="#577EB1"/>
<path d="M655.402 944.447C657.762 937.648 666.121 935.204 671.772 939.66L673.106 940.711C673.785 941.246 674.392 941.866 674.913 942.555C680.675 950.183 673.61 960.807 664.348 958.442L662.702 958.022C656.764 956.506 653.393 950.236 655.402 944.447Z" fill="#577EB1"/>
<path d="M517.13 888.871C517.13 872.827 534.758 863.028 548.385 871.496L600.305 903.76C601.372 904.423 602.318 905.263 603.102 906.244C609.706 914.512 602.008 926.433 591.755 923.815L532.527 908.693C523.468 906.38 517.13 898.22 517.13 888.871Z" fill="#577EB1"/>
<path d="M772.465 957.603C774.306 945.641 762.288 936.311 751.156 941.061L708.74 959.157C707.869 959.529 707.067 960.047 706.37 960.688C700.497 966.095 704.869 975.867 712.813 975.092L758.71 970.615C765.729 969.93 771.392 964.574 772.465 957.603Z" fill="#577EB1"/>
<path d="M277.917 1177.8L277.87 1178.99L279.045 1179.14L469.326 1203.5C481.187 1205.02 490.072 1215.12 490.072 1227.07C490.072 1231.83 488.644 1236.48 485.972 1240.42L479.337 1250.2C470.744 1262.86 457.786 1271.91 442.939 1275.62L418.1 1281.83C413.141 1283.07 407.89 1281.84 403.999 1278.53C392.043 1268.34 373.645 1276.84 373.645 1292.55V1296.27C373.645 1303.2 369.561 1309.49 363.225 1312.3L359.733 1313.85C354.48 1316.19 348.553 1316.51 343.079 1314.76L334.315 1311.95C324.553 1308.83 314.068 1308.77 304.272 1311.79L299.865 1313.14C290.484 1316.03 280.553 1316.66 270.883 1314.97L226.454 1307.25L165.715 1290.45L165.653 1290.43L165.589 1290.42L140.834 1286.15C132.527 1284.72 124.515 1281.92 117.123 1277.87L100.556 1268.78C93.0746 1264.68 87.5728 1257.72 85.3039 1249.5L83.0349 1241.27C80.2894 1231.32 71.236 1224.43 60.9118 1224.43C55.2835 1224.43 49.9062 1222.1 46.0568 1217.99L39.5867 1211.09C35.4202 1206.64 32.2654 1201.35 30.339 1195.57L27.614 1187.4C19.9032 1164.26 22.9513 1138.89 35.9222 1118.25L71.9443 1060.9C76.1984 1054.13 81.6141 1048.16 87.9422 1043.27L96.8802 1036.37C102.99 1031.65 110.493 1029.09 118.214 1029.09H137.224C141.096 1029.09 144.523 1031.59 145.697 1035.28C148.686 1044.68 161.344 1046.18 166.453 1037.75L176.362 1021.4C178.938 1017.15 183.194 1014.19 188.075 1013.25L236.735 1003.89C243.321 1002.63 250.122 1003.07 256.485 1005.2C272.991 1010.7 283.876 1026.44 283.191 1043.83L277.917 1177.8Z" fill="#87CDD9" stroke="white" stroke-width="2.58727"/>
<path d="M35.3658 1098.12C46.5174 1073.03 67.4329 1053.58 93.2674 1044.28L125.787 1032.57C141.748 1026.83 158.435 1023.34 175.361 1022.23L232.027 1018.49C255.3 1016.96 278.563 1021.65 299.424 1032.08C308.001 1036.37 312.406 1046.07 309.985 1055.35L283.091 1158.45L363.046 1072.94C371.145 1064.28 383.4 1060.87 394.81 1064.09L410.697 1068.58C427.216 1073.25 442.602 1081.26 455.904 1092.11L462.608 1097.58C477.151 1109.44 487.919 1125.29 493.592 1143.18C498.906 1159.94 499.54 1177.83 495.424 1194.93L495.121 1196.19C488.597 1223.29 471.175 1246.5 446.971 1260.33L434.516 1267.44C425.872 1272.38 416.705 1276.35 407.185 1279.26L394.444 1283.16C370.363 1290.53 345.319 1294.28 320.135 1294.28H260.414C231.667 1294.28 203.04 1290.59 175.235 1283.29L142.879 1274.79C123.549 1269.72 105.346 1261.05 89.2202 1249.25L78.5761 1241.45C54.4606 1223.8 37.5333 1198.03 30.9096 1168.88L29.1918 1161.32C24.3776 1140.14 26.5434 1117.97 35.3658 1098.12Z" fill="#799E34"/>
<ellipse cx="271.448" cy="1179.15" rx="16.8172" ry="18.1109" fill="#5D8026"/>
<path d="M252.043 1161.04V1101.53" stroke="#5D8026" stroke-width="5.17454" stroke-linecap="round"/>
<path d="M254.093 1158.39L83.3335 1122.17" stroke="#5D8026" stroke-width="5.17454" stroke-linecap="round"/>
<path d="M256.747 1180.63L189.478 1276.36" stroke="#5D8026" stroke-width="5.17454" stroke-linecap="round"/>
<path d="M221.113 1230.89L107.274 1236.06" stroke="#5D8026" stroke-width="5.17454" stroke-linecap="round"/>
<path d="M290.651 1183.32L324.285 1263.53" stroke="#5D8026" stroke-width="5.17454" stroke-linecap="round"/>
<path d="M288.417 1168.8L420.368 1176.56" stroke="#5D8026" stroke-width="5.17454" stroke-linecap="round"/>
<path d="M266.273 1188.7C266.273 1198.11 269.325 1207.2 269.325 1216.86C269.325 1229.27 267.318 1239.32 264.407 1251.29C260.797 1266.13 249.703 1284.92 239.136 1295.9C221.099 1314.63 215.435 1338.51 215.9 1364.08C216.265 1384.15 229.849 1395.41 235.744 1413.09" stroke="#5D8026" stroke-width="7.76181" stroke-linecap="round"/>
<path d="M1184.33 251.632C1198.54 228.138 1221.73 211.466 1248.53 205.479L1282.26 197.943C1298.81 194.244 1315.8 192.883 1332.74 193.898L1389.42 197.298C1412.71 198.694 1435.2 206.264 1454.58 219.229C1462.56 224.559 1465.71 234.742 1462.14 243.644L1422.53 342.554L1512.58 267.748C1521.7 260.171 1534.29 258.32 1545.2 262.95L1560.4 269.397C1576.2 276.1 1590.47 285.974 1602.3 298.408L1608.27 304.675C1621.21 318.269 1629.9 335.343 1633.29 353.804C1636.46 371.099 1634.84 388.93 1628.61 405.374L1628.16 406.584C1618.28 432.654 1598.09 453.494 1572.34 464.18L1559.09 469.679C1549.9 473.495 1540.31 476.278 1530.5 477.975L1517.37 480.247C1492.55 484.54 1467.23 485.117 1442.25 481.959L1383 474.469C1354.48 470.864 1326.54 463.608 1299.87 452.879L1268.84 440.395C1250.29 432.937 1233.32 422.056 1218.8 408.321L1209.22 399.254C1187.51 378.713 1173.95 351.022 1171.03 321.277L1170.28 313.563C1168.16 291.944 1173.09 270.219 1184.33 251.632Z" fill="#799E34"/>
<ellipse cx="1408.39" cy="361.628" rx="16.8172" ry="18.1109" transform="rotate(7.20465 1408.39 361.628)" fill="#5D8026"/>
<path d="M1391.41 341.227L1398.87 282.189" stroke="#5D8026" stroke-width="5.17454" stroke-linecap="round"/>
<path d="M1393.77 338.861L1228.9 281.51" stroke="#5D8026" stroke-width="5.17454" stroke-linecap="round"/>
<path d="M1393.61 361.26L1314.87 447.797" stroke="#5D8026" stroke-width="5.17454" stroke-linecap="round"/>
<path d="M1351.96 406.65L1238.37 397.507" stroke="#5D8026" stroke-width="5.17454" stroke-linecap="round"/>
<path d="M1426.91 368.178L1450.22 451.968" stroke="#5D8026" stroke-width="5.17454" stroke-linecap="round"/>
<path d="M1426.52 353.493L1556.45 377.742" stroke="#5D8026" stroke-width="5.17454" stroke-linecap="round"/>
<path d="M1907.62 1339.68L1910.9 1342.69L1909.74 1338.39L1894.13 1280.43C1877.68 1219.4 1940.87 1167.48 1997.55 1195.44C2003.92 1198.58 2010.69 1200.81 2017.68 1202.07L2062.06 1210.08C2077.94 1212.95 2090.79 1224.65 2095.12 1240.2C2097.9 1250.17 2096.9 1260.82 2092.33 1270.1L2077.61 1299.97C2075.35 1304.55 2071.01 1307.76 2065.97 1308.59C2050.47 1311.13 2045.06 1330.66 2057.04 1340.81L2059.88 1343.22C2065.17 1347.7 2067.33 1354.88 2065.38 1361.53L2064.31 1365.2C2062.69 1370.72 2059.11 1375.45 2054.23 1378.49L2046.43 1383.36C2037.73 1388.79 2030.91 1396.75 2026.88 1406.18L2025.07 1410.42C2021.2 1419.44 2015.26 1427.42 2007.73 1433.71L1973.11 1462.62L1921.03 1498.1L1920.98 1498.14L1920.93 1498.18L1901.67 1514.31C1895.21 1519.72 1887.89 1524.02 1880.02 1527.04L1862.38 1533.81C1854.42 1536.87 1845.55 1536.57 1837.81 1532.98L1830.07 1529.4C1820.7 1525.06 1809.59 1527.51 1802.91 1535.39C1799.27 1539.68 1794.02 1542.28 1788.4 1542.56L1778.95 1543.04C1772.87 1543.34 1766.79 1542.33 1761.14 1540.06L1753.14 1536.86C1730.5 1527.79 1713.12 1509.06 1705.75 1485.82L1685.28 1421.27C1682.86 1413.64 1681.81 1405.65 1682.17 1397.66L1682.68 1386.38C1683.03 1378.67 1685.92 1371.29 1690.91 1365.4L1703.2 1350.89C1705.71 1347.94 1709.83 1346.94 1713.41 1348.43C1722.51 1352.22 1731.84 1343.54 1728.71 1334.19L1722.64 1316.06C1721.06 1311.35 1721.55 1306.19 1723.99 1301.86L1748.31 1258.68C1751.6 1252.84 1756.34 1247.94 1762.07 1244.45C1776.93 1235.42 1795.98 1237.29 1808.81 1249.05L1907.62 1339.68Z" fill="#87CDD9" stroke="white" stroke-width="2.58727"/>
<path d="M1712.8 1470.3C1700.86 1445.57 1699.54 1417.04 1709.15 1391.32L1721.23 1358.94C1727.17 1343.05 1735.3 1328.06 1745.39 1314.43L1779.17 1268.78C1793.04 1250.03 1811.66 1235.31 1833.1 1226.14C1841.92 1222.36 1852.17 1225.28 1857.68 1233.12L1918.96 1320.29L1905.4 1204.01C1904.03 1192.23 1909.35 1180.67 1919.18 1174.05L1932.88 1164.83C1947.12 1155.25 1963.17 1148.68 1980.05 1145.55L1988.56 1143.97C2007.01 1140.54 2026.06 1142.57 2043.38 1149.81C2059.6 1156.59 2073.67 1167.67 2084.05 1181.86L2084.81 1182.9C2101.27 1205.4 2107.72 1233.7 2102.63 1261.1L2100.01 1275.21C2098.19 1285 2095.28 1294.55 2091.35 1303.7L2086.09 1315.94C2076.15 1339.08 2062.82 1360.61 2046.54 1379.83L2007.94 1425.39C1989.36 1447.33 1968.03 1466.78 1944.49 1483.28L1917.09 1502.47C1900.73 1513.94 1882.35 1522.23 1862.92 1526.9L1850.09 1529.98C1821.03 1536.97 1790.42 1533.23 1763.91 1519.44L1757.03 1515.87C1737.75 1505.85 1722.24 1489.86 1712.8 1470.3Z" fill="#799E34"/>
<ellipse cx="1927.23" cy="1342.55" rx="16.8172" ry="18.1109" transform="rotate(-49.728 1927.23 1342.55)" fill="#5D8026"/>
<path d="M1900.86 1345.65L1855.46 1307.18" stroke="#5D8026" stroke-width="5.17454" stroke-linecap="round"/>
<path d="M1900.17 1342.37L1762.15 1449.25" stroke="#5D8026" stroke-width="5.17454" stroke-linecap="round"/>
<path d="M1918.86 1354.73L1948.41 1467.93" stroke="#5D8026" stroke-width="5.17454" stroke-linecap="round"/>
<path d="M1942.82 1330.6L2025.76 1356.78" stroke="#5D8026" stroke-width="5.17454" stroke-linecap="round"/>
<path d="M1930.3 1322.92L2021.52 1227.26" stroke="#5D8026" stroke-width="5.17454" stroke-linecap="round"/>
<path d="M1931.17 1352.68C1938.35 1358.75 1947.25 1362.3 1954.63 1368.55C1964.09 1376.57 1970.47 1384.6 1977.72 1394.55C1986.71 1406.9 1993.87 1427.51 1995.42 1442.67C1998.05 1468.54 2012.61 1488.3 2032.42 1504.47C2047.97 1517.17 2065.34 1514.08 2082.64 1521.02" stroke="#5D8026" stroke-width="7.76181" stroke-linecap="round"/>
<path d="M2173.7 841.998L2172.81 846.362L2175.9 843.153L2217.53 799.908C2261.36 754.373 2338.42 781.775 2343.66 844.761C2344.25 851.835 2345.82 858.792 2348.34 865.43L2364.34 907.591C2370.07 922.683 2366.65 939.72 2355.56 951.444C2348.45 958.962 2338.81 963.595 2328.5 964.456L2295.32 967.229C2290.22 967.655 2285.24 965.595 2281.93 961.697C2271.77 949.722 2252.24 955.147 2249.72 970.648L2249.12 974.322C2248 981.166 2242.96 986.71 2236.26 988.47L2232.56 989.44C2227 990.899 2221.1 990.263 2215.98 987.653L2207.78 983.475C2198.65 978.821 2188.31 977.077 2178.15 978.475L2173.59 979.104C2163.86 980.444 2153.96 979.466 2144.69 976.25L2102.08 961.475L2044.83 935.121L2044.78 935.094L2044.72 935.073L2020.97 926.877C2013 924.127 2005.54 920.074 1998.9 914.885L1984.01 903.252C1977.29 897.999 1972.98 890.248 1972.06 881.765L1971.14 873.282C1970.04 863.018 1962.21 854.757 1952.02 853.096C1946.47 852.19 1941.53 849.026 1938.39 844.354L1933.12 836.501C1929.72 831.444 1927.46 825.712 1926.49 819.698L1925.11 811.191C1921.23 787.12 1928.32 762.571 1944.44 744.279L1989.22 693.481C1994.51 687.482 2000.81 682.463 2007.85 678.655L2017.78 673.277C2024.57 669.6 2032.39 668.28 2040.01 669.522L2058.77 672.581C2062.59 673.204 2065.57 676.229 2066.13 680.059C2067.57 689.811 2079.82 693.334 2086.22 685.836L2098.63 671.293C2101.86 667.512 2106.54 665.274 2111.51 665.133L2161.04 663.727C2167.74 663.537 2174.38 665.074 2180.32 668.191C2195.73 676.277 2203.94 693.569 2200.46 710.618L2173.7 841.998Z" fill="#87CDD9" stroke="white" stroke-width="2.58727"/>
<path d="M1952.4 707.289C1967.44 684.319 1991.21 668.49 2018.21 663.468L2052.19 657.146C2068.86 654.043 2085.89 653.291 2102.78 654.913L2159.31 660.343C2182.52 662.574 2204.73 670.945 2223.64 684.596C2231.42 690.209 2234.2 700.498 2230.32 709.267L2187.19 806.693L2279.86 735.163C2289.25 727.919 2301.89 726.52 2312.63 731.539L2327.59 738.526C2343.14 745.792 2357.04 756.17 2368.42 769.02L2374.16 775.497C2386.6 789.547 2394.68 806.921 2397.4 825.492C2399.95 842.889 2397.7 860.651 2390.88 876.861L2390.38 878.054C2379.58 903.753 2358.65 923.855 2332.54 933.612L2319.1 938.632C2309.78 942.116 2300.09 944.553 2290.23 945.898L2277.02 947.697C2252.07 951.098 2226.75 950.767 2201.89 946.715L2142.95 937.106C2114.58 932.48 2086.92 924.227 2060.65 912.55L2030.08 898.961C2011.82 890.843 1995.25 879.36 1981.23 865.113L1971.98 855.709C1951.02 834.403 1938.46 806.243 1936.61 776.413L1936.13 768.677C1934.79 746.996 1940.5 725.462 1952.4 707.289Z" fill="#799E34"/>
<path d="M2158.58 801.971L1995.87 738.746" stroke="#5D8026" stroke-width="5.17454" stroke-linecap="round"/>
<path d="M2114.36 868.218L2001.17 855.008" stroke="#5D8026" stroke-width="5.17454" stroke-linecap="round"/>
<path d="M-66.386 924.563L-65.8498 925.61L-66.8406 926.243L-220.818 1024.67C-230.993 1031.18 -234.784 1044.21 -229.685 1055.16C-227.717 1059.38 -224.565 1062.95 -220.612 1065.42L-210.429 1071.79C-197.794 1079.68 -182.664 1082.58 -168.004 1079.9L-144.389 1075.59C-139.487 1074.7 -135.356 1071.42 -133.379 1066.84C-127.389 1052.98 -107.832 1052.71 -101.457 1066.4L-99.2922 1071.04C-96.4635 1077.12 -90.3673 1081 -83.6673 1080.99L-80.3326 1080.98C-74.6028 1080.98 -69.0931 1078.78 -64.9335 1074.84L-58.7879 1069.01C-51.6301 1062.23 -42.495 1057.91 -32.7124 1056.69L-28.3182 1056.13C-18.9856 1054.96 -10.0859 1051.51 -2.40614 1046.08L32.8678 1021.13L78.4996 981.348L78.5498 981.305L78.6044 981.266L97.8739 967.683C104.746 962.839 110.737 956.854 115.587 949.986L125.779 935.554C130.62 928.698 132.511 920.188 131.029 911.928L129.358 902.621C127.621 892.942 132.621 883.306 141.536 879.154C146.446 876.868 150.153 872.601 151.731 867.42L154.557 858.145C156.239 852.625 156.731 846.811 156.001 841.086L154.824 831.863C151.759 807.831 138.485 786.285 118.399 772.738L62.5509 735.074C56.265 730.835 49.2836 727.732 41.9246 725.907L30.9259 723.18C23.6769 721.382 16.031 722.121 9.26069 725.274L-6.97361 732.835C-10.366 734.415 -12.3271 738.027 -11.8045 741.733C-10.4515 751.327 -21.1867 757.922 -29.1339 752.379L-44.5253 741.643C-48.4452 738.909 -53.3498 737.988 -57.9947 739.113L-103.668 750.178C-110.195 751.759 -116.179 755.061 -120.997 759.741C-132.841 771.244 -135.786 789.131 -128.257 803.824L-66.386 924.563Z" fill="#87CDD9" stroke="white" stroke-width="2.58727"/>
<path d="M104.673 736.627C84.0048 718.036 56.6275 708.715 28.9092 710.834L-1.42918 713.153C-18.1614 714.431 -34.6181 718.141 -50.281 724.164L-99.3246 743.024C-120.778 751.274 -139.531 765.297 -153.509 783.542C-158.918 790.602 -158.785 800.448 -153.189 807.36L-85.5308 890.912L-191.241 845.639C-201.747 841.14 -213.904 843.091 -222.475 850.651L-233.516 860.39C-246.362 871.722 -256.685 885.625 -263.815 901.199L-266.661 907.415C-274.55 924.646 -277.327 943.778 -274.663 962.541C-272.23 979.67 -265.35 995.863 -254.709 1009.51L-253.983 1010.44C-236.655 1032.65 -211.013 1046.83 -182.986 1049.71L-171.453 1050.89C-161.542 1051.9 -151.548 1051.78 -141.666 1050.53L-129.732 1049.01C-105.602 1045.94 -82.0935 1039.15 -60.0433 1028.88L-8.94633 1005.08C16.2972 993.328 39.8519 978.242 61.0893 960.23L84.3581 940.496C99.6163 927.555 112.231 911.788 121.509 894.063L126.259 884.986C140.267 858.224 144.313 827.355 137.675 797.887L135.874 789.89C131.243 769.332 120.34 750.72 104.673 736.627Z" fill="#799E34"/>
<path d="M-60.3818 879.138L72.563 777.263" stroke="#5D8026" stroke-width="5.17454" stroke-linecap="round"/>
<path d="M-53.2953 900.373L45.5171 959.955" stroke="#5D8026" stroke-width="5.17454" stroke-linecap="round"/>
<path d="M-1.14404 931.523L99.8655 890.188" stroke="#5D8026" stroke-width="5.17454" stroke-linecap="round"/>
<path d="M842.306 568.662C851.764 562.82 862.087 558.51 872.891 555.89L890.351 551.658C921.81 544.031 954.572 543.491 986.265 550.077L1033.27 559.844L1040.48 562.247C1070.19 572.153 1098.86 584.97 1126.06 600.511L1182.15 632.564C1192.37 638.405 1201.52 645.961 1209.18 654.901C1216.24 663.14 1221.95 672.447 1226.1 682.475L1229.8 691.41C1230.89 694.036 1227.59 696.265 1225.56 694.28L1182.77 652.512L1202.43 679.379C1213.83 694.953 1220.83 713.303 1222.7 732.51L1224.28 748.656C1224.61 752.071 1225.61 755.386 1227.23 758.413C1231.8 766.988 1231.24 777.393 1225.76 785.423L1206.75 813.306C1200.71 822.167 1192.99 829.754 1184.02 835.639L1158.06 852.673L1124.82 869.294C1105.93 878.741 1085.6 884.987 1064.66 887.779C1048.74 889.902 1032.61 890.008 1016.67 888.094L1000.34 886.134C986.079 884.424 972.013 881.386 958.32 877.062L956.897 876.613C940.326 871.38 924.44 864.189 909.574 855.191C893.262 845.318 878.313 833.352 865.109 819.597L849.849 803.701C833.85 787.035 820.637 767.903 810.718 747.039L803.531 731.92C794.531 712.991 789.862 692.295 789.862 671.336V666.167C789.862 649.832 793.29 633.678 799.925 618.751L801.335 615.577C809.96 596.172 824.239 579.821 842.306 568.662Z" fill="#F2EEC8"/>
<path d="M795.178 641.106C802.076 618.292 817.504 599.015 838.253 587.287L851.059 580.049C877.006 565.383 907.223 560.133 936.596 565.186L976.202 572C996.048 575.415 1015.39 581.292 1033.78 589.497L1037.29 591.063C1069.72 605.53 1099.01 626.191 1123.51 651.885L1148.36 677.929C1158.07 688.112 1166.25 699.656 1172.63 712.196L1179.38 725.462C1191.12 748.511 1193.99 775.063 1187.46 800.09C1179.77 829.58 1159.72 854.313 1132.46 867.943L1115.77 876.292C1102.85 882.751 1089.05 887.269 1074.81 889.699L1073.44 889.934C1055.04 893.074 1036.24 892.894 1017.91 889.403L993.251 884.706C959.282 878.236 926.847 865.39 897.66 846.848L877.246 833.879C850.743 817.042 829.048 793.632 814.272 765.926C803.051 744.886 796.074 721.846 793.74 698.115L791.66 676.97C790.473 664.9 791.668 652.715 795.178 641.106Z" fill="#C8D6C7"/>
<path d="M778.701 498.135C781.151 494.05 784.688 490.727 788.916 488.534L802.897 481.285C811.437 476.857 820.696 473.979 830.243 472.786L834.992 472.192C841.947 471.323 848.981 471.305 855.94 472.14C869.36 473.751 882.212 478.496 893.458 485.994L898.266 489.199C905.867 494.266 912.804 500.265 918.915 507.055C927.539 516.637 934.403 527.667 939.191 539.636L941.837 546.253L820.752 584.555C806.188 574.846 794.471 561.435 786.805 545.699L778.478 528.607C776.213 523.957 775.036 518.854 775.036 513.682V511.367C775.036 506.706 776.303 502.132 778.701 498.135Z" fill="#F2EEC8"/>
<path d="M730.695 574.628C726.827 574.017 724.527 569.971 725.982 566.335C732.14 550.938 743.37 538.105 757.813 529.958L767.43 524.533C778.086 518.522 790.113 515.364 802.347 515.364H809.134C811.697 515.364 813.043 518.406 811.319 520.303L805.247 526.982C797.096 535.949 796.668 549.509 804.238 558.971C805.088 560.034 804.696 561.614 803.448 562.156L792.146 567.07C782.438 571.291 772.167 574.076 761.657 575.337L760.054 575.53C751.139 576.599 742.119 576.432 733.25 575.031L730.695 574.628Z" fill="#E8822D"/>
<path d="M994.25 735.995C1014.24 730.88 1026.03 710.234 1020.28 690.416C1020.03 689.558 1020.86 688.783 1021.7 689.094L1035.94 694.375C1075.39 709.012 1110.01 734.306 1135.95 767.446C1138.49 770.691 1137.56 775.435 1133.99 777.488L1133.29 777.889C1100 797.013 1062.77 808.242 1024.46 810.714L1008.5 811.744C1007.36 811.817 1006.51 810.7 1006.89 809.622C1014.54 788.072 1007.65 764.045 989.743 749.825L980.025 742.108C979.058 741.34 979.387 739.797 980.584 739.491L994.25 735.995Z" fill="#E8822D"/>
<path d="M1033.42 998.826C1015.66 988.306 992.727 994.568 982.782 1012.65C982.351 1013.43 981.213 1013.39 980.841 1012.58L974.508 998.777C956.959 960.529 950.365 918.162 955.459 876.39C955.958 872.299 959.966 869.6 963.945 870.675L964.723 870.885C1001.78 880.902 1036.05 899.289 1064.89 924.632L1076.9 935.189C1077.76 935.944 1077.57 937.331 1076.54 937.823C1055.89 947.654 1043.78 969.517 1046.38 992.234L1047.8 1004.56C1047.94 1005.79 1046.61 1006.65 1045.55 1006.02L1033.42 998.826Z" fill="#E8822D"/>
<circle cx="833.855" cy="494.708" r="9.81006" fill="black"/>
<path d="M304.581 480.015C315.511 474.904 327.191 471.582 339.174 470.176L357.707 468.002C392.052 463.973 426.864 467.806 459.509 479.212L507.63 496.026L514.422 499.353C544.758 514.21 573.528 532.074 600.298 552.674L654.593 594.458C664.734 602.262 673.452 611.758 680.362 622.528C686.637 632.308 691.34 643.011 694.299 654.247L696.992 664.469C697.783 667.472 693.883 669.396 691.981 666.941L652.735 616.282L669.665 647.721C679.648 666.26 684.556 687.108 683.893 708.154L683.336 725.805C683.218 729.534 683.822 733.251 685.115 736.751C688.773 746.659 686.749 757.773 679.833 765.756L656.147 793.09C648.414 802.015 639.003 809.334 628.449 814.631L599.122 829.348L561.542 842.924C540.432 850.549 518.184 854.55 495.739 854.755C478.602 854.913 461.516 852.856 444.905 848.636L428.11 844.37C413.216 840.586 398.717 835.392 384.809 828.857L383.686 828.329C366.748 820.371 350.837 810.389 336.3 798.603C320.516 785.804 306.484 770.984 294.567 754.524L280.76 735.456C265.947 714.997 254.494 692.306 246.832 668.238L241.454 651.342C234.522 629.564 232.424 606.535 235.308 583.863L236.068 577.89C238.282 560.479 244.05 543.71 253.014 528.621L255.445 524.528C266.988 505.098 284.109 489.588 304.581 480.015Z" fill="#F2EEC8"/>
<path d="M241.356 558.894C251.883 536.534 270.625 519.093 293.684 510.201L307.915 504.713C336.749 493.594 368.54 492.778 397.907 502.405L437.505 515.385C457.346 521.889 476.298 530.844 493.921 542.042L497.286 544.18C528.361 563.925 555.282 589.549 576.536 619.612L598.08 650.087C606.503 662.001 613.146 675.08 617.798 688.91L622.719 703.539C631.27 728.958 630.203 756.63 619.721 781.315C607.369 810.403 583.062 832.742 553.037 842.6L534.645 848.639C520.417 853.311 505.578 855.858 490.606 856.198L489.16 856.231C469.818 856.67 450.554 853.641 432.28 847.288L407.696 838.74C373.829 826.965 342.5 808.882 315.364 785.446L296.385 769.055C271.745 747.775 253.031 720.479 242.063 689.823C233.735 666.543 230.064 641.853 231.259 617.157L232.323 595.151C232.931 582.591 236 570.272 241.356 558.894Z" fill="#C8D6C7"/>
<path d="M239.189 431.49C240.122 429.936 241.208 428.479 242.432 427.142L243.804 425.644C250.576 418.246 259.53 413.197 269.365 411.23L273.563 410.391C277.457 409.612 281.418 409.22 285.388 409.22H288.066C300.626 409.22 313.038 411.929 324.455 417.162L328.287 418.918C334.319 421.683 340.081 425.005 345.496 428.841L346.27 429.389C360.306 439.331 371.973 452.251 380.436 467.225L383.958 473.455L260.525 525.095C244.248 505.563 235.335 480.943 235.335 455.518V450.181V445.407C235.335 440.504 236.667 435.694 239.189 431.49Z" fill="#F2EEC8"/>
<path d="M178.405 454.783C173.885 456.966 172.563 462.782 175.695 466.705L178.775 470.562C189.41 483.882 204.089 493.38 220.597 497.626L233.155 500.855C240.319 502.698 247.871 502.331 254.823 499.803C256.529 499.183 257.326 497.223 256.543 495.585C249.254 480.346 253.166 462.075 266.079 451.184L266.636 450.715C268.706 448.969 267.795 445.601 265.127 445.137L252.525 442.945C240.08 440.781 227.354 440.792 214.913 442.977L212.381 443.422C201.482 445.337 190.9 448.749 180.935 453.561L178.405 454.783Z" fill="#E8822D"/>
<path d="M322.985 545.463C344.176 539.991 356.676 518.111 350.626 497.076C350.363 496.163 351.253 495.34 352.144 495.673L366.693 501.121C408.373 516.729 444.889 543.622 472.159 578.795C474.808 582.211 473.837 587.178 470.098 589.347L469.428 589.735C434.399 610.048 395.147 621.986 354.74 624.618L338.283 625.689C337.066 625.769 336.165 624.58 336.569 623.43C344.609 600.557 337.33 575.101 318.413 559.937L308.328 551.853C307.314 551.041 307.662 549.42 308.92 549.095L322.985 545.463Z" fill="#E8822D"/>
<path d="M203.301 754.202C218.985 769.485 218.513 794.835 202.27 809.524C201.583 810.145 201.895 811.283 202.803 811.468L222.385 815.448C266.988 824.512 313.217 821.267 356.116 806.061C360.558 804.487 362.447 799.24 360.028 795.195L359.292 793.964C337.61 757.717 308.278 726.638 273.345 702.897L256.65 691.552C255.676 690.89 254.343 691.452 254.138 692.612C249.89 716.552 230.318 734.796 206.139 737.353L191.432 738.908C190.059 739.053 189.477 740.733 190.466 741.696L203.301 754.202Z" fill="#E8822D"/>
<circle cx="284.457" cy="433.15" r="8.81661" fill="black"/>
<path d="M786.301 1183.77C796.455 1208.41 780.351 1235.94 753.91 1239.18L696.978 1240.48L696.92 1240.49L696.862 1240.49L674.331 1243.26C666.771 1244.18 659.109 1243.85 651.657 1242.27L634.954 1238.73C627.412 1237.13 620.838 1232.55 616.73 1226.02L612.622 1219.5C607.652 1211.6 598.022 1208 589.089 1210.69C584.22 1212.16 578.96 1211.54 574.559 1208.99L567.161 1204.71C562.398 1201.95 558.288 1198.19 555.114 1193.7L540.939 1173.61C534.056 1163.85 529.907 1152.43 528.923 1140.54C526.743 1114.18 540.284 1089.01 563.477 1076.31L603.912 1054.17C617.901 1046.51 634.292 1044.49 649.719 1048.54C662.402 1051.87 675.796 1051.26 688.129 1046.81L708.949 1039.29C725.488 1033.32 743.043 1030.68 760.608 1031.51L806.088 1033.65L951.723 1067.5C965.896 1070.8 976.544 1082.53 978.456 1096.95C979.558 1105.26 977.635 1113.69 973.038 1120.71L962.203 1137.23C951.601 1153.41 935.111 1164.81 916.236 1169.02C909.938 1170.42 903.484 1171 897.037 1170.74L889.068 1170.41C851.35 1168.87 815.99 1151.64 791.536 1122.88L737.481 1059.32L735.509 1060.52L786.301 1183.77Z" fill="#87CDD9" stroke="white" stroke-width="2.33792"/>
<path d="M960.952 1075C959.808 1102.67 947.375 1128.66 926.552 1146.91L904.414 1166.32C895.056 1174.53 881.222 1175.03 871.292 1167.53L762.122 1085.04L808.858 1184.77C816.751 1201.62 804.402 1220.94 785.803 1220.85L651.666 1220.2C636.052 1220.13 620.592 1217.11 606.096 1211.31L599.608 1208.72C582.13 1201.72 566.981 1189.94 555.903 1174.72C546.03 1161.15 539.728 1145.32 537.578 1128.68L537.443 1127.64C533.853 1099.85 541.61 1071.79 558.963 1049.8L564.466 1042.82C570.548 1035.11 577.516 1028.15 585.225 1022.06L593.574 1015.48C611.757 1001.13 632.135 989.818 653.922 981.965L703.185 964.207C728.202 955.189 754.355 949.705 780.888 947.914L808.124 946.075C827.806 944.746 847.557 947.328 866.236 953.671L873.224 956.044C901.666 965.702 925.844 984.985 941.586 1010.57L946.029 1017.79C956.589 1034.95 961.785 1054.87 960.952 1075Z" fill="#799E34"/>
<ellipse cx="734.155" cy="1093.49" rx="15.1965" ry="16.3654" transform="rotate(155.798 734.155 1093.49)" fill="#5D8026"/>
<path d="M752.479 1115.34L774.524 1164.38" stroke="#5D8026" stroke-width="4.67584" stroke-linecap="round"/>
<path d="M753.819 1062.4L907.977 1028.99" stroke="#5D8026" stroke-width="4.67584" stroke-linecap="round"/>
<path d="M745.72 1086.82L765.7 982.998" stroke="#5D8026" stroke-width="4.67584" stroke-linecap="round"/>
<path d="M756.472 1032.2L848.382 985.759" stroke="#5D8026" stroke-width="4.67584" stroke-linecap="round"/>
<path d="M716.782 1097.16L659.348 1043.52" stroke="#5D8026" stroke-width="4.67584" stroke-linecap="round"/>
<path d="M724.001 1108.3L612.373 1150.79" stroke="#5D8026" stroke-width="4.67584" stroke-linecap="round"/>
<path d="M890.347 1367.32C885.574 1356.7 886.132 1344.12 881.227 1333.2C874.929 1319.19 866.423 1309.36 855.419 1298.06C841.772 1284.05 813.442 1271.28 789.972 1266.93C749.913 1259.51 728.196 1236.84 716.006 1207.62C706.433 1184.67 723.728 1161.61 724.736 1137.15" stroke="#5D8026" stroke-width="7.01376" stroke-linecap="round"/>
<path d="M176.664 63.34C176.664 66.1803 176.021 68.7664 174.735 71.0984C173.48 73.4304 171.716 75.3139 169.444 76.749C167.201 78.1542 164.66 78.9763 161.82 79.2155V85.0903H158.546V79.2155C155.706 78.9763 153.149 78.1392 150.877 76.7041C148.635 75.2691 146.871 73.4005 145.585 71.0984C144.33 68.7664 143.702 66.1803 143.702 63.34C143.702 60.3204 144.405 57.5997 145.81 55.1781C147.245 52.7564 149.218 50.8579 151.729 49.4826C154.271 48.0774 157.096 47.3749 160.205 47.3749C163.315 47.3749 166.11 48.0625 168.591 49.4378C171.103 50.8131 173.076 52.7265 174.511 55.1781C175.946 57.5997 176.664 60.3204 176.664 63.34ZM161.73 76.2557C163.972 76.0464 165.975 75.3588 167.739 74.1928C169.503 72.9969 170.879 71.4572 171.865 69.5736C172.852 67.6901 173.345 65.6122 173.345 63.34C173.345 60.8885 172.777 58.676 171.641 56.7028C170.505 54.7296 168.935 53.1749 166.932 52.0388C164.929 50.9027 162.687 50.3347 160.205 50.3347C157.724 50.3347 155.467 50.9027 153.434 52.0388C151.43 53.1749 149.846 54.7296 148.68 56.7028C147.544 58.676 146.976 60.8885 146.976 63.34C146.976 65.6122 147.469 67.6901 148.456 69.5736C149.472 71.4572 150.862 72.9819 152.626 74.1479C154.39 75.3139 156.393 76.0165 158.636 76.2557V68.4973H161.73V76.2557ZM204.687 55.4471V79.0361H201.637V74.7309C200.8 76.166 199.649 77.2871 198.184 78.0944C196.719 78.8717 195.045 79.2604 193.161 79.2604C190.082 79.2604 187.645 78.4083 185.851 76.7041C184.087 74.9701 183.205 72.4438 183.205 69.1252V55.4471H186.389V68.8112C186.389 71.2927 187.002 73.1763 188.228 74.4618C189.454 75.7474 191.203 76.3902 193.475 76.3902C195.957 76.3902 197.915 75.6428 199.35 74.1479C200.785 72.6232 201.502 70.5154 201.502 67.8246V55.4471H204.687ZM235.13 55.4471V79.0361H232.081V74.3721C231.124 75.9567 229.853 77.1675 228.269 78.0047C226.714 78.8418 224.95 79.2604 222.977 79.2604C220.765 79.2604 218.762 78.7521 216.968 77.7356C215.174 76.7191 213.769 75.299 212.752 73.4752C211.736 71.6515 211.227 69.5736 211.227 67.2416C211.227 64.9096 211.736 62.8318 212.752 61.008C213.769 59.1843 215.174 57.7791 216.968 56.7925C218.762 55.776 220.765 55.2678 222.977 55.2678C224.89 55.2678 226.61 55.6714 228.134 56.4786C229.689 57.2559 230.96 58.407 231.946 59.9317V55.4471H235.13ZM223.246 76.4351C224.89 76.4351 226.37 76.0613 227.686 75.3139C229.031 74.5366 230.078 73.4453 230.825 72.0402C231.602 70.635 231.991 69.0355 231.991 67.2416C231.991 65.4478 231.602 63.8483 230.825 62.4431C230.078 61.0379 229.031 59.9616 227.686 59.2142C226.37 58.4369 224.89 58.0482 223.246 58.0482C221.572 58.0482 220.062 58.4369 218.717 59.2142C217.401 59.9616 216.355 61.0379 215.577 62.4431C214.83 63.8483 214.456 65.4478 214.456 67.2416C214.456 69.0355 214.83 70.635 215.577 72.0402C216.355 73.4453 217.401 74.5366 218.717 75.3139C220.062 76.0613 221.572 76.4351 223.246 76.4351ZM253.774 79.2604C251.442 79.2604 249.35 78.7521 247.496 77.7356C245.672 76.7191 244.237 75.299 243.191 73.4752C242.144 71.6216 241.621 69.5437 241.621 67.2416C241.621 64.9395 242.144 62.8766 243.191 61.0529C244.237 59.2292 245.672 57.809 247.496 56.7925C249.35 55.776 251.442 55.2678 253.774 55.2678C255.807 55.2678 257.616 55.6714 259.201 56.4786C260.815 57.2559 262.086 58.407 263.013 59.9317L260.636 61.5462C259.858 60.3802 258.872 59.5132 257.676 58.9451C256.48 58.3472 255.18 58.0482 253.774 58.0482C252.07 58.0482 250.53 58.4369 249.155 59.2142C247.81 59.9616 246.748 61.0379 245.971 62.4431C245.224 63.8483 244.85 65.4478 244.85 67.2416C244.85 69.0654 245.224 70.6798 245.971 72.085C246.748 73.4603 247.81 74.5366 249.155 75.3139C250.53 76.0613 252.07 76.4351 253.774 76.4351C255.18 76.4351 256.48 76.151 257.676 75.583C258.872 75.0149 259.858 74.1479 260.636 72.9819L263.013 74.5964C262.086 76.1211 260.815 77.2871 259.201 78.0944C257.586 78.8717 255.777 79.2604 253.774 79.2604ZM277.662 67.1968L272.101 72.3092V79.0361H268.917V45.7604H272.101V68.3179L286.183 55.4471H290.129L280.039 65.089L291.071 79.0361H287.17L277.662 67.1968ZM320.459 50.3347C317.38 50.3347 315.077 51.0373 313.553 52.4425C312.058 53.8177 311.31 55.8209 311.31 58.4518V62.8467H326.289V65.7169H311.31V79.0361H307.992V58.407C307.992 54.9688 309.068 52.278 311.221 50.3347C313.373 48.3615 316.408 47.3749 320.324 47.3749C324.121 47.3749 327.171 48.197 329.473 49.8414L328.262 52.577C326.229 51.0821 323.628 50.3347 320.459 50.3347ZM354.734 55.4471V79.0361H351.685V74.3721C350.728 75.9567 349.457 77.1675 347.873 78.0047C346.318 78.8418 344.554 79.2604 342.581 79.2604C340.369 79.2604 338.365 78.7521 336.572 77.7356C334.778 76.7191 333.373 75.299 332.356 73.4752C331.34 71.6515 330.831 69.5736 330.831 67.2416C330.831 64.9096 331.34 62.8318 332.356 61.008C333.373 59.1843 334.778 57.7791 336.572 56.7925C338.365 55.776 340.369 55.2678 342.581 55.2678C344.494 55.2678 346.213 55.6714 347.738 56.4786C349.293 57.2559 350.564 58.407 351.55 59.9317V55.4471H354.734ZM342.85 76.4351C344.494 76.4351 345.974 76.0613 347.29 75.3139C348.635 74.5366 349.682 73.4453 350.429 72.0402C351.206 70.635 351.595 69.0355 351.595 67.2416C351.595 65.4478 351.206 63.8483 350.429 62.4431C349.682 61.0379 348.635 59.9616 347.29 59.2142C345.974 58.4369 344.494 58.0482 342.85 58.0482C341.176 58.0482 339.666 58.4369 338.321 59.2142C337.005 59.9616 335.959 61.0379 335.181 62.4431C334.434 63.8483 334.06 65.4478 334.06 67.2416C334.06 69.0355 334.434 70.635 335.181 72.0402C335.959 73.4453 337.005 74.5366 338.321 75.3139C339.666 76.0613 341.176 76.4351 342.85 76.4351ZM373.378 79.2604C371.046 79.2604 368.953 78.7521 367.1 77.7356C365.276 76.7191 363.841 75.299 362.795 73.4752C361.748 71.6216 361.225 69.5437 361.225 67.2416C361.225 64.9395 361.748 62.8766 362.795 61.0529C363.841 59.2292 365.276 57.809 367.1 56.7925C368.953 55.776 371.046 55.2678 373.378 55.2678C375.411 55.2678 377.22 55.6714 378.805 56.4786C380.419 57.2559 381.69 58.407 382.617 59.9317L380.24 61.5462C379.462 60.3802 378.476 59.5132 377.28 58.9451C376.084 58.3472 374.783 58.0482 373.378 58.0482C371.674 58.0482 370.134 58.4369 368.759 59.2142C367.414 59.9616 366.352 61.0379 365.575 62.4431C364.828 63.8483 364.454 65.4478 364.454 67.2416C364.454 69.0654 364.828 70.6798 365.575 72.085C366.352 73.4603 367.414 74.5366 368.759 75.3139C370.134 76.0613 371.674 76.4351 373.378 76.4351C374.783 76.4351 376.084 76.151 377.28 75.583C378.476 75.0149 379.462 74.1479 380.24 72.9819L382.617 74.5964C381.69 76.1211 380.419 77.2871 378.805 78.0944C377.19 78.8717 375.381 79.2604 373.378 79.2604ZM400.136 77.6011C399.538 78.1392 398.806 78.5578 397.939 78.8567C397.072 79.1258 396.16 79.2604 395.203 79.2604C392.991 79.2604 391.287 78.6624 390.091 77.4665C388.895 76.2706 388.297 74.5814 388.297 72.3989V50.2898H391.481V55.4471H398.611V58.1379H391.481V72.2195C391.481 73.6247 391.825 74.701 392.512 75.4485C393.2 76.166 394.202 76.5248 395.517 76.5248C396.952 76.5248 398.118 76.1211 399.015 75.3139L400.136 77.6011ZM412.231 79.2604C410.318 79.2604 408.479 78.9913 406.715 78.4531C404.981 77.8851 403.621 77.1825 402.634 76.3454L404.069 73.834C405.056 74.6113 406.296 75.2541 407.791 75.7624C409.286 76.2407 410.841 76.4799 412.455 76.4799C414.608 76.4799 416.192 76.151 417.209 75.4933C418.255 74.8057 418.779 73.8489 418.779 72.6232C418.779 71.7561 418.494 71.0834 417.926 70.6051C417.358 70.0968 416.641 69.7231 415.774 69.4839C414.907 69.2149 413.756 68.9607 412.321 68.7216C410.407 68.3628 408.868 68.004 407.702 67.6452C406.536 67.2566 405.534 66.6138 404.697 65.7169C403.89 64.82 403.486 63.5792 403.486 61.9947C403.486 60.0214 404.308 58.407 405.953 57.1513C407.597 55.8956 409.884 55.2678 412.814 55.2678C414.339 55.2678 415.864 55.477 417.388 55.8956C418.913 56.2843 420.169 56.8075 421.155 57.4652L419.765 60.0214C417.822 58.676 415.505 58.0034 412.814 58.0034C410.781 58.0034 409.241 58.3621 408.195 59.0797C407.178 59.7972 406.67 60.739 406.67 61.905C406.67 62.8019 406.954 63.5194 407.522 64.0576C408.12 64.5957 408.853 64.9993 409.72 65.2684C410.587 65.5076 411.783 65.7617 413.307 66.0308C415.191 66.3896 416.701 66.7483 417.837 67.1071C418.973 67.4659 419.945 68.0788 420.752 68.9458C421.559 69.8128 421.963 71.0087 421.963 72.5335C421.963 74.5964 421.096 76.2407 419.362 77.4665C417.657 78.6624 415.281 79.2604 412.231 79.2604Z" fill="black"/>
<path d="M1567.27 82.3884C1565.47 82.3884 1563.81 81.9997 1562.29 81.2224C1560.79 80.4451 1559.57 79.3389 1558.61 77.9038L1560.5 75.6615C1561.36 76.9172 1562.36 77.8739 1563.5 78.5316C1564.64 79.1894 1565.88 79.5182 1567.22 79.5182C1571.14 79.5182 1573.1 77.2161 1573.1 72.612V49.1126H1561.62V46.2425H1576.37V72.4774C1576.37 75.7661 1575.59 78.2327 1574.04 79.877C1572.51 81.5513 1570.26 82.3884 1567.27 82.3884ZM1595.34 77.8589C1593.07 77.8589 1591.02 77.3507 1589.2 76.3342C1587.37 75.2878 1585.94 73.8527 1584.89 72.029C1583.85 70.2052 1583.32 68.1423 1583.32 65.8402C1583.32 63.5381 1583.85 61.4752 1584.89 59.6515C1585.94 57.8277 1587.37 56.4076 1589.2 55.3911C1591.02 54.3746 1593.07 53.8663 1595.34 53.8663C1597.61 53.8663 1599.66 54.3746 1601.48 55.3911C1603.31 56.4076 1604.73 57.8277 1605.75 59.6515C1606.79 61.4752 1607.31 63.5381 1607.31 65.8402C1607.31 68.1423 1606.79 70.2052 1605.75 72.029C1604.73 73.8527 1603.31 75.2878 1601.48 76.3342C1599.66 77.3507 1597.61 77.8589 1595.34 77.8589ZM1595.34 75.0336C1597.02 75.0336 1598.51 74.6599 1599.83 73.9125C1601.17 73.1352 1602.22 72.0439 1602.96 70.6387C1603.71 69.2336 1604.09 67.634 1604.09 65.8402C1604.09 64.0464 1603.71 62.4469 1602.96 61.0417C1602.22 59.6365 1601.17 58.5602 1599.83 57.8128C1598.51 57.0354 1597.02 56.6468 1595.34 56.6468C1593.67 56.6468 1592.16 57.0354 1590.81 57.8128C1589.5 58.5602 1588.45 59.6365 1587.67 61.0417C1586.92 62.4469 1586.55 64.0464 1586.55 65.8402C1586.55 67.634 1586.92 69.2336 1587.67 70.6387C1588.45 72.0439 1589.5 73.1352 1590.81 73.9125C1592.16 74.6599 1593.67 75.0336 1595.34 75.0336ZM1613.82 54.0457H1617V77.6347H1613.82V54.0457ZM1615.43 48.8884C1614.77 48.8884 1614.22 48.6642 1613.77 48.2157C1613.32 47.7673 1613.1 47.2291 1613.1 46.6013C1613.1 46.0033 1613.32 45.4801 1613.77 45.0317C1614.22 44.5832 1614.77 44.359 1615.43 44.359C1616.09 44.359 1616.64 44.5832 1617.09 45.0317C1617.54 45.4502 1617.76 45.9585 1617.76 46.5564C1617.76 47.2142 1617.54 47.7673 1617.09 48.2157C1616.64 48.6642 1616.09 48.8884 1615.43 48.8884ZM1637.88 53.8663C1640.84 53.8663 1643.18 54.7333 1644.92 56.4674C1646.68 58.1715 1647.56 60.668 1647.56 63.9567V77.6347H1644.38V64.2706C1644.38 61.819 1643.77 59.9504 1642.54 58.6648C1641.32 57.3793 1639.57 56.7365 1637.29 56.7365C1634.75 56.7365 1632.74 57.4989 1631.24 59.0236C1629.78 60.5185 1629.04 62.5963 1629.04 65.2572V77.6347H1625.86V54.0457H1628.91V58.3958C1629.78 56.9607 1630.97 55.8545 1632.5 55.0772C1634.05 54.2699 1635.84 53.8663 1637.88 53.8663ZM1679.56 76.1996C1678.96 76.7378 1678.23 77.1563 1677.36 77.4553C1676.5 77.7244 1675.58 77.8589 1674.63 77.8589C1672.42 77.8589 1670.71 77.261 1669.52 76.0651C1668.32 74.8692 1667.72 73.18 1667.72 70.9975V48.8884H1670.91V54.0457H1678.04V56.7365H1670.91V70.8181C1670.91 72.2233 1671.25 73.2996 1671.94 74.047C1672.62 74.7646 1673.63 75.1233 1674.94 75.1233C1676.38 75.1233 1677.54 74.7197 1678.44 73.9125L1679.56 76.1996ZM1697.35 53.8663C1700.31 53.8663 1702.66 54.7333 1704.39 56.4674C1706.16 58.1715 1707.04 60.668 1707.04 63.9567V77.6347H1703.85V64.2706C1703.85 61.819 1703.24 59.9504 1702.02 58.6648C1700.79 57.3793 1699.04 56.7365 1696.77 56.7365C1694.23 56.7365 1692.21 57.4989 1690.71 59.0236C1689.25 60.5185 1688.52 62.5963 1688.52 65.2572V77.6347H1685.33V44.359H1688.52V58.1715C1689.38 56.7963 1690.58 55.7349 1692.1 54.9875C1693.63 54.24 1695.38 53.8663 1697.35 53.8663ZM1725.86 75.0336C1727.33 75.0336 1728.67 74.7795 1729.9 74.2713C1731.15 73.7331 1732.21 72.9558 1733.08 71.9393L1734.87 74.0022C1733.83 75.2579 1732.53 76.2146 1730.97 76.8723C1729.42 77.5301 1727.7 77.8589 1725.82 77.8589C1723.39 77.8589 1721.24 77.3507 1719.36 76.3342C1717.47 75.2878 1716.01 73.8527 1714.96 72.029C1713.92 70.2052 1713.39 68.1423 1713.39 65.8402C1713.39 63.5381 1713.89 61.4752 1714.87 59.6515C1715.89 57.8277 1717.28 56.4076 1719.04 55.3911C1720.81 54.3746 1722.81 53.8663 1725.05 53.8663C1727.15 53.8663 1729.03 54.3447 1730.7 55.3014C1732.41 56.2581 1733.75 57.5885 1734.74 59.2927C1735.76 60.9968 1736.29 62.9402 1736.35 65.1227L1716.98 68.8897C1717.58 70.8032 1718.66 72.313 1720.21 73.4192C1721.79 74.4955 1723.68 75.0336 1725.86 75.0336ZM1725.05 56.6019C1723.41 56.6019 1721.93 56.9906 1720.61 57.7679C1719.33 58.5154 1718.31 59.5767 1717.56 60.952C1716.85 62.2974 1716.49 63.852 1716.49 65.616C1716.49 66.0644 1716.5 66.3933 1716.53 66.6026L1733.17 63.3737C1732.81 61.4005 1731.9 59.786 1730.43 58.5303C1728.97 57.2447 1727.18 56.6019 1725.05 56.6019ZM1767.44 48.9333C1764.36 48.9333 1762.06 49.6359 1760.54 51.041C1759.04 52.4163 1758.29 54.4194 1758.29 57.0504V61.4453H1773.27V64.3154H1758.29V77.6347H1754.98V57.0055C1754.98 53.5674 1756.05 50.8766 1758.2 48.9333C1760.36 46.96 1763.39 45.9734 1767.31 45.9734C1771.11 45.9734 1774.16 46.7956 1776.46 48.44L1775.25 51.1756C1773.21 49.6807 1770.61 48.9333 1767.44 48.9333ZM1788.19 77.8589C1786.06 77.8589 1784.42 77.261 1783.25 76.0651C1782.12 74.8692 1781.55 73.2099 1781.55 71.0872V44.359H1784.73V70.8181C1784.73 72.2233 1785.06 73.2996 1785.72 74.047C1786.38 74.7646 1787.36 75.1233 1788.68 75.1233C1789.52 75.1233 1790.24 74.9888 1790.83 74.7197L1791.06 77.3656C1790.13 77.6945 1789.17 77.8589 1788.19 77.8589ZM1804.59 77.8589C1802.32 77.8589 1800.27 77.3507 1798.45 76.3342C1796.63 75.2878 1795.19 73.8527 1794.14 72.029C1793.1 70.2052 1792.57 68.1423 1792.57 65.8402C1792.57 63.5381 1793.1 61.4752 1794.14 59.6515C1795.19 57.8277 1796.63 56.4076 1798.45 55.3911C1800.27 54.3746 1802.32 53.8663 1804.59 53.8663C1806.87 53.8663 1808.91 54.3746 1810.74 55.3911C1812.56 56.4076 1813.98 57.8277 1815 59.6515C1816.04 61.4752 1816.57 63.5381 1816.57 65.8402C1816.57 68.1423 1816.04 70.2052 1815 72.029C1813.98 73.8527 1812.56 75.2878 1810.74 76.3342C1808.91 77.3507 1806.87 77.8589 1804.59 77.8589ZM1804.59 75.0336C1806.27 75.0336 1807.76 74.6599 1809.08 73.9125C1810.42 73.1352 1811.47 72.0439 1812.22 70.6387C1812.96 69.2336 1813.34 67.634 1813.34 65.8402C1813.34 64.0464 1812.96 62.4469 1812.22 61.0417C1811.47 59.6365 1810.42 58.5602 1809.08 57.8128C1807.76 57.0354 1806.27 56.6468 1804.59 56.6468C1802.92 56.6468 1801.41 57.0354 1800.06 57.8128C1798.75 58.5602 1797.7 59.6365 1796.92 61.0417C1796.18 62.4469 1795.8 64.0464 1795.8 65.8402C1795.8 67.634 1796.18 69.2336 1796.92 70.6387C1797.7 72.0439 1798.75 73.1352 1800.06 73.9125C1801.41 74.6599 1802.92 75.0336 1804.59 75.0336ZM1832.84 77.8589C1830.51 77.8589 1828.42 77.3507 1826.57 76.3342C1824.74 75.3177 1823.31 73.8975 1822.26 72.0738C1821.21 70.2202 1820.69 68.1423 1820.69 65.8402C1820.69 63.5381 1821.21 61.4752 1822.26 59.6515C1823.31 57.8277 1824.74 56.4076 1826.57 55.3911C1828.42 54.3746 1830.51 53.8663 1832.84 53.8663C1834.88 53.8663 1836.69 54.2699 1838.27 55.0772C1839.88 55.8545 1841.16 57.0055 1842.08 58.5303L1839.71 60.1448C1838.93 58.9788 1837.94 58.1117 1836.75 57.5437C1835.55 56.9458 1834.25 56.6468 1832.84 56.6468C1831.14 56.6468 1829.6 57.0354 1828.22 57.8128C1826.88 58.5602 1825.82 59.6365 1825.04 61.0417C1824.29 62.4469 1823.92 64.0464 1823.92 65.8402C1823.92 67.6639 1824.29 69.2784 1825.04 70.6836C1825.82 72.0589 1826.88 73.1352 1828.22 73.9125C1829.6 74.6599 1831.14 75.0336 1832.84 75.0336C1834.25 75.0336 1835.55 74.7496 1836.75 74.1816C1837.94 73.6135 1838.93 72.7465 1839.71 71.5805L1842.08 73.195C1841.16 74.7197 1839.88 75.8857 1838.27 76.6929C1836.66 77.4703 1834.85 77.8589 1832.84 77.8589ZM1856.73 65.7954L1851.17 70.9078V77.6347H1847.99V44.359H1851.17V66.9165L1865.25 54.0457H1869.2L1859.11 63.6876L1870.14 77.6347H1866.24L1856.73 65.7954Z" fill="black"/>
<path d="M607.709 47.6439H620.49C623.808 47.6439 626.738 48.3166 629.279 49.662C631.821 50.9775 633.794 52.8311 635.199 55.2229C636.604 57.5848 637.307 60.2905 637.307 63.34C637.307 66.3896 636.604 69.1102 635.199 71.502C633.794 73.8639 631.821 75.7175 629.279 77.0629C626.738 78.3784 623.808 79.0361 620.49 79.0361H607.709V47.6439ZM620.31 76.166C623.061 76.166 625.468 75.6278 627.531 74.5515C629.593 73.4453 631.193 71.9355 632.329 70.0221C633.465 68.0788 634.033 65.8514 634.033 63.34C634.033 60.8287 633.465 58.6163 632.329 56.7028C631.193 54.7595 629.593 53.2497 627.531 52.1734C625.468 51.0672 623.061 50.5141 620.31 50.5141H611.027V76.166H620.31ZM665.343 55.4471V79.0361H662.294V74.7309C661.457 76.166 660.306 77.2871 658.841 78.0944C657.376 78.8717 655.702 79.2604 653.818 79.2604C650.739 79.2604 648.302 78.4083 646.508 76.7041C644.744 74.9701 643.862 72.4438 643.862 69.1252V55.4471H647.046V68.8112C647.046 71.2927 647.659 73.1763 648.885 74.4618C650.111 75.7474 651.86 76.3902 654.132 76.3902C656.613 76.3902 658.572 75.6428 660.007 74.1479C661.442 72.6232 662.159 70.5154 662.159 67.8246V55.4471H665.343ZM684.038 79.2604C681.706 79.2604 679.613 78.7521 677.759 77.7356C675.935 76.7191 674.5 75.299 673.454 73.4752C672.407 71.6216 671.884 69.5437 671.884 67.2416C671.884 64.9395 672.407 62.8766 673.454 61.0529C674.5 59.2292 675.935 57.809 677.759 56.7925C679.613 55.776 681.706 55.2678 684.038 55.2678C686.071 55.2678 687.879 55.6714 689.464 56.4786C691.078 57.2559 692.349 58.407 693.276 59.9317L690.899 61.5462C690.122 60.3802 689.135 59.5132 687.939 58.9451C686.743 58.3472 685.443 58.0482 684.038 58.0482C682.333 58.0482 680.794 58.4369 679.418 59.2142C678.073 59.9616 677.012 61.0379 676.234 62.4431C675.487 63.8483 675.113 65.4478 675.113 67.2416C675.113 69.0654 675.487 70.6798 676.234 72.085C677.012 73.4603 678.073 74.5366 679.418 75.3139C680.794 76.0613 682.333 76.4351 684.038 76.4351C685.443 76.4351 686.743 76.151 687.939 75.583C689.135 75.0149 690.122 74.1479 690.899 72.9819L693.276 74.5964C692.349 76.1211 691.078 77.2871 689.464 78.0944C687.849 78.8717 686.041 79.2604 684.038 79.2604ZM707.925 67.1968L702.364 72.3092V79.0361H699.18V45.7604H702.364V68.3179L716.446 55.4471H720.393L710.302 65.089L721.334 79.0361H717.433L707.925 67.1968ZM746.933 55.4471V79.0361H743.884V74.7309C743.047 76.166 741.896 77.2871 740.431 78.0944C738.966 78.8717 737.291 79.2604 735.408 79.2604C732.328 79.2604 729.892 78.4083 728.098 76.7041C726.334 74.9701 725.452 72.4438 725.452 69.1252V55.4471H728.636V68.8112C728.636 71.2927 729.249 73.1763 730.475 74.4618C731.701 75.7474 733.45 76.3902 735.722 76.3902C738.203 76.3902 740.162 75.6428 741.597 74.1479C743.032 72.6232 743.749 70.5154 743.749 67.8246V55.4471H746.933ZM785.27 55.2678C788.23 55.2678 790.547 56.1198 792.221 57.824C793.925 59.5281 794.777 62.0395 794.777 65.3581V79.0361H791.593V65.672C791.593 63.2204 790.995 61.3519 789.799 60.0663C788.633 58.7807 786.974 58.1379 784.822 58.1379C782.37 58.1379 780.442 58.9003 779.036 60.425C777.631 61.9199 776.929 63.9978 776.929 66.6586V79.0361H773.745V65.672C773.745 63.2204 773.147 61.3519 771.951 60.0663C770.785 58.7807 769.11 58.1379 766.928 58.1379C764.506 58.1379 762.578 58.9003 761.143 60.425C759.738 61.9199 759.035 63.9978 759.035 66.6586V79.0361H755.851V55.4471H758.901V59.7524C759.738 58.3173 760.904 57.2111 762.399 56.4338C763.893 55.6564 765.613 55.2678 767.556 55.2678C769.529 55.2678 771.233 55.6863 772.668 56.5234C774.133 57.3606 775.224 58.6013 775.942 60.2457C776.809 58.691 778.05 57.4802 779.664 56.6131C781.309 55.7162 783.177 55.2678 785.27 55.2678ZM813.59 76.4351C815.055 76.4351 816.401 76.1809 817.626 75.6727C818.882 75.1345 819.943 74.3572 820.81 73.3407L822.604 75.4036C821.558 76.6593 820.257 77.616 818.703 78.2738C817.148 78.9315 815.429 79.2604 813.545 79.2604C811.124 79.2604 808.971 78.7521 807.088 77.7356C805.204 76.6892 803.739 75.2541 802.693 73.4304C801.646 71.6066 801.123 69.5437 801.123 67.2416C801.123 64.9395 801.616 62.8766 802.603 61.0529C803.619 59.2292 805.01 57.809 806.774 56.7925C808.538 55.776 810.541 55.2678 812.783 55.2678C814.876 55.2678 816.759 55.7461 818.434 56.7028C820.138 57.6595 821.483 58.99 822.47 60.6941C823.486 62.3983 824.024 64.3416 824.084 66.5241L804.711 70.2912C805.309 72.2046 806.385 73.7144 807.94 74.8206C809.524 75.8969 811.408 76.4351 813.59 76.4351ZM812.783 58.0034C811.139 58.0034 809.659 58.392 808.343 59.1694C807.058 59.9168 806.041 60.9781 805.294 62.3534C804.576 63.6988 804.217 65.2535 804.217 67.0174C804.217 67.4659 804.232 67.7947 804.262 68.004L820.9 64.7751C820.541 62.8019 819.629 61.1874 818.165 59.9317C816.7 58.6462 814.906 58.0034 812.783 58.0034ZM842.584 55.2678C845.544 55.2678 847.891 56.1348 849.625 57.8688C851.389 59.573 852.271 62.0694 852.271 65.3581V79.0361H849.087V65.672C849.087 63.2204 848.474 61.3519 847.248 60.0663C846.022 58.7807 844.273 58.1379 842.001 58.1379C839.46 58.1379 837.442 58.9003 835.947 60.425C834.482 61.9199 833.749 63.9978 833.749 66.6586V79.0361H830.565V55.4471H833.615V59.7972C834.482 58.3621 835.678 57.2559 837.202 56.4786C838.757 55.6714 840.551 55.2678 842.584 55.2678ZM872.53 77.6011C871.932 78.1392 871.2 78.5578 870.333 78.8567C869.466 79.1258 868.554 79.2604 867.597 79.2604C865.385 79.2604 863.681 78.6624 862.485 77.4665C861.289 76.2706 860.691 74.5814 860.691 72.3989V50.2898H863.875V55.4471H871.005V58.1379H863.875V72.2195C863.875 73.6247 864.219 74.701 864.906 75.4485C865.594 76.166 866.596 76.5248 867.911 76.5248C869.346 76.5248 870.512 76.1211 871.409 75.3139L872.53 77.6011ZM898.996 55.4471V79.0361H895.946V74.3721C894.989 75.9567 893.719 77.1675 892.134 78.0047C890.579 78.8418 888.816 79.2604 886.842 79.2604C884.63 79.2604 882.627 78.7521 880.833 77.7356C879.039 76.7191 877.634 75.299 876.617 73.4752C875.601 71.6515 875.093 69.5736 875.093 67.2416C875.093 64.9096 875.601 62.8318 876.617 61.008C877.634 59.1843 879.039 57.7791 880.833 56.7925C882.627 55.776 884.63 55.2678 886.842 55.2678C888.756 55.2678 890.475 55.6714 892 56.4786C893.554 57.2559 894.825 58.407 895.812 59.9317V55.4471H898.996ZM887.111 76.4351C888.756 76.4351 890.236 76.0613 891.551 75.3139C892.897 74.5366 893.943 73.4453 894.69 72.0402C895.468 70.635 895.856 69.0355 895.856 67.2416C895.856 65.4478 895.468 63.8483 894.69 62.4431C893.943 61.0379 892.897 59.9616 891.551 59.2142C890.236 58.4369 888.756 58.0482 887.111 58.0482C885.437 58.0482 883.927 58.4369 882.582 59.2142C881.266 59.9616 880.22 61.0379 879.443 62.4431C878.695 63.8483 878.322 65.4478 878.322 67.2416C878.322 69.0355 878.695 70.635 879.443 72.0402C880.22 73.4453 881.266 74.5366 882.582 75.3139C883.927 76.0613 885.437 76.4351 887.111 76.4351ZM910.913 60.0663C911.66 58.4817 912.766 57.2858 914.231 56.4786C915.726 55.6714 917.565 55.2678 919.747 55.2678V58.3621L918.985 58.3173C916.504 58.3173 914.56 59.0797 913.155 60.6044C911.75 62.1292 911.047 64.2669 911.047 67.0174V79.0361H907.863V55.4471H910.913V60.0663ZM947.12 55.4471V76.166C947.12 80.1722 946.208 83.1321 944.384 85.0455C942.561 86.9888 939.81 87.9605 936.133 87.9605C934.07 87.9605 932.111 87.6316 930.258 86.9739C928.434 86.346 926.954 85.4641 925.818 84.328L927.433 81.9063C928.449 82.9228 929.705 83.7151 931.2 84.2831C932.694 84.8512 934.294 85.1352 935.998 85.1352C938.719 85.1352 940.722 84.4326 942.007 83.0274C943.293 81.6521 943.936 79.4995 943.936 76.5696V73.834C943.099 75.2093 941.948 76.2706 940.483 77.0181C939.048 77.7655 937.418 78.1392 935.594 78.1392C932.515 78.1392 930.078 77.2871 928.285 75.583C926.521 73.8489 925.639 71.3226 925.639 68.004V55.4471H928.823V67.6901C928.823 70.1716 929.436 72.0551 930.661 73.3407C931.887 74.6263 933.636 75.2691 935.908 75.2691C938.39 75.2691 940.348 74.5216 941.783 73.0268C943.218 71.502 943.936 69.3942 943.936 66.7035V55.4471H947.12Z" fill="black"/>
<path d="M1175.65 63.34C1175.65 66.1803 1175 68.7664 1173.72 71.0984C1172.46 73.4304 1170.7 75.3139 1168.43 76.749C1166.19 78.1542 1163.64 78.9763 1160.8 79.2155V85.0903H1157.53V79.2155C1154.69 78.9763 1152.13 78.1392 1149.86 76.7041C1147.62 75.2691 1145.86 73.4005 1144.57 71.0984C1143.31 68.7664 1142.69 66.1803 1142.69 63.34C1142.69 60.3204 1143.39 57.5997 1144.79 55.1781C1146.23 52.7564 1148.2 50.8579 1150.71 49.4826C1153.25 48.0774 1156.08 47.3749 1159.19 47.3749C1162.3 47.3749 1165.09 48.0625 1167.58 49.4378C1170.09 50.8131 1172.06 52.7265 1173.5 55.1781C1174.93 57.5997 1175.65 60.3204 1175.65 63.34ZM1160.71 76.2557C1162.96 76.0464 1164.96 75.3588 1166.72 74.1928C1168.49 72.9969 1169.86 71.4572 1170.85 69.5736C1171.84 67.6901 1172.33 65.6122 1172.33 63.34C1172.33 60.8885 1171.76 58.676 1170.62 56.7028C1169.49 54.7296 1167.92 53.1749 1165.92 52.0388C1163.91 50.9027 1161.67 50.3347 1159.19 50.3347C1156.71 50.3347 1154.45 50.9027 1152.42 52.0388C1150.41 53.1749 1148.83 54.7296 1147.66 56.7028C1146.53 58.676 1145.96 60.8885 1145.96 63.34C1145.96 65.6122 1146.45 67.6901 1147.44 69.5736C1148.46 71.4572 1149.85 72.9819 1151.61 74.1479C1153.37 75.3139 1155.38 76.0165 1157.62 76.2557V68.4973H1160.71V76.2557ZM1203.67 55.4471V79.0361H1200.62V74.7309C1199.78 76.166 1198.63 77.2871 1197.17 78.0944C1195.7 78.8717 1194.03 79.2604 1192.15 79.2604C1189.07 79.2604 1186.63 78.4083 1184.84 76.7041C1183.07 74.9701 1182.19 72.4438 1182.19 69.1252V55.4471H1185.37V68.8112C1185.37 71.2927 1185.99 73.1763 1187.21 74.4618C1188.44 75.7474 1190.19 76.3902 1192.46 76.3902C1194.94 76.3902 1196.9 75.6428 1198.33 74.1479C1199.77 72.6232 1200.49 70.5154 1200.49 67.8246V55.4471H1203.67ZM1234.11 55.4471V79.0361H1231.06V74.3721C1230.11 75.9567 1228.84 77.1675 1227.25 78.0047C1225.7 78.8418 1223.93 79.2604 1221.96 79.2604C1219.75 79.2604 1217.75 78.7521 1215.95 77.7356C1214.16 76.7191 1212.75 75.299 1211.74 73.4752C1210.72 71.6515 1210.21 69.5736 1210.21 67.2416C1210.21 64.9096 1210.72 62.8318 1211.74 61.008C1212.75 59.1843 1214.16 57.7791 1215.95 56.7925C1217.75 55.776 1219.75 55.2678 1221.96 55.2678C1223.87 55.2678 1225.59 55.6714 1227.12 56.4786C1228.67 57.2559 1229.94 58.407 1230.93 59.9317V55.4471H1234.11ZM1222.23 76.4351C1223.87 76.4351 1225.35 76.0613 1226.67 75.3139C1228.02 74.5366 1229.06 73.4453 1229.81 72.0402C1230.59 70.635 1230.98 69.0355 1230.98 67.2416C1230.98 65.4478 1230.59 63.8483 1229.81 62.4431C1229.06 61.0379 1228.02 59.9616 1226.67 59.2142C1225.35 58.4369 1223.87 58.0482 1222.23 58.0482C1220.56 58.0482 1219.05 58.4369 1217.7 59.2142C1216.39 59.9616 1215.34 61.0379 1214.56 62.4431C1213.81 63.8483 1213.44 65.4478 1213.44 67.2416C1213.44 69.0355 1213.81 70.635 1214.56 72.0402C1215.34 73.4453 1216.39 74.5366 1217.7 75.3139C1219.05 76.0613 1220.56 76.4351 1222.23 76.4351ZM1252.76 79.2604C1250.43 79.2604 1248.33 78.7521 1246.48 77.7356C1244.66 76.7191 1243.22 75.299 1242.17 73.4752C1241.13 71.6216 1240.61 69.5437 1240.61 67.2416C1240.61 64.9395 1241.13 62.8766 1242.17 61.0529C1243.22 59.2292 1244.66 57.809 1246.48 56.7925C1248.33 55.776 1250.43 55.2678 1252.76 55.2678C1254.79 55.2678 1256.6 55.6714 1258.18 56.4786C1259.8 57.2559 1261.07 58.407 1262 59.9317L1259.62 61.5462C1258.84 60.3802 1257.86 59.5132 1256.66 58.9451C1255.46 58.3472 1254.16 58.0482 1252.76 58.0482C1251.05 58.0482 1249.51 58.4369 1248.14 59.2142C1246.79 59.9616 1245.73 61.0379 1244.96 62.4431C1244.21 63.8483 1243.83 65.4478 1243.83 67.2416C1243.83 69.0654 1244.21 70.6798 1244.96 72.085C1245.73 73.4603 1246.79 74.5366 1248.14 75.3139C1249.51 76.0613 1251.05 76.4351 1252.76 76.4351C1254.16 76.4351 1255.46 76.151 1256.66 75.583C1257.86 75.0149 1258.84 74.1479 1259.62 72.9819L1262 74.5964C1261.07 76.1211 1259.8 77.2871 1258.18 78.0944C1256.57 78.8717 1254.76 79.2604 1252.76 79.2604ZM1276.65 67.1968L1271.09 72.3092V79.0361H1267.9V45.7604H1271.09V68.3179L1285.17 55.4471H1289.11L1279.02 65.089L1290.06 79.0361H1286.15L1276.65 67.1968ZM1315.33 53.4291C1312.25 51.6352 1308.84 50.6038 1305.1 50.3347V79.0361H1301.79V50.3347C1298.11 50.5739 1294.69 51.6053 1291.52 53.4291L1290.31 50.828C1294.19 48.5259 1298.56 47.3749 1303.4 47.3749C1308.33 47.3749 1312.71 48.5259 1316.54 50.828L1315.33 53.4291ZM1341.32 55.4471V79.0361H1338.27V74.7309C1337.43 76.166 1336.28 77.2871 1334.82 78.0944C1333.35 78.8717 1331.68 79.2604 1329.79 79.2604C1326.71 79.2604 1324.28 78.4083 1322.48 76.7041C1320.72 74.9701 1319.84 72.4438 1319.84 69.1252V55.4471H1323.02V68.8112C1323.02 71.2927 1323.63 73.1763 1324.86 74.4618C1326.09 75.7474 1327.83 76.3902 1330.11 76.3902C1332.59 76.3902 1334.55 75.6428 1335.98 74.1479C1337.42 72.6232 1338.13 70.5154 1338.13 67.8246V55.4471H1341.32ZM1362.39 55.2678C1364.6 55.2678 1366.6 55.776 1368.4 56.7925C1370.19 57.7791 1371.6 59.1843 1372.61 61.008C1373.63 62.8318 1374.14 64.9096 1374.14 67.2416C1374.14 69.5736 1373.63 71.6515 1372.61 73.4752C1371.6 75.299 1370.19 76.7191 1368.4 77.7356C1366.6 78.7521 1364.6 79.2604 1362.39 79.2604C1360.42 79.2604 1358.64 78.8418 1357.05 78.0047C1355.5 77.1675 1354.24 75.9567 1353.29 74.3721V79.0361H1350.24V45.7604H1353.42V59.9317C1354.41 58.407 1355.66 57.2559 1357.19 56.4786C1358.74 55.6714 1360.48 55.2678 1362.39 55.2678ZM1362.16 76.4351C1363.81 76.4351 1365.3 76.0613 1366.65 75.3139C1367.99 74.5366 1369.04 73.4453 1369.79 72.0402C1370.57 70.635 1370.95 69.0355 1370.95 67.2416C1370.95 65.4478 1370.57 63.8483 1369.79 62.4431C1369.04 61.0379 1367.99 59.9616 1366.65 59.2142C1365.3 58.4369 1363.81 58.0482 1362.16 58.0482C1360.49 58.0482 1358.98 58.4369 1357.64 59.2142C1356.32 59.9616 1355.27 61.0379 1354.5 62.4431C1353.75 63.8483 1353.37 65.4478 1353.37 67.2416C1353.37 69.0355 1353.75 70.635 1354.5 72.0402C1355.27 73.4453 1356.32 74.5366 1357.64 75.3139C1358.98 76.0613 1360.49 76.4351 1362.16 76.4351ZM1390.72 76.4351C1392.18 76.4351 1393.53 76.1809 1394.76 75.6727C1396.01 75.1345 1397.07 74.3572 1397.94 73.3407L1399.73 75.4036C1398.69 76.6593 1397.39 77.616 1395.83 78.2738C1394.28 78.9315 1392.56 79.2604 1390.67 79.2604C1388.25 79.2604 1386.1 78.7521 1384.22 77.7356C1382.33 76.6892 1380.87 75.2541 1379.82 73.4304C1378.78 71.6066 1378.25 69.5437 1378.25 67.2416C1378.25 64.9395 1378.75 62.8766 1379.73 61.0529C1380.75 59.2292 1382.14 57.809 1383.9 56.7925C1385.67 55.776 1387.67 55.2678 1389.91 55.2678C1392.01 55.2678 1393.89 55.7461 1395.56 56.7028C1397.27 57.6595 1398.61 58.99 1399.6 60.6941C1400.62 62.3983 1401.15 64.3416 1401.21 66.5241L1381.84 70.2912C1382.44 72.2046 1383.51 73.7144 1385.07 74.8206C1386.65 75.8969 1388.54 76.4351 1390.72 76.4351ZM1389.91 58.0034C1388.27 58.0034 1386.79 58.392 1385.47 59.1694C1384.19 59.9168 1383.17 60.9781 1382.42 62.3534C1381.71 63.6988 1381.35 65.2535 1381.35 67.0174C1381.35 67.4659 1381.36 67.7947 1381.39 68.004L1398.03 64.7751C1397.67 62.8019 1396.76 61.1874 1395.29 59.9317C1393.83 58.6462 1392.04 58.0034 1389.91 58.0034Z" fill="black"/>
<path d="M1151.18 970.534H1180.95C1188.41 970.534 1195.04 972.014 1200.82 974.974C1206.61 977.934 1211.08 982.105 1214.24 987.486C1217.47 992.8 1219.09 998.922 1219.09 1005.85C1219.09 1012.78 1217.47 1018.93 1214.24 1024.32C1211.08 1029.63 1206.61 1033.77 1200.82 1036.73C1195.04 1039.69 1188.41 1041.17 1180.95 1041.17H1151.18V970.534ZM1180.34 1032.39C1186.06 1032.39 1191.07 1031.28 1195.37 1029.06C1199.75 1026.84 1203.11 1023.74 1205.46 1019.78C1207.82 1015.74 1209 1011.1 1209 1005.85C1209 1000.6 1207.82 995.996 1205.46 992.027C1203.11 987.991 1199.75 984.863 1195.37 982.643C1191.07 980.423 1186.06 979.313 1180.34 979.313H1161.27V1032.39H1180.34ZM1282.98 987.688V1041.17H1273.79V1033.09C1271.84 1035.85 1269.25 1038.01 1266.02 1039.55C1262.86 1041.03 1259.4 1041.77 1255.63 1041.77C1248.5 1041.77 1242.88 1039.82 1238.78 1035.92C1234.68 1031.95 1232.63 1026.13 1232.63 1018.46V987.688H1242.31V1017.35C1242.31 1022.53 1243.56 1026.47 1246.05 1029.16C1248.53 1031.78 1252.1 1033.09 1256.74 1033.09C1261.85 1033.09 1265.89 1031.55 1268.85 1028.45C1271.81 1025.36 1273.29 1020.99 1273.29 1015.34V987.688H1282.98ZM1324.73 1041.77C1319.28 1041.77 1314.4 1040.6 1310.09 1038.24C1305.86 1035.89 1302.53 1032.66 1300.11 1028.55C1297.68 1024.38 1296.47 1019.67 1296.47 1014.43C1296.47 1009.18 1297.68 1004.51 1300.11 1000.4C1302.53 996.231 1305.86 993.002 1310.09 990.715C1314.4 988.361 1319.28 987.183 1324.73 987.183C1329.57 987.183 1333.87 988.159 1337.64 990.11C1341.48 992.06 1344.44 994.886 1346.52 998.586L1339.15 1003.33C1337.47 1000.77 1335.39 998.855 1332.9 997.577C1330.41 996.298 1327.65 995.659 1324.62 995.659C1321.13 995.659 1317.97 996.433 1315.14 997.98C1312.38 999.527 1310.2 1001.75 1308.58 1004.64C1307.03 1007.47 1306.26 1010.73 1306.26 1014.43C1306.26 1018.19 1307.03 1021.52 1308.58 1024.42C1310.2 1027.24 1312.38 1029.43 1315.14 1030.98C1317.97 1032.52 1321.13 1033.3 1324.62 1033.3C1327.65 1033.3 1330.41 1032.66 1332.9 1031.38C1335.39 1030.1 1337.47 1028.18 1339.15 1025.63L1346.52 1030.27C1344.44 1033.97 1341.48 1036.83 1337.64 1038.85C1333.87 1040.8 1329.57 1041.77 1324.73 1041.77ZM1379.16 1016.24L1368.06 1026.54V1041.17H1358.37V966.296H1368.06V1014.33L1397.22 987.688H1408.92L1386.42 1009.79L1411.14 1041.17H1399.24L1379.16 1016.24ZM1449.06 970.534H1478.83C1486.29 970.534 1492.92 972.014 1498.71 974.974C1504.49 977.934 1508.96 982.105 1512.13 987.486C1515.35 992.8 1516.97 998.922 1516.97 1005.85C1516.97 1012.78 1515.35 1018.93 1512.13 1024.32C1508.96 1029.63 1504.49 1033.77 1498.71 1036.73C1492.92 1039.69 1486.29 1041.17 1478.83 1041.17H1449.06V970.534ZM1478.22 1032.39C1483.94 1032.39 1488.95 1031.28 1493.26 1029.06C1497.63 1026.84 1500.99 1023.74 1503.35 1019.78C1505.7 1015.74 1506.88 1011.1 1506.88 1005.85C1506.88 1000.6 1505.7 995.996 1503.35 992.027C1500.99 987.991 1497.63 984.863 1493.26 982.643C1488.95 980.423 1483.94 979.313 1478.22 979.313H1459.15V1032.39H1478.22ZM1580.86 987.688V1033.9C1580.86 1043.25 1578.67 1050.15 1574.3 1054.59C1569.93 1059.09 1563.37 1061.35 1554.62 1061.35C1549.85 1061.35 1545.27 1060.64 1540.9 1059.23C1536.6 1057.88 1533.06 1055.93 1530.31 1053.38L1535.05 1045.91C1537.4 1048.06 1540.23 1049.74 1543.52 1050.95C1546.89 1052.17 1550.42 1052.77 1554.12 1052.77C1559.97 1052.77 1564.28 1051.29 1567.03 1048.33C1569.79 1045.44 1571.17 1040.97 1571.17 1034.91V1030.98C1569.22 1033.53 1566.7 1035.52 1563.6 1036.93C1560.51 1038.27 1557.15 1038.95 1553.51 1038.95C1546.38 1038.95 1540.77 1037 1536.66 1033.09C1532.56 1029.19 1530.51 1023.41 1530.51 1015.74V987.688H1540.19V1014.63C1540.19 1019.74 1541.44 1023.64 1543.93 1026.33C1546.42 1028.96 1549.98 1030.27 1554.62 1030.27C1559.74 1030.27 1563.77 1028.72 1566.73 1025.63C1569.69 1022.53 1571.17 1018.16 1571.17 1012.51V987.688H1580.86ZM1627.85 987.183C1634.65 987.183 1640.03 989.168 1644 993.137C1648.04 997.038 1650.05 1002.79 1650.05 1010.39V1041.17H1640.37V1011.5C1640.37 1006.32 1639.12 1002.42 1636.63 999.796C1634.14 997.173 1630.58 995.861 1625.94 995.861C1620.69 995.861 1616.55 997.408 1613.53 1000.5C1610.5 1003.53 1608.99 1007.9 1608.99 1013.62V1041.17H1599.3V987.688H1608.58V995.76C1610.53 993.002 1613.16 990.883 1616.45 989.403C1619.82 987.923 1623.62 987.183 1627.85 987.183ZM1718.73 987.688V1041.17H1709.44V1032.69C1707.29 1035.65 1704.57 1037.9 1701.27 1039.45C1697.98 1041 1694.34 1041.77 1690.37 1041.77C1685.19 1041.77 1680.55 1040.63 1676.45 1038.34C1672.35 1036.05 1669.12 1032.86 1666.76 1028.76C1664.48 1024.59 1663.33 1019.81 1663.33 1014.43C1663.33 1009.05 1664.48 1004.3 1666.76 1000.2C1669.12 996.097 1672.35 992.901 1676.45 990.614C1680.55 988.327 1685.19 987.183 1690.37 987.183C1694.21 987.183 1697.74 987.923 1700.97 989.403C1704.2 990.816 1706.89 992.935 1709.04 995.76V987.688H1718.73ZM1691.18 1033.3C1694.54 1033.3 1697.61 1032.52 1700.36 1030.98C1703.12 1029.36 1705.27 1027.14 1706.82 1024.32C1708.37 1021.42 1709.14 1018.13 1709.14 1014.43C1709.14 1010.73 1708.37 1007.47 1706.82 1004.64C1705.27 1001.75 1703.12 999.527 1700.36 997.98C1697.61 996.433 1694.54 995.659 1691.18 995.659C1687.75 995.659 1684.66 996.433 1681.9 997.98C1679.21 999.527 1677.05 1001.75 1675.44 1004.64C1673.89 1007.47 1673.12 1010.73 1673.12 1014.43C1673.12 1018.13 1673.89 1021.42 1675.44 1024.32C1677.05 1027.14 1679.21 1029.36 1681.9 1030.98C1684.66 1032.52 1687.75 1033.3 1691.18 1033.3ZM1752.39 1041.77C1748.02 1041.77 1743.82 1041.2 1739.78 1040.06C1735.74 1038.85 1732.58 1037.33 1730.3 1035.52L1734.33 1027.85C1736.69 1029.53 1739.54 1030.87 1742.91 1031.88C1746.27 1032.89 1749.67 1033.4 1753.1 1033.4C1761.58 1033.4 1765.81 1030.98 1765.81 1026.13C1765.81 1024.52 1765.24 1023.24 1764.1 1022.3C1762.95 1021.36 1761.51 1020.68 1759.76 1020.28C1758.08 1019.81 1755.66 1019.3 1752.49 1018.77C1748.19 1018.09 1744.66 1017.32 1741.9 1016.45C1739.21 1015.57 1736.89 1014.09 1734.94 1012.01C1732.99 1009.92 1732.01 1006.99 1732.01 1003.23C1732.01 998.384 1734.03 994.516 1738.07 991.623C1742.1 988.663 1747.52 987.183 1754.31 987.183C1757.88 987.183 1761.44 987.621 1765.01 988.495C1768.57 989.37 1771.5 990.547 1773.78 992.027L1769.65 999.696C1765.28 996.87 1760.13 995.458 1754.21 995.458C1750.11 995.458 1746.98 996.13 1744.83 997.476C1742.67 998.821 1741.6 1000.6 1741.6 1002.82C1741.6 1004.57 1742.2 1005.95 1743.41 1006.96C1744.62 1007.97 1746.1 1008.71 1747.85 1009.18C1749.67 1009.65 1752.19 1010.19 1755.42 1010.79C1759.73 1011.53 1763.19 1012.34 1765.81 1013.22C1768.5 1014.02 1770.79 1015.44 1772.67 1017.45C1774.56 1019.47 1775.5 1022.3 1775.5 1025.93C1775.5 1030.77 1773.41 1034.64 1769.24 1037.53C1765.14 1040.36 1759.52 1041.77 1752.39 1041.77ZM1815.76 1038.04C1814.35 1039.25 1812.6 1040.19 1810.51 1040.86C1808.43 1041.47 1806.27 1041.77 1804.05 1041.77C1798.67 1041.77 1794.5 1040.33 1791.54 1037.43C1788.58 1034.54 1787.1 1030.4 1787.1 1025.02V975.983H1796.79V987.688H1812.13V995.659H1796.79V1024.62C1796.79 1027.51 1797.49 1029.73 1798.91 1031.28C1800.39 1032.83 1802.47 1033.6 1805.16 1033.6C1808.12 1033.6 1810.65 1032.76 1812.73 1031.08L1815.76 1038.04ZM1877.26 987.688V1033.9C1877.26 1043.25 1875.08 1050.15 1870.7 1054.59C1866.33 1059.09 1859.77 1061.35 1851.03 1061.35C1846.25 1061.35 1841.68 1060.64 1837.3 1059.23C1833 1057.88 1829.47 1055.93 1826.71 1053.38L1831.45 1045.91C1833.81 1048.06 1836.63 1049.74 1839.93 1050.95C1843.29 1052.17 1846.82 1052.77 1850.52 1052.77C1856.38 1052.77 1860.68 1051.29 1863.44 1048.33C1866.2 1045.44 1867.58 1040.97 1867.58 1034.91V1030.98C1865.62 1033.53 1863.1 1035.52 1860.01 1036.93C1856.91 1038.27 1853.55 1038.95 1849.92 1038.95C1842.79 1038.95 1837.17 1037 1833.07 1033.09C1828.96 1029.19 1826.91 1023.41 1826.91 1015.74V987.688H1836.6V1014.63C1836.6 1019.74 1837.84 1023.64 1840.33 1026.33C1842.82 1028.96 1846.39 1030.27 1851.03 1030.27C1856.14 1030.27 1860.18 1028.72 1863.14 1025.63C1866.1 1022.53 1867.58 1018.16 1867.58 1012.51V987.688H1877.26ZM1264.12 1093.53V1136.01C1264.12 1145.57 1261.73 1152.8 1256.96 1157.71C1252.25 1162.55 1245.49 1164.97 1236.67 1164.97C1231.49 1164.97 1226.92 1164.07 1222.95 1162.25C1219.05 1160.37 1216.06 1157.81 1213.97 1154.58C1211.82 1157.81 1208.83 1160.37 1204.99 1162.25C1201.16 1164.07 1196.62 1164.97 1191.37 1164.97C1182.56 1164.97 1175.8 1162.55 1171.09 1157.71C1166.38 1152.8 1164.02 1145.57 1164.02 1136.01V1093.53H1174.11V1135.71C1174.11 1149.23 1179.87 1155.99 1191.37 1155.99C1196.95 1155.99 1201.29 1154.35 1204.39 1151.05C1207.48 1147.75 1209.03 1142.64 1209.03 1135.71V1093.53H1219.12V1135.71C1219.12 1142.64 1220.63 1147.75 1223.66 1151.05C1226.75 1154.35 1231.09 1155.99 1236.67 1155.99C1248.24 1155.99 1254.03 1149.23 1254.03 1135.71V1093.53H1264.12ZM1333.79 1110.69V1164.17H1324.5V1155.69C1322.35 1158.65 1319.63 1160.9 1316.33 1162.45C1313.03 1164 1309.4 1164.77 1305.43 1164.77C1300.25 1164.77 1295.61 1163.63 1291.51 1161.34C1287.4 1159.05 1284.18 1155.86 1281.82 1151.76C1279.53 1147.59 1278.39 1142.81 1278.39 1137.43C1278.39 1132.05 1279.53 1127.3 1281.82 1123.2C1284.18 1119.1 1287.4 1115.9 1291.51 1113.61C1295.61 1111.33 1300.25 1110.18 1305.43 1110.18C1309.27 1110.18 1312.8 1110.92 1316.03 1112.4C1319.26 1113.82 1321.95 1115.93 1324.1 1118.76V1110.69H1333.79ZM1306.24 1156.3C1309.6 1156.3 1312.66 1155.52 1315.42 1153.98C1318.18 1152.36 1320.33 1150.14 1321.88 1147.32C1323.43 1144.42 1324.2 1141.13 1324.2 1137.43C1324.2 1133.73 1323.43 1130.47 1321.88 1127.64C1320.33 1124.75 1318.18 1122.53 1315.42 1120.98C1312.66 1119.43 1309.6 1118.66 1306.24 1118.66C1302.81 1118.66 1299.72 1119.43 1296.96 1120.98C1294.27 1122.53 1292.11 1124.75 1290.5 1127.64C1288.95 1130.47 1288.18 1133.73 1288.18 1137.43C1288.18 1141.13 1288.95 1144.42 1290.5 1147.32C1292.11 1150.14 1294.27 1152.36 1296.96 1153.98C1299.72 1155.52 1302.81 1156.3 1306.24 1156.3ZM1380.27 1161.04C1378.85 1162.25 1377.11 1163.19 1375.02 1163.86C1372.93 1164.47 1370.78 1164.77 1368.56 1164.77C1363.18 1164.77 1359.01 1163.33 1356.05 1160.43C1353.09 1157.54 1351.61 1153.4 1351.61 1148.02V1098.98H1361.3V1110.69H1376.63V1118.66H1361.3V1147.62C1361.3 1150.51 1362 1152.73 1363.42 1154.28C1364.9 1155.83 1366.98 1156.6 1369.67 1156.6C1372.63 1156.6 1375.15 1155.76 1377.24 1154.08L1380.27 1161.04ZM1414.27 1156.3C1420.66 1156.3 1425.8 1154.14 1429.71 1149.84L1434.95 1156.09C1432.6 1158.92 1429.6 1161.07 1425.97 1162.55C1422.41 1164.03 1418.4 1164.77 1413.96 1164.77C1408.31 1164.77 1403.3 1163.63 1398.93 1161.34C1394.56 1158.99 1391.16 1155.72 1388.74 1151.55C1386.38 1147.38 1385.21 1142.67 1385.21 1137.43C1385.21 1132.25 1386.35 1127.57 1388.64 1123.4C1390.99 1119.23 1394.19 1116 1398.22 1113.72C1402.33 1111.36 1406.93 1110.18 1412.05 1110.18C1416.89 1110.18 1421.3 1111.29 1425.27 1113.51C1429.23 1115.67 1432.4 1118.73 1434.75 1122.7C1437.1 1126.66 1438.32 1131.24 1438.38 1136.42L1395.9 1144.69C1397.25 1148.39 1399.5 1151.25 1402.66 1153.27C1405.89 1155.29 1409.76 1156.3 1414.27 1156.3ZM1412.05 1118.36C1408.68 1118.36 1405.66 1119.13 1402.97 1120.68C1400.34 1122.22 1398.29 1124.41 1396.81 1127.24C1395.33 1129.99 1394.59 1133.22 1394.59 1136.92V1137.93L1428.8 1131.47C1427.92 1127.57 1425.97 1124.41 1422.94 1121.99C1419.92 1119.57 1416.29 1118.36 1412.05 1118.36ZM1461.22 1119.67C1462.9 1116.57 1465.39 1114.22 1468.68 1112.61C1471.98 1110.99 1475.98 1110.18 1480.69 1110.18V1119.57C1480.15 1119.5 1479.41 1119.47 1478.47 1119.47C1473.23 1119.47 1469.09 1121.05 1466.06 1124.21C1463.1 1127.3 1461.62 1131.74 1461.62 1137.53V1164.17H1451.93V1110.69H1461.22V1119.67ZM1574.4 1156.8C1571.38 1159.36 1567.41 1161.38 1562.5 1162.86C1557.59 1164.27 1552.24 1164.97 1546.45 1164.97C1539.99 1164.97 1534.51 1164.13 1530 1162.45C1525.5 1160.7 1522.1 1158.31 1519.81 1155.29C1517.53 1152.26 1516.38 1148.76 1516.38 1144.79C1516.38 1140.76 1517.53 1137.29 1519.81 1134.4C1522.17 1131.44 1525.2 1129.32 1528.89 1128.04C1525.94 1126.7 1523.61 1124.68 1521.93 1121.99C1520.25 1119.23 1519.41 1116.07 1519.41 1112.5C1519.41 1108.8 1520.45 1105.47 1522.54 1102.51C1524.69 1099.55 1527.92 1097.2 1532.22 1095.45C1536.53 1093.64 1541.78 1092.73 1547.97 1092.73C1552.34 1092.73 1556.58 1093.2 1560.68 1094.14C1564.85 1095.08 1568.45 1096.43 1571.48 1098.18L1568.55 1106.25C1562.5 1103.02 1555.77 1101.4 1548.37 1101.4C1542.25 1101.4 1537.57 1102.51 1534.34 1104.73C1531.11 1106.89 1529.5 1109.71 1529.5 1113.21C1529.5 1116.71 1530.74 1119.4 1533.23 1121.28C1535.72 1123.17 1539.29 1124.11 1543.93 1124.11H1562.09V1132.79H1543.53C1538.21 1132.79 1534.04 1133.73 1531.01 1135.61C1527.99 1137.49 1526.47 1140.32 1526.47 1144.09C1526.47 1147.92 1528.19 1150.91 1531.62 1153.07C1535.05 1155.22 1540.16 1156.3 1546.96 1156.3C1551.67 1156.3 1556.14 1155.66 1560.38 1154.38C1564.68 1153.03 1568.21 1151.22 1570.97 1148.93L1574.4 1156.8ZM1635.02 1089.3V1164.17H1625.74V1155.69C1623.58 1158.65 1620.86 1160.9 1617.56 1162.45C1614.27 1164 1610.63 1164.77 1606.67 1164.77C1601.49 1164.77 1596.84 1163.63 1592.74 1161.34C1588.64 1159.05 1585.41 1155.86 1583.05 1151.76C1580.77 1147.59 1579.62 1142.81 1579.62 1137.43C1579.62 1132.05 1580.77 1127.3 1583.05 1123.2C1585.41 1119.1 1588.64 1115.9 1592.74 1113.61C1596.84 1111.33 1601.49 1110.18 1606.67 1110.18C1610.5 1110.18 1614.03 1110.92 1617.26 1112.4C1620.49 1113.82 1623.18 1115.93 1625.33 1118.76V1089.3H1635.02ZM1607.47 1156.3C1610.84 1156.3 1613.9 1155.52 1616.65 1153.98C1619.41 1152.36 1621.57 1150.14 1623.11 1147.32C1624.66 1144.42 1625.43 1141.13 1625.43 1137.43C1625.43 1133.73 1624.66 1130.47 1623.11 1127.64C1621.57 1124.75 1619.41 1122.53 1616.65 1120.98C1613.9 1119.43 1610.84 1118.66 1607.47 1118.66C1604.04 1118.66 1600.95 1119.43 1598.19 1120.98C1595.5 1122.53 1593.35 1124.75 1591.73 1127.64C1590.18 1130.47 1589.41 1133.73 1589.41 1137.43C1589.41 1141.13 1590.18 1144.42 1591.73 1147.32C1593.35 1150.14 1595.5 1152.36 1598.19 1153.98C1600.95 1155.52 1604.04 1156.3 1607.47 1156.3ZM1653.35 1110.69H1663.03V1164.17H1653.35V1110.69ZM1658.19 1100.4C1656.31 1100.4 1654.73 1099.79 1653.45 1098.58C1652.24 1097.37 1651.63 1095.89 1651.63 1094.14C1651.63 1092.39 1652.24 1090.91 1653.45 1089.7C1654.73 1088.42 1656.31 1087.78 1658.19 1087.78C1660.07 1087.78 1661.62 1088.39 1662.83 1089.6C1664.11 1090.74 1664.75 1092.19 1664.75 1093.94C1664.75 1095.75 1664.11 1097.3 1662.83 1098.58C1661.62 1099.79 1660.07 1100.4 1658.19 1100.4ZM1709.68 1161.04C1708.27 1162.25 1706.52 1163.19 1704.43 1163.86C1702.35 1164.47 1700.2 1164.77 1697.98 1164.77C1692.6 1164.77 1688.42 1163.33 1685.46 1160.43C1682.5 1157.54 1681.02 1153.4 1681.02 1148.02V1098.98H1690.71V1110.69H1706.05V1118.66H1690.71V1147.62C1690.71 1150.51 1691.42 1152.73 1692.83 1154.28C1694.31 1155.83 1696.4 1156.6 1699.09 1156.6C1702.05 1156.6 1704.57 1155.76 1706.65 1154.08L1709.68 1161.04ZM1721.34 1110.69H1731.03V1164.17H1721.34V1110.69ZM1726.18 1100.4C1724.3 1100.4 1722.72 1099.79 1721.44 1098.58C1720.23 1097.37 1719.62 1095.89 1719.62 1094.14C1719.62 1092.39 1720.23 1090.91 1721.44 1089.7C1722.72 1088.42 1724.3 1087.78 1726.18 1087.78C1728.07 1087.78 1729.61 1088.39 1730.82 1089.6C1732.1 1090.74 1732.74 1092.19 1732.74 1093.94C1732.74 1095.75 1732.1 1097.3 1730.82 1098.58C1729.61 1099.79 1728.07 1100.4 1726.18 1100.4ZM1772.43 1164.77C1767.11 1164.77 1762.34 1163.6 1758.1 1161.24C1753.86 1158.89 1750.53 1155.66 1748.11 1151.55C1745.75 1147.38 1744.58 1142.67 1744.58 1137.43C1744.58 1132.18 1745.75 1127.51 1748.11 1123.4C1750.53 1119.23 1753.86 1116 1758.1 1113.72C1762.34 1111.36 1767.11 1110.18 1772.43 1110.18C1777.74 1110.18 1782.48 1111.36 1786.65 1113.72C1790.89 1116 1794.19 1119.23 1796.54 1123.4C1798.96 1127.51 1800.17 1132.18 1800.17 1137.43C1800.17 1142.67 1798.96 1147.38 1796.54 1151.55C1794.19 1155.66 1790.89 1158.89 1786.65 1161.24C1782.48 1163.6 1777.74 1164.77 1772.43 1164.77ZM1772.43 1156.3C1775.86 1156.3 1778.92 1155.52 1781.61 1153.98C1784.37 1152.36 1786.52 1150.14 1788.07 1147.32C1789.61 1144.42 1790.39 1141.13 1790.39 1137.43C1790.39 1133.73 1789.61 1130.47 1788.07 1127.64C1786.52 1124.75 1784.37 1122.53 1781.61 1120.98C1778.92 1119.43 1775.86 1118.66 1772.43 1118.66C1769 1118.66 1765.9 1119.43 1763.14 1120.98C1760.45 1122.53 1758.3 1124.75 1756.69 1127.64C1755.14 1130.47 1754.36 1133.73 1754.36 1137.43C1754.36 1141.13 1755.14 1144.42 1756.69 1147.32C1758.3 1150.14 1760.45 1152.36 1763.14 1153.98C1765.9 1155.52 1769 1156.3 1772.43 1156.3ZM1842.13 1110.18C1848.92 1110.18 1854.3 1112.17 1858.27 1116.14C1862.31 1120.04 1864.33 1125.79 1864.33 1133.39V1164.17H1854.64V1134.5C1854.64 1129.32 1853.39 1125.42 1850.91 1122.8C1848.42 1120.17 1844.85 1118.86 1840.21 1118.86C1834.96 1118.86 1830.83 1120.41 1827.8 1123.5C1824.77 1126.53 1823.26 1130.9 1823.26 1136.62V1164.17H1813.57V1110.69H1822.85V1118.76C1824.81 1116 1827.43 1113.88 1830.72 1112.4C1834.09 1110.92 1837.89 1110.18 1842.13 1110.18Z" fill="black"/>
<path d="M1403.83 350.924C1476.98 364.857 1478.07 465.573 1486.92 521.217C1499.69 601.466 1508.56 685.176 1569.19 745.806C1681.16 857.776 1861.06 921.035 2018.37 921.035" stroke="#5D8026" stroke-width="7.00719" stroke-linecap="round"/>
<circle cx="1581.52" cy="1274.61" r="24.5252" stroke="#4FABD4" stroke-width="5.60575"/>
<circle cx="1666.31" cy="1227.66" r="35.0359" stroke="#4FABD4" stroke-width="5.60575"/>
<circle cx="1566.81" cy="912.336" r="39.2402" stroke="#4FABD4" stroke-width="5.60575"/>
</g>
<defs>
<clipPath id="clip0_3701_25">
<rect width="2018.07" height="1365" fill="white"/>
</clipPath>
</defs>
</svg>
